G75*
%MOIN*%
%OFA0B0*%
%FSLAX25Y25*%
%IPPOS*%
%LPD*%
%AMOC8*
5,1,8,0,0,1.08239X$1,22.5*
%
%ADD10C,0.05937*%
%ADD11C,0.07400*%
%ADD12R,0.03937X0.05512*%
%ADD13R,0.03937X0.04331*%
%ADD14R,0.15000X0.15000*%
%ADD15R,0.06969X0.07087*%
%ADD16R,0.08000X0.08000*%
%ADD17C,0.08000*%
%ADD18R,0.04724X0.11811*%
%ADD19R,0.04331X0.03937*%
%ADD20R,0.06693X0.03937*%
%ADD21R,0.04800X0.08800*%
%ADD22R,0.14173X0.08661*%
%ADD23C,0.02400*%
%ADD24C,0.02000*%
%ADD25C,0.02978*%
%ADD26C,0.00591*%
%ADD27C,0.10000*%
D10*
X0120197Y0012465D03*
X0143906Y0012489D03*
X0143906Y0042489D03*
X0120197Y0042465D03*
X0120197Y0082465D03*
X0120197Y0092465D03*
X0143906Y0092489D03*
X0143906Y0082489D03*
D11*
X0139662Y0113735D03*
X0149662Y0113735D03*
X0159662Y0113735D03*
X0169662Y0113735D03*
X0129662Y0113735D03*
X0119662Y0113735D03*
X0109662Y0113735D03*
X0099662Y0113735D03*
X0101432Y0070396D03*
X0101432Y0050396D03*
X0099662Y0203831D03*
X0109662Y0203831D03*
X0119662Y0203831D03*
X0129662Y0203831D03*
X0139662Y0203831D03*
X0149662Y0203831D03*
X0159662Y0203831D03*
X0169662Y0203831D03*
D12*
X0183127Y0091456D03*
X0186867Y0082794D03*
X0179387Y0082794D03*
X0183465Y0055265D03*
X0179725Y0046604D03*
X0187205Y0046604D03*
D13*
X0172662Y0032735D03*
X0165970Y0032735D03*
X0193475Y0169204D03*
X0200168Y0169204D03*
X0076610Y0191473D03*
X0076610Y0198165D03*
D14*
X0084184Y0167220D03*
X0023554Y0167220D03*
X0043712Y0051472D03*
X0063712Y0051472D03*
D15*
X0023358Y0134394D03*
X0023358Y0150473D03*
D16*
X0098547Y0024402D03*
D17*
X0084768Y0024402D03*
X0070988Y0024402D03*
X0057209Y0024402D03*
D18*
X0100767Y0126974D03*
X0108641Y0126974D03*
X0116515Y0126974D03*
X0124389Y0126974D03*
X0132263Y0126974D03*
X0140137Y0126974D03*
X0148011Y0126974D03*
X0155885Y0126974D03*
X0155885Y0191541D03*
X0148011Y0191541D03*
X0140137Y0191541D03*
X0132263Y0191541D03*
X0124389Y0191541D03*
X0116515Y0191541D03*
X0108641Y0191541D03*
X0100767Y0191541D03*
D19*
X0089016Y0191517D03*
X0089016Y0198210D03*
X0183085Y0123239D03*
X0183085Y0116546D03*
X0199695Y0132302D03*
X0199695Y0138995D03*
X0190628Y0072307D03*
X0190628Y0065614D03*
X0173873Y0065588D03*
X0173873Y0072281D03*
X0184243Y0039278D03*
X0184243Y0032586D03*
D20*
X0191412Y0096991D03*
X0191412Y0111951D03*
X0201680Y0146570D03*
X0201680Y0161531D03*
D21*
X0067575Y0181390D03*
X0058475Y0181390D03*
X0049375Y0181390D03*
D22*
X0058475Y0205790D03*
D23*
X0023554Y0167220D02*
X0023554Y0150669D01*
X0023358Y0150473D01*
X0023358Y0134394D02*
X0027550Y0134394D01*
X0061514Y0100430D01*
X0062122Y0101038D01*
X0126381Y0101038D01*
X0134565Y0092854D01*
X0134565Y0086183D01*
X0138258Y0082489D01*
X0143906Y0082489D01*
X0120197Y0082465D02*
X0119208Y0083454D01*
X0078490Y0083454D01*
X0061514Y0100430D01*
X0099662Y0113735D02*
X0100767Y0114840D01*
X0100767Y0126974D01*
X0117831Y0163028D02*
X0101599Y0179259D01*
X0101599Y0191917D01*
X0100767Y0191541D01*
X0117831Y0163028D02*
X0141236Y0163028D01*
D24*
X0180638Y0123625D01*
X0183063Y0126049D01*
X0188519Y0126049D01*
X0194772Y0132302D01*
X0199695Y0132302D01*
X0199695Y0138995D02*
X0199454Y0139237D01*
X0195642Y0139237D01*
X0189578Y0133174D01*
X0178061Y0133174D01*
X0176394Y0134841D01*
X0176243Y0134841D01*
X0141385Y0169699D01*
X0141385Y0169706D01*
X0140137Y0170954D01*
X0140137Y0191541D01*
X0140137Y0194306D01*
X0149662Y0203831D01*
X0152860Y0199046D02*
X0148011Y0194197D01*
X0148011Y0191541D01*
X0155885Y0191541D02*
X0157372Y0191541D01*
X0169662Y0203831D01*
X0189368Y0184125D01*
X0199621Y0173018D01*
X0199621Y0169750D01*
X0200168Y0169204D01*
X0200168Y0163044D01*
X0201680Y0161531D01*
X0193475Y0169204D02*
X0193475Y0148070D01*
X0192440Y0147036D01*
X0201680Y0146570D02*
X0204084Y0146570D01*
X0206992Y0143662D01*
X0206992Y0123807D01*
X0204620Y0122264D01*
X0202444Y0120269D01*
X0200627Y0117941D01*
X0199219Y0115346D01*
X0198258Y0112555D01*
X0197771Y0109643D01*
X0197771Y0106690D01*
X0198258Y0103778D01*
X0199219Y0100986D01*
X0199789Y0099935D01*
X0199219Y0100986D02*
X0200627Y0098391D01*
X0202058Y0096558D01*
X0196134Y0090634D01*
X0191412Y0095355D01*
X0191412Y0096140D01*
X0186549Y0096140D01*
X0176893Y0105795D01*
X0107602Y0105795D01*
X0099662Y0113735D01*
X0108641Y0114757D02*
X0109662Y0113735D01*
X0108641Y0114757D02*
X0108641Y0125288D01*
X0108755Y0125402D01*
X0108755Y0163346D01*
X0089016Y0183086D01*
X0089016Y0191517D01*
X0089016Y0198210D02*
X0086072Y0198210D01*
X0081565Y0193703D01*
X0081565Y0169839D01*
X0084184Y0167220D01*
X0100767Y0150637D01*
X0100767Y0126974D01*
X0108641Y0126974D02*
X0108641Y0125288D01*
X0116515Y0126974D02*
X0116515Y0116883D01*
X0119662Y0113735D01*
X0124389Y0119009D02*
X0129662Y0113735D01*
X0124389Y0119009D02*
X0124389Y0126974D01*
X0125169Y0128962D01*
X0125169Y0139389D01*
X0127291Y0141511D01*
X0153964Y0141511D01*
X0174727Y0120748D01*
X0174727Y0119076D01*
X0177257Y0116546D01*
X0183085Y0116546D01*
X0183405Y0116226D01*
X0187304Y0116226D01*
X0191412Y0112118D01*
X0191412Y0111951D01*
X0183085Y0123239D02*
X0181024Y0123239D01*
X0180638Y0123625D01*
X0169662Y0113735D02*
X0155885Y0127513D01*
X0155885Y0126974D01*
X0148011Y0126974D02*
X0148011Y0123647D01*
X0156640Y0115018D01*
X0158380Y0115018D01*
X0159662Y0113735D01*
X0149662Y0113735D02*
X0140137Y0123261D01*
X0140137Y0126974D01*
X0132263Y0126974D02*
X0132263Y0121135D01*
X0139662Y0113735D01*
X0148011Y0125387D02*
X0148011Y0126974D01*
X0147878Y0098103D02*
X0145764Y0095989D01*
X0145764Y0094347D01*
X0143906Y0092489D01*
X0147878Y0098103D02*
X0180204Y0098103D01*
X0183127Y0095181D01*
X0183127Y0091456D01*
X0186867Y0082794D02*
X0188294Y0082794D01*
X0196134Y0090634D01*
X0191412Y0096140D02*
X0191412Y0096991D01*
X0202058Y0096558D02*
X0202444Y0096064D01*
X0204620Y0094069D01*
X0206992Y0092526D01*
X0206992Y0053008D01*
X0204066Y0050081D01*
X0195160Y0058987D01*
X0188361Y0058987D01*
X0185945Y0061404D01*
X0184132Y0061404D01*
X0179948Y0065588D01*
X0173873Y0065588D01*
X0174522Y0066237D01*
X0173873Y0072281D02*
X0173558Y0072596D01*
X0173847Y0072307D01*
X0190628Y0072307D01*
X0190628Y0065614D02*
X0196803Y0065614D01*
X0199388Y0068200D01*
X0183465Y0055265D02*
X0159456Y0055265D01*
X0142536Y0072185D01*
X0133590Y0072185D01*
X0130216Y0075559D01*
X0130216Y0082019D01*
X0120197Y0092038D01*
X0120197Y0092465D01*
X0173558Y0080735D02*
X0173558Y0072596D01*
X0173558Y0080735D02*
X0175617Y0082794D01*
X0179387Y0082794D01*
X0204066Y0050081D02*
X0200589Y0046604D01*
X0196367Y0046604D01*
X0189042Y0039278D01*
X0184243Y0039278D01*
X0184243Y0032586D02*
X0174011Y0032586D01*
X0174011Y0043432D01*
X0177183Y0046604D01*
X0179725Y0046604D01*
X0187205Y0046604D02*
X0196367Y0046604D01*
X0174011Y0032586D02*
X0173173Y0032586D01*
X0172761Y0032998D01*
X0172761Y0032834D01*
X0172662Y0032735D01*
X0165970Y0032735D02*
X0165970Y0034469D01*
X0161095Y0039343D01*
X0056438Y0167220D02*
X0065704Y0176486D01*
X0065704Y0182974D01*
X0067575Y0181390D01*
X0076610Y0174794D02*
X0081565Y0169839D01*
X0076610Y0174794D02*
X0076610Y0191473D01*
X0076610Y0198165D02*
X0076610Y0199471D01*
X0082169Y0205030D01*
X0098464Y0205030D01*
X0099662Y0203831D01*
X0095160Y0199328D01*
X0095160Y0194911D01*
X0100767Y0191541D02*
X0100767Y0202726D01*
X0099662Y0203831D01*
X0108641Y0202810D02*
X0109662Y0203831D01*
X0108641Y0202810D02*
X0108641Y0191541D01*
X0107889Y0193502D01*
X0107889Y0196661D01*
X0116515Y0200684D02*
X0116515Y0191541D01*
X0124389Y0191541D02*
X0124389Y0198558D01*
X0129662Y0203831D01*
X0132263Y0196432D02*
X0139662Y0203831D01*
X0132263Y0196432D02*
X0132263Y0191541D01*
X0140137Y0191541D02*
X0140358Y0192528D01*
X0152860Y0199046D02*
X0154878Y0199046D01*
X0159662Y0203831D01*
X0119662Y0203831D02*
X0116515Y0200684D01*
X0076610Y0198165D02*
X0061708Y0198165D01*
X0058453Y0194911D01*
X0058453Y0184339D01*
X0058475Y0184361D01*
X0058475Y0181390D01*
X0049375Y0181390D02*
X0048261Y0181390D01*
X0043167Y0176295D01*
X0056438Y0167220D02*
X0023554Y0167220D01*
D25*
X0043167Y0176295D03*
X0095160Y0194911D03*
X0192440Y0147036D03*
X0199388Y0068200D03*
X0161095Y0039343D03*
D26*
X0003167Y0001295D02*
X0003026Y0001295D01*
D27*
X0043712Y0037899D02*
X0057209Y0024402D01*
X0070382Y0025009D02*
X0070988Y0024402D01*
X0070382Y0025009D02*
X0070382Y0043141D01*
X0063712Y0049811D01*
X0063712Y0051472D01*
X0050143Y0070396D02*
X0044243Y0064495D01*
X0044243Y0052002D01*
X0043712Y0051472D01*
X0043712Y0037899D01*
X0050143Y0070396D02*
X0101432Y0070396D01*
X0101432Y0050396D02*
X0112267Y0050396D01*
X0120197Y0042465D01*
X0142825Y0042465D01*
X0143906Y0042489D01*
X0125698Y0029639D02*
X0143906Y0012489D01*
X0125698Y0029639D02*
X0111457Y0029639D01*
X0106220Y0024402D01*
X0098547Y0024402D01*
X0087690Y0011467D02*
X0119199Y0011467D01*
X0120197Y0012465D01*
X0087690Y0011467D02*
X0084768Y0014390D01*
X0084768Y0024402D01*
M02*
