G75*
%MOIN*%
%OFA0B0*%
%FSLAX25Y25*%
%IPPOS*%
%LPD*%
%AMOC8*
5,1,8,0,0,1.08239X$1,22.5*
%
%ADD10C,0.01200*%
%ADD11C,0.00600*%
%ADD12C,0.00394*%
%ADD13C,0.00800*%
%ADD14C,0.00500*%
%ADD15C,0.00400*%
%ADD16C,0.02400*%
D10*
X0003931Y0049111D02*
X0003931Y0096355D01*
X0004217Y0096430D01*
X0004502Y0096512D01*
X0004784Y0096601D01*
X0005064Y0096697D01*
X0005342Y0096800D01*
X0005617Y0096910D01*
X0005890Y0097026D01*
X0006159Y0097149D01*
X0006426Y0097278D01*
X0006689Y0097414D01*
X0006949Y0097556D01*
X0007205Y0097704D01*
X0007458Y0097859D01*
X0007707Y0098019D01*
X0007951Y0098186D01*
X0008192Y0098359D01*
X0008429Y0098537D01*
X0008661Y0098721D01*
X0008888Y0098911D01*
X0009111Y0099106D01*
X0009329Y0099306D01*
X0009542Y0099512D01*
X0009750Y0099723D01*
X0009953Y0099939D01*
X0010150Y0100160D01*
X0010342Y0100385D01*
X0010529Y0100615D01*
X0010710Y0100850D01*
X0010885Y0101089D01*
X0011054Y0101332D01*
X0011217Y0101579D01*
X0011374Y0101830D01*
X0011525Y0102085D01*
X0011670Y0102343D01*
X0011809Y0102605D01*
X0011941Y0102870D01*
X0012066Y0103138D01*
X0012185Y0103409D01*
X0012298Y0103683D01*
X0012403Y0103960D01*
X0012502Y0104239D01*
X0012594Y0104521D01*
X0012680Y0104804D01*
X0012758Y0105090D01*
X0012829Y0105377D01*
X0012894Y0105666D01*
X0012951Y0105957D01*
X0013001Y0106249D01*
X0013044Y0106542D01*
X0013080Y0106836D01*
X0013109Y0107131D01*
X0013130Y0107426D01*
X0013145Y0107722D01*
X0013152Y0108018D01*
X0013152Y0108314D01*
X0013145Y0108610D01*
X0013130Y0108906D01*
X0013109Y0109201D01*
X0013080Y0109496D01*
X0013044Y0109790D01*
X0013001Y0110083D01*
X0012951Y0110375D01*
X0012894Y0110666D01*
X0012829Y0110955D01*
X0012758Y0111242D01*
X0012680Y0111528D01*
X0012594Y0111811D01*
X0012502Y0112093D01*
X0012403Y0112372D01*
X0012298Y0112649D01*
X0012185Y0112923D01*
X0012066Y0113194D01*
X0011941Y0113462D01*
X0011809Y0113727D01*
X0011670Y0113989D01*
X0011525Y0114247D01*
X0011374Y0114502D01*
X0011217Y0114753D01*
X0011054Y0115000D01*
X0010885Y0115243D01*
X0010710Y0115482D01*
X0010529Y0115717D01*
X0010342Y0115947D01*
X0010150Y0116172D01*
X0009953Y0116393D01*
X0009750Y0116609D01*
X0009542Y0116820D01*
X0009329Y0117026D01*
X0009111Y0117226D01*
X0008888Y0117421D01*
X0008661Y0117611D01*
X0008429Y0117795D01*
X0008192Y0117973D01*
X0007951Y0118146D01*
X0007707Y0118313D01*
X0007458Y0118473D01*
X0007205Y0118628D01*
X0006949Y0118776D01*
X0006689Y0118918D01*
X0006426Y0119054D01*
X0006159Y0119183D01*
X0005890Y0119306D01*
X0005617Y0119422D01*
X0005342Y0119532D01*
X0005064Y0119635D01*
X0004784Y0119731D01*
X0004502Y0119820D01*
X0004217Y0119902D01*
X0003931Y0119977D01*
X0003931Y0167222D01*
X0051175Y0218403D01*
X0165348Y0218403D01*
X0212592Y0167222D01*
X0212592Y0119977D01*
X0212306Y0119902D01*
X0212021Y0119820D01*
X0211739Y0119731D01*
X0211459Y0119635D01*
X0211181Y0119532D01*
X0210906Y0119422D01*
X0210633Y0119306D01*
X0210364Y0119183D01*
X0210097Y0119054D01*
X0209834Y0118918D01*
X0209574Y0118776D01*
X0209318Y0118628D01*
X0209065Y0118473D01*
X0208816Y0118313D01*
X0208572Y0118146D01*
X0208331Y0117973D01*
X0208094Y0117795D01*
X0207862Y0117611D01*
X0207635Y0117421D01*
X0207412Y0117226D01*
X0207194Y0117026D01*
X0206981Y0116820D01*
X0206773Y0116609D01*
X0206570Y0116393D01*
X0206373Y0116172D01*
X0206181Y0115947D01*
X0205994Y0115717D01*
X0205813Y0115482D01*
X0205638Y0115243D01*
X0205469Y0115000D01*
X0205306Y0114753D01*
X0205149Y0114502D01*
X0204998Y0114247D01*
X0204853Y0113989D01*
X0204714Y0113727D01*
X0204582Y0113462D01*
X0204457Y0113194D01*
X0204338Y0112923D01*
X0204225Y0112649D01*
X0204120Y0112372D01*
X0204021Y0112093D01*
X0203929Y0111811D01*
X0203843Y0111528D01*
X0203765Y0111242D01*
X0203694Y0110955D01*
X0203629Y0110666D01*
X0203572Y0110375D01*
X0203522Y0110083D01*
X0203479Y0109790D01*
X0203443Y0109496D01*
X0203414Y0109201D01*
X0203393Y0108906D01*
X0203378Y0108610D01*
X0203371Y0108314D01*
X0203371Y0108018D01*
X0203378Y0107722D01*
X0203393Y0107426D01*
X0203414Y0107131D01*
X0203443Y0106836D01*
X0203479Y0106542D01*
X0203522Y0106249D01*
X0203572Y0105957D01*
X0203629Y0105666D01*
X0203694Y0105377D01*
X0203765Y0105090D01*
X0203843Y0104804D01*
X0203929Y0104521D01*
X0204021Y0104239D01*
X0204120Y0103960D01*
X0204225Y0103683D01*
X0204338Y0103409D01*
X0204457Y0103138D01*
X0204582Y0102870D01*
X0204714Y0102605D01*
X0204853Y0102343D01*
X0204998Y0102085D01*
X0205149Y0101830D01*
X0205306Y0101579D01*
X0205469Y0101332D01*
X0205638Y0101089D01*
X0205813Y0100850D01*
X0205994Y0100615D01*
X0206181Y0100385D01*
X0206373Y0100160D01*
X0206570Y0099939D01*
X0206773Y0099723D01*
X0206981Y0099512D01*
X0207194Y0099306D01*
X0207412Y0099106D01*
X0207635Y0098911D01*
X0207862Y0098721D01*
X0208094Y0098537D01*
X0208331Y0098359D01*
X0208572Y0098186D01*
X0208816Y0098019D01*
X0209065Y0097859D01*
X0209318Y0097704D01*
X0209574Y0097556D01*
X0209834Y0097414D01*
X0210097Y0097278D01*
X0210364Y0097149D01*
X0210633Y0097026D01*
X0210906Y0096910D01*
X0211181Y0096800D01*
X0211459Y0096697D01*
X0211739Y0096601D01*
X0212021Y0096512D01*
X0212306Y0096430D01*
X0212592Y0096355D01*
X0212592Y0049111D01*
X0165348Y0001867D01*
X0051175Y0001867D01*
X0003931Y0049111D01*
D11*
X0029815Y0067443D02*
X0032660Y0067443D01*
X0032660Y0067442D02*
X0032743Y0067444D01*
X0032826Y0067450D01*
X0032909Y0067460D01*
X0032992Y0067473D01*
X0033073Y0067491D01*
X0033154Y0067512D01*
X0033233Y0067537D01*
X0033311Y0067566D01*
X0033388Y0067598D01*
X0033463Y0067634D01*
X0033537Y0067673D01*
X0033608Y0067716D01*
X0033678Y0067762D01*
X0033745Y0067812D01*
X0033810Y0067864D01*
X0033872Y0067919D01*
X0033932Y0067978D01*
X0033989Y0068039D01*
X0034043Y0068102D01*
X0034094Y0068168D01*
X0034141Y0068237D01*
X0034186Y0068307D01*
X0034227Y0068380D01*
X0034264Y0068454D01*
X0034299Y0068530D01*
X0034329Y0068608D01*
X0034356Y0068686D01*
X0034379Y0068767D01*
X0034399Y0068848D01*
X0034414Y0068930D01*
X0034426Y0069012D01*
X0034434Y0069095D01*
X0034438Y0069178D01*
X0034438Y0069262D01*
X0034434Y0069345D01*
X0034426Y0069428D01*
X0034414Y0069510D01*
X0034399Y0069592D01*
X0034379Y0069673D01*
X0034356Y0069754D01*
X0034329Y0069832D01*
X0034299Y0069910D01*
X0034264Y0069986D01*
X0034227Y0070060D01*
X0034186Y0070133D01*
X0034141Y0070203D01*
X0034094Y0070272D01*
X0034043Y0070338D01*
X0033989Y0070401D01*
X0033932Y0070462D01*
X0033872Y0070521D01*
X0033810Y0070576D01*
X0033745Y0070628D01*
X0033678Y0070678D01*
X0033608Y0070724D01*
X0033537Y0070767D01*
X0033463Y0070806D01*
X0033388Y0070842D01*
X0033311Y0070874D01*
X0033233Y0070903D01*
X0033154Y0070928D01*
X0033073Y0070949D01*
X0032992Y0070967D01*
X0032909Y0070980D01*
X0032826Y0070990D01*
X0032743Y0070996D01*
X0032660Y0070998D01*
X0029815Y0070998D01*
X0029732Y0070996D01*
X0029649Y0070990D01*
X0029566Y0070980D01*
X0029483Y0070967D01*
X0029402Y0070949D01*
X0029321Y0070928D01*
X0029242Y0070903D01*
X0029164Y0070874D01*
X0029087Y0070842D01*
X0029012Y0070806D01*
X0028938Y0070767D01*
X0028867Y0070724D01*
X0028797Y0070678D01*
X0028730Y0070628D01*
X0028665Y0070576D01*
X0028603Y0070521D01*
X0028543Y0070462D01*
X0028486Y0070401D01*
X0028432Y0070338D01*
X0028381Y0070272D01*
X0028334Y0070203D01*
X0028289Y0070133D01*
X0028248Y0070060D01*
X0028211Y0069986D01*
X0028176Y0069910D01*
X0028146Y0069832D01*
X0028119Y0069754D01*
X0028096Y0069673D01*
X0028076Y0069592D01*
X0028061Y0069510D01*
X0028049Y0069428D01*
X0028041Y0069345D01*
X0028037Y0069262D01*
X0028037Y0069178D01*
X0028041Y0069095D01*
X0028049Y0069012D01*
X0028061Y0068930D01*
X0028076Y0068848D01*
X0028096Y0068767D01*
X0028119Y0068686D01*
X0028146Y0068608D01*
X0028176Y0068530D01*
X0028211Y0068454D01*
X0028248Y0068380D01*
X0028289Y0068307D01*
X0028334Y0068237D01*
X0028381Y0068168D01*
X0028432Y0068102D01*
X0028486Y0068039D01*
X0028543Y0067978D01*
X0028603Y0067919D01*
X0028665Y0067864D01*
X0028730Y0067812D01*
X0028797Y0067762D01*
X0028867Y0067716D01*
X0028938Y0067673D01*
X0029012Y0067634D01*
X0029087Y0067598D01*
X0029164Y0067566D01*
X0029242Y0067537D01*
X0029321Y0067512D01*
X0029402Y0067491D01*
X0029483Y0067473D01*
X0029566Y0067460D01*
X0029649Y0067450D01*
X0029732Y0067444D01*
X0029815Y0067442D01*
X0030171Y0073747D02*
X0030171Y0075525D01*
X0030173Y0075589D01*
X0030179Y0075654D01*
X0030188Y0075717D01*
X0030202Y0075780D01*
X0030219Y0075842D01*
X0030240Y0075903D01*
X0030265Y0075963D01*
X0030293Y0076021D01*
X0030325Y0076077D01*
X0030360Y0076131D01*
X0030398Y0076183D01*
X0030439Y0076233D01*
X0030484Y0076279D01*
X0030530Y0076324D01*
X0030580Y0076365D01*
X0030632Y0076403D01*
X0030686Y0076438D01*
X0030742Y0076470D01*
X0030800Y0076498D01*
X0030860Y0076523D01*
X0030921Y0076544D01*
X0030983Y0076561D01*
X0031046Y0076575D01*
X0031109Y0076584D01*
X0031174Y0076590D01*
X0031238Y0076592D01*
X0034438Y0076592D01*
X0034438Y0073747D02*
X0030171Y0073747D01*
X0029815Y0079340D02*
X0032660Y0079340D01*
X0032743Y0079342D01*
X0032826Y0079348D01*
X0032909Y0079358D01*
X0032992Y0079371D01*
X0033073Y0079389D01*
X0033154Y0079410D01*
X0033233Y0079435D01*
X0033311Y0079464D01*
X0033388Y0079496D01*
X0033463Y0079532D01*
X0033537Y0079571D01*
X0033608Y0079614D01*
X0033678Y0079660D01*
X0033745Y0079710D01*
X0033810Y0079762D01*
X0033872Y0079817D01*
X0033932Y0079876D01*
X0033989Y0079937D01*
X0034043Y0080000D01*
X0034094Y0080066D01*
X0034141Y0080135D01*
X0034186Y0080205D01*
X0034227Y0080278D01*
X0034264Y0080352D01*
X0034299Y0080428D01*
X0034329Y0080506D01*
X0034356Y0080584D01*
X0034379Y0080665D01*
X0034399Y0080746D01*
X0034414Y0080828D01*
X0034426Y0080910D01*
X0034434Y0080993D01*
X0034438Y0081076D01*
X0034438Y0081160D01*
X0034434Y0081243D01*
X0034426Y0081326D01*
X0034414Y0081408D01*
X0034399Y0081490D01*
X0034379Y0081571D01*
X0034356Y0081652D01*
X0034329Y0081730D01*
X0034299Y0081808D01*
X0034264Y0081884D01*
X0034227Y0081958D01*
X0034186Y0082031D01*
X0034141Y0082101D01*
X0034094Y0082170D01*
X0034043Y0082236D01*
X0033989Y0082299D01*
X0033932Y0082360D01*
X0033872Y0082419D01*
X0033810Y0082474D01*
X0033745Y0082526D01*
X0033678Y0082576D01*
X0033608Y0082622D01*
X0033537Y0082665D01*
X0033463Y0082704D01*
X0033388Y0082740D01*
X0033311Y0082772D01*
X0033233Y0082801D01*
X0033154Y0082826D01*
X0033073Y0082847D01*
X0032992Y0082865D01*
X0032909Y0082878D01*
X0032826Y0082888D01*
X0032743Y0082894D01*
X0032660Y0082896D01*
X0029815Y0082896D01*
X0029732Y0082894D01*
X0029649Y0082888D01*
X0029566Y0082878D01*
X0029483Y0082865D01*
X0029402Y0082847D01*
X0029321Y0082826D01*
X0029242Y0082801D01*
X0029164Y0082772D01*
X0029087Y0082740D01*
X0029012Y0082704D01*
X0028938Y0082665D01*
X0028867Y0082622D01*
X0028797Y0082576D01*
X0028730Y0082526D01*
X0028665Y0082474D01*
X0028603Y0082419D01*
X0028543Y0082360D01*
X0028486Y0082299D01*
X0028432Y0082236D01*
X0028381Y0082170D01*
X0028334Y0082101D01*
X0028289Y0082031D01*
X0028248Y0081958D01*
X0028211Y0081884D01*
X0028176Y0081808D01*
X0028146Y0081730D01*
X0028119Y0081652D01*
X0028096Y0081571D01*
X0028076Y0081490D01*
X0028061Y0081408D01*
X0028049Y0081326D01*
X0028041Y0081243D01*
X0028037Y0081160D01*
X0028037Y0081076D01*
X0028041Y0080993D01*
X0028049Y0080910D01*
X0028061Y0080828D01*
X0028076Y0080746D01*
X0028096Y0080665D01*
X0028119Y0080584D01*
X0028146Y0080506D01*
X0028176Y0080428D01*
X0028211Y0080352D01*
X0028248Y0080278D01*
X0028289Y0080205D01*
X0028334Y0080135D01*
X0028381Y0080066D01*
X0028432Y0080000D01*
X0028486Y0079937D01*
X0028543Y0079876D01*
X0028603Y0079817D01*
X0028665Y0079762D01*
X0028730Y0079710D01*
X0028797Y0079660D01*
X0028867Y0079614D01*
X0028938Y0079571D01*
X0029012Y0079532D01*
X0029087Y0079496D01*
X0029164Y0079464D01*
X0029242Y0079435D01*
X0029321Y0079410D01*
X0029402Y0079389D01*
X0029483Y0079371D01*
X0029566Y0079358D01*
X0029649Y0079348D01*
X0029732Y0079342D01*
X0029815Y0079340D01*
X0030171Y0085078D02*
X0030171Y0087212D01*
X0029104Y0085789D02*
X0029040Y0085791D01*
X0028975Y0085797D01*
X0028912Y0085806D01*
X0028849Y0085820D01*
X0028787Y0085837D01*
X0028726Y0085858D01*
X0028666Y0085883D01*
X0028608Y0085911D01*
X0028552Y0085943D01*
X0028498Y0085978D01*
X0028446Y0086016D01*
X0028396Y0086057D01*
X0028350Y0086102D01*
X0028305Y0086148D01*
X0028264Y0086198D01*
X0028226Y0086250D01*
X0028191Y0086304D01*
X0028159Y0086360D01*
X0028131Y0086418D01*
X0028106Y0086478D01*
X0028085Y0086539D01*
X0028068Y0086601D01*
X0028054Y0086664D01*
X0028045Y0086727D01*
X0028039Y0086792D01*
X0028037Y0086856D01*
X0028038Y0086856D02*
X0028038Y0087212D01*
X0029104Y0085789D02*
X0034438Y0085789D01*
X0034438Y0089166D02*
X0030171Y0089166D01*
X0030171Y0091299D01*
X0030882Y0091299D01*
X0031593Y0093235D02*
X0033371Y0093235D01*
X0033435Y0093237D01*
X0033500Y0093243D01*
X0033563Y0093252D01*
X0033626Y0093266D01*
X0033688Y0093283D01*
X0033749Y0093304D01*
X0033809Y0093329D01*
X0033867Y0093357D01*
X0033923Y0093389D01*
X0033977Y0093424D01*
X0034029Y0093462D01*
X0034079Y0093503D01*
X0034125Y0093548D01*
X0034170Y0093594D01*
X0034211Y0093644D01*
X0034249Y0093696D01*
X0034284Y0093750D01*
X0034316Y0093806D01*
X0034344Y0093864D01*
X0034369Y0093924D01*
X0034390Y0093985D01*
X0034407Y0094047D01*
X0034421Y0094110D01*
X0034430Y0094173D01*
X0034436Y0094238D01*
X0034438Y0094302D01*
X0034438Y0096079D01*
X0032304Y0096079D02*
X0032304Y0093235D01*
X0031593Y0093235D02*
X0031519Y0093237D01*
X0031444Y0093243D01*
X0031371Y0093253D01*
X0031297Y0093266D01*
X0031225Y0093283D01*
X0031154Y0093305D01*
X0031083Y0093329D01*
X0031015Y0093358D01*
X0030947Y0093390D01*
X0030882Y0093426D01*
X0030819Y0093464D01*
X0030757Y0093507D01*
X0030698Y0093552D01*
X0030641Y0093600D01*
X0030587Y0093651D01*
X0030536Y0093705D01*
X0030488Y0093762D01*
X0030443Y0093821D01*
X0030400Y0093883D01*
X0030362Y0093946D01*
X0030326Y0094011D01*
X0030294Y0094079D01*
X0030265Y0094147D01*
X0030241Y0094218D01*
X0030219Y0094289D01*
X0030202Y0094361D01*
X0030189Y0094435D01*
X0030179Y0094508D01*
X0030173Y0094583D01*
X0030171Y0094657D01*
X0030173Y0094731D01*
X0030179Y0094806D01*
X0030189Y0094879D01*
X0030202Y0094953D01*
X0030219Y0095025D01*
X0030241Y0095096D01*
X0030265Y0095167D01*
X0030294Y0095235D01*
X0030326Y0095303D01*
X0030362Y0095368D01*
X0030400Y0095431D01*
X0030443Y0095493D01*
X0030488Y0095552D01*
X0030536Y0095609D01*
X0030587Y0095663D01*
X0030641Y0095714D01*
X0030698Y0095762D01*
X0030757Y0095807D01*
X0030819Y0095850D01*
X0030882Y0095888D01*
X0030947Y0095924D01*
X0031015Y0095956D01*
X0031083Y0095985D01*
X0031154Y0096009D01*
X0031225Y0096031D01*
X0031297Y0096048D01*
X0031371Y0096061D01*
X0031444Y0096071D01*
X0031519Y0096077D01*
X0031593Y0096079D01*
X0032304Y0096079D01*
X0030171Y0102089D02*
X0030171Y0104222D01*
X0030882Y0104222D01*
X0031593Y0106158D02*
X0033371Y0106158D01*
X0032304Y0106158D02*
X0032304Y0109003D01*
X0031593Y0109003D01*
X0031519Y0109001D01*
X0031444Y0108995D01*
X0031371Y0108985D01*
X0031297Y0108972D01*
X0031225Y0108955D01*
X0031154Y0108933D01*
X0031083Y0108909D01*
X0031015Y0108880D01*
X0030947Y0108848D01*
X0030882Y0108812D01*
X0030819Y0108774D01*
X0030757Y0108731D01*
X0030698Y0108686D01*
X0030641Y0108638D01*
X0030587Y0108587D01*
X0030536Y0108533D01*
X0030488Y0108476D01*
X0030443Y0108417D01*
X0030400Y0108355D01*
X0030362Y0108292D01*
X0030326Y0108227D01*
X0030294Y0108159D01*
X0030265Y0108091D01*
X0030241Y0108020D01*
X0030219Y0107949D01*
X0030202Y0107877D01*
X0030189Y0107803D01*
X0030179Y0107730D01*
X0030173Y0107655D01*
X0030171Y0107581D01*
X0030173Y0107507D01*
X0030179Y0107432D01*
X0030189Y0107359D01*
X0030202Y0107285D01*
X0030219Y0107213D01*
X0030241Y0107142D01*
X0030265Y0107071D01*
X0030294Y0107003D01*
X0030326Y0106935D01*
X0030362Y0106870D01*
X0030400Y0106807D01*
X0030443Y0106745D01*
X0030488Y0106686D01*
X0030536Y0106629D01*
X0030587Y0106575D01*
X0030641Y0106524D01*
X0030698Y0106476D01*
X0030757Y0106431D01*
X0030819Y0106388D01*
X0030882Y0106350D01*
X0030947Y0106314D01*
X0031015Y0106282D01*
X0031083Y0106253D01*
X0031154Y0106229D01*
X0031225Y0106207D01*
X0031297Y0106190D01*
X0031371Y0106177D01*
X0031444Y0106167D01*
X0031519Y0106161D01*
X0031593Y0106159D01*
X0033371Y0106158D02*
X0033435Y0106160D01*
X0033500Y0106166D01*
X0033563Y0106175D01*
X0033626Y0106189D01*
X0033688Y0106206D01*
X0033749Y0106227D01*
X0033809Y0106252D01*
X0033867Y0106280D01*
X0033923Y0106312D01*
X0033977Y0106347D01*
X0034029Y0106385D01*
X0034079Y0106426D01*
X0034125Y0106471D01*
X0034170Y0106517D01*
X0034211Y0106567D01*
X0034249Y0106619D01*
X0034284Y0106673D01*
X0034316Y0106729D01*
X0034344Y0106787D01*
X0034369Y0106847D01*
X0034390Y0106908D01*
X0034407Y0106970D01*
X0034421Y0107033D01*
X0034430Y0107096D01*
X0034436Y0107161D01*
X0034438Y0107225D01*
X0034438Y0109003D01*
X0034438Y0112709D02*
X0030171Y0114131D01*
X0029460Y0116470D02*
X0028038Y0118247D01*
X0034438Y0118247D01*
X0034438Y0116470D02*
X0034438Y0120025D01*
X0034438Y0112709D02*
X0030171Y0111287D01*
X0030171Y0102089D02*
X0034438Y0102089D01*
X0024619Y0099747D02*
X0017619Y0099747D01*
X0020730Y0099747D02*
X0020730Y0095859D01*
X0017619Y0095859D02*
X0024619Y0095859D01*
X0024619Y0091286D02*
X0024619Y0089341D01*
X0017619Y0089341D01*
X0017619Y0091286D01*
X0017621Y0091364D01*
X0017627Y0091441D01*
X0017636Y0091518D01*
X0017650Y0091594D01*
X0017667Y0091670D01*
X0017688Y0091745D01*
X0017713Y0091818D01*
X0017741Y0091890D01*
X0017773Y0091961D01*
X0017808Y0092030D01*
X0017847Y0092097D01*
X0017889Y0092163D01*
X0017935Y0092226D01*
X0017983Y0092286D01*
X0018034Y0092344D01*
X0018089Y0092400D01*
X0018145Y0092453D01*
X0018205Y0092503D01*
X0018267Y0092549D01*
X0018331Y0092593D01*
X0018397Y0092634D01*
X0018465Y0092671D01*
X0018535Y0092704D01*
X0018607Y0092734D01*
X0018679Y0092761D01*
X0018754Y0092784D01*
X0018829Y0092803D01*
X0018905Y0092818D01*
X0018982Y0092830D01*
X0019059Y0092838D01*
X0019136Y0092842D01*
X0019214Y0092842D01*
X0019291Y0092838D01*
X0019368Y0092830D01*
X0019445Y0092818D01*
X0019521Y0092803D01*
X0019596Y0092784D01*
X0019671Y0092761D01*
X0019743Y0092734D01*
X0019815Y0092704D01*
X0019885Y0092671D01*
X0019953Y0092634D01*
X0020019Y0092593D01*
X0020083Y0092549D01*
X0020145Y0092503D01*
X0020205Y0092453D01*
X0020261Y0092400D01*
X0020316Y0092344D01*
X0020367Y0092286D01*
X0020415Y0092226D01*
X0020461Y0092163D01*
X0020503Y0092097D01*
X0020542Y0092030D01*
X0020577Y0091961D01*
X0020609Y0091890D01*
X0020637Y0091818D01*
X0020662Y0091745D01*
X0020683Y0091670D01*
X0020700Y0091594D01*
X0020714Y0091518D01*
X0020723Y0091441D01*
X0020729Y0091364D01*
X0020731Y0091286D01*
X0020730Y0091286D02*
X0020730Y0089341D01*
X0020731Y0091286D02*
X0020733Y0091373D01*
X0020739Y0091460D01*
X0020749Y0091547D01*
X0020762Y0091633D01*
X0020780Y0091719D01*
X0020801Y0091803D01*
X0020826Y0091887D01*
X0020855Y0091969D01*
X0020887Y0092050D01*
X0020924Y0092129D01*
X0020963Y0092207D01*
X0021006Y0092283D01*
X0021053Y0092357D01*
X0021102Y0092429D01*
X0021155Y0092498D01*
X0021211Y0092565D01*
X0021270Y0092629D01*
X0021332Y0092691D01*
X0021396Y0092750D01*
X0021463Y0092806D01*
X0021532Y0092859D01*
X0021604Y0092908D01*
X0021678Y0092955D01*
X0021754Y0092998D01*
X0021832Y0093037D01*
X0021911Y0093074D01*
X0021992Y0093106D01*
X0022074Y0093135D01*
X0022158Y0093160D01*
X0022242Y0093181D01*
X0022328Y0093199D01*
X0022414Y0093212D01*
X0022501Y0093222D01*
X0022588Y0093228D01*
X0022675Y0093230D01*
X0022762Y0093228D01*
X0022849Y0093222D01*
X0022936Y0093212D01*
X0023022Y0093199D01*
X0023108Y0093181D01*
X0023192Y0093160D01*
X0023276Y0093135D01*
X0023358Y0093106D01*
X0023439Y0093074D01*
X0023518Y0093037D01*
X0023596Y0092998D01*
X0023672Y0092955D01*
X0023746Y0092908D01*
X0023818Y0092859D01*
X0023887Y0092806D01*
X0023954Y0092750D01*
X0024018Y0092691D01*
X0024080Y0092629D01*
X0024139Y0092565D01*
X0024195Y0092498D01*
X0024248Y0092429D01*
X0024297Y0092357D01*
X0024344Y0092283D01*
X0024387Y0092207D01*
X0024426Y0092129D01*
X0024463Y0092050D01*
X0024495Y0091969D01*
X0024524Y0091887D01*
X0024549Y0091803D01*
X0024570Y0091719D01*
X0024588Y0091633D01*
X0024601Y0091547D01*
X0024611Y0091460D01*
X0024617Y0091373D01*
X0024619Y0091286D01*
D12*
X0114173Y0069749D02*
X0134567Y0069749D01*
X0137882Y0069773D02*
X0158276Y0069773D01*
X0158276Y0055206D02*
X0137804Y0055206D01*
X0134567Y0055182D02*
X0114094Y0055182D01*
D13*
X0107432Y0045396D02*
X0095432Y0045396D01*
X0095432Y0075396D01*
X0107432Y0075396D01*
X0107432Y0045396D01*
X0105437Y0038576D02*
X0105437Y0035426D01*
X0050319Y0035426D01*
X0050319Y0038576D01*
X0105437Y0038576D01*
X0105437Y0035426D02*
X0105437Y0011016D01*
X0050319Y0011016D01*
X0050319Y0035426D01*
X0113898Y0006442D02*
X0134764Y0006442D01*
X0134764Y0098489D01*
X0113898Y0098489D01*
X0113898Y0006442D01*
X0118622Y0016934D02*
X0118622Y0098194D01*
X0117162Y0108735D02*
X0114662Y0111235D01*
X0112162Y0108735D01*
X0107162Y0108735D01*
X0104662Y0111235D01*
X0102162Y0108735D01*
X0097162Y0108735D01*
X0094662Y0111235D01*
X0094662Y0116235D01*
X0097162Y0118735D01*
X0102162Y0118735D01*
X0104662Y0116235D01*
X0107162Y0118735D01*
X0112162Y0118735D01*
X0114662Y0116235D01*
X0117162Y0118735D01*
X0122162Y0118735D01*
X0124662Y0116235D01*
X0127162Y0118735D01*
X0132162Y0118735D01*
X0134662Y0116235D01*
X0137162Y0118735D01*
X0142162Y0118735D01*
X0144662Y0116235D01*
X0147162Y0118735D01*
X0152162Y0118735D01*
X0154662Y0116235D01*
X0157162Y0118735D01*
X0162162Y0118735D01*
X0164662Y0116235D01*
X0167162Y0118735D01*
X0172162Y0118735D01*
X0174662Y0116235D01*
X0174662Y0111235D01*
X0172162Y0108735D01*
X0167162Y0108735D01*
X0164662Y0111235D01*
X0162162Y0108735D01*
X0157162Y0108735D01*
X0154662Y0111235D01*
X0152162Y0108735D01*
X0147162Y0108735D01*
X0144662Y0111235D01*
X0142162Y0108735D01*
X0137162Y0108735D01*
X0134662Y0111235D01*
X0132162Y0108735D01*
X0127162Y0108735D01*
X0124662Y0111235D01*
X0122162Y0108735D01*
X0117162Y0108735D01*
X0137607Y0098513D02*
X0158473Y0098513D01*
X0158473Y0006466D01*
X0137607Y0006466D01*
X0137607Y0098513D01*
X0142331Y0098218D02*
X0142331Y0016958D01*
X0071375Y0187090D02*
X0045575Y0187090D01*
X0045575Y0200090D01*
X0071375Y0200090D01*
X0071375Y0187090D01*
X0094662Y0201331D02*
X0097162Y0198831D01*
X0102162Y0198831D01*
X0104662Y0201331D01*
X0107162Y0198831D01*
X0112162Y0198831D01*
X0114662Y0201331D01*
X0117162Y0198831D01*
X0122162Y0198831D01*
X0124662Y0201331D01*
X0127162Y0198831D01*
X0132162Y0198831D01*
X0134662Y0201331D01*
X0137162Y0198831D01*
X0142162Y0198831D01*
X0144662Y0201331D01*
X0147162Y0198831D01*
X0152162Y0198831D01*
X0154662Y0201331D01*
X0157162Y0198831D01*
X0162162Y0198831D01*
X0164662Y0201331D01*
X0167162Y0198831D01*
X0172162Y0198831D01*
X0174662Y0201331D01*
X0174662Y0206331D01*
X0172162Y0208831D01*
X0167162Y0208831D01*
X0164662Y0206331D01*
X0162162Y0208831D01*
X0157162Y0208831D01*
X0154662Y0206331D01*
X0152162Y0208831D01*
X0147162Y0208831D01*
X0144662Y0206331D01*
X0142162Y0208831D01*
X0137162Y0208831D01*
X0134662Y0206331D01*
X0132162Y0208831D01*
X0127162Y0208831D01*
X0124662Y0206331D01*
X0122162Y0208831D01*
X0117162Y0208831D01*
X0114662Y0206331D01*
X0112162Y0208831D01*
X0107162Y0208831D01*
X0104662Y0206331D01*
X0102162Y0208831D01*
X0097162Y0208831D01*
X0094662Y0206331D01*
X0094662Y0201331D01*
D14*
X0094468Y0190754D02*
X0094468Y0127761D01*
X0093633Y0176275D02*
X0093633Y0042416D01*
X0014106Y0042416D01*
X0014106Y0176275D01*
X0093633Y0176275D01*
X0160216Y0190754D02*
X0188956Y0190754D01*
X0188956Y0127761D01*
X0160216Y0127761D01*
X0186491Y0110376D02*
X0186491Y0098565D01*
X0195349Y0098565D02*
X0196137Y0098565D01*
X0196334Y0098565D02*
X0196334Y0110376D01*
X0196137Y0110376D02*
X0195349Y0110376D01*
X0187475Y0110376D02*
X0186688Y0110376D01*
X0196759Y0148145D02*
X0196759Y0159956D01*
X0196956Y0159956D02*
X0197743Y0159956D01*
X0205617Y0159956D02*
X0206405Y0159956D01*
X0206602Y0159956D02*
X0206602Y0148145D01*
X0206405Y0148145D02*
X0205617Y0148145D01*
X0028673Y0150878D02*
X0028673Y0133989D01*
X0028476Y0133969D02*
X0027295Y0133969D01*
X0023358Y0140433D02*
X0020358Y0143933D01*
X0026358Y0143933D01*
X0023358Y0140433D01*
X0022977Y0140878D02*
X0023740Y0140878D01*
X0024167Y0141377D02*
X0022550Y0141377D01*
X0022122Y0141875D02*
X0024594Y0141875D01*
X0025022Y0142374D02*
X0021695Y0142374D01*
X0021268Y0142872D02*
X0025449Y0142872D01*
X0025876Y0143371D02*
X0020840Y0143371D01*
X0020413Y0143870D02*
X0026304Y0143870D01*
X0027295Y0150898D02*
X0028476Y0150898D01*
X0019421Y0150898D02*
X0018240Y0150898D01*
X0018043Y0150878D02*
X0018043Y0133989D01*
X0018240Y0133969D02*
X0019421Y0133969D01*
D15*
X0008000Y0043798D02*
X0003400Y0043798D01*
X0005444Y0043798D02*
X0005444Y0046353D01*
X0003400Y0046353D02*
X0008000Y0046353D01*
X0008000Y0048606D02*
X0008000Y0050651D01*
X0008000Y0052564D02*
X0003400Y0052564D01*
X0005189Y0053586D02*
X0008000Y0055120D01*
X0006211Y0056892D02*
X0006211Y0059959D01*
X0005956Y0062164D02*
X0005956Y0063442D01*
X0005954Y0063512D01*
X0005948Y0063583D01*
X0005939Y0063652D01*
X0005925Y0063721D01*
X0005908Y0063790D01*
X0005887Y0063857D01*
X0005862Y0063923D01*
X0005834Y0063987D01*
X0005802Y0064050D01*
X0005767Y0064111D01*
X0005728Y0064170D01*
X0005687Y0064227D01*
X0005642Y0064281D01*
X0005594Y0064333D01*
X0005544Y0064382D01*
X0005490Y0064429D01*
X0005435Y0064472D01*
X0005377Y0064512D01*
X0005317Y0064549D01*
X0005255Y0064582D01*
X0005191Y0064612D01*
X0005126Y0064639D01*
X0005060Y0064662D01*
X0004992Y0064681D01*
X0004923Y0064696D01*
X0004854Y0064708D01*
X0004784Y0064716D01*
X0004713Y0064720D01*
X0004643Y0064720D01*
X0004572Y0064716D01*
X0004502Y0064708D01*
X0004433Y0064696D01*
X0004364Y0064681D01*
X0004296Y0064662D01*
X0004230Y0064639D01*
X0004165Y0064612D01*
X0004101Y0064582D01*
X0004039Y0064549D01*
X0003979Y0064512D01*
X0003921Y0064472D01*
X0003866Y0064429D01*
X0003812Y0064382D01*
X0003762Y0064333D01*
X0003714Y0064281D01*
X0003669Y0064227D01*
X0003628Y0064170D01*
X0003589Y0064111D01*
X0003554Y0064050D01*
X0003522Y0063987D01*
X0003494Y0063923D01*
X0003469Y0063857D01*
X0003448Y0063790D01*
X0003431Y0063721D01*
X0003417Y0063652D01*
X0003408Y0063583D01*
X0003402Y0063512D01*
X0003400Y0063442D01*
X0003400Y0062164D01*
X0008000Y0062164D01*
X0008000Y0066642D02*
X0003400Y0066642D01*
X0005956Y0068175D01*
X0003400Y0069709D01*
X0008000Y0069709D01*
X0007361Y0074020D02*
X0007257Y0074068D01*
X0007152Y0074114D01*
X0007046Y0074156D01*
X0006938Y0074195D01*
X0006829Y0074231D01*
X0006719Y0074263D01*
X0006608Y0074293D01*
X0006496Y0074318D01*
X0006384Y0074341D01*
X0006271Y0074360D01*
X0006157Y0074375D01*
X0006043Y0074387D01*
X0005929Y0074396D01*
X0005815Y0074401D01*
X0005700Y0074403D01*
X0005700Y0071847D02*
X0005585Y0071849D01*
X0005471Y0071854D01*
X0005357Y0071863D01*
X0005243Y0071875D01*
X0005129Y0071890D01*
X0005016Y0071909D01*
X0004904Y0071932D01*
X0004792Y0071957D01*
X0004681Y0071987D01*
X0004571Y0072019D01*
X0004462Y0072055D01*
X0004354Y0072094D01*
X0004248Y0072136D01*
X0004143Y0072182D01*
X0004039Y0072230D01*
X0003400Y0073125D02*
X0003402Y0073184D01*
X0003407Y0073242D01*
X0003416Y0073300D01*
X0003429Y0073357D01*
X0003445Y0073414D01*
X0003465Y0073469D01*
X0003488Y0073523D01*
X0003514Y0073575D01*
X0003544Y0073626D01*
X0003576Y0073675D01*
X0003612Y0073722D01*
X0003650Y0073766D01*
X0003691Y0073808D01*
X0003735Y0073847D01*
X0003781Y0073884D01*
X0003829Y0073917D01*
X0003879Y0073948D01*
X0003931Y0073975D01*
X0003984Y0073999D01*
X0004039Y0074020D01*
X0004422Y0074147D02*
X0006978Y0072103D01*
X0008000Y0073125D02*
X0007998Y0073184D01*
X0007993Y0073242D01*
X0007984Y0073300D01*
X0007971Y0073357D01*
X0007955Y0073414D01*
X0007935Y0073469D01*
X0007912Y0073523D01*
X0007886Y0073575D01*
X0007856Y0073626D01*
X0007824Y0073675D01*
X0007788Y0073722D01*
X0007750Y0073766D01*
X0007709Y0073808D01*
X0007665Y0073847D01*
X0007619Y0073884D01*
X0007571Y0073917D01*
X0007521Y0073948D01*
X0007469Y0073975D01*
X0007416Y0073999D01*
X0007361Y0074020D01*
X0008000Y0073125D02*
X0007998Y0073066D01*
X0007993Y0073008D01*
X0007984Y0072950D01*
X0007971Y0072893D01*
X0007955Y0072836D01*
X0007935Y0072781D01*
X0007912Y0072727D01*
X0007886Y0072675D01*
X0007856Y0072624D01*
X0007824Y0072575D01*
X0007788Y0072528D01*
X0007750Y0072484D01*
X0007709Y0072442D01*
X0007665Y0072403D01*
X0007619Y0072366D01*
X0007571Y0072333D01*
X0007521Y0072302D01*
X0007469Y0072275D01*
X0007416Y0072251D01*
X0007361Y0072230D01*
X0005700Y0074403D02*
X0005585Y0074401D01*
X0005471Y0074396D01*
X0005357Y0074387D01*
X0005243Y0074375D01*
X0005129Y0074360D01*
X0005016Y0074341D01*
X0004904Y0074318D01*
X0004792Y0074293D01*
X0004681Y0074263D01*
X0004571Y0074231D01*
X0004462Y0074195D01*
X0004354Y0074156D01*
X0004248Y0074114D01*
X0004143Y0074068D01*
X0004039Y0074020D01*
X0003400Y0073125D02*
X0003402Y0073066D01*
X0003407Y0073008D01*
X0003416Y0072950D01*
X0003429Y0072893D01*
X0003445Y0072836D01*
X0003465Y0072781D01*
X0003488Y0072727D01*
X0003514Y0072675D01*
X0003544Y0072624D01*
X0003576Y0072575D01*
X0003612Y0072528D01*
X0003650Y0072484D01*
X0003691Y0072442D01*
X0003735Y0072403D01*
X0003781Y0072366D01*
X0003829Y0072333D01*
X0003879Y0072302D01*
X0003931Y0072275D01*
X0003984Y0072251D01*
X0004039Y0072230D01*
X0005700Y0071847D02*
X0005815Y0071849D01*
X0005929Y0071854D01*
X0006043Y0071863D01*
X0006157Y0071875D01*
X0006271Y0071890D01*
X0006384Y0071909D01*
X0006496Y0071932D01*
X0006608Y0071957D01*
X0006719Y0071987D01*
X0006829Y0072019D01*
X0006938Y0072055D01*
X0007046Y0072094D01*
X0007152Y0072136D01*
X0007257Y0072182D01*
X0007361Y0072230D01*
X0008000Y0076347D02*
X0008000Y0077625D01*
X0007998Y0077695D01*
X0007992Y0077766D01*
X0007983Y0077835D01*
X0007969Y0077904D01*
X0007952Y0077973D01*
X0007931Y0078040D01*
X0007906Y0078106D01*
X0007878Y0078170D01*
X0007846Y0078233D01*
X0007811Y0078294D01*
X0007772Y0078353D01*
X0007731Y0078410D01*
X0007686Y0078464D01*
X0007638Y0078516D01*
X0007588Y0078565D01*
X0007534Y0078612D01*
X0007479Y0078655D01*
X0007421Y0078695D01*
X0007361Y0078732D01*
X0007299Y0078765D01*
X0007235Y0078795D01*
X0007170Y0078822D01*
X0007104Y0078845D01*
X0007036Y0078864D01*
X0006967Y0078879D01*
X0006898Y0078891D01*
X0006828Y0078899D01*
X0006757Y0078903D01*
X0006687Y0078903D01*
X0006616Y0078899D01*
X0006546Y0078891D01*
X0006477Y0078879D01*
X0006408Y0078864D01*
X0006340Y0078845D01*
X0006274Y0078822D01*
X0006209Y0078795D01*
X0006145Y0078765D01*
X0006083Y0078732D01*
X0006023Y0078695D01*
X0005965Y0078655D01*
X0005910Y0078612D01*
X0005856Y0078565D01*
X0005806Y0078516D01*
X0005758Y0078464D01*
X0005713Y0078410D01*
X0005672Y0078353D01*
X0005633Y0078294D01*
X0005598Y0078233D01*
X0005566Y0078170D01*
X0005538Y0078106D01*
X0005513Y0078040D01*
X0005492Y0077973D01*
X0005475Y0077904D01*
X0005461Y0077835D01*
X0005452Y0077766D01*
X0005446Y0077695D01*
X0005444Y0077625D01*
X0005444Y0077881D02*
X0005444Y0076859D01*
X0005444Y0077881D02*
X0005442Y0077944D01*
X0005436Y0078007D01*
X0005427Y0078069D01*
X0005413Y0078130D01*
X0005396Y0078191D01*
X0005375Y0078250D01*
X0005350Y0078308D01*
X0005322Y0078365D01*
X0005291Y0078419D01*
X0005256Y0078471D01*
X0005218Y0078522D01*
X0005177Y0078570D01*
X0005133Y0078615D01*
X0005087Y0078657D01*
X0005038Y0078697D01*
X0004987Y0078733D01*
X0004933Y0078766D01*
X0004878Y0078796D01*
X0004820Y0078822D01*
X0004762Y0078845D01*
X0004702Y0078864D01*
X0004641Y0078879D01*
X0004579Y0078891D01*
X0004516Y0078899D01*
X0004453Y0078903D01*
X0004391Y0078903D01*
X0004328Y0078899D01*
X0004265Y0078891D01*
X0004203Y0078879D01*
X0004142Y0078864D01*
X0004082Y0078845D01*
X0004024Y0078822D01*
X0003966Y0078796D01*
X0003911Y0078766D01*
X0003857Y0078733D01*
X0003806Y0078697D01*
X0003757Y0078657D01*
X0003711Y0078615D01*
X0003667Y0078570D01*
X0003626Y0078522D01*
X0003588Y0078471D01*
X0003553Y0078419D01*
X0003522Y0078365D01*
X0003494Y0078308D01*
X0003469Y0078250D01*
X0003448Y0078191D01*
X0003431Y0078130D01*
X0003417Y0078069D01*
X0003408Y0078007D01*
X0003402Y0077944D01*
X0003400Y0077881D01*
X0003400Y0076347D01*
X0003400Y0055120D02*
X0006211Y0052564D01*
X0008000Y0048606D02*
X0003400Y0048606D01*
X0145061Y0142388D02*
X0145061Y0144699D01*
X0145061Y0142388D02*
X0150261Y0142388D01*
X0150261Y0144699D01*
X0147373Y0144121D02*
X0147373Y0142388D01*
X0147228Y0147133D02*
X0148095Y0148722D01*
X0150261Y0148144D02*
X0150259Y0148048D01*
X0150253Y0147951D01*
X0150244Y0147856D01*
X0150231Y0147760D01*
X0150214Y0147665D01*
X0150193Y0147571D01*
X0150168Y0147478D01*
X0150140Y0147386D01*
X0150109Y0147295D01*
X0150073Y0147205D01*
X0150034Y0147117D01*
X0149992Y0147030D01*
X0149947Y0146945D01*
X0149898Y0146862D01*
X0149845Y0146781D01*
X0149790Y0146703D01*
X0149732Y0146626D01*
X0149670Y0146552D01*
X0149606Y0146480D01*
X0149539Y0146411D01*
X0148095Y0148722D02*
X0148131Y0148779D01*
X0148170Y0148835D01*
X0148212Y0148887D01*
X0148258Y0148938D01*
X0148306Y0148985D01*
X0148357Y0149030D01*
X0148410Y0149072D01*
X0148466Y0149110D01*
X0148524Y0149145D01*
X0148583Y0149177D01*
X0148645Y0149206D01*
X0148708Y0149230D01*
X0148772Y0149252D01*
X0148838Y0149269D01*
X0148904Y0149282D01*
X0148971Y0149292D01*
X0149038Y0149298D01*
X0149106Y0149300D01*
X0149173Y0149298D01*
X0149240Y0149292D01*
X0149307Y0149282D01*
X0149373Y0149269D01*
X0149438Y0149251D01*
X0149501Y0149230D01*
X0149564Y0149205D01*
X0149625Y0149177D01*
X0149684Y0149145D01*
X0149741Y0149110D01*
X0149796Y0149071D01*
X0149849Y0149030D01*
X0149899Y0148985D01*
X0149947Y0148937D01*
X0149992Y0148887D01*
X0150033Y0148834D01*
X0150072Y0148779D01*
X0150107Y0148722D01*
X0150139Y0148663D01*
X0150167Y0148602D01*
X0150192Y0148539D01*
X0150213Y0148476D01*
X0150231Y0148411D01*
X0150244Y0148345D01*
X0150254Y0148278D01*
X0150260Y0148211D01*
X0150262Y0148144D01*
X0150261Y0151521D02*
X0145061Y0151521D01*
X0145061Y0152966D01*
X0145062Y0152966D02*
X0145064Y0153042D01*
X0145070Y0153117D01*
X0145080Y0153192D01*
X0145094Y0153266D01*
X0145111Y0153340D01*
X0145133Y0153412D01*
X0145158Y0153483D01*
X0145187Y0153553D01*
X0145219Y0153622D01*
X0145255Y0153688D01*
X0145295Y0153752D01*
X0145338Y0153815D01*
X0145384Y0153875D01*
X0145433Y0153932D01*
X0145485Y0153987D01*
X0145540Y0154039D01*
X0145597Y0154088D01*
X0145657Y0154134D01*
X0145720Y0154177D01*
X0145784Y0154217D01*
X0145850Y0154253D01*
X0145919Y0154285D01*
X0145989Y0154314D01*
X0146060Y0154339D01*
X0146132Y0154361D01*
X0146206Y0154378D01*
X0146280Y0154392D01*
X0146355Y0154402D01*
X0146430Y0154408D01*
X0146506Y0154410D01*
X0146582Y0154408D01*
X0146657Y0154402D01*
X0146732Y0154392D01*
X0146806Y0154378D01*
X0146880Y0154361D01*
X0146952Y0154339D01*
X0147023Y0154314D01*
X0147093Y0154285D01*
X0147162Y0154253D01*
X0147228Y0154217D01*
X0147292Y0154177D01*
X0147355Y0154134D01*
X0147415Y0154088D01*
X0147472Y0154039D01*
X0147527Y0153987D01*
X0147579Y0153932D01*
X0147628Y0153875D01*
X0147674Y0153815D01*
X0147717Y0153752D01*
X0147757Y0153688D01*
X0147793Y0153622D01*
X0147825Y0153553D01*
X0147854Y0153483D01*
X0147879Y0153412D01*
X0147901Y0153340D01*
X0147918Y0153266D01*
X0147932Y0153192D01*
X0147942Y0153117D01*
X0147948Y0153042D01*
X0147950Y0152966D01*
X0147950Y0151521D01*
X0145494Y0149011D02*
X0145444Y0148940D01*
X0145396Y0148868D01*
X0145351Y0148793D01*
X0145309Y0148717D01*
X0145270Y0148639D01*
X0145234Y0148559D01*
X0145201Y0148478D01*
X0145172Y0148396D01*
X0145146Y0148313D01*
X0145124Y0148229D01*
X0145105Y0148144D01*
X0145089Y0148058D01*
X0145077Y0147972D01*
X0145068Y0147885D01*
X0145063Y0147798D01*
X0145061Y0147711D01*
X0145063Y0147644D01*
X0145069Y0147577D01*
X0145079Y0147510D01*
X0145092Y0147444D01*
X0145110Y0147379D01*
X0145131Y0147316D01*
X0145156Y0147253D01*
X0145184Y0147192D01*
X0145216Y0147133D01*
X0145251Y0147076D01*
X0145290Y0147021D01*
X0145331Y0146968D01*
X0145376Y0146918D01*
X0145424Y0146870D01*
X0145474Y0146825D01*
X0145527Y0146784D01*
X0145582Y0146745D01*
X0145639Y0146710D01*
X0145698Y0146678D01*
X0145759Y0146650D01*
X0145822Y0146625D01*
X0145885Y0146604D01*
X0145950Y0146586D01*
X0146016Y0146573D01*
X0146083Y0146563D01*
X0146150Y0146557D01*
X0146217Y0146555D01*
X0146285Y0146557D01*
X0146352Y0146563D01*
X0146419Y0146573D01*
X0146485Y0146586D01*
X0146551Y0146603D01*
X0146615Y0146625D01*
X0146678Y0146649D01*
X0146740Y0146678D01*
X0146799Y0146710D01*
X0146857Y0146745D01*
X0146913Y0146784D01*
X0146966Y0146825D01*
X0147017Y0146870D01*
X0147065Y0146917D01*
X0147111Y0146968D01*
X0147153Y0147021D01*
X0147192Y0147076D01*
X0147228Y0147133D01*
X0148239Y0159058D02*
X0148239Y0162524D01*
X0146217Y0167411D02*
X0145061Y0168855D01*
X0150261Y0168855D01*
X0150261Y0167411D02*
X0150261Y0170300D01*
X0150261Y0172451D02*
X0150261Y0175340D01*
X0150261Y0172451D02*
X0147373Y0174906D01*
X0145062Y0174040D02*
X0145064Y0173959D01*
X0145070Y0173879D01*
X0145080Y0173799D01*
X0145093Y0173719D01*
X0145111Y0173640D01*
X0145132Y0173562D01*
X0145157Y0173485D01*
X0145185Y0173410D01*
X0145218Y0173336D01*
X0145254Y0173263D01*
X0145293Y0173193D01*
X0145336Y0173124D01*
X0145381Y0173058D01*
X0145430Y0172994D01*
X0145483Y0172932D01*
X0145538Y0172873D01*
X0145595Y0172816D01*
X0145656Y0172763D01*
X0145719Y0172712D01*
X0145784Y0172665D01*
X0145852Y0172621D01*
X0145922Y0172580D01*
X0145993Y0172542D01*
X0146066Y0172508D01*
X0146141Y0172478D01*
X0146217Y0172451D01*
X0147372Y0174906D02*
X0147322Y0174956D01*
X0147269Y0175003D01*
X0147215Y0175048D01*
X0147158Y0175089D01*
X0147099Y0175128D01*
X0147038Y0175164D01*
X0146975Y0175197D01*
X0146911Y0175226D01*
X0146845Y0175252D01*
X0146778Y0175275D01*
X0146711Y0175295D01*
X0146642Y0175310D01*
X0146572Y0175323D01*
X0146502Y0175332D01*
X0146432Y0175337D01*
X0146361Y0175339D01*
X0146361Y0175340D02*
X0146291Y0175338D01*
X0146220Y0175332D01*
X0146151Y0175323D01*
X0146082Y0175310D01*
X0146013Y0175293D01*
X0145946Y0175272D01*
X0145880Y0175248D01*
X0145815Y0175220D01*
X0145752Y0175189D01*
X0145691Y0175154D01*
X0145631Y0175116D01*
X0145574Y0175075D01*
X0145519Y0175031D01*
X0145467Y0174984D01*
X0145417Y0174934D01*
X0145370Y0174882D01*
X0145326Y0174827D01*
X0145285Y0174770D01*
X0145247Y0174710D01*
X0145212Y0174649D01*
X0145181Y0174586D01*
X0145153Y0174521D01*
X0145129Y0174455D01*
X0145108Y0174388D01*
X0145091Y0174319D01*
X0145078Y0174250D01*
X0145069Y0174181D01*
X0145063Y0174110D01*
X0145061Y0174040D01*
X0207786Y0160937D02*
X0207786Y0159215D01*
X0207786Y0160076D02*
X0210886Y0160076D01*
X0210886Y0158185D02*
X0210886Y0156808D01*
X0207786Y0156808D01*
X0207786Y0158185D01*
X0209164Y0157841D02*
X0209164Y0156808D01*
X0209594Y0155028D02*
X0209078Y0154081D01*
X0207785Y0154425D02*
X0207787Y0154494D01*
X0207792Y0154563D01*
X0207802Y0154632D01*
X0207815Y0154700D01*
X0207831Y0154767D01*
X0207851Y0154834D01*
X0207875Y0154899D01*
X0207902Y0154962D01*
X0207933Y0155025D01*
X0207966Y0155085D01*
X0208003Y0155144D01*
X0208043Y0155200D01*
X0209078Y0154081D02*
X0209050Y0154037D01*
X0209019Y0153995D01*
X0208985Y0153956D01*
X0208948Y0153920D01*
X0208908Y0153886D01*
X0208866Y0153856D01*
X0208822Y0153828D01*
X0208776Y0153804D01*
X0208729Y0153784D01*
X0208680Y0153767D01*
X0208629Y0153753D01*
X0208578Y0153744D01*
X0208527Y0153738D01*
X0208475Y0153736D01*
X0208424Y0153738D01*
X0208372Y0153744D01*
X0208322Y0153753D01*
X0208272Y0153767D01*
X0208223Y0153784D01*
X0208176Y0153804D01*
X0208131Y0153828D01*
X0208087Y0153856D01*
X0208045Y0153886D01*
X0208006Y0153920D01*
X0207970Y0153956D01*
X0207936Y0153995D01*
X0207906Y0154037D01*
X0207878Y0154081D01*
X0207854Y0154126D01*
X0207834Y0154173D01*
X0207817Y0154222D01*
X0207803Y0154272D01*
X0207794Y0154322D01*
X0207788Y0154374D01*
X0207786Y0154425D01*
X0210456Y0153650D02*
X0210505Y0153702D01*
X0210552Y0153756D01*
X0210597Y0153812D01*
X0210638Y0153871D01*
X0210677Y0153931D01*
X0210712Y0153994D01*
X0210745Y0154058D01*
X0210774Y0154123D01*
X0210800Y0154190D01*
X0210823Y0154258D01*
X0210842Y0154328D01*
X0210858Y0154398D01*
X0210870Y0154468D01*
X0210879Y0154540D01*
X0210884Y0154611D01*
X0210886Y0154683D01*
X0210884Y0154734D01*
X0210878Y0154786D01*
X0210869Y0154836D01*
X0210855Y0154886D01*
X0210838Y0154935D01*
X0210818Y0154982D01*
X0210794Y0155028D01*
X0210766Y0155071D01*
X0210736Y0155113D01*
X0210702Y0155152D01*
X0210666Y0155188D01*
X0210627Y0155222D01*
X0210585Y0155252D01*
X0210542Y0155280D01*
X0210496Y0155304D01*
X0210449Y0155324D01*
X0210400Y0155341D01*
X0210350Y0155355D01*
X0210300Y0155364D01*
X0210248Y0155370D01*
X0210197Y0155372D01*
X0210197Y0155373D02*
X0210145Y0155371D01*
X0210094Y0155365D01*
X0210043Y0155356D01*
X0209992Y0155342D01*
X0209943Y0155325D01*
X0209896Y0155305D01*
X0209850Y0155281D01*
X0209806Y0155253D01*
X0209764Y0155223D01*
X0209724Y0155189D01*
X0209687Y0155153D01*
X0209653Y0155114D01*
X0209622Y0155072D01*
X0209594Y0155028D01*
X0210886Y0152515D02*
X0210886Y0151138D01*
X0207786Y0151138D01*
X0207786Y0152515D01*
X0209164Y0152171D02*
X0209164Y0151138D01*
X0209508Y0148933D02*
X0210886Y0149622D01*
X0209508Y0148761D02*
X0209508Y0147900D01*
X0209508Y0148761D02*
X0209506Y0148819D01*
X0209500Y0148876D01*
X0209491Y0148932D01*
X0209477Y0148988D01*
X0209460Y0149043D01*
X0209440Y0149097D01*
X0209415Y0149149D01*
X0209388Y0149200D01*
X0209357Y0149248D01*
X0209323Y0149295D01*
X0209286Y0149339D01*
X0209246Y0149380D01*
X0209203Y0149419D01*
X0209158Y0149454D01*
X0209110Y0149487D01*
X0209061Y0149516D01*
X0209009Y0149542D01*
X0208956Y0149564D01*
X0208902Y0149583D01*
X0208847Y0149599D01*
X0208790Y0149610D01*
X0208733Y0149618D01*
X0208676Y0149622D01*
X0208618Y0149622D01*
X0208561Y0149618D01*
X0208504Y0149610D01*
X0208447Y0149599D01*
X0208392Y0149583D01*
X0208338Y0149564D01*
X0208285Y0149542D01*
X0208233Y0149516D01*
X0208184Y0149487D01*
X0208136Y0149454D01*
X0208091Y0149419D01*
X0208048Y0149380D01*
X0208008Y0149339D01*
X0207971Y0149295D01*
X0207937Y0149248D01*
X0207906Y0149200D01*
X0207879Y0149149D01*
X0207854Y0149097D01*
X0207834Y0149043D01*
X0207817Y0148988D01*
X0207803Y0148932D01*
X0207794Y0148876D01*
X0207788Y0148819D01*
X0207786Y0148761D01*
X0207786Y0147900D01*
X0210886Y0147900D01*
X0200767Y0111972D02*
X0197667Y0111972D01*
X0199045Y0111972D02*
X0199045Y0110249D01*
X0197667Y0110249D02*
X0200767Y0110249D01*
X0199476Y0108477D02*
X0198959Y0107530D01*
X0197667Y0107874D02*
X0197669Y0107943D01*
X0197674Y0108012D01*
X0197684Y0108081D01*
X0197697Y0108149D01*
X0197713Y0108216D01*
X0197733Y0108283D01*
X0197757Y0108348D01*
X0197784Y0108411D01*
X0197815Y0108474D01*
X0197848Y0108534D01*
X0197885Y0108593D01*
X0197925Y0108649D01*
X0198959Y0107530D02*
X0198931Y0107486D01*
X0198900Y0107444D01*
X0198866Y0107405D01*
X0198829Y0107369D01*
X0198789Y0107335D01*
X0198747Y0107305D01*
X0198703Y0107277D01*
X0198657Y0107253D01*
X0198610Y0107233D01*
X0198561Y0107216D01*
X0198510Y0107202D01*
X0198459Y0107193D01*
X0198408Y0107187D01*
X0198356Y0107185D01*
X0198305Y0107187D01*
X0198253Y0107193D01*
X0198203Y0107202D01*
X0198153Y0107216D01*
X0198104Y0107233D01*
X0198057Y0107253D01*
X0198012Y0107277D01*
X0197968Y0107305D01*
X0197926Y0107335D01*
X0197887Y0107369D01*
X0197851Y0107405D01*
X0197817Y0107444D01*
X0197787Y0107486D01*
X0197759Y0107530D01*
X0197735Y0107575D01*
X0197715Y0107622D01*
X0197698Y0107671D01*
X0197684Y0107721D01*
X0197675Y0107771D01*
X0197669Y0107823D01*
X0197667Y0107874D01*
X0200337Y0107100D02*
X0200386Y0107152D01*
X0200433Y0107206D01*
X0200478Y0107262D01*
X0200519Y0107321D01*
X0200558Y0107381D01*
X0200593Y0107444D01*
X0200626Y0107508D01*
X0200655Y0107573D01*
X0200681Y0107640D01*
X0200704Y0107708D01*
X0200723Y0107778D01*
X0200739Y0107848D01*
X0200751Y0107918D01*
X0200760Y0107990D01*
X0200765Y0108061D01*
X0200767Y0108133D01*
X0200768Y0108133D02*
X0200766Y0108184D01*
X0200760Y0108236D01*
X0200751Y0108286D01*
X0200737Y0108336D01*
X0200720Y0108385D01*
X0200700Y0108432D01*
X0200676Y0108478D01*
X0200648Y0108521D01*
X0200618Y0108563D01*
X0200584Y0108602D01*
X0200548Y0108638D01*
X0200509Y0108672D01*
X0200467Y0108702D01*
X0200424Y0108730D01*
X0200378Y0108754D01*
X0200331Y0108774D01*
X0200282Y0108791D01*
X0200232Y0108805D01*
X0200182Y0108814D01*
X0200130Y0108820D01*
X0200079Y0108822D01*
X0200027Y0108820D01*
X0199976Y0108814D01*
X0199925Y0108805D01*
X0199874Y0108791D01*
X0199825Y0108774D01*
X0199778Y0108754D01*
X0199732Y0108730D01*
X0199688Y0108702D01*
X0199646Y0108672D01*
X0199606Y0108638D01*
X0199569Y0108602D01*
X0199535Y0108563D01*
X0199504Y0108521D01*
X0199476Y0108477D01*
X0199992Y0105691D02*
X0199992Y0104141D01*
X0200767Y0103882D02*
X0197667Y0104916D01*
X0200767Y0105949D01*
X0200767Y0102815D02*
X0200767Y0101437D01*
X0197667Y0101437D01*
X0197667Y0100085D02*
X0197667Y0098707D01*
X0200767Y0098707D01*
X0199045Y0098707D02*
X0199045Y0100085D01*
D16*
X0185806Y0136817D02*
X0185806Y0152565D01*
X0172027Y0152565D01*
X0172027Y0156895D01*
X0185806Y0156895D01*
X0185806Y0161226D01*
X0171633Y0161226D01*
X0171633Y0165950D01*
X0185806Y0165950D01*
X0185806Y0170675D01*
X0171633Y0170675D01*
X0171633Y0174612D01*
X0186200Y0174612D01*
X0186200Y0178155D01*
X0166909Y0178155D01*
X0166515Y0178155D02*
X0164153Y0178155D01*
X0164153Y0152565D01*
M02*
