G04 EAGLE Gerber X2 export*
%TF.Part,Single*%
%TF.FileFunction,Copper,L2,Bot,Mixed*%
%TF.FilePolarity,Positive*%
%TF.GenerationSoftware,Autodesk,EAGLE,9.1.3*%
%TF.CreationDate,2018-09-20T23:52:22Z*%
G75*
%MOMM*%
%FSLAX34Y34*%
%LPD*%
%AMOC8*
5,1,8,0,0,1.08239X$1,22.5*%
G01*
%ADD10C,1.508000*%
%ADD11C,1.308000*%
%ADD12R,1.308000X1.308000*%
%ADD13R,1.270000X2.032000*%
%ADD14R,1.000000X1.100000*%
%ADD15R,1.282600X1.700000*%
%ADD16R,1.219200X2.235200*%
%ADD17R,3.600000X2.200000*%
%ADD18C,1.422400*%
%ADD19C,1.790700*%
%ADD20P,1.649562X8X292.500000*%
%ADD21R,0.600000X0.600000*%
%ADD22R,0.600000X1.550000*%
%ADD23R,1.200000X1.800000*%
%ADD24C,0.222250*%
%ADD25C,1.308000*%
%ADD26C,0.254000*%
%ADD27C,0.756400*%
%ADD28C,0.152400*%


D10*
X224634Y179610D03*
X300834Y179610D03*
X402434Y179610D03*
X427834Y179610D03*
D11*
X81354Y154276D02*
X81354Y141196D01*
X131354Y141196D02*
X131354Y154276D01*
D12*
X29354Y441736D03*
X183354Y441736D03*
D13*
X318740Y315646D03*
X285720Y315646D03*
D14*
X407728Y445040D03*
X424728Y445040D03*
D10*
X224258Y235388D03*
X300458Y235388D03*
X402058Y235388D03*
X427458Y235388D03*
D15*
X378579Y441158D03*
X337467Y441158D03*
D16*
X266895Y342339D03*
X243781Y342339D03*
X220667Y342339D03*
D17*
X243781Y404317D03*
D18*
X218657Y25108D03*
X193257Y101308D03*
D19*
X269133Y96494D02*
X269133Y114401D01*
X319133Y114401D02*
X319133Y96494D01*
X369133Y96494D02*
X369133Y114401D01*
X419133Y114401D02*
X419133Y96494D01*
D13*
X318916Y287030D03*
X285896Y287030D03*
X223618Y287078D03*
X256638Y287078D03*
X223414Y315795D03*
X256434Y315795D03*
D20*
X159613Y106222D03*
X159613Y4622D03*
D21*
X290112Y390047D03*
X290112Y368047D03*
X310273Y390578D03*
X310273Y368578D03*
X329074Y369204D03*
X329074Y391204D03*
D22*
X309786Y415059D03*
X299786Y415059D03*
X289786Y415059D03*
X279786Y415059D03*
X269786Y415059D03*
D23*
X256786Y440309D03*
X322786Y440309D03*
D24*
X348390Y390956D02*
X348390Y384288D01*
X348390Y390956D02*
X355058Y390956D01*
X355058Y384288D01*
X348390Y384288D01*
X348390Y386400D02*
X355058Y386400D01*
X355058Y388512D02*
X348390Y388512D01*
X348390Y390624D02*
X355058Y390624D01*
X348390Y375716D02*
X348390Y369048D01*
X348390Y375716D02*
X355058Y375716D01*
X355058Y369048D01*
X348390Y369048D01*
X348390Y371160D02*
X355058Y371160D01*
X355058Y373272D02*
X348390Y373272D01*
X348390Y375384D02*
X355058Y375384D01*
D25*
X24941Y103545D03*
X108941Y103545D03*
X108941Y33545D03*
X24941Y33545D03*
D26*
X256434Y315795D02*
X266652Y315795D01*
X285571Y315795D01*
X285720Y315646D01*
X258111Y288552D02*
X256638Y287078D01*
X258111Y288552D02*
X266932Y288552D01*
X275765Y288552D02*
X284375Y288552D01*
X266895Y316039D02*
X266895Y342339D01*
X266895Y316039D02*
X266652Y315795D01*
X279786Y373907D02*
X279786Y415059D01*
X279786Y373907D02*
X266959Y361080D01*
X266959Y342403D01*
X266895Y342339D01*
X279786Y415059D02*
X279669Y415176D01*
D27*
X194998Y323072D03*
X247210Y269282D03*
D26*
X270710Y268565D02*
X275005Y272860D01*
X270710Y268565D02*
X247927Y268565D01*
X275005Y287791D02*
X275005Y288552D01*
X266932Y288552D01*
X247210Y269282D02*
X247927Y268565D01*
X198944Y323072D02*
X203081Y327209D01*
X203081Y418864D01*
X203081Y420658D01*
X198944Y323072D02*
X194998Y323072D01*
X337500Y436072D02*
X337500Y441124D01*
X337500Y436072D02*
X329621Y428192D01*
X281478Y428192D01*
X280312Y427026D01*
X279669Y426383D01*
X279669Y415176D01*
X280312Y427026D02*
X211243Y427026D01*
X203081Y418864D01*
X337467Y441158D02*
X337500Y441124D01*
X203081Y420658D02*
X183354Y440384D01*
X183354Y441736D01*
X275005Y287639D02*
X275005Y272860D01*
X275005Y287639D02*
X275005Y287791D01*
X284375Y288552D02*
X285896Y287030D01*
X275765Y288552D02*
X275005Y288552D01*
D27*
X166294Y343522D03*
D26*
X394343Y445642D02*
X407126Y445642D01*
X407728Y445040D01*
D27*
X394343Y445642D03*
D26*
X378579Y445642D02*
X373266Y445642D01*
X361399Y433775D01*
X378579Y441158D02*
X378579Y445642D01*
X361399Y433886D02*
X329074Y401562D01*
X361399Y433775D02*
X361399Y433886D01*
X329074Y401562D02*
X329074Y391204D01*
X378579Y441158D02*
X383064Y445642D01*
X394343Y445642D01*
D27*
X196084Y436958D03*
D28*
X322376Y387878D02*
X326739Y383514D01*
X210471Y453319D02*
X210372Y453419D01*
X294036Y453419D01*
X210471Y453319D02*
X196084Y438932D01*
X196084Y436958D01*
X322376Y404684D02*
X322376Y387878D01*
X322376Y404684D02*
X349291Y431600D01*
X349291Y448103D01*
X343962Y453432D01*
X294049Y453432D02*
X294036Y453419D01*
X294049Y453432D02*
X343962Y453432D01*
X347616Y383514D02*
X326739Y383514D01*
X347616Y383514D02*
X351724Y387622D01*
D26*
X402058Y179986D02*
X402434Y179610D01*
X402058Y179986D02*
X402058Y235388D01*
D27*
X208193Y266132D03*
D26*
X209449Y267388D02*
X220967Y267388D01*
X225649Y262706D01*
X318044Y262706D01*
X327065Y253685D02*
X383760Y253685D01*
X327065Y253685D02*
X318044Y262706D01*
X209449Y267388D02*
X208193Y266132D01*
X383760Y253685D02*
X402058Y235388D01*
D27*
X337308Y265509D03*
D26*
X290112Y342526D02*
X290112Y368047D01*
X290112Y342526D02*
X301980Y330657D01*
X333621Y330657D01*
X337616Y326662D01*
X337616Y265816D01*
X337308Y265509D01*
D27*
X182619Y352312D03*
D26*
X126028Y352312D01*
X65617Y412724D01*
D27*
X65617Y412724D03*
X357891Y265509D03*
D26*
X299786Y339000D02*
X299786Y415059D01*
X304065Y334721D02*
X336311Y334721D01*
X357891Y313141D01*
X357891Y265509D01*
X304065Y334721D02*
X299786Y339000D01*
D27*
X176519Y332759D03*
D26*
X309786Y391064D02*
X309786Y415059D01*
X309786Y391064D02*
X310273Y390578D01*
X289786Y390373D02*
X289786Y415059D01*
X289786Y390373D02*
X290112Y390047D01*
X310273Y368578D02*
X328448Y368578D01*
X329074Y369204D01*
D28*
X348546Y369204D01*
X351724Y372382D01*
D26*
X223414Y315795D02*
X223414Y284484D01*
X224565Y283333D01*
X224565Y286131D01*
X223618Y287078D01*
X220667Y318542D02*
X220667Y342339D01*
X220667Y318542D02*
X223414Y315795D01*
X269786Y391458D02*
X269786Y415059D01*
X269786Y391458D02*
X220667Y342339D01*
D27*
X194469Y303519D03*
D26*
X210374Y332045D02*
X220667Y342339D01*
X210374Y332045D02*
X210374Y319426D01*
X200928Y309980D02*
X200928Y309978D01*
X200928Y309980D02*
X210374Y319426D01*
X200928Y309978D02*
X194469Y303519D01*
X154428Y304659D02*
X154428Y311793D01*
D27*
X154428Y304659D03*
D26*
X29354Y439810D02*
X29354Y441736D01*
X29354Y439810D02*
X29354Y436867D01*
X29354Y439810D01*
X29354Y436867D02*
X154428Y311793D01*
X318740Y315646D02*
X318740Y302230D01*
X309007Y302230D02*
X309007Y302078D01*
X318892Y305915D02*
X318916Y305892D01*
X243781Y304981D02*
X243781Y342339D01*
X246836Y301926D02*
X308057Y301926D01*
X309007Y302230D02*
X318740Y302230D01*
X246836Y301926D02*
X243781Y304981D01*
X363540Y258610D02*
X367077Y262147D01*
X416885Y429842D02*
X424728Y437685D01*
X416885Y429842D02*
X371752Y429842D01*
X367077Y425167D01*
X367077Y262147D01*
X328606Y258610D02*
X318916Y268299D01*
X328606Y258610D02*
X363540Y258610D01*
X318916Y268299D02*
X318916Y287030D01*
D27*
X194639Y415276D03*
D26*
X233066Y277586D02*
X231429Y275950D01*
X187166Y296747D02*
X187166Y345172D01*
X194639Y352644D02*
X194639Y414250D01*
X194639Y415276D01*
X194639Y352644D02*
X187166Y345172D01*
X208179Y275950D02*
X231429Y275950D01*
X208179Y275950D02*
X198239Y285890D01*
X193287Y290627D02*
X187166Y296747D01*
X233066Y331623D02*
X243781Y342339D01*
X233066Y331623D02*
X233066Y277586D01*
X424728Y437685D02*
X424728Y445040D01*
D27*
X198239Y285595D03*
D26*
X193287Y290547D02*
X193287Y290627D01*
X193287Y290547D02*
X198239Y285595D01*
X198239Y285890D01*
D27*
X80756Y322131D03*
D26*
X80756Y284763D01*
X80903Y284605D02*
X81061Y284763D01*
D27*
X80903Y284605D03*
D26*
X81061Y284763D02*
X197406Y284763D01*
X198239Y285595D01*
X81061Y284763D02*
X80756Y284763D01*
X309007Y302078D02*
X318892Y302078D01*
X308209Y302078D02*
X308057Y301926D01*
X318892Y302078D02*
X318892Y305915D01*
X309007Y302078D02*
X308209Y302078D01*
X318916Y305892D02*
X318916Y287030D01*
M02*
