M48
;GenerationSoftware,Autodesk,EAGLE,9.1.3*%
;CreationDate,2018-09-20T23:52:22Z*%
FMAT,2
ICI,OFF
METRIC,TZ,000.000
T6C0.350
T5C0.800
T4C0.914
T3C1.000
T2C1.016
T1C1.194
%
G90
M71
T1
X41913Y10545
X36913Y10545
X31913Y10545
X26913Y10545
T2
X15961Y462
X15961Y10622
T3
X42783Y17961
X42746Y23539
X40206Y23539
X30046Y23539
X22426Y23539
X40243Y17961
X30083Y17961
X22463Y17961
T4
X19326Y10131
X21866Y2511
T5
X2494Y3354
X8135Y14774
X13135Y14774
X2935Y44174
X18335Y44174
X2494Y10355
X10894Y10355
X10894Y3354
T6
X8076Y32213
X19824Y28560
X19464Y41528
X8090Y28460
X15443Y30466
X19447Y30352
X17652Y33276
X35789Y26551
X6562Y41272
X18262Y35231
X33731Y26551
X20819Y26613
X19608Y43696
X39434Y44564
X16629Y34352
X24721Y26928
X19500Y32307
M30