G04 EAGLE Gerber X2 export*
%TF.Part,Single*%
%TF.FileFunction,Profile,NP*%
%TF.FilePolarity,Positive*%
%TF.GenerationSoftware,Autodesk,EAGLE,9.1.3*%
%TF.CreationDate,2018-09-20T23:52:22Z*%
G75*
%MOMM*%
%FSLAX34Y34*%
%LPD*%
%AMOC8*
5,1,8,0,0,1.08239X$1,22.5*%
G01*
%ADD10C,0.254000*%


D10*
X2283Y21310D02*
X2325Y20814D01*
X2409Y20324D01*
X2537Y19843D01*
X2705Y19375D01*
X2914Y18923D01*
X3161Y18491D01*
X3445Y18082D01*
X3764Y17700D01*
X4114Y17347D01*
X4495Y17026D01*
X4901Y16739D01*
X5331Y16489D01*
X5782Y16277D01*
X6249Y16105D01*
X6729Y15974D01*
X7219Y15886D01*
X7714Y15841D01*
X8212Y15839D01*
X92537Y15840D01*
X94240Y15973D01*
X95948Y15957D01*
X97648Y15792D01*
X99328Y15479D01*
X100973Y15021D01*
X102573Y14422D01*
X104114Y13686D01*
X105585Y12818D01*
X106975Y11825D01*
X108273Y10714D01*
X109469Y9495D01*
X110555Y8176D01*
X111521Y6768D01*
X112361Y5281D01*
X113069Y3726D01*
X113638Y2115D01*
X114064Y461D01*
X114345Y-1224D01*
X114804Y-3960D01*
X114885Y-4908D01*
X115049Y-5845D01*
X115294Y-6764D01*
X115618Y-7658D01*
X116018Y-8521D01*
X116493Y-9346D01*
X117037Y-10126D01*
X117647Y-10855D01*
X118319Y-11529D01*
X119046Y-12142D01*
X119825Y-12688D01*
X120648Y-13165D01*
X121509Y-13569D01*
X122402Y-13895D01*
X123321Y-14143D01*
X124257Y-14310D01*
X125205Y-14394D01*
X126156Y-14396D01*
X222213Y-14396D01*
X223722Y-14383D01*
X225225Y-14239D01*
X226709Y-13965D01*
X228163Y-13562D01*
X229577Y-13034D01*
X230940Y-12385D01*
X232241Y-11619D01*
X233470Y-10743D01*
X234618Y-9764D01*
X235676Y-8688D01*
X236637Y-7523D01*
X237492Y-6280D01*
X238236Y-4967D01*
X238862Y-3593D01*
X239367Y-2171D01*
X239745Y-710D01*
X239995Y779D01*
X240114Y2283D01*
X240114Y46810D01*
X240001Y47280D01*
X239929Y47757D01*
X239899Y48239D01*
X239912Y48722D01*
X239966Y49202D01*
X240062Y49675D01*
X240199Y50138D01*
X240375Y50587D01*
X240591Y51020D01*
X240843Y51431D01*
X241130Y51820D01*
X241449Y52182D01*
X241799Y52514D01*
X242177Y52815D01*
X242579Y53082D01*
X243004Y53313D01*
X243446Y53506D01*
X243904Y53659D01*
X443289Y53659D01*
X443632Y53567D01*
X443982Y53506D01*
X444336Y53475D01*
X444692Y53475D01*
X445046Y53506D01*
X445396Y53568D01*
X445740Y53660D01*
X446074Y53782D01*
X446396Y53933D01*
X446704Y54111D01*
X446995Y54315D01*
X447267Y54543D01*
X447518Y54795D01*
X447747Y55067D01*
X447951Y55359D01*
X448128Y55667D01*
X448278Y55989D01*
X448400Y56323D01*
X448400Y278953D01*
X448223Y279943D01*
X447961Y280913D01*
X447615Y281857D01*
X447188Y282768D01*
X446683Y283637D01*
X446105Y284459D01*
X445457Y285228D01*
X444744Y285937D01*
X443973Y286582D01*
X443148Y287157D01*
X442276Y287658D01*
X441364Y288081D01*
X440418Y288422D01*
X439447Y288680D01*
X438456Y288853D01*
X437454Y288938D01*
X436449Y288936D01*
X435448Y288846D01*
X393594Y288846D01*
X392395Y288925D01*
X391207Y289109D01*
X390039Y289395D01*
X388901Y289781D01*
X387801Y290266D01*
X386748Y290845D01*
X385748Y291513D01*
X384811Y292265D01*
X383943Y293097D01*
X383151Y294001D01*
X382441Y294971D01*
X381818Y295998D01*
X381286Y297077D01*
X380851Y298197D01*
X380515Y299351D01*
X380281Y300530D01*
X380151Y301725D01*
X380125Y302927D01*
X380125Y412530D01*
X380214Y413025D01*
X380346Y413510D01*
X380519Y413982D01*
X380733Y414437D01*
X380986Y414871D01*
X381275Y415282D01*
X381600Y415666D01*
X381956Y416021D01*
X382343Y416343D01*
X382755Y416630D01*
X383192Y416880D01*
X383648Y417091D01*
X384121Y417261D01*
X384607Y417390D01*
X385102Y417476D01*
X385603Y417518D01*
X386106Y417516D01*
X386607Y417471D01*
X433028Y417471D01*
X433787Y417571D01*
X434535Y417738D01*
X435266Y417968D01*
X435973Y418262D01*
X436653Y418616D01*
X437299Y419028D01*
X437906Y419495D01*
X438471Y420013D01*
X438988Y420578D01*
X439454Y421186D01*
X439866Y421833D01*
X440219Y422512D01*
X440512Y423220D01*
X440742Y423951D01*
X440907Y424699D01*
X441007Y425459D01*
X441040Y426224D01*
X441006Y426990D01*
X441006Y458196D01*
X441202Y458611D01*
X441361Y459041D01*
X441481Y459483D01*
X441563Y459935D01*
X441605Y460391D01*
X441608Y460850D01*
X441570Y461307D01*
X441492Y461758D01*
X441376Y462202D01*
X441221Y462633D01*
X441029Y463050D01*
X440802Y463448D01*
X440541Y463825D01*
X440248Y464178D01*
X439925Y464503D01*
X439575Y464800D01*
X439201Y465064D01*
X438805Y465296D01*
X3507Y465296D01*
X2283Y21310D01*
M02*
