G04 EAGLE Gerber X2 export*
%TF.Part,Single*%
%TF.FileFunction,Paste,Bot*%
%TF.FilePolarity,Positive*%
%TF.GenerationSoftware,Autodesk,EAGLE,9.1.3*%
%TF.CreationDate,2018-09-20T23:52:22Z*%
G75*
%MOMM*%
%FSLAX34Y34*%
%LPD*%
%AMOC8*
5,1,8,0,0,1.08239X$1,22.5*%
G01*
%ADD10R,1.270000X2.032000*%
%ADD11R,1.000000X1.100000*%
%ADD12R,1.282600X1.700000*%
%ADD13R,1.219200X2.235200*%
%ADD14R,3.600000X2.200000*%
%ADD15R,0.600000X0.600000*%
%ADD16R,0.600000X1.550000*%
%ADD17R,1.200000X1.800000*%
%ADD18C,0.222250*%


D10*
X318740Y315646D03*
X285720Y315646D03*
D11*
X407728Y445040D03*
X424728Y445040D03*
D12*
X378579Y441158D03*
X337467Y441158D03*
D13*
X266895Y342339D03*
X243781Y342339D03*
X220667Y342339D03*
D14*
X243781Y404317D03*
D10*
X318916Y287030D03*
X285896Y287030D03*
X223618Y287078D03*
X256638Y287078D03*
X223414Y315795D03*
X256434Y315795D03*
D15*
X290112Y390047D03*
X290112Y368047D03*
X310273Y390578D03*
X310273Y368578D03*
X329074Y369204D03*
X329074Y391204D03*
D16*
X309786Y415059D03*
X299786Y415059D03*
X289786Y415059D03*
X279786Y415059D03*
X269786Y415059D03*
D17*
X256786Y440309D03*
X322786Y440309D03*
D18*
X348390Y390956D02*
X348390Y384288D01*
X348390Y390956D02*
X355058Y390956D01*
X355058Y384288D01*
X348390Y384288D01*
X348390Y386400D02*
X355058Y386400D01*
X355058Y388512D02*
X348390Y388512D01*
X348390Y390624D02*
X355058Y390624D01*
X348390Y375716D02*
X348390Y369048D01*
X348390Y375716D02*
X355058Y375716D01*
X355058Y369048D01*
X348390Y369048D01*
X348390Y371160D02*
X355058Y371160D01*
X355058Y373272D02*
X348390Y373272D01*
X348390Y375384D02*
X355058Y375384D01*
M02*
