G75*
%MOIN*%
%OFA0B0*%
%FSLAX25Y25*%
%IPPOS*%
%LPD*%
%AMOC8*
5,1,8,0,0,1.08239X$1,22.5*
%
%ADD10C,0.06737*%
%ADD11C,0.08200*%
%ADD12R,0.06312X0.04737*%
%ADD13R,0.04737X0.05131*%
%ADD14R,0.05950X0.05950*%
%ADD15C,0.01200*%
%ADD16R,0.05524X0.12611*%
%ADD17R,0.05131X0.04737*%
%ADD18R,0.05600X0.09600*%
%ADD19R,0.14973X0.09461*%
%ADD20C,0.07850*%
%ADD21C,0.03778*%
D10*
X0100423Y0031828D03*
X0100423Y0055051D03*
X0130423Y0055051D03*
X0130423Y0031828D03*
X0170423Y0031828D03*
X0180423Y0031828D03*
X0180423Y0055051D03*
X0170423Y0055051D03*
D11*
X0169753Y0081134D03*
X0159753Y0081134D03*
X0149753Y0081134D03*
X0139753Y0081134D03*
X0129753Y0081134D03*
X0119753Y0081134D03*
X0109753Y0081134D03*
X0099753Y0081134D03*
X0101613Y0014254D03*
X0121613Y0014254D03*
X0119653Y0170681D03*
X0109653Y0170681D03*
X0099653Y0170681D03*
X0129653Y0170681D03*
X0139653Y0170681D03*
X0149653Y0170681D03*
X0159653Y0170681D03*
X0169653Y0170681D03*
D12*
X0172516Y0070933D03*
X0172516Y0063452D03*
X0181177Y0067193D03*
X0172031Y0045366D03*
X0172031Y0037886D03*
X0180693Y0041626D03*
D13*
X0155304Y0043699D03*
X0148611Y0043699D03*
X0150400Y0070486D03*
X0157093Y0070486D03*
X0044851Y0138981D03*
X0038158Y0138981D03*
X0035635Y0174189D03*
X0042328Y0174189D03*
D14*
X0020072Y0169040D03*
X0080702Y0169040D03*
X0060230Y0053292D03*
X0040545Y0053292D03*
D15*
X0027960Y0146193D02*
X0027960Y0149793D01*
X0033060Y0149793D01*
X0033060Y0146193D01*
X0027960Y0146193D01*
X0027960Y0147392D02*
X0033060Y0147392D01*
X0033060Y0148591D02*
X0027960Y0148591D01*
X0027960Y0149790D02*
X0033060Y0149790D01*
X0027960Y0153193D02*
X0027960Y0156793D01*
X0033060Y0156793D01*
X0033060Y0153193D01*
X0027960Y0153193D01*
X0027960Y0154392D02*
X0033060Y0154392D01*
X0033060Y0155591D02*
X0027960Y0155591D01*
X0027960Y0156790D02*
X0033060Y0156790D01*
D16*
X0099617Y0157789D03*
X0107491Y0157789D03*
X0115365Y0157789D03*
X0123239Y0157789D03*
X0131113Y0157789D03*
X0138987Y0157789D03*
X0146861Y0157789D03*
X0154735Y0157789D03*
X0154735Y0093222D03*
X0146861Y0093222D03*
X0138987Y0093222D03*
X0131113Y0093222D03*
X0123239Y0093222D03*
X0115365Y0093222D03*
X0107491Y0093222D03*
X0099617Y0093222D03*
D17*
X0064660Y0144852D03*
X0064660Y0151545D03*
X0164935Y0070309D03*
X0164935Y0063616D03*
X0164120Y0044778D03*
X0164120Y0038085D03*
D18*
X0038223Y0123119D03*
X0029123Y0123119D03*
X0020023Y0123119D03*
D19*
X0029123Y0098718D03*
D20*
X0023967Y0027286D02*
X0023967Y0020236D01*
X0043652Y0020236D02*
X0043652Y0027286D01*
X0063337Y0027286D02*
X0063337Y0020236D01*
X0083022Y0020236D02*
X0083022Y0027286D01*
D21*
X0153983Y0035432D03*
X0155990Y0059526D03*
X0088793Y0129512D03*
X0053529Y0130659D03*
M02*
