G75*
%MOIN*%
%OFA0B0*%
%FSLAX25Y25*%
%IPPOS*%
%LPD*%
%AMOC8*
5,1,8,0,0,1.08239X$1,22.5*
%
%ADD10C,0.05937*%
%ADD11C,0.07400*%
%ADD12R,0.05150X0.05150*%
%ADD13R,0.07087X0.06969*%
%ADD14R,0.03937X0.04331*%
%ADD15R,0.03937X0.06693*%
%ADD16C,0.07050*%
%ADD17C,0.01600*%
%ADD18C,0.02978*%
%ADD19C,0.01200*%
%ADD20C,0.05000*%
%ADD21C,0.02000*%
D10*
X0100423Y0031828D03*
X0100423Y0055051D03*
X0130423Y0055051D03*
X0130423Y0031828D03*
X0170423Y0031828D03*
X0180423Y0031828D03*
X0180423Y0055051D03*
X0170423Y0055051D03*
D11*
X0169753Y0081134D03*
X0159753Y0081134D03*
X0149753Y0081134D03*
X0139753Y0081134D03*
X0129753Y0081134D03*
X0119753Y0081134D03*
X0109753Y0081134D03*
X0099753Y0081134D03*
X0101613Y0014254D03*
X0121613Y0014254D03*
X0119653Y0170681D03*
X0109653Y0170681D03*
X0099653Y0170681D03*
X0129653Y0170681D03*
X0139653Y0170681D03*
X0149653Y0170681D03*
X0159653Y0170681D03*
X0169653Y0170681D03*
D12*
X0080702Y0169040D03*
X0020072Y0169040D03*
X0040545Y0053292D03*
X0060230Y0053292D03*
D13*
X0151303Y0016803D03*
X0167382Y0016803D03*
D14*
X0119552Y0143608D03*
X0112859Y0143608D03*
D15*
X0117610Y0181070D03*
X0102649Y0181070D03*
X0140201Y0181014D03*
X0155161Y0181014D03*
D16*
X0023967Y0027286D02*
X0023967Y0020236D01*
X0043652Y0020236D02*
X0043652Y0027286D01*
X0063337Y0027286D02*
X0063337Y0020236D01*
X0083022Y0020236D02*
X0083022Y0027286D01*
D17*
X0099753Y0081134D02*
X0099737Y0081149D01*
X0099737Y0111298D01*
X0152819Y0111298D01*
X0179494Y0084623D01*
X0179494Y0076150D01*
X0160863Y0057518D01*
X0160863Y0043028D01*
X0153554Y0035719D01*
X0153840Y0035432D01*
X0153983Y0035432D01*
X0170423Y0031828D02*
X0170423Y0055051D01*
X0160863Y0057518D02*
X0157998Y0057518D01*
X0155990Y0059526D01*
X0099753Y0081134D02*
X0099580Y0081307D01*
X0099737Y0111298D02*
X0099737Y0125695D01*
X0110295Y0136252D01*
X0146987Y0136252D01*
X0160037Y0149303D01*
X0160037Y0154898D01*
X0165055Y0159915D01*
X0171934Y0159915D01*
X0175662Y0163644D01*
X0175662Y0174596D01*
X0171989Y0178269D01*
X0166447Y0180854D01*
X0155321Y0180854D01*
X0155161Y0181014D01*
X0157541Y0175781D02*
X0164553Y0175781D01*
X0169653Y0170681D01*
X0142580Y0143608D01*
X0119552Y0143608D01*
X0112859Y0143608D02*
X0104548Y0143608D01*
X0099423Y0148733D01*
X0099423Y0170451D01*
X0099653Y0170681D01*
X0093238Y0175978D02*
X0106281Y0175978D01*
X0111374Y0181070D01*
X0117610Y0181070D01*
X0102649Y0181070D02*
X0087866Y0181070D01*
X0080702Y0173907D01*
X0080702Y0169040D01*
X0053529Y0141866D01*
X0053529Y0130659D01*
X0088793Y0129512D02*
X0088936Y0129655D01*
X0088936Y0171675D01*
X0093238Y0175978D01*
X0140201Y0181014D02*
X0147117Y0181014D01*
X0152870Y0175261D01*
X0157020Y0175261D01*
X0157541Y0175781D01*
D18*
X0088793Y0129512D03*
X0053529Y0130659D03*
X0153983Y0035432D03*
X0155990Y0059526D03*
D19*
X0146196Y0061948D02*
X0146009Y0026491D01*
X0151303Y0021198D01*
X0151303Y0016803D01*
X0146196Y0061948D02*
X0146110Y0062041D01*
X0146111Y0062168D01*
X0144382Y0063915D01*
X0139727Y0068963D01*
X0139727Y0069109D01*
X0138000Y0070836D01*
X0136344Y0072632D01*
X0136198Y0072638D01*
X0136095Y0072741D01*
X0133655Y0072840D01*
X0099661Y0072840D01*
X0020144Y0152357D01*
X0020144Y0168968D01*
X0020072Y0169040D01*
D20*
X0026600Y0064038D02*
X0079081Y0064038D01*
X0084678Y0058441D01*
X0097033Y0058441D01*
X0100423Y0055051D01*
X0026600Y0064038D02*
X0019875Y0057313D01*
X0019875Y0048152D01*
X0024110Y0043630D01*
X0023967Y0023761D01*
D21*
X0167382Y0028787D02*
X0167382Y0016803D01*
X0167382Y0028787D02*
X0170423Y0031828D01*
M02*
