G75*
%MOIN*%
%OFA0B0*%
%FSLAX25Y25*%
%IPPOS*%
%LPD*%
%AMOC8*
5,1,8,0,0,1.08239X$1,22.5*
%
%ADD10C,0.05937*%
%ADD11C,0.07400*%
%ADD12R,0.05512X0.03937*%
%ADD13R,0.03937X0.04331*%
%ADD14R,0.05150X0.05150*%
%ADD15C,0.01000*%
%ADD16R,0.04724X0.11811*%
%ADD17R,0.04331X0.03937*%
%ADD18R,0.04800X0.08800*%
%ADD19R,0.14173X0.08661*%
%ADD20C,0.07050*%
%ADD21C,0.01600*%
%ADD22C,0.02978*%
%ADD23C,0.05000*%
%ADD24C,0.01200*%
D10*
X0100423Y0031828D03*
X0100423Y0055051D03*
X0130423Y0055051D03*
X0130423Y0031828D03*
X0170423Y0031828D03*
X0180423Y0031828D03*
X0180423Y0055051D03*
X0170423Y0055051D03*
D11*
X0169753Y0081134D03*
X0159753Y0081134D03*
X0149753Y0081134D03*
X0139753Y0081134D03*
X0129753Y0081134D03*
X0119753Y0081134D03*
X0109753Y0081134D03*
X0099753Y0081134D03*
X0101613Y0014254D03*
X0121613Y0014254D03*
X0119653Y0170681D03*
X0109653Y0170681D03*
X0099653Y0170681D03*
X0129653Y0170681D03*
X0139653Y0170681D03*
X0149653Y0170681D03*
X0159653Y0170681D03*
X0169653Y0170681D03*
D12*
X0172516Y0070933D03*
X0172516Y0063452D03*
X0181177Y0067193D03*
X0172031Y0045366D03*
X0172031Y0037886D03*
X0180693Y0041626D03*
D13*
X0155304Y0043699D03*
X0148611Y0043699D03*
X0150400Y0070486D03*
X0157093Y0070486D03*
X0044851Y0138981D03*
X0038158Y0138981D03*
X0035635Y0174189D03*
X0042328Y0174189D03*
D14*
X0020072Y0169040D03*
X0080702Y0169040D03*
X0060230Y0053292D03*
X0040545Y0053292D03*
D15*
X0028260Y0146493D02*
X0028260Y0149493D01*
X0032760Y0149493D01*
X0032760Y0146493D01*
X0028260Y0146493D01*
X0028260Y0147492D02*
X0032760Y0147492D01*
X0032760Y0148491D02*
X0028260Y0148491D01*
X0028260Y0149490D02*
X0032760Y0149490D01*
X0028260Y0153493D02*
X0028260Y0156493D01*
X0032760Y0156493D01*
X0032760Y0153493D01*
X0028260Y0153493D01*
X0028260Y0154492D02*
X0032760Y0154492D01*
X0032760Y0155491D02*
X0028260Y0155491D01*
X0028260Y0156490D02*
X0032760Y0156490D01*
D16*
X0099617Y0157789D03*
X0107491Y0157789D03*
X0115365Y0157789D03*
X0123239Y0157789D03*
X0131113Y0157789D03*
X0138987Y0157789D03*
X0146861Y0157789D03*
X0154735Y0157789D03*
X0154735Y0093222D03*
X0146861Y0093222D03*
X0138987Y0093222D03*
X0131113Y0093222D03*
X0123239Y0093222D03*
X0115365Y0093222D03*
X0107491Y0093222D03*
X0099617Y0093222D03*
D17*
X0064660Y0144852D03*
X0064660Y0151545D03*
X0164935Y0070309D03*
X0164935Y0063616D03*
X0164120Y0044778D03*
X0164120Y0038085D03*
D18*
X0038223Y0123119D03*
X0029123Y0123119D03*
X0020023Y0123119D03*
D19*
X0029123Y0098718D03*
D20*
X0023967Y0027286D02*
X0023967Y0020236D01*
X0043652Y0020236D02*
X0043652Y0027286D01*
X0063337Y0027286D02*
X0063337Y0020236D01*
X0083022Y0020236D02*
X0083022Y0027286D01*
D21*
X0099753Y0081134D02*
X0053529Y0127358D01*
X0053529Y0130659D01*
X0055498Y0138981D02*
X0044851Y0138981D01*
X0038223Y0138916D02*
X0038158Y0138981D01*
X0038158Y0140345D01*
X0030510Y0147993D01*
X0040474Y0147993D01*
X0061034Y0168553D01*
X0080216Y0168553D01*
X0080702Y0169040D01*
X0091705Y0178629D02*
X0099653Y0170681D01*
X0099617Y0170645D01*
X0099617Y0158730D01*
X0092432Y0151545D01*
X0064660Y0151545D01*
X0064660Y0144852D02*
X0088793Y0120720D01*
X0088793Y0129512D01*
X0088793Y0120720D02*
X0091147Y0118365D01*
X0118617Y0118365D01*
X0122708Y0114274D01*
X0122708Y0092148D01*
X0123239Y0091617D01*
X0123239Y0087648D01*
X0129753Y0081134D01*
X0131113Y0089774D02*
X0139753Y0081134D01*
X0140312Y0080575D01*
X0140116Y0080379D01*
X0140116Y0072655D01*
X0148611Y0064160D01*
X0148611Y0043699D01*
X0155304Y0043699D02*
X0156382Y0044778D01*
X0164120Y0044778D01*
X0164709Y0045366D01*
X0172031Y0045366D01*
X0171833Y0038085D02*
X0172031Y0037886D01*
X0171833Y0038085D02*
X0164120Y0038085D01*
X0161468Y0035432D01*
X0153983Y0035432D01*
X0155990Y0059526D02*
X0160845Y0059526D01*
X0164935Y0063616D01*
X0165099Y0063452D01*
X0172516Y0063452D01*
X0172516Y0070933D02*
X0165559Y0070933D01*
X0164935Y0070309D01*
X0157270Y0070309D01*
X0157093Y0070486D01*
X0150400Y0070486D02*
X0149753Y0071133D01*
X0149753Y0081134D01*
X0148396Y0082491D01*
X0146622Y0082491D01*
X0138987Y0090126D01*
X0138987Y0093222D01*
X0131113Y0093222D02*
X0131113Y0089774D01*
X0123239Y0091617D02*
X0123239Y0093222D01*
X0115365Y0093222D02*
X0115365Y0085522D01*
X0119753Y0081134D01*
X0109753Y0081134D02*
X0107491Y0083396D01*
X0107491Y0093222D01*
X0107527Y0095961D01*
X0107527Y0103932D01*
X0105484Y0105975D01*
X0088504Y0105975D01*
X0055498Y0138981D01*
X0038223Y0138916D02*
X0038223Y0123119D01*
X0030176Y0126093D02*
X0029123Y0125040D01*
X0029123Y0123119D01*
X0027495Y0124747D01*
X0027495Y0136591D01*
X0024351Y0139735D01*
X0024351Y0162811D01*
X0035635Y0174094D01*
X0035635Y0174189D01*
X0035635Y0166744D01*
X0044743Y0166744D01*
X0056629Y0178629D01*
X0091705Y0178629D01*
X0107491Y0168519D02*
X0109653Y0170681D01*
X0107491Y0168519D02*
X0107491Y0157789D01*
X0099617Y0157789D02*
X0099617Y0158730D01*
X0115365Y0157789D02*
X0115365Y0166393D01*
X0119653Y0170681D01*
X0123239Y0164267D02*
X0129653Y0170681D01*
X0123239Y0164267D02*
X0123239Y0157789D01*
X0130732Y0157407D02*
X0130732Y0155814D01*
X0130732Y0161478D01*
X0139653Y0170400D01*
X0139653Y0170681D01*
X0149060Y0170681D02*
X0139542Y0161164D01*
X0139542Y0158344D01*
X0138987Y0157789D01*
X0131113Y0157789D02*
X0130732Y0157407D01*
X0146861Y0157789D02*
X0147252Y0157398D01*
X0147252Y0155499D01*
X0147252Y0160692D01*
X0157241Y0170681D01*
X0159653Y0170681D01*
X0149653Y0170681D02*
X0137929Y0182405D01*
X0049706Y0182405D01*
X0042328Y0175027D01*
X0042328Y0174189D01*
X0035635Y0166744D02*
X0035635Y0165658D01*
X0030510Y0160533D01*
X0030510Y0154993D01*
X0020023Y0168990D02*
X0020072Y0169040D01*
X0020023Y0168990D02*
X0020023Y0123119D01*
X0099617Y0093222D02*
X0099753Y0093086D01*
X0099753Y0081134D01*
X0154735Y0157789D02*
X0156761Y0157789D01*
X0169653Y0170681D01*
X0149653Y0170681D02*
X0149060Y0170681D01*
X0181177Y0067193D02*
X0181177Y0055805D01*
X0180423Y0055051D01*
X0180693Y0041626D02*
X0180693Y0032098D01*
X0180423Y0031828D01*
D22*
X0153983Y0035432D03*
X0155990Y0059526D03*
X0088793Y0129512D03*
X0053529Y0130659D03*
D23*
X0033594Y0062692D02*
X0074994Y0062692D01*
X0099497Y0038189D01*
X0099497Y0032754D01*
X0100423Y0031828D01*
X0083452Y0032501D02*
X0083022Y0023761D01*
X0092959Y0014254D01*
X0101613Y0014254D01*
X0121613Y0014254D02*
X0130423Y0023064D01*
X0130423Y0031828D01*
X0130423Y0055051D01*
X0083452Y0032501D02*
X0083240Y0032501D01*
X0063023Y0053292D01*
X0060230Y0053292D01*
X0040545Y0053292D02*
X0063767Y0030070D01*
X0063337Y0023761D01*
X0043652Y0023761D02*
X0043795Y0034977D01*
X0027945Y0051114D01*
X0027945Y0057043D01*
X0033594Y0062692D01*
D24*
X0146861Y0091062D02*
X0155433Y0082491D01*
X0158396Y0082491D01*
X0159753Y0081134D01*
X0169753Y0081134D02*
X0157665Y0093222D01*
X0154735Y0093222D01*
X0146861Y0093222D02*
X0146861Y0091062D01*
M02*
