%
M48
M72
T01C0.01378
T02C0.03150
T03C0.03937
T04C0.04000
T05C0.04700
%
T01
X151951Y36573
X158138Y55960
T02
X121613Y14254
X101613Y14254
X60230Y53292
X40545Y53292
X20072Y169040
X80702Y169040
T03
X100423Y55051
X100423Y31828
X130423Y31828
X130423Y55051
X170423Y55051
X180423Y55051
X180423Y31828
X170423Y31828
T04
X169753Y81134
X159753Y81134
X149753Y81134
X139753Y81134
X129753Y81134
X119753Y81134
X109753Y81134
X99753Y81134
X99653Y170681
X109653Y170681
X119653Y170681
X129653Y170681
X139653Y170681
X149653Y170681
X159653Y170681
X169653Y170681
T05
X24397Y23761
X44082Y23761
X63767Y23761
X83452Y23761
M30
