M48
;GenerationSoftware,Autodesk,EAGLE,9.2.2*%
;CreationDate,2019-03-08T09:49:24Z*%
FMAT,2
ICI,OFF
METRIC,TZ,000.000
T6C0.350
T5C0.914
T4C1.000
T3C1.016
T2C1.194
T1C1.200
%
G90
M71
T1
X8228Y14498
X3028Y43898
X13228Y14498
X18428Y43898
T2
X32003Y7886
X27003Y7886
X22003Y7886
X17003Y7886
T3
X22146Y24635
X22146Y44971
X24686Y44971
X27226Y44971
X29766Y44971
X32306Y44971
X34846Y44971
X39926Y44971
X24686Y24635
X27226Y24635
X29766Y24635
X32306Y24635
X34846Y24635
X37386Y24635
X39926Y24635
X42466Y24635
X37386Y44971
T4
X42926Y19269
X40386Y19269
X30226Y19269
X22606Y19269
X42926Y13715
X40386Y13715
X30226Y13715
X22606Y13715
T5
X6400Y8034
X12684Y10656
T6
X35559Y22842
X18215Y38795
M30