  0
SECTION
  2
HEADER
  9
$ACADVER
  1
AC1009
  9
$FILLMODE
 70
1
  9
$EXTMIN
 10
-4.6271
 20
0.2732
 30
0.0000
  9
$EXTMAX
 10
47.4563
 20
47.2724
 30
0.0000
  0
ENDSEC
  0
SECTION
  2
TABLES
  0
TABLE
  2
LTYPE
 70
1
  0
LTYPE
  2
CONTINUOUS
 70
64
  3
Solid line
 72
65
 73
0
 40
0
  0
ENDTAB
  0
TABLE
  2
LAYER
 70
255
  0
LAYER
  2
20
 70
64
 62
31
  6
CONTINUOUS
  0
LAYER
  2
22
 70
64
 62
253
  6
CONTINUOUS
  0
ENDTAB
  0
ENDSEC
  0
SECTION
  2
BLOCKS
  0
BLOCK
  8
0
  2
RECT
 70
64
 10
0.0000
 20
0.0000
 30
0.0000
  3
RECT
  0
SOLID
  8
0
 10
-0.5000
 20
-0.5000
 30
0.0000
 11
0.5000
 21
-0.5000
 31
0.0000
 12
-0.5000
 22
0.5000
 32
0.0000
 13
0.5000
 23
0.5000
 33
0.0000
  0
ENDBLK
  8
0
  0
BLOCK
  8
0
  2
PIE
 70
64
 10
0.0000
 20
0.0000
 30
0.0000
  3
PIE
  0
POLYLINE
  8
0
 66
1
 10
0.0000
 20
0.0000
 30
0.0000
 40
0.5000
 41
0.5000
 70
0
  0
VERTEX
  8
0
 10
0.0000
 20
-0.2500
 30
0.0000
 42
1.0000
  0
VERTEX
  8
0
 10
0.0000
 20
0.2500
 30
0.0000
 42
1.0000
  0
VERTEX
  8
0
 10
0.0000
 20
-0.2500
 30
0.0000
  0
SEQEND
  8
0
  0
ENDBLK
  8
0
  0
BLOCK
  8
0
  2
OCTAGONP
 70
64
 10
0.0000
 20
0.0000
 30
0.0000
  3
OCTAGONP
  0
POLYLINE
  8
0
 66
1
 10
0.0000
 20
0.0000
 30
0.0000
 40
0.5000
 41
0.5000
 70
0
  0
VERTEX
  8
0
 10
-0.2500
 20
-0.1036
 30
0.0000
  0
VERTEX
  8
0
 10
-0.2500
 20
0.1036
 30
0.0000
  0
VERTEX
  8
0
 10
-0.1036
 20
0.2500
 30
0.0000
  0
VERTEX
  8
0
 10
0.1036
 20
0.2500
 30
0.0000
  0
VERTEX
  8
0
 10
0.2500
 20
0.1036
 30
0.0000
  0
VERTEX
  8
0
 10
0.2500
 20
-0.1036
 30
0.0000
  0
VERTEX
  8
0
 10
0.1036
 20
-0.2500
 30
0.0000
  0
VERTEX
  8
0
 10
-0.1036
 20
-0.2500
 30
0.0000
  0
VERTEX
  8
0
 10
-0.2500
 20
-0.1036
 30
0.0000
  0
VERTEX
  8
0
 10
-0.2500
 20
0.1036
 30
0.0000
  0
SEQEND
  8
0
  0
ENDBLK
  8
0
  0
BLOCK
  8
0
  2
SQUAREP
 70
64
 10
0.0000
 20
0.0000
 30
0.0000
  3
SQUAREP
  0
SOLID
  8
0
 10
-0.5000
 20
-0.5000
 30
0.0000
 11
0.5000
 21
-0.5000
 31
0.0000
 12
-0.5000
 22
0.5000
 32
0.0000
 13
0.5000
 23
0.5000
 33
0.0000
  0
ENDBLK
  8
0
  0
BLOCK
  8
0
  2
ROUNDP
 70
64
 10
0.0000
 20
0.0000
 30
0.0000
  3
ROUNDP
  0
POLYLINE
  8
0
 66
1
 10
0.0000
 20
0.0000
 30
0.0000
 40
0.5000
 41
0.5000
 70
0
  0
VERTEX
  8
0
 10
0.0000
 20
-0.2500
 30
0.0000
 42
1.0000
  0
VERTEX
  8
0
 10
0.0000
 20
0.2500
 30
0.0000
 42
1.0000
  0
VERTEX
  8
0
 10
0.0000
 20
-0.2500
 30
0.0000
  0
SEQEND
  8
0
  0
ENDBLK
  8
0
  0
BLOCK
  8
0
  2
ANNULUSP
 70
64
 10
0.0000
 20
0.0000
 30
0.0000
  3
ANNULUSP
  0
POLYLINE
  8
0
 66
1
 10
0.0000
 20
0.0000
 30
0.0000
 40
0.5000
 41
0.5000
 70
0
  0
VERTEX
  8
0
 10
0.0000
 20
-0.2500
 30
0.0000
 42
1.0000
  0
VERTEX
  8
0
 10
0.0000
 20
0.2500
 30
0.0000
 42
1.0000
  0
VERTEX
  8
0
 10
0.0000
 20
-0.2500
 30
0.0000
  0
SEQEND
  8
0
  0
ENDBLK
  8
0
  0
BLOCK
  8
0
  2
THERMALP
 70
64
 10
0.0000
 20
0.0000
 30
0.0000
  3
THERMALP
  0
POLYLINE
  8
0
 66
1
 10
0.0000
 20
0.0000
 30
0.0000
 40
0.1000
 41
0.1000
 70
0
  0
VERTEX
  8
0
 10
-0.2379
 20
0.4500
 30
0.0000
  0
VERTEX
  8
0
 10
0.2379
 20
0.4500
 30
0.0000
  0
SEQEND
  8
0
  0
POLYLINE
  8
0
 66
1
 10
0.0000
 20
0.0000
 30
0.0000
 40
0.0500
 41
0.0500
 70
0
  0
VERTEX
  8
0
 10
0.2379
 20
0.4250
 30
0.0000
 42
1.0000
  0
VERTEX
  8
0
 10
0.2379
 20
0.4750
 30
0.0000
  0
SEQEND
  8
0
  0
POLYLINE
  8
0
 66
1
 10
0.0000
 20
0.0000
 30
0.0000
 40
0.0500
 41
0.0500
 70
0
  0
VERTEX
  8
0
 10
-0.2379
 20
0.4750
 30
0.0000
 42
1.0000
  0
VERTEX
  8
0
 10
-0.2379
 20
0.4250
 30
0.0000
  0
SEQEND
  8
0
  0
POLYLINE
  8
0
 66
1
 10
0.0000
 20
0.0000
 30
0.0000
 40
0.1000
 41
0.1000
 70
0
  0
VERTEX
  8
0
 10
0.4500
 20
0.2379
 30
0.0000
  0
VERTEX
  8
0
 10
0.4500
 20
-0.2379
 30
0.0000
  0
SEQEND
  8
0
  0
POLYLINE
  8
0
 66
1
 10
0.0000
 20
0.0000
 30
0.0000
 40
0.0500
 41
0.0500
 70
0
  0
VERTEX
  8
0
 10
0.4250
 20
-0.2379
 30
0.0000
 42
1.0000
  0
VERTEX
  8
0
 10
0.4750
 20
-0.2379
 30
0.0000
  0
SEQEND
  8
0
  0
POLYLINE
  8
0
 66
1
 10
0.0000
 20
0.0000
 30
0.0000
 40
0.0500
 41
0.0500
 70
0
  0
VERTEX
  8
0
 10
0.4750
 20
0.2379
 30
0.0000
 42
1.0000
  0
VERTEX
  8
0
 10
0.4250
 20
0.2379
 30
0.0000
  0
SEQEND
  8
0
  0
POLYLINE
  8
0
 66
1
 10
0.0000
 20
0.0000
 30
0.0000
 40
0.1000
 41
0.1000
 70
0
  0
VERTEX
  8
0
 10
0.2379
 20
-0.4500
 30
0.0000
  0
VERTEX
  8
0
 10
-0.2379
 20
-0.4500
 30
0.0000
  0
SEQEND
  8
0
  0
POLYLINE
  8
0
 66
1
 10
0.0000
 20
0.0000
 30
0.0000
 40
0.0500
 41
0.0500
 70
0
  0
VERTEX
  8
0
 10
-0.2379
 20
-0.4250
 30
0.0000
 42
1.0000
  0
VERTEX
  8
0
 10
-0.2379
 20
-0.4750
 30
0.0000
  0
SEQEND
  8
0
  0
POLYLINE
  8
0
 66
1
 10
0.0000
 20
0.0000
 30
0.0000
 40
0.0500
 41
0.0500
 70
0
  0
VERTEX
  8
0
 10
0.2379
 20
-0.4750
 30
0.0000
 42
1.0000
  0
VERTEX
  8
0
 10
0.2379
 20
-0.4250
 30
0.0000
  0
SEQEND
  8
0
  0
POLYLINE
  8
0
 66
1
 10
0.0000
 20
0.0000
 30
0.0000
 40
0.1000
 41
0.1000
 70
0
  0
VERTEX
  8
0
 10
-0.4500
 20
-0.2379
 30
0.0000
  0
VERTEX
  8
0
 10
-0.4500
 20
0.2379
 30
0.0000
  0
SEQEND
  8
0
  0
POLYLINE
  8
0
 66
1
 10
0.0000
 20
0.0000
 30
0.0000
 40
0.0500
 41
0.0500
 70
0
  0
VERTEX
  8
0
 10
-0.4250
 20
0.2379
 30
0.0000
 42
1.0000
  0
VERTEX
  8
0
 10
-0.4750
 20
0.2379
 30
0.0000
  0
SEQEND
  8
0
  0
POLYLINE
  8
0
 66
1
 10
0.0000
 20
0.0000
 30
0.0000
 40
0.0500
 41
0.0500
 70
0
  0
VERTEX
  8
0
 10
-0.4750
 20
-0.2379
 30
0.0000
 42
1.0000
  0
VERTEX
  8
0
 10
-0.4250
 20
-0.2379
 30
0.0000
  0
SEQEND
  8
0
  0
ENDBLK
  8
0
  0
BLOCK
  8
0
  2
OCTAGONV
 70
64
 10
0.0000
 20
0.0000
 30
0.0000
  3
OCTAGONV
  0
POLYLINE
  8
0
 66
1
 10
0.0000
 20
0.0000
 30
0.0000
 40
0.5000
 41
0.5000
 70
0
  0
VERTEX
  8
0
 10
-0.2500
 20
-0.1036
 30
0.0000
  0
VERTEX
  8
0
 10
-0.2500
 20
0.1036
 30
0.0000
  0
VERTEX
  8
0
 10
-0.1036
 20
0.2500
 30
0.0000
  0
VERTEX
  8
0
 10
0.1036
 20
0.2500
 30
0.0000
  0
VERTEX
  8
0
 10
0.2500
 20
0.1036
 30
0.0000
  0
VERTEX
  8
0
 10
0.2500
 20
-0.1036
 30
0.0000
  0
VERTEX
  8
0
 10
0.1036
 20
-0.2500
 30
0.0000
  0
VERTEX
  8
0
 10
-0.1036
 20
-0.2500
 30
0.0000
  0
VERTEX
  8
0
 10
-0.2500
 20
-0.1036
 30
0.0000
  0
VERTEX
  8
0
 10
-0.2500
 20
0.1036
 30
0.0000
  0
SEQEND
  8
0
  0
ENDBLK
  8
0
  0
BLOCK
  8
0
  2
SQUAREV
 70
64
 10
0.0000
 20
0.0000
 30
0.0000
  3
SQUAREV
  0
SOLID
  8
0
 10
-0.5000
 20
-0.5000
 30
0.0000
 11
0.5000
 21
-0.5000
 31
0.0000
 12
-0.5000
 22
0.5000
 32
0.0000
 13
0.5000
 23
0.5000
 33
0.0000
  0
ENDBLK
  8
0
  0
BLOCK
  8
0
  2
ROUNDV
 70
64
 10
0.0000
 20
0.0000
 30
0.0000
  3
ROUNDV
  0
POLYLINE
  8
0
 66
1
 10
0.0000
 20
0.0000
 30
0.0000
 40
0.5000
 41
0.5000
 70
0
  0
VERTEX
  8
0
 10
0.0000
 20
-0.2500
 30
0.0000
 42
1.0000
  0
VERTEX
  8
0
 10
0.0000
 20
0.2500
 30
0.0000
 42
1.0000
  0
VERTEX
  8
0
 10
0.0000
 20
-0.2500
 30
0.0000
  0
SEQEND
  8
0
  0
ENDBLK
  8
0
  0
BLOCK
  8
0
  2
ANNULUSV
 70
64
 10
0.0000
 20
0.0000
 30
0.0000
  3
ANNULUSV
  0
POLYLINE
  8
0
 66
1
 10
0.0000
 20
0.0000
 30
0.0000
 40
0.5000
 41
0.5000
 70
0
  0
VERTEX
  8
0
 10
0.0000
 20
-0.2500
 30
0.0000
 42
1.0000
  0
VERTEX
  8
0
 10
0.0000
 20
0.2500
 30
0.0000
 42
1.0000
  0
VERTEX
  8
0
 10
0.0000
 20
-0.2500
 30
0.0000
  0
SEQEND
  8
0
  0
ENDBLK
  8
0
  0
BLOCK
  8
0
  2
THERMALV
 70
64
 10
0.0000
 20
0.0000
 30
0.0000
  3
THERMALV
  0
POLYLINE
  8
0
 66
1
 10
0.0000
 20
0.0000
 30
0.0000
 40
0.1000
 41
0.1000
 70
0
  0
VERTEX
  8
0
 10
-0.2379
 20
0.4500
 30
0.0000
  0
VERTEX
  8
0
 10
0.2379
 20
0.4500
 30
0.0000
  0
SEQEND
  8
0
  0
POLYLINE
  8
0
 66
1
 10
0.0000
 20
0.0000
 30
0.0000
 40
0.0500
 41
0.0500
 70
0
  0
VERTEX
  8
0
 10
0.2379
 20
0.4250
 30
0.0000
 42
1.0000
  0
VERTEX
  8
0
 10
0.2379
 20
0.4750
 30
0.0000
  0
SEQEND
  8
0
  0
POLYLINE
  8
0
 66
1
 10
0.0000
 20
0.0000
 30
0.0000
 40
0.0500
 41
0.0500
 70
0
  0
VERTEX
  8
0
 10
-0.2379
 20
0.4750
 30
0.0000
 42
1.0000
  0
VERTEX
  8
0
 10
-0.2379
 20
0.4250
 30
0.0000
  0
SEQEND
  8
0
  0
POLYLINE
  8
0
 66
1
 10
0.0000
 20
0.0000
 30
0.0000
 40
0.1000
 41
0.1000
 70
0
  0
VERTEX
  8
0
 10
0.4500
 20
0.2379
 30
0.0000
  0
VERTEX
  8
0
 10
0.4500
 20
-0.2379
 30
0.0000
  0
SEQEND
  8
0
  0
POLYLINE
  8
0
 66
1
 10
0.0000
 20
0.0000
 30
0.0000
 40
0.0500
 41
0.0500
 70
0
  0
VERTEX
  8
0
 10
0.4250
 20
-0.2379
 30
0.0000
 42
1.0000
  0
VERTEX
  8
0
 10
0.4750
 20
-0.2379
 30
0.0000
  0
SEQEND
  8
0
  0
POLYLINE
  8
0
 66
1
 10
0.0000
 20
0.0000
 30
0.0000
 40
0.0500
 41
0.0500
 70
0
  0
VERTEX
  8
0
 10
0.4750
 20
0.2379
 30
0.0000
 42
1.0000
  0
VERTEX
  8
0
 10
0.4250
 20
0.2379
 30
0.0000
  0
SEQEND
  8
0
  0
POLYLINE
  8
0
 66
1
 10
0.0000
 20
0.0000
 30
0.0000
 40
0.1000
 41
0.1000
 70
0
  0
VERTEX
  8
0
 10
0.2379
 20
-0.4500
 30
0.0000
  0
VERTEX
  8
0
 10
-0.2379
 20
-0.4500
 30
0.0000
  0
SEQEND
  8
0
  0
POLYLINE
  8
0
 66
1
 10
0.0000
 20
0.0000
 30
0.0000
 40
0.0500
 41
0.0500
 70
0
  0
VERTEX
  8
0
 10
-0.2379
 20
-0.4250
 30
0.0000
 42
1.0000
  0
VERTEX
  8
0
 10
-0.2379
 20
-0.4750
 30
0.0000
  0
SEQEND
  8
0
  0
POLYLINE
  8
0
 66
1
 10
0.0000
 20
0.0000
 30
0.0000
 40
0.0500
 41
0.0500
 70
0
  0
VERTEX
  8
0
 10
0.2379
 20
-0.4750
 30
0.0000
 42
1.0000
  0
VERTEX
  8
0
 10
0.2379
 20
-0.4250
 30
0.0000
  0
SEQEND
  8
0
  0
POLYLINE
  8
0
 66
1
 10
0.0000
 20
0.0000
 30
0.0000
 40
0.1000
 41
0.1000
 70
0
  0
VERTEX
  8
0
 10
-0.4500
 20
-0.2379
 30
0.0000
  0
VERTEX
  8
0
 10
-0.4500
 20
0.2379
 30
0.0000
  0
SEQEND
  8
0
  0
POLYLINE
  8
0
 66
1
 10
0.0000
 20
0.0000
 30
0.0000
 40
0.0500
 41
0.0500
 70
0
  0
VERTEX
  8
0
 10
-0.4250
 20
0.2379
 30
0.0000
 42
1.0000
  0
VERTEX
  8
0
 10
-0.4750
 20
0.2379
 30
0.0000
  0
SEQEND
  8
0
  0
POLYLINE
  8
0
 66
1
 10
0.0000
 20
0.0000
 30
0.0000
 40
0.0500
 41
0.0500
 70
0
  0
VERTEX
  8
0
 10
-0.4750
 20
-0.2379
 30
0.0000
 42
1.0000
  0
VERTEX
  8
0
 10
-0.4250
 20
-0.2379
 30
0.0000
  0
SEQEND
  8
0
  0
ENDBLK
  8
0
  0
BLOCK
  8
0
  2
LONGP100
 70
64
 10
0.0000
 20
0.0000
 30
0.0000
  3
LONGP100
  0
POLYLINE
  8
0
 66
1
 10
0.0000
 20
0.0000
 30
0.0000
 40
1.0000
 41
1.0000
 70
0
  0
VERTEX
  8
0
 10
-0.5000
 20
0.0000
 30
0.0000
  0
VERTEX
  8
0
 10
0.5000
 20
0.0000
 30
0.0000
  0
SEQEND
  8
0
  0
POLYLINE
  8
0
 66
1
 10
0.0000
 20
0.0000
 30
0.0000
 40
0.5000
 41
0.5000
 70
0
  0
VERTEX
  8
0
 10
0.5000
 20
-0.2500
 30
0.0000
 42
1.0000
  0
VERTEX
  8
0
 10
0.5000
 20
0.2500
 30
0.0000
  0
SEQEND
  8
0
  0
POLYLINE
  8
0
 66
1
 10
0.0000
 20
0.0000
 30
0.0000
 40
0.5000
 41
0.5000
 70
0
  0
VERTEX
  8
0
 10
-0.5000
 20
0.2500
 30
0.0000
 42
1.0000
  0
VERTEX
  8
0
 10
-0.5000
 20
-0.2500
 30
0.0000
  0
SEQEND
  8
0
  0
ENDBLK
  8
0
  0
ENDSEC
  0
SECTION
  2
ENTITIES
  0
POLYLINE
  8
20
 66
1
 10
0.0000
 20
0.0000
 30
0.0000
 40
0.0762
 41
0.0762
 70
0
  0
VERTEX
  8
20
 10
0.6857
 20
46.1466
 30
0.0000
  0
VERTEX
  8
20
 10
0.6471
 20
8.0186
 30
0.0000
  0
SEQEND
  8
0
  0
POLYLINE
  8
20
 66
1
 10
0.0000
 20
0.0000
 30
0.0000
 40
0.0381
 41
0.0381
 70
0
  0
VERTEX
  8
20
 10
0.6281
 20
8.0187
 30
0.0000
 42
1.0000
  0
VERTEX
  8
20
 10
0.6662
 20
8.0186
 30
0.0000
  0
SEQEND
  8
0
  0
POLYLINE
  8
20
 66
1
 10
0.0000
 20
0.0000
 30
0.0000
 40
0.0381
 41
0.0381
 70
0
  0
VERTEX
  8
20
 10
0.7048
 20
46.1465
 30
0.0000
 42
1.0000
  0
VERTEX
  8
20
 10
0.6667
 20
46.1466
 30
0.0000
  0
SEQEND
  8
0
  0
POLYLINE
  8
20
 66
1
 10
0.0000
 20
0.0000
 30
0.0000
 40
0.0762
 41
0.0762
 70
0
  0
VERTEX
  8
20
 10
0.6471
 20
8.0186
 30
0.0000
 42
0.4142
  0
VERTEX
  8
20
 10
6.2391
 20
2.3834
 30
0.0000
  0
SEQEND
  8
0
  0
POLYLINE
  8
20
 66
1
 10
0.0000
 20
0.0000
 30
0.0000
 40
0.0381
 41
0.0381
 70
0
  0
VERTEX
  8
20
 10
0.6662
 20
8.0186
 30
0.0000
 42
1.0000
  0
VERTEX
  8
20
 10
0.6281
 20
8.0187
 30
0.0000
  0
SEQEND
  8
0
  0
POLYLINE
  8
20
 66
1
 10
0.0000
 20
0.0000
 30
0.0000
 40
0.0381
 41
0.0381
 70
0
  0
VERTEX
  8
20
 10
6.2390
 20
2.3643
 30
0.0000
 42
1.0000
  0
VERTEX
  8
20
 10
6.2392
 20
2.4024
 30
0.0000
  0
SEQEND
  8
0
  0
POLYLINE
  8
20
 66
1
 10
0.0000
 20
0.0000
 30
0.0000
 40
0.0762
 41
0.0762
 70
0
  0
VERTEX
  8
20
 10
6.2391
 20
2.3834
 30
0.0000
  0
VERTEX
  8
20
 10
11.9262
 20
2.3875
 30
0.0000
  0
SEQEND
  8
0
  0
POLYLINE
  8
20
 66
1
 10
0.0000
 20
0.0000
 30
0.0000
 40
0.0381
 41
0.0381
 70
0
  0
VERTEX
  8
20
 10
11.9262
 20
2.3684
 30
0.0000
 42
1.0000
  0
VERTEX
  8
20
 10
11.9262
 20
2.4065
 30
0.0000
  0
SEQEND
  8
0
  0
POLYLINE
  8
20
 66
1
 10
0.0000
 20
0.0000
 30
0.0000
 40
0.0381
 41
0.0381
 70
0
  0
VERTEX
  8
20
 10
6.2391
 20
2.4024
 30
0.0000
 42
1.0000
  0
VERTEX
  8
20
 10
6.2391
 20
2.3643
 30
0.0000
  0
SEQEND
  8
0
  0
POLYLINE
  8
20
 66
1
 10
0.0000
 20
0.0000
 30
0.0000
 40
0.0762
 41
0.0762
 70
0
  0
VERTEX
  8
20
 10
11.9262
 20
2.3875
 30
0.0000
  0
VERTEX
  8
20
 10
14.6847
 20
2.3904
 30
0.0000
  0
SEQEND
  8
0
  0
POLYLINE
  8
20
 66
1
 10
0.0000
 20
0.0000
 30
0.0000
 40
0.0381
 41
0.0381
 70
0
  0
VERTEX
  8
20
 10
14.6848
 20
2.3714
 30
0.0000
 42
1.0000
  0
VERTEX
  8
20
 10
14.6847
 20
2.4095
 30
0.0000
  0
SEQEND
  8
0
  0
POLYLINE
  8
20
 66
1
 10
0.0000
 20
0.0000
 30
0.0000
 40
0.0381
 41
0.0381
 70
0
  0
VERTEX
  8
20
 10
11.9262
 20
2.4065
 30
0.0000
 42
1.0000
  0
VERTEX
  8
20
 10
11.9262
 20
2.3684
 30
0.0000
  0
SEQEND
  8
0
  0
POLYLINE
  8
20
 66
1
 10
0.0000
 20
0.0000
 30
0.0000
 40
0.0762
 41
0.0762
 70
0
  0
VERTEX
  8
20
 10
14.6847
 20
2.3904
 30
0.0000
  0
VERTEX
  8
20
 10
44.2226
 20
2.3875
 30
0.0000
  0
SEQEND
  8
0
  0
POLYLINE
  8
20
 66
1
 10
0.0000
 20
0.0000
 30
0.0000
 40
0.0381
 41
0.0381
 70
0
  0
VERTEX
  8
20
 10
44.2226
 20
2.3684
 30
0.0000
 42
1.0000
  0
VERTEX
  8
20
 10
44.2226
 20
2.4065
 30
0.0000
  0
SEQEND
  8
0
  0
POLYLINE
  8
20
 66
1
 10
0.0000
 20
0.0000
 30
0.0000
 40
0.0381
 41
0.0381
 70
0
  0
VERTEX
  8
20
 10
14.6847
 20
2.4095
 30
0.0000
 42
1.0000
  0
VERTEX
  8
20
 10
14.6847
 20
2.3714
 30
0.0000
  0
SEQEND
  8
0
  0
POLYLINE
  8
20
 66
1
 10
0.0000
 20
0.0000
 30
0.0000
 40
0.0762
 41
0.0762
 70
0
  0
VERTEX
  8
20
 10
44.2226
 20
2.3875
 30
0.0000
 42
0.4142
  0
VERTEX
  8
20
 10
45.0547
 20
3.2984
 30
0.0000
  0
SEQEND
  8
0
  0
POLYLINE
  8
20
 66
1
 10
0.0000
 20
0.0000
 30
0.0000
 40
0.0381
 41
0.0381
 70
0
  0
VERTEX
  8
20
 10
44.2217
 20
2.4065
 30
0.0000
 42
1.0000
  0
VERTEX
  8
20
 10
44.2235
 20
2.3685
 30
0.0000
  0
SEQEND
  8
0
  0
POLYLINE
  8
20
 66
1
 10
0.0000
 20
0.0000
 30
0.0000
 40
0.0381
 41
0.0381
 70
0
  0
VERTEX
  8
20
 10
45.0737
 20
3.2992
 30
0.0000
 42
1.0000
  0
VERTEX
  8
20
 10
45.0357
 20
3.2975
 30
0.0000
  0
SEQEND
  8
0
  0
POLYLINE
  8
20
 66
1
 10
0.0000
 20
0.0000
 30
0.0000
 40
0.0762
 41
0.0762
 70
0
  0
VERTEX
  8
20
 10
45.0547
 20
3.2984
 30
0.0000
  0
VERTEX
  8
20
 10
45.0547
 20
10.5513
 30
0.0000
  0
SEQEND
  8
0
  0
POLYLINE
  8
20
 66
1
 10
0.0000
 20
0.0000
 30
0.0000
 40
0.0381
 41
0.0381
 70
0
  0
VERTEX
  8
20
 10
45.0737
 20
10.5513
 30
0.0000
 42
1.0000
  0
VERTEX
  8
20
 10
45.0356
 20
10.5513
 30
0.0000
  0
SEQEND
  8
0
  0
POLYLINE
  8
20
 66
1
 10
0.0000
 20
0.0000
 30
0.0000
 40
0.0381
 41
0.0381
 70
0
  0
VERTEX
  8
20
 10
45.0356
 20
3.2984
 30
0.0000
 42
1.0000
  0
VERTEX
  8
20
 10
45.0737
 20
3.2984
 30
0.0000
  0
SEQEND
  8
0
  0
POLYLINE
  8
20
 66
1
 10
0.0000
 20
0.0000
 30
0.0000
 40
0.0762
 41
0.0762
 70
0
  0
VERTEX
  8
20
 10
45.0547
 20
10.5513
 30
0.0000
  0
VERTEX
  8
20
 10
45.0252
 20
27.7337
 30
0.0000
  0
SEQEND
  8
0
  0
POLYLINE
  8
20
 66
1
 10
0.0000
 20
0.0000
 30
0.0000
 40
0.0381
 41
0.0381
 70
0
  0
VERTEX
  8
20
 10
45.0443
 20
27.7337
 30
0.0000
 42
1.0000
  0
VERTEX
  8
20
 10
45.0062
 20
27.7337
 30
0.0000
  0
SEQEND
  8
0
  0
POLYLINE
  8
20
 66
1
 10
0.0000
 20
0.0000
 30
0.0000
 40
0.0381
 41
0.0381
 70
0
  0
VERTEX
  8
20
 10
45.0356
 20
10.5513
 30
0.0000
 42
1.0000
  0
VERTEX
  8
20
 10
45.0737
 20
10.5513
 30
0.0000
  0
SEQEND
  8
0
  0
POLYLINE
  8
20
 66
1
 10
0.0000
 20
0.0000
 30
0.0000
 40
0.0762
 41
0.0762
 70
0
  0
VERTEX
  8
20
 10
45.0252
 20
27.7337
 30
0.0000
 42
0.4142
  0
VERTEX
  8
20
 10
44.2190
 20
28.2269
 30
0.0000
  0
SEQEND
  8
0
  0
POLYLINE
  8
20
 66
1
 10
0.0000
 20
0.0000
 30
0.0000
 40
0.0381
 41
0.0381
 70
0
  0
VERTEX
  8
20
 10
45.0067
 20
27.7292
 30
0.0000
 42
1.0000
  0
VERTEX
  8
20
 10
45.0437
 20
27.7381
 30
0.0000
  0
SEQEND
  8
0
  0
POLYLINE
  8
20
 66
1
 10
0.0000
 20
0.0000
 30
0.0000
 40
0.0381
 41
0.0381
 70
0
  0
VERTEX
  8
20
 10
44.2145
 20
28.2454
 30
0.0000
 42
1.0000
  0
VERTEX
  8
20
 10
44.2234
 20
28.2084
 30
0.0000
  0
SEQEND
  8
0
  0
POLYLINE
  8
20
 66
1
 10
0.0000
 20
0.0000
 30
0.0000
 40
0.0762
 41
0.0762
 70
0
  0
VERTEX
  8
20
 10
44.2190
 20
28.2269
 30
0.0000
  0
VERTEX
  8
20
 10
41.2926
 20
28.2269
 30
0.0000
  0
SEQEND
  8
0
  0
POLYLINE
  8
20
 66
1
 10
0.0000
 20
0.0000
 30
0.0000
 40
0.0381
 41
0.0381
 70
0
  0
VERTEX
  8
20
 10
41.2926
 20
28.2460
 30
0.0000
 42
1.0000
  0
VERTEX
  8
20
 10
41.2926
 20
28.2079
 30
0.0000
  0
SEQEND
  8
0
  0
POLYLINE
  8
20
 66
1
 10
0.0000
 20
0.0000
 30
0.0000
 40
0.0381
 41
0.0381
 70
0
  0
VERTEX
  8
20
 10
44.2190
 20
28.2079
 30
0.0000
 42
1.0000
  0
VERTEX
  8
20
 10
44.2190
 20
28.2460
 30
0.0000
  0
SEQEND
  8
0
  0
POLYLINE
  8
20
 66
1
 10
0.0000
 20
0.0000
 30
0.0000
 40
0.0762
 41
0.0762
 70
0
  0
VERTEX
  8
20
 10
38.7034
 20
30.8161
 30
0.0000
 42
0.4142
  0
VERTEX
  8
20
 10
41.2926
 20
28.2269
 30
0.0000
  0
SEQEND
  8
0
  0
POLYLINE
  8
20
 66
1
 10
0.0000
 20
0.0000
 30
0.0000
 40
0.0381
 41
0.0381
 70
0
  0
VERTEX
  8
20
 10
38.7225
 20
30.8161
 30
0.0000
 42
1.0000
  0
VERTEX
  8
20
 10
38.6844
 20
30.8161
 30
0.0000
  0
SEQEND
  8
0
  0
POLYLINE
  8
20
 66
1
 10
0.0000
 20
0.0000
 30
0.0000
 40
0.0381
 41
0.0381
 70
0
  0
VERTEX
  8
20
 10
41.2926
 20
28.2079
 30
0.0000
 42
1.0000
  0
VERTEX
  8
20
 10
41.2926
 20
28.2460
 30
0.0000
  0
SEQEND
  8
0
  0
POLYLINE
  8
20
 66
1
 10
0.0000
 20
0.0000
 30
0.0000
 40
0.0762
 41
0.0762
 70
0
  0
VERTEX
  8
20
 10
38.7034
 20
30.8161
 30
0.0000
  0
VERTEX
  8
20
 10
38.6778
 20
40.0758
 30
0.0000
  0
SEQEND
  8
0
  0
POLYLINE
  8
20
 66
1
 10
0.0000
 20
0.0000
 30
0.0000
 40
0.0381
 41
0.0381
 70
0
  0
VERTEX
  8
20
 10
38.6968
 20
40.0759
 30
0.0000
 42
1.0000
  0
VERTEX
  8
20
 10
38.6587
 20
40.0758
 30
0.0000
  0
SEQEND
  8
0
  0
POLYLINE
  8
20
 66
1
 10
0.0000
 20
0.0000
 30
0.0000
 40
0.0381
 41
0.0381
 70
0
  0
VERTEX
  8
20
 10
38.6844
 20
30.8160
 30
0.0000
 42
1.0000
  0
VERTEX
  8
20
 10
38.7225
 20
30.8161
 30
0.0000
  0
SEQEND
  8
0
  0
POLYLINE
  8
20
 66
1
 10
0.0000
 20
0.0000
 30
0.0000
 40
0.0762
 41
0.0762
 70
0
  0
VERTEX
  8
20
 10
39.4758
 20
40.6954
 30
0.0000
 42
0.4142
  0
VERTEX
  8
20
 10
38.6778
 20
40.0758
 30
0.0000
  0
SEQEND
  8
0
  0
POLYLINE
  8
20
 66
1
 10
0.0000
 20
0.0000
 30
0.0000
 40
0.0381
 41
0.0381
 70
0
  0
VERTEX
  8
20
 10
39.4734
 20
40.6765
 30
0.0000
 42
1.0000
  0
VERTEX
  8
20
 10
39.4782
 20
40.7143
 30
0.0000
  0
SEQEND
  8
0
  0
POLYLINE
  8
20
 66
1
 10
0.0000
 20
0.0000
 30
0.0000
 40
0.0381
 41
0.0381
 70
0
  0
VERTEX
  8
20
 10
38.6589
 20
40.0782
 30
0.0000
 42
1.0000
  0
VERTEX
  8
20
 10
38.6967
 20
40.0735
 30
0.0000
  0
SEQEND
  8
0
  0
POLYLINE
  8
20
 66
1
 10
0.0000
 20
0.0000
 30
0.0000
 40
0.0762
 41
0.0762
 70
0
  0
VERTEX
  8
20
 10
39.4758
 20
40.6954
 30
0.0000
  0
VERTEX
  8
20
 10
43.7541
 20
40.7276
 30
0.0000
  0
SEQEND
  8
0
  0
POLYLINE
  8
20
 66
1
 10
0.0000
 20
0.0000
 30
0.0000
 40
0.0381
 41
0.0381
 70
0
  0
VERTEX
  8
20
 10
43.7542
 20
40.7085
 30
0.0000
 42
1.0000
  0
VERTEX
  8
20
 10
43.7540
 20
40.7466
 30
0.0000
  0
SEQEND
  8
0
  0
POLYLINE
  8
20
 66
1
 10
0.0000
 20
0.0000
 30
0.0000
 40
0.0381
 41
0.0381
 70
0
  0
VERTEX
  8
20
 10
39.4757
 20
40.7144
 30
0.0000
 42
1.0000
  0
VERTEX
  8
20
 10
39.4759
 20
40.6763
 30
0.0000
  0
SEQEND
  8
0
  0
POLYLINE
  8
20
 66
1
 10
0.0000
 20
0.0000
 30
0.0000
 40
0.0762
 41
0.0762
 70
0
  0
VERTEX
  8
20
 10
43.7541
 20
40.7276
 30
0.0000
 42
0.4142
  0
VERTEX
  8
20
 10
44.5088
 20
41.2133
 30
0.0000
  0
SEQEND
  8
0
  0
POLYLINE
  8
20
 66
1
 10
0.0000
 20
0.0000
 30
0.0000
 40
0.0381
 41
0.0381
 70
0
  0
VERTEX
  8
20
 10
43.7581
 20
40.7462
 30
0.0000
 42
1.0000
  0
VERTEX
  8
20
 10
43.7501
 20
40.7090
 30
0.0000
  0
SEQEND
  8
0
  0
POLYLINE
  8
20
 66
1
 10
0.0000
 20
0.0000
 30
0.0000
 40
0.0381
 41
0.0381
 70
0
  0
VERTEX
  8
20
 10
44.5274
 20
41.2093
 30
0.0000
 42
1.0000
  0
VERTEX
  8
20
 10
44.4902
 20
41.2173
 30
0.0000
  0
SEQEND
  8
0
  0
POLYLINE
  8
20
 66
1
 10
0.0000
 20
0.0000
 30
0.0000
 40
0.0762
 41
0.0762
 70
0
  0
VERTEX
  8
20
 10
44.5088
 20
41.2133
 30
0.0000
  0
VERTEX
  8
20
 10
44.5088
 20
42.3770
 30
0.0000
  0
SEQEND
  8
0
  0
POLYLINE
  8
20
 66
1
 10
0.0000
 20
0.0000
 30
0.0000
 40
0.0381
 41
0.0381
 70
0
  0
VERTEX
  8
20
 10
44.5279
 20
42.3770
 30
0.0000
 42
1.0000
  0
VERTEX
  8
20
 10
44.4898
 20
42.3770
 30
0.0000
  0
SEQEND
  8
0
  0
POLYLINE
  8
20
 66
1
 10
0.0000
 20
0.0000
 30
0.0000
 40
0.0381
 41
0.0381
 70
0
  0
VERTEX
  8
20
 10
44.4898
 20
41.2133
 30
0.0000
 42
1.0000
  0
VERTEX
  8
20
 10
44.5279
 20
41.2133
 30
0.0000
  0
SEQEND
  8
0
  0
POLYLINE
  8
20
 66
1
 10
0.0000
 20
0.0000
 30
0.0000
 40
0.0762
 41
0.0762
 70
0
  0
VERTEX
  8
20
 10
44.5088
 20
42.3770
 30
0.0000
 42
0.4142
  0
VERTEX
  8
20
 10
41.2672
 20
46.3258
 30
0.0000
  0
SEQEND
  8
0
  0
POLYLINE
  8
20
 66
1
 10
0.0000
 20
0.0000
 30
0.0000
 40
0.0381
 41
0.0381
 70
0
  0
VERTEX
  8
20
 10
44.4899
 20
42.3789
 30
0.0000
 42
1.0000
  0
VERTEX
  8
20
 10
44.5278
 20
42.3752
 30
0.0000
  0
SEQEND
  8
0
  0
POLYLINE
  8
20
 66
1
 10
0.0000
 20
0.0000
 30
0.0000
 40
0.0381
 41
0.0381
 70
0
  0
VERTEX
  8
20
 10
41.2691
 20
46.3448
 30
0.0000
 42
1.0000
  0
VERTEX
  8
20
 10
41.2653
 20
46.3069
 30
0.0000
  0
SEQEND
  8
0
  0
POLYLINE
  8
20
 66
1
 10
0.0000
 20
0.0000
 30
0.0000
 40
0.0762
 41
0.0762
 70
0
  0
VERTEX
  8
20
 10
41.2672
 20
46.3258
 30
0.0000
  0
VERTEX
  8
20
 10
0.9040
 20
46.3257
 30
0.0000
  0
SEQEND
  8
0
  0
POLYLINE
  8
20
 66
1
 10
0.0000
 20
0.0000
 30
0.0000
 40
0.0381
 41
0.0381
 70
0
  0
VERTEX
  8
20
 10
0.9040
 20
46.3448
 30
0.0000
 42
1.0000
  0
VERTEX
  8
20
 10
0.9040
 20
46.3067
 30
0.0000
  0
SEQEND
  8
0
  0
POLYLINE
  8
20
 66
1
 10
0.0000
 20
0.0000
 30
0.0000
 40
0.0381
 41
0.0381
 70
0
  0
VERTEX
  8
20
 10
41.2672
 20
46.3068
 30
0.0000
 42
1.0000
  0
VERTEX
  8
20
 10
41.2672
 20
46.3449
 30
0.0000
  0
SEQEND
  8
0
  0
POLYLINE
  8
20
 66
1
 10
0.0000
 20
0.0000
 30
0.0000
 40
0.0762
 41
0.0762
 70
0
  0
VERTEX
  8
20
 10
0.9040
 20
46.3257
 30
0.0000
 42
0.4142
  0
VERTEX
  8
20
 10
0.6857
 20
46.1466
 30
0.0000
  0
SEQEND
  8
0
  0
POLYLINE
  8
20
 66
1
 10
0.0000
 20
0.0000
 30
0.0000
 40
0.0381
 41
0.0381
 70
0
  0
VERTEX
  8
20
 10
0.9022
 20
46.3068
 30
0.0000
 42
1.0000
  0
VERTEX
  8
20
 10
0.9059
 20
46.3447
 30
0.0000
  0
SEQEND
  8
0
  0
POLYLINE
  8
20
 66
1
 10
0.0000
 20
0.0000
 30
0.0000
 40
0.0381
 41
0.0381
 70
0
  0
VERTEX
  8
20
 10
0.6668
 20
46.1484
 30
0.0000
 42
1.0000
  0
VERTEX
  8
20
 10
0.7047
 20
46.1447
 30
0.0000
  0
SEQEND
  8
0
  0
POLYLINE
  8
22
 66
1
 10
0.0000
 20
0.0000
 30
0.0000
 40
0.4064
 41
0.4064
 70
0
  0
VERTEX
  8
22
 10
20.5858
 20
18.8184
 30
0.0000
  0
VERTEX
  8
22
 10
21.8558
 20
18.8184
 30
0.0000
  0
SEQEND
  8
0
  0
POLYLINE
  8
22
 66
1
 10
0.0000
 20
0.0000
 30
0.0000
 40
0.2032
 41
0.2032
 70
0
  0
VERTEX
  8
22
 10
21.8558
 20
18.7168
 30
0.0000
 42
1.0000
  0
VERTEX
  8
22
 10
21.8558
 20
18.9200
 30
0.0000
  0
SEQEND
  8
0
  0
POLYLINE
  8
22
 66
1
 10
0.0000
 20
0.0000
 30
0.0000
 40
0.2032
 41
0.2032
 70
0
  0
VERTEX
  8
22
 10
20.5858
 20
18.9200
 30
0.0000
 42
1.0000
  0
VERTEX
  8
22
 10
20.5858
 20
18.7168
 30
0.0000
  0
SEQEND
  8
0
  0
POLYLINE
  8
22
 66
1
 10
0.0000
 20
0.0000
 30
0.0000
 40
0.4064
 41
0.4064
 70
0
  0
VERTEX
  8
22
 10
20.5858
 20
17.9294
 30
0.0000
  0
VERTEX
  8
22
 10
21.8558
 20
17.9294
 30
0.0000
  0
SEQEND
  8
0
  0
POLYLINE
  8
22
 66
1
 10
0.0000
 20
0.0000
 30
0.0000
 40
0.2032
 41
0.2032
 70
0
  0
VERTEX
  8
22
 10
21.8558
 20
17.8278
 30
0.0000
 42
1.0000
  0
VERTEX
  8
22
 10
21.8558
 20
18.0310
 30
0.0000
  0
SEQEND
  8
0
  0
POLYLINE
  8
22
 66
1
 10
0.0000
 20
0.0000
 30
0.0000
 40
0.2032
 41
0.2032
 70
0
  0
VERTEX
  8
22
 10
20.5858
 20
18.0310
 30
0.0000
 42
1.0000
  0
VERTEX
  8
22
 10
20.5858
 20
17.8278
 30
0.0000
  0
SEQEND
  8
0
  0
POLYLINE
  8
22
 66
1
 10
0.0000
 20
0.0000
 30
0.0000
 40
0.1524
 41
0.1524
 70
0
  0
VERTEX
  8
22
 10
21.8558
 20
11.8334
 30
0.0000
  0
VERTEX
  8
22
 10
21.8558
 20
17.9294
 30
0.0000
  0
SEQEND
  8
0
  0
POLYLINE
  8
22
 66
1
 10
0.0000
 20
0.0000
 30
0.0000
 40
0.0762
 41
0.0762
 70
0
  0
VERTEX
  8
22
 10
21.8939
 20
17.9294
 30
0.0000
 42
1.0000
  0
VERTEX
  8
22
 10
21.8177
 20
17.9294
 30
0.0000
  0
SEQEND
  8
0
  0
POLYLINE
  8
22
 66
1
 10
0.0000
 20
0.0000
 30
0.0000
 40
0.0762
 41
0.0762
 70
0
  0
VERTEX
  8
22
 10
21.8177
 20
11.8334
 30
0.0000
 42
1.0000
  0
VERTEX
  8
22
 10
21.8939
 20
11.8334
 30
0.0000
  0
SEQEND
  8
0
  0
POLYLINE
  8
22
 66
1
 10
0.0000
 20
0.0000
 30
0.0000
 40
0.4064
 41
0.4064
 70
0
  0
VERTEX
  8
22
 10
21.8558
 20
17.9294
 30
0.0000
  0
VERTEX
  8
22
 10
23.1258
 20
17.9294
 30
0.0000
  0
SEQEND
  8
0
  0
POLYLINE
  8
22
 66
1
 10
0.0000
 20
0.0000
 30
0.0000
 40
0.2032
 41
0.2032
 70
0
  0
VERTEX
  8
22
 10
23.1258
 20
17.8278
 30
0.0000
 42
1.0000
  0
VERTEX
  8
22
 10
23.1258
 20
18.0310
 30
0.0000
  0
SEQEND
  8
0
  0
POLYLINE
  8
22
 66
1
 10
0.0000
 20
0.0000
 30
0.0000
 40
0.2032
 41
0.2032
 70
0
  0
VERTEX
  8
22
 10
21.8558
 20
18.0310
 30
0.0000
 42
1.0000
  0
VERTEX
  8
22
 10
21.8558
 20
17.8278
 30
0.0000
  0
SEQEND
  8
0
  0
POLYLINE
  8
22
 66
1
 10
0.0000
 20
0.0000
 30
0.0000
 40
0.1524
 41
0.1524
 70
0
  0
VERTEX
  8
22
 10
21.8558
 20
19.4534
 30
0.0000
  0
VERTEX
  8
22
 10
21.8558
 20
18.8184
 30
0.0000
  0
SEQEND
  8
0
  0
POLYLINE
  8
22
 66
1
 10
0.0000
 20
0.0000
 30
0.0000
 40
0.0762
 41
0.0762
 70
0
  0
VERTEX
  8
22
 10
21.8177
 20
18.8184
 30
0.0000
 42
1.0000
  0
VERTEX
  8
22
 10
21.8939
 20
18.8184
 30
0.0000
  0
SEQEND
  8
0
  0
POLYLINE
  8
22
 66
1
 10
0.0000
 20
0.0000
 30
0.0000
 40
0.0762
 41
0.0762
 70
0
  0
VERTEX
  8
22
 10
21.8939
 20
19.4534
 30
0.0000
 42
1.0000
  0
VERTEX
  8
22
 10
21.8177
 20
19.4534
 30
0.0000
  0
SEQEND
  8
0
  0
POLYLINE
  8
22
 66
1
 10
0.0000
 20
0.0000
 30
0.0000
 40
0.4064
 41
0.4064
 70
0
  0
VERTEX
  8
22
 10
21.8558
 20
18.8184
 30
0.0000
  0
VERTEX
  8
22
 10
23.1258
 20
18.8184
 30
0.0000
  0
SEQEND
  8
0
  0
POLYLINE
  8
22
 66
1
 10
0.0000
 20
0.0000
 30
0.0000
 40
0.2032
 41
0.2032
 70
0
  0
VERTEX
  8
22
 10
23.1258
 20
18.7168
 30
0.0000
 42
1.0000
  0
VERTEX
  8
22
 10
23.1258
 20
18.9200
 30
0.0000
  0
SEQEND
  8
0
  0
POLYLINE
  8
22
 66
1
 10
0.0000
 20
0.0000
 30
0.0000
 40
0.2032
 41
0.2032
 70
0
  0
VERTEX
  8
22
 10
21.8558
 20
18.9200
 30
0.0000
 42
1.0000
  0
VERTEX
  8
22
 10
21.8558
 20
18.7168
 30
0.0000
  0
SEQEND
  8
0
  0
POLYLINE
  8
22
 66
1
 10
0.0000
 20
0.0000
 30
0.0000
 40
0.1524
 41
0.1524
 70
0
  0
VERTEX
  8
22
 10
19.8238
 20
21.7394
 30
0.0000
  0
VERTEX
  8
22
 10
19.8238
 20
9.5474
 30
0.0000
  0
SEQEND
  8
0
  0
POLYLINE
  8
22
 66
1
 10
0.0000
 20
0.0000
 30
0.0000
 40
0.0762
 41
0.0762
 70
0
  0
VERTEX
  8
22
 10
19.7857
 20
9.5474
 30
0.0000
 42
1.0000
  0
VERTEX
  8
22
 10
19.8619
 20
9.5474
 30
0.0000
  0
SEQEND
  8
0
  0
POLYLINE
  8
22
 66
1
 10
0.0000
 20
0.0000
 30
0.0000
 40
0.0762
 41
0.0762
 70
0
  0
VERTEX
  8
22
 10
19.8619
 20
21.7394
 30
0.0000
 42
1.0000
  0
VERTEX
  8
22
 10
19.7857
 20
21.7394
 30
0.0000
  0
SEQEND
  8
0
  0
POLYLINE
  8
22
 66
1
 10
0.0000
 20
0.0000
 30
0.0000
 40
0.1524
 41
0.1524
 70
0
  0
VERTEX
  8
22
 10
20.3318
 20
9.0394
 30
0.0000
  0
VERTEX
  8
22
 10
23.3798
 20
9.0394
 30
0.0000
  0
SEQEND
  8
0
  0
POLYLINE
  8
22
 66
1
 10
0.0000
 20
0.0000
 30
0.0000
 40
0.0762
 41
0.0762
 70
0
  0
VERTEX
  8
22
 10
23.3798
 20
9.0013
 30
0.0000
 42
1.0000
  0
VERTEX
  8
22
 10
23.3798
 20
9.0775
 30
0.0000
  0
SEQEND
  8
0
  0
POLYLINE
  8
22
 66
1
 10
0.0000
 20
0.0000
 30
0.0000
 40
0.0762
 41
0.0762
 70
0
  0
VERTEX
  8
22
 10
20.3318
 20
9.0775
 30
0.0000
 42
1.0000
  0
VERTEX
  8
22
 10
20.3318
 20
9.0013
 30
0.0000
  0
SEQEND
  8
0
  0
POLYLINE
  8
22
 66
1
 10
0.0000
 20
0.0000
 30
0.0000
 40
0.1524
 41
0.1524
 70
0
  0
VERTEX
  8
22
 10
23.8878
 20
9.5474
 30
0.0000
  0
VERTEX
  8
22
 10
23.8878
 20
21.7394
 30
0.0000
  0
SEQEND
  8
0
  0
POLYLINE
  8
22
 66
1
 10
0.0000
 20
0.0000
 30
0.0000
 40
0.0762
 41
0.0762
 70
0
  0
VERTEX
  8
22
 10
23.9259
 20
21.7394
 30
0.0000
 42
1.0000
  0
VERTEX
  8
22
 10
23.8497
 20
21.7394
 30
0.0000
  0
SEQEND
  8
0
  0
POLYLINE
  8
22
 66
1
 10
0.0000
 20
0.0000
 30
0.0000
 40
0.0762
 41
0.0762
 70
0
  0
VERTEX
  8
22
 10
23.8497
 20
9.5474
 30
0.0000
 42
1.0000
  0
VERTEX
  8
22
 10
23.9259
 20
9.5474
 30
0.0000
  0
SEQEND
  8
0
  0
POLYLINE
  8
22
 66
1
 10
0.0000
 20
0.0000
 30
0.0000
 40
0.1524
 41
0.1524
 70
0
  0
VERTEX
  8
22
 10
23.3798
 20
22.2474
 30
0.0000
  0
VERTEX
  8
22
 10
20.3318
 20
22.2474
 30
0.0000
  0
SEQEND
  8
0
  0
POLYLINE
  8
22
 66
1
 10
0.0000
 20
0.0000
 30
0.0000
 40
0.0762
 41
0.0762
 70
0
  0
VERTEX
  8
22
 10
20.3318
 20
22.2855
 30
0.0000
 42
1.0000
  0
VERTEX
  8
22
 10
20.3318
 20
22.2093
 30
0.0000
  0
SEQEND
  8
0
  0
POLYLINE
  8
22
 66
1
 10
0.0000
 20
0.0000
 30
0.0000
 40
0.0762
 41
0.0762
 70
0
  0
VERTEX
  8
22
 10
23.3798
 20
22.2093
 30
0.0000
 42
1.0000
  0
VERTEX
  8
22
 10
23.3798
 20
22.2855
 30
0.0000
  0
SEQEND
  8
0
  0
POLYLINE
  8
22
 66
1
 10
0.0000
 20
0.0000
 30
0.0000
 40
0.1524
 41
0.1524
 70
0
  0
VERTEX
  8
22
 10
19.8238
 20
9.5474
 30
0.0000
 42
0.4142
  0
VERTEX
  8
22
 10
20.3318
 20
9.0394
 30
0.0000
  0
SEQEND
  8
0
  0
POLYLINE
  8
22
 66
1
 10
0.0000
 20
0.0000
 30
0.0000
 40
0.0762
 41
0.0762
 70
0
  0
VERTEX
  8
22
 10
19.8619
 20
9.5474
 30
0.0000
 42
1.0000
  0
VERTEX
  8
22
 10
19.7857
 20
9.5474
 30
0.0000
  0
SEQEND
  8
0
  0
POLYLINE
  8
22
 66
1
 10
0.0000
 20
0.0000
 30
0.0000
 40
0.0762
 41
0.0762
 70
0
  0
VERTEX
  8
22
 10
20.3318
 20
9.0013
 30
0.0000
 42
1.0000
  0
VERTEX
  8
22
 10
20.3318
 20
9.0775
 30
0.0000
  0
SEQEND
  8
0
  0
POLYLINE
  8
22
 66
1
 10
0.0000
 20
0.0000
 30
0.0000
 40
0.1524
 41
0.1524
 70
0
  0
VERTEX
  8
22
 10
23.3798
 20
9.0394
 30
0.0000
 42
0.4142
  0
VERTEX
  8
22
 10
23.8878
 20
9.5474
 30
0.0000
  0
SEQEND
  8
0
  0
POLYLINE
  8
22
 66
1
 10
0.0000
 20
0.0000
 30
0.0000
 40
0.0762
 41
0.0762
 70
0
  0
VERTEX
  8
22
 10
23.3798
 20
9.0775
 30
0.0000
 42
1.0000
  0
VERTEX
  8
22
 10
23.3798
 20
9.0013
 30
0.0000
  0
SEQEND
  8
0
  0
POLYLINE
  8
22
 66
1
 10
0.0000
 20
0.0000
 30
0.0000
 40
0.0762
 41
0.0762
 70
0
  0
VERTEX
  8
22
 10
23.9259
 20
9.5474
 30
0.0000
 42
1.0000
  0
VERTEX
  8
22
 10
23.8497
 20
9.5474
 30
0.0000
  0
SEQEND
  8
0
  0
POLYLINE
  8
22
 66
1
 10
0.0000
 20
0.0000
 30
0.0000
 40
0.1524
 41
0.1524
 70
0
  0
VERTEX
  8
22
 10
23.8878
 20
21.7394
 30
0.0000
 42
0.4142
  0
VERTEX
  8
22
 10
23.3798
 20
22.2474
 30
0.0000
  0
SEQEND
  8
0
  0
POLYLINE
  8
22
 66
1
 10
0.0000
 20
0.0000
 30
0.0000
 40
0.0762
 41
0.0762
 70
0
  0
VERTEX
  8
22
 10
23.8497
 20
21.7394
 30
0.0000
 42
1.0000
  0
VERTEX
  8
22
 10
23.9259
 20
21.7394
 30
0.0000
  0
SEQEND
  8
0
  0
POLYLINE
  8
22
 66
1
 10
0.0000
 20
0.0000
 30
0.0000
 40
0.0762
 41
0.0762
 70
0
  0
VERTEX
  8
22
 10
23.3798
 20
22.2855
 30
0.0000
 42
1.0000
  0
VERTEX
  8
22
 10
23.3798
 20
22.2093
 30
0.0000
  0
SEQEND
  8
0
  0
POLYLINE
  8
22
 66
1
 10
0.0000
 20
0.0000
 30
0.0000
 40
0.1524
 41
0.1524
 70
0
  0
VERTEX
  8
22
 10
20.3318
 20
22.2474
 30
0.0000
 42
0.4142
  0
VERTEX
  8
22
 10
19.8238
 20
21.7394
 30
0.0000
  0
SEQEND
  8
0
  0
POLYLINE
  8
22
 66
1
 10
0.0000
 20
0.0000
 30
0.0000
 40
0.0762
 41
0.0762
 70
0
  0
VERTEX
  8
22
 10
20.3318
 20
22.2093
 30
0.0000
 42
1.0000
  0
VERTEX
  8
22
 10
20.3318
 20
22.2855
 30
0.0000
  0
SEQEND
  8
0
  0
POLYLINE
  8
22
 66
1
 10
0.0000
 20
0.0000
 30
0.0000
 40
0.0762
 41
0.0762
 70
0
  0
VERTEX
  8
22
 10
19.7857
 20
21.7394
 30
0.0000
 42
1.0000
  0
VERTEX
  8
22
 10
19.8619
 20
21.7394
 30
0.0000
  0
SEQEND
  8
0
  0
POLYLINE
  8
22
 66
1
 10
0.0000
 20
0.0000
 30
0.0000
 40
0.1270
 41
0.1270
 70
0
  0
VERTEX
  8
22
 10
37.7968
 20
29.5210
 30
0.0000
  0
VERTEX
  8
22
 10
35.2968
 20
29.5210
 30
0.0000
  0
SEQEND
  8
0
  0
POLYLINE
  8
22
 66
1
 10
0.0000
 20
0.0000
 30
0.0000
 40
0.0635
 41
0.0635
 70
0
  0
VERTEX
  8
22
 10
35.2968
 20
29.5527
 30
0.0000
 42
1.0000
  0
VERTEX
  8
22
 10
35.2968
 20
29.4892
 30
0.0000
  0
SEQEND
  8
0
  0
POLYLINE
  8
22
 66
1
 10
0.0000
 20
0.0000
 30
0.0000
 40
0.0635
 41
0.0635
 70
0
  0
VERTEX
  8
22
 10
37.7968
 20
29.4892
 30
0.0000
 42
1.0000
  0
VERTEX
  8
22
 10
37.7968
 20
29.5527
 30
0.0000
  0
SEQEND
  8
0
  0
POLYLINE
  8
22
 66
1
 10
0.0000
 20
0.0000
 30
0.0000
 40
0.1270
 41
0.1270
 70
0
  0
VERTEX
  8
22
 10
35.2968
 20
29.5210
 30
0.0000
  0
VERTEX
  8
22
 10
35.2968
 20
32.5210
 30
0.0000
  0
SEQEND
  8
0
  0
POLYLINE
  8
22
 66
1
 10
0.0000
 20
0.0000
 30
0.0000
 40
0.0635
 41
0.0635
 70
0
  0
VERTEX
  8
22
 10
35.3286
 20
32.5210
 30
0.0000
 42
1.0000
  0
VERTEX
  8
22
 10
35.2651
 20
32.5210
 30
0.0000
  0
SEQEND
  8
0
  0
POLYLINE
  8
22
 66
1
 10
0.0000
 20
0.0000
 30
0.0000
 40
0.0635
 41
0.0635
 70
0
  0
VERTEX
  8
22
 10
35.2651
 20
29.5210
 30
0.0000
 42
1.0000
  0
VERTEX
  8
22
 10
35.3286
 20
29.5210
 30
0.0000
  0
SEQEND
  8
0
  0
POLYLINE
  8
22
 66
1
 10
0.0000
 20
0.0000
 30
0.0000
 40
0.1270
 41
0.1270
 70
0
  0
VERTEX
  8
22
 10
35.2968
 20
32.5210
 30
0.0000
  0
VERTEX
  8
22
 10
37.7968
 20
32.5210
 30
0.0000
  0
SEQEND
  8
0
  0
POLYLINE
  8
22
 66
1
 10
0.0000
 20
0.0000
 30
0.0000
 40
0.0635
 41
0.0635
 70
0
  0
VERTEX
  8
22
 10
37.7968
 20
32.4892
 30
0.0000
 42
1.0000
  0
VERTEX
  8
22
 10
37.7968
 20
32.5527
 30
0.0000
  0
SEQEND
  8
0
  0
POLYLINE
  8
22
 66
1
 10
0.0000
 20
0.0000
 30
0.0000
 40
0.0635
 41
0.0635
 70
0
  0
VERTEX
  8
22
 10
35.2968
 20
32.5527
 30
0.0000
 42
1.0000
  0
VERTEX
  8
22
 10
35.2968
 20
32.4892
 30
0.0000
  0
SEQEND
  8
0
  0
POLYLINE
  8
22
 66
1
 10
0.0000
 20
0.0000
 30
0.0000
 40
0.1270
 41
0.1270
 70
0
  0
VERTEX
  8
22
 10
37.7968
 20
32.5210
 30
0.0000
  0
VERTEX
  8
22
 10
37.7968
 20
29.5210
 30
0.0000
  0
SEQEND
  8
0
  0
POLYLINE
  8
22
 66
1
 10
0.0000
 20
0.0000
 30
0.0000
 40
0.0635
 41
0.0635
 70
0
  0
VERTEX
  8
22
 10
37.7651
 20
29.5210
 30
0.0000
 42
1.0000
  0
VERTEX
  8
22
 10
37.8286
 20
29.5210
 30
0.0000
  0
SEQEND
  8
0
  0
POLYLINE
  8
22
 66
1
 10
0.0000
 20
0.0000
 30
0.0000
 40
0.0635
 41
0.0635
 70
0
  0
VERTEX
  8
22
 10
37.8286
 20
32.5210
 30
0.0000
 42
1.0000
  0
VERTEX
  8
22
 10
37.7651
 20
32.5210
 30
0.0000
  0
SEQEND
  8
0
  0
POLYLINE
  8
22
 66
1
 10
0.0000
 20
0.0000
 30
0.0000
 40
0.1270
 41
0.1270
 70
0
  0
VERTEX
  8
22
 10
44.9010
 20
12.7904
 30
0.0000
  0
VERTEX
  8
22
 10
44.9010
 20
20.6804
 30
0.0000
  0
SEQEND
  8
0
  0
POLYLINE
  8
22
 66
1
 10
0.0000
 20
0.0000
 30
0.0000
 40
0.0635
 41
0.0635
 70
0
  0
VERTEX
  8
22
 10
44.9328
 20
20.6804
 30
0.0000
 42
1.0000
  0
VERTEX
  8
22
 10
44.8693
 20
20.6804
 30
0.0000
  0
SEQEND
  8
0
  0
POLYLINE
  8
22
 66
1
 10
0.0000
 20
0.0000
 30
0.0000
 40
0.0635
 41
0.0635
 70
0
  0
VERTEX
  8
22
 10
44.8693
 20
12.7904
 30
0.0000
 42
1.0000
  0
VERTEX
  8
22
 10
44.9328
 20
12.7904
 30
0.0000
  0
SEQEND
  8
0
  0
POLYLINE
  8
22
 66
1
 10
0.0000
 20
0.0000
 30
0.0000
 40
0.1270
 41
0.1270
 70
0
  0
VERTEX
  8
22
 10
34.6010
 20
23.2704
 30
0.0000
  0
VERTEX
  8
22
 10
34.6010
 20
2.9704
 30
0.0000
  0
SEQEND
  8
0
  0
POLYLINE
  8
22
 66
1
 10
0.0000
 20
0.0000
 30
0.0000
 40
0.0635
 41
0.0635
 70
0
  0
VERTEX
  8
22
 10
34.5692
 20
2.9704
 30
0.0000
 42
1.0000
  0
VERTEX
  8
22
 10
34.6328
 20
2.9704
 30
0.0000
  0
SEQEND
  8
0
  0
POLYLINE
  8
22
 66
1
 10
0.0000
 20
0.0000
 30
0.0000
 40
0.0635
 41
0.0635
 70
0
  0
VERTEX
  8
22
 10
34.6328
 20
23.2704
 30
0.0000
 42
1.0000
  0
VERTEX
  8
22
 10
34.5692
 20
23.2704
 30
0.0000
  0
SEQEND
  8
0
  0
POLYLINE
  8
22
 66
1
 10
0.0000
 20
0.0000
 30
0.0000
 40
0.1270
 41
0.1270
 70
0
  0
VERTEX
  8
22
 10
34.6010
 20
2.9704
 30
0.0000
  0
VERTEX
  8
22
 10
44.9010
 20
2.9704
 30
0.0000
  0
SEQEND
  8
0
  0
POLYLINE
  8
22
 66
1
 10
0.0000
 20
0.0000
 30
0.0000
 40
0.0635
 41
0.0635
 70
0
  0
VERTEX
  8
22
 10
44.9010
 20
2.9386
 30
0.0000
 42
1.0000
  0
VERTEX
  8
22
 10
44.9010
 20
3.0021
 30
0.0000
  0
SEQEND
  8
0
  0
POLYLINE
  8
22
 66
1
 10
0.0000
 20
0.0000
 30
0.0000
 40
0.0635
 41
0.0635
 70
0
  0
VERTEX
  8
22
 10
34.6010
 20
3.0021
 30
0.0000
 42
1.0000
  0
VERTEX
  8
22
 10
34.6010
 20
2.9386
 30
0.0000
  0
SEQEND
  8
0
  0
POLYLINE
  8
22
 66
1
 10
0.0000
 20
0.0000
 30
0.0000
 40
0.1270
 41
0.1270
 70
0
  0
VERTEX
  8
22
 10
34.6010
 20
23.2704
 30
0.0000
  0
VERTEX
  8
22
 10
35.3510
 20
23.2704
 30
0.0000
  0
SEQEND
  8
0
  0
POLYLINE
  8
22
 66
1
 10
0.0000
 20
0.0000
 30
0.0000
 40
0.0635
 41
0.0635
 70
0
  0
VERTEX
  8
22
 10
35.3510
 20
23.2386
 30
0.0000
 42
1.0000
  0
VERTEX
  8
22
 10
35.3510
 20
23.3021
 30
0.0000
  0
SEQEND
  8
0
  0
POLYLINE
  8
22
 66
1
 10
0.0000
 20
0.0000
 30
0.0000
 40
0.0635
 41
0.0635
 70
0
  0
VERTEX
  8
22
 10
34.6010
 20
23.3021
 30
0.0000
 42
1.0000
  0
VERTEX
  8
22
 10
34.6010
 20
23.2386
 30
0.0000
  0
SEQEND
  8
0
  0
POLYLINE
  8
22
 66
1
 10
0.0000
 20
0.0000
 30
0.0000
 40
0.1270
 41
0.1270
 70
0
  0
VERTEX
  8
22
 10
36.8510
 20
23.2704
 30
0.0000
  0
VERTEX
  8
22
 10
42.2510
 20
23.2704
 30
0.0000
  0
SEQEND
  8
0
  0
POLYLINE
  8
22
 66
1
 10
0.0000
 20
0.0000
 30
0.0000
 40
0.0635
 41
0.0635
 70
0
  0
VERTEX
  8
22
 10
42.2510
 20
23.2386
 30
0.0000
 42
1.0000
  0
VERTEX
  8
22
 10
42.2510
 20
23.3021
 30
0.0000
  0
SEQEND
  8
0
  0
POLYLINE
  8
22
 66
1
 10
0.0000
 20
0.0000
 30
0.0000
 40
0.0635
 41
0.0635
 70
0
  0
VERTEX
  8
22
 10
36.8510
 20
23.3021
 30
0.0000
 42
1.0000
  0
VERTEX
  8
22
 10
36.8510
 20
23.2386
 30
0.0000
  0
SEQEND
  8
0
  0
POLYLINE
  8
22
 66
1
 10
0.0000
 20
0.0000
 30
0.0000
 40
0.1270
 41
0.1270
 70
0
  0
VERTEX
  8
22
 10
44.9010
 20
11.1304
 30
0.0000
  0
VERTEX
  8
22
 10
44.9010
 20
5.1304
 30
0.0000
  0
SEQEND
  8
0
  0
POLYLINE
  8
22
 66
1
 10
0.0000
 20
0.0000
 30
0.0000
 40
0.0635
 41
0.0635
 70
0
  0
VERTEX
  8
22
 10
44.8693
 20
5.1304
 30
0.0000
 42
1.0000
  0
VERTEX
  8
22
 10
44.9328
 20
5.1304
 30
0.0000
  0
SEQEND
  8
0
  0
POLYLINE
  8
22
 66
1
 10
0.0000
 20
0.0000
 30
0.0000
 40
0.0635
 41
0.0635
 70
0
  0
VERTEX
  8
22
 10
44.9328
 20
11.1304
 30
0.0000
 42
1.0000
  0
VERTEX
  8
22
 10
44.8693
 20
11.1304
 30
0.0000
  0
SEQEND
  8
0
  0
POLYLINE
  8
22
 66
1
 10
0.0000
 20
0.0000
 30
0.0000
 40
0.1270
 41
0.1270
 70
0
  0
VERTEX
  8
22
 10
44.9010
 20
2.9704
 30
0.0000
  0
VERTEX
  8
22
 10
44.9010
 20
3.5304
 30
0.0000
  0
SEQEND
  8
0
  0
POLYLINE
  8
22
 66
1
 10
0.0000
 20
0.0000
 30
0.0000
 40
0.0635
 41
0.0635
 70
0
  0
VERTEX
  8
22
 10
44.9328
 20
3.5304
 30
0.0000
 42
1.0000
  0
VERTEX
  8
22
 10
44.8693
 20
3.5304
 30
0.0000
  0
SEQEND
  8
0
  0
POLYLINE
  8
22
 66
1
 10
0.0000
 20
0.0000
 30
0.0000
 40
0.0635
 41
0.0635
 70
0
  0
VERTEX
  8
22
 10
44.8693
 20
2.9704
 30
0.0000
 42
1.0000
  0
VERTEX
  8
22
 10
44.9328
 20
2.9704
 30
0.0000
  0
SEQEND
  8
0
  0
POLYLINE
  8
22
 66
1
 10
0.0000
 20
0.0000
 30
0.0000
 40
0.2000
 41
0.2000
 70
0
  0
VERTEX
  8
22
 10
43.6510
 20
23.8304
 30
0.0000
 42
1.0000
  0
VERTEX
  8
22
 10
43.6510
 20
24.1304
 30
0.0000
 42
1.0000
  0
VERTEX
  8
22
 10
43.6510
 20
23.8304
 30
0.0000
  0
SEQEND
  8
0
  0
POLYLINE
  8
22
 66
1
 10
0.0000
 20
0.0000
 30
0.0000
 40
0.1270
 41
0.1270
 70
0
  0
VERTEX
  8
22
 10
34.3600
 20
12.7904
 30
0.0000
  0
VERTEX
  8
22
 10
34.3600
 20
20.6804
 30
0.0000
  0
SEQEND
  8
0
  0
POLYLINE
  8
22
 66
1
 10
0.0000
 20
0.0000
 30
0.0000
 40
0.0635
 41
0.0635
 70
0
  0
VERTEX
  8
22
 10
34.3918
 20
20.6804
 30
0.0000
 42
1.0000
  0
VERTEX
  8
22
 10
34.3282
 20
20.6804
 30
0.0000
  0
SEQEND
  8
0
  0
POLYLINE
  8
22
 66
1
 10
0.0000
 20
0.0000
 30
0.0000
 40
0.0635
 41
0.0635
 70
0
  0
VERTEX
  8
22
 10
34.3282
 20
12.7904
 30
0.0000
 42
1.0000
  0
VERTEX
  8
22
 10
34.3918
 20
12.7904
 30
0.0000
  0
SEQEND
  8
0
  0
POLYLINE
  8
22
 66
1
 10
0.0000
 20
0.0000
 30
0.0000
 40
0.1270
 41
0.1270
 70
0
  0
VERTEX
  8
22
 10
24.0600
 20
23.2704
 30
0.0000
  0
VERTEX
  8
22
 10
24.0600
 20
2.9704
 30
0.0000
  0
SEQEND
  8
0
  0
POLYLINE
  8
22
 66
1
 10
0.0000
 20
0.0000
 30
0.0000
 40
0.0635
 41
0.0635
 70
0
  0
VERTEX
  8
22
 10
24.0283
 20
2.9704
 30
0.0000
 42
1.0000
  0
VERTEX
  8
22
 10
24.0918
 20
2.9704
 30
0.0000
  0
SEQEND
  8
0
  0
POLYLINE
  8
22
 66
1
 10
0.0000
 20
0.0000
 30
0.0000
 40
0.0635
 41
0.0635
 70
0
  0
VERTEX
  8
22
 10
24.0918
 20
23.2704
 30
0.0000
 42
1.0000
  0
VERTEX
  8
22
 10
24.0283
 20
23.2704
 30
0.0000
  0
SEQEND
  8
0
  0
POLYLINE
  8
22
 66
1
 10
0.0000
 20
0.0000
 30
0.0000
 40
0.1270
 41
0.1270
 70
0
  0
VERTEX
  8
22
 10
24.0600
 20
2.9704
 30
0.0000
  0
VERTEX
  8
22
 10
34.3600
 20
2.9704
 30
0.0000
  0
SEQEND
  8
0
  0
POLYLINE
  8
22
 66
1
 10
0.0000
 20
0.0000
 30
0.0000
 40
0.0635
 41
0.0635
 70
0
  0
VERTEX
  8
22
 10
34.3600
 20
2.9386
 30
0.0000
 42
1.0000
  0
VERTEX
  8
22
 10
34.3600
 20
3.0021
 30
0.0000
  0
SEQEND
  8
0
  0
POLYLINE
  8
22
 66
1
 10
0.0000
 20
0.0000
 30
0.0000
 40
0.0635
 41
0.0635
 70
0
  0
VERTEX
  8
22
 10
24.0600
 20
3.0021
 30
0.0000
 42
1.0000
  0
VERTEX
  8
22
 10
24.0600
 20
2.9386
 30
0.0000
  0
SEQEND
  8
0
  0
POLYLINE
  8
22
 66
1
 10
0.0000
 20
0.0000
 30
0.0000
 40
0.1270
 41
0.1270
 70
0
  0
VERTEX
  8
22
 10
24.0600
 20
23.2704
 30
0.0000
  0
VERTEX
  8
22
 10
24.8100
 20
23.2704
 30
0.0000
  0
SEQEND
  8
0
  0
POLYLINE
  8
22
 66
1
 10
0.0000
 20
0.0000
 30
0.0000
 40
0.0635
 41
0.0635
 70
0
  0
VERTEX
  8
22
 10
24.8100
 20
23.2386
 30
0.0000
 42
1.0000
  0
VERTEX
  8
22
 10
24.8100
 20
23.3021
 30
0.0000
  0
SEQEND
  8
0
  0
POLYLINE
  8
22
 66
1
 10
0.0000
 20
0.0000
 30
0.0000
 40
0.0635
 41
0.0635
 70
0
  0
VERTEX
  8
22
 10
24.0600
 20
23.3021
 30
0.0000
 42
1.0000
  0
VERTEX
  8
22
 10
24.0600
 20
23.2386
 30
0.0000
  0
SEQEND
  8
0
  0
POLYLINE
  8
22
 66
1
 10
0.0000
 20
0.0000
 30
0.0000
 40
0.1270
 41
0.1270
 70
0
  0
VERTEX
  8
22
 10
26.3100
 20
23.2704
 30
0.0000
  0
VERTEX
  8
22
 10
31.7100
 20
23.2704
 30
0.0000
  0
SEQEND
  8
0
  0
POLYLINE
  8
22
 66
1
 10
0.0000
 20
0.0000
 30
0.0000
 40
0.0635
 41
0.0635
 70
0
  0
VERTEX
  8
22
 10
31.7100
 20
23.2386
 30
0.0000
 42
1.0000
  0
VERTEX
  8
22
 10
31.7100
 20
23.3021
 30
0.0000
  0
SEQEND
  8
0
  0
POLYLINE
  8
22
 66
1
 10
0.0000
 20
0.0000
 30
0.0000
 40
0.0635
 41
0.0635
 70
0
  0
VERTEX
  8
22
 10
26.3100
 20
23.3021
 30
0.0000
 42
1.0000
  0
VERTEX
  8
22
 10
26.3100
 20
23.2386
 30
0.0000
  0
SEQEND
  8
0
  0
POLYLINE
  8
22
 66
1
 10
0.0000
 20
0.0000
 30
0.0000
 40
0.1270
 41
0.1270
 70
0
  0
VERTEX
  8
22
 10
34.3600
 20
11.1304
 30
0.0000
  0
VERTEX
  8
22
 10
34.3600
 20
5.1304
 30
0.0000
  0
SEQEND
  8
0
  0
POLYLINE
  8
22
 66
1
 10
0.0000
 20
0.0000
 30
0.0000
 40
0.0635
 41
0.0635
 70
0
  0
VERTEX
  8
22
 10
34.3282
 20
5.1304
 30
0.0000
 42
1.0000
  0
VERTEX
  8
22
 10
34.3918
 20
5.1304
 30
0.0000
  0
SEQEND
  8
0
  0
POLYLINE
  8
22
 66
1
 10
0.0000
 20
0.0000
 30
0.0000
 40
0.0635
 41
0.0635
 70
0
  0
VERTEX
  8
22
 10
34.3918
 20
11.1304
 30
0.0000
 42
1.0000
  0
VERTEX
  8
22
 10
34.3282
 20
11.1304
 30
0.0000
  0
SEQEND
  8
0
  0
POLYLINE
  8
22
 66
1
 10
0.0000
 20
0.0000
 30
0.0000
 40
0.1270
 41
0.1270
 70
0
  0
VERTEX
  8
22
 10
34.3600
 20
2.9704
 30
0.0000
  0
VERTEX
  8
22
 10
34.3600
 20
3.5304
 30
0.0000
  0
SEQEND
  8
0
  0
POLYLINE
  8
22
 66
1
 10
0.0000
 20
0.0000
 30
0.0000
 40
0.0635
 41
0.0635
 70
0
  0
VERTEX
  8
22
 10
34.3918
 20
3.5304
 30
0.0000
 42
1.0000
  0
VERTEX
  8
22
 10
34.3282
 20
3.5304
 30
0.0000
  0
SEQEND
  8
0
  0
POLYLINE
  8
22
 66
1
 10
0.0000
 20
0.0000
 30
0.0000
 40
0.0635
 41
0.0635
 70
0
  0
VERTEX
  8
22
 10
34.3282
 20
2.9704
 30
0.0000
 42
1.0000
  0
VERTEX
  8
22
 10
34.3918
 20
2.9704
 30
0.0000
  0
SEQEND
  8
0
  0
POLYLINE
  8
22
 66
1
 10
0.0000
 20
0.0000
 30
0.0000
 40
0.2000
 41
0.2000
 70
0
  0
VERTEX
  8
22
 10
33.1100
 20
23.8304
 30
0.0000
 42
1.0000
  0
VERTEX
  8
22
 10
33.1100
 20
24.1304
 30
0.0000
 42
1.0000
  0
VERTEX
  8
22
 10
33.1100
 20
23.8304
 30
0.0000
  0
SEQEND
  8
0
  0
POLYLINE
  8
22
 66
1
 10
0.0000
 20
0.0000
 30
0.0000
 40
0.1524
 41
0.1524
 70
0
  0
VERTEX
  8
22
 10
5.3801
 20
13.3942
 30
0.0000
  0
VERTEX
  8
22
 10
4.4139
 20
11.3223
 30
0.0000
  0
SEQEND
  8
0
  0
POLYLINE
  8
22
 66
1
 10
0.0000
 20
0.0000
 30
0.0000
 40
0.0762
 41
0.0762
 70
0
  0
VERTEX
  8
22
 10
4.3794
 20
11.3384
 30
0.0000
 42
1.0000
  0
VERTEX
  8
22
 10
4.4485
 20
11.3062
 30
0.0000
  0
SEQEND
  8
0
  0
POLYLINE
  8
22
 66
1
 10
0.0000
 20
0.0000
 30
0.0000
 40
0.0762
 41
0.0762
 70
0
  0
VERTEX
  8
22
 10
5.4146
 20
13.3781
 30
0.0000
 42
1.0000
  0
VERTEX
  8
22
 10
5.3455
 20
13.4103
 30
0.0000
  0
SEQEND
  8
0
  0
POLYLINE
  8
22
 66
1
 10
0.0000
 20
0.0000
 30
0.0000
 40
0.0508
 41
0.0508
 70
0
  0
VERTEX
  8
22
 10
10.8435
 20
10.9867
 30
0.0000
  0
VERTEX
  8
22
 10
7.2753
 20
12.6505
 30
0.0000
  0
SEQEND
  8
0
  0
POLYLINE
  8
22
 66
1
 10
0.0000
 20
0.0000
 30
0.0000
 40
0.0254
 41
0.0254
 70
0
  0
VERTEX
  8
22
 10
7.2807
 20
12.6620
 30
0.0000
 42
1.0000
  0
VERTEX
  8
22
 10
7.2700
 20
12.6390
 30
0.0000
  0
SEQEND
  8
0
  0
POLYLINE
  8
22
 66
1
 10
0.0000
 20
0.0000
 30
0.0000
 40
0.0254
 41
0.0254
 70
0
  0
VERTEX
  8
22
 10
10.8381
 20
10.9751
 30
0.0000
 42
1.0000
  0
VERTEX
  8
22
 10
10.8488
 20
10.9982
 30
0.0000
  0
SEQEND
  8
0
  0
POLYLINE
  8
22
 66
1
 10
0.0000
 20
0.0000
 30
0.0000
 40
0.0508
 41
0.0508
 70
0
  0
VERTEX
  8
22
 10
10.8059
 20
8.2016
 30
0.0000
  0
VERTEX
  8
22
 10
7.2378
 20
9.8654
 30
0.0000
  0
SEQEND
  8
0
  0
POLYLINE
  8
22
 66
1
 10
0.0000
 20
0.0000
 30
0.0000
 40
0.0254
 41
0.0254
 70
0
  0
VERTEX
  8
22
 10
7.2432
 20
9.8769
 30
0.0000
 42
1.0000
  0
VERTEX
  8
22
 10
7.2324
 20
9.8539
 30
0.0000
  0
SEQEND
  8
0
  0
POLYLINE
  8
22
 66
1
 10
0.0000
 20
0.0000
 30
0.0000
 40
0.0254
 41
0.0254
 70
0
  0
VERTEX
  8
22
 10
10.8006
 20
8.1901
 30
0.0000
 42
1.0000
  0
VERTEX
  8
22
 10
10.8113
 20
8.2131
 30
0.0000
  0
SEQEND
  8
0
  0
POLYLINE
  8
22
 66
1
 10
0.0000
 20
0.0000
 30
0.0000
 40
0.0508
 41
0.0508
 70
0
  0
VERTEX
  8
22
 10
10.9133
 20
8.4318
 30
0.0000
  0
VERTEX
  8
22
 10
8.6113
 20
9.5052
 30
0.0000
  0
SEQEND
  8
0
  0
POLYLINE
  8
22
 66
1
 10
0.0000
 20
0.0000
 30
0.0000
 40
0.0254
 41
0.0254
 70
0
  0
VERTEX
  8
22
 10
8.6166
 20
9.5167
 30
0.0000
 42
1.0000
  0
VERTEX
  8
22
 10
8.6059
 20
9.4937
 30
0.0000
  0
SEQEND
  8
0
  0
POLYLINE
  8
22
 66
1
 10
0.0000
 20
0.0000
 30
0.0000
 40
0.0254
 41
0.0254
 70
0
  0
VERTEX
  8
22
 10
10.9079
 20
8.4203
 30
0.0000
 42
1.0000
  0
VERTEX
  8
22
 10
10.9187
 20
8.4433
 30
0.0000
  0
SEQEND
  8
0
  0
POLYLINE
  8
22
 66
1
 10
0.0000
 20
0.0000
 30
0.0000
 40
0.0508
 41
0.0508
 70
0
  0
VERTEX
  8
22
 10
9.4700
 20
11.3468
 30
0.0000
  0
VERTEX
  8
22
 10
7.1680
 20
12.4203
 30
0.0000
  0
SEQEND
  8
0
  0
POLYLINE
  8
22
 66
1
 10
0.0000
 20
0.0000
 30
0.0000
 40
0.0254
 41
0.0254
 70
0
  0
VERTEX
  8
22
 10
7.1734
 20
12.4318
 30
0.0000
 42
1.0000
  0
VERTEX
  8
22
 10
7.1626
 20
12.4088
 30
0.0000
  0
SEQEND
  8
0
  0
POLYLINE
  8
22
 66
1
 10
0.0000
 20
0.0000
 30
0.0000
 40
0.0254
 41
0.0254
 70
0
  0
VERTEX
  8
22
 10
9.4647
 20
11.3353
 30
0.0000
 42
1.0000
  0
VERTEX
  8
22
 10
9.4754
 20
11.3584
 30
0.0000
  0
SEQEND
  8
0
  0
POLYLINE
  8
22
 66
1
 10
0.0000
 20
0.0000
 30
0.0000
 40
0.1524
 41
0.1524
 70
0
  0
VERTEX
  8
22
 10
8.5964
 20
7.9708
 30
0.0000
  0
VERTEX
  8
22
 10
5.8339
 20
9.2589
 30
0.0000
  0
SEQEND
  8
0
  0
POLYLINE
  8
22
 66
1
 10
0.0000
 20
0.0000
 30
0.0000
 40
0.0762
 41
0.0762
 70
0
  0
VERTEX
  8
22
 10
5.8500
 20
9.2934
 30
0.0000
 42
1.0000
  0
VERTEX
  8
22
 10
5.8178
 20
9.2244
 30
0.0000
  0
SEQEND
  8
0
  0
POLYLINE
  8
22
 66
1
 10
0.0000
 20
0.0000
 30
0.0000
 40
0.0762
 41
0.0762
 70
0
  0
VERTEX
  8
22
 10
8.5803
 20
7.9362
 30
0.0000
 42
1.0000
  0
VERTEX
  8
22
 10
8.6125
 20
8.0053
 30
0.0000
  0
SEQEND
  8
0
  0
POLYLINE
  8
22
 66
1
 10
0.0000
 20
0.0000
 30
0.0000
 40
0.1524
 41
0.1524
 70
0
  0
VERTEX
  8
22
 10
9.4849
 20
12.8813
 30
0.0000
  0
VERTEX
  8
22
 10
12.2473
 20
11.5932
 30
0.0000
  0
SEQEND
  8
0
  0
POLYLINE
  8
22
 66
1
 10
0.0000
 20
0.0000
 30
0.0000
 40
0.0762
 41
0.0762
 70
0
  0
VERTEX
  8
22
 10
12.2312
 20
11.5587
 30
0.0000
 42
1.0000
  0
VERTEX
  8
22
 10
12.2634
 20
11.6277
 30
0.0000
  0
SEQEND
  8
0
  0
POLYLINE
  8
22
 66
1
 10
0.0000
 20
0.0000
 30
0.0000
 40
0.0762
 41
0.0762
 70
0
  0
VERTEX
  8
22
 10
9.5010
 20
12.9159
 30
0.0000
 42
1.0000
  0
VERTEX
  8
22
 10
9.4688
 20
12.8468
 30
0.0000
  0
SEQEND
  8
0
  0
POLYLINE
  8
22
 66
1
 10
0.0000
 20
0.0000
 30
0.0000
 40
0.1524
 41
0.1524
 70
0
  0
VERTEX
  8
22
 10
9.4849
 20
12.8813
 30
0.0000
 42
0.4142
  0
VERTEX
  8
22
 10
8.6410
 20
12.5742
 30
0.0000
  0
SEQEND
  8
0
  0
POLYLINE
  8
22
 66
1
 10
0.0000
 20
0.0000
 30
0.0000
 40
0.0762
 41
0.0762
 70
0
  0
VERTEX
  8
22
 10
9.4688
 20
12.8468
 30
0.0000
 42
1.0000
  0
VERTEX
  8
22
 10
9.5010
 20
12.9159
 30
0.0000
  0
SEQEND
  8
0
  0
POLYLINE
  8
22
 66
1
 10
0.0000
 20
0.0000
 30
0.0000
 40
0.0762
 41
0.0762
 70
0
  0
VERTEX
  8
22
 10
8.6065
 20
12.5903
 30
0.0000
 42
1.0000
  0
VERTEX
  8
22
 10
8.6756
 20
12.5581
 30
0.0000
  0
SEQEND
  8
0
  0
POLYLINE
  8
22
 66
1
 10
0.0000
 20
0.0000
 30
0.0000
 40
0.1524
 41
0.1524
 70
0
  0
VERTEX
  8
22
 10
8.5964
 20
7.9708
 30
0.0000
 42
0.4142
  0
VERTEX
  8
22
 10
9.4402
 20
8.2779
 30
0.0000
  0
SEQEND
  8
0
  0
POLYLINE
  8
22
 66
1
 10
0.0000
 20
0.0000
 30
0.0000
 40
0.0762
 41
0.0762
 70
0
  0
VERTEX
  8
22
 10
8.6125
 20
8.0053
 30
0.0000
 42
1.0000
  0
VERTEX
  8
22
 10
8.5803
 20
7.9362
 30
0.0000
  0
SEQEND
  8
0
  0
POLYLINE
  8
22
 66
1
 10
0.0000
 20
0.0000
 30
0.0000
 40
0.0762
 41
0.0762
 70
0
  0
VERTEX
  8
22
 10
9.4748
 20
8.2618
 30
0.0000
 42
1.0000
  0
VERTEX
  8
22
 10
9.4057
 20
8.2940
 30
0.0000
  0
SEQEND
  8
0
  0
POLYLINE
  8
22
 66
1
 10
0.0000
 20
0.0000
 30
0.0000
 40
0.1524
 41
0.1524
 70
0
  0
VERTEX
  8
22
 10
11.8574
 20
7.1508
 30
0.0000
  0
VERTEX
  8
22
 10
6.9080
 20
9.4587
 30
0.0000
  0
SEQEND
  8
0
  0
POLYLINE
  8
22
 66
1
 10
0.0000
 20
0.0000
 30
0.0000
 40
0.0762
 41
0.0762
 70
0
  0
VERTEX
  8
22
 10
6.9241
 20
9.4932
 30
0.0000
 42
1.0000
  0
VERTEX
  8
22
 10
6.8919
 20
9.4242
 30
0.0000
  0
SEQEND
  8
0
  0
POLYLINE
  8
22
 66
1
 10
0.0000
 20
0.0000
 30
0.0000
 40
0.0762
 41
0.0762
 70
0
  0
VERTEX
  8
22
 10
11.8413
 20
7.1162
 30
0.0000
 42
1.0000
  0
VERTEX
  8
22
 10
11.8735
 20
7.1853
 30
0.0000
  0
SEQEND
  8
0
  0
POLYLINE
  8
22
 66
1
 10
0.0000
 20
0.0000
 30
0.0000
 40
0.1524
 41
0.1524
 70
0
  0
VERTEX
  8
22
 10
11.1733
 20
11.3934
 30
0.0000
  0
VERTEX
  8
22
 10
6.2239
 20
13.7013
 30
0.0000
  0
SEQEND
  8
0
  0
POLYLINE
  8
22
 66
1
 10
0.0000
 20
0.0000
 30
0.0000
 40
0.0762
 41
0.0762
 70
0
  0
VERTEX
  8
22
 10
6.2400
 20
13.7358
 30
0.0000
 42
1.0000
  0
VERTEX
  8
22
 10
6.2078
 20
13.6668
 30
0.0000
  0
SEQEND
  8
0
  0
POLYLINE
  8
22
 66
1
 10
0.0000
 20
0.0000
 30
0.0000
 40
0.0762
 41
0.0762
 70
0
  0
VERTEX
  8
22
 10
11.1572
 20
11.3589
 30
0.0000
 42
1.0000
  0
VERTEX
  8
22
 10
11.1894
 20
11.4279
 30
0.0000
  0
SEQEND
  8
0
  0
POLYLINE
  8
22
 66
1
 10
0.0000
 20
0.0000
 30
0.0000
 40
0.1524
 41
0.1524
 70
0
  0
VERTEX
  8
22
 10
11.8574
 20
7.1508
 30
0.0000
 42
0.4142
  0
VERTEX
  8
22
 10
12.7012
 20
7.4579
 30
0.0000
  0
SEQEND
  8
0
  0
POLYLINE
  8
22
 66
1
 10
0.0000
 20
0.0000
 30
0.0000
 40
0.0762
 41
0.0762
 70
0
  0
VERTEX
  8
22
 10
11.8735
 20
7.1853
 30
0.0000
 42
1.0000
  0
VERTEX
  8
22
 10
11.8413
 20
7.1162
 30
0.0000
  0
SEQEND
  8
0
  0
POLYLINE
  8
22
 66
1
 10
0.0000
 20
0.0000
 30
0.0000
 40
0.0762
 41
0.0762
 70
0
  0
VERTEX
  8
22
 10
12.7358
 20
7.4418
 30
0.0000
 42
1.0000
  0
VERTEX
  8
22
 10
12.6667
 20
7.4740
 30
0.0000
  0
SEQEND
  8
0
  0
POLYLINE
  8
22
 66
1
 10
0.0000
 20
0.0000
 30
0.0000
 40
0.1524
 41
0.1524
 70
0
  0
VERTEX
  8
22
 10
13.6673
 20
9.5297
 30
0.0000
 42
0.4142
  0
VERTEX
  8
22
 10
13.3602
 20
10.3736
 30
0.0000
  0
SEQEND
  8
0
  0
POLYLINE
  8
22
 66
1
 10
0.0000
 20
0.0000
 30
0.0000
 40
0.0762
 41
0.0762
 70
0
  0
VERTEX
  8
22
 10
13.6328
 20
9.5458
 30
0.0000
 42
1.0000
  0
VERTEX
  8
22
 10
13.7019
 20
9.5136
 30
0.0000
  0
SEQEND
  8
0
  0
POLYLINE
  8
22
 66
1
 10
0.0000
 20
0.0000
 30
0.0000
 40
0.0762
 41
0.0762
 70
0
  0
VERTEX
  8
22
 10
13.3763
 20
10.4081
 30
0.0000
 42
1.0000
  0
VERTEX
  8
22
 10
13.3441
 20
10.3391
 30
0.0000
  0
SEQEND
  8
0
  0
POLYLINE
  8
22
 66
1
 10
0.0000
 20
0.0000
 30
0.0000
 40
0.1524
 41
0.1524
 70
0
  0
VERTEX
  8
22
 10
6.2239
 20
13.7013
 30
0.0000
 42
0.4142
  0
VERTEX
  8
22
 10
5.3801
 20
13.3942
 30
0.0000
  0
SEQEND
  8
0
  0
POLYLINE
  8
22
 66
1
 10
0.0000
 20
0.0000
 30
0.0000
 40
0.0762
 41
0.0762
 70
0
  0
VERTEX
  8
22
 10
6.2078
 20
13.6668
 30
0.0000
 42
1.0000
  0
VERTEX
  8
22
 10
6.2400
 20
13.7358
 30
0.0000
  0
SEQEND
  8
0
  0
POLYLINE
  8
22
 66
1
 10
0.0000
 20
0.0000
 30
0.0000
 40
0.0762
 41
0.0762
 70
0
  0
VERTEX
  8
22
 10
5.3455
 20
13.4103
 30
0.0000
 42
1.0000
  0
VERTEX
  8
22
 10
5.4146
 20
13.3781
 30
0.0000
  0
SEQEND
  8
0
  0
POLYLINE
  8
22
 66
1
 10
0.0000
 20
0.0000
 30
0.0000
 40
0.1524
 41
0.1524
 70
0
  0
VERTEX
  8
22
 10
4.4139
 20
11.3223
 30
0.0000
 42
0.4142
  0
VERTEX
  8
22
 10
4.7211
 20
10.4785
 30
0.0000
  0
SEQEND
  8
0
  0
POLYLINE
  8
22
 66
1
 10
0.0000
 20
0.0000
 30
0.0000
 40
0.0762
 41
0.0762
 70
0
  0
VERTEX
  8
22
 10
4.4485
 20
11.3062
 30
0.0000
 42
1.0000
  0
VERTEX
  8
22
 10
4.3794
 20
11.3384
 30
0.0000
  0
SEQEND
  8
0
  0
POLYLINE
  8
22
 66
1
 10
0.0000
 20
0.0000
 30
0.0000
 40
0.0762
 41
0.0762
 70
0
  0
VERTEX
  8
22
 10
4.7050
 20
10.4439
 30
0.0000
 42
1.0000
  0
VERTEX
  8
22
 10
4.7372
 20
10.5130
 30
0.0000
  0
SEQEND
  8
0
  0
POLYLINE
  8
22
 66
1
 10
0.0000
 20
0.0000
 30
0.0000
 40
0.1524
 41
0.1524
 70
0
  0
VERTEX
  8
22
 10
13.6673
 20
9.5297
 30
0.0000
  0
VERTEX
  8
22
 10
12.7012
 20
7.4579
 30
0.0000
  0
SEQEND
  8
0
  0
POLYLINE
  8
22
 66
1
 10
0.0000
 20
0.0000
 30
0.0000
 40
0.0762
 41
0.0762
 70
0
  0
VERTEX
  8
22
 10
12.6667
 20
7.4740
 30
0.0000
 42
1.0000
  0
VERTEX
  8
22
 10
12.7358
 20
7.4418
 30
0.0000
  0
SEQEND
  8
0
  0
POLYLINE
  8
22
 66
1
 10
0.0000
 20
0.0000
 30
0.0000
 40
0.0762
 41
0.0762
 70
0
  0
VERTEX
  8
22
 10
13.7019
 20
9.5136
 30
0.0000
 42
1.0000
  0
VERTEX
  8
22
 10
13.6328
 20
9.5458
 30
0.0000
  0
SEQEND
  8
0
  0
POLYLINE
  8
22
 66
1
 10
0.0000
 20
0.0000
 30
0.0000
 40
0.1524
 41
0.1524
 70
0
  0
VERTEX
  8
22
 10
5.0664
 20
10.3175
 30
0.0000
  0
VERTEX
  8
22
 10
4.7211
 20
10.4785
 30
0.0000
  0
SEQEND
  8
0
  0
POLYLINE
  8
22
 66
1
 10
0.0000
 20
0.0000
 30
0.0000
 40
0.0762
 41
0.0762
 70
0
  0
VERTEX
  8
22
 10
4.7372
 20
10.5130
 30
0.0000
 42
1.0000
  0
VERTEX
  8
22
 10
4.7050
 20
10.4439
 30
0.0000
  0
SEQEND
  8
0
  0
POLYLINE
  8
22
 66
1
 10
0.0000
 20
0.0000
 30
0.0000
 40
0.0762
 41
0.0762
 70
0
  0
VERTEX
  8
22
 10
5.0503
 20
10.2829
 30
0.0000
 42
1.0000
  0
VERTEX
  8
22
 10
5.0825
 20
10.3520
 30
0.0000
  0
SEQEND
  8
0
  0
POLYLINE
  8
22
 66
1
 10
0.0000
 20
0.0000
 30
0.0000
 40
0.1524
 41
0.1524
 70
0
  0
VERTEX
  8
22
 10
13.3602
 20
10.3736
 30
0.0000
  0
VERTEX
  8
22
 10
13.0149
 20
10.5346
 30
0.0000
  0
SEQEND
  8
0
  0
POLYLINE
  8
22
 66
1
 10
0.0000
 20
0.0000
 30
0.0000
 40
0.0762
 41
0.0762
 70
0
  0
VERTEX
  8
22
 10
13.0310
 20
10.5692
 30
0.0000
 42
1.0000
  0
VERTEX
  8
22
 10
12.9988
 20
10.5001
 30
0.0000
  0
SEQEND
  8
0
  0
POLYLINE
  8
22
 66
1
 10
0.0000
 20
0.0000
 30
0.0000
 40
0.0762
 41
0.0762
 70
0
  0
VERTEX
  8
22
 10
13.3441
 20
10.3391
 30
0.0000
 42
1.0000
  0
VERTEX
  8
22
 10
13.3763
 20
10.4081
 30
0.0000
  0
SEQEND
  8
0
  0
POLYLINE
  8
22
 66
1
 10
0.0000
 20
0.0000
 30
0.0000
 40
0.1270
 41
0.1270
 70
0
  0
VERTEX
  8
22
 10
35.2968
 20
40.0640
 30
0.0000
  0
VERTEX
  8
22
 10
37.7968
 20
40.0640
 30
0.0000
  0
SEQEND
  8
0
  0
POLYLINE
  8
22
 66
1
 10
0.0000
 20
0.0000
 30
0.0000
 40
0.0635
 41
0.0635
 70
0
  0
VERTEX
  8
22
 10
37.7968
 20
40.0323
 30
0.0000
 42
1.0000
  0
VERTEX
  8
22
 10
37.7968
 20
40.0958
 30
0.0000
  0
SEQEND
  8
0
  0
POLYLINE
  8
22
 66
1
 10
0.0000
 20
0.0000
 30
0.0000
 40
0.0635
 41
0.0635
 70
0
  0
VERTEX
  8
22
 10
35.2968
 20
40.0958
 30
0.0000
 42
1.0000
  0
VERTEX
  8
22
 10
35.2968
 20
40.0323
 30
0.0000
  0
SEQEND
  8
0
  0
POLYLINE
  8
22
 66
1
 10
0.0000
 20
0.0000
 30
0.0000
 40
0.1270
 41
0.1270
 70
0
  0
VERTEX
  8
22
 10
37.7968
 20
40.0640
 30
0.0000
  0
VERTEX
  8
22
 10
37.7968
 20
37.0640
 30
0.0000
  0
SEQEND
  8
0
  0
POLYLINE
  8
22
 66
1
 10
0.0000
 20
0.0000
 30
0.0000
 40
0.0635
 41
0.0635
 70
0
  0
VERTEX
  8
22
 10
37.7651
 20
37.0640
 30
0.0000
 42
1.0000
  0
VERTEX
  8
22
 10
37.8286
 20
37.0640
 30
0.0000
  0
SEQEND
  8
0
  0
POLYLINE
  8
22
 66
1
 10
0.0000
 20
0.0000
 30
0.0000
 40
0.0635
 41
0.0635
 70
0
  0
VERTEX
  8
22
 10
37.8286
 20
40.0640
 30
0.0000
 42
1.0000
  0
VERTEX
  8
22
 10
37.7651
 20
40.0640
 30
0.0000
  0
SEQEND
  8
0
  0
POLYLINE
  8
22
 66
1
 10
0.0000
 20
0.0000
 30
0.0000
 40
0.1270
 41
0.1270
 70
0
  0
VERTEX
  8
22
 10
37.7968
 20
37.0640
 30
0.0000
  0
VERTEX
  8
22
 10
35.2968
 20
37.0640
 30
0.0000
  0
SEQEND
  8
0
  0
POLYLINE
  8
22
 66
1
 10
0.0000
 20
0.0000
 30
0.0000
 40
0.0635
 41
0.0635
 70
0
  0
VERTEX
  8
22
 10
35.2968
 20
37.0958
 30
0.0000
 42
1.0000
  0
VERTEX
  8
22
 10
35.2968
 20
37.0323
 30
0.0000
  0
SEQEND
  8
0
  0
POLYLINE
  8
22
 66
1
 10
0.0000
 20
0.0000
 30
0.0000
 40
0.0635
 41
0.0635
 70
0
  0
VERTEX
  8
22
 10
37.7968
 20
37.0323
 30
0.0000
 42
1.0000
  0
VERTEX
  8
22
 10
37.7968
 20
37.0958
 30
0.0000
  0
SEQEND
  8
0
  0
POLYLINE
  8
22
 66
1
 10
0.0000
 20
0.0000
 30
0.0000
 40
0.1270
 41
0.1270
 70
0
  0
VERTEX
  8
22
 10
35.2968
 20
37.0640
 30
0.0000
  0
VERTEX
  8
22
 10
35.2968
 20
40.0640
 30
0.0000
  0
SEQEND
  8
0
  0
POLYLINE
  8
22
 66
1
 10
0.0000
 20
0.0000
 30
0.0000
 40
0.0635
 41
0.0635
 70
0
  0
VERTEX
  8
22
 10
35.3286
 20
40.0640
 30
0.0000
 42
1.0000
  0
VERTEX
  8
22
 10
35.2651
 20
40.0640
 30
0.0000
  0
SEQEND
  8
0
  0
POLYLINE
  8
22
 66
1
 10
0.0000
 20
0.0000
 30
0.0000
 40
0.0635
 41
0.0635
 70
0
  0
VERTEX
  8
22
 10
35.2651
 20
37.0640
 30
0.0000
 42
1.0000
  0
VERTEX
  8
22
 10
35.3286
 20
37.0640
 30
0.0000
  0
SEQEND
  8
0
  0
POLYLINE
  8
22
 66
1
 10
0.0000
 20
0.0000
 30
0.0000
 40
0.1270
 41
0.1270
 70
0
  0
VERTEX
  8
22
 10
10.7284
 20
12.1980
 30
0.0000
  0
VERTEX
  8
22
 10
20.7284
 20
12.1980
 30
0.0000
  0
SEQEND
  8
0
  0
POLYLINE
  8
22
 66
1
 10
0.0000
 20
0.0000
 30
0.0000
 40
0.0635
 41
0.0635
 70
0
  0
VERTEX
  8
22
 10
20.7284
 20
12.1662
 30
0.0000
 42
1.0000
  0
VERTEX
  8
22
 10
20.7284
 20
12.2297
 30
0.0000
  0
SEQEND
  8
0
  0
POLYLINE
  8
22
 66
1
 10
0.0000
 20
0.0000
 30
0.0000
 40
0.0635
 41
0.0635
 70
0
  0
VERTEX
  8
22
 10
10.7284
 20
12.2297
 30
0.0000
 42
1.0000
  0
VERTEX
  8
22
 10
10.7284
 20
12.1662
 30
0.0000
  0
SEQEND
  8
0
  0
POLYLINE
  8
22
 66
1
 10
0.0000
 20
0.0000
 30
0.0000
 40
0.1270
 41
0.1270
 70
0
  0
VERTEX
  8
22
 10
20.7284
 20
12.1980
 30
0.0000
  0
VERTEX
  8
22
 10
20.7284
 20
46.1980
 30
0.0000
  0
SEQEND
  8
0
  0
POLYLINE
  8
22
 66
1
 10
0.0000
 20
0.0000
 30
0.0000
 40
0.0635
 41
0.0635
 70
0
  0
VERTEX
  8
22
 10
20.7602
 20
46.1980
 30
0.0000
 42
1.0000
  0
VERTEX
  8
22
 10
20.6967
 20
46.1980
 30
0.0000
  0
SEQEND
  8
0
  0
POLYLINE
  8
22
 66
1
 10
0.0000
 20
0.0000
 30
0.0000
 40
0.0635
 41
0.0635
 70
0
  0
VERTEX
  8
22
 10
20.6967
 20
12.1980
 30
0.0000
 42
1.0000
  0
VERTEX
  8
22
 10
20.7602
 20
12.1980
 30
0.0000
  0
SEQEND
  8
0
  0
POLYLINE
  8
22
 66
1
 10
0.0000
 20
0.0000
 30
0.0000
 40
0.1270
 41
0.1270
 70
0
  0
VERTEX
  8
22
 10
20.7284
 20
46.1980
 30
0.0000
  0
VERTEX
  8
22
 10
0.7284
 20
46.1980
 30
0.0000
  0
SEQEND
  8
0
  0
POLYLINE
  8
22
 66
1
 10
0.0000
 20
0.0000
 30
0.0000
 40
0.0635
 41
0.0635
 70
0
  0
VERTEX
  8
22
 10
0.7284
 20
46.2297
 30
0.0000
 42
1.0000
  0
VERTEX
  8
22
 10
0.7284
 20
46.1662
 30
0.0000
  0
SEQEND
  8
0
  0
POLYLINE
  8
22
 66
1
 10
0.0000
 20
0.0000
 30
0.0000
 40
0.0635
 41
0.0635
 70
0
  0
VERTEX
  8
22
 10
20.7284
 20
46.1662
 30
0.0000
 42
1.0000
  0
VERTEX
  8
22
 10
20.7284
 20
46.2297
 30
0.0000
  0
SEQEND
  8
0
  0
POLYLINE
  8
22
 66
1
 10
0.0000
 20
0.0000
 30
0.0000
 40
0.1270
 41
0.1270
 70
0
  0
VERTEX
  8
22
 10
0.7284
 20
46.1980
 30
0.0000
  0
VERTEX
  8
22
 10
0.7284
 20
12.1980
 30
0.0000
  0
SEQEND
  8
0
  0
POLYLINE
  8
22
 66
1
 10
0.0000
 20
0.0000
 30
0.0000
 40
0.0635
 41
0.0635
 70
0
  0
VERTEX
  8
22
 10
0.6967
 20
12.1980
 30
0.0000
 42
1.0000
  0
VERTEX
  8
22
 10
0.7602
 20
12.1980
 30
0.0000
  0
SEQEND
  8
0
  0
POLYLINE
  8
22
 66
1
 10
0.0000
 20
0.0000
 30
0.0000
 40
0.0635
 41
0.0635
 70
0
  0
VERTEX
  8
22
 10
0.7602
 20
46.1980
 30
0.0000
 42
1.0000
  0
VERTEX
  8
22
 10
0.6967
 20
46.1980
 30
0.0000
  0
SEQEND
  8
0
  0
POLYLINE
  8
22
 66
1
 10
0.0000
 20
0.0000
 30
0.0000
 40
0.1270
 41
0.1270
 70
0
  0
VERTEX
  8
22
 10
0.7284
 20
12.1980
 30
0.0000
  0
VERTEX
  8
22
 10
10.7284
 20
12.1980
 30
0.0000
  0
SEQEND
  8
0
  0
POLYLINE
  8
22
 66
1
 10
0.0000
 20
0.0000
 30
0.0000
 40
0.0635
 41
0.0635
 70
0
  0
VERTEX
  8
22
 10
10.7284
 20
12.1662
 30
0.0000
 42
1.0000
  0
VERTEX
  8
22
 10
10.7284
 20
12.2297
 30
0.0000
  0
SEQEND
  8
0
  0
POLYLINE
  8
22
 66
1
 10
0.0000
 20
0.0000
 30
0.0000
 40
0.0635
 41
0.0635
 70
0
  0
VERTEX
  8
22
 10
0.7284
 20
12.2297
 30
0.0000
 42
1.0000
  0
VERTEX
  8
22
 10
0.7284
 20
12.1662
 30
0.0000
  0
SEQEND
  8
0
  0
POLYLINE
  8
22
 66
1
 10
0.0000
 20
0.0000
 30
0.0000
 40
0.1016
 41
0.1016
 70
0
  0
VERTEX
  8
22
 10
1.3442
 20
13.1396
 30
0.0000
  0
VERTEX
  8
22
 10
2.5126
 20
13.1396
 30
0.0000
  0
SEQEND
  8
0
  0
POLYLINE
  8
22
 66
1
 10
0.0000
 20
0.0000
 30
0.0000
 40
0.0508
 41
0.0508
 70
0
  0
VERTEX
  8
22
 10
2.5126
 20
13.1142
 30
0.0000
 42
1.0000
  0
VERTEX
  8
22
 10
2.5126
 20
13.1650
 30
0.0000
  0
SEQEND
  8
0
  0
POLYLINE
  8
22
 66
1
 10
0.0000
 20
0.0000
 30
0.0000
 40
0.0508
 41
0.0508
 70
0
  0
VERTEX
  8
22
 10
1.3442
 20
13.1650
 30
0.0000
 42
1.0000
  0
VERTEX
  8
22
 10
1.3442
 20
13.1142
 30
0.0000
  0
SEQEND
  8
0
  0
POLYLINE
  8
22
 66
1
 10
0.0000
 20
0.0000
 30
0.0000
 40
0.1016
 41
0.1016
 70
0
  0
VERTEX
  8
22
 10
1.9933
 20
13.1396
 30
0.0000
  0
VERTEX
  8
22
 10
1.9933
 20
13.7887
 30
0.0000
  0
SEQEND
  8
0
  0
POLYLINE
  8
22
 66
1
 10
0.0000
 20
0.0000
 30
0.0000
 40
0.0508
 41
0.0508
 70
0
  0
VERTEX
  8
22
 10
2.0187
 20
13.7887
 30
0.0000
 42
1.0000
  0
VERTEX
  8
22
 10
1.9679
 20
13.7887
 30
0.0000
  0
SEQEND
  8
0
  0
POLYLINE
  8
22
 66
1
 10
0.0000
 20
0.0000
 30
0.0000
 40
0.0508
 41
0.0508
 70
0
  0
VERTEX
  8
22
 10
1.9679
 20
13.1396
 30
0.0000
 42
1.0000
  0
VERTEX
  8
22
 10
2.0187
 20
13.1396
 30
0.0000
  0
SEQEND
  8
0
  0
POLYLINE
  8
22
 66
1
 10
0.0000
 20
0.0000
 30
0.0000
 40
0.1016
 41
0.1016
 70
0
  0
VERTEX
  8
22
 10
2.5126
 20
13.7887
 30
0.0000
  0
VERTEX
  8
22
 10
1.3442
 20
13.7887
 30
0.0000
  0
SEQEND
  8
0
  0
POLYLINE
  8
22
 66
1
 10
0.0000
 20
0.0000
 30
0.0000
 40
0.0508
 41
0.0508
 70
0
  0
VERTEX
  8
22
 10
1.3442
 20
13.8141
 30
0.0000
 42
1.0000
  0
VERTEX
  8
22
 10
1.3442
 20
13.7633
 30
0.0000
  0
SEQEND
  8
0
  0
POLYLINE
  8
22
 66
1
 10
0.0000
 20
0.0000
 30
0.0000
 40
0.0508
 41
0.0508
 70
0
  0
VERTEX
  8
22
 10
2.5126
 20
13.7633
 30
0.0000
 42
1.0000
  0
VERTEX
  8
22
 10
2.5126
 20
13.8141
 30
0.0000
  0
SEQEND
  8
0
  0
POLYLINE
  8
22
 66
1
 10
0.0000
 20
0.0000
 30
0.0000
 40
0.1016
 41
0.1016
 70
0
  0
VERTEX
  8
22
 10
2.5126
 20
14.3610
 30
0.0000
  0
VERTEX
  8
22
 10
1.3442
 20
14.3610
 30
0.0000
  0
SEQEND
  8
0
  0
POLYLINE
  8
22
 66
1
 10
0.0000
 20
0.0000
 30
0.0000
 40
0.0508
 41
0.0508
 70
0
  0
VERTEX
  8
22
 10
1.3442
 20
14.3864
 30
0.0000
 42
1.0000
  0
VERTEX
  8
22
 10
1.3442
 20
14.3356
 30
0.0000
  0
SEQEND
  8
0
  0
POLYLINE
  8
22
 66
1
 10
0.0000
 20
0.0000
 30
0.0000
 40
0.0508
 41
0.0508
 70
0
  0
VERTEX
  8
22
 10
2.5126
 20
14.3356
 30
0.0000
 42
1.0000
  0
VERTEX
  8
22
 10
2.5126
 20
14.3864
 30
0.0000
  0
SEQEND
  8
0
  0
POLYLINE
  8
22
 66
1
 10
0.0000
 20
0.0000
 30
0.0000
 40
0.1016
 41
0.1016
 70
0
  0
VERTEX
  8
22
 10
1.3442
 20
14.3610
 30
0.0000
  0
VERTEX
  8
22
 10
1.3442
 20
14.8803
 30
0.0000
  0
SEQEND
  8
0
  0
POLYLINE
  8
22
 66
1
 10
0.0000
 20
0.0000
 30
0.0000
 40
0.0508
 41
0.0508
 70
0
  0
VERTEX
  8
22
 10
1.3696
 20
14.8803
 30
0.0000
 42
1.0000
  0
VERTEX
  8
22
 10
1.3188
 20
14.8803
 30
0.0000
  0
SEQEND
  8
0
  0
POLYLINE
  8
22
 66
1
 10
0.0000
 20
0.0000
 30
0.0000
 40
0.0508
 41
0.0508
 70
0
  0
VERTEX
  8
22
 10
1.3188
 20
14.3610
 30
0.0000
 42
1.0000
  0
VERTEX
  8
22
 10
1.3696
 20
14.3610
 30
0.0000
  0
SEQEND
  8
0
  0
POLYLINE
  8
22
 66
1
 10
0.0000
 20
0.0000
 30
0.0000
 40
0.1016
 41
0.1016
 70
0
  0
VERTEX
  8
22
 10
1.3442
 20
15.3663
 30
0.0000
  0
VERTEX
  8
22
 10
2.5126
 20
15.3663
 30
0.0000
  0
SEQEND
  8
0
  0
POLYLINE
  8
22
 66
1
 10
0.0000
 20
0.0000
 30
0.0000
 40
0.0508
 41
0.0508
 70
0
  0
VERTEX
  8
22
 10
2.5126
 20
15.3409
 30
0.0000
 42
1.0000
  0
VERTEX
  8
22
 10
2.5126
 20
15.3917
 30
0.0000
  0
SEQEND
  8
0
  0
POLYLINE
  8
22
 66
1
 10
0.0000
 20
0.0000
 30
0.0000
 40
0.0508
 41
0.0508
 70
0
  0
VERTEX
  8
22
 10
1.3442
 20
15.3917
 30
0.0000
 42
1.0000
  0
VERTEX
  8
22
 10
1.3442
 20
15.3409
 30
0.0000
  0
SEQEND
  8
0
  0
POLYLINE
  8
22
 66
1
 10
0.0000
 20
0.0000
 30
0.0000
 40
0.1016
 41
0.1016
 70
0
  0
VERTEX
  8
22
 10
2.5126
 20
16.0154
 30
0.0000
  0
VERTEX
  8
22
 10
1.7986
 20
15.3663
 30
0.0000
  0
SEQEND
  8
0
  0
POLYLINE
  8
22
 66
1
 10
0.0000
 20
0.0000
 30
0.0000
 40
0.0508
 41
0.0508
 70
0
  0
VERTEX
  8
22
 10
1.7815
 20
15.3851
 30
0.0000
 42
1.0000
  0
VERTEX
  8
22
 10
1.8157
 20
15.3475
 30
0.0000
  0
SEQEND
  8
0
  0
POLYLINE
  8
22
 66
1
 10
0.0000
 20
0.0000
 30
0.0000
 40
0.0508
 41
0.0508
 70
0
  0
VERTEX
  8
22
 10
2.5297
 20
15.9966
 30
0.0000
 42
1.0000
  0
VERTEX
  8
22
 10
2.4955
 20
16.0342
 30
0.0000
  0
SEQEND
  8
0
  0
POLYLINE
  8
22
 66
1
 10
0.0000
 20
0.0000
 30
0.0000
 40
0.1016
 41
0.1016
 70
0
  0
VERTEX
  8
22
 10
1.3442
 20
16.0154
 30
0.0000
  0
VERTEX
  8
22
 10
2.0583
 20
15.6259
 30
0.0000
  0
SEQEND
  8
0
  0
POLYLINE
  8
22
 66
1
 10
0.0000
 20
0.0000
 30
0.0000
 40
0.0508
 41
0.0508
 70
0
  0
VERTEX
  8
22
 10
2.0461
 20
15.6036
 30
0.0000
 42
1.0000
  0
VERTEX
  8
22
 10
2.0704
 20
15.6482
 30
0.0000
  0
SEQEND
  8
0
  0
POLYLINE
  8
22
 66
1
 10
0.0000
 20
0.0000
 30
0.0000
 40
0.0508
 41
0.0508
 70
0
  0
VERTEX
  8
22
 10
1.3564
 20
16.0377
 30
0.0000
 42
1.0000
  0
VERTEX
  8
22
 10
1.3321
 20
15.9931
 30
0.0000
  0
SEQEND
  8
0
  0
POLYLINE
  8
22
 66
1
 10
0.0000
 20
0.0000
 30
0.0000
 40
0.1016
 41
0.1016
 70
0
  0
VERTEX
  8
22
 10
1.7986
 20
16.4655
 30
0.0000
  0
VERTEX
  8
22
 10
1.7986
 20
17.2445
 30
0.0000
  0
SEQEND
  8
0
  0
POLYLINE
  8
22
 66
1
 10
0.0000
 20
0.0000
 30
0.0000
 40
0.0508
 41
0.0508
 70
0
  0
VERTEX
  8
22
 10
1.8240
 20
17.2445
 30
0.0000
 42
1.0000
  0
VERTEX
  8
22
 10
1.7732
 20
17.2445
 30
0.0000
  0
SEQEND
  8
0
  0
POLYLINE
  8
22
 66
1
 10
0.0000
 20
0.0000
 30
0.0000
 40
0.0508
 41
0.0508
 70
0
  0
VERTEX
  8
22
 10
1.7732
 20
16.4655
 30
0.0000
 42
1.0000
  0
VERTEX
  8
22
 10
1.8240
 20
16.4655
 30
0.0000
  0
SEQEND
  8
0
  0
POLYLINE
  8
22
 66
1
 10
0.0000
 20
0.0000
 30
0.0000
 40
0.1016
 41
0.1016
 70
0
  0
VERTEX
  8
22
 10
1.3442
 20
17.8047
 30
0.0000
  0
VERTEX
  8
22
 10
2.5126
 20
17.8047
 30
0.0000
  0
SEQEND
  8
0
  0
POLYLINE
  8
22
 66
1
 10
0.0000
 20
0.0000
 30
0.0000
 40
0.0508
 41
0.0508
 70
0
  0
VERTEX
  8
22
 10
2.5126
 20
17.7793
 30
0.0000
 42
1.0000
  0
VERTEX
  8
22
 10
2.5126
 20
17.8301
 30
0.0000
  0
SEQEND
  8
0
  0
POLYLINE
  8
22
 66
1
 10
0.0000
 20
0.0000
 30
0.0000
 40
0.0508
 41
0.0508
 70
0
  0
VERTEX
  8
22
 10
1.3442
 20
17.8301
 30
0.0000
 42
1.0000
  0
VERTEX
  8
22
 10
1.3442
 20
17.7793
 30
0.0000
  0
SEQEND
  8
0
  0
POLYLINE
  8
22
 66
1
 10
0.0000
 20
0.0000
 30
0.0000
 40
0.1016
 41
0.1016
 70
0
  0
VERTEX
  8
22
 10
2.5126
 20
17.8047
 30
0.0000
  0
VERTEX
  8
22
 10
2.5126
 20
18.1292
 30
0.0000
  0
SEQEND
  8
0
  0
POLYLINE
  8
22
 66
1
 10
0.0000
 20
0.0000
 30
0.0000
 40
0.0508
 41
0.0508
 70
0
  0
VERTEX
  8
22
 10
2.5380
 20
18.1292
 30
0.0000
 42
1.0000
  0
VERTEX
  8
22
 10
2.4872
 20
18.1292
 30
0.0000
  0
SEQEND
  8
0
  0
POLYLINE
  8
22
 66
1
 10
0.0000
 20
0.0000
 30
0.0000
 40
0.0508
 41
0.0508
 70
0
  0
VERTEX
  8
22
 10
2.4872
 20
17.8047
 30
0.0000
 42
1.0000
  0
VERTEX
  8
22
 10
2.5380
 20
17.8047
 30
0.0000
  0
SEQEND
  8
0
  0
POLYLINE
  8
22
 66
1
 10
0.0000
 20
0.0000
 30
0.0000
 40
0.1016
 41
0.1016
 70
0
  0
VERTEX
  8
22
 10
2.5126
 20
18.1292
 30
0.0000
 42
1.0000
  0
VERTEX
  8
22
 10
1.8635
 20
18.1292
 30
0.0000
  0
SEQEND
  8
0
  0
POLYLINE
  8
22
 66
1
 10
0.0000
 20
0.0000
 30
0.0000
 40
0.0508
 41
0.0508
 70
0
  0
VERTEX
  8
22
 10
2.4872
 20
18.1292
 30
0.0000
 42
1.0000
  0
VERTEX
  8
22
 10
2.5380
 20
18.1292
 30
0.0000
  0
SEQEND
  8
0
  0
POLYLINE
  8
22
 66
1
 10
0.0000
 20
0.0000
 30
0.0000
 40
0.0508
 41
0.0508
 70
0
  0
VERTEX
  8
22
 10
1.8381
 20
18.1292
 30
0.0000
 42
1.0000
  0
VERTEX
  8
22
 10
1.8889
 20
18.1292
 30
0.0000
  0
SEQEND
  8
0
  0
POLYLINE
  8
22
 66
1
 10
0.0000
 20
0.0000
 30
0.0000
 40
0.1016
 41
0.1016
 70
0
  0
VERTEX
  8
22
 10
1.8635
 20
18.1292
 30
0.0000
  0
VERTEX
  8
22
 10
1.8635
 20
17.8047
 30
0.0000
  0
SEQEND
  8
0
  0
POLYLINE
  8
22
 66
1
 10
0.0000
 20
0.0000
 30
0.0000
 40
0.0508
 41
0.0508
 70
0
  0
VERTEX
  8
22
 10
1.8381
 20
17.8047
 30
0.0000
 42
1.0000
  0
VERTEX
  8
22
 10
1.8889
 20
17.8047
 30
0.0000
  0
SEQEND
  8
0
  0
POLYLINE
  8
22
 66
1
 10
0.0000
 20
0.0000
 30
0.0000
 40
0.0508
 41
0.0508
 70
0
  0
VERTEX
  8
22
 10
1.8889
 20
18.1292
 30
0.0000
 42
1.0000
  0
VERTEX
  8
22
 10
1.8381
 20
18.1292
 30
0.0000
  0
SEQEND
  8
0
  0
POLYLINE
  8
22
 66
1
 10
0.0000
 20
0.0000
 30
0.0000
 40
0.1016
 41
0.1016
 70
0
  0
VERTEX
  8
22
 10
1.3442
 20
18.9420
 30
0.0000
  0
VERTEX
  8
22
 10
2.5126
 20
18.9420
 30
0.0000
  0
SEQEND
  8
0
  0
POLYLINE
  8
22
 66
1
 10
0.0000
 20
0.0000
 30
0.0000
 40
0.0508
 41
0.0508
 70
0
  0
VERTEX
  8
22
 10
2.5126
 20
18.9166
 30
0.0000
 42
1.0000
  0
VERTEX
  8
22
 10
2.5126
 20
18.9674
 30
0.0000
  0
SEQEND
  8
0
  0
POLYLINE
  8
22
 66
1
 10
0.0000
 20
0.0000
 30
0.0000
 40
0.0508
 41
0.0508
 70
0
  0
VERTEX
  8
22
 10
1.3442
 20
18.9674
 30
0.0000
 42
1.0000
  0
VERTEX
  8
22
 10
1.3442
 20
18.9166
 30
0.0000
  0
SEQEND
  8
0
  0
POLYLINE
  8
22
 66
1
 10
0.0000
 20
0.0000
 30
0.0000
 40
0.1016
 41
0.1016
 70
0
  0
VERTEX
  8
22
 10
2.5126
 20
18.9420
 30
0.0000
  0
VERTEX
  8
22
 10
1.8635
 20
19.3315
 30
0.0000
  0
SEQEND
  8
0
  0
POLYLINE
  8
22
 66
1
 10
0.0000
 20
0.0000
 30
0.0000
 40
0.0508
 41
0.0508
 70
0
  0
VERTEX
  8
22
 10
1.8766
 20
19.3533
 30
0.0000
 42
1.0000
  0
VERTEX
  8
22
 10
1.8505
 20
19.3097
 30
0.0000
  0
SEQEND
  8
0
  0
POLYLINE
  8
22
 66
1
 10
0.0000
 20
0.0000
 30
0.0000
 40
0.0508
 41
0.0508
 70
0
  0
VERTEX
  8
22
 10
2.4996
 20
18.9203
 30
0.0000
 42
1.0000
  0
VERTEX
  8
22
 10
2.5257
 20
18.9638
 30
0.0000
  0
SEQEND
  8
0
  0
POLYLINE
  8
22
 66
1
 10
0.0000
 20
0.0000
 30
0.0000
 40
0.1016
 41
0.1016
 70
0
  0
VERTEX
  8
22
 10
1.8635
 20
19.3315
 30
0.0000
  0
VERTEX
  8
22
 10
2.5126
 20
19.7210
 30
0.0000
  0
SEQEND
  8
0
  0
POLYLINE
  8
22
 66
1
 10
0.0000
 20
0.0000
 30
0.0000
 40
0.0508
 41
0.0508
 70
0
  0
VERTEX
  8
22
 10
2.5257
 20
19.6992
 30
0.0000
 42
1.0000
  0
VERTEX
  8
22
 10
2.4996
 20
19.7427
 30
0.0000
  0
SEQEND
  8
0
  0
POLYLINE
  8
22
 66
1
 10
0.0000
 20
0.0000
 30
0.0000
 40
0.0508
 41
0.0508
 70
0
  0
VERTEX
  8
22
 10
1.8505
 20
19.3533
 30
0.0000
 42
1.0000
  0
VERTEX
  8
22
 10
1.8766
 20
19.3097
 30
0.0000
  0
SEQEND
  8
0
  0
POLYLINE
  8
22
 66
1
 10
0.0000
 20
0.0000
 30
0.0000
 40
0.1016
 41
0.1016
 70
0
  0
VERTEX
  8
22
 10
2.5126
 20
19.7210
 30
0.0000
  0
VERTEX
  8
22
 10
1.3442
 20
19.7210
 30
0.0000
  0
SEQEND
  8
0
  0
POLYLINE
  8
22
 66
1
 10
0.0000
 20
0.0000
 30
0.0000
 40
0.0508
 41
0.0508
 70
0
  0
VERTEX
  8
22
 10
1.3442
 20
19.7464
 30
0.0000
 42
1.0000
  0
VERTEX
  8
22
 10
1.3442
 20
19.6956
 30
0.0000
  0
SEQEND
  8
0
  0
POLYLINE
  8
22
 66
1
 10
0.0000
 20
0.0000
 30
0.0000
 40
0.0508
 41
0.0508
 70
0
  0
VERTEX
  8
22
 10
2.5126
 20
19.6956
 30
0.0000
 42
1.0000
  0
VERTEX
  8
22
 10
2.5126
 20
19.7464
 30
0.0000
  0
SEQEND
  8
0
  0
POLYLINE
  8
22
 66
1
 10
0.0000
 20
0.0000
 30
0.0000
 40
0.1016
 41
0.1016
 70
0
  0
VERTEX
  8
22
 10
1.9284
 20
20.2642
 30
0.0000
 42
0.1139
  0
VERTEX
  8
22
 10
2.3504
 20
20.3616
 30
0.0000
  0
SEQEND
  8
0
  0
POLYLINE
  8
22
 66
1
 10
0.0000
 20
0.0000
 30
0.0000
 40
0.0508
 41
0.0508
 70
0
  0
VERTEX
  8
22
 10
1.9284
 20
20.2896
 30
0.0000
 42
1.0000
  0
VERTEX
  8
22
 10
1.9284
 20
20.2388
 30
0.0000
  0
SEQEND
  8
0
  0
POLYLINE
  8
22
 66
1
 10
0.0000
 20
0.0000
 30
0.0000
 40
0.0508
 41
0.0508
 70
0
  0
VERTEX
  8
22
 10
2.3615
 20
20.3388
 30
0.0000
 42
1.0000
  0
VERTEX
  8
22
 10
2.3392
 20
20.3844
 30
0.0000
  0
SEQEND
  8
0
  0
POLYLINE
  8
22
 66
1
 10
0.0000
 20
0.0000
 30
0.0000
 40
0.1016
 41
0.1016
 70
0
  0
VERTEX
  8
22
 10
2.3504
 20
20.3616
 30
0.0000
 42
0.3205
  0
VERTEX
  8
22
 10
2.5126
 20
20.5888
 30
0.0000
  0
SEQEND
  8
0
  0
POLYLINE
  8
22
 66
1
 10
0.0000
 20
0.0000
 30
0.0000
 40
0.0508
 41
0.0508
 70
0
  0
VERTEX
  8
22
 10
2.3421
 20
20.3856
 30
0.0000
 42
1.0000
  0
VERTEX
  8
22
 10
2.3586
 20
20.3376
 30
0.0000
  0
SEQEND
  8
0
  0
POLYLINE
  8
22
 66
1
 10
0.0000
 20
0.0000
 30
0.0000
 40
0.0508
 41
0.0508
 70
0
  0
VERTEX
  8
22
 10
2.5380
 20
20.5888
 30
0.0000
 42
1.0000
  0
VERTEX
  8
22
 10
2.4872
 20
20.5888
 30
0.0000
  0
SEQEND
  8
0
  0
POLYLINE
  8
22
 66
1
 10
0.0000
 20
0.0000
 30
0.0000
 40
0.1016
 41
0.1016
 70
0
  0
VERTEX
  8
22
 10
2.5126
 20
20.5888
 30
0.0000
 42
0.3205
  0
VERTEX
  8
22
 10
2.3504
 20
20.8160
 30
0.0000
  0
SEQEND
  8
0
  0
POLYLINE
  8
22
 66
1
 10
0.0000
 20
0.0000
 30
0.0000
 40
0.0508
 41
0.0508
 70
0
  0
VERTEX
  8
22
 10
2.4872
 20
20.5888
 30
0.0000
 42
1.0000
  0
VERTEX
  8
22
 10
2.5380
 20
20.5888
 30
0.0000
  0
SEQEND
  8
0
  0
POLYLINE
  8
22
 66
1
 10
0.0000
 20
0.0000
 30
0.0000
 40
0.0508
 41
0.0508
 70
0
  0
VERTEX
  8
22
 10
2.3586
 20
20.8400
 30
0.0000
 42
1.0000
  0
VERTEX
  8
22
 10
2.3421
 20
20.7920
 30
0.0000
  0
SEQEND
  8
0
  0
POLYLINE
  8
22
 66
1
 10
0.0000
 20
0.0000
 30
0.0000
 40
0.1016
 41
0.1016
 70
0
  0
VERTEX
  8
22
 10
2.3504
 20
20.8160
 30
0.0000
 42
0.1139
  0
VERTEX
  8
22
 10
1.9284
 20
20.9134
 30
0.0000
  0
SEQEND
  8
0
  0
POLYLINE
  8
22
 66
1
 10
0.0000
 20
0.0000
 30
0.0000
 40
0.0508
 41
0.0508
 70
0
  0
VERTEX
  8
22
 10
2.3392
 20
20.7932
 30
0.0000
 42
1.0000
  0
VERTEX
  8
22
 10
2.3615
 20
20.8388
 30
0.0000
  0
SEQEND
  8
0
  0
POLYLINE
  8
22
 66
1
 10
0.0000
 20
0.0000
 30
0.0000
 40
0.0508
 41
0.0508
 70
0
  0
VERTEX
  8
22
 10
1.9284
 20
20.9388
 30
0.0000
 42
1.0000
  0
VERTEX
  8
22
 10
1.9284
 20
20.8880
 30
0.0000
  0
SEQEND
  8
0
  0
POLYLINE
  8
22
 66
1
 10
0.0000
 20
0.0000
 30
0.0000
 40
0.1016
 41
0.1016
 70
0
  0
VERTEX
  8
22
 10
1.5065
 20
20.3616
 30
0.0000
 42
0.1139
  0
VERTEX
  8
22
 10
1.9284
 20
20.2642
 30
0.0000
  0
SEQEND
  8
0
  0
POLYLINE
  8
22
 66
1
 10
0.0000
 20
0.0000
 30
0.0000
 40
0.0508
 41
0.0508
 70
0
  0
VERTEX
  8
22
 10
1.5176
 20
20.3844
 30
0.0000
 42
1.0000
  0
VERTEX
  8
22
 10
1.4954
 20
20.3388
 30
0.0000
  0
SEQEND
  8
0
  0
POLYLINE
  8
22
 66
1
 10
0.0000
 20
0.0000
 30
0.0000
 40
0.0508
 41
0.0508
 70
0
  0
VERTEX
  8
22
 10
1.9284
 20
20.2388
 30
0.0000
 42
1.0000
  0
VERTEX
  8
22
 10
1.9284
 20
20.2896
 30
0.0000
  0
SEQEND
  8
0
  0
POLYLINE
  8
22
 66
1
 10
0.0000
 20
0.0000
 30
0.0000
 40
0.1016
 41
0.1016
 70
0
  0
VERTEX
  8
22
 10
1.3442
 20
20.5888
 30
0.0000
 42
0.3205
  0
VERTEX
  8
22
 10
1.5065
 20
20.3616
 30
0.0000
  0
SEQEND
  8
0
  0
POLYLINE
  8
22
 66
1
 10
0.0000
 20
0.0000
 30
0.0000
 40
0.0508
 41
0.0508
 70
0
  0
VERTEX
  8
22
 10
1.3696
 20
20.5888
 30
0.0000
 42
1.0000
  0
VERTEX
  8
22
 10
1.3188
 20
20.5888
 30
0.0000
  0
SEQEND
  8
0
  0
POLYLINE
  8
22
 66
1
 10
0.0000
 20
0.0000
 30
0.0000
 40
0.0508
 41
0.0508
 70
0
  0
VERTEX
  8
22
 10
1.4983
 20
20.3376
 30
0.0000
 42
1.0000
  0
VERTEX
  8
22
 10
1.5147
 20
20.3856
 30
0.0000
  0
SEQEND
  8
0
  0
POLYLINE
  8
22
 66
1
 10
0.0000
 20
0.0000
 30
0.0000
 40
0.1016
 41
0.1016
 70
0
  0
VERTEX
  8
22
 10
1.9284
 20
20.9134
 30
0.0000
 42
0.1139
  0
VERTEX
  8
22
 10
1.5065
 20
20.8160
 30
0.0000
  0
SEQEND
  8
0
  0
POLYLINE
  8
22
 66
1
 10
0.0000
 20
0.0000
 30
0.0000
 40
0.0508
 41
0.0508
 70
0
  0
VERTEX
  8
22
 10
1.9284
 20
20.8880
 30
0.0000
 42
1.0000
  0
VERTEX
  8
22
 10
1.9284
 20
20.9388
 30
0.0000
  0
SEQEND
  8
0
  0
POLYLINE
  8
22
 66
1
 10
0.0000
 20
0.0000
 30
0.0000
 40
0.0508
 41
0.0508
 70
0
  0
VERTEX
  8
22
 10
1.4954
 20
20.8388
 30
0.0000
 42
1.0000
  0
VERTEX
  8
22
 10
1.5176
 20
20.7932
 30
0.0000
  0
SEQEND
  8
0
  0
POLYLINE
  8
22
 66
1
 10
0.0000
 20
0.0000
 30
0.0000
 40
0.1016
 41
0.1016
 70
0
  0
VERTEX
  8
22
 10
1.5065
 20
20.8160
 30
0.0000
 42
0.3205
  0
VERTEX
  8
22
 10
1.3442
 20
20.5888
 30
0.0000
  0
SEQEND
  8
0
  0
POLYLINE
  8
22
 66
1
 10
0.0000
 20
0.0000
 30
0.0000
 40
0.0508
 41
0.0508
 70
0
  0
VERTEX
  8
22
 10
1.5147
 20
20.7920
 30
0.0000
 42
1.0000
  0
VERTEX
  8
22
 10
1.4983
 20
20.8400
 30
0.0000
  0
SEQEND
  8
0
  0
POLYLINE
  8
22
 66
1
 10
0.0000
 20
0.0000
 30
0.0000
 40
0.0508
 41
0.0508
 70
0
  0
VERTEX
  8
22
 10
1.3188
 20
20.5888
 30
0.0000
 42
1.0000
  0
VERTEX
  8
22
 10
1.3696
 20
20.5888
 30
0.0000
  0
SEQEND
  8
0
  0
POLYLINE
  8
22
 66
1
 10
0.0000
 20
0.0000
 30
0.0000
 40
0.1016
 41
0.1016
 70
0
  0
VERTEX
  8
22
 10
1.6039
 20
20.3292
 30
0.0000
  0
VERTEX
  8
22
 10
2.2530
 20
20.8484
 30
0.0000
  0
SEQEND
  8
0
  0
POLYLINE
  8
22
 66
1
 10
0.0000
 20
0.0000
 30
0.0000
 40
0.0508
 41
0.0508
 70
0
  0
VERTEX
  8
22
 10
2.2689
 20
20.8286
 30
0.0000
 42
1.0000
  0
VERTEX
  8
22
 10
2.2371
 20
20.8683
 30
0.0000
  0
SEQEND
  8
0
  0
POLYLINE
  8
22
 66
1
 10
0.0000
 20
0.0000
 30
0.0000
 40
0.0508
 41
0.0508
 70
0
  0
VERTEX
  8
22
 10
1.5880
 20
20.3490
 30
0.0000
 42
1.0000
  0
VERTEX
  8
22
 10
1.6197
 20
20.3093
 30
0.0000
  0
SEQEND
  8
0
  0
POLYLINE
  8
22
 66
1
 10
0.0000
 20
0.0000
 30
0.0000
 40
0.1016
 41
0.1016
 70
0
  0
VERTEX
  8
22
 10
2.2530
 20
21.4072
 30
0.0000
  0
VERTEX
  8
22
 10
2.5126
 20
21.7318
 30
0.0000
  0
SEQEND
  8
0
  0
POLYLINE
  8
22
 66
1
 10
0.0000
 20
0.0000
 30
0.0000
 40
0.0508
 41
0.0508
 70
0
  0
VERTEX
  8
22
 10
2.5325
 20
21.7159
 30
0.0000
 42
1.0000
  0
VERTEX
  8
22
 10
2.4928
 20
21.7477
 30
0.0000
  0
SEQEND
  8
0
  0
POLYLINE
  8
22
 66
1
 10
0.0000
 20
0.0000
 30
0.0000
 40
0.0508
 41
0.0508
 70
0
  0
VERTEX
  8
22
 10
2.2332
 20
21.4231
 30
0.0000
 42
1.0000
  0
VERTEX
  8
22
 10
2.2728
 20
21.3914
 30
0.0000
  0
SEQEND
  8
0
  0
POLYLINE
  8
22
 66
1
 10
0.0000
 20
0.0000
 30
0.0000
 40
0.1016
 41
0.1016
 70
0
  0
VERTEX
  8
22
 10
2.5126
 20
21.7318
 30
0.0000
  0
VERTEX
  8
22
 10
1.3442
 20
21.7318
 30
0.0000
  0
SEQEND
  8
0
  0
POLYLINE
  8
22
 66
1
 10
0.0000
 20
0.0000
 30
0.0000
 40
0.0508
 41
0.0508
 70
0
  0
VERTEX
  8
22
 10
1.3442
 20
21.7572
 30
0.0000
 42
1.0000
  0
VERTEX
  8
22
 10
1.3442
 20
21.7064
 30
0.0000
  0
SEQEND
  8
0
  0
POLYLINE
  8
22
 66
1
 10
0.0000
 20
0.0000
 30
0.0000
 40
0.0508
 41
0.0508
 70
0
  0
VERTEX
  8
22
 10
2.5126
 20
21.7064
 30
0.0000
 42
1.0000
  0
VERTEX
  8
22
 10
2.5126
 20
21.7572
 30
0.0000
  0
SEQEND
  8
0
  0
POLYLINE
  8
22
 66
1
 10
0.0000
 20
0.0000
 30
0.0000
 40
0.1016
 41
0.1016
 70
0
  0
VERTEX
  8
22
 10
1.3442
 20
21.4072
 30
0.0000
  0
VERTEX
  8
22
 10
1.3442
 20
22.0564
 30
0.0000
  0
SEQEND
  8
0
  0
POLYLINE
  8
22
 66
1
 10
0.0000
 20
0.0000
 30
0.0000
 40
0.0508
 41
0.0508
 70
0
  0
VERTEX
  8
22
 10
1.3696
 20
22.0564
 30
0.0000
 42
1.0000
  0
VERTEX
  8
22
 10
1.3188
 20
22.0564
 30
0.0000
  0
SEQEND
  8
0
  0
POLYLINE
  8
22
 66
1
 10
0.0000
 20
0.0000
 30
0.0000
 40
0.0508
 41
0.0508
 70
0
  0
VERTEX
  8
22
 10
1.3188
 20
21.4072
 30
0.0000
 42
1.0000
  0
VERTEX
  8
22
 10
1.3696
 20
21.4072
 30
0.0000
  0
SEQEND
  8
0
  0
POLYLINE
  8
22
 66
1
 10
0.0000
 20
0.0000
 30
0.0000
 40
0.1524
 41
0.1524
 70
0
  0
VERTEX
  8
22
 10
3.3998
 20
9.5444
 30
0.0000
  0
VERTEX
  8
22
 10
23.3898
 20
9.5444
 30
0.0000
  0
SEQEND
  8
0
  0
POLYLINE
  8
22
 66
1
 10
0.0000
 20
0.0000
 30
0.0000
 40
0.0762
 41
0.0762
 70
0
  0
VERTEX
  8
22
 10
23.3898
 20
9.5063
 30
0.0000
 42
1.0000
  0
VERTEX
  8
22
 10
23.3898
 20
9.5825
 30
0.0000
  0
SEQEND
  8
0
  0
POLYLINE
  8
22
 66
1
 10
0.0000
 20
0.0000
 30
0.0000
 40
0.0762
 41
0.0762
 70
0
  0
VERTEX
  8
22
 10
3.3998
 20
9.5825
 30
0.0000
 42
1.0000
  0
VERTEX
  8
22
 10
3.3998
 20
9.5063
 30
0.0000
  0
SEQEND
  8
0
  0
POLYLINE
  8
22
 66
1
 10
0.0000
 20
0.0000
 30
0.0000
 40
0.1524
 41
0.1524
 70
0
  0
VERTEX
  8
22
 10
23.3898
 20
0.3494
 30
0.0000
  0
VERTEX
  8
22
 10
23.3898
 20
0.5524
 30
0.0000
  0
SEQEND
  8
0
  0
POLYLINE
  8
22
 66
1
 10
0.0000
 20
0.0000
 30
0.0000
 40
0.0762
 41
0.0762
 70
0
  0
VERTEX
  8
22
 10
23.4279
 20
0.5524
 30
0.0000
 42
1.0000
  0
VERTEX
  8
22
 10
23.3517
 20
0.5524
 30
0.0000
  0
SEQEND
  8
0
  0
POLYLINE
  8
22
 66
1
 10
0.0000
 20
0.0000
 30
0.0000
 40
0.0762
 41
0.0762
 70
0
  0
VERTEX
  8
22
 10
23.3517
 20
0.3494
 30
0.0000
 42
1.0000
  0
VERTEX
  8
22
 10
23.4279
 20
0.3494
 30
0.0000
  0
SEQEND
  8
0
  0
POLYLINE
  8
22
 66
1
 10
0.0000
 20
0.0000
 30
0.0000
 40
0.1524
 41
0.1524
 70
0
  0
VERTEX
  8
22
 10
23.3898
 20
0.3494
 30
0.0000
  0
VERTEX
  8
22
 10
3.3998
 20
0.3494
 30
0.0000
  0
SEQEND
  8
0
  0
POLYLINE
  8
22
 66
1
 10
0.0000
 20
0.0000
 30
0.0000
 40
0.0762
 41
0.0762
 70
0
  0
VERTEX
  8
22
 10
3.3998
 20
0.3875
 30
0.0000
 42
1.0000
  0
VERTEX
  8
22
 10
3.3998
 20
0.3113
 30
0.0000
  0
SEQEND
  8
0
  0
POLYLINE
  8
22
 66
1
 10
0.0000
 20
0.0000
 30
0.0000
 40
0.0762
 41
0.0762
 70
0
  0
VERTEX
  8
22
 10
23.3898
 20
0.3113
 30
0.0000
 42
1.0000
  0
VERTEX
  8
22
 10
23.3898
 20
0.3875
 30
0.0000
  0
SEQEND
  8
0
  0
POLYLINE
  8
22
 66
1
 10
0.0000
 20
0.0000
 30
0.0000
 40
0.1524
 41
0.1524
 70
0
  0
VERTEX
  8
22
 10
3.3998
 20
9.5444
 30
0.0000
  0
VERTEX
  8
22
 10
3.3998
 20
7.1564
 30
0.0000
  0
SEQEND
  8
0
  0
POLYLINE
  8
22
 66
1
 10
0.0000
 20
0.0000
 30
0.0000
 40
0.0762
 41
0.0762
 70
0
  0
VERTEX
  8
22
 10
3.3617
 20
7.1564
 30
0.0000
 42
1.0000
  0
VERTEX
  8
22
 10
3.4379
 20
7.1564
 30
0.0000
  0
SEQEND
  8
0
  0
POLYLINE
  8
22
 66
1
 10
0.0000
 20
0.0000
 30
0.0000
 40
0.0762
 41
0.0762
 70
0
  0
VERTEX
  8
22
 10
3.4379
 20
9.5444
 30
0.0000
 42
1.0000
  0
VERTEX
  8
22
 10
3.3617
 20
9.5444
 30
0.0000
  0
SEQEND
  8
0
  0
POLYLINE
  8
22
 66
1
 10
0.0000
 20
0.0000
 30
0.0000
 40
0.1524
 41
0.1524
 70
0
  0
VERTEX
  8
22
 10
3.3998
 20
7.1564
 30
0.0000
  0
VERTEX
  8
22
 10
4.9998
 20
7.1564
 30
0.0000
  0
SEQEND
  8
0
  0
POLYLINE
  8
22
 66
1
 10
0.0000
 20
0.0000
 30
0.0000
 40
0.0762
 41
0.0762
 70
0
  0
VERTEX
  8
22
 10
4.9998
 20
7.1183
 30
0.0000
 42
1.0000
  0
VERTEX
  8
22
 10
4.9998
 20
7.1945
 30
0.0000
  0
SEQEND
  8
0
  0
POLYLINE
  8
22
 66
1
 10
0.0000
 20
0.0000
 30
0.0000
 40
0.0762
 41
0.0762
 70
0
  0
VERTEX
  8
22
 10
3.3998
 20
7.1945
 30
0.0000
 42
1.0000
  0
VERTEX
  8
22
 10
3.3998
 20
7.1183
 30
0.0000
  0
SEQEND
  8
0
  0
POLYLINE
  8
22
 66
1
 10
0.0000
 20
0.0000
 30
0.0000
 40
0.1524
 41
0.1524
 70
0
  0
VERTEX
  8
22
 10
6.7778
 20
7.1564
 30
0.0000
  0
VERTEX
  8
22
 10
10.0038
 20
7.1564
 30
0.0000
  0
SEQEND
  8
0
  0
POLYLINE
  8
22
 66
1
 10
0.0000
 20
0.0000
 30
0.0000
 40
0.0762
 41
0.0762
 70
0
  0
VERTEX
  8
22
 10
10.0038
 20
7.1183
 30
0.0000
 42
1.0000
  0
VERTEX
  8
22
 10
10.0038
 20
7.1945
 30
0.0000
  0
SEQEND
  8
0
  0
POLYLINE
  8
22
 66
1
 10
0.0000
 20
0.0000
 30
0.0000
 40
0.0762
 41
0.0762
 70
0
  0
VERTEX
  8
22
 10
6.7778
 20
7.1945
 30
0.0000
 42
1.0000
  0
VERTEX
  8
22
 10
6.7778
 20
7.1183
 30
0.0000
  0
SEQEND
  8
0
  0
POLYLINE
  8
22
 66
1
 10
0.0000
 20
0.0000
 30
0.0000
 40
0.1524
 41
0.1524
 70
0
  0
VERTEX
  8
22
 10
11.7818
 20
7.1564
 30
0.0000
  0
VERTEX
  8
22
 10
15.0078
 20
7.1564
 30
0.0000
  0
SEQEND
  8
0
  0
POLYLINE
  8
22
 66
1
 10
0.0000
 20
0.0000
 30
0.0000
 40
0.0762
 41
0.0762
 70
0
  0
VERTEX
  8
22
 10
15.0078
 20
7.1183
 30
0.0000
 42
1.0000
  0
VERTEX
  8
22
 10
15.0078
 20
7.1945
 30
0.0000
  0
SEQEND
  8
0
  0
POLYLINE
  8
22
 66
1
 10
0.0000
 20
0.0000
 30
0.0000
 40
0.0762
 41
0.0762
 70
0
  0
VERTEX
  8
22
 10
11.7818
 20
7.1945
 30
0.0000
 42
1.0000
  0
VERTEX
  8
22
 10
11.7818
 20
7.1183
 30
0.0000
  0
SEQEND
  8
0
  0
POLYLINE
  8
22
 66
1
 10
0.0000
 20
0.0000
 30
0.0000
 40
0.1524
 41
0.1524
 70
0
  0
VERTEX
  8
22
 10
16.7858
 20
7.1564
 30
0.0000
  0
VERTEX
  8
22
 10
20.0108
 20
7.1564
 30
0.0000
  0
SEQEND
  8
0
  0
POLYLINE
  8
22
 66
1
 10
0.0000
 20
0.0000
 30
0.0000
 40
0.0762
 41
0.0762
 70
0
  0
VERTEX
  8
22
 10
20.0108
 20
7.1183
 30
0.0000
 42
1.0000
  0
VERTEX
  8
22
 10
20.0108
 20
7.1945
 30
0.0000
  0
SEQEND
  8
0
  0
POLYLINE
  8
22
 66
1
 10
0.0000
 20
0.0000
 30
0.0000
 40
0.0762
 41
0.0762
 70
0
  0
VERTEX
  8
22
 10
16.7858
 20
7.1945
 30
0.0000
 42
1.0000
  0
VERTEX
  8
22
 10
16.7858
 20
7.1183
 30
0.0000
  0
SEQEND
  8
0
  0
POLYLINE
  8
22
 66
1
 10
0.0000
 20
0.0000
 30
0.0000
 40
0.1524
 41
0.1524
 70
0
  0
VERTEX
  8
22
 10
21.7888
 20
7.1564
 30
0.0000
  0
VERTEX
  8
22
 10
23.3898
 20
7.1564
 30
0.0000
  0
SEQEND
  8
0
  0
POLYLINE
  8
22
 66
1
 10
0.0000
 20
0.0000
 30
0.0000
 40
0.0762
 41
0.0762
 70
0
  0
VERTEX
  8
22
 10
23.3898
 20
7.1183
 30
0.0000
 42
1.0000
  0
VERTEX
  8
22
 10
23.3898
 20
7.1945
 30
0.0000
  0
SEQEND
  8
0
  0
POLYLINE
  8
22
 66
1
 10
0.0000
 20
0.0000
 30
0.0000
 40
0.0762
 41
0.0762
 70
0
  0
VERTEX
  8
22
 10
21.7888
 20
7.1945
 30
0.0000
 42
1.0000
  0
VERTEX
  8
22
 10
21.7888
 20
7.1183
 30
0.0000
  0
SEQEND
  8
0
  0
POLYLINE
  8
22
 66
1
 10
0.0000
 20
0.0000
 30
0.0000
 40
0.1524
 41
0.1524
 70
0
  0
VERTEX
  8
22
 10
3.3998
 20
7.1564
 30
0.0000
  0
VERTEX
  8
22
 10
3.3998
 20
0.5524
 30
0.0000
  0
SEQEND
  8
0
  0
POLYLINE
  8
22
 66
1
 10
0.0000
 20
0.0000
 30
0.0000
 40
0.0762
 41
0.0762
 70
0
  0
VERTEX
  8
22
 10
3.3617
 20
0.5524
 30
0.0000
 42
1.0000
  0
VERTEX
  8
22
 10
3.4379
 20
0.5524
 30
0.0000
  0
SEQEND
  8
0
  0
POLYLINE
  8
22
 66
1
 10
0.0000
 20
0.0000
 30
0.0000
 40
0.0762
 41
0.0762
 70
0
  0
VERTEX
  8
22
 10
3.4379
 20
7.1564
 30
0.0000
 42
1.0000
  0
VERTEX
  8
22
 10
3.3617
 20
7.1564
 30
0.0000
  0
SEQEND
  8
0
  0
POLYLINE
  8
22
 66
1
 10
0.0000
 20
0.0000
 30
0.0000
 40
0.1524
 41
0.1524
 70
0
  0
VERTEX
  8
22
 10
23.3898
 20
7.1564
 30
0.0000
  0
VERTEX
  8
22
 10
23.3898
 20
9.5444
 30
0.0000
  0
SEQEND
  8
0
  0
POLYLINE
  8
22
 66
1
 10
0.0000
 20
0.0000
 30
0.0000
 40
0.0762
 41
0.0762
 70
0
  0
VERTEX
  8
22
 10
23.4279
 20
9.5444
 30
0.0000
 42
1.0000
  0
VERTEX
  8
22
 10
23.3517
 20
9.5444
 30
0.0000
  0
SEQEND
  8
0
  0
POLYLINE
  8
22
 66
1
 10
0.0000
 20
0.0000
 30
0.0000
 40
0.0762
 41
0.0762
 70
0
  0
VERTEX
  8
22
 10
23.3517
 20
7.1564
 30
0.0000
 42
1.0000
  0
VERTEX
  8
22
 10
23.4279
 20
7.1564
 30
0.0000
  0
SEQEND
  8
0
  0
POLYLINE
  8
22
 66
1
 10
0.0000
 20
0.0000
 30
0.0000
 40
0.1524
 41
0.1524
 70
0
  0
VERTEX
  8
22
 10
3.3998
 20
0.5524
 30
0.0000
  0
VERTEX
  8
22
 10
23.3898
 20
0.5524
 30
0.0000
  0
SEQEND
  8
0
  0
POLYLINE
  8
22
 66
1
 10
0.0000
 20
0.0000
 30
0.0000
 40
0.0762
 41
0.0762
 70
0
  0
VERTEX
  8
22
 10
23.3898
 20
0.5143
 30
0.0000
 42
1.0000
  0
VERTEX
  8
22
 10
23.3898
 20
0.5905
 30
0.0000
  0
SEQEND
  8
0
  0
POLYLINE
  8
22
 66
1
 10
0.0000
 20
0.0000
 30
0.0000
 40
0.0762
 41
0.0762
 70
0
  0
VERTEX
  8
22
 10
3.3998
 20
0.5905
 30
0.0000
 42
1.0000
  0
VERTEX
  8
22
 10
3.3998
 20
0.5143
 30
0.0000
  0
SEQEND
  8
0
  0
POLYLINE
  8
22
 66
1
 10
0.0000
 20
0.0000
 30
0.0000
 40
0.1524
 41
0.1524
 70
0
  0
VERTEX
  8
22
 10
3.3998
 20
0.5524
 30
0.0000
  0
VERTEX
  8
22
 10
3.3998
 20
0.3494
 30
0.0000
  0
SEQEND
  8
0
  0
POLYLINE
  8
22
 66
1
 10
0.0000
 20
0.0000
 30
0.0000
 40
0.0762
 41
0.0762
 70
0
  0
VERTEX
  8
22
 10
3.3617
 20
0.3494
 30
0.0000
 42
1.0000
  0
VERTEX
  8
22
 10
3.4379
 20
0.3494
 30
0.0000
  0
SEQEND
  8
0
  0
POLYLINE
  8
22
 66
1
 10
0.0000
 20
0.0000
 30
0.0000
 40
0.0762
 41
0.0762
 70
0
  0
VERTEX
  8
22
 10
3.4379
 20
0.5524
 30
0.0000
 42
1.0000
  0
VERTEX
  8
22
 10
3.3617
 20
0.5524
 30
0.0000
  0
SEQEND
  8
0
  0
POLYLINE
  8
22
 66
1
 10
0.0000
 20
0.0000
 30
0.0000
 40
0.1524
 41
0.1524
 70
0
  0
VERTEX
  8
22
 10
23.3898
 20
0.5524
 30
0.0000
  0
VERTEX
  8
22
 10
23.3898
 20
7.1564
 30
0.0000
  0
SEQEND
  8
0
  0
POLYLINE
  8
22
 66
1
 10
0.0000
 20
0.0000
 30
0.0000
 40
0.0762
 41
0.0762
 70
0
  0
VERTEX
  8
22
 10
23.4279
 20
7.1564
 30
0.0000
 42
1.0000
  0
VERTEX
  8
22
 10
23.3517
 20
7.1564
 30
0.0000
  0
SEQEND
  8
0
  0
POLYLINE
  8
22
 66
1
 10
0.0000
 20
0.0000
 30
0.0000
 40
0.0762
 41
0.0762
 70
0
  0
VERTEX
  8
22
 10
23.3517
 20
0.5524
 30
0.0000
 42
1.0000
  0
VERTEX
  8
22
 10
23.4279
 20
0.5524
 30
0.0000
  0
SEQEND
  8
0
  0
POLYLINE
  8
22
 66
1
 10
0.0000
 20
0.0000
 30
0.0000
 40
0.1524
 41
0.1524
 70
0
  0
VERTEX
  8
22
 10
5.8888
 20
1.3656
 30
0.0000
 42
1.0000
  0
VERTEX
  8
22
 10
5.8888
 20
2.3816
 30
0.0000
 42
1.0000
  0
VERTEX
  8
22
 10
5.8888
 20
1.3656
 30
0.0000
  0
SEQEND
  8
0
  0
POLYLINE
  8
22
 66
1
 10
0.0000
 20
0.0000
 30
0.0000
 40
0.1524
 41
0.1524
 70
0
  0
VERTEX
  8
22
 10
10.8926
 20
1.3656
 30
0.0000
 42
1.0000
  0
VERTEX
  8
22
 10
10.8926
 20
2.3816
 30
0.0000
 42
1.0000
  0
VERTEX
  8
22
 10
10.8926
 20
1.3656
 30
0.0000
  0
SEQEND
  8
0
  0
POLYLINE
  8
22
 66
1
 10
0.0000
 20
0.0000
 30
0.0000
 40
0.1524
 41
0.1524
 70
0
  0
VERTEX
  8
22
 10
15.8964
 20
1.3656
 30
0.0000
 42
1.0000
  0
VERTEX
  8
22
 10
15.8964
 20
2.3816
 30
0.0000
 42
1.0000
  0
VERTEX
  8
22
 10
15.8964
 20
1.3656
 30
0.0000
  0
SEQEND
  8
0
  0
POLYLINE
  8
22
 66
1
 10
0.0000
 20
0.0000
 30
0.0000
 40
0.1524
 41
0.1524
 70
0
  0
VERTEX
  8
22
 10
20.9002
 20
1.3656
 30
0.0000
 42
1.0000
  0
VERTEX
  8
22
 10
20.9002
 20
2.3816
 30
0.0000
 42
1.0000
  0
VERTEX
  8
22
 10
20.9002
 20
1.3656
 30
0.0000
  0
SEQEND
  8
0
  0
ENDSEC
  0
EOF
