G04 EAGLE Gerber X2 export*
%TF.Part,Single*%
%TF.FileFunction,Legend,Bot,1*%
%TF.FilePolarity,Positive*%
%TF.GenerationSoftware,Autodesk,EAGLE,9.1.3*%
%TF.CreationDate,2018-09-20T23:52:14Z*%
G75*
%MOMM*%
%FSLAX34Y34*%
%LPD*%
%AMOC8*
5,1,8,0,0,1.08239X$1,22.5*%
G01*
%ADD10C,0.100000*%
%ADD11C,0.203200*%
%ADD12C,0.025400*%
%ADD13C,0.127000*%
%ADD14C,0.101600*%
%ADD15C,0.050800*%
%ADD16C,0.152400*%
%ADD17C,0.406400*%
%ADD18C,0.254000*%
%ADD19C,0.076200*%
%ADD20C,0.457200*%


D10*
X333134Y164110D02*
X333134Y216110D01*
X370134Y216110D02*
X370134Y164310D01*
D11*
X443134Y163610D02*
X209334Y163610D01*
X443134Y163610D02*
X443134Y216610D01*
X209334Y216610D01*
X209334Y163610D01*
X235984Y175610D02*
X442384Y175610D01*
D12*
X300690Y195899D02*
X300690Y197593D01*
X300688Y197657D01*
X300682Y197721D01*
X300673Y197784D01*
X300659Y197846D01*
X300642Y197908D01*
X300621Y197968D01*
X300597Y198027D01*
X300569Y198085D01*
X300537Y198140D01*
X300503Y198194D01*
X300465Y198245D01*
X300424Y198295D01*
X300380Y198341D01*
X300334Y198385D01*
X300284Y198426D01*
X300233Y198464D01*
X300179Y198498D01*
X300124Y198530D01*
X300066Y198558D01*
X300007Y198582D01*
X299947Y198603D01*
X299885Y198620D01*
X299823Y198634D01*
X299760Y198643D01*
X299696Y198649D01*
X299632Y198651D01*
X299568Y198649D01*
X299504Y198643D01*
X299441Y198634D01*
X299379Y198620D01*
X299317Y198603D01*
X299257Y198582D01*
X299198Y198558D01*
X299140Y198530D01*
X299085Y198498D01*
X299031Y198464D01*
X298980Y198426D01*
X298930Y198385D01*
X298884Y198341D01*
X298840Y198295D01*
X298799Y198245D01*
X298761Y198194D01*
X298727Y198140D01*
X298695Y198085D01*
X298667Y198027D01*
X298643Y197968D01*
X298622Y197908D01*
X298605Y197846D01*
X298591Y197784D01*
X298582Y197721D01*
X298576Y197657D01*
X298574Y197593D01*
X298573Y197593D02*
X298573Y195899D01*
X298574Y195899D02*
X298576Y195835D01*
X298582Y195771D01*
X298591Y195708D01*
X298605Y195646D01*
X298622Y195584D01*
X298643Y195524D01*
X298667Y195465D01*
X298695Y195407D01*
X298727Y195352D01*
X298761Y195298D01*
X298799Y195247D01*
X298840Y195197D01*
X298884Y195151D01*
X298930Y195107D01*
X298980Y195066D01*
X299031Y195028D01*
X299085Y194994D01*
X299140Y194962D01*
X299198Y194934D01*
X299257Y194910D01*
X299317Y194889D01*
X299379Y194872D01*
X299441Y194858D01*
X299504Y194849D01*
X299568Y194843D01*
X299632Y194841D01*
X299696Y194843D01*
X299760Y194849D01*
X299823Y194858D01*
X299885Y194872D01*
X299947Y194889D01*
X300007Y194910D01*
X300066Y194934D01*
X300124Y194962D01*
X300179Y194994D01*
X300233Y195028D01*
X300284Y195066D01*
X300334Y195107D01*
X300380Y195151D01*
X300424Y195197D01*
X300465Y195247D01*
X300503Y195298D01*
X300537Y195352D01*
X300569Y195407D01*
X300597Y195465D01*
X300621Y195524D01*
X300642Y195584D01*
X300659Y195646D01*
X300673Y195708D01*
X300682Y195771D01*
X300688Y195835D01*
X300690Y195899D01*
X296878Y194841D02*
X296878Y198651D01*
X295608Y196534D01*
X294338Y198651D01*
X294338Y194841D01*
X292500Y194841D02*
X292500Y198651D01*
X291442Y198651D01*
X291378Y198649D01*
X291314Y198643D01*
X291251Y198634D01*
X291189Y198620D01*
X291127Y198603D01*
X291067Y198582D01*
X291008Y198558D01*
X290950Y198530D01*
X290895Y198498D01*
X290841Y198464D01*
X290790Y198426D01*
X290740Y198385D01*
X290694Y198341D01*
X290650Y198295D01*
X290609Y198245D01*
X290571Y198194D01*
X290537Y198140D01*
X290505Y198085D01*
X290477Y198027D01*
X290453Y197968D01*
X290432Y197908D01*
X290415Y197846D01*
X290401Y197784D01*
X290392Y197721D01*
X290386Y197657D01*
X290384Y197593D01*
X290386Y197529D01*
X290392Y197465D01*
X290401Y197402D01*
X290415Y197340D01*
X290432Y197278D01*
X290453Y197218D01*
X290477Y197159D01*
X290505Y197101D01*
X290537Y197046D01*
X290571Y196992D01*
X290609Y196941D01*
X290650Y196891D01*
X290694Y196845D01*
X290740Y196801D01*
X290790Y196760D01*
X290841Y196722D01*
X290895Y196688D01*
X290950Y196656D01*
X291008Y196628D01*
X291067Y196604D01*
X291127Y196583D01*
X291189Y196566D01*
X291251Y196552D01*
X291314Y196543D01*
X291378Y196537D01*
X291442Y196535D01*
X291442Y196534D02*
X292500Y196534D01*
X291230Y196534D02*
X290384Y194841D01*
X288864Y195899D02*
X288864Y197593D01*
X288863Y197593D02*
X288861Y197657D01*
X288855Y197721D01*
X288846Y197784D01*
X288832Y197846D01*
X288815Y197908D01*
X288794Y197968D01*
X288770Y198027D01*
X288742Y198085D01*
X288710Y198140D01*
X288676Y198194D01*
X288638Y198245D01*
X288597Y198295D01*
X288553Y198341D01*
X288507Y198385D01*
X288457Y198426D01*
X288406Y198464D01*
X288352Y198498D01*
X288297Y198530D01*
X288239Y198558D01*
X288180Y198582D01*
X288120Y198603D01*
X288058Y198620D01*
X287996Y198634D01*
X287933Y198643D01*
X287869Y198649D01*
X287805Y198651D01*
X287741Y198649D01*
X287677Y198643D01*
X287614Y198634D01*
X287552Y198620D01*
X287490Y198603D01*
X287430Y198582D01*
X287371Y198558D01*
X287313Y198530D01*
X287258Y198498D01*
X287204Y198464D01*
X287153Y198426D01*
X287103Y198385D01*
X287057Y198341D01*
X287013Y198295D01*
X286972Y198245D01*
X286934Y198194D01*
X286900Y198140D01*
X286868Y198085D01*
X286840Y198027D01*
X286816Y197968D01*
X286795Y197908D01*
X286778Y197846D01*
X286764Y197784D01*
X286755Y197721D01*
X286749Y197657D01*
X286747Y197593D01*
X286747Y195899D01*
X286749Y195835D01*
X286755Y195771D01*
X286764Y195708D01*
X286778Y195646D01*
X286795Y195584D01*
X286816Y195524D01*
X286840Y195465D01*
X286868Y195407D01*
X286900Y195352D01*
X286934Y195298D01*
X286972Y195247D01*
X287013Y195197D01*
X287057Y195151D01*
X287103Y195107D01*
X287153Y195066D01*
X287204Y195028D01*
X287258Y194994D01*
X287313Y194962D01*
X287371Y194934D01*
X287430Y194910D01*
X287490Y194889D01*
X287552Y194872D01*
X287614Y194858D01*
X287677Y194849D01*
X287741Y194843D01*
X287805Y194841D01*
X287869Y194843D01*
X287933Y194849D01*
X287996Y194858D01*
X288058Y194872D01*
X288120Y194889D01*
X288180Y194910D01*
X288239Y194934D01*
X288297Y194962D01*
X288352Y194994D01*
X288406Y195028D01*
X288457Y195066D01*
X288507Y195107D01*
X288553Y195151D01*
X288597Y195197D01*
X288638Y195247D01*
X288676Y195298D01*
X288710Y195352D01*
X288742Y195407D01*
X288770Y195465D01*
X288794Y195524D01*
X288815Y195584D01*
X288832Y195646D01*
X288846Y195708D01*
X288855Y195771D01*
X288861Y195835D01*
X288863Y195899D01*
X285084Y194841D02*
X285084Y198651D01*
X282967Y194841D01*
X282967Y198651D01*
X281272Y196323D02*
X278732Y196323D01*
X275556Y196958D02*
X274921Y196958D01*
X274921Y194841D01*
X276191Y194841D01*
X276246Y194843D01*
X276302Y194848D01*
X276356Y194857D01*
X276410Y194870D01*
X276463Y194886D01*
X276515Y194905D01*
X276566Y194928D01*
X276615Y194954D01*
X276662Y194984D01*
X276707Y195016D01*
X276749Y195051D01*
X276790Y195089D01*
X276828Y195130D01*
X276863Y195172D01*
X276895Y195217D01*
X276925Y195265D01*
X276951Y195313D01*
X276974Y195364D01*
X276993Y195416D01*
X277009Y195469D01*
X277022Y195523D01*
X277031Y195577D01*
X277036Y195633D01*
X277038Y195688D01*
X277037Y195688D02*
X277037Y197804D01*
X277038Y197804D02*
X277036Y197862D01*
X277030Y197919D01*
X277020Y197976D01*
X277007Y198033D01*
X276989Y198088D01*
X276968Y198141D01*
X276943Y198194D01*
X276915Y198244D01*
X276883Y198292D01*
X276848Y198339D01*
X276810Y198382D01*
X276769Y198423D01*
X276726Y198461D01*
X276679Y198496D01*
X276631Y198528D01*
X276581Y198556D01*
X276528Y198581D01*
X276475Y198602D01*
X276420Y198620D01*
X276363Y198633D01*
X276306Y198643D01*
X276249Y198649D01*
X276191Y198651D01*
X274921Y198651D01*
X273258Y194841D02*
X272200Y194841D01*
X272136Y194843D01*
X272072Y194849D01*
X272009Y194858D01*
X271947Y194872D01*
X271885Y194889D01*
X271825Y194910D01*
X271766Y194934D01*
X271708Y194962D01*
X271653Y194994D01*
X271599Y195028D01*
X271548Y195066D01*
X271498Y195107D01*
X271452Y195151D01*
X271408Y195197D01*
X271367Y195247D01*
X271329Y195298D01*
X271295Y195352D01*
X271263Y195407D01*
X271235Y195465D01*
X271211Y195524D01*
X271190Y195584D01*
X271173Y195646D01*
X271159Y195708D01*
X271150Y195771D01*
X271144Y195835D01*
X271142Y195899D01*
X271144Y195963D01*
X271150Y196027D01*
X271159Y196090D01*
X271173Y196152D01*
X271190Y196214D01*
X271211Y196274D01*
X271235Y196333D01*
X271263Y196391D01*
X271295Y196446D01*
X271329Y196500D01*
X271367Y196551D01*
X271408Y196601D01*
X271452Y196647D01*
X271498Y196691D01*
X271548Y196732D01*
X271599Y196770D01*
X271653Y196804D01*
X271708Y196836D01*
X271766Y196864D01*
X271825Y196888D01*
X271885Y196909D01*
X271947Y196926D01*
X272009Y196940D01*
X272072Y196949D01*
X272136Y196955D01*
X272200Y196957D01*
X271988Y198651D02*
X273258Y198651D01*
X271988Y198651D02*
X271931Y198649D01*
X271875Y198643D01*
X271819Y198634D01*
X271764Y198621D01*
X271710Y198604D01*
X271657Y198584D01*
X271606Y198560D01*
X271556Y198533D01*
X271509Y198502D01*
X271463Y198469D01*
X271420Y198432D01*
X271379Y198393D01*
X271341Y198351D01*
X271306Y198306D01*
X271274Y198260D01*
X271245Y198211D01*
X271220Y198161D01*
X271198Y198108D01*
X271179Y198055D01*
X271164Y198000D01*
X271153Y197945D01*
X271145Y197889D01*
X271141Y197832D01*
X271141Y197776D01*
X271145Y197719D01*
X271153Y197663D01*
X271164Y197608D01*
X271179Y197553D01*
X271198Y197500D01*
X271220Y197447D01*
X271245Y197397D01*
X271274Y197348D01*
X271306Y197302D01*
X271341Y197257D01*
X271379Y197215D01*
X271420Y197176D01*
X271463Y197139D01*
X271509Y197106D01*
X271556Y197075D01*
X271606Y197048D01*
X271657Y197024D01*
X271710Y197004D01*
X271764Y196987D01*
X271819Y196974D01*
X271875Y196965D01*
X271931Y196959D01*
X271988Y196957D01*
X271988Y196958D02*
X272835Y196958D01*
X269446Y198651D02*
X269446Y194841D01*
X268176Y196534D02*
X269446Y198651D01*
X268176Y196534D02*
X266906Y198651D01*
X266906Y194841D01*
X265041Y196958D02*
X263983Y196958D01*
X263983Y196957D02*
X263919Y196955D01*
X263855Y196949D01*
X263792Y196940D01*
X263730Y196926D01*
X263668Y196909D01*
X263608Y196888D01*
X263549Y196864D01*
X263491Y196836D01*
X263436Y196804D01*
X263382Y196770D01*
X263331Y196732D01*
X263281Y196691D01*
X263235Y196647D01*
X263191Y196601D01*
X263150Y196551D01*
X263112Y196500D01*
X263078Y196446D01*
X263046Y196391D01*
X263018Y196333D01*
X262994Y196274D01*
X262973Y196214D01*
X262956Y196152D01*
X262942Y196090D01*
X262933Y196027D01*
X262927Y195963D01*
X262925Y195899D01*
X262927Y195835D01*
X262933Y195771D01*
X262942Y195708D01*
X262956Y195646D01*
X262973Y195584D01*
X262994Y195524D01*
X263018Y195465D01*
X263046Y195407D01*
X263078Y195352D01*
X263112Y195298D01*
X263150Y195247D01*
X263191Y195197D01*
X263235Y195151D01*
X263281Y195107D01*
X263331Y195066D01*
X263382Y195028D01*
X263436Y194994D01*
X263491Y194962D01*
X263549Y194934D01*
X263608Y194910D01*
X263668Y194889D01*
X263730Y194872D01*
X263792Y194858D01*
X263855Y194849D01*
X263919Y194843D01*
X263983Y194841D01*
X265041Y194841D01*
X265041Y198651D01*
X263983Y198651D01*
X263926Y198649D01*
X263870Y198643D01*
X263814Y198634D01*
X263759Y198621D01*
X263705Y198604D01*
X263652Y198584D01*
X263601Y198560D01*
X263551Y198533D01*
X263504Y198502D01*
X263458Y198469D01*
X263415Y198432D01*
X263374Y198393D01*
X263336Y198351D01*
X263301Y198306D01*
X263269Y198260D01*
X263240Y198211D01*
X263215Y198161D01*
X263193Y198108D01*
X263174Y198055D01*
X263159Y198000D01*
X263148Y197945D01*
X263140Y197889D01*
X263136Y197832D01*
X263136Y197776D01*
X263140Y197719D01*
X263148Y197663D01*
X263159Y197608D01*
X263174Y197553D01*
X263193Y197500D01*
X263215Y197447D01*
X263240Y197397D01*
X263269Y197348D01*
X263301Y197302D01*
X263336Y197257D01*
X263374Y197215D01*
X263415Y197176D01*
X263458Y197139D01*
X263504Y197106D01*
X263551Y197075D01*
X263601Y197048D01*
X263652Y197024D01*
X263705Y197004D01*
X263759Y196987D01*
X263814Y196974D01*
X263870Y196965D01*
X263926Y196959D01*
X263983Y196957D01*
X261522Y196323D02*
X258982Y196323D01*
X256244Y198652D02*
X256184Y198650D01*
X256125Y198644D01*
X256065Y198635D01*
X256007Y198622D01*
X255950Y198605D01*
X255893Y198585D01*
X255838Y198561D01*
X255785Y198534D01*
X255733Y198504D01*
X255684Y198470D01*
X255637Y198433D01*
X255592Y198394D01*
X255549Y198351D01*
X255510Y198306D01*
X255473Y198259D01*
X255439Y198210D01*
X255409Y198158D01*
X255382Y198105D01*
X255358Y198050D01*
X255338Y197993D01*
X255321Y197936D01*
X255308Y197878D01*
X255299Y197818D01*
X255293Y197759D01*
X255291Y197699D01*
X256244Y198651D02*
X256311Y198649D01*
X256378Y198644D01*
X256444Y198635D01*
X256510Y198622D01*
X256574Y198606D01*
X256638Y198586D01*
X256701Y198562D01*
X256763Y198536D01*
X256822Y198506D01*
X256880Y198473D01*
X256937Y198436D01*
X256991Y198397D01*
X257043Y198355D01*
X257092Y198310D01*
X257139Y198262D01*
X257183Y198212D01*
X257225Y198159D01*
X257263Y198104D01*
X257299Y198048D01*
X257331Y197989D01*
X257360Y197929D01*
X257386Y197867D01*
X257408Y197804D01*
X255609Y196958D02*
X255568Y197000D01*
X255529Y197045D01*
X255492Y197091D01*
X255458Y197140D01*
X255427Y197190D01*
X255400Y197242D01*
X255375Y197296D01*
X255353Y197351D01*
X255334Y197407D01*
X255319Y197464D01*
X255307Y197522D01*
X255299Y197581D01*
X255294Y197640D01*
X255292Y197699D01*
X255609Y196958D02*
X257408Y194841D01*
X255292Y194841D01*
X253751Y196746D02*
X253749Y196856D01*
X253743Y196965D01*
X253734Y197074D01*
X253720Y197183D01*
X253703Y197291D01*
X253682Y197399D01*
X253658Y197505D01*
X253629Y197611D01*
X253597Y197716D01*
X253562Y197820D01*
X253523Y197922D01*
X253480Y198023D01*
X253433Y198122D01*
X253434Y198122D02*
X253414Y198172D01*
X253392Y198221D01*
X253366Y198269D01*
X253337Y198314D01*
X253304Y198357D01*
X253269Y198398D01*
X253231Y198437D01*
X253191Y198472D01*
X253148Y198505D01*
X253103Y198535D01*
X253056Y198562D01*
X253008Y198585D01*
X252958Y198605D01*
X252906Y198621D01*
X252854Y198634D01*
X252801Y198644D01*
X252747Y198649D01*
X252693Y198651D01*
X252639Y198649D01*
X252585Y198644D01*
X252532Y198634D01*
X252480Y198621D01*
X252428Y198605D01*
X252378Y198585D01*
X252330Y198562D01*
X252283Y198535D01*
X252238Y198505D01*
X252195Y198472D01*
X252155Y198437D01*
X252117Y198398D01*
X252082Y198357D01*
X252049Y198314D01*
X252020Y198269D01*
X251994Y198221D01*
X251972Y198172D01*
X251952Y198122D01*
X251905Y198023D01*
X251862Y197922D01*
X251823Y197820D01*
X251788Y197716D01*
X251756Y197611D01*
X251727Y197505D01*
X251703Y197399D01*
X251682Y197291D01*
X251665Y197183D01*
X251651Y197074D01*
X251642Y196965D01*
X251636Y196856D01*
X251634Y196746D01*
X253751Y196746D02*
X253749Y196636D01*
X253743Y196527D01*
X253734Y196418D01*
X253720Y196309D01*
X253703Y196201D01*
X253682Y196093D01*
X253658Y195987D01*
X253629Y195881D01*
X253597Y195776D01*
X253562Y195673D01*
X253523Y195570D01*
X253480Y195469D01*
X253433Y195370D01*
X253434Y195370D02*
X253414Y195320D01*
X253392Y195271D01*
X253366Y195223D01*
X253337Y195178D01*
X253304Y195135D01*
X253269Y195094D01*
X253231Y195055D01*
X253191Y195020D01*
X253148Y194987D01*
X253103Y194957D01*
X253056Y194930D01*
X253008Y194907D01*
X252958Y194887D01*
X252906Y194871D01*
X252854Y194858D01*
X252801Y194848D01*
X252747Y194843D01*
X252693Y194841D01*
X251952Y195370D02*
X251905Y195469D01*
X251862Y195570D01*
X251823Y195673D01*
X251788Y195776D01*
X251756Y195881D01*
X251727Y195987D01*
X251703Y196093D01*
X251682Y196201D01*
X251665Y196309D01*
X251651Y196418D01*
X251642Y196527D01*
X251636Y196636D01*
X251634Y196746D01*
X251952Y195370D02*
X251972Y195320D01*
X251994Y195271D01*
X252020Y195223D01*
X252049Y195178D01*
X252082Y195135D01*
X252117Y195094D01*
X252155Y195055D01*
X252195Y195020D01*
X252238Y194987D01*
X252283Y194957D01*
X252330Y194930D01*
X252378Y194907D01*
X252429Y194887D01*
X252480Y194871D01*
X252532Y194858D01*
X252585Y194848D01*
X252639Y194843D01*
X252693Y194841D01*
X253539Y195688D02*
X251846Y197804D01*
X248929Y198652D02*
X248869Y198650D01*
X248810Y198644D01*
X248750Y198635D01*
X248692Y198622D01*
X248635Y198605D01*
X248578Y198585D01*
X248523Y198561D01*
X248470Y198534D01*
X248418Y198504D01*
X248369Y198470D01*
X248322Y198433D01*
X248277Y198394D01*
X248234Y198351D01*
X248195Y198306D01*
X248158Y198259D01*
X248124Y198210D01*
X248094Y198158D01*
X248067Y198105D01*
X248043Y198050D01*
X248023Y197993D01*
X248006Y197936D01*
X247993Y197878D01*
X247984Y197818D01*
X247978Y197759D01*
X247976Y197699D01*
X248929Y198651D02*
X248996Y198649D01*
X249063Y198644D01*
X249129Y198635D01*
X249195Y198622D01*
X249259Y198606D01*
X249323Y198586D01*
X249386Y198562D01*
X249448Y198536D01*
X249507Y198506D01*
X249565Y198473D01*
X249622Y198436D01*
X249676Y198397D01*
X249728Y198355D01*
X249777Y198310D01*
X249824Y198262D01*
X249868Y198212D01*
X249910Y198159D01*
X249948Y198104D01*
X249984Y198048D01*
X250016Y197989D01*
X250045Y197929D01*
X250071Y197867D01*
X250093Y197804D01*
X248294Y196958D02*
X248253Y197000D01*
X248214Y197045D01*
X248177Y197091D01*
X248143Y197140D01*
X248112Y197190D01*
X248085Y197242D01*
X248060Y197296D01*
X248038Y197351D01*
X248019Y197407D01*
X248004Y197464D01*
X247992Y197522D01*
X247984Y197581D01*
X247979Y197640D01*
X247977Y197699D01*
X248294Y196958D02*
X250093Y194841D01*
X247977Y194841D01*
X246265Y194841D02*
X246265Y198651D01*
X245207Y198651D01*
X245143Y198649D01*
X245079Y198643D01*
X245016Y198634D01*
X244954Y198620D01*
X244892Y198603D01*
X244832Y198582D01*
X244773Y198558D01*
X244715Y198530D01*
X244660Y198498D01*
X244606Y198464D01*
X244555Y198426D01*
X244505Y198385D01*
X244459Y198341D01*
X244415Y198295D01*
X244374Y198245D01*
X244336Y198194D01*
X244302Y198140D01*
X244270Y198085D01*
X244242Y198027D01*
X244218Y197968D01*
X244197Y197908D01*
X244180Y197846D01*
X244166Y197784D01*
X244157Y197721D01*
X244151Y197657D01*
X244149Y197593D01*
X244151Y197529D01*
X244157Y197465D01*
X244166Y197402D01*
X244180Y197340D01*
X244197Y197278D01*
X244218Y197218D01*
X244242Y197159D01*
X244270Y197101D01*
X244302Y197046D01*
X244336Y196992D01*
X244374Y196941D01*
X244415Y196891D01*
X244459Y196845D01*
X244505Y196801D01*
X244555Y196760D01*
X244606Y196722D01*
X244660Y196688D01*
X244715Y196656D01*
X244773Y196628D01*
X244832Y196604D01*
X244892Y196583D01*
X244954Y196566D01*
X245016Y196552D01*
X245079Y196543D01*
X245143Y196537D01*
X245207Y196535D01*
X245207Y196534D02*
X246265Y196534D01*
X242746Y196323D02*
X240206Y196323D01*
X237485Y194841D02*
X237430Y194843D01*
X237374Y194848D01*
X237320Y194857D01*
X237266Y194870D01*
X237213Y194886D01*
X237161Y194905D01*
X237110Y194928D01*
X237062Y194954D01*
X237014Y194984D01*
X236969Y195016D01*
X236927Y195051D01*
X236886Y195089D01*
X236848Y195130D01*
X236813Y195172D01*
X236781Y195217D01*
X236751Y195265D01*
X236725Y195313D01*
X236702Y195364D01*
X236683Y195416D01*
X236667Y195469D01*
X236654Y195523D01*
X236645Y195577D01*
X236640Y195633D01*
X236638Y195688D01*
X237485Y194841D02*
X237568Y194843D01*
X237651Y194849D01*
X237733Y194858D01*
X237815Y194872D01*
X237897Y194889D01*
X237977Y194910D01*
X238056Y194935D01*
X238135Y194963D01*
X238211Y194995D01*
X238286Y195031D01*
X238360Y195069D01*
X238431Y195112D01*
X238501Y195157D01*
X238568Y195206D01*
X238633Y195258D01*
X238695Y195313D01*
X238755Y195370D01*
X238649Y197804D02*
X238647Y197859D01*
X238642Y197915D01*
X238633Y197969D01*
X238620Y198023D01*
X238604Y198076D01*
X238585Y198128D01*
X238562Y198179D01*
X238536Y198228D01*
X238506Y198275D01*
X238474Y198320D01*
X238439Y198362D01*
X238401Y198403D01*
X238360Y198441D01*
X238318Y198476D01*
X238273Y198508D01*
X238226Y198538D01*
X238177Y198564D01*
X238126Y198587D01*
X238074Y198606D01*
X238021Y198622D01*
X237967Y198635D01*
X237913Y198644D01*
X237857Y198649D01*
X237802Y198651D01*
X237802Y198652D02*
X237723Y198650D01*
X237645Y198644D01*
X237567Y198635D01*
X237490Y198621D01*
X237413Y198604D01*
X237337Y198582D01*
X237263Y198558D01*
X237189Y198529D01*
X237118Y198497D01*
X237048Y198461D01*
X236979Y198422D01*
X236913Y198380D01*
X236849Y198334D01*
X238226Y197063D02*
X238273Y197093D01*
X238318Y197126D01*
X238361Y197162D01*
X238401Y197200D01*
X238439Y197241D01*
X238474Y197284D01*
X238506Y197330D01*
X238536Y197377D01*
X238562Y197427D01*
X238585Y197478D01*
X238604Y197530D01*
X238620Y197583D01*
X238633Y197638D01*
X238642Y197693D01*
X238647Y197748D01*
X238649Y197804D01*
X237061Y196429D02*
X237014Y196399D01*
X236969Y196366D01*
X236926Y196330D01*
X236886Y196292D01*
X236848Y196251D01*
X236813Y196208D01*
X236781Y196162D01*
X236751Y196115D01*
X236725Y196065D01*
X236702Y196014D01*
X236683Y195962D01*
X236667Y195909D01*
X236654Y195854D01*
X236645Y195799D01*
X236640Y195744D01*
X236638Y195688D01*
X237061Y196429D02*
X238226Y197064D01*
X234071Y194841D02*
X234016Y194843D01*
X233960Y194848D01*
X233906Y194857D01*
X233852Y194870D01*
X233799Y194886D01*
X233747Y194905D01*
X233696Y194928D01*
X233648Y194954D01*
X233600Y194984D01*
X233555Y195016D01*
X233513Y195051D01*
X233472Y195089D01*
X233434Y195130D01*
X233399Y195172D01*
X233367Y195217D01*
X233337Y195265D01*
X233311Y195313D01*
X233288Y195364D01*
X233269Y195416D01*
X233253Y195469D01*
X233240Y195523D01*
X233231Y195577D01*
X233226Y195633D01*
X233224Y195688D01*
X234071Y194841D02*
X234154Y194843D01*
X234237Y194849D01*
X234319Y194858D01*
X234401Y194872D01*
X234483Y194889D01*
X234563Y194910D01*
X234642Y194935D01*
X234721Y194963D01*
X234797Y194995D01*
X234872Y195031D01*
X234946Y195069D01*
X235017Y195112D01*
X235087Y195157D01*
X235154Y195206D01*
X235219Y195258D01*
X235281Y195313D01*
X235341Y195370D01*
X235236Y197804D02*
X235234Y197859D01*
X235229Y197915D01*
X235220Y197969D01*
X235207Y198023D01*
X235191Y198076D01*
X235172Y198128D01*
X235149Y198179D01*
X235123Y198228D01*
X235093Y198275D01*
X235061Y198320D01*
X235026Y198362D01*
X234988Y198403D01*
X234947Y198441D01*
X234905Y198476D01*
X234860Y198508D01*
X234813Y198538D01*
X234764Y198564D01*
X234713Y198587D01*
X234661Y198606D01*
X234608Y198622D01*
X234554Y198635D01*
X234500Y198644D01*
X234444Y198649D01*
X234389Y198651D01*
X234389Y198652D02*
X234310Y198650D01*
X234232Y198644D01*
X234154Y198635D01*
X234077Y198621D01*
X234000Y198604D01*
X233924Y198582D01*
X233850Y198558D01*
X233776Y198529D01*
X233705Y198497D01*
X233635Y198461D01*
X233566Y198422D01*
X233500Y198380D01*
X233436Y198334D01*
X234812Y197063D02*
X234859Y197093D01*
X234904Y197126D01*
X234947Y197162D01*
X234987Y197200D01*
X235025Y197241D01*
X235060Y197284D01*
X235092Y197330D01*
X235122Y197377D01*
X235148Y197427D01*
X235171Y197478D01*
X235190Y197530D01*
X235206Y197583D01*
X235219Y197638D01*
X235228Y197693D01*
X235233Y197748D01*
X235235Y197804D01*
X233647Y196429D02*
X233600Y196399D01*
X233555Y196366D01*
X233512Y196330D01*
X233472Y196292D01*
X233434Y196251D01*
X233399Y196208D01*
X233367Y196162D01*
X233337Y196115D01*
X233311Y196065D01*
X233288Y196014D01*
X233269Y195962D01*
X233253Y195909D01*
X233240Y195854D01*
X233231Y195799D01*
X233226Y195744D01*
X233224Y195688D01*
X233648Y196429D02*
X234812Y197064D01*
X231662Y198651D02*
X231662Y194841D01*
X231662Y198651D02*
X230604Y198651D01*
X230540Y198649D01*
X230476Y198643D01*
X230413Y198634D01*
X230351Y198620D01*
X230289Y198603D01*
X230229Y198582D01*
X230170Y198558D01*
X230112Y198530D01*
X230057Y198498D01*
X230003Y198464D01*
X229952Y198426D01*
X229902Y198385D01*
X229856Y198341D01*
X229812Y198295D01*
X229771Y198245D01*
X229733Y198194D01*
X229699Y198140D01*
X229667Y198085D01*
X229639Y198027D01*
X229615Y197968D01*
X229594Y197908D01*
X229577Y197846D01*
X229563Y197784D01*
X229554Y197721D01*
X229548Y197657D01*
X229546Y197593D01*
X229548Y197529D01*
X229554Y197465D01*
X229563Y197402D01*
X229577Y197340D01*
X229594Y197278D01*
X229615Y197218D01*
X229639Y197159D01*
X229667Y197101D01*
X229699Y197046D01*
X229733Y196992D01*
X229771Y196941D01*
X229812Y196891D01*
X229856Y196845D01*
X229902Y196801D01*
X229952Y196760D01*
X230003Y196722D01*
X230057Y196688D01*
X230112Y196656D01*
X230170Y196628D01*
X230229Y196604D01*
X230289Y196583D01*
X230351Y196566D01*
X230413Y196552D01*
X230476Y196543D01*
X230540Y196537D01*
X230604Y196535D01*
X230604Y196534D02*
X231662Y196534D01*
X230392Y196534D02*
X229546Y194841D01*
X225909Y197699D02*
X225911Y197759D01*
X225917Y197818D01*
X225926Y197878D01*
X225939Y197936D01*
X225956Y197993D01*
X225976Y198050D01*
X226000Y198105D01*
X226027Y198158D01*
X226057Y198210D01*
X226091Y198259D01*
X226128Y198306D01*
X226167Y198351D01*
X226210Y198394D01*
X226255Y198433D01*
X226302Y198470D01*
X226351Y198504D01*
X226403Y198534D01*
X226456Y198561D01*
X226511Y198585D01*
X226568Y198605D01*
X226625Y198622D01*
X226683Y198635D01*
X226743Y198644D01*
X226802Y198650D01*
X226862Y198652D01*
X226862Y198651D02*
X226929Y198649D01*
X226996Y198644D01*
X227062Y198635D01*
X227128Y198622D01*
X227192Y198606D01*
X227256Y198586D01*
X227319Y198562D01*
X227381Y198536D01*
X227440Y198506D01*
X227498Y198473D01*
X227555Y198436D01*
X227609Y198397D01*
X227661Y198355D01*
X227710Y198310D01*
X227757Y198262D01*
X227801Y198212D01*
X227843Y198159D01*
X227881Y198104D01*
X227917Y198048D01*
X227949Y197989D01*
X227978Y197929D01*
X228004Y197867D01*
X228026Y197804D01*
X226226Y196958D02*
X226185Y197000D01*
X226146Y197045D01*
X226109Y197091D01*
X226075Y197140D01*
X226044Y197190D01*
X226017Y197242D01*
X225992Y197296D01*
X225970Y197351D01*
X225951Y197407D01*
X225936Y197464D01*
X225924Y197522D01*
X225916Y197581D01*
X225911Y197640D01*
X225909Y197699D01*
X226227Y196958D02*
X228026Y194841D01*
X225909Y194841D01*
D13*
X5354Y124736D02*
X5354Y464736D01*
X207354Y464736D01*
X207354Y124736D01*
X5354Y124736D01*
D14*
X30662Y130144D02*
X42346Y130144D01*
X35855Y130144D02*
X35855Y136636D01*
X30662Y136636D02*
X42346Y136636D01*
X42346Y142359D02*
X30662Y142359D01*
X42346Y142359D02*
X42346Y147552D01*
X42346Y152412D02*
X30662Y152412D01*
X30662Y158903D02*
X37802Y152412D01*
X35206Y155008D02*
X42346Y158903D01*
X37802Y163404D02*
X37802Y171194D01*
X42346Y176796D02*
X30662Y176796D01*
X30662Y180041D01*
X30664Y180154D01*
X30670Y180267D01*
X30680Y180380D01*
X30694Y180493D01*
X30711Y180605D01*
X30733Y180716D01*
X30758Y180826D01*
X30788Y180936D01*
X30821Y181044D01*
X30858Y181151D01*
X30898Y181257D01*
X30943Y181361D01*
X30991Y181464D01*
X31042Y181565D01*
X31097Y181664D01*
X31155Y181761D01*
X31217Y181856D01*
X31282Y181949D01*
X31350Y182039D01*
X31421Y182127D01*
X31496Y182213D01*
X31573Y182296D01*
X31653Y182376D01*
X31736Y182453D01*
X31822Y182528D01*
X31910Y182599D01*
X32000Y182667D01*
X32093Y182732D01*
X32188Y182794D01*
X32285Y182852D01*
X32384Y182907D01*
X32485Y182958D01*
X32588Y183006D01*
X32692Y183051D01*
X32798Y183091D01*
X32905Y183128D01*
X33013Y183161D01*
X33123Y183191D01*
X33233Y183216D01*
X33344Y183238D01*
X33456Y183255D01*
X33569Y183269D01*
X33682Y183279D01*
X33795Y183285D01*
X33908Y183287D01*
X34021Y183285D01*
X34134Y183279D01*
X34247Y183269D01*
X34360Y183255D01*
X34472Y183238D01*
X34583Y183216D01*
X34693Y183191D01*
X34803Y183161D01*
X34911Y183128D01*
X35018Y183091D01*
X35124Y183051D01*
X35228Y183006D01*
X35331Y182958D01*
X35432Y182907D01*
X35531Y182852D01*
X35628Y182794D01*
X35723Y182732D01*
X35816Y182667D01*
X35906Y182599D01*
X35994Y182528D01*
X36080Y182453D01*
X36163Y182376D01*
X36243Y182296D01*
X36320Y182213D01*
X36395Y182127D01*
X36466Y182039D01*
X36534Y181949D01*
X36599Y181856D01*
X36661Y181761D01*
X36719Y181664D01*
X36774Y181565D01*
X36825Y181464D01*
X36873Y181361D01*
X36918Y181257D01*
X36958Y181151D01*
X36995Y181044D01*
X37028Y180936D01*
X37058Y180826D01*
X37083Y180716D01*
X37105Y180605D01*
X37122Y180493D01*
X37136Y180380D01*
X37146Y180267D01*
X37152Y180154D01*
X37154Y180041D01*
X37153Y180041D02*
X37153Y176796D01*
X42346Y188169D02*
X30662Y188169D01*
X37153Y192064D01*
X30662Y195959D01*
X42346Y195959D01*
X36504Y201391D02*
X36274Y201394D01*
X36044Y201402D01*
X35815Y201416D01*
X35586Y201435D01*
X35357Y201460D01*
X35129Y201490D01*
X34902Y201525D01*
X34676Y201566D01*
X34451Y201612D01*
X34227Y201664D01*
X34004Y201721D01*
X33783Y201783D01*
X33563Y201851D01*
X33345Y201924D01*
X33129Y202002D01*
X32915Y202085D01*
X32703Y202173D01*
X32492Y202266D01*
X32285Y202365D01*
X32195Y202398D01*
X32106Y202434D01*
X32018Y202474D01*
X31933Y202518D01*
X31849Y202565D01*
X31767Y202615D01*
X31687Y202669D01*
X31610Y202725D01*
X31534Y202785D01*
X31461Y202848D01*
X31391Y202913D01*
X31323Y202982D01*
X31259Y203053D01*
X31197Y203126D01*
X31138Y203202D01*
X31082Y203280D01*
X31029Y203361D01*
X30980Y203443D01*
X30934Y203527D01*
X30891Y203614D01*
X30852Y203701D01*
X30816Y203791D01*
X30784Y203881D01*
X30756Y203973D01*
X30731Y204066D01*
X30710Y204160D01*
X30693Y204254D01*
X30679Y204349D01*
X30670Y204445D01*
X30664Y204541D01*
X30662Y204637D01*
X30664Y204733D01*
X30670Y204829D01*
X30679Y204925D01*
X30693Y205020D01*
X30710Y205114D01*
X30731Y205208D01*
X30756Y205301D01*
X30784Y205393D01*
X30816Y205483D01*
X30852Y205573D01*
X30891Y205661D01*
X30934Y205747D01*
X30980Y205831D01*
X31029Y205913D01*
X31082Y205994D01*
X31138Y206072D01*
X31197Y206148D01*
X31259Y206221D01*
X31323Y206292D01*
X31391Y206361D01*
X31461Y206426D01*
X31534Y206489D01*
X31610Y206549D01*
X31687Y206605D01*
X31767Y206659D01*
X31849Y206709D01*
X31933Y206756D01*
X32018Y206800D01*
X32106Y206840D01*
X32195Y206876D01*
X32285Y206909D01*
X32492Y207008D01*
X32703Y207101D01*
X32915Y207189D01*
X33129Y207272D01*
X33345Y207350D01*
X33563Y207423D01*
X33783Y207491D01*
X34004Y207553D01*
X34227Y207610D01*
X34451Y207662D01*
X34676Y207708D01*
X34902Y207749D01*
X35129Y207784D01*
X35357Y207814D01*
X35586Y207839D01*
X35815Y207858D01*
X36044Y207872D01*
X36274Y207880D01*
X36504Y207883D01*
X36504Y201391D02*
X36734Y201394D01*
X36964Y201402D01*
X37193Y201416D01*
X37422Y201435D01*
X37651Y201460D01*
X37879Y201490D01*
X38106Y201525D01*
X38332Y201566D01*
X38557Y201612D01*
X38781Y201664D01*
X39004Y201721D01*
X39225Y201783D01*
X39445Y201851D01*
X39663Y201924D01*
X39879Y202002D01*
X40093Y202085D01*
X40305Y202173D01*
X40516Y202266D01*
X40723Y202365D01*
X40813Y202398D01*
X40902Y202434D01*
X40990Y202475D01*
X41075Y202518D01*
X41159Y202565D01*
X41241Y202615D01*
X41321Y202669D01*
X41398Y202725D01*
X41474Y202785D01*
X41547Y202848D01*
X41617Y202913D01*
X41685Y202982D01*
X41749Y203053D01*
X41811Y203126D01*
X41870Y203202D01*
X41926Y203280D01*
X41979Y203361D01*
X42028Y203443D01*
X42074Y203527D01*
X42117Y203614D01*
X42156Y203701D01*
X42192Y203791D01*
X42224Y203881D01*
X42252Y203973D01*
X42277Y204066D01*
X42298Y204160D01*
X42315Y204254D01*
X42329Y204349D01*
X42338Y204445D01*
X42344Y204541D01*
X42346Y204637D01*
X40723Y206909D02*
X40516Y207008D01*
X40305Y207101D01*
X40093Y207189D01*
X39879Y207272D01*
X39663Y207350D01*
X39445Y207423D01*
X39225Y207491D01*
X39004Y207553D01*
X38781Y207610D01*
X38557Y207662D01*
X38332Y207708D01*
X38106Y207749D01*
X37879Y207784D01*
X37651Y207814D01*
X37422Y207839D01*
X37193Y207858D01*
X36964Y207872D01*
X36734Y207880D01*
X36504Y207883D01*
X40723Y206909D02*
X40813Y206876D01*
X40902Y206840D01*
X40990Y206800D01*
X41075Y206756D01*
X41159Y206709D01*
X41241Y206659D01*
X41321Y206605D01*
X41398Y206549D01*
X41474Y206489D01*
X41547Y206426D01*
X41617Y206361D01*
X41685Y206292D01*
X41749Y206221D01*
X41811Y206148D01*
X41870Y206072D01*
X41926Y205994D01*
X41979Y205913D01*
X42028Y205831D01*
X42074Y205747D01*
X42117Y205660D01*
X42156Y205573D01*
X42192Y205483D01*
X42224Y205393D01*
X42252Y205301D01*
X42277Y205208D01*
X42298Y205114D01*
X42315Y205020D01*
X42329Y204925D01*
X42338Y204829D01*
X42344Y204733D01*
X42346Y204637D01*
X39750Y202040D02*
X33259Y207233D01*
X33259Y212821D02*
X30662Y216067D01*
X42346Y216067D01*
X42346Y219312D02*
X42346Y212821D01*
D13*
X277592Y327838D02*
X326868Y327838D01*
X277592Y327838D02*
X277592Y303454D01*
X326868Y303454D01*
X326868Y327838D01*
D15*
X275118Y307223D02*
X274328Y306235D01*
X275118Y307223D02*
X271562Y307223D01*
X271562Y306235D02*
X271562Y308211D01*
X273340Y309893D02*
X273442Y309895D01*
X273544Y309900D01*
X273646Y309909D01*
X273748Y309921D01*
X273849Y309937D01*
X273949Y309957D01*
X274049Y309980D01*
X274147Y310006D01*
X274245Y310036D01*
X274342Y310070D01*
X274437Y310106D01*
X274531Y310146D01*
X274624Y310189D01*
X274624Y310190D02*
X274674Y310209D01*
X274722Y310231D01*
X274769Y310258D01*
X274813Y310287D01*
X274855Y310320D01*
X274895Y310355D01*
X274932Y310394D01*
X274966Y310435D01*
X274997Y310478D01*
X275025Y310524D01*
X275049Y310571D01*
X275070Y310620D01*
X275087Y310671D01*
X275101Y310722D01*
X275110Y310775D01*
X275116Y310828D01*
X275118Y310881D01*
X275116Y310934D01*
X275110Y310987D01*
X275101Y311040D01*
X275087Y311091D01*
X275070Y311142D01*
X275049Y311191D01*
X275025Y311238D01*
X274997Y311284D01*
X274966Y311327D01*
X274932Y311368D01*
X274895Y311407D01*
X274855Y311442D01*
X274813Y311475D01*
X274769Y311505D01*
X274722Y311531D01*
X274674Y311553D01*
X274624Y311572D01*
X274531Y311615D01*
X274437Y311655D01*
X274342Y311691D01*
X274245Y311725D01*
X274147Y311755D01*
X274049Y311781D01*
X273949Y311804D01*
X273849Y311824D01*
X273748Y311840D01*
X273646Y311852D01*
X273544Y311861D01*
X273442Y311866D01*
X273340Y311868D01*
X273340Y309893D02*
X273238Y309895D01*
X273136Y309900D01*
X273034Y309909D01*
X272932Y309921D01*
X272831Y309937D01*
X272731Y309957D01*
X272631Y309980D01*
X272532Y310006D01*
X272435Y310036D01*
X272338Y310070D01*
X272243Y310106D01*
X272148Y310146D01*
X272056Y310189D01*
X272056Y310190D02*
X272006Y310209D01*
X271958Y310231D01*
X271911Y310258D01*
X271867Y310287D01*
X271825Y310320D01*
X271785Y310355D01*
X271748Y310394D01*
X271714Y310435D01*
X271683Y310478D01*
X271655Y310524D01*
X271631Y310571D01*
X271610Y310620D01*
X271593Y310671D01*
X271579Y310722D01*
X271570Y310775D01*
X271564Y310828D01*
X271562Y310881D01*
X272056Y311573D02*
X272148Y311616D01*
X272243Y311656D01*
X272338Y311692D01*
X272435Y311726D01*
X272532Y311756D01*
X272631Y311782D01*
X272731Y311805D01*
X272831Y311825D01*
X272932Y311841D01*
X273034Y311853D01*
X273136Y311862D01*
X273238Y311867D01*
X273340Y311869D01*
X272056Y311572D02*
X272006Y311553D01*
X271958Y311531D01*
X271911Y311504D01*
X271867Y311475D01*
X271825Y311442D01*
X271785Y311407D01*
X271748Y311368D01*
X271714Y311327D01*
X271683Y311284D01*
X271655Y311238D01*
X271631Y311191D01*
X271610Y311142D01*
X271593Y311091D01*
X271579Y311040D01*
X271570Y310987D01*
X271564Y310934D01*
X271562Y310881D01*
X272353Y310091D02*
X274328Y311671D01*
X273340Y313551D02*
X273442Y313553D01*
X273544Y313558D01*
X273646Y313567D01*
X273748Y313579D01*
X273849Y313595D01*
X273949Y313615D01*
X274049Y313638D01*
X274147Y313664D01*
X274245Y313694D01*
X274342Y313728D01*
X274437Y313764D01*
X274531Y313804D01*
X274624Y313847D01*
X274674Y313866D01*
X274722Y313888D01*
X274769Y313915D01*
X274813Y313944D01*
X274855Y313977D01*
X274895Y314012D01*
X274932Y314051D01*
X274966Y314092D01*
X274997Y314135D01*
X275025Y314181D01*
X275049Y314228D01*
X275070Y314277D01*
X275087Y314328D01*
X275101Y314379D01*
X275110Y314432D01*
X275116Y314485D01*
X275118Y314538D01*
X275116Y314591D01*
X275110Y314644D01*
X275101Y314697D01*
X275087Y314748D01*
X275070Y314799D01*
X275049Y314848D01*
X275025Y314895D01*
X274997Y314941D01*
X274966Y314984D01*
X274932Y315025D01*
X274895Y315064D01*
X274855Y315099D01*
X274813Y315132D01*
X274769Y315162D01*
X274722Y315188D01*
X274674Y315210D01*
X274624Y315229D01*
X274624Y315230D02*
X274531Y315273D01*
X274437Y315313D01*
X274342Y315349D01*
X274245Y315383D01*
X274147Y315413D01*
X274049Y315439D01*
X273949Y315462D01*
X273849Y315482D01*
X273748Y315498D01*
X273646Y315510D01*
X273544Y315519D01*
X273442Y315524D01*
X273340Y315526D01*
X273340Y313550D02*
X273238Y313552D01*
X273136Y313557D01*
X273034Y313566D01*
X272932Y313578D01*
X272831Y313594D01*
X272731Y313614D01*
X272631Y313637D01*
X272532Y313663D01*
X272435Y313693D01*
X272338Y313727D01*
X272243Y313763D01*
X272148Y313803D01*
X272056Y313846D01*
X272056Y313847D02*
X272006Y313866D01*
X271958Y313888D01*
X271911Y313915D01*
X271867Y313944D01*
X271825Y313977D01*
X271785Y314012D01*
X271748Y314051D01*
X271714Y314092D01*
X271683Y314135D01*
X271655Y314181D01*
X271631Y314228D01*
X271610Y314277D01*
X271593Y314328D01*
X271579Y314379D01*
X271570Y314432D01*
X271564Y314485D01*
X271562Y314538D01*
X272056Y315230D02*
X272148Y315273D01*
X272243Y315313D01*
X272338Y315349D01*
X272435Y315383D01*
X272532Y315413D01*
X272631Y315439D01*
X272731Y315462D01*
X272831Y315482D01*
X272932Y315498D01*
X273034Y315510D01*
X273136Y315519D01*
X273238Y315524D01*
X273340Y315526D01*
X272056Y315229D02*
X272006Y315210D01*
X271958Y315188D01*
X271911Y315161D01*
X271867Y315132D01*
X271825Y315099D01*
X271785Y315064D01*
X271748Y315025D01*
X271714Y314984D01*
X271683Y314941D01*
X271655Y314895D01*
X271631Y314848D01*
X271610Y314799D01*
X271593Y314748D01*
X271579Y314697D01*
X271570Y314644D01*
X271564Y314591D01*
X271562Y314538D01*
X272353Y313748D02*
X274328Y315329D01*
X273933Y317284D02*
X272155Y317284D01*
X272155Y317283D02*
X272108Y317285D01*
X272062Y317290D01*
X272017Y317299D01*
X271972Y317312D01*
X271928Y317328D01*
X271886Y317348D01*
X271845Y317370D01*
X271806Y317396D01*
X271770Y317425D01*
X271736Y317457D01*
X271704Y317491D01*
X271675Y317527D01*
X271649Y317566D01*
X271627Y317607D01*
X271607Y317649D01*
X271591Y317693D01*
X271578Y317738D01*
X271569Y317783D01*
X271564Y317829D01*
X271562Y317876D01*
X271562Y318864D01*
X273933Y318864D01*
X274526Y320764D02*
X271562Y320764D01*
X274526Y320764D02*
X274573Y320766D01*
X274619Y320771D01*
X274664Y320780D01*
X274709Y320793D01*
X274753Y320809D01*
X274795Y320829D01*
X274836Y320851D01*
X274875Y320877D01*
X274911Y320906D01*
X274945Y320938D01*
X274977Y320972D01*
X275006Y321008D01*
X275032Y321047D01*
X275054Y321088D01*
X275074Y321130D01*
X275090Y321174D01*
X275103Y321219D01*
X275112Y321264D01*
X275117Y321310D01*
X275119Y321357D01*
X275118Y321357D02*
X275118Y321554D01*
X273933Y321554D02*
X273933Y320369D01*
D12*
X419054Y460142D02*
X420112Y459296D01*
X419054Y460142D02*
X419054Y456332D01*
X420112Y456332D02*
X417995Y456332D01*
X416455Y458237D02*
X416453Y458347D01*
X416447Y458456D01*
X416438Y458565D01*
X416424Y458674D01*
X416407Y458782D01*
X416386Y458890D01*
X416362Y458996D01*
X416333Y459102D01*
X416301Y459207D01*
X416266Y459311D01*
X416227Y459413D01*
X416184Y459514D01*
X416137Y459613D01*
X416117Y459663D01*
X416095Y459712D01*
X416069Y459760D01*
X416040Y459805D01*
X416007Y459848D01*
X415972Y459889D01*
X415934Y459928D01*
X415894Y459963D01*
X415851Y459996D01*
X415806Y460026D01*
X415759Y460053D01*
X415711Y460076D01*
X415661Y460096D01*
X415609Y460112D01*
X415557Y460125D01*
X415504Y460135D01*
X415450Y460140D01*
X415396Y460142D01*
X415342Y460140D01*
X415288Y460135D01*
X415235Y460125D01*
X415183Y460112D01*
X415131Y460096D01*
X415081Y460076D01*
X415033Y460053D01*
X414986Y460026D01*
X414941Y459996D01*
X414898Y459963D01*
X414858Y459928D01*
X414820Y459889D01*
X414785Y459848D01*
X414752Y459805D01*
X414723Y459760D01*
X414697Y459712D01*
X414675Y459663D01*
X414655Y459613D01*
X414608Y459514D01*
X414565Y459413D01*
X414526Y459311D01*
X414491Y459207D01*
X414459Y459102D01*
X414430Y458996D01*
X414406Y458890D01*
X414385Y458782D01*
X414368Y458674D01*
X414354Y458565D01*
X414345Y458456D01*
X414339Y458347D01*
X414337Y458237D01*
X416454Y458237D02*
X416452Y458127D01*
X416446Y458018D01*
X416437Y457909D01*
X416423Y457800D01*
X416406Y457692D01*
X416385Y457584D01*
X416361Y457478D01*
X416332Y457372D01*
X416300Y457267D01*
X416265Y457164D01*
X416226Y457061D01*
X416183Y456960D01*
X416136Y456861D01*
X416137Y456862D02*
X416117Y456812D01*
X416095Y456763D01*
X416069Y456715D01*
X416040Y456670D01*
X416007Y456627D01*
X415972Y456586D01*
X415934Y456547D01*
X415894Y456512D01*
X415851Y456479D01*
X415806Y456449D01*
X415759Y456422D01*
X415711Y456399D01*
X415661Y456379D01*
X415609Y456363D01*
X415557Y456350D01*
X415504Y456340D01*
X415450Y456335D01*
X415396Y456333D01*
X414655Y456861D02*
X414608Y456960D01*
X414565Y457061D01*
X414526Y457164D01*
X414491Y457267D01*
X414459Y457372D01*
X414430Y457478D01*
X414406Y457584D01*
X414385Y457692D01*
X414368Y457800D01*
X414354Y457909D01*
X414345Y458018D01*
X414339Y458127D01*
X414337Y458237D01*
X414655Y456862D02*
X414675Y456812D01*
X414697Y456763D01*
X414723Y456715D01*
X414752Y456670D01*
X414785Y456627D01*
X414820Y456586D01*
X414858Y456547D01*
X414898Y456512D01*
X414941Y456479D01*
X414986Y456449D01*
X415033Y456422D01*
X415081Y456399D01*
X415132Y456379D01*
X415183Y456363D01*
X415235Y456350D01*
X415288Y456340D01*
X415342Y456335D01*
X415396Y456333D01*
X416243Y457179D02*
X414549Y459296D01*
X412668Y460142D02*
X412668Y456332D01*
X412668Y457602D02*
X410975Y458872D01*
X411928Y458132D02*
X410975Y456332D01*
D10*
X332758Y271888D02*
X332758Y219888D01*
X369758Y220088D02*
X369758Y271888D01*
D11*
X442758Y219388D02*
X208958Y219388D01*
X442758Y219388D02*
X442758Y272388D01*
X208958Y272388D01*
X208958Y219388D01*
X235608Y231388D02*
X442008Y231388D01*
D12*
X303399Y246664D02*
X303399Y248358D01*
X303398Y248358D02*
X303396Y248422D01*
X303390Y248486D01*
X303381Y248549D01*
X303367Y248611D01*
X303350Y248673D01*
X303329Y248733D01*
X303305Y248792D01*
X303277Y248850D01*
X303245Y248905D01*
X303211Y248959D01*
X303173Y249010D01*
X303132Y249060D01*
X303088Y249106D01*
X303042Y249150D01*
X302992Y249191D01*
X302941Y249229D01*
X302887Y249263D01*
X302832Y249295D01*
X302774Y249323D01*
X302715Y249347D01*
X302655Y249368D01*
X302593Y249385D01*
X302531Y249399D01*
X302468Y249408D01*
X302404Y249414D01*
X302340Y249416D01*
X302276Y249414D01*
X302212Y249408D01*
X302149Y249399D01*
X302087Y249385D01*
X302025Y249368D01*
X301965Y249347D01*
X301906Y249323D01*
X301848Y249295D01*
X301793Y249263D01*
X301739Y249229D01*
X301688Y249191D01*
X301638Y249150D01*
X301592Y249106D01*
X301548Y249060D01*
X301507Y249010D01*
X301469Y248959D01*
X301435Y248905D01*
X301403Y248850D01*
X301375Y248792D01*
X301351Y248733D01*
X301330Y248673D01*
X301313Y248611D01*
X301299Y248549D01*
X301290Y248486D01*
X301284Y248422D01*
X301282Y248358D01*
X301282Y246664D01*
X301284Y246600D01*
X301290Y246536D01*
X301299Y246473D01*
X301313Y246411D01*
X301330Y246349D01*
X301351Y246289D01*
X301375Y246230D01*
X301403Y246172D01*
X301435Y246117D01*
X301469Y246063D01*
X301507Y246012D01*
X301548Y245962D01*
X301592Y245916D01*
X301638Y245872D01*
X301688Y245831D01*
X301739Y245793D01*
X301793Y245759D01*
X301848Y245727D01*
X301906Y245699D01*
X301965Y245675D01*
X302025Y245654D01*
X302087Y245637D01*
X302149Y245623D01*
X302212Y245614D01*
X302276Y245608D01*
X302340Y245606D01*
X302404Y245608D01*
X302468Y245614D01*
X302531Y245623D01*
X302593Y245637D01*
X302655Y245654D01*
X302715Y245675D01*
X302774Y245699D01*
X302832Y245727D01*
X302887Y245759D01*
X302941Y245793D01*
X302992Y245831D01*
X303042Y245872D01*
X303088Y245916D01*
X303132Y245962D01*
X303173Y246012D01*
X303211Y246063D01*
X303245Y246117D01*
X303277Y246172D01*
X303305Y246230D01*
X303329Y246289D01*
X303350Y246349D01*
X303367Y246411D01*
X303381Y246473D01*
X303390Y246536D01*
X303396Y246600D01*
X303398Y246664D01*
X299587Y245606D02*
X299587Y249416D01*
X298317Y247299D01*
X297047Y249416D01*
X297047Y245606D01*
X295209Y245606D02*
X295209Y249416D01*
X294151Y249416D01*
X294087Y249414D01*
X294023Y249408D01*
X293960Y249399D01*
X293898Y249385D01*
X293836Y249368D01*
X293776Y249347D01*
X293717Y249323D01*
X293659Y249295D01*
X293604Y249263D01*
X293550Y249229D01*
X293499Y249191D01*
X293449Y249150D01*
X293403Y249106D01*
X293359Y249060D01*
X293318Y249010D01*
X293280Y248959D01*
X293246Y248905D01*
X293214Y248850D01*
X293186Y248792D01*
X293162Y248733D01*
X293141Y248673D01*
X293124Y248611D01*
X293110Y248549D01*
X293101Y248486D01*
X293095Y248422D01*
X293093Y248358D01*
X293095Y248294D01*
X293101Y248230D01*
X293110Y248167D01*
X293124Y248105D01*
X293141Y248043D01*
X293162Y247983D01*
X293186Y247924D01*
X293214Y247866D01*
X293246Y247811D01*
X293280Y247757D01*
X293318Y247706D01*
X293359Y247656D01*
X293403Y247610D01*
X293449Y247566D01*
X293499Y247525D01*
X293550Y247487D01*
X293604Y247453D01*
X293659Y247421D01*
X293717Y247393D01*
X293776Y247369D01*
X293836Y247348D01*
X293898Y247331D01*
X293960Y247317D01*
X294023Y247308D01*
X294087Y247302D01*
X294151Y247300D01*
X294151Y247299D02*
X295209Y247299D01*
X293939Y247299D02*
X293092Y245606D01*
X291573Y246664D02*
X291573Y248358D01*
X291572Y248358D02*
X291570Y248422D01*
X291564Y248486D01*
X291555Y248549D01*
X291541Y248611D01*
X291524Y248673D01*
X291503Y248733D01*
X291479Y248792D01*
X291451Y248850D01*
X291419Y248905D01*
X291385Y248959D01*
X291347Y249010D01*
X291306Y249060D01*
X291262Y249106D01*
X291216Y249150D01*
X291166Y249191D01*
X291115Y249229D01*
X291061Y249263D01*
X291006Y249295D01*
X290948Y249323D01*
X290889Y249347D01*
X290829Y249368D01*
X290767Y249385D01*
X290705Y249399D01*
X290642Y249408D01*
X290578Y249414D01*
X290514Y249416D01*
X290450Y249414D01*
X290386Y249408D01*
X290323Y249399D01*
X290261Y249385D01*
X290199Y249368D01*
X290139Y249347D01*
X290080Y249323D01*
X290022Y249295D01*
X289967Y249263D01*
X289913Y249229D01*
X289862Y249191D01*
X289812Y249150D01*
X289766Y249106D01*
X289722Y249060D01*
X289681Y249010D01*
X289643Y248959D01*
X289609Y248905D01*
X289577Y248850D01*
X289549Y248792D01*
X289525Y248733D01*
X289504Y248673D01*
X289487Y248611D01*
X289473Y248549D01*
X289464Y248486D01*
X289458Y248422D01*
X289456Y248358D01*
X289456Y246664D01*
X289458Y246600D01*
X289464Y246536D01*
X289473Y246473D01*
X289487Y246411D01*
X289504Y246349D01*
X289525Y246289D01*
X289549Y246230D01*
X289577Y246172D01*
X289609Y246117D01*
X289643Y246063D01*
X289681Y246012D01*
X289722Y245962D01*
X289766Y245916D01*
X289812Y245872D01*
X289862Y245831D01*
X289913Y245793D01*
X289967Y245759D01*
X290022Y245727D01*
X290080Y245699D01*
X290139Y245675D01*
X290199Y245654D01*
X290261Y245637D01*
X290323Y245623D01*
X290386Y245614D01*
X290450Y245608D01*
X290514Y245606D01*
X290578Y245608D01*
X290642Y245614D01*
X290705Y245623D01*
X290767Y245637D01*
X290829Y245654D01*
X290889Y245675D01*
X290948Y245699D01*
X291006Y245727D01*
X291061Y245759D01*
X291115Y245793D01*
X291166Y245831D01*
X291216Y245872D01*
X291262Y245916D01*
X291306Y245962D01*
X291347Y246012D01*
X291385Y246063D01*
X291419Y246117D01*
X291451Y246172D01*
X291479Y246230D01*
X291503Y246289D01*
X291524Y246349D01*
X291541Y246411D01*
X291555Y246473D01*
X291564Y246536D01*
X291570Y246600D01*
X291572Y246664D01*
X287793Y245606D02*
X287793Y249416D01*
X285676Y245606D01*
X285676Y249416D01*
X283981Y247088D02*
X281441Y247088D01*
X278265Y247723D02*
X277630Y247723D01*
X277630Y245606D01*
X278900Y245606D01*
X278955Y245608D01*
X279011Y245613D01*
X279065Y245622D01*
X279119Y245635D01*
X279172Y245651D01*
X279224Y245670D01*
X279275Y245693D01*
X279324Y245719D01*
X279371Y245749D01*
X279416Y245781D01*
X279458Y245816D01*
X279499Y245854D01*
X279537Y245895D01*
X279572Y245937D01*
X279604Y245982D01*
X279634Y246030D01*
X279660Y246078D01*
X279683Y246129D01*
X279702Y246181D01*
X279718Y246234D01*
X279731Y246288D01*
X279740Y246342D01*
X279745Y246398D01*
X279747Y246453D01*
X279746Y246453D02*
X279746Y248569D01*
X279747Y248569D02*
X279745Y248627D01*
X279739Y248684D01*
X279729Y248741D01*
X279716Y248798D01*
X279698Y248853D01*
X279677Y248906D01*
X279652Y248959D01*
X279624Y249009D01*
X279592Y249057D01*
X279557Y249104D01*
X279519Y249147D01*
X279478Y249188D01*
X279435Y249226D01*
X279388Y249261D01*
X279340Y249293D01*
X279290Y249321D01*
X279237Y249346D01*
X279184Y249367D01*
X279129Y249385D01*
X279072Y249398D01*
X279015Y249408D01*
X278958Y249414D01*
X278900Y249416D01*
X277630Y249416D01*
X275967Y245606D02*
X274909Y245606D01*
X274845Y245608D01*
X274781Y245614D01*
X274718Y245623D01*
X274656Y245637D01*
X274594Y245654D01*
X274534Y245675D01*
X274475Y245699D01*
X274417Y245727D01*
X274362Y245759D01*
X274308Y245793D01*
X274257Y245831D01*
X274207Y245872D01*
X274161Y245916D01*
X274117Y245962D01*
X274076Y246012D01*
X274038Y246063D01*
X274004Y246117D01*
X273972Y246172D01*
X273944Y246230D01*
X273920Y246289D01*
X273899Y246349D01*
X273882Y246411D01*
X273868Y246473D01*
X273859Y246536D01*
X273853Y246600D01*
X273851Y246664D01*
X273853Y246728D01*
X273859Y246792D01*
X273868Y246855D01*
X273882Y246917D01*
X273899Y246979D01*
X273920Y247039D01*
X273944Y247098D01*
X273972Y247156D01*
X274004Y247211D01*
X274038Y247265D01*
X274076Y247316D01*
X274117Y247366D01*
X274161Y247412D01*
X274207Y247456D01*
X274257Y247497D01*
X274308Y247535D01*
X274362Y247569D01*
X274417Y247601D01*
X274475Y247629D01*
X274534Y247653D01*
X274594Y247674D01*
X274656Y247691D01*
X274718Y247705D01*
X274781Y247714D01*
X274845Y247720D01*
X274909Y247722D01*
X274697Y249416D02*
X275967Y249416D01*
X274697Y249416D02*
X274640Y249414D01*
X274584Y249408D01*
X274528Y249399D01*
X274473Y249386D01*
X274419Y249369D01*
X274366Y249349D01*
X274315Y249325D01*
X274265Y249298D01*
X274218Y249267D01*
X274172Y249234D01*
X274129Y249197D01*
X274088Y249158D01*
X274050Y249116D01*
X274015Y249071D01*
X273983Y249025D01*
X273954Y248976D01*
X273929Y248926D01*
X273907Y248873D01*
X273888Y248820D01*
X273873Y248765D01*
X273862Y248710D01*
X273854Y248654D01*
X273850Y248597D01*
X273850Y248541D01*
X273854Y248484D01*
X273862Y248428D01*
X273873Y248373D01*
X273888Y248318D01*
X273907Y248265D01*
X273929Y248212D01*
X273954Y248162D01*
X273983Y248113D01*
X274015Y248067D01*
X274050Y248022D01*
X274088Y247980D01*
X274129Y247941D01*
X274172Y247904D01*
X274218Y247871D01*
X274265Y247840D01*
X274315Y247813D01*
X274366Y247789D01*
X274419Y247769D01*
X274473Y247752D01*
X274528Y247739D01*
X274584Y247730D01*
X274640Y247724D01*
X274697Y247722D01*
X274697Y247723D02*
X275544Y247723D01*
X272155Y249416D02*
X272155Y245606D01*
X270885Y247299D02*
X272155Y249416D01*
X270885Y247299D02*
X269615Y249416D01*
X269615Y245606D01*
X267750Y247723D02*
X266692Y247723D01*
X266692Y247722D02*
X266628Y247720D01*
X266564Y247714D01*
X266501Y247705D01*
X266439Y247691D01*
X266377Y247674D01*
X266317Y247653D01*
X266258Y247629D01*
X266200Y247601D01*
X266145Y247569D01*
X266091Y247535D01*
X266040Y247497D01*
X265990Y247456D01*
X265944Y247412D01*
X265900Y247366D01*
X265859Y247316D01*
X265821Y247265D01*
X265787Y247211D01*
X265755Y247156D01*
X265727Y247098D01*
X265703Y247039D01*
X265682Y246979D01*
X265665Y246917D01*
X265651Y246855D01*
X265642Y246792D01*
X265636Y246728D01*
X265634Y246664D01*
X265636Y246600D01*
X265642Y246536D01*
X265651Y246473D01*
X265665Y246411D01*
X265682Y246349D01*
X265703Y246289D01*
X265727Y246230D01*
X265755Y246172D01*
X265787Y246117D01*
X265821Y246063D01*
X265859Y246012D01*
X265900Y245962D01*
X265944Y245916D01*
X265990Y245872D01*
X266040Y245831D01*
X266091Y245793D01*
X266145Y245759D01*
X266200Y245727D01*
X266258Y245699D01*
X266317Y245675D01*
X266377Y245654D01*
X266439Y245637D01*
X266501Y245623D01*
X266564Y245614D01*
X266628Y245608D01*
X266692Y245606D01*
X267750Y245606D01*
X267750Y249416D01*
X266692Y249416D01*
X266635Y249414D01*
X266579Y249408D01*
X266523Y249399D01*
X266468Y249386D01*
X266414Y249369D01*
X266361Y249349D01*
X266310Y249325D01*
X266260Y249298D01*
X266213Y249267D01*
X266167Y249234D01*
X266124Y249197D01*
X266083Y249158D01*
X266045Y249116D01*
X266010Y249071D01*
X265978Y249025D01*
X265949Y248976D01*
X265924Y248926D01*
X265902Y248873D01*
X265883Y248820D01*
X265868Y248765D01*
X265857Y248710D01*
X265849Y248654D01*
X265845Y248597D01*
X265845Y248541D01*
X265849Y248484D01*
X265857Y248428D01*
X265868Y248373D01*
X265883Y248318D01*
X265902Y248265D01*
X265924Y248212D01*
X265949Y248162D01*
X265978Y248113D01*
X266010Y248067D01*
X266045Y248022D01*
X266083Y247980D01*
X266124Y247941D01*
X266167Y247904D01*
X266213Y247871D01*
X266260Y247840D01*
X266310Y247813D01*
X266361Y247789D01*
X266414Y247769D01*
X266468Y247752D01*
X266523Y247739D01*
X266579Y247730D01*
X266635Y247724D01*
X266692Y247722D01*
X264230Y247088D02*
X261690Y247088D01*
X258953Y249416D02*
X258893Y249414D01*
X258834Y249408D01*
X258774Y249399D01*
X258716Y249386D01*
X258659Y249369D01*
X258602Y249349D01*
X258547Y249325D01*
X258494Y249298D01*
X258442Y249268D01*
X258393Y249234D01*
X258346Y249197D01*
X258301Y249158D01*
X258258Y249115D01*
X258219Y249070D01*
X258182Y249023D01*
X258148Y248974D01*
X258118Y248922D01*
X258091Y248869D01*
X258067Y248814D01*
X258047Y248757D01*
X258030Y248700D01*
X258017Y248642D01*
X258008Y248582D01*
X258002Y248523D01*
X258000Y248463D01*
X258953Y249416D02*
X259020Y249414D01*
X259087Y249409D01*
X259153Y249400D01*
X259219Y249387D01*
X259283Y249371D01*
X259347Y249351D01*
X259410Y249327D01*
X259472Y249301D01*
X259531Y249271D01*
X259589Y249238D01*
X259646Y249201D01*
X259700Y249162D01*
X259752Y249120D01*
X259801Y249075D01*
X259848Y249027D01*
X259892Y248977D01*
X259934Y248924D01*
X259972Y248869D01*
X260008Y248813D01*
X260040Y248754D01*
X260069Y248694D01*
X260095Y248632D01*
X260117Y248569D01*
X258318Y247722D02*
X258277Y247764D01*
X258238Y247809D01*
X258201Y247855D01*
X258167Y247904D01*
X258136Y247954D01*
X258109Y248006D01*
X258084Y248060D01*
X258062Y248115D01*
X258043Y248171D01*
X258028Y248228D01*
X258016Y248286D01*
X258008Y248345D01*
X258003Y248404D01*
X258001Y248463D01*
X258318Y247723D02*
X260117Y245606D01*
X258001Y245606D01*
X256460Y247511D02*
X256458Y247621D01*
X256452Y247730D01*
X256443Y247839D01*
X256429Y247948D01*
X256412Y248056D01*
X256391Y248164D01*
X256367Y248270D01*
X256338Y248376D01*
X256306Y248481D01*
X256271Y248585D01*
X256232Y248687D01*
X256189Y248788D01*
X256142Y248887D01*
X256122Y248937D01*
X256100Y248986D01*
X256074Y249034D01*
X256045Y249079D01*
X256012Y249122D01*
X255977Y249163D01*
X255939Y249202D01*
X255899Y249237D01*
X255856Y249270D01*
X255811Y249300D01*
X255764Y249327D01*
X255716Y249350D01*
X255666Y249370D01*
X255614Y249386D01*
X255562Y249399D01*
X255509Y249409D01*
X255455Y249414D01*
X255401Y249416D01*
X255347Y249414D01*
X255293Y249409D01*
X255240Y249399D01*
X255188Y249386D01*
X255136Y249370D01*
X255086Y249350D01*
X255038Y249327D01*
X254991Y249300D01*
X254946Y249270D01*
X254903Y249237D01*
X254863Y249202D01*
X254825Y249163D01*
X254790Y249122D01*
X254757Y249079D01*
X254728Y249034D01*
X254702Y248986D01*
X254680Y248937D01*
X254660Y248887D01*
X254661Y248887D02*
X254614Y248788D01*
X254571Y248687D01*
X254532Y248585D01*
X254497Y248481D01*
X254465Y248376D01*
X254436Y248270D01*
X254412Y248164D01*
X254391Y248056D01*
X254374Y247948D01*
X254360Y247839D01*
X254351Y247730D01*
X254345Y247621D01*
X254343Y247511D01*
X256460Y247511D02*
X256458Y247401D01*
X256452Y247292D01*
X256443Y247183D01*
X256429Y247074D01*
X256412Y246966D01*
X256391Y246858D01*
X256367Y246752D01*
X256338Y246646D01*
X256306Y246541D01*
X256271Y246438D01*
X256232Y246335D01*
X256189Y246234D01*
X256142Y246135D01*
X256122Y246085D01*
X256100Y246036D01*
X256074Y245988D01*
X256045Y245943D01*
X256012Y245900D01*
X255977Y245859D01*
X255939Y245820D01*
X255899Y245785D01*
X255856Y245752D01*
X255811Y245722D01*
X255764Y245695D01*
X255716Y245672D01*
X255666Y245652D01*
X255614Y245636D01*
X255562Y245623D01*
X255509Y245613D01*
X255455Y245608D01*
X255401Y245606D01*
X254661Y246135D02*
X254614Y246234D01*
X254571Y246335D01*
X254532Y246438D01*
X254497Y246541D01*
X254465Y246646D01*
X254436Y246752D01*
X254412Y246858D01*
X254391Y246966D01*
X254374Y247074D01*
X254360Y247183D01*
X254351Y247292D01*
X254345Y247401D01*
X254343Y247511D01*
X254660Y246135D02*
X254680Y246085D01*
X254702Y246036D01*
X254728Y245988D01*
X254757Y245943D01*
X254790Y245900D01*
X254825Y245859D01*
X254863Y245820D01*
X254903Y245785D01*
X254946Y245752D01*
X254991Y245722D01*
X255038Y245695D01*
X255086Y245672D01*
X255137Y245652D01*
X255188Y245636D01*
X255240Y245623D01*
X255293Y245613D01*
X255347Y245608D01*
X255401Y245606D01*
X256248Y246453D02*
X254555Y248569D01*
X251638Y249416D02*
X251578Y249414D01*
X251519Y249408D01*
X251459Y249399D01*
X251401Y249386D01*
X251344Y249369D01*
X251287Y249349D01*
X251232Y249325D01*
X251179Y249298D01*
X251127Y249268D01*
X251078Y249234D01*
X251031Y249197D01*
X250986Y249158D01*
X250943Y249115D01*
X250904Y249070D01*
X250867Y249023D01*
X250833Y248974D01*
X250803Y248922D01*
X250776Y248869D01*
X250752Y248814D01*
X250732Y248757D01*
X250715Y248700D01*
X250702Y248642D01*
X250693Y248582D01*
X250687Y248523D01*
X250685Y248463D01*
X251638Y249416D02*
X251705Y249414D01*
X251772Y249409D01*
X251838Y249400D01*
X251904Y249387D01*
X251968Y249371D01*
X252032Y249351D01*
X252095Y249327D01*
X252157Y249301D01*
X252216Y249271D01*
X252274Y249238D01*
X252331Y249201D01*
X252385Y249162D01*
X252437Y249120D01*
X252486Y249075D01*
X252533Y249027D01*
X252577Y248977D01*
X252619Y248924D01*
X252657Y248869D01*
X252693Y248813D01*
X252725Y248754D01*
X252754Y248694D01*
X252780Y248632D01*
X252802Y248569D01*
X251003Y247722D02*
X250962Y247764D01*
X250923Y247809D01*
X250886Y247855D01*
X250852Y247904D01*
X250821Y247954D01*
X250794Y248006D01*
X250769Y248060D01*
X250747Y248115D01*
X250728Y248171D01*
X250713Y248228D01*
X250701Y248286D01*
X250693Y248345D01*
X250688Y248404D01*
X250686Y248463D01*
X251003Y247723D02*
X252802Y245606D01*
X250685Y245606D01*
X248974Y245606D02*
X248974Y249416D01*
X247916Y249416D01*
X247852Y249414D01*
X247788Y249408D01*
X247725Y249399D01*
X247663Y249385D01*
X247601Y249368D01*
X247541Y249347D01*
X247482Y249323D01*
X247424Y249295D01*
X247369Y249263D01*
X247315Y249229D01*
X247264Y249191D01*
X247214Y249150D01*
X247168Y249106D01*
X247124Y249060D01*
X247083Y249010D01*
X247045Y248959D01*
X247011Y248905D01*
X246979Y248850D01*
X246951Y248792D01*
X246927Y248733D01*
X246906Y248673D01*
X246889Y248611D01*
X246875Y248549D01*
X246866Y248486D01*
X246860Y248422D01*
X246858Y248358D01*
X246860Y248294D01*
X246866Y248230D01*
X246875Y248167D01*
X246889Y248105D01*
X246906Y248043D01*
X246927Y247983D01*
X246951Y247924D01*
X246979Y247866D01*
X247011Y247811D01*
X247045Y247757D01*
X247083Y247706D01*
X247124Y247656D01*
X247168Y247610D01*
X247214Y247566D01*
X247264Y247525D01*
X247315Y247487D01*
X247369Y247453D01*
X247424Y247421D01*
X247482Y247393D01*
X247541Y247369D01*
X247601Y247348D01*
X247663Y247331D01*
X247725Y247317D01*
X247788Y247308D01*
X247852Y247302D01*
X247916Y247300D01*
X247916Y247299D02*
X248974Y247299D01*
X245455Y247088D02*
X242915Y247088D01*
X240194Y245606D02*
X240139Y245608D01*
X240083Y245613D01*
X240029Y245622D01*
X239975Y245635D01*
X239922Y245651D01*
X239870Y245670D01*
X239819Y245693D01*
X239771Y245719D01*
X239723Y245749D01*
X239678Y245781D01*
X239636Y245816D01*
X239595Y245854D01*
X239557Y245895D01*
X239522Y245937D01*
X239490Y245982D01*
X239460Y246030D01*
X239434Y246078D01*
X239411Y246129D01*
X239392Y246181D01*
X239376Y246234D01*
X239363Y246288D01*
X239354Y246342D01*
X239349Y246398D01*
X239347Y246453D01*
X240194Y245606D02*
X240277Y245608D01*
X240360Y245614D01*
X240442Y245623D01*
X240524Y245637D01*
X240606Y245654D01*
X240686Y245675D01*
X240765Y245700D01*
X240844Y245728D01*
X240920Y245760D01*
X240995Y245796D01*
X241069Y245834D01*
X241140Y245877D01*
X241210Y245922D01*
X241277Y245971D01*
X241342Y246023D01*
X241404Y246078D01*
X241464Y246135D01*
X241358Y248569D02*
X241356Y248624D01*
X241351Y248680D01*
X241342Y248734D01*
X241329Y248788D01*
X241313Y248841D01*
X241294Y248893D01*
X241271Y248944D01*
X241245Y248993D01*
X241215Y249040D01*
X241183Y249085D01*
X241148Y249127D01*
X241110Y249168D01*
X241069Y249206D01*
X241027Y249241D01*
X240982Y249273D01*
X240935Y249303D01*
X240886Y249329D01*
X240835Y249352D01*
X240783Y249371D01*
X240730Y249387D01*
X240676Y249400D01*
X240622Y249409D01*
X240566Y249414D01*
X240511Y249416D01*
X240432Y249414D01*
X240354Y249408D01*
X240276Y249399D01*
X240199Y249385D01*
X240122Y249368D01*
X240046Y249346D01*
X239972Y249322D01*
X239898Y249293D01*
X239827Y249261D01*
X239757Y249225D01*
X239688Y249186D01*
X239622Y249144D01*
X239558Y249098D01*
X240935Y247828D02*
X240982Y247858D01*
X241027Y247891D01*
X241070Y247927D01*
X241110Y247965D01*
X241148Y248006D01*
X241183Y248049D01*
X241215Y248095D01*
X241245Y248142D01*
X241271Y248192D01*
X241294Y248243D01*
X241313Y248295D01*
X241329Y248348D01*
X241342Y248403D01*
X241351Y248458D01*
X241356Y248513D01*
X241358Y248569D01*
X239770Y247194D02*
X239723Y247164D01*
X239678Y247131D01*
X239635Y247095D01*
X239595Y247057D01*
X239557Y247016D01*
X239522Y246973D01*
X239490Y246927D01*
X239460Y246880D01*
X239434Y246830D01*
X239411Y246779D01*
X239392Y246727D01*
X239376Y246674D01*
X239363Y246619D01*
X239354Y246564D01*
X239349Y246509D01*
X239347Y246453D01*
X239770Y247193D02*
X240934Y247828D01*
X236780Y245606D02*
X236725Y245608D01*
X236669Y245613D01*
X236615Y245622D01*
X236561Y245635D01*
X236508Y245651D01*
X236456Y245670D01*
X236405Y245693D01*
X236357Y245719D01*
X236309Y245749D01*
X236264Y245781D01*
X236222Y245816D01*
X236181Y245854D01*
X236143Y245895D01*
X236108Y245937D01*
X236076Y245982D01*
X236046Y246030D01*
X236020Y246078D01*
X235997Y246129D01*
X235978Y246181D01*
X235962Y246234D01*
X235949Y246288D01*
X235940Y246342D01*
X235935Y246398D01*
X235933Y246453D01*
X236780Y245606D02*
X236863Y245608D01*
X236946Y245614D01*
X237028Y245623D01*
X237110Y245637D01*
X237192Y245654D01*
X237272Y245675D01*
X237351Y245700D01*
X237430Y245728D01*
X237506Y245760D01*
X237581Y245796D01*
X237655Y245834D01*
X237726Y245877D01*
X237796Y245922D01*
X237863Y245971D01*
X237928Y246023D01*
X237990Y246078D01*
X238050Y246135D01*
X237944Y248569D02*
X237942Y248624D01*
X237937Y248680D01*
X237928Y248734D01*
X237915Y248788D01*
X237899Y248841D01*
X237880Y248893D01*
X237857Y248944D01*
X237831Y248993D01*
X237801Y249040D01*
X237769Y249085D01*
X237734Y249127D01*
X237696Y249168D01*
X237655Y249206D01*
X237613Y249241D01*
X237568Y249273D01*
X237521Y249303D01*
X237472Y249329D01*
X237421Y249352D01*
X237369Y249371D01*
X237316Y249387D01*
X237262Y249400D01*
X237208Y249409D01*
X237152Y249414D01*
X237097Y249416D01*
X237018Y249414D01*
X236940Y249408D01*
X236862Y249399D01*
X236785Y249385D01*
X236708Y249368D01*
X236632Y249346D01*
X236558Y249322D01*
X236484Y249293D01*
X236413Y249261D01*
X236343Y249225D01*
X236274Y249186D01*
X236208Y249144D01*
X236144Y249098D01*
X237521Y247828D02*
X237568Y247858D01*
X237613Y247891D01*
X237656Y247927D01*
X237696Y247965D01*
X237734Y248006D01*
X237769Y248049D01*
X237801Y248095D01*
X237831Y248142D01*
X237857Y248192D01*
X237880Y248243D01*
X237899Y248295D01*
X237915Y248348D01*
X237928Y248403D01*
X237937Y248458D01*
X237942Y248513D01*
X237944Y248569D01*
X236356Y247194D02*
X236309Y247164D01*
X236264Y247131D01*
X236221Y247095D01*
X236181Y247057D01*
X236143Y247016D01*
X236108Y246973D01*
X236076Y246927D01*
X236046Y246880D01*
X236020Y246830D01*
X235997Y246779D01*
X235978Y246727D01*
X235962Y246674D01*
X235949Y246619D01*
X235940Y246564D01*
X235935Y246509D01*
X235933Y246453D01*
X236357Y247193D02*
X237521Y247828D01*
X234371Y249416D02*
X234371Y245606D01*
X234371Y249416D02*
X233313Y249416D01*
X233249Y249414D01*
X233185Y249408D01*
X233122Y249399D01*
X233060Y249385D01*
X232998Y249368D01*
X232938Y249347D01*
X232879Y249323D01*
X232821Y249295D01*
X232766Y249263D01*
X232712Y249229D01*
X232661Y249191D01*
X232611Y249150D01*
X232565Y249106D01*
X232521Y249060D01*
X232480Y249010D01*
X232442Y248959D01*
X232408Y248905D01*
X232376Y248850D01*
X232348Y248792D01*
X232324Y248733D01*
X232303Y248673D01*
X232286Y248611D01*
X232272Y248549D01*
X232263Y248486D01*
X232257Y248422D01*
X232255Y248358D01*
X232257Y248294D01*
X232263Y248230D01*
X232272Y248167D01*
X232286Y248105D01*
X232303Y248043D01*
X232324Y247983D01*
X232348Y247924D01*
X232376Y247866D01*
X232408Y247811D01*
X232442Y247757D01*
X232480Y247706D01*
X232521Y247656D01*
X232565Y247610D01*
X232611Y247566D01*
X232661Y247525D01*
X232712Y247487D01*
X232766Y247453D01*
X232821Y247421D01*
X232879Y247393D01*
X232938Y247369D01*
X232998Y247348D01*
X233060Y247331D01*
X233122Y247317D01*
X233185Y247308D01*
X233249Y247302D01*
X233313Y247300D01*
X233313Y247299D02*
X234371Y247299D01*
X233101Y247299D02*
X232255Y245606D01*
X228618Y248463D02*
X228620Y248523D01*
X228626Y248582D01*
X228635Y248642D01*
X228648Y248700D01*
X228665Y248757D01*
X228685Y248814D01*
X228709Y248869D01*
X228736Y248922D01*
X228766Y248974D01*
X228800Y249023D01*
X228837Y249070D01*
X228876Y249115D01*
X228919Y249158D01*
X228964Y249197D01*
X229011Y249234D01*
X229060Y249268D01*
X229112Y249298D01*
X229165Y249325D01*
X229220Y249349D01*
X229277Y249369D01*
X229334Y249386D01*
X229392Y249399D01*
X229452Y249408D01*
X229511Y249414D01*
X229571Y249416D01*
X229638Y249414D01*
X229705Y249409D01*
X229771Y249400D01*
X229837Y249387D01*
X229901Y249371D01*
X229965Y249351D01*
X230028Y249327D01*
X230090Y249301D01*
X230149Y249271D01*
X230207Y249238D01*
X230264Y249201D01*
X230318Y249162D01*
X230370Y249120D01*
X230419Y249075D01*
X230466Y249027D01*
X230510Y248977D01*
X230552Y248924D01*
X230590Y248869D01*
X230626Y248813D01*
X230658Y248754D01*
X230687Y248694D01*
X230713Y248632D01*
X230735Y248569D01*
X228935Y247722D02*
X228894Y247764D01*
X228855Y247809D01*
X228818Y247855D01*
X228784Y247904D01*
X228753Y247954D01*
X228726Y248006D01*
X228701Y248060D01*
X228679Y248115D01*
X228660Y248171D01*
X228645Y248228D01*
X228633Y248286D01*
X228625Y248345D01*
X228620Y248404D01*
X228618Y248463D01*
X228936Y247723D02*
X230735Y245606D01*
X228618Y245606D01*
D13*
X373023Y428658D02*
X373023Y453658D01*
X373023Y428658D02*
X343023Y428658D01*
X343023Y453658D01*
X373023Y453658D01*
D14*
X375002Y455734D02*
X375002Y462846D01*
X373027Y462846D01*
X372940Y462844D01*
X372852Y462838D01*
X372765Y462829D01*
X372679Y462815D01*
X372593Y462798D01*
X372509Y462777D01*
X372425Y462752D01*
X372342Y462723D01*
X372261Y462691D01*
X372181Y462656D01*
X372103Y462617D01*
X372026Y462574D01*
X371952Y462528D01*
X371880Y462479D01*
X371810Y462427D01*
X371742Y462371D01*
X371677Y462313D01*
X371614Y462252D01*
X371555Y462188D01*
X371498Y462121D01*
X371444Y462053D01*
X371393Y461981D01*
X371346Y461908D01*
X371301Y461833D01*
X371260Y461755D01*
X371223Y461676D01*
X371189Y461596D01*
X371159Y461514D01*
X371132Y461431D01*
X371109Y461346D01*
X371090Y461261D01*
X371075Y461175D01*
X371063Y461088D01*
X371055Y461001D01*
X371051Y460914D01*
X371051Y460826D01*
X371055Y460739D01*
X371063Y460652D01*
X371075Y460565D01*
X371090Y460479D01*
X371109Y460394D01*
X371132Y460309D01*
X371159Y460226D01*
X371189Y460144D01*
X371223Y460064D01*
X371260Y459985D01*
X371301Y459907D01*
X371346Y459832D01*
X371393Y459759D01*
X371444Y459687D01*
X371498Y459619D01*
X371555Y459552D01*
X371614Y459488D01*
X371677Y459427D01*
X371742Y459369D01*
X371810Y459313D01*
X371880Y459261D01*
X371952Y459212D01*
X372026Y459166D01*
X372103Y459123D01*
X372181Y459084D01*
X372261Y459049D01*
X372342Y459017D01*
X372425Y458988D01*
X372509Y458963D01*
X372593Y458942D01*
X372679Y458925D01*
X372765Y458911D01*
X372852Y458902D01*
X372940Y458896D01*
X373027Y458894D01*
X373027Y458895D02*
X375002Y458895D01*
X372632Y458895D02*
X371051Y455734D01*
X367485Y455734D02*
X364324Y455734D01*
X367485Y455734D02*
X367485Y462846D01*
X364324Y462846D01*
X365114Y459685D02*
X367485Y459685D01*
X359281Y455734D02*
X359203Y455736D01*
X359126Y455742D01*
X359049Y455751D01*
X358973Y455764D01*
X358897Y455781D01*
X358822Y455802D01*
X358749Y455826D01*
X358676Y455854D01*
X358605Y455886D01*
X358536Y455921D01*
X358469Y455959D01*
X358403Y456000D01*
X358340Y456045D01*
X358279Y456093D01*
X358220Y456143D01*
X358164Y456197D01*
X358110Y456253D01*
X358060Y456312D01*
X358012Y456373D01*
X357967Y456436D01*
X357926Y456502D01*
X357888Y456569D01*
X357853Y456638D01*
X357821Y456709D01*
X357793Y456782D01*
X357769Y456855D01*
X357748Y456930D01*
X357731Y457006D01*
X357718Y457082D01*
X357709Y457159D01*
X357703Y457236D01*
X357701Y457314D01*
X359281Y455733D02*
X359396Y455735D01*
X359510Y455741D01*
X359624Y455751D01*
X359738Y455764D01*
X359851Y455782D01*
X359964Y455804D01*
X360076Y455829D01*
X360187Y455858D01*
X360296Y455891D01*
X360405Y455928D01*
X360512Y455968D01*
X360618Y456012D01*
X360722Y456060D01*
X360825Y456111D01*
X360925Y456166D01*
X361024Y456224D01*
X361121Y456286D01*
X361215Y456350D01*
X361308Y456418D01*
X361398Y456490D01*
X361485Y456564D01*
X361570Y456641D01*
X361652Y456721D01*
X361453Y461265D02*
X361451Y461343D01*
X361445Y461420D01*
X361436Y461497D01*
X361423Y461573D01*
X361406Y461649D01*
X361385Y461724D01*
X361361Y461797D01*
X361333Y461870D01*
X361301Y461941D01*
X361266Y462010D01*
X361228Y462077D01*
X361187Y462143D01*
X361142Y462206D01*
X361094Y462267D01*
X361044Y462326D01*
X360990Y462382D01*
X360934Y462436D01*
X360875Y462486D01*
X360814Y462534D01*
X360751Y462579D01*
X360685Y462620D01*
X360618Y462658D01*
X360549Y462693D01*
X360478Y462725D01*
X360405Y462753D01*
X360332Y462777D01*
X360257Y462798D01*
X360181Y462815D01*
X360105Y462828D01*
X360028Y462837D01*
X359951Y462843D01*
X359873Y462845D01*
X359767Y462843D01*
X359661Y462837D01*
X359556Y462828D01*
X359451Y462815D01*
X359346Y462798D01*
X359242Y462777D01*
X359139Y462753D01*
X359037Y462725D01*
X358936Y462693D01*
X358836Y462658D01*
X358738Y462619D01*
X358640Y462576D01*
X358545Y462531D01*
X358451Y462482D01*
X358359Y462429D01*
X358269Y462373D01*
X358181Y462314D01*
X358095Y462252D01*
X360664Y459882D02*
X360731Y459924D01*
X360796Y459969D01*
X360859Y460018D01*
X360920Y460069D01*
X360977Y460124D01*
X361032Y460181D01*
X361085Y460241D01*
X361134Y460303D01*
X361180Y460368D01*
X361222Y460434D01*
X361262Y460503D01*
X361298Y460574D01*
X361330Y460647D01*
X361359Y460721D01*
X361384Y460796D01*
X361405Y460872D01*
X361423Y460950D01*
X361436Y461028D01*
X361446Y461107D01*
X361452Y461186D01*
X361454Y461265D01*
X358490Y458697D02*
X358423Y458655D01*
X358358Y458610D01*
X358295Y458561D01*
X358234Y458510D01*
X358177Y458455D01*
X358122Y458398D01*
X358069Y458338D01*
X358020Y458276D01*
X357974Y458211D01*
X357932Y458145D01*
X357892Y458076D01*
X357856Y458005D01*
X357824Y457932D01*
X357795Y457858D01*
X357770Y457783D01*
X357749Y457707D01*
X357731Y457629D01*
X357718Y457551D01*
X357708Y457472D01*
X357702Y457393D01*
X357700Y457314D01*
X358491Y458697D02*
X360664Y459882D01*
X354318Y455734D02*
X351157Y455734D01*
X354318Y455734D02*
X354318Y462846D01*
X351157Y462846D01*
X351947Y459685D02*
X354318Y459685D01*
X346752Y462846D02*
X346752Y455734D01*
X348728Y462846D02*
X344777Y462846D01*
D11*
X211015Y389837D02*
X211015Y356817D01*
X276547Y356817D01*
X276547Y389837D01*
X211015Y389837D01*
D12*
X251909Y418539D02*
X250639Y422349D01*
X249369Y418539D01*
X249687Y419491D02*
X251592Y419491D01*
X247886Y418539D02*
X247886Y422349D01*
X246616Y420232D01*
X245346Y422349D01*
X245346Y418539D01*
X242503Y418539D02*
X242448Y418541D01*
X242392Y418546D01*
X242338Y418555D01*
X242284Y418568D01*
X242231Y418584D01*
X242179Y418603D01*
X242128Y418626D01*
X242080Y418652D01*
X242032Y418682D01*
X241987Y418714D01*
X241945Y418749D01*
X241904Y418787D01*
X241866Y418828D01*
X241831Y418870D01*
X241799Y418915D01*
X241769Y418963D01*
X241743Y419011D01*
X241720Y419062D01*
X241701Y419114D01*
X241685Y419167D01*
X241672Y419221D01*
X241663Y419275D01*
X241658Y419331D01*
X241656Y419386D01*
X242503Y418539D02*
X242586Y418541D01*
X242669Y418547D01*
X242751Y418556D01*
X242833Y418570D01*
X242915Y418587D01*
X242995Y418608D01*
X243074Y418633D01*
X243153Y418661D01*
X243229Y418693D01*
X243304Y418729D01*
X243378Y418767D01*
X243449Y418810D01*
X243519Y418855D01*
X243586Y418904D01*
X243651Y418956D01*
X243713Y419011D01*
X243773Y419068D01*
X243667Y421502D02*
X243665Y421557D01*
X243660Y421613D01*
X243651Y421667D01*
X243638Y421721D01*
X243622Y421774D01*
X243603Y421826D01*
X243580Y421877D01*
X243554Y421926D01*
X243524Y421973D01*
X243492Y422018D01*
X243457Y422060D01*
X243419Y422101D01*
X243378Y422139D01*
X243336Y422174D01*
X243291Y422206D01*
X243244Y422236D01*
X243195Y422262D01*
X243144Y422285D01*
X243092Y422304D01*
X243039Y422320D01*
X242985Y422333D01*
X242931Y422342D01*
X242875Y422347D01*
X242820Y422349D01*
X242741Y422347D01*
X242663Y422341D01*
X242585Y422332D01*
X242508Y422318D01*
X242431Y422301D01*
X242355Y422279D01*
X242281Y422255D01*
X242207Y422226D01*
X242136Y422194D01*
X242066Y422158D01*
X241997Y422119D01*
X241931Y422077D01*
X241867Y422031D01*
X243244Y420761D02*
X243291Y420791D01*
X243336Y420824D01*
X243379Y420860D01*
X243419Y420898D01*
X243457Y420939D01*
X243492Y420982D01*
X243524Y421028D01*
X243554Y421075D01*
X243580Y421125D01*
X243603Y421176D01*
X243622Y421228D01*
X243638Y421281D01*
X243651Y421336D01*
X243660Y421391D01*
X243665Y421446D01*
X243667Y421502D01*
X242079Y420127D02*
X242032Y420097D01*
X241987Y420064D01*
X241944Y420028D01*
X241904Y419990D01*
X241866Y419949D01*
X241831Y419906D01*
X241799Y419860D01*
X241769Y419813D01*
X241743Y419763D01*
X241720Y419712D01*
X241701Y419660D01*
X241685Y419607D01*
X241672Y419552D01*
X241663Y419497D01*
X241658Y419442D01*
X241656Y419386D01*
X242080Y420126D02*
X243244Y420761D01*
X240237Y421502D02*
X239179Y422349D01*
X239179Y418539D01*
X240237Y418539D02*
X238121Y418539D01*
X236580Y421502D02*
X235521Y422349D01*
X235521Y418539D01*
X234463Y418539D02*
X236580Y418539D01*
X232922Y421502D02*
X231864Y422349D01*
X231864Y418539D01*
X232922Y418539D02*
X230805Y418539D01*
X229265Y421926D02*
X229265Y422349D01*
X227148Y422349D01*
X228206Y418539D01*
D16*
X217387Y108928D02*
X194527Y108928D01*
D15*
X218657Y88608D02*
X218657Y49238D01*
X193257Y37808D02*
X193257Y77178D01*
X195797Y63208D02*
X195797Y37808D01*
X216117Y63208D02*
X216117Y88608D01*
D16*
X181827Y87338D02*
X181827Y56858D01*
X230087Y69558D02*
X230087Y39078D01*
X230087Y69558D02*
X230085Y69716D01*
X230079Y69875D01*
X230069Y70033D01*
X230055Y70190D01*
X230038Y70348D01*
X230016Y70504D01*
X229991Y70661D01*
X229961Y70816D01*
X229928Y70971D01*
X229891Y71125D01*
X229850Y71278D01*
X229805Y71430D01*
X229756Y71580D01*
X229704Y71730D01*
X229648Y71878D01*
X229588Y72025D01*
X229525Y72170D01*
X229458Y72313D01*
X229388Y72455D01*
X229314Y72595D01*
X229236Y72733D01*
X229155Y72869D01*
X229071Y73003D01*
X228984Y73135D01*
X228893Y73265D01*
X228799Y73392D01*
X228702Y73517D01*
X228601Y73640D01*
X228498Y73760D01*
X228392Y73877D01*
X228283Y73992D01*
X228171Y74104D01*
X228056Y74213D01*
X227939Y74319D01*
X227819Y74422D01*
X227696Y74523D01*
X227571Y74620D01*
X227444Y74714D01*
X227314Y74805D01*
X227182Y74892D01*
X227048Y74976D01*
X226912Y75057D01*
X226774Y75135D01*
X226634Y75209D01*
X226492Y75279D01*
X226349Y75346D01*
X226204Y75409D01*
X226057Y75469D01*
X225909Y75525D01*
X225759Y75577D01*
X225609Y75626D01*
X225457Y75671D01*
X225304Y75712D01*
X225150Y75749D01*
X224995Y75782D01*
X224840Y75812D01*
X224683Y75837D01*
X224527Y75859D01*
X224369Y75876D01*
X224212Y75890D01*
X224054Y75900D01*
X223895Y75906D01*
X223737Y75908D01*
X188177Y50508D02*
X188019Y50510D01*
X187860Y50516D01*
X187702Y50526D01*
X187545Y50540D01*
X187387Y50557D01*
X187231Y50579D01*
X187074Y50604D01*
X186919Y50634D01*
X186764Y50667D01*
X186610Y50704D01*
X186457Y50745D01*
X186305Y50790D01*
X186155Y50839D01*
X186005Y50891D01*
X185857Y50947D01*
X185710Y51007D01*
X185565Y51070D01*
X185422Y51137D01*
X185280Y51207D01*
X185140Y51281D01*
X185002Y51359D01*
X184866Y51440D01*
X184732Y51524D01*
X184600Y51611D01*
X184470Y51702D01*
X184343Y51796D01*
X184218Y51893D01*
X184095Y51994D01*
X183975Y52097D01*
X183858Y52203D01*
X183743Y52312D01*
X183631Y52424D01*
X183522Y52539D01*
X183416Y52656D01*
X183313Y52776D01*
X183212Y52899D01*
X183115Y53024D01*
X183021Y53151D01*
X182930Y53281D01*
X182843Y53413D01*
X182759Y53547D01*
X182678Y53683D01*
X182600Y53821D01*
X182526Y53961D01*
X182456Y54103D01*
X182389Y54246D01*
X182326Y54391D01*
X182266Y54538D01*
X182210Y54686D01*
X182158Y54836D01*
X182109Y54986D01*
X182064Y55138D01*
X182023Y55291D01*
X181986Y55445D01*
X181953Y55600D01*
X181923Y55755D01*
X181898Y55912D01*
X181876Y56068D01*
X181859Y56226D01*
X181845Y56383D01*
X181835Y56541D01*
X181829Y56700D01*
X181827Y56858D01*
X188177Y78448D02*
X188177Y23838D01*
X223737Y47968D02*
X223737Y102578D01*
X188177Y23838D02*
X188179Y23680D01*
X188185Y23521D01*
X188195Y23363D01*
X188209Y23206D01*
X188226Y23048D01*
X188248Y22892D01*
X188273Y22735D01*
X188303Y22580D01*
X188336Y22425D01*
X188373Y22271D01*
X188414Y22118D01*
X188459Y21966D01*
X188508Y21816D01*
X188560Y21666D01*
X188616Y21518D01*
X188676Y21371D01*
X188739Y21226D01*
X188806Y21083D01*
X188876Y20941D01*
X188950Y20801D01*
X189028Y20663D01*
X189109Y20527D01*
X189193Y20393D01*
X189280Y20261D01*
X189371Y20131D01*
X189465Y20004D01*
X189562Y19879D01*
X189663Y19756D01*
X189766Y19636D01*
X189872Y19519D01*
X189981Y19404D01*
X190093Y19292D01*
X190208Y19183D01*
X190325Y19077D01*
X190445Y18974D01*
X190568Y18873D01*
X190693Y18776D01*
X190820Y18682D01*
X190950Y18591D01*
X191082Y18504D01*
X191216Y18420D01*
X191352Y18339D01*
X191490Y18261D01*
X191630Y18187D01*
X191772Y18117D01*
X191915Y18050D01*
X192060Y17987D01*
X192207Y17927D01*
X192355Y17871D01*
X192505Y17819D01*
X192655Y17770D01*
X192807Y17725D01*
X192960Y17684D01*
X193114Y17647D01*
X193269Y17614D01*
X193424Y17584D01*
X193581Y17559D01*
X193737Y17537D01*
X193895Y17520D01*
X194052Y17506D01*
X194210Y17496D01*
X194369Y17490D01*
X194527Y17488D01*
X217387Y17488D02*
X217545Y17490D01*
X217704Y17496D01*
X217862Y17506D01*
X218019Y17520D01*
X218177Y17537D01*
X218333Y17559D01*
X218490Y17584D01*
X218645Y17614D01*
X218800Y17647D01*
X218954Y17684D01*
X219107Y17725D01*
X219259Y17770D01*
X219409Y17819D01*
X219559Y17871D01*
X219707Y17927D01*
X219854Y17987D01*
X219999Y18050D01*
X220142Y18117D01*
X220284Y18187D01*
X220424Y18261D01*
X220562Y18339D01*
X220698Y18420D01*
X220832Y18504D01*
X220964Y18591D01*
X221094Y18682D01*
X221221Y18776D01*
X221346Y18873D01*
X221469Y18974D01*
X221589Y19077D01*
X221706Y19183D01*
X221821Y19292D01*
X221933Y19404D01*
X222042Y19519D01*
X222148Y19636D01*
X222251Y19756D01*
X222352Y19879D01*
X222449Y20004D01*
X222543Y20131D01*
X222634Y20261D01*
X222721Y20393D01*
X222805Y20527D01*
X222886Y20663D01*
X222964Y20801D01*
X223038Y20941D01*
X223108Y21083D01*
X223175Y21226D01*
X223238Y21371D01*
X223298Y21518D01*
X223354Y21666D01*
X223406Y21816D01*
X223455Y21966D01*
X223500Y22118D01*
X223541Y22271D01*
X223578Y22425D01*
X223611Y22580D01*
X223641Y22735D01*
X223666Y22892D01*
X223688Y23048D01*
X223705Y23206D01*
X223719Y23363D01*
X223729Y23521D01*
X223735Y23680D01*
X223737Y23838D01*
X223737Y102578D02*
X223735Y102736D01*
X223729Y102895D01*
X223719Y103053D01*
X223705Y103210D01*
X223688Y103368D01*
X223666Y103524D01*
X223641Y103681D01*
X223611Y103836D01*
X223578Y103991D01*
X223541Y104145D01*
X223500Y104298D01*
X223455Y104450D01*
X223406Y104600D01*
X223354Y104750D01*
X223298Y104898D01*
X223238Y105045D01*
X223175Y105190D01*
X223108Y105333D01*
X223038Y105475D01*
X222964Y105615D01*
X222886Y105753D01*
X222805Y105889D01*
X222721Y106023D01*
X222634Y106155D01*
X222543Y106285D01*
X222449Y106412D01*
X222352Y106537D01*
X222251Y106660D01*
X222148Y106780D01*
X222042Y106897D01*
X221933Y107012D01*
X221821Y107124D01*
X221706Y107233D01*
X221589Y107339D01*
X221469Y107442D01*
X221346Y107543D01*
X221221Y107640D01*
X221094Y107734D01*
X220964Y107825D01*
X220832Y107912D01*
X220698Y107996D01*
X220562Y108077D01*
X220424Y108155D01*
X220284Y108229D01*
X220142Y108299D01*
X219999Y108366D01*
X219854Y108429D01*
X219707Y108489D01*
X219559Y108545D01*
X219409Y108597D01*
X219259Y108646D01*
X219107Y108691D01*
X218954Y108732D01*
X218800Y108769D01*
X218645Y108802D01*
X218490Y108832D01*
X218333Y108857D01*
X218177Y108879D01*
X218019Y108896D01*
X217862Y108910D01*
X217704Y108920D01*
X217545Y108926D01*
X217387Y108928D01*
X194527Y108928D02*
X194369Y108926D01*
X194210Y108920D01*
X194052Y108910D01*
X193895Y108896D01*
X193737Y108879D01*
X193581Y108857D01*
X193424Y108832D01*
X193269Y108802D01*
X193114Y108769D01*
X192960Y108732D01*
X192807Y108691D01*
X192655Y108646D01*
X192505Y108597D01*
X192355Y108545D01*
X192207Y108489D01*
X192060Y108429D01*
X191915Y108366D01*
X191772Y108299D01*
X191630Y108229D01*
X191490Y108155D01*
X191352Y108077D01*
X191216Y107996D01*
X191082Y107912D01*
X190950Y107825D01*
X190820Y107734D01*
X190693Y107640D01*
X190568Y107543D01*
X190445Y107442D01*
X190325Y107339D01*
X190208Y107233D01*
X190093Y107124D01*
X189981Y107012D01*
X189872Y106897D01*
X189766Y106780D01*
X189663Y106660D01*
X189562Y106537D01*
X189465Y106412D01*
X189371Y106285D01*
X189280Y106155D01*
X189193Y106023D01*
X189109Y105889D01*
X189028Y105753D01*
X188950Y105615D01*
X188876Y105475D01*
X188806Y105333D01*
X188739Y105190D01*
X188676Y105045D01*
X188616Y104898D01*
X188560Y104750D01*
X188508Y104600D01*
X188459Y104450D01*
X188414Y104298D01*
X188373Y104145D01*
X188336Y103991D01*
X188303Y103836D01*
X188273Y103681D01*
X188248Y103524D01*
X188226Y103368D01*
X188209Y103210D01*
X188195Y103053D01*
X188185Y102895D01*
X188179Y102736D01*
X188177Y102578D01*
X194527Y17488D02*
X217387Y17488D01*
X188177Y98768D02*
X188177Y102578D01*
X223737Y27648D02*
X223737Y23838D01*
D12*
X234483Y36158D02*
X238293Y34888D01*
X238293Y37428D02*
X234483Y36158D01*
X234483Y38545D02*
X238293Y39815D01*
X234483Y41085D01*
X235436Y40768D02*
X235436Y38863D01*
X234483Y42557D02*
X238293Y42557D01*
X238293Y43616D01*
X238291Y43680D01*
X238285Y43744D01*
X238276Y43807D01*
X238262Y43869D01*
X238245Y43931D01*
X238224Y43991D01*
X238200Y44050D01*
X238172Y44108D01*
X238140Y44163D01*
X238106Y44217D01*
X238068Y44268D01*
X238027Y44318D01*
X237983Y44364D01*
X237937Y44408D01*
X237887Y44449D01*
X237836Y44487D01*
X237782Y44521D01*
X237727Y44553D01*
X237669Y44581D01*
X237610Y44605D01*
X237550Y44626D01*
X237488Y44643D01*
X237426Y44657D01*
X237363Y44666D01*
X237299Y44672D01*
X237235Y44674D01*
X237171Y44672D01*
X237107Y44666D01*
X237044Y44657D01*
X236982Y44643D01*
X236920Y44626D01*
X236860Y44605D01*
X236801Y44581D01*
X236743Y44553D01*
X236688Y44521D01*
X236634Y44487D01*
X236583Y44449D01*
X236533Y44408D01*
X236487Y44364D01*
X236443Y44318D01*
X236402Y44268D01*
X236364Y44217D01*
X236330Y44163D01*
X236298Y44108D01*
X236270Y44050D01*
X236246Y43991D01*
X236225Y43931D01*
X236208Y43869D01*
X236194Y43807D01*
X236185Y43744D01*
X236179Y43680D01*
X236177Y43616D01*
X236176Y43616D02*
X236176Y42557D01*
X236176Y43827D02*
X234483Y44674D01*
X234483Y46521D02*
X238293Y46521D01*
X234483Y46097D02*
X234483Y46944D01*
X238293Y46944D02*
X238293Y46097D01*
X234483Y49536D02*
X234485Y49594D01*
X234491Y49651D01*
X234501Y49708D01*
X234514Y49765D01*
X234532Y49820D01*
X234553Y49873D01*
X234578Y49926D01*
X234606Y49976D01*
X234638Y50024D01*
X234673Y50071D01*
X234711Y50114D01*
X234752Y50155D01*
X234795Y50193D01*
X234842Y50228D01*
X234890Y50260D01*
X234940Y50288D01*
X234993Y50313D01*
X235046Y50334D01*
X235101Y50352D01*
X235158Y50365D01*
X235215Y50375D01*
X235272Y50381D01*
X235330Y50383D01*
X234483Y49536D02*
X234485Y49453D01*
X234491Y49370D01*
X234500Y49288D01*
X234514Y49206D01*
X234531Y49125D01*
X234552Y49044D01*
X234577Y48965D01*
X234605Y48887D01*
X234637Y48810D01*
X234672Y48735D01*
X234711Y48662D01*
X234754Y48590D01*
X234799Y48521D01*
X234848Y48454D01*
X234900Y48389D01*
X234954Y48326D01*
X235012Y48266D01*
X237446Y48372D02*
X237501Y48374D01*
X237557Y48379D01*
X237611Y48388D01*
X237665Y48401D01*
X237718Y48417D01*
X237770Y48436D01*
X237821Y48459D01*
X237870Y48485D01*
X237917Y48515D01*
X237962Y48547D01*
X238004Y48582D01*
X238045Y48620D01*
X238083Y48661D01*
X238118Y48703D01*
X238150Y48748D01*
X238180Y48796D01*
X238206Y48844D01*
X238229Y48895D01*
X238248Y48947D01*
X238264Y49000D01*
X238277Y49054D01*
X238286Y49108D01*
X238291Y49164D01*
X238293Y49219D01*
X238294Y49219D02*
X238292Y49298D01*
X238286Y49376D01*
X238277Y49454D01*
X238263Y49531D01*
X238246Y49608D01*
X238224Y49684D01*
X238200Y49758D01*
X238171Y49832D01*
X238139Y49903D01*
X238103Y49973D01*
X238064Y50042D01*
X238022Y50108D01*
X237976Y50172D01*
X236705Y48795D02*
X236735Y48748D01*
X236768Y48703D01*
X236804Y48660D01*
X236842Y48620D01*
X236883Y48582D01*
X236926Y48547D01*
X236972Y48515D01*
X237019Y48485D01*
X237069Y48459D01*
X237120Y48436D01*
X237172Y48417D01*
X237225Y48401D01*
X237280Y48388D01*
X237335Y48379D01*
X237390Y48374D01*
X237446Y48372D01*
X236071Y49960D02*
X236041Y50007D01*
X236008Y50052D01*
X235972Y50095D01*
X235934Y50135D01*
X235893Y50173D01*
X235850Y50208D01*
X235804Y50240D01*
X235757Y50270D01*
X235707Y50296D01*
X235656Y50319D01*
X235604Y50338D01*
X235551Y50354D01*
X235496Y50367D01*
X235441Y50376D01*
X235386Y50381D01*
X235330Y50383D01*
X236071Y49960D02*
X236706Y48796D01*
X238293Y52617D02*
X234483Y52617D01*
X238293Y51558D02*
X238293Y53675D01*
X237235Y54972D02*
X235541Y54972D01*
X237235Y54972D02*
X237299Y54974D01*
X237363Y54980D01*
X237426Y54989D01*
X237488Y55003D01*
X237550Y55020D01*
X237610Y55041D01*
X237669Y55065D01*
X237727Y55093D01*
X237782Y55125D01*
X237836Y55159D01*
X237887Y55197D01*
X237937Y55238D01*
X237983Y55282D01*
X238027Y55328D01*
X238068Y55378D01*
X238106Y55429D01*
X238140Y55483D01*
X238172Y55538D01*
X238200Y55596D01*
X238224Y55655D01*
X238245Y55715D01*
X238262Y55777D01*
X238276Y55839D01*
X238285Y55902D01*
X238291Y55966D01*
X238293Y56030D01*
X238291Y56094D01*
X238285Y56158D01*
X238276Y56221D01*
X238262Y56283D01*
X238245Y56345D01*
X238224Y56405D01*
X238200Y56464D01*
X238172Y56522D01*
X238140Y56577D01*
X238106Y56631D01*
X238068Y56682D01*
X238027Y56732D01*
X237983Y56778D01*
X237937Y56822D01*
X237887Y56863D01*
X237836Y56901D01*
X237782Y56935D01*
X237727Y56967D01*
X237669Y56995D01*
X237610Y57019D01*
X237550Y57040D01*
X237488Y57057D01*
X237426Y57071D01*
X237363Y57080D01*
X237299Y57086D01*
X237235Y57088D01*
X237235Y57089D02*
X235541Y57089D01*
X235541Y57088D02*
X235477Y57086D01*
X235413Y57080D01*
X235350Y57071D01*
X235288Y57057D01*
X235226Y57040D01*
X235166Y57019D01*
X235107Y56995D01*
X235049Y56967D01*
X234994Y56935D01*
X234940Y56901D01*
X234889Y56863D01*
X234839Y56822D01*
X234793Y56778D01*
X234749Y56732D01*
X234708Y56682D01*
X234670Y56631D01*
X234636Y56577D01*
X234604Y56522D01*
X234576Y56464D01*
X234552Y56405D01*
X234531Y56345D01*
X234514Y56283D01*
X234500Y56221D01*
X234491Y56158D01*
X234485Y56094D01*
X234483Y56030D01*
X234485Y55966D01*
X234491Y55902D01*
X234500Y55839D01*
X234514Y55777D01*
X234531Y55715D01*
X234552Y55655D01*
X234576Y55596D01*
X234604Y55538D01*
X234636Y55483D01*
X234670Y55429D01*
X234708Y55378D01*
X234749Y55328D01*
X234793Y55282D01*
X234839Y55238D01*
X234889Y55197D01*
X234940Y55159D01*
X234994Y55125D01*
X235049Y55093D01*
X235107Y55065D01*
X235166Y55041D01*
X235226Y55020D01*
X235288Y55003D01*
X235350Y54989D01*
X235413Y54980D01*
X235477Y54974D01*
X235541Y54972D01*
X234483Y58773D02*
X238293Y58773D01*
X238293Y59831D01*
X238291Y59895D01*
X238285Y59959D01*
X238276Y60022D01*
X238262Y60084D01*
X238245Y60146D01*
X238224Y60206D01*
X238200Y60265D01*
X238172Y60323D01*
X238140Y60378D01*
X238106Y60432D01*
X238068Y60483D01*
X238027Y60533D01*
X237983Y60579D01*
X237937Y60623D01*
X237887Y60664D01*
X237836Y60702D01*
X237782Y60736D01*
X237727Y60768D01*
X237669Y60796D01*
X237610Y60820D01*
X237550Y60841D01*
X237488Y60858D01*
X237426Y60872D01*
X237363Y60881D01*
X237299Y60887D01*
X237235Y60889D01*
X237171Y60887D01*
X237107Y60881D01*
X237044Y60872D01*
X236982Y60858D01*
X236920Y60841D01*
X236860Y60820D01*
X236801Y60796D01*
X236743Y60768D01*
X236688Y60736D01*
X236634Y60702D01*
X236583Y60664D01*
X236533Y60623D01*
X236487Y60579D01*
X236443Y60533D01*
X236402Y60483D01*
X236364Y60432D01*
X236330Y60378D01*
X236298Y60323D01*
X236270Y60265D01*
X236246Y60206D01*
X236225Y60146D01*
X236208Y60084D01*
X236194Y60022D01*
X236185Y59959D01*
X236179Y59895D01*
X236177Y59831D01*
X236176Y59831D02*
X236176Y58773D01*
X236176Y60043D02*
X234483Y60889D01*
X234483Y63557D02*
X234485Y63615D01*
X234491Y63672D01*
X234501Y63729D01*
X234514Y63786D01*
X234532Y63841D01*
X234553Y63894D01*
X234578Y63947D01*
X234606Y63997D01*
X234638Y64045D01*
X234673Y64092D01*
X234711Y64135D01*
X234752Y64176D01*
X234795Y64214D01*
X234842Y64249D01*
X234890Y64281D01*
X234940Y64309D01*
X234993Y64334D01*
X235046Y64355D01*
X235101Y64373D01*
X235158Y64386D01*
X235215Y64396D01*
X235272Y64402D01*
X235330Y64404D01*
X234483Y63557D02*
X234485Y63474D01*
X234491Y63391D01*
X234500Y63309D01*
X234514Y63227D01*
X234531Y63146D01*
X234552Y63065D01*
X234577Y62986D01*
X234605Y62908D01*
X234637Y62831D01*
X234672Y62756D01*
X234711Y62683D01*
X234754Y62611D01*
X234799Y62542D01*
X234848Y62475D01*
X234900Y62410D01*
X234954Y62347D01*
X235012Y62287D01*
X237446Y62393D02*
X237501Y62395D01*
X237557Y62400D01*
X237611Y62409D01*
X237665Y62422D01*
X237718Y62438D01*
X237770Y62457D01*
X237821Y62480D01*
X237870Y62506D01*
X237917Y62536D01*
X237962Y62568D01*
X238004Y62603D01*
X238045Y62641D01*
X238083Y62682D01*
X238118Y62724D01*
X238150Y62769D01*
X238180Y62817D01*
X238206Y62865D01*
X238229Y62916D01*
X238248Y62968D01*
X238264Y63021D01*
X238277Y63075D01*
X238286Y63129D01*
X238291Y63185D01*
X238293Y63240D01*
X238294Y63240D02*
X238292Y63319D01*
X238286Y63397D01*
X238277Y63475D01*
X238263Y63552D01*
X238246Y63629D01*
X238224Y63705D01*
X238200Y63779D01*
X238171Y63853D01*
X238139Y63924D01*
X238103Y63994D01*
X238064Y64063D01*
X238022Y64129D01*
X237976Y64193D01*
X236705Y62816D02*
X236735Y62769D01*
X236768Y62724D01*
X236804Y62681D01*
X236842Y62641D01*
X236883Y62603D01*
X236926Y62568D01*
X236972Y62536D01*
X237019Y62506D01*
X237069Y62480D01*
X237120Y62457D01*
X237172Y62438D01*
X237225Y62422D01*
X237280Y62409D01*
X237335Y62400D01*
X237390Y62395D01*
X237446Y62393D01*
X236071Y63981D02*
X236041Y64028D01*
X236008Y64073D01*
X235972Y64116D01*
X235934Y64156D01*
X235893Y64194D01*
X235850Y64229D01*
X235804Y64261D01*
X235757Y64291D01*
X235707Y64317D01*
X235656Y64340D01*
X235604Y64359D01*
X235551Y64375D01*
X235496Y64388D01*
X235441Y64397D01*
X235386Y64402D01*
X235330Y64404D01*
X236071Y63981D02*
X236706Y62816D01*
X236388Y65823D02*
X236498Y65825D01*
X236607Y65831D01*
X236716Y65840D01*
X236825Y65854D01*
X236933Y65871D01*
X237041Y65892D01*
X237147Y65916D01*
X237253Y65945D01*
X237358Y65977D01*
X237462Y66012D01*
X237564Y66051D01*
X237665Y66094D01*
X237764Y66141D01*
X237764Y66140D02*
X237814Y66160D01*
X237863Y66182D01*
X237911Y66208D01*
X237956Y66237D01*
X237999Y66270D01*
X238040Y66305D01*
X238079Y66343D01*
X238114Y66383D01*
X238147Y66426D01*
X238177Y66471D01*
X238204Y66518D01*
X238227Y66566D01*
X238247Y66616D01*
X238263Y66668D01*
X238276Y66720D01*
X238286Y66773D01*
X238291Y66827D01*
X238293Y66881D01*
X238291Y66935D01*
X238286Y66989D01*
X238276Y67042D01*
X238263Y67094D01*
X238247Y67146D01*
X238227Y67196D01*
X238204Y67244D01*
X238177Y67291D01*
X238147Y67336D01*
X238114Y67379D01*
X238079Y67419D01*
X238040Y67457D01*
X237999Y67492D01*
X237956Y67525D01*
X237911Y67554D01*
X237863Y67580D01*
X237814Y67602D01*
X237764Y67622D01*
X237665Y67669D01*
X237564Y67712D01*
X237462Y67751D01*
X237358Y67786D01*
X237253Y67818D01*
X237147Y67847D01*
X237041Y67871D01*
X236933Y67892D01*
X236825Y67909D01*
X236716Y67923D01*
X236607Y67932D01*
X236498Y67938D01*
X236388Y67940D01*
X236388Y65823D02*
X236278Y65825D01*
X236169Y65831D01*
X236060Y65840D01*
X235951Y65854D01*
X235843Y65871D01*
X235735Y65892D01*
X235629Y65916D01*
X235523Y65945D01*
X235418Y65977D01*
X235315Y66012D01*
X235212Y66051D01*
X235111Y66094D01*
X235012Y66141D01*
X235012Y66140D02*
X234962Y66160D01*
X234913Y66182D01*
X234865Y66208D01*
X234820Y66237D01*
X234777Y66270D01*
X234736Y66305D01*
X234697Y66343D01*
X234662Y66383D01*
X234629Y66426D01*
X234599Y66471D01*
X234572Y66518D01*
X234549Y66566D01*
X234529Y66616D01*
X234513Y66668D01*
X234500Y66720D01*
X234490Y66773D01*
X234485Y66827D01*
X234483Y66881D01*
X235012Y67622D02*
X235111Y67669D01*
X235212Y67712D01*
X235315Y67751D01*
X235418Y67786D01*
X235523Y67818D01*
X235629Y67847D01*
X235735Y67871D01*
X235843Y67892D01*
X235951Y67909D01*
X236060Y67923D01*
X236169Y67932D01*
X236278Y67938D01*
X236388Y67940D01*
X235012Y67622D02*
X234962Y67602D01*
X234913Y67580D01*
X234865Y67554D01*
X234820Y67525D01*
X234777Y67492D01*
X234736Y67457D01*
X234697Y67419D01*
X234662Y67379D01*
X234629Y67336D01*
X234599Y67291D01*
X234572Y67244D01*
X234549Y67196D01*
X234529Y67146D01*
X234513Y67094D01*
X234500Y67042D01*
X234490Y66989D01*
X234485Y66935D01*
X234483Y66881D01*
X235330Y66035D02*
X237446Y67728D01*
X237870Y69480D02*
X238293Y69480D01*
X238293Y71597D01*
X234483Y70539D01*
X234483Y73308D02*
X238293Y73308D01*
X238293Y75425D02*
X235965Y73308D01*
X236811Y74155D02*
X234483Y75425D01*
X237341Y78913D02*
X237401Y78911D01*
X237460Y78905D01*
X237520Y78896D01*
X237578Y78883D01*
X237635Y78866D01*
X237692Y78846D01*
X237747Y78822D01*
X237800Y78795D01*
X237852Y78765D01*
X237901Y78731D01*
X237948Y78694D01*
X237993Y78655D01*
X238036Y78612D01*
X238075Y78567D01*
X238112Y78520D01*
X238146Y78471D01*
X238176Y78419D01*
X238203Y78366D01*
X238227Y78311D01*
X238247Y78254D01*
X238264Y78197D01*
X238277Y78139D01*
X238286Y78079D01*
X238292Y78020D01*
X238294Y77960D01*
X238293Y77960D02*
X238291Y77893D01*
X238286Y77826D01*
X238277Y77760D01*
X238264Y77694D01*
X238248Y77630D01*
X238228Y77566D01*
X238204Y77503D01*
X238178Y77441D01*
X238148Y77382D01*
X238115Y77324D01*
X238078Y77267D01*
X238039Y77213D01*
X237997Y77161D01*
X237952Y77112D01*
X237904Y77065D01*
X237854Y77021D01*
X237801Y76979D01*
X237746Y76941D01*
X237690Y76905D01*
X237631Y76873D01*
X237571Y76844D01*
X237509Y76818D01*
X237446Y76796D01*
X236600Y78595D02*
X236642Y78636D01*
X236687Y78675D01*
X236733Y78712D01*
X236782Y78746D01*
X236832Y78777D01*
X236884Y78804D01*
X236938Y78829D01*
X236993Y78851D01*
X237049Y78870D01*
X237106Y78885D01*
X237164Y78897D01*
X237223Y78905D01*
X237282Y78910D01*
X237341Y78912D01*
X236600Y78595D02*
X234483Y76796D01*
X234483Y78912D01*
X234483Y80453D02*
X234483Y81512D01*
X234485Y81576D01*
X234491Y81640D01*
X234500Y81703D01*
X234514Y81765D01*
X234531Y81827D01*
X234552Y81887D01*
X234576Y81946D01*
X234604Y82004D01*
X234636Y82059D01*
X234670Y82113D01*
X234708Y82164D01*
X234749Y82214D01*
X234793Y82260D01*
X234839Y82304D01*
X234889Y82345D01*
X234940Y82383D01*
X234994Y82417D01*
X235049Y82449D01*
X235107Y82477D01*
X235166Y82501D01*
X235226Y82522D01*
X235288Y82539D01*
X235350Y82553D01*
X235413Y82562D01*
X235477Y82568D01*
X235541Y82570D01*
X235605Y82568D01*
X235669Y82562D01*
X235732Y82553D01*
X235794Y82539D01*
X235856Y82522D01*
X235916Y82501D01*
X235975Y82477D01*
X236033Y82449D01*
X236088Y82417D01*
X236142Y82383D01*
X236193Y82345D01*
X236243Y82304D01*
X236289Y82260D01*
X236333Y82214D01*
X236374Y82164D01*
X236412Y82113D01*
X236446Y82059D01*
X236478Y82004D01*
X236506Y81946D01*
X236530Y81887D01*
X236551Y81827D01*
X236568Y81765D01*
X236582Y81703D01*
X236591Y81640D01*
X236597Y81576D01*
X236599Y81512D01*
X238293Y81723D02*
X238293Y80453D01*
X238293Y81723D02*
X238291Y81780D01*
X238285Y81836D01*
X238276Y81892D01*
X238263Y81947D01*
X238246Y82001D01*
X238226Y82054D01*
X238202Y82105D01*
X238175Y82155D01*
X238144Y82202D01*
X238111Y82248D01*
X238074Y82291D01*
X238035Y82332D01*
X237993Y82370D01*
X237948Y82405D01*
X237902Y82437D01*
X237853Y82466D01*
X237803Y82491D01*
X237750Y82513D01*
X237697Y82532D01*
X237642Y82547D01*
X237587Y82558D01*
X237531Y82566D01*
X237474Y82570D01*
X237418Y82570D01*
X237361Y82566D01*
X237305Y82558D01*
X237250Y82547D01*
X237195Y82532D01*
X237142Y82513D01*
X237089Y82491D01*
X237039Y82466D01*
X236990Y82437D01*
X236944Y82405D01*
X236899Y82370D01*
X236857Y82332D01*
X236818Y82291D01*
X236781Y82248D01*
X236748Y82202D01*
X236717Y82155D01*
X236690Y82105D01*
X236666Y82054D01*
X236646Y82001D01*
X236629Y81947D01*
X236616Y81892D01*
X236607Y81836D01*
X236601Y81780D01*
X236599Y81723D01*
X236600Y81723D02*
X236600Y80877D01*
X236388Y84110D02*
X236498Y84112D01*
X236607Y84118D01*
X236716Y84127D01*
X236825Y84141D01*
X236933Y84158D01*
X237041Y84179D01*
X237147Y84203D01*
X237253Y84232D01*
X237358Y84264D01*
X237462Y84299D01*
X237564Y84338D01*
X237665Y84381D01*
X237764Y84428D01*
X237814Y84448D01*
X237863Y84470D01*
X237911Y84496D01*
X237956Y84525D01*
X237999Y84558D01*
X238040Y84593D01*
X238079Y84631D01*
X238114Y84671D01*
X238147Y84714D01*
X238177Y84759D01*
X238204Y84806D01*
X238227Y84854D01*
X238247Y84904D01*
X238263Y84956D01*
X238276Y85008D01*
X238286Y85061D01*
X238291Y85115D01*
X238293Y85169D01*
X238291Y85223D01*
X238286Y85277D01*
X238276Y85330D01*
X238263Y85382D01*
X238247Y85434D01*
X238227Y85484D01*
X238204Y85532D01*
X238177Y85579D01*
X238147Y85624D01*
X238114Y85667D01*
X238079Y85707D01*
X238040Y85745D01*
X237999Y85780D01*
X237956Y85813D01*
X237911Y85842D01*
X237863Y85868D01*
X237814Y85890D01*
X237764Y85910D01*
X237665Y85957D01*
X237564Y86000D01*
X237462Y86039D01*
X237358Y86074D01*
X237253Y86106D01*
X237147Y86135D01*
X237041Y86159D01*
X236933Y86180D01*
X236825Y86197D01*
X236716Y86211D01*
X236607Y86220D01*
X236498Y86226D01*
X236388Y86228D01*
X236388Y84111D02*
X236278Y84113D01*
X236169Y84119D01*
X236060Y84128D01*
X235951Y84142D01*
X235843Y84159D01*
X235735Y84180D01*
X235629Y84204D01*
X235523Y84233D01*
X235418Y84265D01*
X235315Y84300D01*
X235212Y84339D01*
X235111Y84382D01*
X235012Y84429D01*
X235012Y84428D02*
X234962Y84448D01*
X234913Y84470D01*
X234865Y84496D01*
X234820Y84525D01*
X234777Y84558D01*
X234736Y84593D01*
X234697Y84631D01*
X234662Y84671D01*
X234629Y84714D01*
X234599Y84759D01*
X234572Y84806D01*
X234549Y84854D01*
X234529Y84904D01*
X234513Y84956D01*
X234500Y85008D01*
X234490Y85061D01*
X234485Y85115D01*
X234483Y85169D01*
X235012Y85910D02*
X235111Y85957D01*
X235212Y86000D01*
X235315Y86039D01*
X235418Y86074D01*
X235523Y86106D01*
X235629Y86135D01*
X235735Y86159D01*
X235843Y86180D01*
X235951Y86197D01*
X236060Y86211D01*
X236169Y86220D01*
X236278Y86226D01*
X236388Y86228D01*
X235012Y85910D02*
X234962Y85890D01*
X234913Y85868D01*
X234865Y85842D01*
X234820Y85813D01*
X234777Y85780D01*
X234736Y85745D01*
X234697Y85707D01*
X234662Y85667D01*
X234629Y85624D01*
X234599Y85579D01*
X234572Y85532D01*
X234549Y85484D01*
X234529Y85434D01*
X234513Y85382D01*
X234500Y85330D01*
X234490Y85277D01*
X234485Y85223D01*
X234483Y85169D01*
X235330Y84323D02*
X237446Y86016D01*
D16*
X244243Y147357D02*
X444143Y147357D01*
X444143Y57437D02*
X444143Y55407D01*
X244243Y55407D01*
X244243Y123477D02*
X244243Y147357D01*
X244243Y123477D02*
X260243Y123477D01*
X278023Y123477D02*
X310283Y123477D01*
X328063Y123477D02*
X360323Y123477D01*
X378103Y123477D02*
X410353Y123477D01*
X428133Y123477D02*
X444143Y123477D01*
X244243Y123477D02*
X244243Y57437D01*
X444143Y123477D02*
X444143Y147357D01*
X444143Y57437D02*
X244243Y57437D01*
X244243Y55407D01*
X444143Y57437D02*
X444143Y123477D01*
X264053Y70649D02*
X264055Y70791D01*
X264061Y70934D01*
X264071Y71076D01*
X264085Y71218D01*
X264103Y71359D01*
X264125Y71500D01*
X264151Y71640D01*
X264180Y71779D01*
X264214Y71918D01*
X264252Y72055D01*
X264293Y72192D01*
X264338Y72327D01*
X264387Y72461D01*
X264440Y72593D01*
X264496Y72724D01*
X264556Y72853D01*
X264620Y72981D01*
X264687Y73106D01*
X264758Y73230D01*
X264832Y73352D01*
X264909Y73471D01*
X264990Y73589D01*
X265074Y73704D01*
X265161Y73816D01*
X265252Y73926D01*
X265345Y74034D01*
X265442Y74139D01*
X265541Y74241D01*
X265643Y74340D01*
X265748Y74437D01*
X265856Y74530D01*
X265966Y74621D01*
X266078Y74708D01*
X266193Y74792D01*
X266311Y74873D01*
X266430Y74950D01*
X266552Y75024D01*
X266676Y75095D01*
X266801Y75162D01*
X266929Y75226D01*
X267058Y75286D01*
X267189Y75342D01*
X267321Y75395D01*
X267455Y75444D01*
X267590Y75489D01*
X267727Y75530D01*
X267864Y75568D01*
X268003Y75602D01*
X268142Y75631D01*
X268282Y75657D01*
X268423Y75679D01*
X268564Y75697D01*
X268706Y75711D01*
X268848Y75721D01*
X268991Y75727D01*
X269133Y75729D01*
X269275Y75727D01*
X269418Y75721D01*
X269560Y75711D01*
X269702Y75697D01*
X269843Y75679D01*
X269984Y75657D01*
X270124Y75631D01*
X270263Y75602D01*
X270402Y75568D01*
X270539Y75530D01*
X270676Y75489D01*
X270811Y75444D01*
X270945Y75395D01*
X271077Y75342D01*
X271208Y75286D01*
X271337Y75226D01*
X271465Y75162D01*
X271590Y75095D01*
X271714Y75024D01*
X271836Y74950D01*
X271955Y74873D01*
X272073Y74792D01*
X272188Y74708D01*
X272300Y74621D01*
X272410Y74530D01*
X272518Y74437D01*
X272623Y74340D01*
X272725Y74241D01*
X272824Y74139D01*
X272921Y74034D01*
X273014Y73926D01*
X273105Y73816D01*
X273192Y73704D01*
X273276Y73589D01*
X273357Y73471D01*
X273434Y73352D01*
X273508Y73230D01*
X273579Y73106D01*
X273646Y72981D01*
X273710Y72853D01*
X273770Y72724D01*
X273826Y72593D01*
X273879Y72461D01*
X273928Y72327D01*
X273973Y72192D01*
X274014Y72055D01*
X274052Y71918D01*
X274086Y71779D01*
X274115Y71640D01*
X274141Y71500D01*
X274163Y71359D01*
X274181Y71218D01*
X274195Y71076D01*
X274205Y70934D01*
X274211Y70791D01*
X274213Y70649D01*
X274211Y70507D01*
X274205Y70364D01*
X274195Y70222D01*
X274181Y70080D01*
X274163Y69939D01*
X274141Y69798D01*
X274115Y69658D01*
X274086Y69519D01*
X274052Y69380D01*
X274014Y69243D01*
X273973Y69106D01*
X273928Y68971D01*
X273879Y68837D01*
X273826Y68705D01*
X273770Y68574D01*
X273710Y68445D01*
X273646Y68317D01*
X273579Y68192D01*
X273508Y68068D01*
X273434Y67946D01*
X273357Y67827D01*
X273276Y67709D01*
X273192Y67594D01*
X273105Y67482D01*
X273014Y67372D01*
X272921Y67264D01*
X272824Y67159D01*
X272725Y67057D01*
X272623Y66958D01*
X272518Y66861D01*
X272410Y66768D01*
X272300Y66677D01*
X272188Y66590D01*
X272073Y66506D01*
X271955Y66425D01*
X271836Y66348D01*
X271714Y66274D01*
X271590Y66203D01*
X271465Y66136D01*
X271337Y66072D01*
X271208Y66012D01*
X271077Y65956D01*
X270945Y65903D01*
X270811Y65854D01*
X270676Y65809D01*
X270539Y65768D01*
X270402Y65730D01*
X270263Y65696D01*
X270124Y65667D01*
X269984Y65641D01*
X269843Y65619D01*
X269702Y65601D01*
X269560Y65587D01*
X269418Y65577D01*
X269275Y65571D01*
X269133Y65569D01*
X268991Y65571D01*
X268848Y65577D01*
X268706Y65587D01*
X268564Y65601D01*
X268423Y65619D01*
X268282Y65641D01*
X268142Y65667D01*
X268003Y65696D01*
X267864Y65730D01*
X267727Y65768D01*
X267590Y65809D01*
X267455Y65854D01*
X267321Y65903D01*
X267189Y65956D01*
X267058Y66012D01*
X266929Y66072D01*
X266801Y66136D01*
X266676Y66203D01*
X266552Y66274D01*
X266430Y66348D01*
X266311Y66425D01*
X266193Y66506D01*
X266078Y66590D01*
X265966Y66677D01*
X265856Y66768D01*
X265748Y66861D01*
X265643Y66958D01*
X265541Y67057D01*
X265442Y67159D01*
X265345Y67264D01*
X265252Y67372D01*
X265161Y67482D01*
X265074Y67594D01*
X264990Y67709D01*
X264909Y67827D01*
X264832Y67946D01*
X264758Y68068D01*
X264687Y68192D01*
X264620Y68317D01*
X264556Y68445D01*
X264496Y68574D01*
X264440Y68705D01*
X264387Y68837D01*
X264338Y68971D01*
X264293Y69106D01*
X264252Y69243D01*
X264214Y69380D01*
X264180Y69519D01*
X264151Y69658D01*
X264125Y69798D01*
X264103Y69939D01*
X264085Y70080D01*
X264071Y70222D01*
X264061Y70364D01*
X264055Y70507D01*
X264053Y70649D01*
X314091Y70649D02*
X314093Y70791D01*
X314099Y70934D01*
X314109Y71076D01*
X314123Y71218D01*
X314141Y71359D01*
X314163Y71500D01*
X314189Y71640D01*
X314218Y71779D01*
X314252Y71918D01*
X314290Y72055D01*
X314331Y72192D01*
X314376Y72327D01*
X314425Y72461D01*
X314478Y72593D01*
X314534Y72724D01*
X314594Y72853D01*
X314658Y72981D01*
X314725Y73106D01*
X314796Y73230D01*
X314870Y73352D01*
X314947Y73471D01*
X315028Y73589D01*
X315112Y73704D01*
X315199Y73816D01*
X315290Y73926D01*
X315383Y74034D01*
X315480Y74139D01*
X315579Y74241D01*
X315681Y74340D01*
X315786Y74437D01*
X315894Y74530D01*
X316004Y74621D01*
X316116Y74708D01*
X316231Y74792D01*
X316349Y74873D01*
X316468Y74950D01*
X316590Y75024D01*
X316714Y75095D01*
X316839Y75162D01*
X316967Y75226D01*
X317096Y75286D01*
X317227Y75342D01*
X317359Y75395D01*
X317493Y75444D01*
X317628Y75489D01*
X317765Y75530D01*
X317902Y75568D01*
X318041Y75602D01*
X318180Y75631D01*
X318320Y75657D01*
X318461Y75679D01*
X318602Y75697D01*
X318744Y75711D01*
X318886Y75721D01*
X319029Y75727D01*
X319171Y75729D01*
X319313Y75727D01*
X319456Y75721D01*
X319598Y75711D01*
X319740Y75697D01*
X319881Y75679D01*
X320022Y75657D01*
X320162Y75631D01*
X320301Y75602D01*
X320440Y75568D01*
X320577Y75530D01*
X320714Y75489D01*
X320849Y75444D01*
X320983Y75395D01*
X321115Y75342D01*
X321246Y75286D01*
X321375Y75226D01*
X321503Y75162D01*
X321628Y75095D01*
X321752Y75024D01*
X321874Y74950D01*
X321993Y74873D01*
X322111Y74792D01*
X322226Y74708D01*
X322338Y74621D01*
X322448Y74530D01*
X322556Y74437D01*
X322661Y74340D01*
X322763Y74241D01*
X322862Y74139D01*
X322959Y74034D01*
X323052Y73926D01*
X323143Y73816D01*
X323230Y73704D01*
X323314Y73589D01*
X323395Y73471D01*
X323472Y73352D01*
X323546Y73230D01*
X323617Y73106D01*
X323684Y72981D01*
X323748Y72853D01*
X323808Y72724D01*
X323864Y72593D01*
X323917Y72461D01*
X323966Y72327D01*
X324011Y72192D01*
X324052Y72055D01*
X324090Y71918D01*
X324124Y71779D01*
X324153Y71640D01*
X324179Y71500D01*
X324201Y71359D01*
X324219Y71218D01*
X324233Y71076D01*
X324243Y70934D01*
X324249Y70791D01*
X324251Y70649D01*
X324249Y70507D01*
X324243Y70364D01*
X324233Y70222D01*
X324219Y70080D01*
X324201Y69939D01*
X324179Y69798D01*
X324153Y69658D01*
X324124Y69519D01*
X324090Y69380D01*
X324052Y69243D01*
X324011Y69106D01*
X323966Y68971D01*
X323917Y68837D01*
X323864Y68705D01*
X323808Y68574D01*
X323748Y68445D01*
X323684Y68317D01*
X323617Y68192D01*
X323546Y68068D01*
X323472Y67946D01*
X323395Y67827D01*
X323314Y67709D01*
X323230Y67594D01*
X323143Y67482D01*
X323052Y67372D01*
X322959Y67264D01*
X322862Y67159D01*
X322763Y67057D01*
X322661Y66958D01*
X322556Y66861D01*
X322448Y66768D01*
X322338Y66677D01*
X322226Y66590D01*
X322111Y66506D01*
X321993Y66425D01*
X321874Y66348D01*
X321752Y66274D01*
X321628Y66203D01*
X321503Y66136D01*
X321375Y66072D01*
X321246Y66012D01*
X321115Y65956D01*
X320983Y65903D01*
X320849Y65854D01*
X320714Y65809D01*
X320577Y65768D01*
X320440Y65730D01*
X320301Y65696D01*
X320162Y65667D01*
X320022Y65641D01*
X319881Y65619D01*
X319740Y65601D01*
X319598Y65587D01*
X319456Y65577D01*
X319313Y65571D01*
X319171Y65569D01*
X319029Y65571D01*
X318886Y65577D01*
X318744Y65587D01*
X318602Y65601D01*
X318461Y65619D01*
X318320Y65641D01*
X318180Y65667D01*
X318041Y65696D01*
X317902Y65730D01*
X317765Y65768D01*
X317628Y65809D01*
X317493Y65854D01*
X317359Y65903D01*
X317227Y65956D01*
X317096Y66012D01*
X316967Y66072D01*
X316839Y66136D01*
X316714Y66203D01*
X316590Y66274D01*
X316468Y66348D01*
X316349Y66425D01*
X316231Y66506D01*
X316116Y66590D01*
X316004Y66677D01*
X315894Y66768D01*
X315786Y66861D01*
X315681Y66958D01*
X315579Y67057D01*
X315480Y67159D01*
X315383Y67264D01*
X315290Y67372D01*
X315199Y67482D01*
X315112Y67594D01*
X315028Y67709D01*
X314947Y67827D01*
X314870Y67946D01*
X314796Y68068D01*
X314725Y68192D01*
X314658Y68317D01*
X314594Y68445D01*
X314534Y68574D01*
X314478Y68705D01*
X314425Y68837D01*
X314376Y68971D01*
X314331Y69106D01*
X314290Y69243D01*
X314252Y69380D01*
X314218Y69519D01*
X314189Y69658D01*
X314163Y69798D01*
X314141Y69939D01*
X314123Y70080D01*
X314109Y70222D01*
X314099Y70364D01*
X314093Y70507D01*
X314091Y70649D01*
X364129Y70649D02*
X364131Y70791D01*
X364137Y70934D01*
X364147Y71076D01*
X364161Y71218D01*
X364179Y71359D01*
X364201Y71500D01*
X364227Y71640D01*
X364256Y71779D01*
X364290Y71918D01*
X364328Y72055D01*
X364369Y72192D01*
X364414Y72327D01*
X364463Y72461D01*
X364516Y72593D01*
X364572Y72724D01*
X364632Y72853D01*
X364696Y72981D01*
X364763Y73106D01*
X364834Y73230D01*
X364908Y73352D01*
X364985Y73471D01*
X365066Y73589D01*
X365150Y73704D01*
X365237Y73816D01*
X365328Y73926D01*
X365421Y74034D01*
X365518Y74139D01*
X365617Y74241D01*
X365719Y74340D01*
X365824Y74437D01*
X365932Y74530D01*
X366042Y74621D01*
X366154Y74708D01*
X366269Y74792D01*
X366387Y74873D01*
X366506Y74950D01*
X366628Y75024D01*
X366752Y75095D01*
X366877Y75162D01*
X367005Y75226D01*
X367134Y75286D01*
X367265Y75342D01*
X367397Y75395D01*
X367531Y75444D01*
X367666Y75489D01*
X367803Y75530D01*
X367940Y75568D01*
X368079Y75602D01*
X368218Y75631D01*
X368358Y75657D01*
X368499Y75679D01*
X368640Y75697D01*
X368782Y75711D01*
X368924Y75721D01*
X369067Y75727D01*
X369209Y75729D01*
X369351Y75727D01*
X369494Y75721D01*
X369636Y75711D01*
X369778Y75697D01*
X369919Y75679D01*
X370060Y75657D01*
X370200Y75631D01*
X370339Y75602D01*
X370478Y75568D01*
X370615Y75530D01*
X370752Y75489D01*
X370887Y75444D01*
X371021Y75395D01*
X371153Y75342D01*
X371284Y75286D01*
X371413Y75226D01*
X371541Y75162D01*
X371666Y75095D01*
X371790Y75024D01*
X371912Y74950D01*
X372031Y74873D01*
X372149Y74792D01*
X372264Y74708D01*
X372376Y74621D01*
X372486Y74530D01*
X372594Y74437D01*
X372699Y74340D01*
X372801Y74241D01*
X372900Y74139D01*
X372997Y74034D01*
X373090Y73926D01*
X373181Y73816D01*
X373268Y73704D01*
X373352Y73589D01*
X373433Y73471D01*
X373510Y73352D01*
X373584Y73230D01*
X373655Y73106D01*
X373722Y72981D01*
X373786Y72853D01*
X373846Y72724D01*
X373902Y72593D01*
X373955Y72461D01*
X374004Y72327D01*
X374049Y72192D01*
X374090Y72055D01*
X374128Y71918D01*
X374162Y71779D01*
X374191Y71640D01*
X374217Y71500D01*
X374239Y71359D01*
X374257Y71218D01*
X374271Y71076D01*
X374281Y70934D01*
X374287Y70791D01*
X374289Y70649D01*
X374287Y70507D01*
X374281Y70364D01*
X374271Y70222D01*
X374257Y70080D01*
X374239Y69939D01*
X374217Y69798D01*
X374191Y69658D01*
X374162Y69519D01*
X374128Y69380D01*
X374090Y69243D01*
X374049Y69106D01*
X374004Y68971D01*
X373955Y68837D01*
X373902Y68705D01*
X373846Y68574D01*
X373786Y68445D01*
X373722Y68317D01*
X373655Y68192D01*
X373584Y68068D01*
X373510Y67946D01*
X373433Y67827D01*
X373352Y67709D01*
X373268Y67594D01*
X373181Y67482D01*
X373090Y67372D01*
X372997Y67264D01*
X372900Y67159D01*
X372801Y67057D01*
X372699Y66958D01*
X372594Y66861D01*
X372486Y66768D01*
X372376Y66677D01*
X372264Y66590D01*
X372149Y66506D01*
X372031Y66425D01*
X371912Y66348D01*
X371790Y66274D01*
X371666Y66203D01*
X371541Y66136D01*
X371413Y66072D01*
X371284Y66012D01*
X371153Y65956D01*
X371021Y65903D01*
X370887Y65854D01*
X370752Y65809D01*
X370615Y65768D01*
X370478Y65730D01*
X370339Y65696D01*
X370200Y65667D01*
X370060Y65641D01*
X369919Y65619D01*
X369778Y65601D01*
X369636Y65587D01*
X369494Y65577D01*
X369351Y65571D01*
X369209Y65569D01*
X369067Y65571D01*
X368924Y65577D01*
X368782Y65587D01*
X368640Y65601D01*
X368499Y65619D01*
X368358Y65641D01*
X368218Y65667D01*
X368079Y65696D01*
X367940Y65730D01*
X367803Y65768D01*
X367666Y65809D01*
X367531Y65854D01*
X367397Y65903D01*
X367265Y65956D01*
X367134Y66012D01*
X367005Y66072D01*
X366877Y66136D01*
X366752Y66203D01*
X366628Y66274D01*
X366506Y66348D01*
X366387Y66425D01*
X366269Y66506D01*
X366154Y66590D01*
X366042Y66677D01*
X365932Y66768D01*
X365824Y66861D01*
X365719Y66958D01*
X365617Y67057D01*
X365518Y67159D01*
X365421Y67264D01*
X365328Y67372D01*
X365237Y67482D01*
X365150Y67594D01*
X365066Y67709D01*
X364985Y67827D01*
X364908Y67946D01*
X364834Y68068D01*
X364763Y68192D01*
X364696Y68317D01*
X364632Y68445D01*
X364572Y68574D01*
X364516Y68705D01*
X364463Y68837D01*
X364414Y68971D01*
X364369Y69106D01*
X364328Y69243D01*
X364290Y69380D01*
X364256Y69519D01*
X364227Y69658D01*
X364201Y69798D01*
X364179Y69939D01*
X364161Y70080D01*
X364147Y70222D01*
X364137Y70364D01*
X364131Y70507D01*
X364129Y70649D01*
X414167Y70649D02*
X414169Y70791D01*
X414175Y70934D01*
X414185Y71076D01*
X414199Y71218D01*
X414217Y71359D01*
X414239Y71500D01*
X414265Y71640D01*
X414294Y71779D01*
X414328Y71918D01*
X414366Y72055D01*
X414407Y72192D01*
X414452Y72327D01*
X414501Y72461D01*
X414554Y72593D01*
X414610Y72724D01*
X414670Y72853D01*
X414734Y72981D01*
X414801Y73106D01*
X414872Y73230D01*
X414946Y73352D01*
X415023Y73471D01*
X415104Y73589D01*
X415188Y73704D01*
X415275Y73816D01*
X415366Y73926D01*
X415459Y74034D01*
X415556Y74139D01*
X415655Y74241D01*
X415757Y74340D01*
X415862Y74437D01*
X415970Y74530D01*
X416080Y74621D01*
X416192Y74708D01*
X416307Y74792D01*
X416425Y74873D01*
X416544Y74950D01*
X416666Y75024D01*
X416790Y75095D01*
X416915Y75162D01*
X417043Y75226D01*
X417172Y75286D01*
X417303Y75342D01*
X417435Y75395D01*
X417569Y75444D01*
X417704Y75489D01*
X417841Y75530D01*
X417978Y75568D01*
X418117Y75602D01*
X418256Y75631D01*
X418396Y75657D01*
X418537Y75679D01*
X418678Y75697D01*
X418820Y75711D01*
X418962Y75721D01*
X419105Y75727D01*
X419247Y75729D01*
X419389Y75727D01*
X419532Y75721D01*
X419674Y75711D01*
X419816Y75697D01*
X419957Y75679D01*
X420098Y75657D01*
X420238Y75631D01*
X420377Y75602D01*
X420516Y75568D01*
X420653Y75530D01*
X420790Y75489D01*
X420925Y75444D01*
X421059Y75395D01*
X421191Y75342D01*
X421322Y75286D01*
X421451Y75226D01*
X421579Y75162D01*
X421704Y75095D01*
X421828Y75024D01*
X421950Y74950D01*
X422069Y74873D01*
X422187Y74792D01*
X422302Y74708D01*
X422414Y74621D01*
X422524Y74530D01*
X422632Y74437D01*
X422737Y74340D01*
X422839Y74241D01*
X422938Y74139D01*
X423035Y74034D01*
X423128Y73926D01*
X423219Y73816D01*
X423306Y73704D01*
X423390Y73589D01*
X423471Y73471D01*
X423548Y73352D01*
X423622Y73230D01*
X423693Y73106D01*
X423760Y72981D01*
X423824Y72853D01*
X423884Y72724D01*
X423940Y72593D01*
X423993Y72461D01*
X424042Y72327D01*
X424087Y72192D01*
X424128Y72055D01*
X424166Y71918D01*
X424200Y71779D01*
X424229Y71640D01*
X424255Y71500D01*
X424277Y71359D01*
X424295Y71218D01*
X424309Y71076D01*
X424319Y70934D01*
X424325Y70791D01*
X424327Y70649D01*
X424325Y70507D01*
X424319Y70364D01*
X424309Y70222D01*
X424295Y70080D01*
X424277Y69939D01*
X424255Y69798D01*
X424229Y69658D01*
X424200Y69519D01*
X424166Y69380D01*
X424128Y69243D01*
X424087Y69106D01*
X424042Y68971D01*
X423993Y68837D01*
X423940Y68705D01*
X423884Y68574D01*
X423824Y68445D01*
X423760Y68317D01*
X423693Y68192D01*
X423622Y68068D01*
X423548Y67946D01*
X423471Y67827D01*
X423390Y67709D01*
X423306Y67594D01*
X423219Y67482D01*
X423128Y67372D01*
X423035Y67264D01*
X422938Y67159D01*
X422839Y67057D01*
X422737Y66958D01*
X422632Y66861D01*
X422524Y66768D01*
X422414Y66677D01*
X422302Y66590D01*
X422187Y66506D01*
X422069Y66425D01*
X421950Y66348D01*
X421828Y66274D01*
X421704Y66203D01*
X421579Y66136D01*
X421451Y66072D01*
X421322Y66012D01*
X421191Y65956D01*
X421059Y65903D01*
X420925Y65854D01*
X420790Y65809D01*
X420653Y65768D01*
X420516Y65730D01*
X420377Y65696D01*
X420238Y65667D01*
X420098Y65641D01*
X419957Y65619D01*
X419816Y65601D01*
X419674Y65587D01*
X419532Y65577D01*
X419389Y65571D01*
X419247Y65569D01*
X419105Y65571D01*
X418962Y65577D01*
X418820Y65587D01*
X418678Y65601D01*
X418537Y65619D01*
X418396Y65641D01*
X418256Y65667D01*
X418117Y65696D01*
X417978Y65730D01*
X417841Y65768D01*
X417704Y65809D01*
X417569Y65854D01*
X417435Y65903D01*
X417303Y65956D01*
X417172Y66012D01*
X417043Y66072D01*
X416915Y66136D01*
X416790Y66203D01*
X416666Y66274D01*
X416544Y66348D01*
X416425Y66425D01*
X416307Y66506D01*
X416192Y66590D01*
X416080Y66677D01*
X415970Y66768D01*
X415862Y66861D01*
X415757Y66958D01*
X415655Y67057D01*
X415556Y67159D01*
X415459Y67264D01*
X415366Y67372D01*
X415275Y67482D01*
X415188Y67594D01*
X415104Y67709D01*
X415023Y67827D01*
X414946Y67946D01*
X414872Y68068D01*
X414801Y68192D01*
X414734Y68317D01*
X414670Y68445D01*
X414610Y68574D01*
X414554Y68705D01*
X414501Y68837D01*
X414452Y68971D01*
X414407Y69106D01*
X414366Y69243D01*
X414328Y69380D01*
X414294Y69519D01*
X414265Y69658D01*
X414239Y69798D01*
X414217Y69939D01*
X414199Y70080D01*
X414185Y70222D01*
X414175Y70364D01*
X414169Y70507D01*
X414167Y70649D01*
D13*
X327044Y299222D02*
X277768Y299222D01*
X277768Y274838D01*
X327044Y274838D01*
X327044Y299222D01*
D15*
X274212Y281282D02*
X274210Y281340D01*
X274204Y281398D01*
X274195Y281455D01*
X274182Y281512D01*
X274165Y281568D01*
X274144Y281622D01*
X274120Y281675D01*
X274093Y281727D01*
X274062Y281776D01*
X274028Y281823D01*
X273991Y281868D01*
X273952Y281911D01*
X273909Y281950D01*
X273864Y281987D01*
X273817Y282021D01*
X273768Y282052D01*
X273716Y282079D01*
X273663Y282103D01*
X273609Y282124D01*
X273553Y282141D01*
X273496Y282154D01*
X273439Y282163D01*
X273381Y282169D01*
X273323Y282171D01*
X274212Y281282D02*
X274210Y281217D01*
X274205Y281152D01*
X274195Y281087D01*
X274182Y281023D01*
X274166Y280960D01*
X274145Y280898D01*
X274122Y280837D01*
X274095Y280778D01*
X274064Y280720D01*
X274030Y280664D01*
X273994Y280610D01*
X273954Y280559D01*
X273911Y280509D01*
X273865Y280463D01*
X273817Y280418D01*
X273767Y280377D01*
X273714Y280339D01*
X273659Y280304D01*
X273602Y280272D01*
X273543Y280243D01*
X273483Y280217D01*
X273422Y280196D01*
X272632Y281875D02*
X272674Y281916D01*
X272719Y281956D01*
X272766Y281992D01*
X272815Y282025D01*
X272867Y282055D01*
X272920Y282082D01*
X272974Y282105D01*
X273030Y282125D01*
X273088Y282142D01*
X273146Y282154D01*
X273204Y282164D01*
X273264Y282169D01*
X273323Y282171D01*
X272631Y281875D02*
X270656Y280195D01*
X270656Y282171D01*
X274212Y284939D02*
X274210Y284997D01*
X274204Y285055D01*
X274195Y285112D01*
X274182Y285169D01*
X274165Y285225D01*
X274144Y285279D01*
X274120Y285332D01*
X274093Y285384D01*
X274062Y285433D01*
X274028Y285480D01*
X273991Y285525D01*
X273952Y285568D01*
X273909Y285607D01*
X273864Y285644D01*
X273817Y285678D01*
X273768Y285709D01*
X273716Y285736D01*
X273663Y285760D01*
X273609Y285781D01*
X273553Y285798D01*
X273496Y285811D01*
X273439Y285820D01*
X273381Y285826D01*
X273323Y285828D01*
X274212Y284939D02*
X274210Y284874D01*
X274205Y284809D01*
X274195Y284744D01*
X274182Y284680D01*
X274166Y284617D01*
X274145Y284555D01*
X274122Y284494D01*
X274095Y284435D01*
X274064Y284377D01*
X274030Y284321D01*
X273994Y284267D01*
X273954Y284216D01*
X273911Y284166D01*
X273865Y284120D01*
X273817Y284075D01*
X273767Y284034D01*
X273714Y283996D01*
X273659Y283961D01*
X273602Y283929D01*
X273543Y283900D01*
X273483Y283874D01*
X273422Y283853D01*
X272632Y285532D02*
X272674Y285573D01*
X272719Y285613D01*
X272766Y285649D01*
X272815Y285682D01*
X272867Y285712D01*
X272920Y285739D01*
X272974Y285762D01*
X273030Y285782D01*
X273088Y285799D01*
X273146Y285811D01*
X273204Y285821D01*
X273264Y285826D01*
X273323Y285828D01*
X272631Y285532D02*
X270656Y283853D01*
X270656Y285828D01*
X271248Y287586D02*
X273026Y287586D01*
X271248Y287586D02*
X271201Y287588D01*
X271155Y287593D01*
X271110Y287602D01*
X271065Y287615D01*
X271021Y287631D01*
X270979Y287651D01*
X270938Y287673D01*
X270899Y287699D01*
X270863Y287728D01*
X270829Y287760D01*
X270797Y287794D01*
X270768Y287830D01*
X270742Y287869D01*
X270720Y287910D01*
X270700Y287952D01*
X270684Y287996D01*
X270671Y288041D01*
X270662Y288086D01*
X270657Y288132D01*
X270655Y288179D01*
X270656Y288179D02*
X270656Y289167D01*
X273026Y289167D01*
X273619Y291066D02*
X270656Y291066D01*
X273619Y291066D02*
X273666Y291068D01*
X273712Y291073D01*
X273757Y291082D01*
X273802Y291095D01*
X273846Y291111D01*
X273888Y291131D01*
X273929Y291153D01*
X273968Y291179D01*
X274004Y291208D01*
X274038Y291240D01*
X274070Y291274D01*
X274099Y291310D01*
X274125Y291349D01*
X274147Y291390D01*
X274167Y291432D01*
X274183Y291476D01*
X274196Y291521D01*
X274205Y291566D01*
X274210Y291612D01*
X274212Y291659D01*
X274212Y291856D01*
X273026Y291856D02*
X273026Y290671D01*
D13*
X264766Y274886D02*
X215490Y274886D01*
X264766Y274886D02*
X264766Y299270D01*
X215490Y299270D01*
X215490Y274886D01*
D15*
X211934Y281329D02*
X211932Y281387D01*
X211926Y281445D01*
X211917Y281502D01*
X211904Y281559D01*
X211887Y281615D01*
X211866Y281669D01*
X211842Y281722D01*
X211815Y281774D01*
X211784Y281823D01*
X211750Y281870D01*
X211713Y281915D01*
X211674Y281958D01*
X211631Y281997D01*
X211586Y282034D01*
X211539Y282068D01*
X211490Y282099D01*
X211438Y282126D01*
X211385Y282150D01*
X211331Y282171D01*
X211275Y282188D01*
X211218Y282201D01*
X211161Y282210D01*
X211103Y282216D01*
X211045Y282218D01*
X211934Y281329D02*
X211932Y281264D01*
X211927Y281199D01*
X211917Y281134D01*
X211904Y281070D01*
X211888Y281007D01*
X211867Y280945D01*
X211844Y280884D01*
X211817Y280825D01*
X211786Y280767D01*
X211752Y280711D01*
X211716Y280657D01*
X211676Y280606D01*
X211633Y280556D01*
X211587Y280510D01*
X211539Y280465D01*
X211489Y280424D01*
X211436Y280386D01*
X211381Y280351D01*
X211324Y280319D01*
X211265Y280290D01*
X211205Y280264D01*
X211144Y280243D01*
X210354Y281922D02*
X210396Y281963D01*
X210441Y282003D01*
X210488Y282039D01*
X210537Y282072D01*
X210589Y282102D01*
X210642Y282129D01*
X210696Y282152D01*
X210752Y282172D01*
X210810Y282189D01*
X210868Y282201D01*
X210926Y282211D01*
X210986Y282216D01*
X211045Y282218D01*
X210353Y281922D02*
X208378Y280243D01*
X208378Y282218D01*
X211934Y284987D02*
X211932Y285045D01*
X211926Y285103D01*
X211917Y285160D01*
X211904Y285217D01*
X211887Y285273D01*
X211866Y285327D01*
X211842Y285380D01*
X211815Y285432D01*
X211784Y285481D01*
X211750Y285528D01*
X211713Y285573D01*
X211674Y285616D01*
X211631Y285655D01*
X211586Y285692D01*
X211539Y285726D01*
X211490Y285757D01*
X211438Y285784D01*
X211385Y285808D01*
X211331Y285829D01*
X211275Y285846D01*
X211218Y285859D01*
X211161Y285868D01*
X211103Y285874D01*
X211045Y285876D01*
X211934Y284987D02*
X211932Y284922D01*
X211927Y284857D01*
X211917Y284792D01*
X211904Y284728D01*
X211888Y284665D01*
X211867Y284603D01*
X211844Y284542D01*
X211817Y284483D01*
X211786Y284425D01*
X211752Y284369D01*
X211716Y284315D01*
X211676Y284264D01*
X211633Y284214D01*
X211587Y284168D01*
X211539Y284123D01*
X211489Y284082D01*
X211436Y284044D01*
X211381Y284009D01*
X211324Y283977D01*
X211265Y283948D01*
X211205Y283922D01*
X211144Y283901D01*
X210354Y285580D02*
X210396Y285621D01*
X210441Y285661D01*
X210488Y285697D01*
X210537Y285730D01*
X210589Y285760D01*
X210642Y285787D01*
X210696Y285810D01*
X210752Y285830D01*
X210810Y285847D01*
X210868Y285859D01*
X210926Y285869D01*
X210986Y285874D01*
X211045Y285876D01*
X210353Y285580D02*
X208378Y283900D01*
X208378Y285876D01*
X208970Y287634D02*
X210748Y287634D01*
X208970Y287633D02*
X208923Y287635D01*
X208877Y287640D01*
X208832Y287649D01*
X208787Y287662D01*
X208743Y287678D01*
X208701Y287698D01*
X208660Y287720D01*
X208621Y287746D01*
X208585Y287775D01*
X208551Y287807D01*
X208519Y287841D01*
X208490Y287877D01*
X208464Y287916D01*
X208442Y287957D01*
X208422Y287999D01*
X208406Y288043D01*
X208393Y288088D01*
X208384Y288133D01*
X208379Y288179D01*
X208377Y288226D01*
X208378Y288226D02*
X208378Y289214D01*
X210748Y289214D01*
X211341Y291114D02*
X208378Y291114D01*
X211341Y291113D02*
X211388Y291115D01*
X211434Y291120D01*
X211479Y291129D01*
X211524Y291142D01*
X211568Y291158D01*
X211610Y291178D01*
X211651Y291200D01*
X211690Y291226D01*
X211726Y291255D01*
X211760Y291287D01*
X211792Y291321D01*
X211821Y291357D01*
X211847Y291396D01*
X211869Y291437D01*
X211889Y291479D01*
X211905Y291523D01*
X211918Y291568D01*
X211927Y291613D01*
X211932Y291659D01*
X211934Y291706D01*
X211934Y291904D01*
X210748Y291904D02*
X210748Y290719D01*
D13*
X215286Y303603D02*
X264562Y303603D01*
X264562Y327987D01*
X215286Y327987D01*
X215286Y303603D01*
D15*
X211730Y306290D02*
X210940Y305303D01*
X211730Y306290D02*
X208174Y306290D01*
X208174Y305303D02*
X208174Y307278D01*
X209952Y308961D02*
X210054Y308963D01*
X210156Y308968D01*
X210258Y308977D01*
X210360Y308989D01*
X210461Y309005D01*
X210561Y309025D01*
X210661Y309048D01*
X210759Y309074D01*
X210857Y309104D01*
X210954Y309138D01*
X211049Y309174D01*
X211143Y309214D01*
X211236Y309257D01*
X211286Y309276D01*
X211334Y309298D01*
X211381Y309325D01*
X211425Y309354D01*
X211467Y309387D01*
X211507Y309422D01*
X211544Y309461D01*
X211578Y309502D01*
X211609Y309545D01*
X211637Y309591D01*
X211661Y309638D01*
X211682Y309687D01*
X211699Y309738D01*
X211713Y309789D01*
X211722Y309842D01*
X211728Y309895D01*
X211730Y309948D01*
X211728Y310001D01*
X211722Y310054D01*
X211713Y310107D01*
X211699Y310158D01*
X211682Y310209D01*
X211661Y310258D01*
X211637Y310305D01*
X211609Y310351D01*
X211578Y310394D01*
X211544Y310435D01*
X211507Y310474D01*
X211467Y310509D01*
X211425Y310542D01*
X211381Y310572D01*
X211334Y310598D01*
X211286Y310620D01*
X211236Y310639D01*
X211143Y310682D01*
X211049Y310722D01*
X210954Y310758D01*
X210857Y310792D01*
X210759Y310822D01*
X210661Y310848D01*
X210561Y310871D01*
X210461Y310891D01*
X210360Y310907D01*
X210258Y310919D01*
X210156Y310928D01*
X210054Y310933D01*
X209952Y310935D01*
X209952Y308960D02*
X209850Y308962D01*
X209748Y308967D01*
X209646Y308976D01*
X209544Y308988D01*
X209443Y309004D01*
X209343Y309024D01*
X209243Y309047D01*
X209144Y309073D01*
X209047Y309103D01*
X208950Y309137D01*
X208855Y309173D01*
X208760Y309213D01*
X208668Y309256D01*
X208668Y309257D02*
X208618Y309276D01*
X208570Y309298D01*
X208523Y309325D01*
X208479Y309354D01*
X208437Y309387D01*
X208397Y309422D01*
X208360Y309461D01*
X208326Y309502D01*
X208295Y309545D01*
X208267Y309591D01*
X208243Y309638D01*
X208222Y309687D01*
X208205Y309738D01*
X208191Y309789D01*
X208182Y309842D01*
X208176Y309895D01*
X208174Y309948D01*
X208668Y310640D02*
X208760Y310683D01*
X208855Y310723D01*
X208950Y310759D01*
X209047Y310793D01*
X209144Y310823D01*
X209243Y310849D01*
X209343Y310872D01*
X209443Y310892D01*
X209544Y310908D01*
X209646Y310920D01*
X209748Y310929D01*
X209850Y310934D01*
X209952Y310936D01*
X208668Y310639D02*
X208618Y310620D01*
X208570Y310598D01*
X208523Y310571D01*
X208479Y310542D01*
X208437Y310509D01*
X208397Y310474D01*
X208360Y310435D01*
X208326Y310394D01*
X208295Y310351D01*
X208267Y310305D01*
X208243Y310258D01*
X208222Y310209D01*
X208205Y310158D01*
X208191Y310107D01*
X208182Y310054D01*
X208176Y310001D01*
X208174Y309948D01*
X208964Y309158D02*
X210940Y310738D01*
X209952Y312618D02*
X210054Y312620D01*
X210156Y312625D01*
X210258Y312634D01*
X210360Y312646D01*
X210461Y312662D01*
X210561Y312682D01*
X210661Y312705D01*
X210759Y312731D01*
X210857Y312761D01*
X210954Y312795D01*
X211049Y312831D01*
X211143Y312871D01*
X211236Y312914D01*
X211236Y312915D02*
X211286Y312934D01*
X211334Y312956D01*
X211381Y312983D01*
X211425Y313012D01*
X211467Y313045D01*
X211507Y313080D01*
X211544Y313119D01*
X211578Y313160D01*
X211609Y313203D01*
X211637Y313249D01*
X211661Y313296D01*
X211682Y313345D01*
X211699Y313396D01*
X211713Y313447D01*
X211722Y313500D01*
X211728Y313553D01*
X211730Y313606D01*
X211728Y313659D01*
X211722Y313712D01*
X211713Y313765D01*
X211699Y313816D01*
X211682Y313867D01*
X211661Y313916D01*
X211637Y313963D01*
X211609Y314009D01*
X211578Y314052D01*
X211544Y314093D01*
X211507Y314132D01*
X211467Y314167D01*
X211425Y314200D01*
X211381Y314230D01*
X211334Y314256D01*
X211286Y314278D01*
X211236Y314297D01*
X211143Y314340D01*
X211049Y314380D01*
X210954Y314416D01*
X210857Y314450D01*
X210759Y314480D01*
X210661Y314506D01*
X210561Y314529D01*
X210461Y314549D01*
X210360Y314565D01*
X210258Y314577D01*
X210156Y314586D01*
X210054Y314591D01*
X209952Y314593D01*
X209952Y312617D02*
X209850Y312619D01*
X209748Y312624D01*
X209646Y312633D01*
X209544Y312645D01*
X209443Y312661D01*
X209343Y312681D01*
X209243Y312704D01*
X209144Y312730D01*
X209047Y312760D01*
X208950Y312794D01*
X208855Y312830D01*
X208760Y312870D01*
X208668Y312913D01*
X208668Y312915D02*
X208618Y312934D01*
X208570Y312956D01*
X208523Y312983D01*
X208479Y313012D01*
X208437Y313045D01*
X208397Y313080D01*
X208360Y313119D01*
X208326Y313160D01*
X208295Y313203D01*
X208267Y313249D01*
X208243Y313296D01*
X208222Y313345D01*
X208205Y313396D01*
X208191Y313447D01*
X208182Y313500D01*
X208176Y313553D01*
X208174Y313606D01*
X208668Y314298D02*
X208760Y314341D01*
X208855Y314381D01*
X208950Y314417D01*
X209047Y314451D01*
X209144Y314481D01*
X209243Y314507D01*
X209343Y314530D01*
X209443Y314550D01*
X209544Y314566D01*
X209646Y314578D01*
X209748Y314587D01*
X209850Y314592D01*
X209952Y314594D01*
X208668Y314297D02*
X208618Y314278D01*
X208570Y314256D01*
X208523Y314229D01*
X208479Y314200D01*
X208437Y314167D01*
X208397Y314132D01*
X208360Y314093D01*
X208326Y314052D01*
X208295Y314009D01*
X208267Y313963D01*
X208243Y313916D01*
X208222Y313867D01*
X208205Y313816D01*
X208191Y313765D01*
X208182Y313712D01*
X208176Y313659D01*
X208174Y313606D01*
X208964Y312815D02*
X210940Y314396D01*
X210544Y316351D02*
X208766Y316351D01*
X208719Y316353D01*
X208673Y316358D01*
X208628Y316367D01*
X208583Y316380D01*
X208539Y316396D01*
X208497Y316416D01*
X208456Y316438D01*
X208417Y316464D01*
X208381Y316493D01*
X208347Y316525D01*
X208315Y316559D01*
X208286Y316595D01*
X208260Y316634D01*
X208238Y316675D01*
X208218Y316717D01*
X208202Y316761D01*
X208189Y316806D01*
X208180Y316851D01*
X208175Y316897D01*
X208173Y316944D01*
X208174Y316944D02*
X208174Y317931D01*
X210544Y317931D01*
X211137Y319831D02*
X208174Y319831D01*
X211137Y319831D02*
X211184Y319833D01*
X211230Y319838D01*
X211275Y319847D01*
X211320Y319860D01*
X211364Y319876D01*
X211406Y319896D01*
X211447Y319918D01*
X211486Y319944D01*
X211522Y319973D01*
X211556Y320005D01*
X211588Y320039D01*
X211617Y320075D01*
X211643Y320114D01*
X211665Y320155D01*
X211685Y320197D01*
X211701Y320241D01*
X211714Y320286D01*
X211723Y320331D01*
X211728Y320377D01*
X211730Y320424D01*
X211730Y320621D01*
X210544Y320621D02*
X210544Y319436D01*
D17*
X159613Y87172D02*
X146913Y87172D01*
X146913Y78282D02*
X159613Y78282D01*
D16*
X159613Y17322D01*
D17*
X159613Y78282D02*
X172313Y78282D01*
D16*
X159613Y87172D02*
X159613Y93522D01*
D17*
X159613Y87172D02*
X172313Y87172D01*
D16*
X134213Y116382D02*
X134213Y-5539D01*
X139293Y-10619D02*
X179933Y-10619D01*
X185013Y-5539D02*
X185013Y116382D01*
X179933Y121462D02*
X139293Y121462D01*
X134213Y-5539D02*
X134215Y-5679D01*
X134221Y-5819D01*
X134230Y-5959D01*
X134244Y-6098D01*
X134261Y-6237D01*
X134282Y-6375D01*
X134307Y-6513D01*
X134336Y-6650D01*
X134368Y-6786D01*
X134405Y-6921D01*
X134445Y-7055D01*
X134488Y-7188D01*
X134536Y-7320D01*
X134586Y-7451D01*
X134641Y-7580D01*
X134699Y-7707D01*
X134760Y-7833D01*
X134825Y-7957D01*
X134894Y-8079D01*
X134965Y-8199D01*
X135040Y-8317D01*
X135118Y-8434D01*
X135200Y-8548D01*
X135284Y-8659D01*
X135372Y-8768D01*
X135462Y-8875D01*
X135556Y-8980D01*
X135652Y-9081D01*
X135751Y-9180D01*
X135852Y-9276D01*
X135957Y-9370D01*
X136064Y-9460D01*
X136173Y-9548D01*
X136284Y-9632D01*
X136398Y-9714D01*
X136515Y-9792D01*
X136633Y-9867D01*
X136753Y-9938D01*
X136875Y-10007D01*
X136999Y-10072D01*
X137125Y-10133D01*
X137252Y-10191D01*
X137381Y-10246D01*
X137512Y-10296D01*
X137644Y-10344D01*
X137777Y-10387D01*
X137911Y-10427D01*
X138046Y-10464D01*
X138182Y-10496D01*
X138319Y-10525D01*
X138457Y-10550D01*
X138595Y-10571D01*
X138734Y-10588D01*
X138873Y-10602D01*
X139013Y-10611D01*
X139153Y-10617D01*
X139293Y-10619D01*
X179933Y-10619D02*
X180073Y-10617D01*
X180213Y-10611D01*
X180353Y-10602D01*
X180492Y-10588D01*
X180631Y-10571D01*
X180769Y-10550D01*
X180907Y-10525D01*
X181044Y-10496D01*
X181180Y-10464D01*
X181315Y-10427D01*
X181449Y-10387D01*
X181582Y-10344D01*
X181714Y-10296D01*
X181845Y-10246D01*
X181974Y-10191D01*
X182101Y-10133D01*
X182227Y-10072D01*
X182351Y-10007D01*
X182473Y-9938D01*
X182593Y-9867D01*
X182711Y-9792D01*
X182828Y-9714D01*
X182942Y-9632D01*
X183053Y-9548D01*
X183162Y-9460D01*
X183269Y-9370D01*
X183374Y-9276D01*
X183475Y-9180D01*
X183574Y-9081D01*
X183670Y-8980D01*
X183764Y-8875D01*
X183854Y-8768D01*
X183942Y-8659D01*
X184026Y-8548D01*
X184108Y-8434D01*
X184186Y-8317D01*
X184261Y-8199D01*
X184332Y-8079D01*
X184401Y-7957D01*
X184466Y-7833D01*
X184527Y-7707D01*
X184585Y-7580D01*
X184640Y-7451D01*
X184690Y-7320D01*
X184738Y-7188D01*
X184781Y-7055D01*
X184821Y-6921D01*
X184858Y-6786D01*
X184890Y-6650D01*
X184919Y-6513D01*
X184944Y-6375D01*
X184965Y-6237D01*
X184982Y-6098D01*
X184996Y-5959D01*
X185005Y-5819D01*
X185011Y-5679D01*
X185013Y-5539D01*
X185013Y116382D02*
X185011Y116522D01*
X185005Y116662D01*
X184996Y116802D01*
X184982Y116941D01*
X184965Y117080D01*
X184944Y117218D01*
X184919Y117356D01*
X184890Y117493D01*
X184858Y117629D01*
X184821Y117764D01*
X184781Y117898D01*
X184738Y118031D01*
X184690Y118163D01*
X184640Y118294D01*
X184585Y118423D01*
X184527Y118550D01*
X184466Y118676D01*
X184401Y118800D01*
X184332Y118922D01*
X184261Y119042D01*
X184186Y119160D01*
X184108Y119277D01*
X184026Y119391D01*
X183942Y119502D01*
X183854Y119611D01*
X183764Y119718D01*
X183670Y119823D01*
X183574Y119924D01*
X183475Y120023D01*
X183374Y120119D01*
X183269Y120213D01*
X183162Y120303D01*
X183053Y120391D01*
X182942Y120475D01*
X182828Y120557D01*
X182711Y120635D01*
X182593Y120710D01*
X182473Y120781D01*
X182351Y120850D01*
X182227Y120915D01*
X182101Y120976D01*
X181974Y121034D01*
X181845Y121089D01*
X181714Y121139D01*
X181582Y121187D01*
X181449Y121230D01*
X181315Y121270D01*
X181180Y121307D01*
X181044Y121339D01*
X180907Y121368D01*
X180769Y121393D01*
X180631Y121414D01*
X180492Y121431D01*
X180353Y121445D01*
X180213Y121454D01*
X180073Y121460D01*
X179933Y121462D01*
X139293Y121462D02*
X139153Y121460D01*
X139013Y121454D01*
X138873Y121445D01*
X138734Y121431D01*
X138595Y121414D01*
X138457Y121393D01*
X138319Y121368D01*
X138182Y121339D01*
X138046Y121307D01*
X137911Y121270D01*
X137777Y121230D01*
X137644Y121187D01*
X137512Y121139D01*
X137381Y121089D01*
X137252Y121034D01*
X137125Y120976D01*
X136999Y120915D01*
X136875Y120850D01*
X136753Y120781D01*
X136633Y120710D01*
X136515Y120635D01*
X136398Y120557D01*
X136284Y120475D01*
X136173Y120391D01*
X136064Y120303D01*
X135957Y120213D01*
X135852Y120119D01*
X135751Y120023D01*
X135652Y119924D01*
X135556Y119823D01*
X135462Y119718D01*
X135372Y119611D01*
X135284Y119502D01*
X135200Y119391D01*
X135118Y119277D01*
X135040Y119160D01*
X134965Y119042D01*
X134894Y118922D01*
X134825Y118800D01*
X134760Y118676D01*
X134699Y118550D01*
X134641Y118423D01*
X134586Y118294D01*
X134536Y118163D01*
X134488Y118031D01*
X134445Y117898D01*
X134405Y117764D01*
X134368Y117629D01*
X134336Y117493D01*
X134307Y117356D01*
X134282Y117218D01*
X134261Y117080D01*
X134244Y116941D01*
X134230Y116802D01*
X134221Y116662D01*
X134215Y116522D01*
X134213Y116382D01*
X283112Y369047D02*
X283112Y389047D01*
X297112Y389047D02*
X297112Y369047D01*
X286112Y378047D02*
X290112Y384047D01*
X286112Y378047D02*
X294112Y378047D01*
X290112Y384047D01*
D12*
X291608Y357722D02*
X287798Y357722D01*
X291608Y357722D02*
X291608Y358781D01*
X291606Y358845D01*
X291600Y358909D01*
X291591Y358972D01*
X291577Y359034D01*
X291560Y359096D01*
X291539Y359156D01*
X291515Y359215D01*
X291487Y359273D01*
X291455Y359328D01*
X291421Y359382D01*
X291383Y359433D01*
X291342Y359483D01*
X291298Y359529D01*
X291252Y359573D01*
X291202Y359614D01*
X291151Y359652D01*
X291097Y359686D01*
X291042Y359718D01*
X290984Y359746D01*
X290925Y359770D01*
X290865Y359791D01*
X290803Y359808D01*
X290741Y359822D01*
X290678Y359831D01*
X290614Y359837D01*
X290550Y359839D01*
X288856Y359839D01*
X288792Y359837D01*
X288728Y359831D01*
X288665Y359822D01*
X288603Y359808D01*
X288541Y359791D01*
X288481Y359770D01*
X288422Y359746D01*
X288364Y359718D01*
X288309Y359686D01*
X288255Y359652D01*
X288204Y359614D01*
X288154Y359573D01*
X288108Y359529D01*
X288064Y359483D01*
X288023Y359433D01*
X287985Y359382D01*
X287951Y359328D01*
X287919Y359273D01*
X287891Y359215D01*
X287867Y359156D01*
X287846Y359096D01*
X287829Y359034D01*
X287815Y358972D01*
X287806Y358909D01*
X287800Y358845D01*
X287798Y358781D01*
X287798Y357722D01*
X290761Y361502D02*
X291608Y362560D01*
X287798Y362560D01*
X287798Y361502D02*
X287798Y363618D01*
D16*
X303273Y369578D02*
X303273Y389578D01*
X317273Y389578D02*
X317273Y369578D01*
X306273Y378578D02*
X310273Y384578D01*
X306273Y378578D02*
X314273Y378578D01*
X310273Y384578D01*
D12*
X312065Y357318D02*
X308255Y357318D01*
X312065Y357318D02*
X312065Y358377D01*
X312063Y358441D01*
X312057Y358505D01*
X312048Y358568D01*
X312034Y358630D01*
X312017Y358692D01*
X311996Y358752D01*
X311972Y358811D01*
X311944Y358869D01*
X311912Y358924D01*
X311878Y358978D01*
X311840Y359029D01*
X311799Y359079D01*
X311755Y359125D01*
X311709Y359169D01*
X311659Y359210D01*
X311608Y359248D01*
X311554Y359282D01*
X311499Y359314D01*
X311441Y359342D01*
X311382Y359366D01*
X311322Y359387D01*
X311260Y359404D01*
X311198Y359418D01*
X311135Y359427D01*
X311071Y359433D01*
X311007Y359435D01*
X309313Y359435D01*
X309249Y359433D01*
X309185Y359427D01*
X309122Y359418D01*
X309060Y359404D01*
X308998Y359387D01*
X308938Y359366D01*
X308879Y359342D01*
X308821Y359314D01*
X308766Y359282D01*
X308712Y359248D01*
X308661Y359210D01*
X308611Y359169D01*
X308565Y359125D01*
X308521Y359079D01*
X308480Y359029D01*
X308442Y358978D01*
X308408Y358924D01*
X308376Y358869D01*
X308348Y358811D01*
X308324Y358752D01*
X308303Y358692D01*
X308286Y358630D01*
X308272Y358568D01*
X308263Y358505D01*
X308257Y358441D01*
X308255Y358377D01*
X308255Y357318D01*
X312066Y362262D02*
X312064Y362322D01*
X312058Y362381D01*
X312049Y362441D01*
X312036Y362499D01*
X312019Y362556D01*
X311999Y362613D01*
X311975Y362668D01*
X311948Y362721D01*
X311918Y362773D01*
X311884Y362822D01*
X311847Y362869D01*
X311808Y362914D01*
X311765Y362957D01*
X311720Y362996D01*
X311673Y363033D01*
X311624Y363067D01*
X311572Y363097D01*
X311519Y363124D01*
X311464Y363148D01*
X311407Y363168D01*
X311350Y363185D01*
X311292Y363198D01*
X311232Y363207D01*
X311173Y363213D01*
X311113Y363215D01*
X312065Y362262D02*
X312063Y362195D01*
X312058Y362128D01*
X312049Y362062D01*
X312036Y361996D01*
X312020Y361932D01*
X312000Y361868D01*
X311976Y361805D01*
X311950Y361743D01*
X311920Y361684D01*
X311887Y361626D01*
X311850Y361569D01*
X311811Y361515D01*
X311769Y361463D01*
X311724Y361414D01*
X311676Y361367D01*
X311626Y361323D01*
X311573Y361281D01*
X311518Y361243D01*
X311462Y361207D01*
X311403Y361175D01*
X311343Y361146D01*
X311281Y361120D01*
X311218Y361098D01*
X310372Y362897D02*
X310414Y362938D01*
X310459Y362977D01*
X310505Y363014D01*
X310554Y363048D01*
X310604Y363079D01*
X310656Y363106D01*
X310710Y363131D01*
X310765Y363153D01*
X310821Y363172D01*
X310878Y363187D01*
X310936Y363199D01*
X310995Y363207D01*
X311054Y363212D01*
X311113Y363214D01*
X310372Y362897D02*
X308255Y361098D01*
X308255Y363214D01*
D16*
X336074Y370204D02*
X336074Y390204D01*
X322074Y390204D02*
X322074Y370204D01*
X329074Y375204D02*
X333074Y381204D01*
X325074Y381204D01*
X329074Y375204D01*
D12*
X329413Y358015D02*
X333223Y358015D01*
X333223Y359073D01*
X333221Y359137D01*
X333215Y359201D01*
X333206Y359264D01*
X333192Y359326D01*
X333175Y359388D01*
X333154Y359448D01*
X333130Y359507D01*
X333102Y359565D01*
X333070Y359620D01*
X333036Y359674D01*
X332998Y359725D01*
X332957Y359775D01*
X332913Y359821D01*
X332867Y359865D01*
X332817Y359906D01*
X332766Y359944D01*
X332712Y359978D01*
X332657Y360010D01*
X332599Y360038D01*
X332540Y360062D01*
X332480Y360083D01*
X332418Y360100D01*
X332356Y360114D01*
X332293Y360123D01*
X332229Y360129D01*
X332165Y360131D01*
X330472Y360131D01*
X330408Y360129D01*
X330344Y360123D01*
X330281Y360114D01*
X330219Y360100D01*
X330157Y360083D01*
X330097Y360062D01*
X330038Y360038D01*
X329980Y360010D01*
X329925Y359978D01*
X329871Y359944D01*
X329820Y359906D01*
X329770Y359865D01*
X329724Y359821D01*
X329680Y359775D01*
X329639Y359725D01*
X329601Y359674D01*
X329567Y359620D01*
X329535Y359565D01*
X329507Y359507D01*
X329483Y359448D01*
X329462Y359388D01*
X329445Y359326D01*
X329431Y359264D01*
X329422Y359201D01*
X329416Y359137D01*
X329414Y359073D01*
X329413Y359073D02*
X329413Y358015D01*
X330260Y361794D02*
X333223Y362641D01*
X330260Y361794D02*
X330260Y363911D01*
X331107Y363276D02*
X329413Y363276D01*
D18*
X323516Y417039D02*
X323516Y426309D01*
X323516Y417039D02*
X319786Y417039D01*
X256056Y417039D02*
X256056Y426309D01*
X256056Y417039D02*
X259786Y417039D01*
X269786Y446039D02*
X309786Y446039D01*
D19*
X293410Y455826D02*
X293410Y463192D01*
X290136Y463192D01*
X290136Y459918D02*
X293410Y459918D01*
X285771Y463192D02*
X285771Y455826D01*
X287817Y463192D02*
X283725Y463192D01*
X280746Y463192D02*
X280746Y455826D01*
X280746Y463192D02*
X278700Y463192D01*
X278611Y463190D01*
X278522Y463184D01*
X278433Y463174D01*
X278345Y463161D01*
X278257Y463144D01*
X278170Y463122D01*
X278085Y463097D01*
X278000Y463069D01*
X277917Y463036D01*
X277835Y463000D01*
X277755Y462961D01*
X277677Y462918D01*
X277601Y462872D01*
X277526Y462822D01*
X277454Y462769D01*
X277385Y462713D01*
X277318Y462654D01*
X277253Y462593D01*
X277192Y462528D01*
X277133Y462461D01*
X277077Y462392D01*
X277024Y462320D01*
X276974Y462245D01*
X276928Y462169D01*
X276885Y462091D01*
X276846Y462011D01*
X276810Y461929D01*
X276777Y461846D01*
X276749Y461761D01*
X276724Y461676D01*
X276702Y461589D01*
X276685Y461501D01*
X276672Y461413D01*
X276662Y461324D01*
X276656Y461235D01*
X276654Y461146D01*
X276654Y457872D01*
X276656Y457783D01*
X276662Y457694D01*
X276672Y457605D01*
X276685Y457517D01*
X276702Y457429D01*
X276724Y457342D01*
X276749Y457257D01*
X276777Y457172D01*
X276810Y457089D01*
X276846Y457007D01*
X276885Y456927D01*
X276928Y456849D01*
X276974Y456773D01*
X277024Y456698D01*
X277077Y456626D01*
X277133Y456557D01*
X277192Y456490D01*
X277253Y456425D01*
X277318Y456364D01*
X277385Y456305D01*
X277454Y456249D01*
X277526Y456196D01*
X277601Y456146D01*
X277677Y456100D01*
X277755Y456057D01*
X277835Y456018D01*
X277917Y455982D01*
X278000Y455949D01*
X278085Y455921D01*
X278170Y455896D01*
X278257Y455874D01*
X278345Y455857D01*
X278433Y455844D01*
X278522Y455834D01*
X278611Y455828D01*
X278700Y455826D01*
X280746Y455826D01*
X272604Y455826D02*
X272604Y463192D01*
X273422Y455826D02*
X271785Y455826D01*
X271785Y463192D02*
X273422Y463192D01*
D13*
X345374Y393972D02*
X345374Y366032D01*
X358074Y366032D01*
X358074Y393972D01*
X345374Y393972D01*
D11*
X133941Y119545D02*
X133941Y18545D01*
X3941Y18545D01*
X3941Y119545D01*
X133941Y119545D01*
D20*
X129341Y42859D02*
X129335Y42395D01*
X129318Y41932D01*
X129290Y41468D01*
X129251Y41006D01*
X129200Y40545D01*
X129138Y40085D01*
X129065Y39627D01*
X128981Y39171D01*
X128885Y38717D01*
X128779Y38265D01*
X128662Y37817D01*
X128533Y37371D01*
X128394Y36928D01*
X128244Y36489D01*
X128084Y36054D01*
X127913Y35622D01*
X127732Y35196D01*
X127540Y34773D01*
X127338Y34355D01*
X127126Y33943D01*
X126904Y33536D01*
X126672Y33134D01*
X126430Y32738D01*
X126179Y32348D01*
X125918Y31964D01*
X125648Y31587D01*
X125369Y31216D01*
X125081Y30852D01*
X124784Y30496D01*
X124479Y30147D01*
X124165Y29805D01*
X123843Y29471D01*
X123513Y29145D01*
X123175Y28827D01*
X122830Y28517D01*
X122477Y28216D01*
X122117Y27924D01*
X121749Y27640D01*
X121375Y27366D01*
X120995Y27101D01*
X120608Y26845D01*
X120215Y26598D01*
X119816Y26361D01*
X119411Y26134D01*
X119001Y25917D01*
X118586Y25710D01*
X118166Y25513D01*
X117742Y25326D01*
X117312Y25150D01*
X116879Y24984D01*
X116442Y24829D01*
X116001Y24685D01*
X115557Y24551D01*
X115109Y24428D01*
X114659Y24317D01*
X114206Y24216D01*
X113751Y24126D01*
X113294Y24047D01*
X112835Y23980D01*
X112375Y23923D01*
X111913Y23878D01*
X111450Y23844D01*
X110987Y23822D01*
X110523Y23810D01*
X110059Y23810D01*
X109595Y23822D01*
X109132Y23844D01*
X108669Y23878D01*
X108207Y23923D01*
X107747Y23980D01*
X107288Y24047D01*
X106831Y24126D01*
X106376Y24216D01*
X105923Y24317D01*
X105473Y24428D01*
X105025Y24551D01*
X104581Y24685D01*
X104140Y24829D01*
X103703Y24984D01*
X103270Y25150D01*
X102840Y25326D01*
X102416Y25513D01*
X101996Y25710D01*
X101581Y25917D01*
X101171Y26134D01*
X100766Y26361D01*
X100367Y26598D01*
X99974Y26845D01*
X99587Y27101D01*
X99207Y27366D01*
X98833Y27640D01*
X98465Y27924D01*
X98105Y28216D01*
X97752Y28517D01*
X97407Y28827D01*
X97069Y29145D01*
X96739Y29471D01*
X96417Y29805D01*
X96103Y30147D01*
X95798Y30496D01*
X95501Y30852D01*
X95213Y31216D01*
X94934Y31587D01*
X94664Y31964D01*
X94403Y32348D01*
X94152Y32738D01*
X93910Y33134D01*
X93678Y33536D01*
X93456Y33943D01*
X93244Y34355D01*
X93042Y34773D01*
X92850Y35196D01*
X92669Y35622D01*
X92498Y36054D01*
X92338Y36489D01*
X92188Y36928D01*
X92049Y37371D01*
X91920Y37817D01*
X91803Y38265D01*
X91697Y38717D01*
X91601Y39171D01*
X91517Y39627D01*
X91444Y40085D01*
X91382Y40545D01*
X91331Y41006D01*
X91292Y41468D01*
X91264Y41932D01*
X91247Y42395D01*
X91241Y42859D01*
X91241Y94231D02*
X91247Y94695D01*
X91264Y95158D01*
X91292Y95622D01*
X91331Y96084D01*
X91382Y96545D01*
X91444Y97005D01*
X91517Y97463D01*
X91601Y97919D01*
X91697Y98373D01*
X91803Y98825D01*
X91920Y99273D01*
X92049Y99719D01*
X92188Y100162D01*
X92338Y100601D01*
X92498Y101036D01*
X92669Y101468D01*
X92850Y101894D01*
X93042Y102317D01*
X93244Y102735D01*
X93456Y103147D01*
X93678Y103554D01*
X93910Y103956D01*
X94152Y104352D01*
X94403Y104742D01*
X94664Y105126D01*
X94934Y105503D01*
X95213Y105874D01*
X95501Y106238D01*
X95798Y106594D01*
X96103Y106943D01*
X96417Y107285D01*
X96739Y107619D01*
X97069Y107945D01*
X97407Y108263D01*
X97752Y108573D01*
X98105Y108874D01*
X98465Y109166D01*
X98833Y109450D01*
X99207Y109724D01*
X99587Y109989D01*
X99974Y110245D01*
X100367Y110492D01*
X100766Y110729D01*
X101171Y110956D01*
X101581Y111173D01*
X101996Y111380D01*
X102416Y111577D01*
X102840Y111764D01*
X103270Y111940D01*
X103703Y112106D01*
X104140Y112261D01*
X104581Y112405D01*
X105025Y112539D01*
X105473Y112662D01*
X105923Y112773D01*
X106376Y112874D01*
X106831Y112964D01*
X107288Y113043D01*
X107747Y113110D01*
X108207Y113167D01*
X108669Y113212D01*
X109132Y113246D01*
X109595Y113268D01*
X110059Y113280D01*
X110523Y113280D01*
X110987Y113268D01*
X111450Y113246D01*
X111913Y113212D01*
X112375Y113167D01*
X112835Y113110D01*
X113294Y113043D01*
X113751Y112964D01*
X114206Y112874D01*
X114659Y112773D01*
X115109Y112662D01*
X115557Y112539D01*
X116001Y112405D01*
X116442Y112261D01*
X116879Y112106D01*
X117312Y111940D01*
X117742Y111764D01*
X118166Y111577D01*
X118586Y111380D01*
X119001Y111173D01*
X119411Y110956D01*
X119816Y110729D01*
X120215Y110492D01*
X120608Y110245D01*
X120995Y109989D01*
X121375Y109724D01*
X121749Y109450D01*
X122117Y109166D01*
X122477Y108874D01*
X122830Y108573D01*
X123175Y108263D01*
X123513Y107945D01*
X123843Y107619D01*
X124165Y107285D01*
X124479Y106943D01*
X124784Y106594D01*
X125081Y106238D01*
X125369Y105874D01*
X125648Y105503D01*
X125918Y105126D01*
X126179Y104742D01*
X126430Y104352D01*
X126672Y103956D01*
X126904Y103554D01*
X127126Y103147D01*
X127338Y102735D01*
X127540Y102317D01*
X127732Y101894D01*
X127913Y101468D01*
X128084Y101036D01*
X128244Y100601D01*
X128394Y100162D01*
X128533Y99719D01*
X128662Y99273D01*
X128779Y98825D01*
X128885Y98373D01*
X128981Y97919D01*
X129065Y97463D01*
X129138Y97005D01*
X129200Y96545D01*
X129251Y96084D01*
X129290Y95622D01*
X129318Y95158D01*
X129335Y94695D01*
X129341Y94231D01*
X46641Y94231D02*
X46635Y94695D01*
X46618Y95158D01*
X46590Y95622D01*
X46551Y96084D01*
X46500Y96545D01*
X46438Y97005D01*
X46365Y97463D01*
X46281Y97919D01*
X46185Y98373D01*
X46079Y98825D01*
X45962Y99273D01*
X45833Y99719D01*
X45694Y100162D01*
X45544Y100601D01*
X45384Y101036D01*
X45213Y101468D01*
X45032Y101894D01*
X44840Y102317D01*
X44638Y102735D01*
X44426Y103147D01*
X44204Y103554D01*
X43972Y103956D01*
X43730Y104352D01*
X43479Y104742D01*
X43218Y105126D01*
X42948Y105503D01*
X42669Y105874D01*
X42381Y106238D01*
X42084Y106594D01*
X41779Y106943D01*
X41465Y107285D01*
X41143Y107619D01*
X40813Y107945D01*
X40475Y108263D01*
X40130Y108573D01*
X39777Y108874D01*
X39417Y109166D01*
X39049Y109450D01*
X38675Y109724D01*
X38295Y109989D01*
X37908Y110245D01*
X37515Y110492D01*
X37116Y110729D01*
X36711Y110956D01*
X36301Y111173D01*
X35886Y111380D01*
X35466Y111577D01*
X35042Y111764D01*
X34612Y111940D01*
X34179Y112106D01*
X33742Y112261D01*
X33301Y112405D01*
X32857Y112539D01*
X32409Y112662D01*
X31959Y112773D01*
X31506Y112874D01*
X31051Y112964D01*
X30594Y113043D01*
X30135Y113110D01*
X29675Y113167D01*
X29213Y113212D01*
X28750Y113246D01*
X28287Y113268D01*
X27823Y113280D01*
X27359Y113280D01*
X26895Y113268D01*
X26432Y113246D01*
X25969Y113212D01*
X25507Y113167D01*
X25047Y113110D01*
X24588Y113043D01*
X24131Y112964D01*
X23676Y112874D01*
X23223Y112773D01*
X22773Y112662D01*
X22325Y112539D01*
X21881Y112405D01*
X21440Y112261D01*
X21003Y112106D01*
X20570Y111940D01*
X20140Y111764D01*
X19716Y111577D01*
X19296Y111380D01*
X18881Y111173D01*
X18471Y110956D01*
X18066Y110729D01*
X17667Y110492D01*
X17274Y110245D01*
X16887Y109989D01*
X16507Y109724D01*
X16133Y109450D01*
X15765Y109166D01*
X15405Y108874D01*
X15052Y108573D01*
X14707Y108263D01*
X14369Y107945D01*
X14039Y107619D01*
X13717Y107285D01*
X13403Y106943D01*
X13098Y106594D01*
X12801Y106238D01*
X12513Y105874D01*
X12234Y105503D01*
X11964Y105126D01*
X11703Y104742D01*
X11452Y104352D01*
X11210Y103956D01*
X10978Y103554D01*
X10756Y103147D01*
X10544Y102735D01*
X10342Y102317D01*
X10150Y101894D01*
X9969Y101468D01*
X9798Y101036D01*
X9638Y100601D01*
X9488Y100162D01*
X9349Y99719D01*
X9220Y99273D01*
X9103Y98825D01*
X8997Y98373D01*
X8901Y97919D01*
X8817Y97463D01*
X8744Y97005D01*
X8682Y96545D01*
X8631Y96084D01*
X8592Y95622D01*
X8564Y95158D01*
X8547Y94695D01*
X8541Y94231D01*
X8541Y42859D02*
X8547Y42395D01*
X8564Y41932D01*
X8592Y41468D01*
X8631Y41006D01*
X8682Y40545D01*
X8744Y40085D01*
X8817Y39627D01*
X8901Y39171D01*
X8997Y38717D01*
X9103Y38265D01*
X9220Y37817D01*
X9349Y37371D01*
X9488Y36928D01*
X9638Y36489D01*
X9798Y36054D01*
X9969Y35622D01*
X10150Y35196D01*
X10342Y34773D01*
X10544Y34355D01*
X10756Y33943D01*
X10978Y33536D01*
X11210Y33134D01*
X11452Y32738D01*
X11703Y32348D01*
X11964Y31964D01*
X12234Y31587D01*
X12513Y31216D01*
X12801Y30852D01*
X13098Y30496D01*
X13403Y30147D01*
X13717Y29805D01*
X14039Y29471D01*
X14369Y29145D01*
X14707Y28827D01*
X15052Y28517D01*
X15405Y28216D01*
X15765Y27924D01*
X16133Y27640D01*
X16507Y27366D01*
X16887Y27101D01*
X17274Y26845D01*
X17667Y26598D01*
X18066Y26361D01*
X18471Y26134D01*
X18881Y25917D01*
X19296Y25710D01*
X19716Y25513D01*
X20140Y25326D01*
X20570Y25150D01*
X21003Y24984D01*
X21440Y24829D01*
X21881Y24685D01*
X22325Y24551D01*
X22773Y24428D01*
X23223Y24317D01*
X23676Y24216D01*
X24131Y24126D01*
X24588Y24047D01*
X25047Y23980D01*
X25507Y23923D01*
X25969Y23878D01*
X26432Y23844D01*
X26895Y23822D01*
X27359Y23810D01*
X27823Y23810D01*
X28287Y23822D01*
X28750Y23844D01*
X29213Y23878D01*
X29675Y23923D01*
X30135Y23980D01*
X30594Y24047D01*
X31051Y24126D01*
X31506Y24216D01*
X31959Y24317D01*
X32409Y24428D01*
X32857Y24551D01*
X33301Y24685D01*
X33742Y24829D01*
X34179Y24984D01*
X34612Y25150D01*
X35042Y25326D01*
X35466Y25513D01*
X35886Y25710D01*
X36301Y25917D01*
X36711Y26134D01*
X37116Y26361D01*
X37515Y26598D01*
X37908Y26845D01*
X38295Y27101D01*
X38675Y27366D01*
X39049Y27640D01*
X39417Y27924D01*
X39777Y28216D01*
X40130Y28517D01*
X40475Y28827D01*
X40813Y29145D01*
X41143Y29471D01*
X41465Y29805D01*
X41779Y30147D01*
X42084Y30496D01*
X42381Y30852D01*
X42669Y31216D01*
X42948Y31587D01*
X43218Y31964D01*
X43479Y32348D01*
X43730Y32738D01*
X43972Y33134D01*
X44204Y33536D01*
X44426Y33943D01*
X44638Y34355D01*
X44840Y34773D01*
X45032Y35196D01*
X45213Y35622D01*
X45384Y36054D01*
X45544Y36489D01*
X45694Y36928D01*
X45833Y37371D01*
X45962Y37817D01*
X46079Y38265D01*
X46185Y38717D01*
X46281Y39171D01*
X46365Y39627D01*
X46438Y40085D01*
X46500Y40545D01*
X46551Y41006D01*
X46590Y41468D01*
X46618Y41932D01*
X46635Y42395D01*
X46641Y42859D01*
D14*
X51683Y82844D02*
X39999Y82844D01*
X39999Y88036D01*
X48762Y98837D02*
X48869Y98835D01*
X48975Y98829D01*
X49081Y98819D01*
X49187Y98806D01*
X49293Y98788D01*
X49397Y98767D01*
X49501Y98742D01*
X49604Y98713D01*
X49705Y98681D01*
X49805Y98644D01*
X49904Y98604D01*
X50002Y98561D01*
X50098Y98514D01*
X50192Y98463D01*
X50284Y98409D01*
X50374Y98352D01*
X50462Y98292D01*
X50547Y98228D01*
X50630Y98161D01*
X50711Y98091D01*
X50789Y98019D01*
X50865Y97943D01*
X50937Y97865D01*
X51007Y97784D01*
X51074Y97701D01*
X51138Y97616D01*
X51198Y97528D01*
X51255Y97438D01*
X51309Y97346D01*
X51360Y97252D01*
X51407Y97156D01*
X51450Y97058D01*
X51490Y96959D01*
X51527Y96859D01*
X51559Y96758D01*
X51588Y96655D01*
X51613Y96551D01*
X51634Y96447D01*
X51652Y96341D01*
X51665Y96235D01*
X51675Y96129D01*
X51681Y96023D01*
X51683Y95916D01*
X51684Y95916D02*
X51682Y95795D01*
X51676Y95674D01*
X51666Y95554D01*
X51653Y95433D01*
X51635Y95314D01*
X51614Y95194D01*
X51589Y95076D01*
X51560Y94959D01*
X51527Y94842D01*
X51491Y94727D01*
X51450Y94613D01*
X51407Y94500D01*
X51359Y94388D01*
X51308Y94279D01*
X51253Y94171D01*
X51195Y94064D01*
X51134Y93960D01*
X51069Y93858D01*
X51001Y93758D01*
X50930Y93660D01*
X50856Y93564D01*
X50779Y93471D01*
X50698Y93381D01*
X50615Y93293D01*
X50529Y93208D01*
X50440Y93125D01*
X50349Y93046D01*
X50255Y92969D01*
X50159Y92896D01*
X50061Y92826D01*
X49960Y92759D01*
X49857Y92695D01*
X49752Y92635D01*
X49645Y92578D01*
X49537Y92524D01*
X49427Y92474D01*
X49315Y92428D01*
X49202Y92385D01*
X49087Y92346D01*
X46490Y97864D02*
X46567Y97943D01*
X46648Y98019D01*
X46731Y98092D01*
X46816Y98162D01*
X46904Y98229D01*
X46994Y98293D01*
X47086Y98353D01*
X47181Y98410D01*
X47277Y98464D01*
X47375Y98515D01*
X47475Y98562D01*
X47577Y98606D01*
X47680Y98646D01*
X47784Y98682D01*
X47890Y98714D01*
X47996Y98743D01*
X48104Y98768D01*
X48212Y98790D01*
X48322Y98807D01*
X48431Y98821D01*
X48541Y98830D01*
X48652Y98836D01*
X48762Y98838D01*
X46490Y97863D02*
X39999Y92346D01*
X39999Y98837D01*
M02*
