G04 EAGLE Gerber X2 export*
%TF.Part,Single*%
%TF.FileFunction,Soldermask,Bot,1*%
%TF.FilePolarity,Negative*%
%TF.GenerationSoftware,Autodesk,EAGLE,9.1.3*%
%TF.CreationDate,2018-09-20T23:52:14Z*%
G75*
%MOMM*%
%FSLAX34Y34*%
%LPD*%
%AMOC8*
5,1,8,0,0,1.08239X$1,22.5*%
G01*
%ADD10C,1.711200*%
%ADD11C,1.511200*%
%ADD12R,1.511200X1.511200*%
%ADD13R,1.473200X2.235200*%
%ADD14R,1.203200X1.303200*%
%ADD15R,1.485800X1.903200*%
%ADD16R,1.422400X2.438400*%
%ADD17R,3.803200X2.403200*%
%ADD18C,1.625600*%
%ADD19C,1.993900*%
%ADD20P,1.869504X8X292.500000*%
%ADD21R,0.803200X0.803200*%
%ADD22R,0.803200X1.753200*%
%ADD23R,1.403200X2.003200*%
%ADD24C,0.425956*%
%ADD25C,1.511200*%
%ADD26C,0.959600*%


D10*
X224634Y179610D03*
X300834Y179610D03*
X402434Y179610D03*
X427834Y179610D03*
D11*
X81354Y154276D02*
X81354Y141196D01*
X131354Y141196D02*
X131354Y154276D01*
D12*
X29354Y441736D03*
X183354Y441736D03*
D13*
X318740Y315646D03*
X285720Y315646D03*
D14*
X407728Y445040D03*
X424728Y445040D03*
D10*
X224258Y235388D03*
X300458Y235388D03*
X402058Y235388D03*
X427458Y235388D03*
D15*
X378579Y441158D03*
X337467Y441158D03*
D16*
X266895Y342339D03*
X243781Y342339D03*
X220667Y342339D03*
D17*
X243781Y404317D03*
D18*
X218657Y25108D03*
X193257Y101308D03*
D19*
X269133Y96494D02*
X269133Y114401D01*
X319133Y114401D02*
X319133Y96494D01*
X369133Y96494D02*
X369133Y114401D01*
X419133Y114401D02*
X419133Y96494D01*
D13*
X318916Y287030D03*
X285896Y287030D03*
X223618Y287078D03*
X256638Y287078D03*
X223414Y315795D03*
X256434Y315795D03*
D20*
X159613Y106222D03*
X159613Y4622D03*
D21*
X290112Y390047D03*
X290112Y368047D03*
X310273Y390578D03*
X310273Y368578D03*
X329074Y369204D03*
X329074Y391204D03*
D22*
X309786Y415059D03*
X299786Y415059D03*
X289786Y415059D03*
X279786Y415059D03*
X269786Y415059D03*
D23*
X256786Y440309D03*
X322786Y440309D03*
D24*
X348393Y390953D02*
X348393Y384291D01*
X348393Y390953D02*
X355055Y390953D01*
X355055Y384291D01*
X348393Y384291D01*
X348393Y388338D02*
X355055Y388338D01*
X348393Y375713D02*
X348393Y369051D01*
X348393Y375713D02*
X355055Y375713D01*
X355055Y369051D01*
X348393Y369051D01*
X348393Y373098D02*
X355055Y373098D01*
D25*
X24941Y103545D03*
X108941Y103545D03*
X108941Y33545D03*
X24941Y33545D03*
D26*
X194998Y323072D03*
X247210Y269282D03*
X166294Y343522D03*
X394343Y445642D03*
X196084Y436958D03*
X208193Y266132D03*
X337308Y265509D03*
X182619Y352312D03*
X65617Y412724D03*
X357891Y265509D03*
X176519Y332759D03*
X194469Y303519D03*
X154428Y304659D03*
X194639Y415276D03*
X198239Y285595D03*
X80756Y322131D03*
X80903Y284605D03*
M02*
