G04 EAGLE Gerber X2 export*
%TF.Part,Single*%
%TF.FileFunction,Soldermask,Top,1*%
%TF.FilePolarity,Negative*%
%TF.GenerationSoftware,Autodesk,EAGLE,9.1.3*%
%TF.CreationDate,2018-09-20T23:52:14Z*%
G75*
%MOMM*%
%FSLAX34Y34*%
%LPD*%
%AMOC8*
5,1,8,0,0,1.08239X$1,22.5*%
G01*
%ADD10C,1.711200*%
%ADD11R,1.603200X1.203200*%
%ADD12R,1.203200X1.303200*%
%ADD13C,1.511200*%
%ADD14R,1.511200X1.511200*%
%ADD15R,1.973200X2.003200*%
%ADD16R,1.403200X2.489200*%
%ADD17R,1.303200X1.203200*%
%ADD18C,1.625600*%
%ADD19C,1.993900*%
%ADD20P,1.869504X8X292.500000*%
%ADD21R,2.997200X2.489200*%
%ADD22R,2.489200X2.997200*%
%ADD23R,1.753200X0.803200*%
%ADD24R,2.003200X1.403200*%
%ADD25R,0.803200X1.753200*%
%ADD26R,1.403200X2.003200*%
%ADD27C,1.511200*%
%ADD28C,0.959600*%


D10*
X224634Y179610D03*
X300834Y179610D03*
X402434Y179610D03*
X427834Y179610D03*
D11*
X430085Y205755D03*
X408085Y196255D03*
X408085Y215255D03*
D12*
X355789Y232370D03*
X372789Y232370D03*
D13*
X81354Y154276D02*
X81354Y141196D01*
X131354Y141196D02*
X131354Y154276D01*
D14*
X29354Y441736D03*
X183354Y441736D03*
D15*
X176344Y309251D03*
X176344Y268411D03*
D16*
X357544Y439825D03*
X337544Y439825D03*
X317544Y439825D03*
X297544Y439825D03*
X277544Y439825D03*
X257544Y439825D03*
X237544Y439825D03*
X217544Y439825D03*
X357544Y285985D03*
X337544Y285985D03*
X317544Y285985D03*
X297544Y285985D03*
X277544Y285985D03*
X257544Y285985D03*
X237544Y285985D03*
X217544Y285985D03*
D17*
X122417Y335302D03*
X122417Y318302D03*
X161156Y438090D03*
X161156Y421090D03*
X144010Y334901D03*
X144010Y317901D03*
D10*
X224258Y235388D03*
X300458Y235388D03*
X402058Y235388D03*
X427458Y235388D03*
D11*
X430276Y262248D03*
X408276Y252748D03*
X408276Y271748D03*
D12*
X356243Y253092D03*
X373243Y253092D03*
D17*
X390560Y253503D03*
X390560Y270503D03*
X388136Y197571D03*
X388136Y214571D03*
D18*
X218657Y25108D03*
X193257Y101308D03*
D19*
X269133Y96494D02*
X269133Y114401D01*
X319133Y114401D02*
X319133Y96494D01*
X369133Y96494D02*
X369133Y114401D01*
X419133Y114401D02*
X419133Y96494D01*
D20*
X159613Y106222D03*
X159613Y4622D03*
D21*
X170796Y168954D03*
X170796Y128034D03*
D22*
X161576Y211562D03*
X202496Y211562D03*
D23*
X48584Y240905D03*
X48584Y250905D03*
X48584Y260905D03*
D24*
X23334Y273905D03*
X23334Y227905D03*
D23*
X49013Y302574D03*
X49013Y312574D03*
X49013Y322574D03*
D24*
X23763Y335574D03*
X23763Y289574D03*
D17*
X53998Y425405D03*
X53998Y442405D03*
X75205Y442401D03*
X75205Y425401D03*
D25*
X107945Y411076D03*
X117945Y411076D03*
X127945Y411076D03*
D26*
X140945Y436326D03*
X94945Y436326D03*
D23*
X48676Y364340D03*
X48676Y374340D03*
X48676Y384340D03*
X48676Y394340D03*
D24*
X23426Y407340D03*
X23426Y351340D03*
D27*
X24941Y103545D03*
X108941Y103545D03*
X108941Y33545D03*
X24941Y33545D03*
D28*
X194998Y323072D03*
X247210Y269282D03*
X166294Y343522D03*
X394343Y445642D03*
X196084Y436958D03*
X208193Y266132D03*
X337308Y265509D03*
X182619Y352312D03*
X65617Y412724D03*
X357891Y265509D03*
X176519Y332759D03*
X194469Y303519D03*
X154428Y304659D03*
X194639Y415276D03*
X198239Y285595D03*
X80756Y322131D03*
X80903Y284605D03*
M02*
