G04 EAGLE Gerber RS-274X export*
G75*
%MOMM*%
%FSLAX34Y34*%
%LPD*%
%INBottom Copper*%
%IPPOS*%
%AMOC8*
5,1,8,0,0,1.08239X$1,22.5*%
G01*
%ADD10C,1.508000*%
%ADD11R,1.000000X1.400000*%
%ADD12R,1.100000X1.000000*%
%ADD13R,1.000000X1.100000*%
%ADD14C,1.879600*%
%ADD15R,1.700000X1.282600*%
%ADD16C,1.790700*%
%ADD17C,1.800000*%
%ADD18C,1.422400*%
%ADD19C,0.152400*%
%ADD20C,0.756400*%
%ADD21C,0.254000*%
%ADD22C,0.152400*%
%ADD23C,1.270000*%

G36*
X199425Y223079D02*
X199425Y223079D01*
X199564Y223092D01*
X199583Y223099D01*
X199603Y223101D01*
X199732Y223152D01*
X199863Y223199D01*
X199880Y223211D01*
X199899Y223218D01*
X200011Y223300D01*
X200126Y223378D01*
X200140Y223393D01*
X200156Y223405D01*
X200244Y223512D01*
X200337Y223616D01*
X200346Y223634D01*
X200359Y223650D01*
X200418Y223776D01*
X200481Y223900D01*
X200486Y223920D01*
X200494Y223938D01*
X200520Y224074D01*
X200551Y224210D01*
X200550Y224230D01*
X200554Y224250D01*
X200545Y224389D01*
X200541Y224528D01*
X200535Y224547D01*
X200534Y224568D01*
X200491Y224700D01*
X200453Y224833D01*
X200442Y224851D01*
X200436Y224870D01*
X200362Y224988D01*
X200291Y225107D01*
X200273Y225128D01*
X200266Y225139D01*
X200251Y225153D01*
X200185Y225228D01*
X191196Y234216D01*
X190462Y235990D01*
X190462Y319592D01*
X191196Y321366D01*
X192733Y322902D01*
X214630Y344799D01*
X214715Y344909D01*
X214804Y345016D01*
X214812Y345034D01*
X214825Y345050D01*
X214880Y345178D01*
X214939Y345304D01*
X214943Y345324D01*
X214951Y345342D01*
X214973Y345480D01*
X214999Y345616D01*
X214998Y345636D01*
X215001Y345656D01*
X214988Y345795D01*
X214979Y345933D01*
X214973Y345953D01*
X214971Y345973D01*
X214924Y346104D01*
X214881Y346236D01*
X214871Y346253D01*
X214864Y346272D01*
X214786Y346387D01*
X214711Y346505D01*
X214696Y346519D01*
X214685Y346535D01*
X214581Y346627D01*
X214480Y346723D01*
X214462Y346732D01*
X214447Y346746D01*
X214323Y346809D01*
X214201Y346876D01*
X214181Y346881D01*
X214163Y346890D01*
X214028Y346921D01*
X213893Y346956D01*
X213865Y346957D01*
X213853Y346960D01*
X213833Y346959D01*
X213732Y346966D01*
X209504Y346966D01*
X207123Y349347D01*
X207123Y363714D01*
X209636Y366228D01*
X209709Y366322D01*
X209788Y366411D01*
X209806Y366447D01*
X209831Y366479D01*
X209878Y366588D01*
X209933Y366694D01*
X209941Y366734D01*
X209957Y366771D01*
X209976Y366889D01*
X210002Y367005D01*
X210001Y367045D01*
X210007Y367085D01*
X209996Y367204D01*
X209993Y367322D01*
X209981Y367361D01*
X209977Y367402D01*
X209937Y367514D01*
X209904Y367628D01*
X209884Y367663D01*
X209870Y367701D01*
X209803Y367800D01*
X209743Y367902D01*
X209703Y367947D01*
X209691Y367964D01*
X209676Y367977D01*
X209636Y368023D01*
X207227Y370432D01*
X207227Y384800D01*
X209717Y387290D01*
X209790Y387384D01*
X209868Y387473D01*
X209887Y387509D01*
X209912Y387541D01*
X209959Y387651D01*
X210013Y387756D01*
X210022Y387796D01*
X210038Y387833D01*
X210057Y387951D01*
X210083Y388067D01*
X210081Y388107D01*
X210088Y388147D01*
X210077Y388266D01*
X210073Y388385D01*
X210062Y388423D01*
X210058Y388464D01*
X210018Y388576D01*
X209985Y388690D01*
X209964Y388725D01*
X209950Y388763D01*
X209883Y388862D01*
X209823Y388964D01*
X209783Y389009D01*
X209772Y389026D01*
X209757Y389040D01*
X209717Y389085D01*
X207229Y391573D01*
X207229Y405940D01*
X209610Y408321D01*
X215361Y408321D01*
X215479Y408336D01*
X215598Y408343D01*
X215636Y408356D01*
X215677Y408361D01*
X215787Y408405D01*
X215901Y408441D01*
X215935Y408463D01*
X215972Y408478D01*
X216069Y408548D01*
X216169Y408612D01*
X216197Y408641D01*
X216230Y408665D01*
X216306Y408756D01*
X216387Y408843D01*
X216407Y408879D01*
X216432Y408910D01*
X216483Y409017D01*
X216541Y409122D01*
X216551Y409161D01*
X216568Y409197D01*
X216590Y409314D01*
X216620Y409430D01*
X216624Y409490D01*
X216628Y409510D01*
X216627Y409530D01*
X216630Y409590D01*
X216630Y436290D01*
X216627Y436320D01*
X216629Y436349D01*
X216607Y436477D01*
X216591Y436606D01*
X216580Y436633D01*
X216575Y436662D01*
X216521Y436781D01*
X216473Y436902D01*
X216456Y436926D01*
X216444Y436952D01*
X216363Y437054D01*
X216334Y437094D01*
X216328Y437104D01*
X216325Y437106D01*
X216287Y437159D01*
X216264Y437178D01*
X216245Y437201D01*
X216142Y437279D01*
X216138Y437282D01*
X216096Y437321D01*
X216079Y437331D01*
X216042Y437362D01*
X216015Y437374D01*
X215991Y437392D01*
X215847Y437463D01*
X213831Y438298D01*
X210044Y442085D01*
X207994Y447033D01*
X207994Y451624D01*
X207979Y451743D01*
X207972Y451862D01*
X207960Y451900D01*
X207955Y451940D01*
X207911Y452051D01*
X207874Y452165D01*
X207852Y452198D01*
X207837Y452235D01*
X207767Y452332D01*
X207703Y452433D01*
X207674Y452460D01*
X207651Y452493D01*
X207558Y452569D01*
X207471Y452651D01*
X207436Y452670D01*
X207406Y452696D01*
X207298Y452746D01*
X207193Y452804D01*
X207154Y452814D01*
X207118Y452831D01*
X207001Y452854D01*
X206885Y452883D01*
X206825Y452887D01*
X206806Y452891D01*
X206785Y452890D01*
X206724Y452893D01*
X196571Y452884D01*
X196410Y452864D01*
X196257Y452845D01*
X196257Y452844D01*
X196256Y452844D01*
X196099Y452782D01*
X195962Y452728D01*
X195961Y452727D01*
X195960Y452727D01*
X195826Y452630D01*
X195704Y452541D01*
X195704Y452540D01*
X195703Y452540D01*
X195601Y452417D01*
X195501Y452296D01*
X195501Y452295D01*
X195500Y452295D01*
X195433Y452151D01*
X195366Y452009D01*
X195365Y452008D01*
X195365Y452007D01*
X195334Y451845D01*
X195306Y451696D01*
X195306Y451695D01*
X195305Y451694D01*
X195316Y451535D01*
X195325Y451379D01*
X195326Y451378D01*
X195326Y451377D01*
X195326Y451375D01*
X195365Y451223D01*
X195541Y450682D01*
X195825Y448888D01*
X195825Y441519D01*
X185554Y441519D01*
X185436Y441504D01*
X185318Y441496D01*
X185279Y441484D01*
X185239Y441479D01*
X185128Y441435D01*
X185015Y441398D01*
X184981Y441377D01*
X184943Y441362D01*
X184847Y441292D01*
X184746Y441228D01*
X184719Y441199D01*
X184686Y441175D01*
X184610Y441083D01*
X184528Y440997D01*
X184509Y440961D01*
X184483Y440930D01*
X184432Y440822D01*
X184375Y440718D01*
X184365Y440679D01*
X184348Y440642D01*
X184325Y440526D01*
X184295Y440410D01*
X184292Y440350D01*
X184288Y440330D01*
X184289Y440310D01*
X184285Y440249D01*
X184285Y438979D01*
X184283Y438979D01*
X184283Y440249D01*
X184268Y440368D01*
X184261Y440486D01*
X184249Y440525D01*
X184244Y440565D01*
X184200Y440676D01*
X184163Y440789D01*
X184141Y440823D01*
X184127Y440861D01*
X184057Y440957D01*
X183993Y441058D01*
X183963Y441085D01*
X183940Y441118D01*
X183848Y441194D01*
X183761Y441276D01*
X183726Y441295D01*
X183695Y441321D01*
X183587Y441372D01*
X183483Y441429D01*
X183444Y441439D01*
X183407Y441456D01*
X183290Y441479D01*
X183175Y441509D01*
X183115Y441512D01*
X183095Y441516D01*
X183074Y441515D01*
X183014Y441519D01*
X172744Y441519D01*
X172744Y448888D01*
X173028Y450682D01*
X173196Y451201D01*
X173222Y451335D01*
X173256Y451513D01*
X173256Y451514D01*
X173249Y451624D01*
X173236Y451830D01*
X173236Y451831D01*
X173181Y452001D01*
X173138Y452133D01*
X173035Y452295D01*
X172967Y452402D01*
X172826Y452534D01*
X172736Y452619D01*
X172735Y452620D01*
X172597Y452696D01*
X172457Y452773D01*
X172293Y452815D01*
X172149Y452852D01*
X171988Y452862D01*
X44349Y452747D01*
X44300Y452741D01*
X44251Y452743D01*
X44143Y452721D01*
X44034Y452707D01*
X43988Y452689D01*
X43940Y452679D01*
X43841Y452631D01*
X43738Y452590D01*
X43698Y452561D01*
X43654Y452539D01*
X43570Y452468D01*
X43481Y452403D01*
X43449Y452365D01*
X43412Y452333D01*
X43349Y452243D01*
X43278Y452158D01*
X43257Y452113D01*
X43229Y452073D01*
X43190Y451970D01*
X43143Y451870D01*
X43134Y451822D01*
X43116Y451776D01*
X43104Y451666D01*
X43083Y451557D01*
X43086Y451508D01*
X43081Y451460D01*
X43096Y451350D01*
X43103Y451240D01*
X43119Y451193D01*
X43125Y451145D01*
X43178Y450992D01*
X43349Y450578D01*
X43349Y427381D01*
X41360Y422579D01*
X37685Y418904D01*
X32883Y416915D01*
X27686Y416915D01*
X22884Y418904D01*
X19566Y422222D01*
X19456Y422307D01*
X19349Y422396D01*
X19331Y422404D01*
X19315Y422417D01*
X19187Y422472D01*
X19061Y422531D01*
X19041Y422535D01*
X19023Y422543D01*
X18885Y422565D01*
X18749Y422591D01*
X18729Y422590D01*
X18709Y422593D01*
X18570Y422580D01*
X18432Y422571D01*
X18412Y422565D01*
X18392Y422563D01*
X18261Y422516D01*
X18129Y422473D01*
X18112Y422462D01*
X18093Y422455D01*
X17978Y422377D01*
X17860Y422303D01*
X17846Y422288D01*
X17830Y422277D01*
X17738Y422172D01*
X17642Y422071D01*
X17633Y422054D01*
X17619Y422038D01*
X17556Y421914D01*
X17489Y421793D01*
X17484Y421773D01*
X17475Y421755D01*
X17444Y421619D01*
X17409Y421485D01*
X17408Y421457D01*
X17405Y421445D01*
X17406Y421424D01*
X17399Y421324D01*
X17399Y251586D01*
X17418Y251439D01*
X17434Y251292D01*
X17438Y251281D01*
X17439Y251270D01*
X17493Y251133D01*
X17546Y250994D01*
X17552Y250985D01*
X17556Y250975D01*
X17643Y250855D01*
X17728Y250734D01*
X17739Y250723D01*
X17743Y250717D01*
X17755Y250708D01*
X17843Y250621D01*
X49707Y223366D01*
X49748Y223339D01*
X49785Y223305D01*
X49881Y223252D01*
X49972Y223191D01*
X50019Y223175D01*
X50063Y223151D01*
X50169Y223124D01*
X50273Y223088D01*
X50323Y223084D01*
X50371Y223072D01*
X50532Y223061D01*
X199287Y223061D01*
X199425Y223079D01*
G37*
G36*
X241669Y231321D02*
X241669Y231321D01*
X241739Y231320D01*
X241826Y231341D01*
X241915Y231352D01*
X241980Y231378D01*
X242048Y231394D01*
X242127Y231436D01*
X242211Y231469D01*
X242267Y231510D01*
X242329Y231543D01*
X242396Y231604D01*
X242468Y231656D01*
X242513Y231710D01*
X242564Y231757D01*
X242614Y231832D01*
X242671Y231901D01*
X242701Y231964D01*
X242739Y232023D01*
X242768Y232108D01*
X242807Y232189D01*
X242820Y232257D01*
X242842Y232324D01*
X242849Y232413D01*
X242866Y232501D01*
X242862Y232571D01*
X242868Y232641D01*
X242852Y232729D01*
X242847Y232819D01*
X242825Y232885D01*
X242813Y232954D01*
X242776Y233036D01*
X242749Y233121D01*
X242711Y233180D01*
X242683Y233244D01*
X242626Y233314D01*
X242578Y233390D01*
X242528Y233438D01*
X242484Y233492D01*
X242412Y233546D01*
X242347Y233608D01*
X242286Y233642D01*
X242230Y233684D01*
X242085Y233754D01*
X239231Y234937D01*
X235444Y238724D01*
X234492Y241023D01*
X234447Y241101D01*
X234412Y241183D01*
X234369Y241238D01*
X234334Y241299D01*
X234272Y241363D01*
X234217Y241434D01*
X234162Y241477D01*
X234113Y241528D01*
X234036Y241574D01*
X233966Y241629D01*
X233901Y241657D01*
X233842Y241694D01*
X233756Y241720D01*
X233674Y241756D01*
X233605Y241767D01*
X233538Y241787D01*
X233448Y241792D01*
X233360Y241806D01*
X233290Y241799D01*
X233220Y241803D01*
X233132Y241784D01*
X233043Y241776D01*
X232977Y241752D01*
X232909Y241738D01*
X232828Y241699D01*
X232744Y241669D01*
X232686Y241629D01*
X232623Y241599D01*
X232555Y241540D01*
X232481Y241490D01*
X232434Y241438D01*
X232381Y241392D01*
X232329Y241319D01*
X232270Y241252D01*
X232206Y241144D01*
X232198Y241132D01*
X232195Y241126D01*
X232188Y241113D01*
X231668Y240093D01*
X230563Y238572D01*
X229235Y237244D01*
X227714Y236139D01*
X226040Y235286D01*
X224253Y234705D01*
X223996Y234665D01*
X223996Y245080D01*
X223981Y245198D01*
X223974Y245317D01*
X223962Y245355D01*
X223956Y245395D01*
X223913Y245506D01*
X223876Y245619D01*
X223854Y245653D01*
X223839Y245691D01*
X223770Y245787D01*
X223706Y245888D01*
X223676Y245916D01*
X223653Y245948D01*
X223561Y246024D01*
X223474Y246106D01*
X223439Y246125D01*
X223408Y246151D01*
X223300Y246202D01*
X223196Y246259D01*
X223156Y246269D01*
X223120Y246287D01*
X223003Y246309D01*
X222888Y246339D01*
X222828Y246343D01*
X222808Y246346D01*
X222787Y246345D01*
X222727Y246349D01*
X221456Y246349D01*
X221456Y246351D01*
X222727Y246351D01*
X222845Y246366D01*
X222964Y246373D01*
X223002Y246386D01*
X223043Y246391D01*
X223153Y246434D01*
X223266Y246471D01*
X223301Y246493D01*
X223338Y246508D01*
X223435Y246578D01*
X223535Y246641D01*
X223563Y246671D01*
X223596Y246695D01*
X223672Y246786D01*
X223753Y246873D01*
X223773Y246908D01*
X223798Y246939D01*
X223849Y247047D01*
X223907Y247151D01*
X223917Y247191D01*
X223934Y247227D01*
X223956Y247344D01*
X223986Y247459D01*
X223990Y247520D01*
X223994Y247540D01*
X223992Y247560D01*
X223996Y247620D01*
X223996Y258035D01*
X224253Y257995D01*
X226040Y257414D01*
X226780Y257037D01*
X226808Y257027D01*
X226834Y257011D01*
X226957Y256973D01*
X227079Y256929D01*
X227109Y256926D01*
X227137Y256918D01*
X227267Y256911D01*
X227396Y256899D01*
X227425Y256904D01*
X227455Y256902D01*
X227582Y256929D01*
X227710Y256949D01*
X227737Y256961D01*
X227767Y256967D01*
X227883Y257024D01*
X228002Y257075D01*
X228025Y257093D01*
X228052Y257106D01*
X228151Y257191D01*
X228253Y257270D01*
X228272Y257293D01*
X228294Y257313D01*
X228369Y257419D01*
X228448Y257521D01*
X228460Y257549D01*
X228477Y257573D01*
X228523Y257694D01*
X228575Y257813D01*
X228580Y257842D01*
X228590Y257870D01*
X228604Y257999D01*
X228625Y258127D01*
X228622Y258157D01*
X228625Y258186D01*
X228607Y258315D01*
X228595Y258444D01*
X228585Y258472D01*
X228581Y258501D01*
X228529Y258654D01*
X228361Y259060D01*
X228361Y286142D01*
X228346Y286261D01*
X228338Y286379D01*
X228326Y286418D01*
X228321Y286458D01*
X228277Y286569D01*
X228240Y286682D01*
X228219Y286716D01*
X228204Y286754D01*
X228134Y286850D01*
X228070Y286950D01*
X228041Y286978D01*
X228017Y287011D01*
X227925Y287087D01*
X227839Y287168D01*
X227803Y287188D01*
X227772Y287214D01*
X227664Y287264D01*
X227560Y287322D01*
X227521Y287332D01*
X227484Y287349D01*
X227367Y287372D01*
X227252Y287401D01*
X227192Y287405D01*
X227172Y287409D01*
X227152Y287408D01*
X227091Y287412D01*
X226504Y287412D01*
X224507Y289408D01*
X224413Y289481D01*
X224324Y289560D01*
X224288Y289578D01*
X224256Y289603D01*
X224147Y289650D01*
X224040Y289705D01*
X224001Y289713D01*
X223964Y289729D01*
X223846Y289748D01*
X223730Y289774D01*
X223690Y289773D01*
X223650Y289779D01*
X223531Y289768D01*
X223412Y289764D01*
X223374Y289753D01*
X223333Y289749D01*
X223221Y289709D01*
X223107Y289676D01*
X223072Y289655D01*
X223034Y289642D01*
X222935Y289575D01*
X222833Y289514D01*
X222788Y289475D01*
X222771Y289463D01*
X222760Y289450D01*
X222168Y289109D01*
X221522Y288936D01*
X218687Y288936D01*
X218687Y294477D01*
X222853Y294477D01*
X222972Y294492D01*
X223090Y294499D01*
X223129Y294512D01*
X223169Y294517D01*
X223280Y294561D01*
X223393Y294597D01*
X223427Y294619D01*
X223465Y294634D01*
X223561Y294704D01*
X223662Y294768D01*
X223689Y294797D01*
X223722Y294821D01*
X223798Y294912D01*
X223879Y294999D01*
X223899Y295035D01*
X223925Y295066D01*
X223976Y295173D01*
X224033Y295278D01*
X224043Y295317D01*
X224060Y295353D01*
X224083Y295470D01*
X224112Y295586D01*
X224116Y295646D01*
X224120Y295666D01*
X224119Y295686D01*
X224123Y295746D01*
X224123Y298206D01*
X224108Y298325D01*
X224100Y298443D01*
X224088Y298482D01*
X224083Y298522D01*
X224039Y298633D01*
X224002Y298746D01*
X223981Y298780D01*
X223966Y298818D01*
X223896Y298914D01*
X223832Y299014D01*
X223803Y299042D01*
X223779Y299075D01*
X223687Y299151D01*
X223601Y299232D01*
X223565Y299252D01*
X223534Y299278D01*
X223426Y299328D01*
X223322Y299386D01*
X223283Y299396D01*
X223246Y299413D01*
X223129Y299436D01*
X223014Y299465D01*
X222954Y299469D01*
X222934Y299473D01*
X222914Y299472D01*
X222853Y299476D01*
X218687Y299476D01*
X218687Y305017D01*
X221522Y305017D01*
X222168Y304844D01*
X222787Y304487D01*
X222806Y304472D01*
X222896Y304393D01*
X222932Y304374D01*
X222964Y304350D01*
X223073Y304302D01*
X223179Y304248D01*
X223218Y304239D01*
X223255Y304223D01*
X223373Y304205D01*
X223489Y304179D01*
X223529Y304180D01*
X223569Y304173D01*
X223688Y304185D01*
X223807Y304188D01*
X223846Y304199D01*
X223886Y304203D01*
X223998Y304244D01*
X224112Y304277D01*
X224147Y304297D01*
X224185Y304311D01*
X224284Y304378D01*
X224386Y304438D01*
X224432Y304478D01*
X224449Y304489D01*
X224462Y304505D01*
X224507Y304545D01*
X226504Y306541D01*
X239871Y306541D01*
X242252Y304160D01*
X242252Y289793D01*
X239871Y287412D01*
X239283Y287412D01*
X239165Y287397D01*
X239046Y287389D01*
X239008Y287377D01*
X238968Y287372D01*
X238857Y287328D01*
X238744Y287291D01*
X238710Y287270D01*
X238672Y287255D01*
X238576Y287185D01*
X238475Y287121D01*
X238448Y287092D01*
X238415Y287068D01*
X238339Y286976D01*
X238257Y286889D01*
X238238Y286854D01*
X238212Y286823D01*
X238161Y286715D01*
X238104Y286611D01*
X238094Y286572D01*
X238076Y286535D01*
X238054Y286418D01*
X238024Y286303D01*
X238021Y286243D01*
X238017Y286223D01*
X238018Y286203D01*
X238014Y286142D01*
X238014Y262545D01*
X238027Y262446D01*
X238030Y262347D01*
X238046Y262289D01*
X238054Y262229D01*
X238090Y262137D01*
X238118Y262042D01*
X238149Y261990D01*
X238171Y261933D01*
X238229Y261853D01*
X238279Y261768D01*
X238346Y261693D01*
X238358Y261676D01*
X238367Y261668D01*
X238386Y261647D01*
X240780Y259253D01*
X240804Y259235D01*
X240823Y259212D01*
X240929Y259138D01*
X241031Y259058D01*
X241059Y259046D01*
X241083Y259029D01*
X241204Y258983D01*
X241323Y258932D01*
X241353Y258927D01*
X241380Y258916D01*
X241509Y258902D01*
X241637Y258882D01*
X241667Y258884D01*
X241696Y258881D01*
X241825Y258899D01*
X241954Y258911D01*
X241982Y258921D01*
X242011Y258926D01*
X242163Y258978D01*
X244179Y259813D01*
X249535Y259813D01*
X254483Y257763D01*
X258270Y253976D01*
X258384Y253700D01*
X258453Y253580D01*
X258518Y253456D01*
X258532Y253441D01*
X258542Y253424D01*
X258638Y253324D01*
X258732Y253221D01*
X258749Y253210D01*
X258763Y253196D01*
X258882Y253123D01*
X258998Y253046D01*
X259017Y253040D01*
X259034Y253029D01*
X259167Y252988D01*
X259299Y252943D01*
X259319Y252942D01*
X259338Y252936D01*
X259477Y252929D01*
X259616Y252918D01*
X259636Y252921D01*
X259656Y252920D01*
X259792Y252949D01*
X259929Y252972D01*
X259948Y252981D01*
X259967Y252985D01*
X260092Y253046D01*
X260219Y253103D01*
X260235Y253116D01*
X260253Y253124D01*
X260359Y253215D01*
X260468Y253302D01*
X260480Y253318D01*
X260495Y253331D01*
X260575Y253444D01*
X260659Y253556D01*
X260671Y253581D01*
X260678Y253591D01*
X260685Y253610D01*
X260730Y253700D01*
X260844Y253976D01*
X264631Y257763D01*
X269579Y259813D01*
X274935Y259813D01*
X279883Y257763D01*
X283670Y253976D01*
X283784Y253700D01*
X283853Y253580D01*
X283918Y253456D01*
X283932Y253441D01*
X283942Y253424D01*
X284038Y253324D01*
X284132Y253221D01*
X284149Y253210D01*
X284163Y253196D01*
X284282Y253123D01*
X284398Y253046D01*
X284417Y253040D01*
X284434Y253029D01*
X284567Y252988D01*
X284699Y252943D01*
X284719Y252942D01*
X284738Y252936D01*
X284877Y252929D01*
X285016Y252918D01*
X285036Y252921D01*
X285056Y252920D01*
X285192Y252949D01*
X285329Y252972D01*
X285348Y252981D01*
X285367Y252985D01*
X285492Y253046D01*
X285619Y253103D01*
X285635Y253116D01*
X285653Y253124D01*
X285759Y253215D01*
X285868Y253302D01*
X285880Y253318D01*
X285895Y253331D01*
X285975Y253444D01*
X286059Y253556D01*
X286071Y253581D01*
X286078Y253591D01*
X286085Y253610D01*
X286130Y253700D01*
X286244Y253976D01*
X290031Y257763D01*
X294979Y259813D01*
X299704Y259813D01*
X299842Y259830D01*
X299980Y259843D01*
X300000Y259850D01*
X300020Y259852D01*
X300149Y259904D01*
X300280Y259951D01*
X300297Y259962D01*
X300315Y259970D01*
X300428Y260051D01*
X300543Y260129D01*
X300556Y260144D01*
X300573Y260156D01*
X300662Y260264D01*
X300753Y260368D01*
X300763Y260386D01*
X300775Y260401D01*
X300835Y260527D01*
X300898Y260651D01*
X300902Y260671D01*
X300911Y260689D01*
X300937Y260825D01*
X300968Y260961D01*
X300967Y260982D01*
X300971Y261001D01*
X300962Y261140D01*
X300958Y261279D01*
X300952Y261299D01*
X300951Y261319D01*
X300908Y261451D01*
X300870Y261585D01*
X300859Y261602D01*
X300853Y261621D01*
X300779Y261739D01*
X300708Y261859D01*
X300689Y261880D01*
X300683Y261890D01*
X300668Y261904D01*
X300602Y261979D01*
X249509Y313072D01*
X249508Y313073D01*
X249507Y313074D01*
X248829Y313750D01*
X248460Y314639D01*
X248460Y314640D01*
X248459Y314641D01*
X248092Y315524D01*
X248092Y316491D01*
X248092Y316492D01*
X248092Y316493D01*
X248046Y344047D01*
X248031Y344165D01*
X248024Y344282D01*
X248011Y344322D01*
X248006Y344363D01*
X247962Y344473D01*
X247926Y344585D01*
X247903Y344620D01*
X247888Y344658D01*
X247819Y344754D01*
X247755Y344853D01*
X247725Y344882D01*
X247701Y344915D01*
X247610Y344991D01*
X247524Y345071D01*
X247488Y345091D01*
X247455Y345118D01*
X247348Y345168D01*
X247245Y345225D01*
X247205Y345235D01*
X247168Y345253D01*
X247051Y345275D01*
X246937Y345304D01*
X246876Y345308D01*
X246855Y345312D01*
X246835Y345311D01*
X246777Y345315D01*
X245672Y345315D01*
X243188Y347798D01*
X243153Y347897D01*
X243141Y347914D01*
X243134Y347932D01*
X243052Y348044D01*
X242974Y348160D01*
X242959Y348173D01*
X242947Y348190D01*
X242840Y348278D01*
X242735Y348370D01*
X242717Y348380D01*
X242702Y348392D01*
X242576Y348452D01*
X242452Y348515D01*
X242432Y348519D01*
X242414Y348528D01*
X242278Y348554D01*
X242142Y348585D01*
X242122Y348584D01*
X242102Y348588D01*
X241963Y348579D01*
X241824Y348575D01*
X241805Y348569D01*
X241784Y348568D01*
X241653Y348525D01*
X241519Y348487D01*
X241501Y348476D01*
X241482Y348470D01*
X241364Y348396D01*
X241245Y348325D01*
X241224Y348306D01*
X241213Y348300D01*
X241199Y348285D01*
X241124Y348219D01*
X239871Y346966D01*
X230974Y346966D01*
X230876Y346953D01*
X230777Y346950D01*
X230719Y346934D01*
X230659Y346926D01*
X230567Y346890D01*
X230472Y346862D01*
X230420Y346831D01*
X230363Y346809D01*
X230283Y346751D01*
X230198Y346700D01*
X230122Y346634D01*
X230106Y346622D01*
X230098Y346613D01*
X230077Y346594D01*
X200487Y317004D01*
X200426Y316926D01*
X200358Y316854D01*
X200329Y316801D01*
X200292Y316753D01*
X200253Y316662D01*
X200205Y316575D01*
X200190Y316517D01*
X200166Y316461D01*
X200150Y316363D01*
X200125Y316267D01*
X200119Y316167D01*
X200116Y316147D01*
X200117Y316135D01*
X200115Y316107D01*
X200115Y239476D01*
X200128Y239377D01*
X200131Y239278D01*
X200147Y239220D01*
X200155Y239160D01*
X200191Y239068D01*
X200219Y238973D01*
X200250Y238921D01*
X200272Y238864D01*
X200330Y238784D01*
X200380Y238699D01*
X200447Y238624D01*
X200459Y238607D01*
X200468Y238599D01*
X200487Y238578D01*
X207381Y231684D01*
X207459Y231624D01*
X207531Y231556D01*
X207584Y231527D01*
X207632Y231489D01*
X207723Y231450D01*
X207810Y231402D01*
X207868Y231387D01*
X207924Y231363D01*
X208022Y231348D01*
X208117Y231323D01*
X208217Y231316D01*
X208238Y231313D01*
X208250Y231314D01*
X208278Y231313D01*
X241600Y231313D01*
X241669Y231321D01*
G37*
G36*
X301562Y291835D02*
X301562Y291835D01*
X301702Y291844D01*
X301719Y291850D01*
X301738Y291852D01*
X301870Y291899D01*
X302004Y291943D01*
X302020Y291953D01*
X302037Y291959D01*
X302153Y292038D01*
X302272Y292114D01*
X302285Y292127D01*
X302300Y292138D01*
X302393Y292243D01*
X302490Y292346D01*
X302498Y292362D01*
X302511Y292376D01*
X302575Y292501D01*
X302642Y292625D01*
X302647Y292643D01*
X302655Y292659D01*
X302686Y292797D01*
X302721Y292933D01*
X302722Y292959D01*
X302725Y292970D01*
X302724Y292989D01*
X302731Y293094D01*
X302583Y343921D01*
X302568Y344038D01*
X302561Y344154D01*
X302548Y344194D01*
X302542Y344237D01*
X302499Y344346D01*
X302463Y344457D01*
X302440Y344493D01*
X302424Y344532D01*
X302355Y344627D01*
X302293Y344726D01*
X302262Y344755D01*
X302237Y344789D01*
X302146Y344863D01*
X302061Y344944D01*
X302024Y344964D01*
X301991Y344991D01*
X301885Y345040D01*
X301782Y345097D01*
X301741Y345108D01*
X301703Y345126D01*
X301588Y345147D01*
X301474Y345176D01*
X301411Y345181D01*
X301391Y345184D01*
X301371Y345183D01*
X301314Y345187D01*
X300196Y345187D01*
X299345Y346038D01*
X299236Y346123D01*
X299128Y346212D01*
X299110Y346220D01*
X299094Y346233D01*
X298966Y346288D01*
X298840Y346347D01*
X298821Y346351D01*
X298802Y346359D01*
X298664Y346381D01*
X298528Y346407D01*
X298508Y346406D01*
X298488Y346409D01*
X298349Y346396D01*
X298211Y346387D01*
X298191Y346381D01*
X298171Y346379D01*
X298040Y346332D01*
X297908Y346289D01*
X297891Y346278D01*
X297872Y346271D01*
X297757Y346193D01*
X297639Y346119D01*
X297626Y346104D01*
X297609Y346093D01*
X297517Y345989D01*
X297421Y345887D01*
X297412Y345870D01*
X297398Y345854D01*
X297335Y345731D01*
X297268Y345609D01*
X297263Y345589D01*
X297254Y345571D01*
X297223Y345435D01*
X297189Y345301D01*
X297187Y345273D01*
X297184Y345261D01*
X297185Y345240D01*
X297178Y345140D01*
X297178Y343482D01*
X297005Y342836D01*
X296671Y342256D01*
X296198Y341783D01*
X295618Y341449D01*
X294972Y341276D01*
X292137Y341276D01*
X292137Y349586D01*
X292122Y349704D01*
X292115Y349823D01*
X292102Y349862D01*
X292097Y349902D01*
X292053Y350013D01*
X292016Y350126D01*
X291995Y350160D01*
X291980Y350197D01*
X291910Y350294D01*
X291846Y350394D01*
X291817Y350422D01*
X291793Y350455D01*
X291701Y350531D01*
X291615Y350612D01*
X291579Y350632D01*
X291548Y350658D01*
X291440Y350708D01*
X291336Y350766D01*
X291297Y350776D01*
X291260Y350793D01*
X291154Y350814D01*
X291183Y350817D01*
X291294Y350861D01*
X291407Y350898D01*
X291441Y350919D01*
X291479Y350934D01*
X291575Y351004D01*
X291676Y351068D01*
X291703Y351097D01*
X291736Y351121D01*
X291812Y351213D01*
X291894Y351300D01*
X291913Y351335D01*
X291939Y351366D01*
X291990Y351474D01*
X292047Y351578D01*
X292057Y351617D01*
X292074Y351654D01*
X292097Y351771D01*
X292127Y351886D01*
X292130Y351946D01*
X292134Y351966D01*
X292133Y351986D01*
X292137Y352047D01*
X292137Y361428D01*
X292122Y361546D01*
X292115Y361665D01*
X292102Y361703D01*
X292097Y361743D01*
X292053Y361854D01*
X292016Y361967D01*
X291995Y362001D01*
X291980Y362039D01*
X291910Y362135D01*
X291846Y362236D01*
X291817Y362263D01*
X291793Y362296D01*
X291701Y362372D01*
X291615Y362454D01*
X291579Y362473D01*
X291548Y362499D01*
X291440Y362550D01*
X291336Y362607D01*
X291297Y362617D01*
X291260Y362635D01*
X291144Y362657D01*
X291109Y362666D01*
X291109Y369507D01*
X291094Y369626D01*
X291086Y369744D01*
X291074Y369783D01*
X291069Y369823D01*
X291025Y369934D01*
X290988Y370047D01*
X290967Y370081D01*
X290952Y370119D01*
X290882Y370215D01*
X290818Y370316D01*
X290789Y370343D01*
X290765Y370376D01*
X290673Y370452D01*
X290586Y370533D01*
X290551Y370553D01*
X290520Y370579D01*
X290412Y370630D01*
X290308Y370687D01*
X290269Y370697D01*
X290232Y370714D01*
X290126Y370735D01*
X290155Y370738D01*
X290266Y370782D01*
X290379Y370819D01*
X290413Y370841D01*
X290451Y370855D01*
X290547Y370925D01*
X290647Y370989D01*
X290675Y371019D01*
X290708Y371042D01*
X290784Y371134D01*
X290865Y371221D01*
X290885Y371256D01*
X290911Y371287D01*
X290961Y371395D01*
X291019Y371499D01*
X291029Y371538D01*
X291046Y371575D01*
X291069Y371692D01*
X291098Y371807D01*
X291102Y371867D01*
X291106Y371887D01*
X291105Y371908D01*
X291109Y371968D01*
X291109Y378778D01*
X293944Y378778D01*
X294590Y378605D01*
X295169Y378271D01*
X295745Y377695D01*
X295747Y377692D01*
X295752Y377689D01*
X295761Y377680D01*
X295828Y377627D01*
X295848Y377611D01*
X295945Y377525D01*
X295972Y377512D01*
X295995Y377493D01*
X296009Y377487D01*
X296012Y377485D01*
X296055Y377466D01*
X296114Y377439D01*
X296229Y377381D01*
X296258Y377374D01*
X296285Y377362D01*
X296303Y377359D01*
X296304Y377358D01*
X296318Y377356D01*
X296413Y377339D01*
X296539Y377311D01*
X296569Y377312D01*
X296598Y377307D01*
X296727Y377317D01*
X296857Y377321D01*
X296886Y377329D01*
X296915Y377331D01*
X297038Y377373D01*
X297162Y377409D01*
X297188Y377424D01*
X297216Y377434D01*
X297325Y377505D01*
X297436Y377571D01*
X297468Y377599D01*
X297483Y377608D01*
X297497Y377624D01*
X297557Y377677D01*
X300196Y380316D01*
X314563Y380316D01*
X315851Y379029D01*
X315945Y378956D01*
X316034Y378877D01*
X316070Y378859D01*
X316102Y378834D01*
X316212Y378786D01*
X316317Y378732D01*
X316357Y378724D01*
X316394Y378707D01*
X316512Y378689D01*
X316628Y378663D01*
X316668Y378664D01*
X316708Y378658D01*
X316827Y378669D01*
X316946Y378672D01*
X316984Y378684D01*
X317025Y378687D01*
X317137Y378728D01*
X317251Y378761D01*
X317286Y378781D01*
X317324Y378795D01*
X317423Y378862D01*
X317525Y378922D01*
X317570Y378962D01*
X317587Y378974D01*
X317601Y378989D01*
X317646Y379029D01*
X318919Y380302D01*
X332287Y380302D01*
X334283Y378306D01*
X334378Y378233D01*
X334467Y378154D01*
X334503Y378136D01*
X334535Y378111D01*
X334644Y378064D01*
X334750Y378009D01*
X334789Y378001D01*
X334826Y377985D01*
X334944Y377966D01*
X335060Y377940D01*
X335101Y377941D01*
X335141Y377935D01*
X335259Y377946D01*
X335378Y377950D01*
X335417Y377961D01*
X335457Y377965D01*
X335570Y378005D01*
X335684Y378038D01*
X335718Y378058D01*
X335756Y378072D01*
X335855Y378139D01*
X335958Y378200D01*
X336003Y378239D01*
X336020Y378251D01*
X336031Y378264D01*
X336622Y378605D01*
X337269Y378778D01*
X340104Y378778D01*
X340104Y371968D01*
X340119Y371850D01*
X340126Y371731D01*
X340139Y371692D01*
X340144Y371652D01*
X340188Y371542D01*
X340224Y371428D01*
X340246Y371394D01*
X340261Y371357D01*
X340331Y371260D01*
X340394Y371160D01*
X340424Y371132D01*
X340448Y371099D01*
X340539Y371023D01*
X340626Y370942D01*
X340661Y370922D01*
X340693Y370896D01*
X340800Y370846D01*
X340904Y370788D01*
X340944Y370778D01*
X340980Y370761D01*
X341087Y370741D01*
X341058Y370737D01*
X340947Y370693D01*
X340834Y370656D01*
X340799Y370635D01*
X340762Y370620D01*
X340666Y370550D01*
X340565Y370486D01*
X340537Y370457D01*
X340505Y370433D01*
X340429Y370341D01*
X340347Y370255D01*
X340328Y370219D01*
X340302Y370188D01*
X340251Y370080D01*
X340194Y369976D01*
X340183Y369937D01*
X340166Y369900D01*
X340144Y369783D01*
X340114Y369668D01*
X340110Y369608D01*
X340106Y369588D01*
X340108Y369568D01*
X340104Y369507D01*
X340104Y361626D01*
X340119Y361508D01*
X340126Y361390D01*
X340139Y361351D01*
X340144Y361311D01*
X340188Y361200D01*
X340224Y361087D01*
X340246Y361053D01*
X340261Y361015D01*
X340331Y360919D01*
X340394Y360818D01*
X340419Y360795D01*
X340419Y352047D01*
X340434Y351928D01*
X340442Y351810D01*
X340454Y351771D01*
X340459Y351731D01*
X340503Y351620D01*
X340540Y351507D01*
X340561Y351473D01*
X340576Y351435D01*
X340646Y351339D01*
X340710Y351239D01*
X340739Y351211D01*
X340763Y351178D01*
X340855Y351102D01*
X340941Y351021D01*
X340977Y351001D01*
X341008Y350975D01*
X341116Y350925D01*
X341220Y350867D01*
X341259Y350857D01*
X341296Y350840D01*
X341402Y350819D01*
X341373Y350816D01*
X341262Y350772D01*
X341149Y350735D01*
X341115Y350713D01*
X341077Y350699D01*
X340981Y350629D01*
X340880Y350565D01*
X340853Y350536D01*
X340820Y350512D01*
X340744Y350420D01*
X340662Y350333D01*
X340643Y350298D01*
X340617Y350267D01*
X340566Y350159D01*
X340509Y350055D01*
X340499Y350016D01*
X340482Y349979D01*
X340459Y349862D01*
X340429Y349747D01*
X340426Y349687D01*
X340422Y349667D01*
X340423Y349646D01*
X340419Y349586D01*
X340419Y340090D01*
X340432Y339992D01*
X340435Y339893D01*
X340451Y339834D01*
X340459Y339774D01*
X340496Y339682D01*
X340523Y339587D01*
X340554Y339535D01*
X340576Y339479D01*
X340634Y339399D01*
X340685Y339313D01*
X340751Y339238D01*
X340763Y339221D01*
X340772Y339214D01*
X340791Y339192D01*
X342483Y337500D01*
X342483Y334803D01*
X342500Y334667D01*
X342513Y334531D01*
X342520Y334510D01*
X342523Y334488D01*
X342573Y334361D01*
X342619Y334231D01*
X342632Y334213D01*
X342640Y334192D01*
X342720Y334081D01*
X342797Y333968D01*
X342814Y333953D01*
X342827Y333935D01*
X342933Y333847D01*
X343035Y333756D01*
X343055Y333746D01*
X343072Y333732D01*
X343196Y333674D01*
X343317Y333611D01*
X343339Y333606D01*
X343360Y333596D01*
X343494Y333571D01*
X343627Y333540D01*
X343639Y333540D01*
X343666Y333533D01*
X344543Y333170D01*
X344554Y333167D01*
X344576Y333156D01*
X345460Y332819D01*
X346128Y332151D01*
X346136Y332144D01*
X346153Y332126D01*
X346842Y331476D01*
X346877Y331417D01*
X346884Y331408D01*
X346887Y331403D01*
X346896Y331394D01*
X346983Y331296D01*
X352261Y326018D01*
X352371Y325933D01*
X352478Y325844D01*
X352496Y325836D01*
X352512Y325823D01*
X352640Y325768D01*
X352765Y325709D01*
X352785Y325705D01*
X352804Y325697D01*
X352942Y325675D01*
X353078Y325649D01*
X353098Y325650D01*
X353118Y325647D01*
X353257Y325660D01*
X353395Y325669D01*
X353414Y325675D01*
X353435Y325677D01*
X353566Y325724D01*
X353698Y325767D01*
X353715Y325778D01*
X353734Y325784D01*
X353849Y325863D01*
X353966Y325937D01*
X353980Y325952D01*
X353997Y325963D01*
X354089Y326067D01*
X354184Y326169D01*
X354194Y326186D01*
X354207Y326202D01*
X354271Y326325D01*
X354338Y326447D01*
X354343Y326467D01*
X354352Y326485D01*
X354383Y326621D01*
X354417Y326755D01*
X354419Y326783D01*
X354422Y326795D01*
X354421Y326816D01*
X354427Y326916D01*
X354427Y328227D01*
X362929Y328227D01*
X362929Y321812D01*
X359531Y321812D01*
X359393Y321795D01*
X359255Y321782D01*
X359235Y321775D01*
X359215Y321772D01*
X359086Y321721D01*
X358955Y321674D01*
X358939Y321663D01*
X358920Y321655D01*
X358807Y321574D01*
X358692Y321496D01*
X358679Y321480D01*
X358662Y321468D01*
X358574Y321361D01*
X358482Y321257D01*
X358473Y321239D01*
X358460Y321224D01*
X358400Y321098D01*
X358337Y320974D01*
X358333Y320954D01*
X358324Y320936D01*
X358298Y320800D01*
X358267Y320664D01*
X358268Y320643D01*
X358264Y320623D01*
X358273Y320485D01*
X358277Y320346D01*
X358283Y320326D01*
X358284Y320306D01*
X358327Y320174D01*
X358366Y320040D01*
X358376Y320023D01*
X358382Y320004D01*
X358456Y319886D01*
X358527Y319766D01*
X358546Y319745D01*
X358552Y319735D01*
X358567Y319721D01*
X358633Y319645D01*
X374326Y303953D01*
X374436Y303868D01*
X374543Y303779D01*
X374561Y303771D01*
X374577Y303758D01*
X374705Y303703D01*
X374831Y303644D01*
X374850Y303640D01*
X374869Y303632D01*
X375007Y303610D01*
X375143Y303584D01*
X375163Y303585D01*
X375183Y303582D01*
X375322Y303595D01*
X375460Y303604D01*
X375479Y303610D01*
X375500Y303612D01*
X375631Y303659D01*
X375763Y303702D01*
X375780Y303712D01*
X375799Y303719D01*
X375914Y303797D01*
X376032Y303872D01*
X376045Y303887D01*
X376062Y303898D01*
X376154Y304002D01*
X376249Y304103D01*
X376259Y304121D01*
X376273Y304136D01*
X376336Y304260D01*
X376403Y304382D01*
X376408Y304401D01*
X376417Y304420D01*
X376448Y304555D01*
X376482Y304690D01*
X376484Y304718D01*
X376487Y304730D01*
X376486Y304750D01*
X376493Y304851D01*
X376493Y308145D01*
X376492Y308146D01*
X376493Y308148D01*
X376458Y320739D01*
X376442Y320862D01*
X376433Y320986D01*
X376422Y321019D01*
X376417Y321054D01*
X376371Y321170D01*
X376332Y321287D01*
X376312Y321317D01*
X376299Y321350D01*
X376226Y321450D01*
X376159Y321554D01*
X376133Y321578D01*
X376112Y321607D01*
X376016Y321686D01*
X375925Y321769D01*
X375894Y321786D01*
X375866Y321809D01*
X375754Y321861D01*
X375645Y321920D01*
X375610Y321929D01*
X375578Y321944D01*
X375456Y321967D01*
X375336Y321996D01*
X375300Y321996D01*
X375266Y322002D01*
X375142Y321994D01*
X375018Y321993D01*
X374967Y321983D01*
X374948Y321982D01*
X374928Y321975D01*
X374860Y321962D01*
X374303Y321812D01*
X368007Y321812D01*
X368007Y329496D01*
X367992Y329614D01*
X367985Y329733D01*
X367973Y329771D01*
X367968Y329811D01*
X367924Y329922D01*
X367887Y330035D01*
X367865Y330069D01*
X367850Y330107D01*
X367781Y330203D01*
X367717Y330304D01*
X367687Y330332D01*
X367664Y330364D01*
X367572Y330440D01*
X367485Y330522D01*
X367450Y330541D01*
X367419Y330567D01*
X367311Y330618D01*
X367207Y330675D01*
X367168Y330686D01*
X367131Y330703D01*
X367014Y330725D01*
X366899Y330755D01*
X366839Y330759D01*
X366819Y330763D01*
X366798Y330761D01*
X366738Y330765D01*
X365467Y330765D01*
X365467Y330767D01*
X366738Y330767D01*
X366856Y330782D01*
X366975Y330789D01*
X367013Y330802D01*
X367054Y330807D01*
X367164Y330850D01*
X367278Y330887D01*
X367312Y330909D01*
X367349Y330924D01*
X367446Y330994D01*
X367546Y331057D01*
X367574Y331087D01*
X367607Y331111D01*
X367683Y331202D01*
X367764Y331289D01*
X367784Y331324D01*
X367809Y331355D01*
X367860Y331463D01*
X367918Y331567D01*
X367928Y331607D01*
X367945Y331643D01*
X367967Y331760D01*
X367997Y331875D01*
X368001Y331936D01*
X368005Y331956D01*
X368004Y331976D01*
X368007Y332036D01*
X368007Y339720D01*
X374303Y339720D01*
X374804Y339585D01*
X374931Y339568D01*
X375056Y339544D01*
X375088Y339546D01*
X375119Y339542D01*
X375246Y339557D01*
X375373Y339565D01*
X375404Y339575D01*
X375435Y339579D01*
X375555Y339624D01*
X375675Y339664D01*
X375702Y339681D01*
X375732Y339692D01*
X375836Y339766D01*
X375944Y339835D01*
X375966Y339858D01*
X375992Y339877D01*
X376074Y339974D01*
X376161Y340067D01*
X376176Y340095D01*
X376197Y340119D01*
X376252Y340234D01*
X376314Y340346D01*
X376322Y340377D01*
X376336Y340406D01*
X376361Y340531D01*
X376392Y340654D01*
X376395Y340700D01*
X376399Y340717D01*
X376398Y340739D01*
X376402Y340815D01*
X376363Y355032D01*
X376347Y355155D01*
X376338Y355278D01*
X376327Y355312D01*
X376322Y355347D01*
X376276Y355462D01*
X376237Y355580D01*
X376217Y355610D01*
X376204Y355643D01*
X376131Y355743D01*
X376064Y355847D01*
X376037Y355871D01*
X376017Y355899D01*
X375921Y355978D01*
X375830Y356062D01*
X375798Y356079D01*
X375771Y356102D01*
X375659Y356154D01*
X375550Y356213D01*
X375515Y356221D01*
X375483Y356236D01*
X375361Y356259D01*
X375241Y356289D01*
X375205Y356289D01*
X375170Y356295D01*
X375047Y356287D01*
X374923Y356286D01*
X374872Y356276D01*
X374853Y356275D01*
X374833Y356268D01*
X374765Y356254D01*
X374303Y356130D01*
X368007Y356130D01*
X368007Y363814D01*
X367992Y363932D01*
X367985Y364051D01*
X367973Y364089D01*
X367968Y364130D01*
X367924Y364240D01*
X367887Y364353D01*
X367865Y364388D01*
X367850Y364425D01*
X367781Y364521D01*
X367717Y364622D01*
X367687Y364650D01*
X367664Y364683D01*
X367572Y364759D01*
X367485Y364840D01*
X367450Y364860D01*
X367419Y364885D01*
X367311Y364936D01*
X367207Y364994D01*
X367168Y365004D01*
X367131Y365021D01*
X367014Y365043D01*
X366899Y365073D01*
X366839Y365077D01*
X366819Y365081D01*
X366798Y365079D01*
X366738Y365083D01*
X365467Y365083D01*
X365467Y365085D01*
X366738Y365085D01*
X366856Y365100D01*
X366975Y365107D01*
X367013Y365120D01*
X367054Y365125D01*
X367164Y365169D01*
X367278Y365205D01*
X367312Y365227D01*
X367349Y365242D01*
X367446Y365312D01*
X367546Y365375D01*
X367574Y365405D01*
X367607Y365429D01*
X367683Y365520D01*
X367764Y365607D01*
X367784Y365643D01*
X367809Y365674D01*
X367860Y365781D01*
X367918Y365886D01*
X367928Y365925D01*
X367945Y365961D01*
X367967Y366078D01*
X367997Y366194D01*
X368001Y366254D01*
X368005Y366274D01*
X368004Y366294D01*
X368007Y366354D01*
X368007Y374038D01*
X374303Y374038D01*
X374709Y373929D01*
X374836Y373912D01*
X374961Y373888D01*
X374992Y373890D01*
X375024Y373886D01*
X375151Y373900D01*
X375278Y373909D01*
X375308Y373919D01*
X375340Y373922D01*
X375459Y373968D01*
X375580Y374008D01*
X375607Y374025D01*
X375637Y374036D01*
X375741Y374110D01*
X375849Y374178D01*
X375870Y374202D01*
X375896Y374220D01*
X375979Y374318D01*
X376066Y374411D01*
X376081Y374439D01*
X376102Y374463D01*
X376157Y374578D01*
X376219Y374690D01*
X376226Y374721D01*
X376240Y374749D01*
X376266Y374874D01*
X376297Y374998D01*
X376300Y375044D01*
X376303Y375061D01*
X376302Y375083D01*
X376307Y375158D01*
X376253Y394453D01*
X376238Y394569D01*
X376231Y394686D01*
X376218Y394726D01*
X376213Y394768D01*
X376169Y394877D01*
X376133Y394989D01*
X376111Y395024D01*
X376095Y395063D01*
X376026Y395158D01*
X375963Y395257D01*
X375932Y395286D01*
X375907Y395320D01*
X375817Y395395D01*
X375731Y395475D01*
X375694Y395496D01*
X375662Y395522D01*
X375556Y395572D01*
X375453Y395629D01*
X375412Y395639D01*
X375374Y395657D01*
X375258Y395679D01*
X375145Y395708D01*
X375082Y395712D01*
X375061Y395716D01*
X375041Y395715D01*
X374984Y395718D01*
X362342Y395718D01*
X362244Y395706D01*
X362145Y395703D01*
X362087Y395686D01*
X362027Y395679D01*
X361935Y395642D01*
X361840Y395615D01*
X361787Y395584D01*
X361731Y395562D01*
X361651Y395503D01*
X361566Y395453D01*
X361490Y395387D01*
X361474Y395375D01*
X361466Y395365D01*
X361445Y395347D01*
X355429Y389331D01*
X353655Y388596D01*
X251623Y388596D01*
X251525Y388584D01*
X251426Y388581D01*
X251368Y388564D01*
X251307Y388556D01*
X251215Y388520D01*
X251120Y388492D01*
X251068Y388461D01*
X251012Y388439D01*
X250932Y388381D01*
X250846Y388331D01*
X250771Y388264D01*
X250754Y388252D01*
X250747Y388243D01*
X250725Y388224D01*
X245112Y382611D01*
X245027Y382501D01*
X244938Y382394D01*
X244930Y382376D01*
X244917Y382360D01*
X244862Y382231D01*
X244803Y382106D01*
X244799Y382086D01*
X244791Y382068D01*
X244769Y381930D01*
X244743Y381794D01*
X244744Y381774D01*
X244741Y381754D01*
X244754Y381615D01*
X244763Y381476D01*
X244769Y381457D01*
X244771Y381437D01*
X244818Y381306D01*
X244861Y381174D01*
X244871Y381157D01*
X244878Y381138D01*
X244956Y381023D01*
X245031Y380905D01*
X245046Y380891D01*
X245057Y380875D01*
X245161Y380783D01*
X245262Y380687D01*
X245280Y380678D01*
X245295Y380664D01*
X245419Y380601D01*
X245541Y380534D01*
X245561Y380529D01*
X245579Y380519D01*
X245714Y380489D01*
X245849Y380454D01*
X245877Y380453D01*
X245889Y380450D01*
X245909Y380450D01*
X246010Y380444D01*
X260039Y380444D01*
X261143Y379340D01*
X261221Y379280D01*
X261293Y379212D01*
X261346Y379183D01*
X261394Y379146D01*
X261485Y379106D01*
X261571Y379058D01*
X261630Y379043D01*
X261686Y379019D01*
X261784Y379004D01*
X261879Y378979D01*
X261979Y378973D01*
X262000Y378969D01*
X262012Y378971D01*
X262040Y378969D01*
X263066Y378969D01*
X263164Y378981D01*
X263264Y378984D01*
X263322Y379001D01*
X263382Y379009D01*
X263474Y379045D01*
X263569Y379073D01*
X263621Y379103D01*
X263678Y379126D01*
X263758Y379184D01*
X263843Y379234D01*
X263918Y379300D01*
X263935Y379312D01*
X263943Y379322D01*
X263964Y379340D01*
X264926Y380302D01*
X278293Y380302D01*
X280289Y378306D01*
X280384Y378233D01*
X280473Y378154D01*
X280509Y378136D01*
X280541Y378111D01*
X280650Y378064D01*
X280756Y378009D01*
X280796Y378001D01*
X280833Y377985D01*
X280950Y377966D01*
X281067Y377940D01*
X281107Y377941D01*
X281147Y377935D01*
X281266Y377946D01*
X281384Y377950D01*
X281423Y377961D01*
X281463Y377965D01*
X281576Y378005D01*
X281690Y378038D01*
X281725Y378058D01*
X281763Y378072D01*
X281861Y378139D01*
X281964Y378200D01*
X282009Y378239D01*
X282026Y378251D01*
X282037Y378264D01*
X282629Y378605D01*
X283275Y378778D01*
X286110Y378778D01*
X286110Y373237D01*
X281943Y373237D01*
X281825Y373222D01*
X281706Y373215D01*
X281668Y373202D01*
X281628Y373197D01*
X281517Y373153D01*
X281404Y373117D01*
X281370Y373095D01*
X281332Y373080D01*
X281236Y373010D01*
X281135Y372946D01*
X281107Y372917D01*
X281075Y372893D01*
X280999Y372801D01*
X280917Y372715D01*
X280898Y372679D01*
X280872Y372648D01*
X280821Y372541D01*
X280764Y372436D01*
X280754Y372397D01*
X280736Y372360D01*
X280714Y372244D01*
X280684Y372128D01*
X280680Y372068D01*
X280677Y372048D01*
X280678Y372028D01*
X280674Y371968D01*
X280674Y369508D01*
X280689Y369389D01*
X280696Y369271D01*
X280709Y369232D01*
X280714Y369192D01*
X280758Y369081D01*
X280794Y368968D01*
X280816Y368934D01*
X280831Y368896D01*
X280901Y368800D01*
X280965Y368699D01*
X280994Y368672D01*
X281018Y368639D01*
X281110Y368563D01*
X281196Y368482D01*
X281232Y368462D01*
X281263Y368436D01*
X281370Y368385D01*
X281475Y368328D01*
X281514Y368318D01*
X281550Y368301D01*
X281667Y368278D01*
X281783Y368249D01*
X281843Y368245D01*
X281863Y368241D01*
X281883Y368242D01*
X281943Y368238D01*
X286110Y368238D01*
X286110Y361626D01*
X286125Y361508D01*
X286132Y361390D01*
X286145Y361351D01*
X286150Y361311D01*
X286194Y361200D01*
X286230Y361087D01*
X286252Y361053D01*
X286267Y361015D01*
X286337Y360919D01*
X286401Y360818D01*
X286430Y360791D01*
X286454Y360758D01*
X286545Y360682D01*
X286632Y360600D01*
X286668Y360581D01*
X286699Y360555D01*
X286806Y360504D01*
X286911Y360447D01*
X286950Y360437D01*
X286986Y360420D01*
X287103Y360397D01*
X287138Y360388D01*
X287138Y352047D01*
X287153Y351928D01*
X287161Y351810D01*
X287173Y351771D01*
X287178Y351731D01*
X287222Y351620D01*
X287259Y351507D01*
X287280Y351473D01*
X287295Y351435D01*
X287365Y351339D01*
X287429Y351239D01*
X287458Y351211D01*
X287482Y351178D01*
X287574Y351102D01*
X287660Y351021D01*
X287696Y351001D01*
X287727Y350975D01*
X287835Y350925D01*
X287939Y350867D01*
X287978Y350857D01*
X288015Y350840D01*
X288121Y350819D01*
X288092Y350816D01*
X287981Y350772D01*
X287868Y350735D01*
X287834Y350713D01*
X287796Y350699D01*
X287700Y350629D01*
X287599Y350565D01*
X287572Y350536D01*
X287539Y350512D01*
X287463Y350420D01*
X287381Y350333D01*
X287362Y350298D01*
X287336Y350267D01*
X287285Y350159D01*
X287228Y350055D01*
X287218Y350016D01*
X287201Y349979D01*
X287178Y349862D01*
X287148Y349747D01*
X287145Y349687D01*
X287141Y349667D01*
X287142Y349646D01*
X287138Y349586D01*
X287138Y340090D01*
X287151Y339992D01*
X287154Y339893D01*
X287171Y339834D01*
X287178Y339774D01*
X287215Y339682D01*
X287242Y339587D01*
X287273Y339535D01*
X287295Y339479D01*
X287353Y339399D01*
X287404Y339313D01*
X287470Y339238D01*
X287482Y339221D01*
X287491Y339214D01*
X287510Y339192D01*
X289202Y337500D01*
X289202Y320133D01*
X286821Y317752D01*
X286234Y317752D01*
X286115Y317737D01*
X285997Y317729D01*
X285958Y317717D01*
X285918Y317712D01*
X285807Y317668D01*
X285694Y317631D01*
X285660Y317610D01*
X285622Y317595D01*
X285526Y317525D01*
X285425Y317461D01*
X285398Y317432D01*
X285365Y317408D01*
X285289Y317316D01*
X285207Y317230D01*
X285188Y317194D01*
X285162Y317163D01*
X285111Y317055D01*
X285054Y316951D01*
X285044Y316912D01*
X285027Y316875D01*
X285004Y316759D01*
X284975Y316643D01*
X284971Y316583D01*
X284967Y316563D01*
X284968Y316543D01*
X284964Y316482D01*
X284964Y308318D01*
X284977Y308220D01*
X284980Y308121D01*
X284997Y308063D01*
X285004Y308003D01*
X285041Y307911D01*
X285068Y307816D01*
X285099Y307763D01*
X285121Y307707D01*
X285179Y307627D01*
X285230Y307542D01*
X285296Y307466D01*
X285308Y307450D01*
X285317Y307442D01*
X285336Y307421D01*
X300564Y292193D01*
X300675Y292106D01*
X300784Y292017D01*
X300801Y292009D01*
X300815Y291998D01*
X300945Y291942D01*
X301072Y291882D01*
X301090Y291879D01*
X301107Y291872D01*
X301246Y291849D01*
X301385Y291823D01*
X301403Y291825D01*
X301421Y291822D01*
X301562Y291835D01*
G37*
%LPC*%
G36*
X186824Y436440D02*
X186824Y436440D01*
X195825Y436440D01*
X195825Y429071D01*
X195541Y427277D01*
X194980Y425549D01*
X194155Y423931D01*
X193087Y422461D01*
X191803Y421177D01*
X190333Y420109D01*
X188714Y419284D01*
X186987Y418723D01*
X186824Y418697D01*
X186824Y436440D01*
G37*
%LPD*%
%LPC*%
G36*
X181582Y418723D02*
X181582Y418723D01*
X179854Y419284D01*
X178236Y420109D01*
X176766Y421177D01*
X175481Y422461D01*
X174414Y423931D01*
X173589Y425549D01*
X173028Y427277D01*
X172744Y429071D01*
X172744Y436440D01*
X181745Y436440D01*
X181745Y418697D01*
X181582Y418723D01*
G37*
%LPD*%
%LPC*%
G36*
X345418Y353316D02*
X345418Y353316D01*
X345418Y361428D01*
X345403Y361546D01*
X345395Y361665D01*
X345383Y361703D01*
X345378Y361743D01*
X345334Y361854D01*
X345297Y361967D01*
X345276Y362001D01*
X345261Y362039D01*
X345191Y362135D01*
X345127Y362236D01*
X345102Y362259D01*
X345102Y368238D01*
X350144Y368238D01*
X350144Y364903D01*
X349971Y364257D01*
X349636Y363678D01*
X349163Y363204D01*
X348584Y362870D01*
X348305Y362795D01*
X348170Y362740D01*
X348034Y362688D01*
X348023Y362680D01*
X348010Y362675D01*
X347893Y362588D01*
X347775Y362504D01*
X347766Y362494D01*
X347755Y362486D01*
X347663Y362372D01*
X347569Y362261D01*
X347563Y362249D01*
X347555Y362239D01*
X347494Y362106D01*
X347431Y361975D01*
X347428Y361962D01*
X347422Y361949D01*
X347397Y361806D01*
X347368Y361663D01*
X347368Y361650D01*
X347366Y361636D01*
X347376Y361491D01*
X347384Y361346D01*
X347388Y361333D01*
X347389Y361319D01*
X347435Y361181D01*
X347479Y361042D01*
X347486Y361031D01*
X347490Y361018D01*
X347569Y360896D01*
X347646Y360772D01*
X347656Y360762D01*
X347663Y360751D01*
X347770Y360652D01*
X347875Y360551D01*
X347887Y360545D01*
X347897Y360535D01*
X348025Y360467D01*
X348152Y360395D01*
X348170Y360389D01*
X348177Y360385D01*
X348194Y360381D01*
X348305Y360343D01*
X348899Y360184D01*
X349479Y359850D01*
X349952Y359376D01*
X350286Y358797D01*
X350459Y358151D01*
X350459Y353316D01*
X345418Y353316D01*
G37*
%LPD*%
%LPC*%
G36*
X209772Y248889D02*
X209772Y248889D01*
X209812Y249146D01*
X210393Y250933D01*
X211246Y252607D01*
X212351Y254127D01*
X213680Y255456D01*
X215200Y256561D01*
X216874Y257414D01*
X218661Y257995D01*
X218918Y258035D01*
X218918Y248889D01*
X209772Y248889D01*
G37*
%LPD*%
%LPC*%
G36*
X218661Y234705D02*
X218661Y234705D01*
X216874Y235286D01*
X215200Y236139D01*
X213680Y237244D01*
X212351Y238572D01*
X211246Y240093D01*
X210393Y241767D01*
X209812Y243554D01*
X209772Y243811D01*
X218918Y243811D01*
X218918Y234665D01*
X218661Y234705D01*
G37*
%LPD*%
%LPC*%
G36*
X354427Y367623D02*
X354427Y367623D01*
X354427Y371832D01*
X354601Y372478D01*
X354935Y373057D01*
X355408Y373530D01*
X355987Y373865D01*
X356634Y374038D01*
X362929Y374038D01*
X362929Y367623D01*
X354427Y367623D01*
G37*
%LPD*%
%LPC*%
G36*
X354427Y333305D02*
X354427Y333305D01*
X354427Y337513D01*
X354601Y338160D01*
X354935Y338739D01*
X355408Y339212D01*
X355987Y339546D01*
X356634Y339720D01*
X362929Y339720D01*
X362929Y333305D01*
X354427Y333305D01*
G37*
%LPD*%
%LPC*%
G36*
X356634Y356130D02*
X356634Y356130D01*
X355987Y356304D01*
X355408Y356638D01*
X354935Y357111D01*
X354601Y357690D01*
X354427Y358337D01*
X354427Y362545D01*
X362929Y362545D01*
X362929Y356130D01*
X356634Y356130D01*
G37*
%LPD*%
%LPC*%
G36*
X345418Y341276D02*
X345418Y341276D01*
X345418Y348317D01*
X350459Y348317D01*
X350459Y343482D01*
X350286Y342836D01*
X349952Y342256D01*
X349479Y341783D01*
X348899Y341449D01*
X348253Y341276D01*
X345418Y341276D01*
G37*
%LPD*%
%LPC*%
G36*
X345102Y373237D02*
X345102Y373237D01*
X345102Y378778D01*
X347938Y378778D01*
X348584Y378605D01*
X349163Y378271D01*
X349636Y377798D01*
X349971Y377218D01*
X350144Y376572D01*
X350144Y373237D01*
X345102Y373237D01*
G37*
%LPD*%
%LPC*%
G36*
X208647Y299476D02*
X208647Y299476D01*
X208647Y302811D01*
X208820Y303457D01*
X209154Y304036D01*
X209627Y304509D01*
X210207Y304844D01*
X210853Y305017D01*
X213688Y305017D01*
X213688Y299476D01*
X208647Y299476D01*
G37*
%LPD*%
%LPC*%
G36*
X210853Y288936D02*
X210853Y288936D01*
X210207Y289109D01*
X209627Y289443D01*
X209154Y289916D01*
X208820Y290496D01*
X208647Y291142D01*
X208647Y294477D01*
X213688Y294477D01*
X213688Y288936D01*
X210853Y288936D01*
G37*
%LPD*%
D10*
X226060Y137154D03*
X302260Y137154D03*
X403860Y137154D03*
X429260Y137154D03*
D11*
X280138Y328816D03*
X289638Y350816D03*
X270638Y350816D03*
D12*
X252855Y354379D03*
X252855Y371379D03*
D13*
X233187Y356531D03*
X216187Y356531D03*
X233294Y398756D03*
X216294Y398756D03*
X233291Y377616D03*
X216291Y377616D03*
X233187Y296976D03*
X216187Y296976D03*
D10*
X226060Y192691D03*
X302260Y192691D03*
X403860Y192691D03*
X429260Y192691D03*
D11*
X333419Y328816D03*
X342919Y350816D03*
X323919Y350816D03*
D12*
X307380Y354251D03*
X307380Y371251D03*
D14*
X221457Y449711D03*
X246857Y449711D03*
X272257Y449711D03*
X297657Y449711D03*
X323057Y449711D03*
X348457Y449711D03*
X373857Y449711D03*
X399257Y449711D03*
D15*
X365468Y406196D03*
X365468Y365084D03*
D13*
X342603Y370738D03*
X325603Y370738D03*
X288609Y370738D03*
X271609Y370738D03*
D15*
X365468Y289654D03*
X365468Y330766D03*
D14*
X221457Y246350D03*
X246857Y246350D03*
X272257Y246350D03*
X297657Y246350D03*
X323057Y246350D03*
X348457Y246350D03*
X373857Y246350D03*
X399257Y246350D03*
X424657Y246350D03*
D16*
X170033Y87813D02*
X170033Y69906D01*
X220033Y69906D02*
X220033Y87813D01*
X270033Y87813D02*
X270033Y69906D01*
X320033Y69906D02*
X320033Y87813D01*
D17*
X132284Y135980D02*
X132284Y153980D01*
X82284Y153980D02*
X82284Y135980D01*
X184284Y429980D02*
X184284Y447980D01*
X30284Y447980D02*
X30284Y429980D01*
D18*
X126844Y113674D02*
X126844Y99450D01*
X64003Y87450D02*
X64003Y73226D01*
D19*
X342603Y370738D02*
X342919Y371036D01*
X342919Y350816D01*
X221457Y292640D02*
X221442Y292777D01*
X221423Y292913D01*
X221400Y293049D01*
X221373Y293184D01*
X221342Y293319D01*
X221307Y293452D01*
X221269Y293584D01*
X221227Y293716D01*
X221181Y293846D01*
X221131Y293974D01*
X221078Y294101D01*
X221021Y294227D01*
X220961Y294351D01*
X220897Y294473D01*
X220829Y294593D01*
X220759Y294711D01*
X220684Y294827D01*
X220607Y294941D01*
X220526Y295053D01*
X220442Y295163D01*
X220356Y295270D01*
X220266Y295374D01*
X220173Y295476D01*
X220077Y295575D01*
X219978Y295671D01*
X219877Y295765D01*
X219773Y295855D01*
X219667Y295943D01*
X219558Y296028D01*
X219447Y296109D01*
X219333Y296187D01*
X219217Y296262D01*
X219100Y296333D01*
X218980Y296402D01*
X218858Y296466D01*
X218735Y296527D01*
X218609Y296585D01*
X218483Y296639D01*
X218354Y296690D01*
X218225Y296736D01*
X218094Y296779D01*
X217962Y296818D01*
X217828Y296854D01*
X217694Y296886D01*
X217559Y296913D01*
X217424Y296937D01*
X217287Y296957D01*
X217150Y296973D01*
X217013Y296986D01*
X216875Y296994D01*
X216738Y296998D01*
X216600Y296999D01*
X216462Y296995D01*
X216324Y296988D01*
X216187Y296976D01*
X221457Y292640D02*
X221457Y246350D01*
X288609Y351845D02*
X288609Y370738D01*
X288609Y351845D02*
X289638Y350816D01*
X288798Y371094D02*
X300228Y382524D01*
X331470Y382524D01*
X342138Y371856D01*
X288798Y371094D02*
X288609Y370738D01*
X342138Y371856D02*
X342603Y370738D01*
X288036Y371094D02*
X284988Y371094D01*
X274320Y381762D01*
X246126Y381762D01*
X240792Y376428D01*
X240792Y319278D01*
X218694Y297180D01*
X288036Y371094D02*
X288609Y370738D01*
X218694Y297180D02*
X216187Y296976D01*
D20*
X182151Y387949D03*
D21*
X182151Y436846D01*
X184284Y438980D01*
D19*
X348257Y365084D02*
X365468Y365084D01*
X348257Y365084D02*
X342603Y370738D01*
X362969Y330766D02*
X365468Y330766D01*
X362969Y330766D02*
X342919Y350816D01*
X280138Y328816D02*
X280138Y305793D01*
X334741Y251190D01*
X334741Y217295D02*
X375631Y176405D01*
X334741Y217295D02*
X334741Y251190D01*
X375631Y176405D02*
X424204Y176405D01*
X429260Y171348D02*
X429260Y137154D01*
X429260Y171348D02*
X424204Y176405D01*
X233187Y356531D02*
X195288Y318632D01*
X195288Y236951D01*
X205753Y226486D01*
X277793Y226486D02*
X297657Y246350D01*
X277793Y226486D02*
X205753Y226486D01*
X361950Y289560D02*
X365468Y289654D01*
X361950Y289560D02*
X361950Y234784D01*
X355588Y228421D01*
D20*
X355588Y228421D03*
D19*
X233291Y377616D02*
X249098Y393423D01*
X352695Y393423D02*
X365468Y406196D01*
X352695Y393423D02*
X249098Y393423D01*
X365468Y406196D02*
X399257Y439985D01*
X399257Y449711D01*
X297502Y398756D02*
X233294Y398756D01*
X297502Y398756D02*
X348457Y449711D01*
X342776Y328677D02*
X339176Y328575D01*
X342776Y328677D02*
X412880Y258573D01*
X412242Y209550D01*
X429006Y192786D01*
X429260Y192691D01*
D22*
X339176Y328575D03*
D19*
X333660Y328575D01*
X333419Y328816D01*
X323919Y369667D02*
X325603Y370738D01*
X323919Y369667D02*
X323919Y350816D01*
X323417Y372421D02*
X311225Y372421D01*
X323417Y372421D02*
X323850Y370332D01*
X311225Y372421D02*
X307380Y371251D01*
X323850Y370332D02*
X325603Y370738D01*
D23*
X336150Y123117D02*
X320033Y106999D01*
X336150Y158801D02*
X302260Y192691D01*
X336150Y158801D02*
X336150Y123117D01*
X320033Y106999D02*
X320033Y78859D01*
D19*
X271609Y351788D02*
X271609Y370738D01*
X271609Y351788D02*
X270638Y350816D01*
X268224Y374142D02*
X252984Y374142D01*
X268224Y374142D02*
X271272Y371094D01*
X252855Y371379D02*
X252984Y374142D01*
X271272Y371094D02*
X271609Y370738D01*
X252855Y354379D02*
X252919Y316488D01*
X323057Y246350D01*
X307571Y288447D02*
X307380Y354251D01*
X307571Y288447D02*
X348457Y246350D01*
X233187Y260020D02*
X233187Y296976D01*
X233187Y260020D02*
X246857Y246350D01*
X216291Y356531D02*
X216187Y356531D01*
X216291Y356531D02*
X216291Y377616D01*
X216291Y398655D01*
X216291Y398756D01*
X216294Y398756D01*
X221457Y403821D02*
X221457Y449711D01*
X221457Y403821D02*
X216291Y398655D01*
M02*
