G04 EAGLE Gerber RS-274X export*
G75*
%MOMM*%
%FSLAX34Y34*%
%LPD*%
%IN*%
%IPPOS*%
%AMOC8*
5,1,8,0,0,1.08239X$1,22.5*%
G01*
%ADD10C,0.254000*%


D10*
X6857Y131038D02*
X7100Y123809D01*
X7971Y116628D01*
X9465Y109550D01*
X11569Y102630D01*
X14269Y95920D01*
X17544Y89470D01*
X21368Y83330D01*
X25713Y77547D01*
X30546Y72165D01*
X35829Y67225D01*
X41522Y62763D01*
X47583Y58815D01*
X53965Y55410D01*
X60619Y52574D01*
X67495Y50329D01*
X74540Y48692D01*
X81702Y47675D01*
X88925Y47286D01*
X121938Y46550D01*
X144690Y46579D01*
X343534Y46579D01*
X343932Y46607D01*
X344326Y46671D01*
X344712Y46768D01*
X345089Y46898D01*
X345453Y47061D01*
X345802Y47255D01*
X346132Y47478D01*
X346441Y47730D01*
X346728Y48007D01*
X346989Y48309D01*
X347223Y48632D01*
X347427Y48974D01*
X347602Y49333D01*
X347744Y49705D01*
X347853Y50089D01*
X347929Y50480D01*
X347970Y50877D01*
X347976Y51276D01*
X347976Y97998D01*
X347997Y99630D01*
X348160Y101254D01*
X348465Y102858D01*
X348908Y104430D01*
X349486Y105956D01*
X350195Y107427D01*
X351030Y108830D01*
X351983Y110155D01*
X353049Y111392D01*
X354218Y112531D01*
X355482Y113564D01*
X356831Y114483D01*
X358256Y115281D01*
X359744Y115952D01*
X361285Y116490D01*
X362868Y116892D01*
X364479Y117155D01*
X366107Y117276D01*
X443266Y117340D01*
X443635Y117400D01*
X443998Y117492D01*
X444351Y117616D01*
X444691Y117770D01*
X445018Y117953D01*
X445326Y118164D01*
X445616Y118401D01*
X445883Y118662D01*
X446127Y118946D01*
X446346Y119249D01*
X446536Y119571D01*
X446699Y119908D01*
X446831Y120258D01*
X446932Y120618D01*
X447001Y120985D01*
X447038Y121357D01*
X447043Y121731D01*
X447015Y122104D01*
X447012Y278147D01*
X446965Y278536D01*
X446883Y278919D01*
X446769Y279293D01*
X446623Y279656D01*
X446445Y280005D01*
X446238Y280337D01*
X446003Y280649D01*
X445741Y280940D01*
X445455Y281207D01*
X445146Y281448D01*
X444818Y281661D01*
X444473Y281845D01*
X444113Y281998D01*
X443740Y282119D01*
X443359Y282208D01*
X442972Y282262D01*
X442581Y282283D01*
X442190Y282269D01*
X412926Y282269D01*
X410669Y282368D01*
X408430Y282663D01*
X406225Y283151D01*
X404071Y283831D01*
X401984Y284695D01*
X399980Y285738D01*
X398075Y286952D01*
X396283Y288327D01*
X394618Y289853D01*
X393092Y291518D01*
X391717Y293310D01*
X390503Y295215D01*
X389460Y297219D01*
X388596Y299305D01*
X387917Y301460D01*
X387428Y303665D01*
X387133Y305904D01*
X387034Y308161D01*
X386778Y400758D01*
X386865Y401357D01*
X387004Y401945D01*
X387194Y402519D01*
X387433Y403075D01*
X387719Y403607D01*
X388051Y404112D01*
X388426Y404587D01*
X388841Y405027D01*
X389292Y405429D01*
X389777Y405791D01*
X390291Y406108D01*
X390831Y406380D01*
X391393Y406604D01*
X391972Y406777D01*
X392564Y406900D01*
X393165Y406971D01*
X393769Y406989D01*
X394373Y406954D01*
X437541Y406890D01*
X438319Y406874D01*
X439095Y406926D01*
X439864Y407045D01*
X440620Y407231D01*
X441356Y407482D01*
X442068Y407796D01*
X442750Y408171D01*
X443396Y408604D01*
X444003Y409092D01*
X444564Y409630D01*
X445076Y410216D01*
X445536Y410844D01*
X445939Y411510D01*
X446282Y412208D01*
X446563Y412933D01*
X446780Y413681D01*
X446931Y414444D01*
X447015Y415217D01*
X447015Y456157D01*
X446939Y456853D01*
X446803Y457539D01*
X446607Y458212D01*
X446354Y458864D01*
X446045Y459492D01*
X445682Y460091D01*
X445268Y460656D01*
X444807Y461182D01*
X444301Y461666D01*
X443756Y462105D01*
X443174Y462494D01*
X442560Y462831D01*
X441920Y463113D01*
X441257Y463339D01*
X440577Y463506D01*
X439885Y463612D01*
X439187Y463659D01*
X438487Y463644D01*
X9040Y463257D01*
X8866Y463267D01*
X8692Y463261D01*
X8519Y463240D01*
X8349Y463204D01*
X8182Y463154D01*
X8020Y463089D01*
X7865Y463010D01*
X7717Y462918D01*
X7578Y462813D01*
X7448Y462697D01*
X7329Y462570D01*
X7221Y462433D01*
X7126Y462287D01*
X7044Y462133D01*
X6976Y461973D01*
X6922Y461808D01*
X6882Y461638D01*
X6857Y461466D01*
X6857Y131038D01*
M02*
