G04 EAGLE Gerber RS-274X export*
G75*
%MOMM*%
%FSLAX34Y34*%
%LPD*%
%INSilkscreen Top*%
%IPPOS*%
%AMOC8*
5,1,8,0,0,1.08239X$1,22.5*%
G01*
%ADD10C,0.152400*%
%ADD11C,0.127000*%
%ADD12C,0.228600*%
%ADD13C,0.050800*%
%ADD14C,0.609600*%
%ADD15C,0.101600*%
%ADD16C,0.203200*%
%ADD17C,0.025400*%


D10*
X33863Y289093D02*
X38378Y289093D01*
X38511Y289091D01*
X38643Y289085D01*
X38775Y289075D01*
X38907Y289062D01*
X39039Y289044D01*
X39169Y289023D01*
X39300Y288998D01*
X39429Y288969D01*
X39557Y288936D01*
X39685Y288900D01*
X39811Y288860D01*
X39936Y288816D01*
X40060Y288768D01*
X40182Y288717D01*
X40303Y288662D01*
X40422Y288604D01*
X40540Y288542D01*
X40655Y288477D01*
X40769Y288408D01*
X40880Y288337D01*
X40989Y288261D01*
X41096Y288183D01*
X41201Y288102D01*
X41303Y288017D01*
X41403Y287930D01*
X41500Y287840D01*
X41595Y287747D01*
X41686Y287651D01*
X41775Y287553D01*
X41861Y287452D01*
X41944Y287348D01*
X42024Y287242D01*
X42100Y287134D01*
X42174Y287024D01*
X42244Y286911D01*
X42311Y286797D01*
X42374Y286680D01*
X42434Y286562D01*
X42491Y286442D01*
X42544Y286320D01*
X42593Y286197D01*
X42639Y286073D01*
X42681Y285947D01*
X42719Y285820D01*
X42754Y285692D01*
X42785Y285563D01*
X42812Y285434D01*
X42835Y285303D01*
X42855Y285172D01*
X42870Y285040D01*
X42882Y284908D01*
X42890Y284776D01*
X42894Y284643D01*
X42894Y284511D01*
X42890Y284378D01*
X42882Y284246D01*
X42870Y284114D01*
X42855Y283982D01*
X42835Y283851D01*
X42812Y283720D01*
X42785Y283591D01*
X42754Y283462D01*
X42719Y283334D01*
X42681Y283207D01*
X42639Y283081D01*
X42593Y282957D01*
X42544Y282834D01*
X42491Y282712D01*
X42434Y282592D01*
X42374Y282474D01*
X42311Y282357D01*
X42244Y282243D01*
X42174Y282130D01*
X42100Y282020D01*
X42024Y281912D01*
X41944Y281806D01*
X41861Y281702D01*
X41775Y281601D01*
X41686Y281503D01*
X41595Y281407D01*
X41500Y281314D01*
X41403Y281224D01*
X41303Y281137D01*
X41201Y281052D01*
X41096Y280971D01*
X40989Y280893D01*
X40880Y280817D01*
X40769Y280746D01*
X40655Y280677D01*
X40540Y280612D01*
X40422Y280550D01*
X40303Y280492D01*
X40182Y280437D01*
X40060Y280386D01*
X39936Y280338D01*
X39811Y280294D01*
X39685Y280254D01*
X39557Y280218D01*
X39429Y280185D01*
X39300Y280156D01*
X39169Y280131D01*
X39039Y280110D01*
X38907Y280092D01*
X38775Y280079D01*
X38643Y280069D01*
X38511Y280063D01*
X38378Y280061D01*
X38378Y280062D02*
X33863Y280062D01*
X33863Y296318D01*
X38378Y296318D01*
X38378Y296317D02*
X38497Y296315D01*
X38617Y296309D01*
X38736Y296299D01*
X38854Y296285D01*
X38973Y296268D01*
X39090Y296246D01*
X39207Y296221D01*
X39322Y296191D01*
X39437Y296158D01*
X39551Y296121D01*
X39663Y296081D01*
X39774Y296036D01*
X39883Y295988D01*
X39991Y295937D01*
X40097Y295882D01*
X40201Y295823D01*
X40303Y295761D01*
X40403Y295696D01*
X40501Y295627D01*
X40597Y295555D01*
X40690Y295480D01*
X40780Y295403D01*
X40868Y295322D01*
X40953Y295238D01*
X41035Y295151D01*
X41115Y295062D01*
X41191Y294970D01*
X41265Y294876D01*
X41335Y294779D01*
X41402Y294681D01*
X41466Y294580D01*
X41526Y294476D01*
X41583Y294371D01*
X41636Y294264D01*
X41686Y294156D01*
X41732Y294046D01*
X41774Y293934D01*
X41813Y293821D01*
X41848Y293707D01*
X41879Y293592D01*
X41907Y293475D01*
X41930Y293358D01*
X41950Y293241D01*
X41966Y293122D01*
X41978Y293003D01*
X41986Y292884D01*
X41990Y292765D01*
X41990Y292645D01*
X41986Y292526D01*
X41978Y292407D01*
X41966Y292288D01*
X41950Y292169D01*
X41930Y292052D01*
X41907Y291935D01*
X41879Y291818D01*
X41848Y291703D01*
X41813Y291589D01*
X41774Y291476D01*
X41732Y291364D01*
X41686Y291254D01*
X41636Y291146D01*
X41583Y291039D01*
X41526Y290934D01*
X41466Y290830D01*
X41402Y290729D01*
X41335Y290631D01*
X41265Y290534D01*
X41191Y290440D01*
X41115Y290348D01*
X41035Y290259D01*
X40953Y290172D01*
X40868Y290088D01*
X40780Y290007D01*
X40690Y289930D01*
X40597Y289855D01*
X40501Y289783D01*
X40403Y289714D01*
X40303Y289649D01*
X40201Y289587D01*
X40097Y289528D01*
X39991Y289473D01*
X39883Y289422D01*
X39774Y289374D01*
X39663Y289329D01*
X39551Y289289D01*
X39437Y289252D01*
X39322Y289219D01*
X39207Y289189D01*
X39090Y289164D01*
X38973Y289142D01*
X38854Y289125D01*
X38736Y289111D01*
X38617Y289101D01*
X38497Y289095D01*
X38378Y289093D01*
X49283Y296318D02*
X49283Y280062D01*
X49283Y289093D02*
X58314Y289093D01*
X58314Y296318D02*
X58314Y280062D01*
X65574Y286383D02*
X76411Y286383D01*
X83151Y284577D02*
X83151Y291802D01*
X83150Y291802D02*
X83152Y291935D01*
X83158Y292067D01*
X83168Y292199D01*
X83181Y292331D01*
X83199Y292463D01*
X83220Y292593D01*
X83245Y292724D01*
X83274Y292853D01*
X83307Y292981D01*
X83343Y293109D01*
X83383Y293235D01*
X83427Y293360D01*
X83475Y293484D01*
X83526Y293606D01*
X83581Y293727D01*
X83639Y293846D01*
X83701Y293964D01*
X83766Y294079D01*
X83835Y294193D01*
X83906Y294304D01*
X83982Y294413D01*
X84060Y294520D01*
X84141Y294625D01*
X84226Y294727D01*
X84313Y294827D01*
X84403Y294924D01*
X84496Y295019D01*
X84592Y295110D01*
X84690Y295199D01*
X84791Y295285D01*
X84895Y295368D01*
X85001Y295448D01*
X85109Y295524D01*
X85219Y295598D01*
X85332Y295668D01*
X85446Y295735D01*
X85563Y295798D01*
X85681Y295858D01*
X85801Y295915D01*
X85923Y295968D01*
X86046Y296017D01*
X86170Y296063D01*
X86296Y296105D01*
X86423Y296143D01*
X86551Y296178D01*
X86680Y296209D01*
X86809Y296236D01*
X86940Y296259D01*
X87071Y296279D01*
X87203Y296294D01*
X87335Y296306D01*
X87467Y296314D01*
X87600Y296318D01*
X87732Y296318D01*
X87865Y296314D01*
X87997Y296306D01*
X88129Y296294D01*
X88261Y296279D01*
X88392Y296259D01*
X88523Y296236D01*
X88652Y296209D01*
X88781Y296178D01*
X88909Y296143D01*
X89036Y296105D01*
X89162Y296063D01*
X89286Y296017D01*
X89409Y295968D01*
X89531Y295915D01*
X89651Y295858D01*
X89769Y295798D01*
X89886Y295735D01*
X90000Y295668D01*
X90113Y295598D01*
X90223Y295524D01*
X90331Y295448D01*
X90437Y295368D01*
X90541Y295285D01*
X90642Y295199D01*
X90740Y295110D01*
X90836Y295019D01*
X90929Y294924D01*
X91019Y294827D01*
X91106Y294727D01*
X91191Y294625D01*
X91272Y294520D01*
X91350Y294413D01*
X91426Y294304D01*
X91497Y294193D01*
X91566Y294079D01*
X91631Y293964D01*
X91693Y293846D01*
X91751Y293727D01*
X91806Y293606D01*
X91857Y293484D01*
X91905Y293360D01*
X91949Y293235D01*
X91989Y293109D01*
X92025Y292981D01*
X92058Y292853D01*
X92087Y292724D01*
X92112Y292593D01*
X92133Y292463D01*
X92151Y292331D01*
X92164Y292199D01*
X92174Y292067D01*
X92180Y291935D01*
X92182Y291802D01*
X92182Y284577D01*
X92180Y284444D01*
X92174Y284312D01*
X92164Y284180D01*
X92151Y284048D01*
X92133Y283916D01*
X92112Y283786D01*
X92087Y283655D01*
X92058Y283526D01*
X92025Y283398D01*
X91989Y283270D01*
X91949Y283144D01*
X91905Y283019D01*
X91857Y282895D01*
X91806Y282773D01*
X91751Y282652D01*
X91693Y282533D01*
X91631Y282415D01*
X91566Y282300D01*
X91497Y282186D01*
X91426Y282075D01*
X91350Y281966D01*
X91272Y281859D01*
X91191Y281754D01*
X91106Y281652D01*
X91019Y281552D01*
X90929Y281455D01*
X90836Y281360D01*
X90740Y281269D01*
X90642Y281180D01*
X90541Y281094D01*
X90437Y281011D01*
X90331Y280931D01*
X90223Y280855D01*
X90113Y280781D01*
X90000Y280711D01*
X89886Y280644D01*
X89769Y280581D01*
X89651Y280521D01*
X89531Y280464D01*
X89409Y280411D01*
X89286Y280362D01*
X89162Y280316D01*
X89036Y280274D01*
X88909Y280236D01*
X88781Y280201D01*
X88652Y280170D01*
X88523Y280143D01*
X88392Y280120D01*
X88261Y280100D01*
X88129Y280085D01*
X87997Y280073D01*
X87865Y280065D01*
X87732Y280061D01*
X87600Y280061D01*
X87467Y280065D01*
X87335Y280073D01*
X87203Y280085D01*
X87071Y280100D01*
X86940Y280120D01*
X86809Y280143D01*
X86680Y280170D01*
X86551Y280201D01*
X86423Y280236D01*
X86296Y280274D01*
X86170Y280316D01*
X86046Y280362D01*
X85923Y280411D01*
X85801Y280464D01*
X85681Y280521D01*
X85563Y280581D01*
X85446Y280644D01*
X85332Y280711D01*
X85219Y280781D01*
X85109Y280855D01*
X85001Y280931D01*
X84895Y281011D01*
X84791Y281094D01*
X84690Y281180D01*
X84592Y281269D01*
X84496Y281360D01*
X84403Y281455D01*
X84313Y281552D01*
X84226Y281652D01*
X84141Y281754D01*
X84060Y281859D01*
X83982Y281966D01*
X83906Y282075D01*
X83835Y282186D01*
X83766Y282300D01*
X83701Y282415D01*
X83639Y282533D01*
X83581Y282652D01*
X83526Y282773D01*
X83475Y282895D01*
X83427Y283019D01*
X83383Y283144D01*
X83343Y283270D01*
X83307Y283398D01*
X83274Y283526D01*
X83245Y283655D01*
X83220Y283786D01*
X83199Y283916D01*
X83181Y284048D01*
X83168Y284180D01*
X83158Y284312D01*
X83152Y284444D01*
X83150Y284577D01*
X99164Y280062D02*
X99164Y290899D01*
X103679Y290899D01*
X103679Y290898D02*
X103783Y290896D01*
X103886Y290890D01*
X103990Y290880D01*
X104093Y290866D01*
X104195Y290848D01*
X104296Y290827D01*
X104397Y290801D01*
X104496Y290772D01*
X104595Y290739D01*
X104692Y290702D01*
X104787Y290661D01*
X104881Y290617D01*
X104973Y290569D01*
X105063Y290518D01*
X105152Y290463D01*
X105238Y290405D01*
X105321Y290343D01*
X105403Y290279D01*
X105481Y290211D01*
X105557Y290141D01*
X105631Y290068D01*
X105701Y289991D01*
X105769Y289913D01*
X105833Y289831D01*
X105895Y289748D01*
X105953Y289662D01*
X106008Y289573D01*
X106059Y289483D01*
X106107Y289391D01*
X106151Y289297D01*
X106192Y289202D01*
X106229Y289105D01*
X106262Y289006D01*
X106291Y288907D01*
X106317Y288806D01*
X106338Y288705D01*
X106356Y288603D01*
X106370Y288500D01*
X106380Y288396D01*
X106386Y288293D01*
X106388Y288189D01*
X106389Y288190D02*
X106389Y280062D01*
X113371Y284577D02*
X113371Y291802D01*
X113370Y291802D02*
X113372Y291935D01*
X113378Y292067D01*
X113388Y292199D01*
X113401Y292331D01*
X113419Y292463D01*
X113440Y292593D01*
X113465Y292724D01*
X113494Y292853D01*
X113527Y292981D01*
X113563Y293109D01*
X113603Y293235D01*
X113647Y293360D01*
X113695Y293484D01*
X113746Y293606D01*
X113801Y293727D01*
X113859Y293846D01*
X113921Y293964D01*
X113986Y294079D01*
X114055Y294193D01*
X114126Y294304D01*
X114202Y294413D01*
X114280Y294520D01*
X114361Y294625D01*
X114446Y294727D01*
X114533Y294827D01*
X114623Y294924D01*
X114716Y295019D01*
X114812Y295110D01*
X114910Y295199D01*
X115011Y295285D01*
X115115Y295368D01*
X115221Y295448D01*
X115329Y295524D01*
X115439Y295598D01*
X115552Y295668D01*
X115666Y295735D01*
X115783Y295798D01*
X115901Y295858D01*
X116021Y295915D01*
X116143Y295968D01*
X116266Y296017D01*
X116390Y296063D01*
X116516Y296105D01*
X116643Y296143D01*
X116771Y296178D01*
X116900Y296209D01*
X117029Y296236D01*
X117160Y296259D01*
X117291Y296279D01*
X117423Y296294D01*
X117555Y296306D01*
X117687Y296314D01*
X117820Y296318D01*
X117952Y296318D01*
X118085Y296314D01*
X118217Y296306D01*
X118349Y296294D01*
X118481Y296279D01*
X118612Y296259D01*
X118743Y296236D01*
X118872Y296209D01*
X119001Y296178D01*
X119129Y296143D01*
X119256Y296105D01*
X119382Y296063D01*
X119506Y296017D01*
X119629Y295968D01*
X119751Y295915D01*
X119871Y295858D01*
X119989Y295798D01*
X120106Y295735D01*
X120220Y295668D01*
X120333Y295598D01*
X120443Y295524D01*
X120551Y295448D01*
X120657Y295368D01*
X120761Y295285D01*
X120862Y295199D01*
X120960Y295110D01*
X121056Y295019D01*
X121149Y294924D01*
X121239Y294827D01*
X121326Y294727D01*
X121411Y294625D01*
X121492Y294520D01*
X121570Y294413D01*
X121646Y294304D01*
X121717Y294193D01*
X121786Y294079D01*
X121851Y293964D01*
X121913Y293846D01*
X121971Y293727D01*
X122026Y293606D01*
X122077Y293484D01*
X122125Y293360D01*
X122169Y293235D01*
X122209Y293109D01*
X122245Y292981D01*
X122278Y292853D01*
X122307Y292724D01*
X122332Y292593D01*
X122353Y292463D01*
X122371Y292331D01*
X122384Y292199D01*
X122394Y292067D01*
X122400Y291935D01*
X122402Y291802D01*
X122402Y284577D01*
X122400Y284444D01*
X122394Y284312D01*
X122384Y284180D01*
X122371Y284048D01*
X122353Y283916D01*
X122332Y283786D01*
X122307Y283655D01*
X122278Y283526D01*
X122245Y283398D01*
X122209Y283270D01*
X122169Y283144D01*
X122125Y283019D01*
X122077Y282895D01*
X122026Y282773D01*
X121971Y282652D01*
X121913Y282533D01*
X121851Y282415D01*
X121786Y282300D01*
X121717Y282186D01*
X121646Y282075D01*
X121570Y281966D01*
X121492Y281859D01*
X121411Y281754D01*
X121326Y281652D01*
X121239Y281552D01*
X121149Y281455D01*
X121056Y281360D01*
X120960Y281269D01*
X120862Y281180D01*
X120761Y281094D01*
X120657Y281011D01*
X120551Y280931D01*
X120443Y280855D01*
X120333Y280781D01*
X120220Y280711D01*
X120106Y280644D01*
X119989Y280581D01*
X119871Y280521D01*
X119751Y280464D01*
X119629Y280411D01*
X119506Y280362D01*
X119382Y280316D01*
X119256Y280274D01*
X119129Y280236D01*
X119001Y280201D01*
X118872Y280170D01*
X118743Y280143D01*
X118612Y280120D01*
X118481Y280100D01*
X118349Y280085D01*
X118217Y280073D01*
X118085Y280065D01*
X117952Y280061D01*
X117820Y280061D01*
X117687Y280065D01*
X117555Y280073D01*
X117423Y280085D01*
X117291Y280100D01*
X117160Y280120D01*
X117029Y280143D01*
X116900Y280170D01*
X116771Y280201D01*
X116643Y280236D01*
X116516Y280274D01*
X116390Y280316D01*
X116266Y280362D01*
X116143Y280411D01*
X116021Y280464D01*
X115901Y280521D01*
X115783Y280581D01*
X115666Y280644D01*
X115552Y280711D01*
X115439Y280781D01*
X115329Y280855D01*
X115221Y280931D01*
X115115Y281011D01*
X115011Y281094D01*
X114910Y281180D01*
X114812Y281269D01*
X114716Y281360D01*
X114623Y281455D01*
X114533Y281552D01*
X114446Y281652D01*
X114361Y281754D01*
X114280Y281859D01*
X114202Y281966D01*
X114126Y282075D01*
X114055Y282186D01*
X113986Y282300D01*
X113921Y282415D01*
X113859Y282533D01*
X113801Y282652D01*
X113746Y282773D01*
X113695Y282895D01*
X113647Y283019D01*
X113603Y283144D01*
X113563Y283270D01*
X113527Y283398D01*
X113494Y283526D01*
X113465Y283655D01*
X113440Y283786D01*
X113419Y283916D01*
X113401Y284048D01*
X113388Y284180D01*
X113378Y284312D01*
X113372Y284444D01*
X113370Y284577D01*
X129751Y280062D02*
X129751Y293608D01*
X129753Y293712D01*
X129759Y293815D01*
X129769Y293919D01*
X129783Y294022D01*
X129801Y294124D01*
X129822Y294225D01*
X129848Y294326D01*
X129877Y294425D01*
X129910Y294524D01*
X129947Y294621D01*
X129988Y294716D01*
X130032Y294810D01*
X130080Y294902D01*
X130131Y294992D01*
X130186Y295081D01*
X130244Y295167D01*
X130306Y295250D01*
X130370Y295332D01*
X130438Y295410D01*
X130508Y295486D01*
X130581Y295560D01*
X130658Y295630D01*
X130736Y295698D01*
X130818Y295762D01*
X130901Y295824D01*
X130987Y295882D01*
X131076Y295937D01*
X131166Y295988D01*
X131258Y296036D01*
X131352Y296080D01*
X131447Y296121D01*
X131544Y296158D01*
X131643Y296191D01*
X131742Y296220D01*
X131843Y296246D01*
X131944Y296267D01*
X132046Y296285D01*
X132149Y296299D01*
X132253Y296309D01*
X132356Y296315D01*
X132460Y296317D01*
X132460Y296318D02*
X133363Y296318D01*
X133363Y290899D02*
X127945Y290899D01*
X138327Y290899D02*
X138327Y280062D01*
X138327Y290899D02*
X143745Y290899D01*
X143745Y289093D01*
X151372Y280062D02*
X155888Y280062D01*
X151372Y280062D02*
X151271Y280064D01*
X151170Y280070D01*
X151069Y280079D01*
X150968Y280092D01*
X150868Y280109D01*
X150769Y280130D01*
X150671Y280154D01*
X150574Y280182D01*
X150477Y280214D01*
X150382Y280249D01*
X150289Y280288D01*
X150197Y280330D01*
X150106Y280376D01*
X150018Y280425D01*
X149931Y280477D01*
X149846Y280533D01*
X149763Y280591D01*
X149683Y280653D01*
X149605Y280718D01*
X149529Y280785D01*
X149456Y280855D01*
X149386Y280928D01*
X149319Y281004D01*
X149254Y281082D01*
X149192Y281162D01*
X149134Y281245D01*
X149078Y281330D01*
X149026Y281417D01*
X148977Y281505D01*
X148931Y281596D01*
X148889Y281688D01*
X148850Y281781D01*
X148815Y281876D01*
X148783Y281973D01*
X148755Y282070D01*
X148731Y282168D01*
X148710Y282267D01*
X148693Y282367D01*
X148680Y282468D01*
X148671Y282569D01*
X148665Y282670D01*
X148663Y282771D01*
X148663Y287286D01*
X148665Y287405D01*
X148671Y287525D01*
X148681Y287644D01*
X148695Y287762D01*
X148712Y287881D01*
X148734Y287998D01*
X148759Y288115D01*
X148789Y288230D01*
X148822Y288345D01*
X148859Y288459D01*
X148899Y288571D01*
X148944Y288682D01*
X148992Y288791D01*
X149043Y288899D01*
X149098Y289005D01*
X149157Y289109D01*
X149219Y289211D01*
X149284Y289311D01*
X149353Y289409D01*
X149425Y289505D01*
X149500Y289598D01*
X149577Y289688D01*
X149658Y289776D01*
X149742Y289861D01*
X149829Y289943D01*
X149918Y290023D01*
X150010Y290099D01*
X150104Y290173D01*
X150201Y290243D01*
X150299Y290310D01*
X150400Y290374D01*
X150504Y290434D01*
X150609Y290491D01*
X150716Y290544D01*
X150824Y290594D01*
X150934Y290640D01*
X151046Y290682D01*
X151159Y290721D01*
X151273Y290756D01*
X151388Y290787D01*
X151505Y290815D01*
X151622Y290838D01*
X151739Y290858D01*
X151858Y290874D01*
X151977Y290886D01*
X152096Y290894D01*
X152215Y290898D01*
X152335Y290898D01*
X152454Y290894D01*
X152573Y290886D01*
X152692Y290874D01*
X152811Y290858D01*
X152928Y290838D01*
X153045Y290815D01*
X153162Y290787D01*
X153277Y290756D01*
X153391Y290721D01*
X153504Y290682D01*
X153616Y290640D01*
X153726Y290594D01*
X153834Y290544D01*
X153941Y290491D01*
X154046Y290434D01*
X154150Y290374D01*
X154251Y290310D01*
X154349Y290243D01*
X154446Y290173D01*
X154540Y290099D01*
X154632Y290023D01*
X154721Y289943D01*
X154808Y289861D01*
X154892Y289776D01*
X154973Y289688D01*
X155050Y289598D01*
X155125Y289505D01*
X155197Y289409D01*
X155266Y289311D01*
X155331Y289211D01*
X155393Y289109D01*
X155452Y289005D01*
X155507Y288899D01*
X155558Y288791D01*
X155606Y288682D01*
X155651Y288571D01*
X155691Y288459D01*
X155728Y288345D01*
X155761Y288230D01*
X155791Y288115D01*
X155816Y287998D01*
X155838Y287881D01*
X155855Y287762D01*
X155869Y287644D01*
X155879Y287525D01*
X155885Y287405D01*
X155887Y287286D01*
X155888Y287286D02*
X155888Y285480D01*
X148663Y285480D01*
D11*
X23204Y405612D02*
X20240Y405612D01*
X23204Y405611D02*
X23293Y405613D01*
X23381Y405619D01*
X23469Y405629D01*
X23557Y405643D01*
X23644Y405661D01*
X23730Y405682D01*
X23815Y405708D01*
X23898Y405737D01*
X23981Y405770D01*
X24061Y405807D01*
X24140Y405847D01*
X24217Y405891D01*
X24293Y405938D01*
X24365Y405988D01*
X24436Y406042D01*
X24504Y406099D01*
X24570Y406159D01*
X24632Y406221D01*
X24692Y406287D01*
X24749Y406355D01*
X24803Y406426D01*
X24853Y406498D01*
X24900Y406573D01*
X24944Y406651D01*
X24984Y406730D01*
X25021Y406810D01*
X25054Y406893D01*
X25083Y406976D01*
X25109Y407061D01*
X25130Y407147D01*
X25148Y407234D01*
X25162Y407322D01*
X25172Y407410D01*
X25178Y407498D01*
X25180Y407587D01*
X25179Y407587D02*
X25179Y408575D01*
X25180Y408575D02*
X25178Y408661D01*
X25172Y408747D01*
X25163Y408833D01*
X25150Y408918D01*
X25133Y409003D01*
X25113Y409086D01*
X25089Y409169D01*
X25061Y409251D01*
X25030Y409331D01*
X24995Y409410D01*
X24957Y409487D01*
X24915Y409563D01*
X24871Y409637D01*
X24823Y409708D01*
X24772Y409778D01*
X24718Y409845D01*
X24661Y409910D01*
X24601Y409972D01*
X24539Y410032D01*
X24474Y410089D01*
X24407Y410143D01*
X24337Y410194D01*
X24266Y410242D01*
X24192Y410286D01*
X24116Y410328D01*
X24039Y410366D01*
X23960Y410401D01*
X23880Y410432D01*
X23798Y410460D01*
X23715Y410484D01*
X23632Y410504D01*
X23547Y410521D01*
X23462Y410534D01*
X23376Y410543D01*
X23290Y410549D01*
X23204Y410551D01*
X23204Y410550D02*
X20240Y410550D01*
X20240Y414502D01*
X25179Y414502D01*
X28891Y414502D02*
X31854Y405612D01*
X34817Y414502D01*
X172524Y412042D02*
X174006Y412042D01*
X174006Y407104D01*
X171043Y407104D01*
X171043Y407103D02*
X170957Y407105D01*
X170871Y407111D01*
X170785Y407120D01*
X170700Y407133D01*
X170615Y407150D01*
X170532Y407170D01*
X170449Y407194D01*
X170367Y407222D01*
X170287Y407253D01*
X170208Y407288D01*
X170131Y407326D01*
X170055Y407368D01*
X169981Y407412D01*
X169910Y407460D01*
X169840Y407511D01*
X169773Y407565D01*
X169708Y407622D01*
X169646Y407682D01*
X169586Y407744D01*
X169529Y407809D01*
X169475Y407876D01*
X169424Y407946D01*
X169376Y408017D01*
X169332Y408091D01*
X169290Y408167D01*
X169252Y408244D01*
X169217Y408323D01*
X169186Y408403D01*
X169158Y408485D01*
X169134Y408568D01*
X169114Y408651D01*
X169097Y408736D01*
X169084Y408821D01*
X169075Y408907D01*
X169069Y408993D01*
X169067Y409079D01*
X169067Y414018D01*
X169069Y414107D01*
X169075Y414195D01*
X169085Y414283D01*
X169099Y414371D01*
X169117Y414458D01*
X169138Y414544D01*
X169164Y414629D01*
X169193Y414712D01*
X169226Y414795D01*
X169263Y414875D01*
X169303Y414954D01*
X169347Y415031D01*
X169394Y415107D01*
X169444Y415179D01*
X169498Y415250D01*
X169555Y415318D01*
X169615Y415384D01*
X169677Y415446D01*
X169743Y415506D01*
X169811Y415563D01*
X169882Y415617D01*
X169954Y415667D01*
X170029Y415714D01*
X170107Y415758D01*
X170186Y415798D01*
X170266Y415835D01*
X170349Y415868D01*
X170432Y415897D01*
X170517Y415923D01*
X170603Y415944D01*
X170690Y415962D01*
X170778Y415976D01*
X170866Y415986D01*
X170954Y415992D01*
X171043Y415994D01*
X174006Y415994D01*
X178821Y415994D02*
X178821Y407104D01*
X183760Y407104D02*
X178821Y415994D01*
X183760Y415994D02*
X183760Y407104D01*
X188574Y407104D02*
X188574Y415994D01*
X191044Y415994D01*
X191044Y415993D02*
X191141Y415991D01*
X191238Y415985D01*
X191334Y415976D01*
X191430Y415963D01*
X191526Y415946D01*
X191620Y415925D01*
X191714Y415900D01*
X191807Y415872D01*
X191899Y415840D01*
X191989Y415805D01*
X192078Y415766D01*
X192165Y415724D01*
X192250Y415678D01*
X192334Y415629D01*
X192416Y415577D01*
X192495Y415521D01*
X192573Y415463D01*
X192647Y415401D01*
X192720Y415337D01*
X192790Y415270D01*
X192857Y415200D01*
X192921Y415127D01*
X192983Y415053D01*
X193041Y414975D01*
X193097Y414896D01*
X193149Y414814D01*
X193198Y414730D01*
X193244Y414645D01*
X193286Y414558D01*
X193325Y414469D01*
X193360Y414379D01*
X193392Y414287D01*
X193420Y414194D01*
X193445Y414100D01*
X193466Y414006D01*
X193483Y413910D01*
X193496Y413814D01*
X193505Y413718D01*
X193511Y413621D01*
X193513Y413524D01*
X193513Y409573D01*
X193511Y409476D01*
X193505Y409379D01*
X193496Y409283D01*
X193483Y409187D01*
X193466Y409091D01*
X193445Y408997D01*
X193420Y408903D01*
X193392Y408810D01*
X193360Y408718D01*
X193325Y408628D01*
X193286Y408539D01*
X193244Y408452D01*
X193198Y408367D01*
X193149Y408283D01*
X193097Y408201D01*
X193041Y408122D01*
X192983Y408044D01*
X192921Y407970D01*
X192857Y407897D01*
X192790Y407827D01*
X192720Y407760D01*
X192647Y407696D01*
X192573Y407634D01*
X192495Y407576D01*
X192416Y407520D01*
X192334Y407468D01*
X192250Y407419D01*
X192165Y407373D01*
X192078Y407331D01*
X191989Y407292D01*
X191899Y407257D01*
X191807Y407225D01*
X191714Y407197D01*
X191620Y407172D01*
X191526Y407151D01*
X191430Y407134D01*
X191334Y407121D01*
X191238Y407112D01*
X191141Y407106D01*
X191044Y407104D01*
X188574Y407104D01*
X161187Y110171D02*
X161187Y101281D01*
X161187Y110171D02*
X163656Y110171D01*
X163753Y110169D01*
X163850Y110163D01*
X163946Y110154D01*
X164042Y110141D01*
X164138Y110124D01*
X164232Y110103D01*
X164326Y110078D01*
X164419Y110050D01*
X164511Y110018D01*
X164601Y109983D01*
X164690Y109944D01*
X164777Y109902D01*
X164862Y109856D01*
X164946Y109807D01*
X165028Y109755D01*
X165107Y109699D01*
X165185Y109641D01*
X165259Y109579D01*
X165332Y109515D01*
X165402Y109448D01*
X165469Y109378D01*
X165533Y109305D01*
X165595Y109231D01*
X165653Y109153D01*
X165709Y109074D01*
X165761Y108992D01*
X165810Y108908D01*
X165856Y108823D01*
X165898Y108736D01*
X165937Y108647D01*
X165972Y108557D01*
X166004Y108465D01*
X166032Y108372D01*
X166057Y108278D01*
X166078Y108184D01*
X166095Y108088D01*
X166108Y107992D01*
X166117Y107896D01*
X166123Y107799D01*
X166125Y107702D01*
X166126Y107702D02*
X166126Y103751D01*
X166125Y103751D02*
X166123Y103654D01*
X166117Y103557D01*
X166108Y103461D01*
X166095Y103365D01*
X166078Y103269D01*
X166057Y103175D01*
X166032Y103081D01*
X166004Y102988D01*
X165972Y102896D01*
X165937Y102806D01*
X165898Y102717D01*
X165856Y102630D01*
X165810Y102545D01*
X165761Y102461D01*
X165709Y102379D01*
X165653Y102300D01*
X165595Y102222D01*
X165533Y102148D01*
X165469Y102075D01*
X165402Y102005D01*
X165332Y101938D01*
X165259Y101874D01*
X165185Y101812D01*
X165107Y101754D01*
X165028Y101698D01*
X164946Y101646D01*
X164862Y101597D01*
X164777Y101551D01*
X164690Y101509D01*
X164601Y101470D01*
X164511Y101435D01*
X164419Y101403D01*
X164326Y101375D01*
X164232Y101350D01*
X164138Y101329D01*
X164042Y101312D01*
X163946Y101299D01*
X163850Y101290D01*
X163753Y101284D01*
X163656Y101282D01*
X163656Y101281D02*
X161187Y101281D01*
X170142Y101281D02*
X173105Y110171D01*
X176069Y101281D01*
X175328Y103504D02*
X170883Y103504D01*
X180085Y101281D02*
X180085Y110171D01*
X185023Y101281D01*
X185023Y110171D01*
X193295Y106220D02*
X194777Y106220D01*
X194777Y101281D01*
X191814Y101281D01*
X191728Y101283D01*
X191642Y101289D01*
X191556Y101298D01*
X191471Y101311D01*
X191386Y101328D01*
X191303Y101348D01*
X191220Y101372D01*
X191138Y101400D01*
X191058Y101431D01*
X190979Y101466D01*
X190902Y101504D01*
X190826Y101546D01*
X190752Y101590D01*
X190681Y101638D01*
X190611Y101689D01*
X190544Y101743D01*
X190479Y101800D01*
X190417Y101860D01*
X190357Y101922D01*
X190300Y101987D01*
X190246Y102054D01*
X190195Y102124D01*
X190147Y102195D01*
X190103Y102269D01*
X190061Y102345D01*
X190023Y102422D01*
X189988Y102501D01*
X189957Y102581D01*
X189929Y102663D01*
X189905Y102746D01*
X189885Y102829D01*
X189868Y102914D01*
X189855Y102999D01*
X189846Y103085D01*
X189840Y103171D01*
X189838Y103257D01*
X189838Y108196D01*
X189840Y108285D01*
X189846Y108373D01*
X189856Y108461D01*
X189870Y108549D01*
X189888Y108636D01*
X189909Y108722D01*
X189935Y108807D01*
X189964Y108890D01*
X189997Y108973D01*
X190034Y109053D01*
X190074Y109132D01*
X190118Y109209D01*
X190165Y109285D01*
X190215Y109357D01*
X190269Y109428D01*
X190326Y109496D01*
X190386Y109562D01*
X190448Y109624D01*
X190514Y109684D01*
X190582Y109741D01*
X190653Y109795D01*
X190725Y109845D01*
X190800Y109892D01*
X190878Y109936D01*
X190957Y109976D01*
X191037Y110013D01*
X191120Y110046D01*
X191203Y110075D01*
X191288Y110101D01*
X191374Y110122D01*
X191461Y110140D01*
X191549Y110154D01*
X191637Y110164D01*
X191725Y110170D01*
X191814Y110172D01*
X191814Y110171D02*
X194777Y110171D01*
X199615Y101281D02*
X203566Y101281D01*
X199615Y101281D02*
X199615Y110171D01*
X203566Y110171D01*
X202578Y106220D02*
X199615Y106220D01*
X207592Y110171D02*
X207592Y101281D01*
X207592Y110171D02*
X210061Y110171D01*
X210159Y110169D01*
X210257Y110163D01*
X210355Y110153D01*
X210452Y110140D01*
X210549Y110122D01*
X210645Y110101D01*
X210739Y110076D01*
X210833Y110047D01*
X210926Y110015D01*
X211017Y109978D01*
X211107Y109939D01*
X211195Y109895D01*
X211281Y109848D01*
X211366Y109798D01*
X211448Y109745D01*
X211528Y109688D01*
X211606Y109628D01*
X211681Y109565D01*
X211754Y109499D01*
X211824Y109430D01*
X211891Y109359D01*
X211956Y109285D01*
X212017Y109208D01*
X212076Y109129D01*
X212131Y109048D01*
X212183Y108965D01*
X212231Y108879D01*
X212276Y108792D01*
X212318Y108703D01*
X212356Y108613D01*
X212390Y108521D01*
X212421Y108428D01*
X212448Y108333D01*
X212471Y108238D01*
X212491Y108141D01*
X212506Y108045D01*
X212518Y107947D01*
X212526Y107849D01*
X212530Y107751D01*
X212530Y107653D01*
X212526Y107555D01*
X212518Y107457D01*
X212506Y107359D01*
X212491Y107263D01*
X212471Y107166D01*
X212448Y107071D01*
X212421Y106976D01*
X212390Y106883D01*
X212356Y106791D01*
X212318Y106701D01*
X212276Y106612D01*
X212231Y106525D01*
X212183Y106439D01*
X212131Y106356D01*
X212076Y106275D01*
X212017Y106196D01*
X211956Y106119D01*
X211891Y106045D01*
X211824Y105974D01*
X211754Y105905D01*
X211681Y105839D01*
X211606Y105776D01*
X211528Y105716D01*
X211448Y105659D01*
X211366Y105606D01*
X211281Y105556D01*
X211195Y105509D01*
X211107Y105465D01*
X211017Y105426D01*
X210926Y105389D01*
X210833Y105357D01*
X210739Y105328D01*
X210645Y105303D01*
X210549Y105282D01*
X210452Y105264D01*
X210355Y105251D01*
X210257Y105241D01*
X210159Y105235D01*
X210061Y105233D01*
X207592Y105233D01*
X210555Y105233D02*
X212531Y101281D01*
X221842Y101281D02*
X221842Y110171D01*
X221842Y106220D02*
X226781Y106220D01*
X226781Y110171D02*
X226781Y101281D01*
X231931Y101281D02*
X231931Y110171D01*
X230944Y101281D02*
X232919Y101281D01*
X232919Y110171D02*
X230944Y110171D01*
X240539Y106220D02*
X242021Y106220D01*
X242021Y101281D01*
X239057Y101281D01*
X238971Y101283D01*
X238885Y101289D01*
X238799Y101298D01*
X238714Y101311D01*
X238629Y101328D01*
X238546Y101348D01*
X238463Y101372D01*
X238381Y101400D01*
X238301Y101431D01*
X238222Y101466D01*
X238145Y101504D01*
X238069Y101546D01*
X237995Y101590D01*
X237924Y101638D01*
X237854Y101689D01*
X237787Y101743D01*
X237722Y101800D01*
X237660Y101860D01*
X237600Y101922D01*
X237543Y101987D01*
X237489Y102054D01*
X237438Y102124D01*
X237390Y102195D01*
X237346Y102269D01*
X237304Y102345D01*
X237266Y102422D01*
X237231Y102501D01*
X237200Y102581D01*
X237172Y102663D01*
X237148Y102746D01*
X237128Y102829D01*
X237111Y102914D01*
X237098Y102999D01*
X237089Y103085D01*
X237083Y103171D01*
X237081Y103257D01*
X237082Y103257D02*
X237082Y108196D01*
X237081Y108196D02*
X237083Y108285D01*
X237089Y108373D01*
X237099Y108461D01*
X237113Y108549D01*
X237131Y108636D01*
X237152Y108722D01*
X237178Y108807D01*
X237207Y108890D01*
X237240Y108973D01*
X237277Y109053D01*
X237317Y109132D01*
X237361Y109209D01*
X237408Y109285D01*
X237458Y109357D01*
X237512Y109428D01*
X237569Y109496D01*
X237629Y109562D01*
X237691Y109624D01*
X237757Y109684D01*
X237825Y109741D01*
X237896Y109795D01*
X237968Y109845D01*
X238043Y109892D01*
X238121Y109936D01*
X238200Y109976D01*
X238280Y110013D01*
X238363Y110046D01*
X238446Y110075D01*
X238531Y110101D01*
X238617Y110122D01*
X238704Y110140D01*
X238792Y110154D01*
X238880Y110164D01*
X238968Y110170D01*
X239057Y110172D01*
X239057Y110171D02*
X242021Y110171D01*
X246835Y110171D02*
X246835Y101281D01*
X246835Y106220D02*
X251774Y106220D01*
X251774Y110171D02*
X251774Y101281D01*
X263630Y101281D02*
X260667Y110171D01*
X266594Y110171D02*
X263630Y101281D01*
X270305Y103751D02*
X270305Y107702D01*
X270307Y107800D01*
X270313Y107898D01*
X270323Y107996D01*
X270336Y108093D01*
X270354Y108190D01*
X270375Y108286D01*
X270400Y108380D01*
X270429Y108474D01*
X270461Y108567D01*
X270498Y108658D01*
X270537Y108748D01*
X270581Y108836D01*
X270628Y108922D01*
X270678Y109007D01*
X270731Y109089D01*
X270788Y109169D01*
X270848Y109247D01*
X270911Y109322D01*
X270977Y109395D01*
X271046Y109465D01*
X271117Y109532D01*
X271191Y109597D01*
X271268Y109658D01*
X271347Y109717D01*
X271428Y109772D01*
X271511Y109824D01*
X271597Y109872D01*
X271684Y109917D01*
X271773Y109959D01*
X271863Y109997D01*
X271955Y110031D01*
X272048Y110062D01*
X272143Y110089D01*
X272238Y110112D01*
X272335Y110132D01*
X272431Y110147D01*
X272529Y110159D01*
X272627Y110167D01*
X272725Y110171D01*
X272823Y110171D01*
X272921Y110167D01*
X273019Y110159D01*
X273117Y110147D01*
X273213Y110132D01*
X273310Y110112D01*
X273405Y110089D01*
X273500Y110062D01*
X273593Y110031D01*
X273685Y109997D01*
X273775Y109959D01*
X273864Y109917D01*
X273951Y109872D01*
X274037Y109824D01*
X274120Y109772D01*
X274201Y109717D01*
X274280Y109658D01*
X274357Y109597D01*
X274431Y109532D01*
X274502Y109465D01*
X274571Y109395D01*
X274637Y109322D01*
X274700Y109247D01*
X274760Y109169D01*
X274817Y109089D01*
X274870Y109007D01*
X274920Y108922D01*
X274967Y108836D01*
X275011Y108748D01*
X275050Y108658D01*
X275087Y108567D01*
X275119Y108474D01*
X275148Y108380D01*
X275173Y108286D01*
X275194Y108190D01*
X275212Y108093D01*
X275225Y107996D01*
X275235Y107898D01*
X275241Y107800D01*
X275243Y107702D01*
X275244Y107702D02*
X275244Y103751D01*
X275243Y103751D02*
X275241Y103653D01*
X275235Y103555D01*
X275225Y103457D01*
X275212Y103360D01*
X275194Y103263D01*
X275173Y103167D01*
X275148Y103073D01*
X275119Y102979D01*
X275087Y102886D01*
X275050Y102795D01*
X275011Y102705D01*
X274967Y102617D01*
X274920Y102531D01*
X274870Y102446D01*
X274817Y102364D01*
X274760Y102284D01*
X274700Y102206D01*
X274637Y102131D01*
X274571Y102058D01*
X274502Y101988D01*
X274431Y101921D01*
X274357Y101856D01*
X274280Y101795D01*
X274201Y101736D01*
X274120Y101681D01*
X274037Y101629D01*
X273951Y101581D01*
X273864Y101536D01*
X273775Y101494D01*
X273685Y101456D01*
X273593Y101422D01*
X273500Y101391D01*
X273405Y101364D01*
X273310Y101341D01*
X273213Y101321D01*
X273117Y101306D01*
X273019Y101294D01*
X272921Y101286D01*
X272823Y101282D01*
X272725Y101282D01*
X272627Y101286D01*
X272529Y101294D01*
X272431Y101306D01*
X272335Y101321D01*
X272238Y101341D01*
X272143Y101364D01*
X272048Y101391D01*
X271955Y101422D01*
X271863Y101456D01*
X271773Y101494D01*
X271684Y101536D01*
X271597Y101581D01*
X271511Y101629D01*
X271428Y101681D01*
X271347Y101736D01*
X271268Y101795D01*
X271191Y101856D01*
X271117Y101921D01*
X271046Y101988D01*
X270977Y102058D01*
X270911Y102131D01*
X270848Y102206D01*
X270788Y102284D01*
X270731Y102364D01*
X270678Y102446D01*
X270628Y102531D01*
X270581Y102617D01*
X270537Y102705D01*
X270498Y102795D01*
X270461Y102886D01*
X270429Y102979D01*
X270400Y103073D01*
X270375Y103167D01*
X270354Y103263D01*
X270336Y103360D01*
X270323Y103457D01*
X270313Y103555D01*
X270307Y103653D01*
X270305Y103751D01*
X279777Y101281D02*
X279777Y110171D01*
X279777Y101281D02*
X283728Y101281D01*
X289234Y101281D02*
X289234Y110171D01*
X291703Y110171D02*
X286764Y110171D01*
X297768Y110171D02*
X294805Y101281D01*
X300731Y101281D02*
X297768Y110171D01*
X299990Y103504D02*
X295545Y103504D01*
X308204Y106220D02*
X309686Y106220D01*
X309686Y101281D01*
X306723Y101281D01*
X306637Y101283D01*
X306551Y101289D01*
X306465Y101298D01*
X306380Y101311D01*
X306295Y101328D01*
X306212Y101348D01*
X306129Y101372D01*
X306047Y101400D01*
X305967Y101431D01*
X305888Y101466D01*
X305811Y101504D01*
X305735Y101546D01*
X305661Y101590D01*
X305590Y101638D01*
X305520Y101689D01*
X305453Y101743D01*
X305388Y101800D01*
X305326Y101860D01*
X305266Y101922D01*
X305209Y101987D01*
X305155Y102054D01*
X305104Y102124D01*
X305056Y102195D01*
X305012Y102269D01*
X304970Y102345D01*
X304932Y102422D01*
X304897Y102501D01*
X304866Y102581D01*
X304838Y102663D01*
X304814Y102746D01*
X304794Y102829D01*
X304777Y102914D01*
X304764Y102999D01*
X304755Y103085D01*
X304749Y103171D01*
X304747Y103257D01*
X304747Y108196D01*
X304749Y108285D01*
X304755Y108373D01*
X304765Y108461D01*
X304779Y108549D01*
X304797Y108636D01*
X304818Y108722D01*
X304844Y108807D01*
X304873Y108890D01*
X304906Y108973D01*
X304943Y109053D01*
X304983Y109132D01*
X305027Y109209D01*
X305074Y109285D01*
X305124Y109357D01*
X305178Y109428D01*
X305235Y109496D01*
X305295Y109562D01*
X305357Y109624D01*
X305423Y109684D01*
X305491Y109741D01*
X305562Y109795D01*
X305634Y109845D01*
X305709Y109892D01*
X305787Y109936D01*
X305866Y109976D01*
X305946Y110013D01*
X306029Y110046D01*
X306112Y110075D01*
X306197Y110101D01*
X306283Y110122D01*
X306370Y110140D01*
X306458Y110154D01*
X306546Y110164D01*
X306634Y110170D01*
X306723Y110172D01*
X306723Y110171D02*
X309686Y110171D01*
X314524Y101281D02*
X318475Y101281D01*
X314524Y101281D02*
X314524Y110171D01*
X318475Y110171D01*
X317487Y106220D02*
X314524Y106220D01*
X314435Y58062D02*
X314435Y49172D01*
X318386Y49172D01*
X326971Y55839D02*
X326969Y55931D01*
X326963Y56023D01*
X326954Y56114D01*
X326941Y56205D01*
X326924Y56295D01*
X326903Y56385D01*
X326879Y56473D01*
X326851Y56561D01*
X326819Y56647D01*
X326784Y56732D01*
X326745Y56815D01*
X326703Y56897D01*
X326658Y56977D01*
X326609Y57055D01*
X326557Y57131D01*
X326502Y57204D01*
X326444Y57276D01*
X326384Y57345D01*
X326320Y57411D01*
X326254Y57475D01*
X326185Y57535D01*
X326113Y57593D01*
X326040Y57648D01*
X325964Y57700D01*
X325886Y57749D01*
X325806Y57794D01*
X325724Y57836D01*
X325641Y57875D01*
X325556Y57910D01*
X325470Y57942D01*
X325382Y57970D01*
X325294Y57994D01*
X325204Y58015D01*
X325114Y58032D01*
X325023Y58045D01*
X324932Y58054D01*
X324840Y58060D01*
X324748Y58062D01*
X324748Y58061D02*
X324642Y58059D01*
X324537Y58053D01*
X324432Y58043D01*
X324327Y58030D01*
X324223Y58012D01*
X324120Y57991D01*
X324017Y57966D01*
X323915Y57937D01*
X323815Y57904D01*
X323716Y57868D01*
X323618Y57828D01*
X323522Y57784D01*
X323427Y57737D01*
X323335Y57687D01*
X323244Y57633D01*
X323155Y57575D01*
X323069Y57515D01*
X322985Y57451D01*
X322903Y57385D01*
X322823Y57315D01*
X322747Y57242D01*
X322673Y57167D01*
X322602Y57089D01*
X322534Y57008D01*
X322468Y56925D01*
X322406Y56839D01*
X322348Y56752D01*
X322292Y56662D01*
X322240Y56570D01*
X322191Y56476D01*
X322146Y56381D01*
X322104Y56284D01*
X322066Y56185D01*
X322032Y56086D01*
X326230Y54110D02*
X326299Y54179D01*
X326365Y54249D01*
X326428Y54323D01*
X326487Y54399D01*
X326544Y54477D01*
X326598Y54557D01*
X326648Y54640D01*
X326695Y54724D01*
X326738Y54811D01*
X326778Y54899D01*
X326814Y54988D01*
X326847Y55079D01*
X326876Y55171D01*
X326901Y55265D01*
X326922Y55359D01*
X326940Y55454D01*
X326953Y55550D01*
X326963Y55646D01*
X326969Y55742D01*
X326971Y55839D01*
X326230Y54111D02*
X322032Y49172D01*
X326971Y49172D01*
X218820Y49552D02*
X218820Y58442D01*
X218820Y49552D02*
X222771Y49552D01*
X166833Y48661D02*
X166833Y57551D01*
X171772Y48661D01*
X171772Y57551D01*
D12*
X31908Y112792D02*
X31906Y112910D01*
X31900Y113029D01*
X31891Y113147D01*
X31877Y113265D01*
X31860Y113382D01*
X31838Y113498D01*
X31813Y113614D01*
X31785Y113729D01*
X31752Y113843D01*
X31716Y113956D01*
X31676Y114067D01*
X31632Y114177D01*
X31585Y114286D01*
X31535Y114393D01*
X31481Y114498D01*
X31423Y114602D01*
X31362Y114704D01*
X31298Y114803D01*
X31231Y114901D01*
X31160Y114996D01*
X31086Y115089D01*
X31010Y115179D01*
X30930Y115267D01*
X30848Y115352D01*
X30763Y115434D01*
X30675Y115514D01*
X30585Y115590D01*
X30492Y115664D01*
X30397Y115735D01*
X30299Y115802D01*
X30200Y115866D01*
X30098Y115927D01*
X29994Y115985D01*
X29889Y116039D01*
X29782Y116089D01*
X29673Y116136D01*
X29563Y116180D01*
X29452Y116220D01*
X29339Y116256D01*
X29225Y116289D01*
X29110Y116317D01*
X28994Y116342D01*
X28878Y116364D01*
X28761Y116381D01*
X28643Y116395D01*
X28525Y116404D01*
X28406Y116410D01*
X28288Y116412D01*
X28288Y116411D02*
X28155Y116409D01*
X28022Y116403D01*
X27890Y116394D01*
X27758Y116381D01*
X27626Y116364D01*
X27494Y116343D01*
X27364Y116318D01*
X27234Y116290D01*
X27105Y116258D01*
X26977Y116222D01*
X26850Y116183D01*
X26724Y116140D01*
X26600Y116094D01*
X26477Y116044D01*
X26355Y115990D01*
X26235Y115933D01*
X26116Y115873D01*
X26000Y115809D01*
X25885Y115742D01*
X25772Y115672D01*
X25662Y115598D01*
X25553Y115522D01*
X25447Y115442D01*
X25343Y115359D01*
X25241Y115274D01*
X25142Y115185D01*
X25045Y115094D01*
X24951Y115000D01*
X24860Y114903D01*
X24772Y114804D01*
X24686Y114702D01*
X24604Y114598D01*
X24524Y114491D01*
X24448Y114383D01*
X24374Y114272D01*
X24304Y114159D01*
X24237Y114044D01*
X24174Y113928D01*
X24113Y113809D01*
X24057Y113689D01*
X24003Y113567D01*
X23953Y113444D01*
X23907Y113320D01*
X23864Y113194D01*
X30701Y109977D02*
X30788Y110061D01*
X30871Y110149D01*
X30952Y110239D01*
X31030Y110332D01*
X31106Y110427D01*
X31178Y110524D01*
X31247Y110623D01*
X31313Y110725D01*
X31376Y110828D01*
X31435Y110934D01*
X31491Y111041D01*
X31544Y111150D01*
X31594Y111260D01*
X31640Y111372D01*
X31682Y111486D01*
X31721Y111601D01*
X31756Y111716D01*
X31788Y111833D01*
X31816Y111951D01*
X31840Y112070D01*
X31861Y112189D01*
X31878Y112309D01*
X31891Y112429D01*
X31900Y112550D01*
X31906Y112671D01*
X31908Y112792D01*
X30701Y109977D02*
X23864Y101933D01*
X31907Y101933D01*
X38730Y101933D02*
X42751Y101933D01*
X42876Y101935D01*
X43001Y101941D01*
X43126Y101950D01*
X43250Y101964D01*
X43374Y101982D01*
X43497Y102003D01*
X43620Y102028D01*
X43742Y102057D01*
X43862Y102090D01*
X43982Y102126D01*
X44100Y102166D01*
X44218Y102210D01*
X44333Y102257D01*
X44448Y102308D01*
X44560Y102363D01*
X44671Y102421D01*
X44780Y102482D01*
X44887Y102547D01*
X44992Y102615D01*
X45095Y102686D01*
X45195Y102761D01*
X45293Y102839D01*
X45389Y102919D01*
X45482Y103003D01*
X45573Y103089D01*
X45661Y103178D01*
X45746Y103270D01*
X45828Y103364D01*
X45907Y103461D01*
X45983Y103561D01*
X46056Y103662D01*
X46125Y103766D01*
X46192Y103872D01*
X46255Y103980D01*
X46315Y104090D01*
X46371Y104202D01*
X46424Y104315D01*
X46473Y104430D01*
X46518Y104547D01*
X46560Y104665D01*
X46599Y104784D01*
X46633Y104904D01*
X46664Y105025D01*
X46691Y105147D01*
X46714Y105270D01*
X46734Y105394D01*
X46749Y105518D01*
X46761Y105643D01*
X46769Y105767D01*
X46773Y105892D01*
X46773Y106018D01*
X46769Y106143D01*
X46761Y106267D01*
X46749Y106392D01*
X46734Y106516D01*
X46714Y106640D01*
X46691Y106763D01*
X46664Y106885D01*
X46633Y107006D01*
X46599Y107126D01*
X46560Y107245D01*
X46518Y107363D01*
X46473Y107480D01*
X46424Y107595D01*
X46371Y107708D01*
X46315Y107820D01*
X46255Y107930D01*
X46192Y108038D01*
X46125Y108144D01*
X46056Y108248D01*
X45983Y108349D01*
X45907Y108449D01*
X45828Y108546D01*
X45746Y108640D01*
X45661Y108732D01*
X45573Y108821D01*
X45482Y108907D01*
X45389Y108991D01*
X45293Y109071D01*
X45195Y109149D01*
X45095Y109224D01*
X44992Y109295D01*
X44887Y109363D01*
X44780Y109428D01*
X44671Y109489D01*
X44560Y109547D01*
X44448Y109602D01*
X44333Y109653D01*
X44218Y109700D01*
X44100Y109744D01*
X43982Y109784D01*
X43862Y109820D01*
X43742Y109853D01*
X43620Y109882D01*
X43497Y109907D01*
X43374Y109928D01*
X43250Y109946D01*
X43126Y109960D01*
X43001Y109969D01*
X42876Y109975D01*
X42751Y109977D01*
X43556Y116411D02*
X38730Y116411D01*
X43556Y116411D02*
X43668Y116409D01*
X43780Y116403D01*
X43892Y116393D01*
X44004Y116380D01*
X44115Y116362D01*
X44225Y116341D01*
X44334Y116315D01*
X44443Y116286D01*
X44550Y116254D01*
X44656Y116217D01*
X44761Y116177D01*
X44864Y116133D01*
X44966Y116085D01*
X45066Y116034D01*
X45165Y115980D01*
X45261Y115922D01*
X45355Y115861D01*
X45447Y115797D01*
X45537Y115729D01*
X45624Y115658D01*
X45709Y115585D01*
X45791Y115508D01*
X45870Y115429D01*
X45947Y115347D01*
X46020Y115262D01*
X46091Y115175D01*
X46159Y115085D01*
X46223Y114993D01*
X46284Y114899D01*
X46342Y114802D01*
X46396Y114704D01*
X46447Y114604D01*
X46495Y114502D01*
X46539Y114399D01*
X46579Y114294D01*
X46616Y114188D01*
X46648Y114081D01*
X46677Y113972D01*
X46703Y113863D01*
X46724Y113753D01*
X46742Y113642D01*
X46755Y113530D01*
X46765Y113418D01*
X46771Y113306D01*
X46773Y113194D01*
X46771Y113082D01*
X46765Y112970D01*
X46755Y112858D01*
X46742Y112746D01*
X46724Y112635D01*
X46703Y112525D01*
X46677Y112416D01*
X46648Y112307D01*
X46616Y112200D01*
X46579Y112094D01*
X46539Y111989D01*
X46495Y111886D01*
X46447Y111784D01*
X46396Y111684D01*
X46342Y111585D01*
X46284Y111489D01*
X46223Y111395D01*
X46159Y111303D01*
X46091Y111213D01*
X46020Y111126D01*
X45947Y111041D01*
X45870Y110959D01*
X45791Y110880D01*
X45709Y110803D01*
X45624Y110730D01*
X45537Y110659D01*
X45447Y110591D01*
X45355Y110527D01*
X45261Y110466D01*
X45164Y110408D01*
X45066Y110354D01*
X44966Y110303D01*
X44864Y110255D01*
X44761Y110211D01*
X44656Y110171D01*
X44550Y110134D01*
X44443Y110102D01*
X44334Y110073D01*
X44225Y110047D01*
X44115Y110026D01*
X44004Y110008D01*
X43892Y109995D01*
X43780Y109985D01*
X43668Y109979D01*
X43556Y109977D01*
X40338Y109977D01*
X53595Y109172D02*
X53598Y109457D01*
X53609Y109741D01*
X53626Y110026D01*
X53649Y110310D01*
X53680Y110593D01*
X53717Y110875D01*
X53761Y111157D01*
X53812Y111437D01*
X53869Y111716D01*
X53933Y111993D01*
X54004Y112269D01*
X54081Y112543D01*
X54165Y112816D01*
X54255Y113086D01*
X54352Y113354D01*
X54455Y113619D01*
X54564Y113882D01*
X54680Y114143D01*
X54802Y114400D01*
X54839Y114502D01*
X54880Y114603D01*
X54924Y114702D01*
X54972Y114799D01*
X55024Y114895D01*
X55079Y114989D01*
X55137Y115080D01*
X55199Y115169D01*
X55264Y115257D01*
X55332Y115341D01*
X55403Y115423D01*
X55477Y115503D01*
X55553Y115579D01*
X55633Y115653D01*
X55715Y115724D01*
X55800Y115792D01*
X55887Y115857D01*
X55977Y115918D01*
X56068Y115976D01*
X56162Y116031D01*
X56258Y116082D01*
X56355Y116130D01*
X56454Y116175D01*
X56555Y116215D01*
X56657Y116252D01*
X56761Y116285D01*
X56865Y116314D01*
X56971Y116340D01*
X57077Y116362D01*
X57184Y116379D01*
X57292Y116393D01*
X57400Y116403D01*
X57508Y116409D01*
X57617Y116411D01*
X57726Y116409D01*
X57834Y116403D01*
X57942Y116393D01*
X58050Y116379D01*
X58157Y116362D01*
X58263Y116340D01*
X58369Y116314D01*
X58473Y116285D01*
X58577Y116252D01*
X58679Y116215D01*
X58780Y116175D01*
X58879Y116130D01*
X58976Y116082D01*
X59072Y116031D01*
X59166Y115976D01*
X59257Y115918D01*
X59347Y115857D01*
X59434Y115792D01*
X59519Y115724D01*
X59601Y115653D01*
X59681Y115579D01*
X59757Y115503D01*
X59831Y115423D01*
X59902Y115341D01*
X59970Y115256D01*
X60035Y115169D01*
X60097Y115080D01*
X60155Y114988D01*
X60210Y114895D01*
X60262Y114799D01*
X60310Y114702D01*
X60354Y114603D01*
X60395Y114502D01*
X60432Y114400D01*
X60554Y114143D01*
X60670Y113882D01*
X60779Y113619D01*
X60882Y113354D01*
X60979Y113086D01*
X61069Y112816D01*
X61153Y112543D01*
X61230Y112269D01*
X61301Y111993D01*
X61365Y111716D01*
X61422Y111437D01*
X61473Y111157D01*
X61517Y110875D01*
X61554Y110593D01*
X61585Y110310D01*
X61608Y110026D01*
X61625Y109741D01*
X61636Y109457D01*
X61639Y109172D01*
X53595Y109172D02*
X53598Y108887D01*
X53609Y108603D01*
X53626Y108318D01*
X53649Y108034D01*
X53680Y107751D01*
X53717Y107469D01*
X53761Y107187D01*
X53812Y106907D01*
X53869Y106628D01*
X53933Y106351D01*
X54004Y106075D01*
X54081Y105801D01*
X54165Y105528D01*
X54255Y105258D01*
X54352Y104990D01*
X54455Y104725D01*
X54564Y104462D01*
X54680Y104201D01*
X54801Y103944D01*
X54802Y103944D02*
X54839Y103842D01*
X54880Y103741D01*
X54924Y103642D01*
X54972Y103545D01*
X55024Y103449D01*
X55079Y103355D01*
X55137Y103264D01*
X55199Y103175D01*
X55264Y103087D01*
X55332Y103003D01*
X55403Y102921D01*
X55477Y102841D01*
X55553Y102765D01*
X55633Y102691D01*
X55715Y102620D01*
X55800Y102552D01*
X55887Y102487D01*
X55977Y102426D01*
X56068Y102368D01*
X56162Y102313D01*
X56258Y102262D01*
X56355Y102214D01*
X56454Y102169D01*
X56555Y102129D01*
X56657Y102092D01*
X56761Y102059D01*
X56865Y102030D01*
X56971Y102004D01*
X57077Y101982D01*
X57184Y101965D01*
X57292Y101951D01*
X57400Y101941D01*
X57508Y101935D01*
X57617Y101933D01*
X60433Y103944D02*
X60554Y104201D01*
X60670Y104462D01*
X60779Y104725D01*
X60882Y104990D01*
X60979Y105258D01*
X61069Y105528D01*
X61153Y105801D01*
X61230Y106075D01*
X61301Y106351D01*
X61365Y106628D01*
X61422Y106907D01*
X61473Y107187D01*
X61517Y107469D01*
X61554Y107751D01*
X61585Y108034D01*
X61608Y108318D01*
X61625Y108603D01*
X61636Y108887D01*
X61639Y109172D01*
X60432Y103944D02*
X60395Y103842D01*
X60354Y103741D01*
X60310Y103642D01*
X60262Y103545D01*
X60210Y103449D01*
X60155Y103355D01*
X60097Y103264D01*
X60035Y103175D01*
X59970Y103088D01*
X59902Y103003D01*
X59831Y102921D01*
X59757Y102841D01*
X59681Y102765D01*
X59601Y102691D01*
X59519Y102620D01*
X59434Y102552D01*
X59347Y102487D01*
X59257Y102426D01*
X59166Y102368D01*
X59072Y102313D01*
X58976Y102262D01*
X58879Y102214D01*
X58780Y102169D01*
X58679Y102129D01*
X58577Y102092D01*
X58473Y102059D01*
X58369Y102030D01*
X58263Y102004D01*
X58157Y101982D01*
X58050Y101965D01*
X57942Y101951D01*
X57834Y101941D01*
X57726Y101935D01*
X57617Y101933D01*
X54400Y105151D02*
X60834Y113194D01*
X67657Y116411D02*
X72483Y101933D01*
X77309Y116411D01*
D11*
X262901Y57297D02*
X262901Y48407D01*
X266852Y48407D01*
X270498Y55321D02*
X272968Y57297D01*
X272968Y48407D01*
X275437Y48407D02*
X270498Y48407D01*
D13*
X134027Y270353D02*
X134027Y274078D01*
X135889Y274078D01*
X135889Y273457D01*
X138583Y270353D02*
X140135Y270353D01*
X138583Y270353D02*
X138525Y270355D01*
X138466Y270360D01*
X138409Y270369D01*
X138351Y270382D01*
X138295Y270399D01*
X138240Y270418D01*
X138187Y270442D01*
X138134Y270468D01*
X138084Y270498D01*
X138036Y270531D01*
X137990Y270567D01*
X137946Y270605D01*
X137904Y270647D01*
X137866Y270691D01*
X137830Y270737D01*
X137797Y270785D01*
X137767Y270835D01*
X137741Y270888D01*
X137717Y270941D01*
X137698Y270996D01*
X137681Y271052D01*
X137668Y271110D01*
X137659Y271167D01*
X137654Y271226D01*
X137652Y271284D01*
X137652Y272836D01*
X137654Y272906D01*
X137660Y272975D01*
X137670Y273044D01*
X137683Y273112D01*
X137701Y273180D01*
X137722Y273246D01*
X137747Y273311D01*
X137775Y273375D01*
X137807Y273437D01*
X137842Y273497D01*
X137881Y273555D01*
X137923Y273610D01*
X137968Y273664D01*
X138016Y273714D01*
X138066Y273762D01*
X138120Y273807D01*
X138175Y273849D01*
X138233Y273888D01*
X138293Y273923D01*
X138355Y273955D01*
X138419Y273983D01*
X138484Y274008D01*
X138550Y274029D01*
X138618Y274047D01*
X138686Y274060D01*
X138755Y274070D01*
X138824Y274076D01*
X138894Y274078D01*
X138964Y274076D01*
X139033Y274070D01*
X139102Y274060D01*
X139170Y274047D01*
X139238Y274029D01*
X139304Y274008D01*
X139369Y273983D01*
X139433Y273955D01*
X139495Y273923D01*
X139555Y273888D01*
X139613Y273849D01*
X139668Y273807D01*
X139722Y273762D01*
X139772Y273714D01*
X139820Y273664D01*
X139865Y273610D01*
X139907Y273555D01*
X139946Y273497D01*
X139981Y273437D01*
X140013Y273375D01*
X140041Y273311D01*
X140066Y273246D01*
X140087Y273180D01*
X140105Y273112D01*
X140118Y273044D01*
X140128Y272975D01*
X140134Y272906D01*
X140136Y272836D01*
X140135Y272836D02*
X140135Y272215D01*
X137652Y272215D01*
X142224Y274078D02*
X143466Y270353D01*
X144707Y274078D01*
X146851Y270353D02*
X148714Y270353D01*
X148784Y270355D01*
X148853Y270361D01*
X148922Y270371D01*
X148990Y270384D01*
X149058Y270402D01*
X149124Y270423D01*
X149189Y270448D01*
X149253Y270476D01*
X149315Y270508D01*
X149375Y270543D01*
X149433Y270582D01*
X149488Y270624D01*
X149542Y270669D01*
X149592Y270717D01*
X149640Y270767D01*
X149685Y270821D01*
X149727Y270876D01*
X149766Y270934D01*
X149801Y270994D01*
X149833Y271056D01*
X149861Y271120D01*
X149886Y271185D01*
X149907Y271251D01*
X149925Y271319D01*
X149938Y271387D01*
X149948Y271456D01*
X149954Y271525D01*
X149956Y271595D01*
X149956Y271594D02*
X149956Y272215D01*
X149954Y272285D01*
X149948Y272354D01*
X149938Y272423D01*
X149925Y272491D01*
X149907Y272559D01*
X149886Y272625D01*
X149861Y272690D01*
X149833Y272754D01*
X149801Y272816D01*
X149766Y272876D01*
X149727Y272934D01*
X149685Y272989D01*
X149640Y273043D01*
X149592Y273093D01*
X149542Y273141D01*
X149488Y273186D01*
X149433Y273228D01*
X149375Y273267D01*
X149315Y273302D01*
X149253Y273334D01*
X149189Y273362D01*
X149124Y273387D01*
X149058Y273408D01*
X148990Y273426D01*
X148922Y273439D01*
X148853Y273449D01*
X148784Y273455D01*
X148714Y273457D01*
X146851Y273457D01*
X146851Y275941D01*
X149956Y275941D01*
X152089Y270663D02*
X152089Y270353D01*
X152089Y270663D02*
X152399Y270663D01*
X152399Y270353D01*
X152089Y270353D01*
X154532Y274699D02*
X156084Y275941D01*
X156084Y270353D01*
X154532Y270353D02*
X157636Y270353D01*
D11*
X152266Y424969D02*
X102990Y424969D01*
X102990Y449353D01*
X152266Y449353D01*
X152266Y424969D01*
D13*
X105896Y456288D02*
X104908Y455498D01*
X105896Y456288D02*
X105896Y452732D01*
X104908Y452732D02*
X106884Y452732D01*
X108566Y454510D02*
X108568Y454612D01*
X108573Y454714D01*
X108582Y454816D01*
X108594Y454918D01*
X108610Y455019D01*
X108630Y455119D01*
X108653Y455219D01*
X108679Y455317D01*
X108709Y455415D01*
X108743Y455512D01*
X108779Y455607D01*
X108819Y455701D01*
X108862Y455794D01*
X108881Y455844D01*
X108903Y455892D01*
X108930Y455939D01*
X108959Y455983D01*
X108992Y456025D01*
X109027Y456065D01*
X109066Y456102D01*
X109107Y456136D01*
X109150Y456167D01*
X109196Y456195D01*
X109243Y456219D01*
X109292Y456240D01*
X109343Y456257D01*
X109394Y456271D01*
X109447Y456280D01*
X109500Y456286D01*
X109553Y456288D01*
X109606Y456286D01*
X109659Y456280D01*
X109712Y456271D01*
X109763Y456257D01*
X109814Y456240D01*
X109863Y456219D01*
X109910Y456195D01*
X109956Y456167D01*
X109999Y456136D01*
X110040Y456102D01*
X110079Y456065D01*
X110114Y456025D01*
X110147Y455983D01*
X110177Y455939D01*
X110203Y455892D01*
X110225Y455844D01*
X110244Y455794D01*
X110245Y455794D02*
X110288Y455701D01*
X110328Y455607D01*
X110364Y455512D01*
X110398Y455415D01*
X110428Y455317D01*
X110454Y455219D01*
X110477Y455119D01*
X110497Y455019D01*
X110513Y454918D01*
X110525Y454816D01*
X110534Y454714D01*
X110539Y454612D01*
X110541Y454510D01*
X108565Y454510D02*
X108567Y454408D01*
X108572Y454306D01*
X108581Y454204D01*
X108593Y454102D01*
X108609Y454001D01*
X108629Y453901D01*
X108652Y453801D01*
X108678Y453702D01*
X108708Y453605D01*
X108742Y453508D01*
X108778Y453413D01*
X108818Y453318D01*
X108861Y453226D01*
X108862Y453226D02*
X108881Y453176D01*
X108903Y453128D01*
X108930Y453081D01*
X108959Y453037D01*
X108992Y452995D01*
X109027Y452955D01*
X109066Y452918D01*
X109107Y452884D01*
X109150Y452853D01*
X109196Y452825D01*
X109243Y452801D01*
X109292Y452780D01*
X109343Y452763D01*
X109394Y452749D01*
X109447Y452740D01*
X109500Y452734D01*
X109553Y452732D01*
X110245Y453226D02*
X110288Y453318D01*
X110328Y453413D01*
X110364Y453508D01*
X110398Y453605D01*
X110428Y453702D01*
X110454Y453801D01*
X110477Y453901D01*
X110497Y454001D01*
X110513Y454102D01*
X110525Y454204D01*
X110534Y454306D01*
X110539Y454408D01*
X110541Y454510D01*
X110244Y453226D02*
X110225Y453176D01*
X110203Y453128D01*
X110176Y453081D01*
X110147Y453037D01*
X110114Y452995D01*
X110079Y452955D01*
X110040Y452918D01*
X109999Y452884D01*
X109956Y452853D01*
X109910Y452825D01*
X109863Y452801D01*
X109814Y452780D01*
X109763Y452763D01*
X109712Y452749D01*
X109659Y452740D01*
X109606Y452734D01*
X109553Y452732D01*
X108763Y453522D02*
X110344Y455498D01*
X112224Y454510D02*
X112226Y454612D01*
X112231Y454714D01*
X112240Y454816D01*
X112252Y454918D01*
X112268Y455019D01*
X112288Y455119D01*
X112311Y455219D01*
X112337Y455317D01*
X112367Y455415D01*
X112401Y455512D01*
X112437Y455607D01*
X112477Y455701D01*
X112520Y455794D01*
X112539Y455844D01*
X112561Y455892D01*
X112588Y455939D01*
X112617Y455983D01*
X112650Y456025D01*
X112685Y456065D01*
X112724Y456102D01*
X112765Y456136D01*
X112808Y456167D01*
X112854Y456195D01*
X112901Y456219D01*
X112950Y456240D01*
X113001Y456257D01*
X113052Y456271D01*
X113105Y456280D01*
X113158Y456286D01*
X113211Y456288D01*
X113264Y456286D01*
X113317Y456280D01*
X113370Y456271D01*
X113421Y456257D01*
X113472Y456240D01*
X113521Y456219D01*
X113568Y456195D01*
X113614Y456167D01*
X113657Y456136D01*
X113698Y456102D01*
X113737Y456065D01*
X113772Y456025D01*
X113805Y455983D01*
X113835Y455939D01*
X113861Y455892D01*
X113883Y455844D01*
X113902Y455794D01*
X113945Y455701D01*
X113985Y455607D01*
X114021Y455512D01*
X114055Y455415D01*
X114085Y455317D01*
X114111Y455219D01*
X114134Y455119D01*
X114154Y455019D01*
X114170Y454918D01*
X114182Y454816D01*
X114191Y454714D01*
X114196Y454612D01*
X114198Y454510D01*
X112223Y454510D02*
X112225Y454408D01*
X112230Y454306D01*
X112239Y454204D01*
X112251Y454102D01*
X112267Y454001D01*
X112287Y453901D01*
X112310Y453801D01*
X112336Y453702D01*
X112366Y453605D01*
X112400Y453508D01*
X112436Y453413D01*
X112476Y453318D01*
X112519Y453226D01*
X112520Y453226D02*
X112539Y453176D01*
X112561Y453128D01*
X112588Y453081D01*
X112617Y453037D01*
X112650Y452995D01*
X112685Y452955D01*
X112724Y452918D01*
X112765Y452884D01*
X112808Y452853D01*
X112854Y452825D01*
X112901Y452801D01*
X112950Y452780D01*
X113001Y452763D01*
X113052Y452749D01*
X113105Y452740D01*
X113158Y452734D01*
X113211Y452732D01*
X113903Y453226D02*
X113946Y453318D01*
X113986Y453413D01*
X114022Y453508D01*
X114056Y453605D01*
X114086Y453702D01*
X114112Y453801D01*
X114135Y453901D01*
X114155Y454001D01*
X114171Y454102D01*
X114183Y454204D01*
X114192Y454306D01*
X114197Y454408D01*
X114199Y454510D01*
X113902Y453226D02*
X113883Y453176D01*
X113861Y453128D01*
X113834Y453081D01*
X113805Y453037D01*
X113772Y452995D01*
X113737Y452955D01*
X113698Y452918D01*
X113657Y452884D01*
X113614Y452853D01*
X113568Y452825D01*
X113521Y452801D01*
X113472Y452780D01*
X113421Y452763D01*
X113370Y452749D01*
X113317Y452740D01*
X113264Y452734D01*
X113211Y452732D01*
X112421Y453522D02*
X114001Y455498D01*
X115956Y455103D02*
X115956Y453325D01*
X115958Y453278D01*
X115963Y453232D01*
X115972Y453187D01*
X115985Y453142D01*
X116001Y453098D01*
X116021Y453056D01*
X116043Y453015D01*
X116069Y452976D01*
X116098Y452940D01*
X116130Y452906D01*
X116164Y452874D01*
X116200Y452845D01*
X116239Y452819D01*
X116280Y452797D01*
X116322Y452777D01*
X116366Y452761D01*
X116411Y452748D01*
X116456Y452739D01*
X116502Y452734D01*
X116549Y452732D01*
X117537Y452732D01*
X117537Y455103D01*
X119426Y456288D02*
X119426Y452732D01*
X119426Y456288D02*
X121006Y456288D01*
X121006Y454708D02*
X119426Y454708D01*
D11*
X372080Y267665D02*
X445080Y267665D01*
X205080Y267665D02*
X205080Y427665D01*
X372080Y427665D02*
X445080Y427665D01*
X445080Y267665D01*
D14*
X438080Y395665D02*
X389080Y395665D01*
X438080Y395665D02*
X438080Y386665D01*
X401080Y386665D01*
X401080Y376665D01*
X437080Y376665D01*
X437080Y364665D01*
X401080Y364665D01*
X401080Y352665D01*
X437080Y352665D01*
X437080Y341665D01*
X402080Y341665D01*
X402080Y330665D01*
X437080Y330665D01*
X437080Y290665D01*
X388080Y395665D02*
X382080Y395665D01*
X382080Y330665D01*
D15*
X346796Y310687D02*
X346796Y304817D01*
X333588Y304817D01*
X333588Y310687D01*
X339458Y309220D02*
X339458Y304817D01*
X346796Y319437D02*
X346794Y319544D01*
X346788Y319651D01*
X346778Y319758D01*
X346765Y319864D01*
X346747Y319970D01*
X346726Y320075D01*
X346701Y320179D01*
X346672Y320283D01*
X346639Y320385D01*
X346602Y320485D01*
X346562Y320585D01*
X346518Y320683D01*
X346471Y320779D01*
X346420Y320873D01*
X346366Y320966D01*
X346309Y321056D01*
X346248Y321145D01*
X346184Y321231D01*
X346117Y321314D01*
X346047Y321396D01*
X345974Y321474D01*
X345898Y321550D01*
X345820Y321623D01*
X345738Y321693D01*
X345655Y321760D01*
X345569Y321824D01*
X345480Y321885D01*
X345390Y321942D01*
X345297Y321996D01*
X345203Y322047D01*
X345107Y322094D01*
X345009Y322138D01*
X344909Y322178D01*
X344809Y322215D01*
X344707Y322248D01*
X344603Y322277D01*
X344499Y322302D01*
X344394Y322323D01*
X344288Y322341D01*
X344182Y322354D01*
X344075Y322364D01*
X343968Y322370D01*
X343861Y322372D01*
X346796Y319437D02*
X346794Y319284D01*
X346788Y319131D01*
X346779Y318978D01*
X346766Y318826D01*
X346749Y318674D01*
X346728Y318522D01*
X346704Y318371D01*
X346676Y318221D01*
X346644Y318071D01*
X346608Y317923D01*
X346569Y317775D01*
X346526Y317628D01*
X346480Y317482D01*
X346430Y317338D01*
X346376Y317194D01*
X346319Y317052D01*
X346259Y316912D01*
X346194Y316773D01*
X346127Y316636D01*
X346056Y316500D01*
X345982Y316366D01*
X345905Y316234D01*
X345824Y316104D01*
X345740Y315976D01*
X345653Y315850D01*
X345563Y315727D01*
X345470Y315605D01*
X345374Y315486D01*
X345275Y315370D01*
X345174Y315255D01*
X345069Y315144D01*
X344962Y315035D01*
X336523Y315402D02*
X336416Y315404D01*
X336309Y315410D01*
X336202Y315420D01*
X336096Y315433D01*
X335990Y315451D01*
X335885Y315472D01*
X335781Y315497D01*
X335677Y315526D01*
X335575Y315559D01*
X335475Y315596D01*
X335375Y315636D01*
X335277Y315680D01*
X335181Y315727D01*
X335087Y315778D01*
X334994Y315832D01*
X334904Y315889D01*
X334815Y315950D01*
X334729Y316014D01*
X334646Y316081D01*
X334564Y316151D01*
X334486Y316224D01*
X334410Y316300D01*
X334337Y316378D01*
X334267Y316460D01*
X334200Y316543D01*
X334136Y316629D01*
X334075Y316718D01*
X334018Y316808D01*
X333964Y316901D01*
X333913Y316995D01*
X333866Y317091D01*
X333822Y317189D01*
X333782Y317289D01*
X333745Y317389D01*
X333712Y317491D01*
X333683Y317595D01*
X333658Y317699D01*
X333637Y317804D01*
X333619Y317910D01*
X333606Y318016D01*
X333596Y318123D01*
X333590Y318230D01*
X333588Y318337D01*
X333590Y318485D01*
X333596Y318632D01*
X333606Y318779D01*
X333620Y318926D01*
X333637Y319073D01*
X333659Y319218D01*
X333685Y319364D01*
X333714Y319508D01*
X333747Y319652D01*
X333785Y319795D01*
X333826Y319937D01*
X333870Y320077D01*
X333919Y320217D01*
X333971Y320355D01*
X334027Y320491D01*
X334087Y320626D01*
X334150Y320759D01*
X334217Y320891D01*
X334287Y321021D01*
X334360Y321149D01*
X334438Y321274D01*
X334518Y321398D01*
X334602Y321520D01*
X334689Y321639D01*
X339091Y316869D02*
X339035Y316778D01*
X338976Y316689D01*
X338914Y316602D01*
X338849Y316518D01*
X338781Y316435D01*
X338710Y316356D01*
X338636Y316279D01*
X338559Y316205D01*
X338480Y316133D01*
X338398Y316065D01*
X338314Y315999D01*
X338227Y315936D01*
X338139Y315877D01*
X338048Y315821D01*
X337955Y315768D01*
X337861Y315718D01*
X337765Y315672D01*
X337667Y315629D01*
X337568Y315590D01*
X337467Y315554D01*
X337365Y315522D01*
X337262Y315494D01*
X337158Y315470D01*
X337054Y315449D01*
X336948Y315432D01*
X336843Y315418D01*
X336736Y315409D01*
X336630Y315403D01*
X336523Y315401D01*
X341293Y320904D02*
X341349Y320995D01*
X341408Y321084D01*
X341470Y321171D01*
X341535Y321256D01*
X341603Y321338D01*
X341674Y321417D01*
X341748Y321494D01*
X341825Y321568D01*
X341904Y321640D01*
X341986Y321708D01*
X342070Y321774D01*
X342157Y321837D01*
X342245Y321896D01*
X342336Y321952D01*
X342429Y322005D01*
X342523Y322055D01*
X342619Y322101D01*
X342717Y322144D01*
X342816Y322183D01*
X342917Y322219D01*
X343019Y322251D01*
X343122Y322279D01*
X343226Y322303D01*
X343330Y322324D01*
X343436Y322341D01*
X343541Y322355D01*
X343648Y322364D01*
X343754Y322370D01*
X343861Y322372D01*
X341293Y320905D02*
X339091Y316869D01*
X333588Y328016D02*
X346796Y328016D01*
X333588Y328016D02*
X333588Y331684D01*
X333590Y331804D01*
X333596Y331924D01*
X333606Y332044D01*
X333619Y332163D01*
X333637Y332282D01*
X333658Y332400D01*
X333684Y332517D01*
X333713Y332634D01*
X333746Y332749D01*
X333783Y332863D01*
X333823Y332976D01*
X333867Y333088D01*
X333915Y333198D01*
X333966Y333307D01*
X334021Y333414D01*
X334080Y333519D01*
X334141Y333621D01*
X334206Y333722D01*
X334275Y333821D01*
X334346Y333918D01*
X334421Y334012D01*
X334498Y334103D01*
X334579Y334192D01*
X334663Y334278D01*
X334749Y334362D01*
X334838Y334443D01*
X334929Y334520D01*
X335023Y334595D01*
X335120Y334666D01*
X335219Y334735D01*
X335320Y334800D01*
X335423Y334861D01*
X335527Y334920D01*
X335634Y334975D01*
X335743Y335026D01*
X335853Y335074D01*
X335965Y335118D01*
X336078Y335158D01*
X336192Y335195D01*
X336307Y335228D01*
X336424Y335257D01*
X336541Y335283D01*
X336659Y335304D01*
X336778Y335322D01*
X336897Y335335D01*
X337017Y335345D01*
X337137Y335351D01*
X337257Y335353D01*
X337377Y335351D01*
X337497Y335345D01*
X337617Y335335D01*
X337736Y335322D01*
X337855Y335304D01*
X337973Y335283D01*
X338090Y335257D01*
X338207Y335228D01*
X338322Y335195D01*
X338436Y335158D01*
X338549Y335118D01*
X338661Y335074D01*
X338771Y335026D01*
X338880Y334975D01*
X338987Y334920D01*
X339092Y334861D01*
X339194Y334800D01*
X339295Y334735D01*
X339394Y334666D01*
X339491Y334595D01*
X339585Y334520D01*
X339676Y334443D01*
X339765Y334362D01*
X339851Y334278D01*
X339935Y334192D01*
X340016Y334103D01*
X340093Y334012D01*
X340168Y333918D01*
X340239Y333821D01*
X340308Y333722D01*
X340373Y333621D01*
X340434Y333519D01*
X340493Y333414D01*
X340548Y333307D01*
X340599Y333198D01*
X340647Y333088D01*
X340691Y332976D01*
X340731Y332863D01*
X340768Y332749D01*
X340801Y332634D01*
X340830Y332517D01*
X340856Y332400D01*
X340877Y332282D01*
X340895Y332163D01*
X340908Y332044D01*
X340918Y331924D01*
X340924Y331804D01*
X340926Y331684D01*
X340926Y328016D01*
X341660Y347158D02*
X341660Y355963D01*
X336523Y368374D02*
X333588Y372043D01*
X346796Y372043D01*
X346796Y368374D02*
X346796Y375712D01*
X336890Y388514D02*
X336777Y388512D01*
X336665Y388506D01*
X336552Y388497D01*
X336440Y388483D01*
X336329Y388466D01*
X336218Y388445D01*
X336108Y388420D01*
X335999Y388392D01*
X335891Y388359D01*
X335784Y388323D01*
X335679Y388284D01*
X335574Y388241D01*
X335472Y388194D01*
X335371Y388144D01*
X335272Y388090D01*
X335174Y388033D01*
X335079Y387973D01*
X334986Y387910D01*
X334895Y387843D01*
X334806Y387773D01*
X334720Y387701D01*
X334636Y387625D01*
X334555Y387547D01*
X334477Y387466D01*
X334401Y387382D01*
X334329Y387296D01*
X334259Y387207D01*
X334192Y387116D01*
X334129Y387023D01*
X334069Y386928D01*
X334012Y386830D01*
X333958Y386731D01*
X333908Y386630D01*
X333861Y386528D01*
X333818Y386423D01*
X333779Y386318D01*
X333743Y386211D01*
X333710Y386103D01*
X333682Y385994D01*
X333657Y385884D01*
X333636Y385773D01*
X333619Y385662D01*
X333605Y385550D01*
X333596Y385437D01*
X333590Y385325D01*
X333588Y385212D01*
X333590Y385085D01*
X333596Y384958D01*
X333605Y384831D01*
X333618Y384705D01*
X333635Y384579D01*
X333656Y384454D01*
X333681Y384329D01*
X333709Y384206D01*
X333741Y384083D01*
X333777Y383961D01*
X333816Y383840D01*
X333859Y383720D01*
X333905Y383602D01*
X333955Y383485D01*
X334009Y383370D01*
X334066Y383257D01*
X334126Y383145D01*
X334189Y383035D01*
X334256Y382927D01*
X334326Y382821D01*
X334399Y382717D01*
X334476Y382615D01*
X334555Y382516D01*
X334637Y382419D01*
X334722Y382325D01*
X334810Y382233D01*
X334900Y382144D01*
X334994Y382058D01*
X335089Y381974D01*
X335187Y381894D01*
X335288Y381816D01*
X335391Y381741D01*
X335496Y381670D01*
X335603Y381602D01*
X335712Y381537D01*
X335823Y381475D01*
X335936Y381416D01*
X336050Y381361D01*
X336166Y381310D01*
X336284Y381262D01*
X336403Y381217D01*
X336523Y381176D01*
X339458Y387413D02*
X339378Y387495D01*
X339295Y387574D01*
X339209Y387651D01*
X339121Y387725D01*
X339030Y387795D01*
X338938Y387863D01*
X338843Y387928D01*
X338746Y387990D01*
X338647Y388048D01*
X338546Y388104D01*
X338444Y388156D01*
X338340Y388204D01*
X338234Y388249D01*
X338127Y388291D01*
X338019Y388330D01*
X337909Y388364D01*
X337799Y388396D01*
X337687Y388423D01*
X337575Y388447D01*
X337462Y388468D01*
X337348Y388484D01*
X337234Y388497D01*
X337120Y388507D01*
X337005Y388512D01*
X336890Y388514D01*
X339458Y387413D02*
X346796Y381176D01*
X346796Y388514D01*
D16*
X367507Y462411D02*
X380207Y462411D01*
X386557Y456061D01*
X386557Y443361D02*
X380207Y437011D01*
X342107Y462411D02*
X335757Y456061D01*
X342107Y462411D02*
X354807Y462411D01*
X361157Y456061D01*
X361157Y443361D02*
X354807Y437011D01*
X342107Y437011D01*
X335757Y443361D01*
X361157Y456061D02*
X367507Y462411D01*
X361157Y443361D02*
X367507Y437011D01*
X380207Y437011D01*
X304007Y462411D02*
X291307Y462411D01*
X304007Y462411D02*
X310357Y456061D01*
X310357Y443361D02*
X304007Y437011D01*
X310357Y456061D02*
X316707Y462411D01*
X329407Y462411D01*
X335757Y456061D01*
X335757Y443361D02*
X329407Y437011D01*
X316707Y437011D01*
X310357Y443361D01*
X265907Y462411D02*
X259557Y456061D01*
X265907Y462411D02*
X278607Y462411D01*
X284957Y456061D01*
X284957Y443361D02*
X278607Y437011D01*
X265907Y437011D01*
X259557Y443361D01*
X284957Y456061D02*
X291307Y462411D01*
X284957Y443361D02*
X291307Y437011D01*
X304007Y437011D01*
X227807Y462411D02*
X215107Y462411D01*
X227807Y462411D02*
X234157Y456061D01*
X234157Y443361D02*
X227807Y437011D01*
X234157Y456061D02*
X240507Y462411D01*
X253207Y462411D01*
X259557Y456061D01*
X259557Y443361D02*
X253207Y437011D01*
X240507Y437011D01*
X234157Y443361D01*
X208757Y443361D02*
X208757Y456061D01*
X215107Y462411D01*
X208757Y443361D02*
X215107Y437011D01*
X227807Y437011D01*
X392907Y462411D02*
X405607Y462411D01*
X411957Y456061D01*
X411957Y443361D01*
X405607Y437011D01*
X386557Y456061D02*
X392907Y462411D01*
X386557Y443361D02*
X392907Y437011D01*
X405607Y437011D01*
X54911Y362011D02*
X54911Y328991D01*
X54911Y362011D02*
X120443Y362011D01*
X120443Y328991D01*
X54911Y328991D01*
D17*
X78948Y299267D02*
X77678Y295457D01*
X80218Y295457D02*
X78948Y299267D01*
X79901Y296409D02*
X77996Y296409D01*
X81702Y295457D02*
X81702Y299267D01*
X82972Y297150D01*
X84242Y299267D01*
X84242Y295457D01*
X87085Y295456D02*
X87143Y295458D01*
X87200Y295464D01*
X87257Y295474D01*
X87314Y295487D01*
X87369Y295505D01*
X87422Y295526D01*
X87475Y295551D01*
X87525Y295579D01*
X87573Y295611D01*
X87620Y295646D01*
X87663Y295684D01*
X87704Y295725D01*
X87742Y295768D01*
X87777Y295815D01*
X87809Y295863D01*
X87837Y295913D01*
X87862Y295966D01*
X87883Y296019D01*
X87901Y296074D01*
X87914Y296131D01*
X87924Y296188D01*
X87930Y296245D01*
X87932Y296303D01*
X87085Y295457D02*
X87002Y295459D01*
X86919Y295465D01*
X86837Y295474D01*
X86755Y295488D01*
X86674Y295505D01*
X86593Y295526D01*
X86514Y295551D01*
X86436Y295579D01*
X86359Y295611D01*
X86284Y295646D01*
X86211Y295685D01*
X86139Y295728D01*
X86070Y295773D01*
X86003Y295822D01*
X85938Y295874D01*
X85875Y295928D01*
X85815Y295986D01*
X85920Y298420D02*
X85922Y298475D01*
X85927Y298531D01*
X85936Y298585D01*
X85949Y298639D01*
X85965Y298692D01*
X85984Y298744D01*
X86007Y298795D01*
X86033Y298844D01*
X86063Y298891D01*
X86095Y298936D01*
X86130Y298978D01*
X86168Y299019D01*
X86209Y299057D01*
X86251Y299092D01*
X86296Y299124D01*
X86344Y299154D01*
X86392Y299180D01*
X86443Y299203D01*
X86495Y299222D01*
X86548Y299238D01*
X86602Y299251D01*
X86656Y299260D01*
X86712Y299265D01*
X86767Y299267D01*
X86846Y299265D01*
X86924Y299259D01*
X87002Y299250D01*
X87079Y299236D01*
X87156Y299219D01*
X87232Y299197D01*
X87306Y299173D01*
X87380Y299144D01*
X87451Y299112D01*
X87521Y299076D01*
X87590Y299037D01*
X87656Y298995D01*
X87720Y298949D01*
X86344Y297679D02*
X86297Y297709D01*
X86252Y297742D01*
X86209Y297778D01*
X86169Y297816D01*
X86131Y297857D01*
X86096Y297900D01*
X86064Y297946D01*
X86034Y297993D01*
X86008Y298043D01*
X85985Y298094D01*
X85966Y298146D01*
X85950Y298199D01*
X85937Y298254D01*
X85928Y298309D01*
X85923Y298364D01*
X85921Y298420D01*
X87509Y297044D02*
X87556Y297014D01*
X87601Y296981D01*
X87644Y296945D01*
X87684Y296907D01*
X87722Y296866D01*
X87757Y296823D01*
X87789Y296777D01*
X87819Y296730D01*
X87845Y296680D01*
X87868Y296629D01*
X87887Y296577D01*
X87903Y296524D01*
X87916Y296469D01*
X87925Y296414D01*
X87930Y296359D01*
X87932Y296303D01*
X87508Y297044D02*
X86344Y297679D01*
X89351Y298420D02*
X90409Y299267D01*
X90409Y295457D01*
X89351Y295457D02*
X91467Y295457D01*
X93008Y298420D02*
X94066Y299267D01*
X94066Y295457D01*
X93008Y295457D02*
X95125Y295457D01*
X96666Y298420D02*
X97724Y299267D01*
X97724Y295457D01*
X96666Y295457D02*
X98782Y295457D01*
X100323Y298843D02*
X100323Y299267D01*
X102440Y299267D01*
X101382Y295457D01*
D16*
X367507Y259050D02*
X380207Y259050D01*
X386557Y252700D01*
X386557Y240000D02*
X380207Y233650D01*
X342107Y259050D02*
X335757Y252700D01*
X342107Y259050D02*
X354807Y259050D01*
X361157Y252700D01*
X361157Y240000D02*
X354807Y233650D01*
X342107Y233650D01*
X335757Y240000D01*
X361157Y252700D02*
X367507Y259050D01*
X361157Y240000D02*
X367507Y233650D01*
X380207Y233650D01*
X304007Y259050D02*
X291307Y259050D01*
X304007Y259050D02*
X310357Y252700D01*
X310357Y240000D02*
X304007Y233650D01*
X310357Y252700D02*
X316707Y259050D01*
X329407Y259050D01*
X335757Y252700D01*
X335757Y240000D02*
X329407Y233650D01*
X316707Y233650D01*
X310357Y240000D01*
X265907Y259050D02*
X259557Y252700D01*
X265907Y259050D02*
X278607Y259050D01*
X284957Y252700D01*
X284957Y240000D02*
X278607Y233650D01*
X265907Y233650D01*
X259557Y240000D01*
X284957Y252700D02*
X291307Y259050D01*
X284957Y240000D02*
X291307Y233650D01*
X304007Y233650D01*
X227807Y259050D02*
X215107Y259050D01*
X227807Y259050D02*
X234157Y252700D01*
X234157Y240000D02*
X227807Y233650D01*
X234157Y252700D02*
X240507Y259050D01*
X253207Y259050D01*
X259557Y252700D01*
X259557Y240000D02*
X253207Y233650D01*
X240507Y233650D01*
X234157Y240000D01*
X208757Y240000D02*
X208757Y252700D01*
X215107Y259050D01*
X208757Y240000D02*
X215107Y233650D01*
X227807Y233650D01*
X392907Y259050D02*
X405607Y259050D01*
X411957Y252700D01*
X411957Y240000D02*
X405607Y233650D01*
X386557Y252700D02*
X392907Y259050D01*
X386557Y240000D02*
X392907Y233650D01*
X405607Y233650D01*
X418307Y259050D02*
X431007Y259050D01*
X437357Y252700D01*
X437357Y240000D02*
X431007Y233650D01*
X411957Y252700D02*
X418307Y259050D01*
X411957Y240000D02*
X418307Y233650D01*
X431007Y233650D01*
X437357Y240000D02*
X437357Y252700D01*
D11*
X211001Y262027D02*
X211001Y265781D01*
X211000Y262027D02*
X210998Y261962D01*
X210992Y261898D01*
X210982Y261834D01*
X210969Y261770D01*
X210951Y261708D01*
X210930Y261647D01*
X210906Y261587D01*
X210877Y261529D01*
X210845Y261472D01*
X210810Y261418D01*
X210772Y261366D01*
X210730Y261316D01*
X210686Y261269D01*
X210639Y261225D01*
X210589Y261183D01*
X210537Y261145D01*
X210483Y261110D01*
X210426Y261078D01*
X210368Y261049D01*
X210308Y261025D01*
X210247Y261004D01*
X210185Y260986D01*
X210121Y260973D01*
X210057Y260963D01*
X209993Y260957D01*
X209928Y260955D01*
X209392Y260955D01*
X213949Y264708D02*
X215289Y265781D01*
X215289Y260955D01*
X213949Y260955D02*
X216630Y260955D01*
X152266Y398550D02*
X102990Y398550D01*
X102990Y422934D01*
X152266Y422934D01*
X152266Y398550D01*
D13*
X108693Y395802D02*
X108691Y395860D01*
X108685Y395918D01*
X108676Y395975D01*
X108663Y396032D01*
X108646Y396088D01*
X108625Y396142D01*
X108601Y396195D01*
X108574Y396247D01*
X108543Y396296D01*
X108509Y396343D01*
X108472Y396388D01*
X108433Y396431D01*
X108390Y396470D01*
X108345Y396507D01*
X108298Y396541D01*
X108249Y396572D01*
X108197Y396599D01*
X108144Y396623D01*
X108090Y396644D01*
X108034Y396661D01*
X107977Y396674D01*
X107920Y396683D01*
X107862Y396689D01*
X107804Y396691D01*
X107739Y396689D01*
X107674Y396684D01*
X107609Y396674D01*
X107545Y396661D01*
X107482Y396645D01*
X107420Y396624D01*
X107359Y396601D01*
X107300Y396574D01*
X107242Y396543D01*
X107186Y396509D01*
X107132Y396473D01*
X107081Y396433D01*
X107031Y396390D01*
X106985Y396344D01*
X106940Y396296D01*
X106899Y396246D01*
X106861Y396193D01*
X106826Y396138D01*
X106794Y396081D01*
X106765Y396022D01*
X106739Y395962D01*
X106718Y395901D01*
X108397Y395111D02*
X108438Y395153D01*
X108478Y395198D01*
X108514Y395245D01*
X108547Y395294D01*
X108577Y395346D01*
X108604Y395399D01*
X108627Y395453D01*
X108647Y395509D01*
X108664Y395567D01*
X108676Y395625D01*
X108686Y395683D01*
X108691Y395743D01*
X108693Y395802D01*
X108397Y395111D02*
X106718Y393135D01*
X108693Y393135D01*
X111462Y396691D02*
X111520Y396689D01*
X111578Y396683D01*
X111635Y396674D01*
X111692Y396661D01*
X111748Y396644D01*
X111802Y396623D01*
X111855Y396599D01*
X111907Y396572D01*
X111956Y396541D01*
X112003Y396507D01*
X112048Y396470D01*
X112091Y396431D01*
X112130Y396388D01*
X112167Y396343D01*
X112201Y396296D01*
X112232Y396247D01*
X112259Y396195D01*
X112283Y396142D01*
X112304Y396088D01*
X112321Y396032D01*
X112334Y395975D01*
X112343Y395918D01*
X112349Y395860D01*
X112351Y395802D01*
X111462Y396691D02*
X111397Y396689D01*
X111332Y396684D01*
X111267Y396674D01*
X111203Y396661D01*
X111140Y396645D01*
X111078Y396624D01*
X111017Y396601D01*
X110958Y396574D01*
X110900Y396543D01*
X110844Y396509D01*
X110790Y396473D01*
X110739Y396433D01*
X110689Y396390D01*
X110643Y396344D01*
X110598Y396296D01*
X110557Y396246D01*
X110519Y396193D01*
X110484Y396138D01*
X110452Y396081D01*
X110423Y396022D01*
X110397Y395962D01*
X110376Y395901D01*
X112055Y395111D02*
X112096Y395153D01*
X112136Y395198D01*
X112172Y395245D01*
X112205Y395294D01*
X112235Y395346D01*
X112262Y395399D01*
X112285Y395453D01*
X112305Y395509D01*
X112322Y395567D01*
X112334Y395625D01*
X112344Y395683D01*
X112349Y395743D01*
X112351Y395802D01*
X112055Y395111D02*
X110375Y393135D01*
X112351Y393135D01*
X114109Y393728D02*
X114109Y395506D01*
X114108Y393728D02*
X114110Y393681D01*
X114115Y393635D01*
X114124Y393590D01*
X114137Y393545D01*
X114153Y393501D01*
X114173Y393459D01*
X114195Y393418D01*
X114221Y393379D01*
X114250Y393343D01*
X114282Y393309D01*
X114316Y393277D01*
X114352Y393248D01*
X114391Y393222D01*
X114432Y393200D01*
X114474Y393180D01*
X114518Y393164D01*
X114563Y393151D01*
X114608Y393142D01*
X114654Y393137D01*
X114701Y393135D01*
X115689Y393135D01*
X115689Y395506D01*
X117578Y396691D02*
X117578Y393135D01*
X117578Y396691D02*
X119158Y396691D01*
X119158Y395111D02*
X117578Y395111D01*
D11*
X97280Y422934D02*
X48004Y422934D01*
X97280Y422934D02*
X97280Y398550D01*
X48004Y398550D01*
X48004Y422934D01*
D13*
X51552Y396172D02*
X51610Y396170D01*
X51668Y396164D01*
X51725Y396155D01*
X51782Y396142D01*
X51838Y396125D01*
X51892Y396104D01*
X51945Y396080D01*
X51997Y396053D01*
X52046Y396022D01*
X52093Y395988D01*
X52138Y395951D01*
X52181Y395912D01*
X52220Y395869D01*
X52257Y395824D01*
X52291Y395777D01*
X52322Y395728D01*
X52349Y395676D01*
X52373Y395623D01*
X52394Y395569D01*
X52411Y395513D01*
X52424Y395456D01*
X52433Y395399D01*
X52439Y395341D01*
X52441Y395283D01*
X51552Y396172D02*
X51487Y396170D01*
X51422Y396165D01*
X51357Y396155D01*
X51293Y396142D01*
X51230Y396126D01*
X51168Y396105D01*
X51107Y396082D01*
X51048Y396055D01*
X50990Y396024D01*
X50934Y395990D01*
X50880Y395954D01*
X50829Y395914D01*
X50779Y395871D01*
X50733Y395825D01*
X50688Y395777D01*
X50647Y395727D01*
X50609Y395674D01*
X50574Y395619D01*
X50542Y395562D01*
X50513Y395503D01*
X50487Y395443D01*
X50466Y395382D01*
X52145Y394592D02*
X52186Y394634D01*
X52226Y394679D01*
X52262Y394726D01*
X52295Y394775D01*
X52325Y394827D01*
X52352Y394880D01*
X52375Y394934D01*
X52395Y394990D01*
X52412Y395048D01*
X52424Y395106D01*
X52434Y395164D01*
X52439Y395224D01*
X52441Y395283D01*
X52145Y394591D02*
X50465Y392616D01*
X52441Y392616D01*
X55210Y396172D02*
X55268Y396170D01*
X55326Y396164D01*
X55383Y396155D01*
X55440Y396142D01*
X55496Y396125D01*
X55550Y396104D01*
X55603Y396080D01*
X55655Y396053D01*
X55704Y396022D01*
X55751Y395988D01*
X55796Y395951D01*
X55839Y395912D01*
X55878Y395869D01*
X55915Y395824D01*
X55949Y395777D01*
X55980Y395728D01*
X56007Y395676D01*
X56031Y395623D01*
X56052Y395569D01*
X56069Y395513D01*
X56082Y395456D01*
X56091Y395399D01*
X56097Y395341D01*
X56099Y395283D01*
X55210Y396172D02*
X55145Y396170D01*
X55080Y396165D01*
X55015Y396155D01*
X54951Y396142D01*
X54888Y396126D01*
X54826Y396105D01*
X54765Y396082D01*
X54706Y396055D01*
X54648Y396024D01*
X54592Y395990D01*
X54538Y395954D01*
X54487Y395914D01*
X54437Y395871D01*
X54391Y395825D01*
X54346Y395777D01*
X54305Y395727D01*
X54267Y395674D01*
X54232Y395619D01*
X54200Y395562D01*
X54171Y395503D01*
X54145Y395443D01*
X54124Y395382D01*
X55803Y394592D02*
X55844Y394634D01*
X55884Y394679D01*
X55920Y394726D01*
X55953Y394775D01*
X55983Y394827D01*
X56010Y394880D01*
X56033Y394934D01*
X56053Y394990D01*
X56070Y395048D01*
X56082Y395106D01*
X56092Y395164D01*
X56097Y395224D01*
X56099Y395283D01*
X55802Y394591D02*
X54123Y392616D01*
X56099Y392616D01*
X57856Y393209D02*
X57856Y394987D01*
X57856Y393209D02*
X57858Y393162D01*
X57863Y393116D01*
X57872Y393071D01*
X57885Y393026D01*
X57901Y392982D01*
X57921Y392940D01*
X57943Y392899D01*
X57969Y392860D01*
X57998Y392824D01*
X58030Y392790D01*
X58064Y392758D01*
X58100Y392729D01*
X58139Y392703D01*
X58180Y392681D01*
X58222Y392661D01*
X58266Y392645D01*
X58311Y392632D01*
X58356Y392623D01*
X58402Y392618D01*
X58449Y392616D01*
X59437Y392616D01*
X59437Y394987D01*
X61326Y396172D02*
X61326Y392616D01*
X61326Y396172D02*
X62906Y396172D01*
X62906Y394591D02*
X61326Y394591D01*
D11*
X47574Y449353D02*
X96850Y449353D01*
X96850Y424969D01*
X47574Y424969D01*
X47574Y449353D01*
D13*
X49213Y454637D02*
X50200Y455427D01*
X50200Y451871D01*
X49213Y451871D02*
X51188Y451871D01*
X52871Y453649D02*
X52873Y453751D01*
X52878Y453853D01*
X52887Y453955D01*
X52899Y454057D01*
X52915Y454158D01*
X52935Y454258D01*
X52958Y454358D01*
X52984Y454456D01*
X53014Y454554D01*
X53048Y454651D01*
X53084Y454746D01*
X53124Y454840D01*
X53167Y454933D01*
X53186Y454983D01*
X53208Y455031D01*
X53235Y455078D01*
X53264Y455122D01*
X53297Y455164D01*
X53332Y455204D01*
X53371Y455241D01*
X53412Y455275D01*
X53455Y455306D01*
X53501Y455334D01*
X53548Y455358D01*
X53597Y455379D01*
X53648Y455396D01*
X53699Y455410D01*
X53752Y455419D01*
X53805Y455425D01*
X53858Y455427D01*
X53911Y455425D01*
X53964Y455419D01*
X54017Y455410D01*
X54068Y455396D01*
X54119Y455379D01*
X54168Y455358D01*
X54215Y455334D01*
X54261Y455306D01*
X54304Y455275D01*
X54345Y455241D01*
X54384Y455204D01*
X54419Y455164D01*
X54452Y455122D01*
X54482Y455078D01*
X54508Y455031D01*
X54530Y454983D01*
X54549Y454933D01*
X54592Y454840D01*
X54632Y454746D01*
X54668Y454651D01*
X54702Y454554D01*
X54732Y454456D01*
X54758Y454358D01*
X54781Y454258D01*
X54801Y454158D01*
X54817Y454057D01*
X54829Y453955D01*
X54838Y453853D01*
X54843Y453751D01*
X54845Y453649D01*
X52870Y453649D02*
X52872Y453547D01*
X52877Y453445D01*
X52886Y453343D01*
X52898Y453241D01*
X52914Y453140D01*
X52934Y453040D01*
X52957Y452940D01*
X52983Y452841D01*
X53013Y452744D01*
X53047Y452647D01*
X53083Y452552D01*
X53123Y452457D01*
X53166Y452365D01*
X53167Y452365D02*
X53186Y452315D01*
X53208Y452267D01*
X53235Y452220D01*
X53264Y452176D01*
X53297Y452134D01*
X53332Y452094D01*
X53371Y452057D01*
X53412Y452023D01*
X53455Y451992D01*
X53501Y451964D01*
X53548Y451940D01*
X53597Y451919D01*
X53648Y451902D01*
X53699Y451888D01*
X53752Y451879D01*
X53805Y451873D01*
X53858Y451871D01*
X54550Y452365D02*
X54593Y452457D01*
X54633Y452552D01*
X54669Y452647D01*
X54703Y452744D01*
X54733Y452841D01*
X54759Y452940D01*
X54782Y453040D01*
X54802Y453140D01*
X54818Y453241D01*
X54830Y453343D01*
X54839Y453445D01*
X54844Y453547D01*
X54846Y453649D01*
X54549Y452365D02*
X54530Y452315D01*
X54508Y452267D01*
X54481Y452220D01*
X54452Y452176D01*
X54419Y452134D01*
X54384Y452094D01*
X54345Y452057D01*
X54304Y452023D01*
X54261Y451992D01*
X54215Y451964D01*
X54168Y451940D01*
X54119Y451919D01*
X54068Y451902D01*
X54017Y451888D01*
X53964Y451879D01*
X53911Y451873D01*
X53858Y451871D01*
X53068Y452662D02*
X54648Y454637D01*
X56528Y453649D02*
X56530Y453751D01*
X56535Y453853D01*
X56544Y453955D01*
X56556Y454057D01*
X56572Y454158D01*
X56592Y454258D01*
X56615Y454358D01*
X56641Y454456D01*
X56671Y454554D01*
X56705Y454651D01*
X56741Y454746D01*
X56781Y454840D01*
X56824Y454933D01*
X56825Y454933D02*
X56844Y454983D01*
X56866Y455031D01*
X56893Y455078D01*
X56922Y455122D01*
X56955Y455164D01*
X56990Y455204D01*
X57029Y455241D01*
X57070Y455275D01*
X57113Y455306D01*
X57159Y455334D01*
X57206Y455358D01*
X57255Y455379D01*
X57306Y455396D01*
X57357Y455410D01*
X57410Y455419D01*
X57463Y455425D01*
X57516Y455427D01*
X57569Y455425D01*
X57622Y455419D01*
X57675Y455410D01*
X57726Y455396D01*
X57777Y455379D01*
X57826Y455358D01*
X57873Y455334D01*
X57919Y455306D01*
X57962Y455275D01*
X58003Y455241D01*
X58042Y455204D01*
X58077Y455164D01*
X58110Y455122D01*
X58140Y455078D01*
X58166Y455031D01*
X58188Y454983D01*
X58207Y454933D01*
X58250Y454840D01*
X58290Y454746D01*
X58326Y454651D01*
X58360Y454554D01*
X58390Y454456D01*
X58416Y454358D01*
X58439Y454258D01*
X58459Y454158D01*
X58475Y454057D01*
X58487Y453955D01*
X58496Y453853D01*
X58501Y453751D01*
X58503Y453649D01*
X56528Y453649D02*
X56530Y453547D01*
X56535Y453445D01*
X56544Y453343D01*
X56556Y453241D01*
X56572Y453140D01*
X56592Y453040D01*
X56615Y452940D01*
X56641Y452841D01*
X56671Y452744D01*
X56705Y452647D01*
X56741Y452552D01*
X56781Y452457D01*
X56824Y452365D01*
X56825Y452365D02*
X56844Y452315D01*
X56866Y452267D01*
X56893Y452220D01*
X56922Y452176D01*
X56955Y452134D01*
X56990Y452094D01*
X57029Y452057D01*
X57070Y452023D01*
X57113Y451992D01*
X57159Y451964D01*
X57206Y451940D01*
X57255Y451919D01*
X57306Y451902D01*
X57357Y451888D01*
X57410Y451879D01*
X57463Y451873D01*
X57516Y451871D01*
X58208Y452365D02*
X58251Y452457D01*
X58291Y452552D01*
X58327Y452647D01*
X58361Y452744D01*
X58391Y452841D01*
X58417Y452940D01*
X58440Y453040D01*
X58460Y453140D01*
X58476Y453241D01*
X58488Y453343D01*
X58497Y453445D01*
X58502Y453547D01*
X58504Y453649D01*
X58207Y452365D02*
X58188Y452315D01*
X58166Y452267D01*
X58139Y452220D01*
X58110Y452176D01*
X58077Y452134D01*
X58042Y452094D01*
X58003Y452057D01*
X57962Y452023D01*
X57919Y451992D01*
X57873Y451964D01*
X57826Y451940D01*
X57777Y451919D01*
X57726Y451902D01*
X57675Y451888D01*
X57622Y451879D01*
X57569Y451873D01*
X57516Y451871D01*
X56725Y452662D02*
X58306Y454637D01*
X60261Y454242D02*
X60261Y452464D01*
X60263Y452417D01*
X60268Y452371D01*
X60277Y452326D01*
X60290Y452281D01*
X60306Y452237D01*
X60326Y452195D01*
X60348Y452154D01*
X60374Y452115D01*
X60403Y452079D01*
X60435Y452045D01*
X60469Y452013D01*
X60505Y451984D01*
X60544Y451958D01*
X60585Y451936D01*
X60627Y451916D01*
X60671Y451900D01*
X60716Y451887D01*
X60761Y451878D01*
X60807Y451873D01*
X60854Y451871D01*
X61842Y451871D01*
X61842Y454242D01*
X63730Y455427D02*
X63730Y451871D01*
X63730Y455427D02*
X65311Y455427D01*
X65311Y453847D02*
X63730Y453847D01*
D10*
X193570Y172501D02*
X193570Y142501D01*
X161570Y142501D02*
X161570Y172501D01*
X193570Y172501D01*
X193570Y142501D02*
X161570Y142501D01*
X193570Y172501D02*
X193570Y173001D01*
X193570Y142501D02*
X193570Y142001D01*
X161570Y172501D02*
X161570Y173001D01*
X161570Y142501D02*
X161570Y142001D01*
D15*
X198078Y163000D02*
X209762Y163000D01*
X198078Y163000D02*
X198078Y168193D01*
X203271Y168193D02*
X203271Y163000D01*
X200675Y172502D02*
X198078Y175748D01*
X209762Y175748D01*
X209762Y178993D02*
X209762Y172502D01*
D13*
X179065Y325889D02*
X179067Y325962D01*
X179073Y326035D01*
X179082Y326108D01*
X179096Y326179D01*
X179113Y326251D01*
X179133Y326321D01*
X179158Y326390D01*
X179186Y326457D01*
X179217Y326523D01*
X179252Y326588D01*
X179290Y326650D01*
X179332Y326710D01*
X179376Y326768D01*
X179424Y326824D01*
X179474Y326877D01*
X179527Y326927D01*
X179583Y326975D01*
X179641Y327019D01*
X179701Y327061D01*
X179764Y327099D01*
X179828Y327134D01*
X179894Y327165D01*
X179961Y327193D01*
X180030Y327218D01*
X180100Y327238D01*
X180172Y327255D01*
X180243Y327269D01*
X180316Y327278D01*
X180389Y327284D01*
X180462Y327286D01*
X179065Y325889D02*
X179067Y325805D01*
X179073Y325722D01*
X179082Y325639D01*
X179096Y325556D01*
X179113Y325475D01*
X179135Y325394D01*
X179160Y325314D01*
X179188Y325236D01*
X179220Y325158D01*
X179256Y325083D01*
X179295Y325009D01*
X179338Y324937D01*
X179384Y324867D01*
X179433Y324800D01*
X179486Y324734D01*
X179541Y324672D01*
X179599Y324612D01*
X179660Y324554D01*
X179723Y324500D01*
X179789Y324448D01*
X179857Y324400D01*
X179928Y324355D01*
X180000Y324313D01*
X180075Y324275D01*
X180151Y324240D01*
X180228Y324209D01*
X180307Y324181D01*
X181548Y326819D02*
X181495Y326873D01*
X181438Y326924D01*
X181379Y326972D01*
X181318Y327017D01*
X181255Y327058D01*
X181189Y327097D01*
X181122Y327132D01*
X181053Y327164D01*
X180982Y327192D01*
X180911Y327216D01*
X180838Y327237D01*
X180764Y327254D01*
X180689Y327268D01*
X180614Y327277D01*
X180538Y327283D01*
X180462Y327285D01*
X181548Y326820D02*
X184653Y324181D01*
X184653Y327286D01*
X180462Y332772D02*
X180389Y332770D01*
X180316Y332764D01*
X180243Y332755D01*
X180172Y332741D01*
X180100Y332724D01*
X180030Y332704D01*
X179961Y332679D01*
X179894Y332651D01*
X179828Y332620D01*
X179764Y332585D01*
X179701Y332547D01*
X179641Y332505D01*
X179583Y332461D01*
X179527Y332413D01*
X179474Y332363D01*
X179424Y332310D01*
X179376Y332254D01*
X179332Y332196D01*
X179290Y332136D01*
X179252Y332074D01*
X179217Y332009D01*
X179186Y331943D01*
X179158Y331876D01*
X179133Y331807D01*
X179113Y331737D01*
X179096Y331665D01*
X179082Y331594D01*
X179073Y331521D01*
X179067Y331448D01*
X179065Y331375D01*
X179067Y331291D01*
X179073Y331208D01*
X179082Y331125D01*
X179096Y331042D01*
X179113Y330961D01*
X179135Y330880D01*
X179160Y330800D01*
X179188Y330722D01*
X179220Y330644D01*
X179256Y330569D01*
X179295Y330495D01*
X179338Y330423D01*
X179384Y330353D01*
X179433Y330286D01*
X179486Y330220D01*
X179541Y330158D01*
X179599Y330098D01*
X179660Y330040D01*
X179723Y329986D01*
X179789Y329934D01*
X179857Y329886D01*
X179928Y329841D01*
X180000Y329799D01*
X180075Y329761D01*
X180151Y329726D01*
X180228Y329695D01*
X180307Y329667D01*
X181548Y332305D02*
X181495Y332359D01*
X181438Y332410D01*
X181379Y332458D01*
X181318Y332503D01*
X181255Y332544D01*
X181189Y332583D01*
X181122Y332618D01*
X181053Y332650D01*
X180982Y332678D01*
X180911Y332702D01*
X180838Y332723D01*
X180764Y332740D01*
X180689Y332754D01*
X180614Y332763D01*
X180538Y332769D01*
X180462Y332771D01*
X181548Y332306D02*
X184653Y329667D01*
X184653Y332772D01*
X181859Y335154D02*
X181728Y335156D01*
X181598Y335161D01*
X181468Y335171D01*
X181338Y335184D01*
X181208Y335200D01*
X181079Y335220D01*
X180951Y335244D01*
X180824Y335272D01*
X180697Y335303D01*
X180571Y335338D01*
X180446Y335376D01*
X180322Y335418D01*
X180200Y335463D01*
X180079Y335512D01*
X179959Y335564D01*
X179841Y335620D01*
X179840Y335619D02*
X179780Y335642D01*
X179720Y335668D01*
X179663Y335697D01*
X179607Y335730D01*
X179553Y335766D01*
X179501Y335804D01*
X179451Y335846D01*
X179404Y335890D01*
X179359Y335937D01*
X179317Y335987D01*
X179278Y336038D01*
X179242Y336092D01*
X179209Y336148D01*
X179179Y336205D01*
X179152Y336264D01*
X179129Y336325D01*
X179109Y336386D01*
X179093Y336449D01*
X179080Y336513D01*
X179071Y336577D01*
X179066Y336641D01*
X179064Y336706D01*
X179066Y336771D01*
X179071Y336835D01*
X179080Y336899D01*
X179093Y336963D01*
X179109Y337026D01*
X179129Y337087D01*
X179152Y337148D01*
X179179Y337207D01*
X179209Y337264D01*
X179242Y337320D01*
X179278Y337374D01*
X179317Y337425D01*
X179359Y337475D01*
X179404Y337522D01*
X179451Y337566D01*
X179501Y337608D01*
X179553Y337646D01*
X179607Y337682D01*
X179663Y337715D01*
X179720Y337744D01*
X179780Y337770D01*
X179840Y337793D01*
X179841Y337793D02*
X179959Y337849D01*
X180079Y337901D01*
X180200Y337950D01*
X180322Y337995D01*
X180446Y338037D01*
X180571Y338075D01*
X180697Y338110D01*
X180823Y338141D01*
X180951Y338169D01*
X181079Y338193D01*
X181208Y338213D01*
X181338Y338229D01*
X181468Y338242D01*
X181598Y338252D01*
X181728Y338257D01*
X181859Y338259D01*
X181859Y335154D02*
X181990Y335156D01*
X182120Y335161D01*
X182250Y335171D01*
X182380Y335184D01*
X182510Y335200D01*
X182639Y335220D01*
X182767Y335244D01*
X182894Y335272D01*
X183021Y335303D01*
X183147Y335338D01*
X183272Y335376D01*
X183396Y335418D01*
X183518Y335463D01*
X183639Y335512D01*
X183759Y335564D01*
X183877Y335620D01*
X183877Y335619D02*
X183937Y335642D01*
X183997Y335668D01*
X184054Y335697D01*
X184110Y335730D01*
X184164Y335766D01*
X184216Y335804D01*
X184266Y335846D01*
X184313Y335890D01*
X184358Y335937D01*
X184400Y335987D01*
X184439Y336038D01*
X184475Y336092D01*
X184508Y336148D01*
X184538Y336205D01*
X184565Y336264D01*
X184588Y336325D01*
X184608Y336386D01*
X184624Y336449D01*
X184637Y336513D01*
X184646Y336577D01*
X184651Y336641D01*
X184653Y336706D01*
X183877Y337793D02*
X183759Y337849D01*
X183639Y337901D01*
X183518Y337950D01*
X183396Y337995D01*
X183272Y338037D01*
X183147Y338075D01*
X183021Y338110D01*
X182895Y338141D01*
X182767Y338169D01*
X182639Y338193D01*
X182510Y338213D01*
X182380Y338229D01*
X182250Y338242D01*
X182120Y338252D01*
X181990Y338257D01*
X181859Y338259D01*
X183877Y337793D02*
X183937Y337770D01*
X183997Y337744D01*
X184054Y337715D01*
X184110Y337682D01*
X184164Y337646D01*
X184216Y337608D01*
X184266Y337566D01*
X184313Y337522D01*
X184358Y337475D01*
X184400Y337425D01*
X184439Y337374D01*
X184475Y337320D01*
X184508Y337264D01*
X184538Y337207D01*
X184565Y337148D01*
X184588Y337087D01*
X184608Y337026D01*
X184624Y336963D01*
X184637Y336899D01*
X184646Y336835D01*
X184651Y336771D01*
X184653Y336706D01*
X183411Y335464D02*
X180307Y337948D01*
X179065Y340834D02*
X184653Y340834D01*
X182790Y340834D02*
X180928Y343318D01*
X182014Y341921D02*
X184653Y343318D01*
X180514Y356589D02*
X179272Y358141D01*
X184860Y358141D01*
X184860Y356589D02*
X184860Y359693D01*
X182066Y362075D02*
X181935Y362077D01*
X181805Y362082D01*
X181675Y362092D01*
X181545Y362105D01*
X181415Y362121D01*
X181286Y362141D01*
X181158Y362165D01*
X181031Y362193D01*
X180904Y362224D01*
X180778Y362259D01*
X180653Y362297D01*
X180529Y362339D01*
X180407Y362384D01*
X180286Y362433D01*
X180166Y362485D01*
X180048Y362541D01*
X180047Y362540D02*
X179987Y362563D01*
X179927Y362589D01*
X179870Y362618D01*
X179814Y362651D01*
X179760Y362687D01*
X179708Y362725D01*
X179658Y362767D01*
X179611Y362811D01*
X179566Y362858D01*
X179524Y362908D01*
X179485Y362959D01*
X179449Y363013D01*
X179416Y363069D01*
X179386Y363126D01*
X179359Y363185D01*
X179336Y363246D01*
X179316Y363307D01*
X179300Y363370D01*
X179287Y363434D01*
X179278Y363498D01*
X179273Y363562D01*
X179271Y363627D01*
X179273Y363692D01*
X179278Y363756D01*
X179287Y363820D01*
X179300Y363884D01*
X179316Y363947D01*
X179336Y364008D01*
X179359Y364069D01*
X179386Y364128D01*
X179416Y364185D01*
X179449Y364241D01*
X179485Y364295D01*
X179524Y364346D01*
X179566Y364396D01*
X179611Y364443D01*
X179658Y364487D01*
X179708Y364529D01*
X179760Y364567D01*
X179814Y364603D01*
X179870Y364636D01*
X179927Y364665D01*
X179987Y364691D01*
X180047Y364714D01*
X180048Y364714D02*
X180166Y364770D01*
X180286Y364822D01*
X180407Y364871D01*
X180529Y364916D01*
X180653Y364958D01*
X180778Y364996D01*
X180904Y365031D01*
X181030Y365062D01*
X181158Y365090D01*
X181286Y365114D01*
X181415Y365134D01*
X181545Y365150D01*
X181675Y365163D01*
X181805Y365173D01*
X181935Y365178D01*
X182066Y365180D01*
X182066Y362075D02*
X182197Y362077D01*
X182327Y362082D01*
X182457Y362092D01*
X182587Y362105D01*
X182717Y362121D01*
X182846Y362141D01*
X182974Y362165D01*
X183101Y362193D01*
X183228Y362224D01*
X183354Y362259D01*
X183479Y362297D01*
X183603Y362339D01*
X183725Y362384D01*
X183846Y362433D01*
X183966Y362485D01*
X184084Y362541D01*
X184084Y362540D02*
X184144Y362563D01*
X184204Y362589D01*
X184261Y362618D01*
X184317Y362651D01*
X184371Y362687D01*
X184423Y362725D01*
X184473Y362767D01*
X184520Y362811D01*
X184565Y362858D01*
X184607Y362908D01*
X184646Y362959D01*
X184682Y363013D01*
X184715Y363069D01*
X184745Y363126D01*
X184772Y363185D01*
X184795Y363246D01*
X184815Y363307D01*
X184831Y363370D01*
X184844Y363434D01*
X184853Y363498D01*
X184858Y363562D01*
X184860Y363627D01*
X184084Y364714D02*
X183966Y364770D01*
X183846Y364822D01*
X183725Y364871D01*
X183603Y364916D01*
X183479Y364958D01*
X183354Y364996D01*
X183228Y365031D01*
X183102Y365062D01*
X182974Y365090D01*
X182846Y365114D01*
X182717Y365134D01*
X182587Y365150D01*
X182457Y365163D01*
X182327Y365173D01*
X182197Y365178D01*
X182066Y365180D01*
X184084Y364714D02*
X184144Y364691D01*
X184204Y364665D01*
X184261Y364636D01*
X184317Y364603D01*
X184371Y364567D01*
X184423Y364529D01*
X184473Y364487D01*
X184520Y364443D01*
X184565Y364396D01*
X184607Y364346D01*
X184646Y364295D01*
X184682Y364241D01*
X184715Y364185D01*
X184745Y364128D01*
X184772Y364069D01*
X184795Y364008D01*
X184815Y363947D01*
X184831Y363884D01*
X184844Y363820D01*
X184853Y363756D01*
X184858Y363692D01*
X184860Y363627D01*
X183618Y362386D02*
X180514Y364869D01*
X182066Y367561D02*
X181935Y367563D01*
X181805Y367568D01*
X181675Y367578D01*
X181545Y367591D01*
X181415Y367607D01*
X181286Y367627D01*
X181158Y367651D01*
X181031Y367679D01*
X180904Y367710D01*
X180778Y367745D01*
X180653Y367783D01*
X180529Y367825D01*
X180407Y367870D01*
X180286Y367919D01*
X180166Y367971D01*
X180048Y368027D01*
X180047Y368027D02*
X179987Y368050D01*
X179927Y368076D01*
X179870Y368105D01*
X179814Y368138D01*
X179760Y368174D01*
X179708Y368212D01*
X179658Y368254D01*
X179611Y368298D01*
X179566Y368345D01*
X179524Y368395D01*
X179485Y368446D01*
X179449Y368500D01*
X179416Y368556D01*
X179386Y368613D01*
X179359Y368672D01*
X179336Y368733D01*
X179316Y368794D01*
X179300Y368857D01*
X179287Y368921D01*
X179278Y368985D01*
X179273Y369049D01*
X179271Y369114D01*
X179273Y369179D01*
X179278Y369243D01*
X179287Y369307D01*
X179300Y369371D01*
X179316Y369434D01*
X179336Y369495D01*
X179359Y369556D01*
X179386Y369615D01*
X179416Y369672D01*
X179449Y369728D01*
X179485Y369782D01*
X179524Y369833D01*
X179566Y369883D01*
X179611Y369930D01*
X179658Y369974D01*
X179708Y370016D01*
X179760Y370054D01*
X179814Y370090D01*
X179870Y370123D01*
X179927Y370152D01*
X179987Y370178D01*
X180047Y370201D01*
X180048Y370200D02*
X180166Y370256D01*
X180286Y370308D01*
X180407Y370357D01*
X180529Y370402D01*
X180653Y370444D01*
X180778Y370482D01*
X180904Y370517D01*
X181030Y370548D01*
X181158Y370576D01*
X181286Y370600D01*
X181415Y370620D01*
X181545Y370636D01*
X181675Y370649D01*
X181805Y370659D01*
X181935Y370664D01*
X182066Y370666D01*
X182066Y367562D02*
X182197Y367564D01*
X182327Y367569D01*
X182457Y367579D01*
X182587Y367592D01*
X182717Y367608D01*
X182846Y367628D01*
X182974Y367652D01*
X183101Y367680D01*
X183228Y367711D01*
X183354Y367746D01*
X183479Y367784D01*
X183603Y367826D01*
X183725Y367871D01*
X183846Y367920D01*
X183966Y367972D01*
X184084Y368028D01*
X184084Y368027D02*
X184144Y368050D01*
X184204Y368076D01*
X184261Y368105D01*
X184317Y368138D01*
X184371Y368174D01*
X184423Y368212D01*
X184473Y368254D01*
X184520Y368298D01*
X184565Y368345D01*
X184607Y368395D01*
X184646Y368446D01*
X184682Y368500D01*
X184715Y368556D01*
X184745Y368613D01*
X184772Y368672D01*
X184795Y368733D01*
X184815Y368794D01*
X184831Y368857D01*
X184844Y368921D01*
X184853Y368985D01*
X184858Y369049D01*
X184860Y369114D01*
X184084Y370200D02*
X183966Y370256D01*
X183846Y370308D01*
X183725Y370357D01*
X183603Y370402D01*
X183479Y370444D01*
X183354Y370482D01*
X183228Y370517D01*
X183102Y370548D01*
X182974Y370576D01*
X182846Y370600D01*
X182717Y370620D01*
X182587Y370636D01*
X182457Y370649D01*
X182327Y370659D01*
X182197Y370664D01*
X182066Y370666D01*
X184084Y370201D02*
X184144Y370178D01*
X184204Y370152D01*
X184261Y370123D01*
X184317Y370090D01*
X184371Y370054D01*
X184423Y370016D01*
X184473Y369974D01*
X184520Y369930D01*
X184565Y369883D01*
X184607Y369833D01*
X184646Y369782D01*
X184682Y369728D01*
X184715Y369672D01*
X184745Y369615D01*
X184772Y369556D01*
X184795Y369495D01*
X184815Y369434D01*
X184831Y369371D01*
X184844Y369307D01*
X184853Y369243D01*
X184858Y369179D01*
X184860Y369114D01*
X183618Y367872D02*
X180514Y370356D01*
X179272Y373242D02*
X184860Y373242D01*
X182997Y373242D02*
X181134Y375725D01*
X182221Y374328D02*
X184860Y375725D01*
M02*
