G04 EAGLE Gerber RS-274X export*
G75*
%MOMM*%
%FSLAX34Y34*%
%LPD*%
%INSilkscreen Bottom*%
%IPPOS*%
%AMOC8*
5,1,8,0,0,1.08239X$1,22.5*%
G01*
%ADD10C,0.127000*%
%ADD11C,0.076200*%
%ADD12C,0.025400*%
%ADD13C,0.100000*%
%ADD14C,0.203200*%
%ADD15C,0.050800*%
%ADD16C,0.101600*%
%ADD17C,0.152400*%


D10*
X226355Y435124D02*
X226355Y432654D01*
X226354Y432654D02*
X226352Y432556D01*
X226346Y432458D01*
X226336Y432360D01*
X226323Y432263D01*
X226305Y432166D01*
X226284Y432070D01*
X226259Y431976D01*
X226230Y431882D01*
X226198Y431789D01*
X226161Y431698D01*
X226122Y431608D01*
X226078Y431520D01*
X226031Y431434D01*
X225981Y431349D01*
X225928Y431267D01*
X225871Y431187D01*
X225811Y431109D01*
X225748Y431034D01*
X225682Y430961D01*
X225613Y430891D01*
X225542Y430824D01*
X225468Y430759D01*
X225391Y430698D01*
X225312Y430639D01*
X225231Y430584D01*
X225148Y430532D01*
X225062Y430484D01*
X224975Y430439D01*
X224886Y430397D01*
X224796Y430359D01*
X224704Y430325D01*
X224611Y430294D01*
X224516Y430267D01*
X224421Y430244D01*
X224324Y430224D01*
X224228Y430209D01*
X224130Y430197D01*
X224032Y430189D01*
X223934Y430185D01*
X223836Y430185D01*
X223738Y430189D01*
X223640Y430197D01*
X223542Y430209D01*
X223446Y430224D01*
X223349Y430244D01*
X223254Y430267D01*
X223159Y430294D01*
X223066Y430325D01*
X222974Y430359D01*
X222884Y430397D01*
X222795Y430439D01*
X222708Y430484D01*
X222622Y430532D01*
X222539Y430584D01*
X222458Y430639D01*
X222379Y430698D01*
X222302Y430759D01*
X222228Y430824D01*
X222157Y430891D01*
X222088Y430961D01*
X222022Y431034D01*
X221959Y431109D01*
X221899Y431187D01*
X221842Y431267D01*
X221789Y431349D01*
X221739Y431434D01*
X221692Y431520D01*
X221648Y431608D01*
X221609Y431698D01*
X221572Y431789D01*
X221540Y431882D01*
X221511Y431976D01*
X221486Y432070D01*
X221465Y432166D01*
X221447Y432263D01*
X221434Y432360D01*
X221424Y432458D01*
X221418Y432556D01*
X221416Y432654D01*
X217465Y432160D02*
X217465Y435124D01*
X217464Y432160D02*
X217466Y432073D01*
X217472Y431985D01*
X217481Y431898D01*
X217495Y431812D01*
X217512Y431726D01*
X217533Y431642D01*
X217558Y431558D01*
X217587Y431475D01*
X217619Y431394D01*
X217654Y431314D01*
X217693Y431236D01*
X217736Y431159D01*
X217782Y431085D01*
X217831Y431013D01*
X217883Y430943D01*
X217939Y430875D01*
X217997Y430810D01*
X218058Y430747D01*
X218122Y430688D01*
X218189Y430631D01*
X218257Y430577D01*
X218329Y430526D01*
X218402Y430479D01*
X218477Y430434D01*
X218555Y430393D01*
X218634Y430356D01*
X218714Y430322D01*
X218796Y430292D01*
X218879Y430265D01*
X218964Y430242D01*
X219049Y430223D01*
X219135Y430208D01*
X219222Y430196D01*
X219309Y430188D01*
X219396Y430184D01*
X219484Y430184D01*
X219571Y430188D01*
X219658Y430196D01*
X219745Y430208D01*
X219831Y430223D01*
X219916Y430242D01*
X220001Y430265D01*
X220084Y430292D01*
X220166Y430322D01*
X220246Y430356D01*
X220325Y430393D01*
X220403Y430434D01*
X220478Y430479D01*
X220551Y430526D01*
X220623Y430577D01*
X220691Y430631D01*
X220758Y430688D01*
X220822Y430747D01*
X220883Y430810D01*
X220941Y430875D01*
X220997Y430943D01*
X221049Y431013D01*
X221098Y431085D01*
X221144Y431159D01*
X221187Y431236D01*
X221226Y431314D01*
X221261Y431394D01*
X221293Y431475D01*
X221322Y431558D01*
X221347Y431642D01*
X221368Y431726D01*
X221385Y431812D01*
X221399Y431898D01*
X221408Y431985D01*
X221414Y432073D01*
X221416Y432160D01*
X221416Y434136D01*
X217465Y426474D02*
X226355Y423510D01*
X217465Y420547D01*
X226355Y416836D02*
X226355Y414366D01*
X226354Y414366D02*
X226352Y414268D01*
X226346Y414170D01*
X226336Y414072D01*
X226323Y413975D01*
X226305Y413878D01*
X226284Y413782D01*
X226259Y413688D01*
X226230Y413594D01*
X226198Y413501D01*
X226161Y413410D01*
X226122Y413320D01*
X226078Y413232D01*
X226031Y413146D01*
X225981Y413061D01*
X225928Y412979D01*
X225871Y412899D01*
X225811Y412821D01*
X225748Y412746D01*
X225682Y412673D01*
X225613Y412603D01*
X225542Y412536D01*
X225468Y412471D01*
X225391Y412410D01*
X225312Y412351D01*
X225231Y412296D01*
X225148Y412244D01*
X225062Y412196D01*
X224975Y412151D01*
X224886Y412109D01*
X224796Y412071D01*
X224704Y412037D01*
X224611Y412006D01*
X224516Y411979D01*
X224421Y411956D01*
X224324Y411936D01*
X224228Y411921D01*
X224130Y411909D01*
X224032Y411901D01*
X223934Y411897D01*
X223836Y411897D01*
X223738Y411901D01*
X223640Y411909D01*
X223542Y411921D01*
X223446Y411936D01*
X223349Y411956D01*
X223254Y411979D01*
X223159Y412006D01*
X223066Y412037D01*
X222974Y412071D01*
X222884Y412109D01*
X222795Y412151D01*
X222708Y412196D01*
X222622Y412244D01*
X222539Y412296D01*
X222458Y412351D01*
X222379Y412410D01*
X222302Y412471D01*
X222228Y412536D01*
X222157Y412603D01*
X222088Y412673D01*
X222022Y412746D01*
X221959Y412821D01*
X221899Y412899D01*
X221842Y412979D01*
X221789Y413061D01*
X221739Y413146D01*
X221692Y413232D01*
X221648Y413320D01*
X221609Y413410D01*
X221572Y413501D01*
X221540Y413594D01*
X221511Y413688D01*
X221486Y413782D01*
X221465Y413878D01*
X221447Y413975D01*
X221434Y414072D01*
X221424Y414170D01*
X221418Y414268D01*
X221416Y414366D01*
X217465Y413872D02*
X217465Y416836D01*
X217464Y413872D02*
X217466Y413785D01*
X217472Y413697D01*
X217481Y413610D01*
X217495Y413524D01*
X217512Y413438D01*
X217533Y413354D01*
X217558Y413270D01*
X217587Y413187D01*
X217619Y413106D01*
X217654Y413026D01*
X217693Y412948D01*
X217736Y412871D01*
X217782Y412797D01*
X217831Y412725D01*
X217883Y412655D01*
X217939Y412587D01*
X217997Y412522D01*
X218058Y412459D01*
X218122Y412400D01*
X218189Y412343D01*
X218257Y412289D01*
X218329Y412238D01*
X218402Y412191D01*
X218477Y412146D01*
X218555Y412105D01*
X218634Y412068D01*
X218714Y412034D01*
X218796Y412004D01*
X218879Y411977D01*
X218964Y411954D01*
X219049Y411935D01*
X219135Y411920D01*
X219222Y411908D01*
X219309Y411900D01*
X219396Y411896D01*
X219484Y411896D01*
X219571Y411900D01*
X219658Y411908D01*
X219745Y411920D01*
X219831Y411935D01*
X219916Y411954D01*
X220001Y411977D01*
X220084Y412004D01*
X220166Y412034D01*
X220246Y412068D01*
X220325Y412105D01*
X220403Y412146D01*
X220478Y412191D01*
X220551Y412238D01*
X220623Y412289D01*
X220691Y412343D01*
X220758Y412400D01*
X220822Y412459D01*
X220883Y412522D01*
X220941Y412587D01*
X220997Y412655D01*
X221049Y412725D01*
X221098Y412797D01*
X221144Y412871D01*
X221187Y412948D01*
X221226Y413026D01*
X221261Y413106D01*
X221293Y413187D01*
X221322Y413270D01*
X221347Y413354D01*
X221368Y413438D01*
X221385Y413524D01*
X221399Y413610D01*
X221408Y413697D01*
X221414Y413785D01*
X221416Y413872D01*
X221416Y415848D01*
X243179Y427516D02*
X245155Y429985D01*
X243179Y427516D02*
X252069Y427516D01*
X252069Y429985D02*
X252069Y425046D01*
X252069Y420841D02*
X252069Y418372D01*
X252067Y418274D01*
X252061Y418176D01*
X252051Y418078D01*
X252038Y417981D01*
X252020Y417884D01*
X251999Y417788D01*
X251974Y417694D01*
X251945Y417600D01*
X251913Y417507D01*
X251876Y417416D01*
X251837Y417326D01*
X251793Y417238D01*
X251746Y417152D01*
X251696Y417067D01*
X251643Y416985D01*
X251586Y416905D01*
X251526Y416827D01*
X251463Y416752D01*
X251397Y416679D01*
X251328Y416609D01*
X251257Y416542D01*
X251183Y416477D01*
X251106Y416416D01*
X251027Y416357D01*
X250946Y416302D01*
X250863Y416250D01*
X250777Y416202D01*
X250690Y416157D01*
X250601Y416115D01*
X250511Y416077D01*
X250419Y416043D01*
X250326Y416012D01*
X250231Y415985D01*
X250136Y415962D01*
X250039Y415942D01*
X249943Y415927D01*
X249845Y415915D01*
X249747Y415907D01*
X249649Y415903D01*
X249551Y415903D01*
X249453Y415907D01*
X249355Y415915D01*
X249257Y415927D01*
X249161Y415942D01*
X249064Y415962D01*
X248969Y415985D01*
X248874Y416012D01*
X248781Y416043D01*
X248689Y416077D01*
X248599Y416115D01*
X248510Y416157D01*
X248423Y416202D01*
X248337Y416250D01*
X248254Y416302D01*
X248173Y416357D01*
X248094Y416416D01*
X248017Y416477D01*
X247943Y416542D01*
X247872Y416609D01*
X247803Y416679D01*
X247737Y416752D01*
X247674Y416827D01*
X247614Y416905D01*
X247557Y416985D01*
X247504Y417067D01*
X247454Y417152D01*
X247407Y417238D01*
X247363Y417326D01*
X247324Y417416D01*
X247287Y417507D01*
X247255Y417600D01*
X247226Y417694D01*
X247201Y417788D01*
X247180Y417884D01*
X247162Y417981D01*
X247149Y418078D01*
X247139Y418176D01*
X247133Y418274D01*
X247131Y418372D01*
X243179Y417878D02*
X243179Y420841D01*
X243179Y417878D02*
X243181Y417791D01*
X243187Y417703D01*
X243196Y417616D01*
X243210Y417530D01*
X243227Y417444D01*
X243248Y417360D01*
X243273Y417276D01*
X243302Y417193D01*
X243334Y417112D01*
X243369Y417032D01*
X243408Y416954D01*
X243451Y416877D01*
X243497Y416803D01*
X243546Y416731D01*
X243598Y416661D01*
X243654Y416593D01*
X243712Y416528D01*
X243773Y416465D01*
X243837Y416406D01*
X243904Y416349D01*
X243972Y416295D01*
X244044Y416244D01*
X244117Y416197D01*
X244192Y416152D01*
X244270Y416111D01*
X244349Y416074D01*
X244429Y416040D01*
X244511Y416010D01*
X244594Y415983D01*
X244679Y415960D01*
X244764Y415941D01*
X244850Y415926D01*
X244937Y415914D01*
X245024Y415906D01*
X245111Y415902D01*
X245199Y415902D01*
X245286Y415906D01*
X245373Y415914D01*
X245460Y415926D01*
X245546Y415941D01*
X245631Y415960D01*
X245716Y415983D01*
X245799Y416010D01*
X245881Y416040D01*
X245961Y416074D01*
X246040Y416111D01*
X246118Y416152D01*
X246193Y416197D01*
X246266Y416244D01*
X246338Y416295D01*
X246406Y416349D01*
X246473Y416406D01*
X246537Y416465D01*
X246598Y416528D01*
X246656Y416593D01*
X246712Y416661D01*
X246764Y416731D01*
X246813Y416803D01*
X246859Y416877D01*
X246902Y416954D01*
X246941Y417032D01*
X246976Y417112D01*
X247008Y417193D01*
X247037Y417276D01*
X247062Y417360D01*
X247083Y417444D01*
X247100Y417530D01*
X247114Y417616D01*
X247123Y417703D01*
X247129Y417791D01*
X247131Y417878D01*
X247131Y419853D01*
X270433Y427516D02*
X272408Y429985D01*
X270433Y427516D02*
X279323Y427516D01*
X279323Y429985D02*
X279323Y425046D01*
X270432Y418125D02*
X270434Y418033D01*
X270440Y417941D01*
X270449Y417850D01*
X270462Y417759D01*
X270479Y417669D01*
X270500Y417579D01*
X270524Y417491D01*
X270552Y417403D01*
X270584Y417317D01*
X270619Y417232D01*
X270658Y417149D01*
X270700Y417067D01*
X270745Y416987D01*
X270794Y416909D01*
X270846Y416833D01*
X270901Y416760D01*
X270959Y416688D01*
X271019Y416619D01*
X271083Y416553D01*
X271149Y416489D01*
X271218Y416429D01*
X271290Y416371D01*
X271363Y416316D01*
X271439Y416264D01*
X271517Y416215D01*
X271597Y416170D01*
X271679Y416128D01*
X271762Y416089D01*
X271847Y416054D01*
X271933Y416022D01*
X272021Y415994D01*
X272109Y415970D01*
X272199Y415949D01*
X272289Y415932D01*
X272380Y415919D01*
X272471Y415910D01*
X272563Y415904D01*
X272655Y415902D01*
X270433Y418125D02*
X270435Y418231D01*
X270441Y418336D01*
X270451Y418441D01*
X270464Y418546D01*
X270482Y418650D01*
X270503Y418753D01*
X270528Y418856D01*
X270557Y418958D01*
X270590Y419058D01*
X270626Y419157D01*
X270666Y419255D01*
X270710Y419351D01*
X270757Y419446D01*
X270807Y419538D01*
X270861Y419629D01*
X270919Y419718D01*
X270979Y419804D01*
X271043Y419888D01*
X271109Y419970D01*
X271179Y420050D01*
X271252Y420126D01*
X271327Y420200D01*
X271405Y420271D01*
X271486Y420339D01*
X271569Y420405D01*
X271655Y420467D01*
X271742Y420525D01*
X271832Y420581D01*
X271924Y420633D01*
X272018Y420682D01*
X272113Y420727D01*
X272210Y420769D01*
X272309Y420807D01*
X272408Y420841D01*
X274384Y416643D02*
X274315Y416574D01*
X274245Y416508D01*
X274171Y416445D01*
X274095Y416386D01*
X274017Y416329D01*
X273937Y416275D01*
X273854Y416225D01*
X273770Y416178D01*
X273683Y416135D01*
X273595Y416095D01*
X273506Y416059D01*
X273415Y416026D01*
X273323Y415997D01*
X273229Y415972D01*
X273135Y415951D01*
X273040Y415933D01*
X272944Y415920D01*
X272848Y415910D01*
X272752Y415904D01*
X272655Y415902D01*
X274384Y416643D02*
X279323Y420841D01*
X279323Y415902D01*
X295116Y427516D02*
X297091Y429985D01*
X295116Y427516D02*
X304006Y427516D01*
X304006Y429985D02*
X304006Y425046D01*
X302030Y420841D02*
X295116Y418865D01*
X302030Y420841D02*
X302030Y415902D01*
X300055Y417384D02*
X304006Y417384D01*
X320205Y427516D02*
X322180Y429985D01*
X320205Y427516D02*
X329095Y427516D01*
X329095Y429985D02*
X329095Y425046D01*
X324156Y420841D02*
X324156Y417878D01*
X324155Y417878D02*
X324157Y417792D01*
X324163Y417706D01*
X324172Y417620D01*
X324185Y417535D01*
X324202Y417450D01*
X324222Y417367D01*
X324246Y417284D01*
X324274Y417202D01*
X324305Y417122D01*
X324340Y417043D01*
X324378Y416966D01*
X324420Y416890D01*
X324464Y416816D01*
X324512Y416745D01*
X324563Y416675D01*
X324617Y416608D01*
X324674Y416543D01*
X324734Y416481D01*
X324796Y416421D01*
X324861Y416364D01*
X324928Y416310D01*
X324998Y416259D01*
X325069Y416211D01*
X325143Y416167D01*
X325219Y416125D01*
X325296Y416087D01*
X325375Y416052D01*
X325455Y416021D01*
X325537Y415993D01*
X325620Y415969D01*
X325703Y415949D01*
X325788Y415932D01*
X325873Y415919D01*
X325959Y415910D01*
X326045Y415904D01*
X326131Y415902D01*
X326625Y415902D01*
X326625Y415903D02*
X326723Y415905D01*
X326821Y415911D01*
X326919Y415921D01*
X327016Y415934D01*
X327113Y415952D01*
X327209Y415973D01*
X327303Y415998D01*
X327397Y416027D01*
X327490Y416059D01*
X327581Y416096D01*
X327671Y416135D01*
X327759Y416179D01*
X327845Y416226D01*
X327930Y416276D01*
X328012Y416329D01*
X328092Y416386D01*
X328170Y416446D01*
X328245Y416509D01*
X328318Y416575D01*
X328388Y416644D01*
X328455Y416715D01*
X328520Y416789D01*
X328581Y416866D01*
X328640Y416945D01*
X328695Y417026D01*
X328747Y417109D01*
X328795Y417195D01*
X328840Y417282D01*
X328882Y417371D01*
X328920Y417461D01*
X328954Y417553D01*
X328985Y417646D01*
X329012Y417741D01*
X329035Y417836D01*
X329055Y417933D01*
X329070Y418029D01*
X329082Y418127D01*
X329090Y418225D01*
X329094Y418323D01*
X329094Y418421D01*
X329090Y418519D01*
X329082Y418617D01*
X329070Y418715D01*
X329055Y418811D01*
X329035Y418908D01*
X329012Y419003D01*
X328985Y419098D01*
X328954Y419191D01*
X328920Y419283D01*
X328882Y419373D01*
X328840Y419462D01*
X328795Y419549D01*
X328747Y419635D01*
X328695Y419718D01*
X328640Y419799D01*
X328581Y419878D01*
X328520Y419955D01*
X328455Y420029D01*
X328388Y420100D01*
X328318Y420169D01*
X328245Y420235D01*
X328170Y420298D01*
X328092Y420358D01*
X328012Y420415D01*
X327930Y420468D01*
X327845Y420518D01*
X327759Y420565D01*
X327671Y420609D01*
X327581Y420648D01*
X327490Y420685D01*
X327397Y420717D01*
X327303Y420746D01*
X327209Y420771D01*
X327113Y420792D01*
X327016Y420810D01*
X326919Y420823D01*
X326821Y420833D01*
X326723Y420839D01*
X326625Y420841D01*
X324156Y420841D01*
X324032Y420839D01*
X323908Y420833D01*
X323784Y420823D01*
X323661Y420810D01*
X323538Y420792D01*
X323416Y420771D01*
X323294Y420746D01*
X323173Y420717D01*
X323054Y420684D01*
X322935Y420648D01*
X322818Y420607D01*
X322702Y420564D01*
X322587Y420516D01*
X322474Y420465D01*
X322362Y420410D01*
X322253Y420352D01*
X322145Y420291D01*
X322039Y420226D01*
X321935Y420158D01*
X321834Y420086D01*
X321734Y420012D01*
X321638Y419934D01*
X321543Y419854D01*
X321451Y419770D01*
X321362Y419684D01*
X321276Y419595D01*
X321192Y419503D01*
X321112Y419408D01*
X321034Y419312D01*
X320960Y419212D01*
X320888Y419111D01*
X320820Y419007D01*
X320755Y418901D01*
X320694Y418793D01*
X320636Y418684D01*
X320581Y418572D01*
X320530Y418459D01*
X320482Y418345D01*
X320439Y418228D01*
X320398Y418111D01*
X320362Y417992D01*
X320329Y417873D01*
X320300Y417752D01*
X320275Y417630D01*
X320254Y417508D01*
X320236Y417385D01*
X320223Y417262D01*
X320213Y417138D01*
X320207Y417014D01*
X320205Y416890D01*
X354363Y426034D02*
X354363Y429985D01*
X345473Y429985D01*
X345473Y426034D01*
X349424Y427022D02*
X349424Y429985D01*
X345473Y422083D02*
X354363Y422083D01*
X354363Y417145D02*
X345473Y422083D01*
X345473Y417145D02*
X354363Y417145D01*
X372084Y427022D02*
X380974Y429985D01*
X380974Y424058D02*
X372084Y427022D01*
X378751Y424799D02*
X378751Y429244D01*
X380974Y420042D02*
X372084Y420042D01*
X372084Y417573D01*
X372086Y417476D01*
X372092Y417379D01*
X372101Y417283D01*
X372114Y417187D01*
X372131Y417091D01*
X372152Y416997D01*
X372177Y416903D01*
X372205Y416810D01*
X372237Y416718D01*
X372272Y416628D01*
X372311Y416539D01*
X372353Y416452D01*
X372399Y416367D01*
X372448Y416283D01*
X372500Y416201D01*
X372556Y416122D01*
X372614Y416044D01*
X372676Y415970D01*
X372740Y415897D01*
X372807Y415827D01*
X372877Y415760D01*
X372950Y415696D01*
X373024Y415634D01*
X373102Y415576D01*
X373181Y415520D01*
X373263Y415468D01*
X373347Y415419D01*
X373432Y415373D01*
X373519Y415331D01*
X373608Y415292D01*
X373698Y415257D01*
X373790Y415225D01*
X373883Y415197D01*
X373977Y415172D01*
X374071Y415151D01*
X374167Y415134D01*
X374263Y415121D01*
X374359Y415112D01*
X374456Y415106D01*
X374553Y415104D01*
X374553Y415103D02*
X378504Y415103D01*
X378504Y415104D02*
X378601Y415106D01*
X378698Y415112D01*
X378794Y415121D01*
X378890Y415134D01*
X378986Y415151D01*
X379080Y415172D01*
X379174Y415197D01*
X379267Y415225D01*
X379359Y415257D01*
X379449Y415292D01*
X379538Y415331D01*
X379625Y415373D01*
X379710Y415419D01*
X379794Y415468D01*
X379876Y415520D01*
X379955Y415576D01*
X380033Y415634D01*
X380107Y415696D01*
X380180Y415760D01*
X380250Y415827D01*
X380317Y415897D01*
X380381Y415970D01*
X380443Y416044D01*
X380501Y416122D01*
X380557Y416201D01*
X380609Y416283D01*
X380658Y416367D01*
X380704Y416452D01*
X380746Y416539D01*
X380785Y416628D01*
X380820Y416718D01*
X380852Y416810D01*
X380880Y416903D01*
X380905Y416997D01*
X380926Y417091D01*
X380943Y417187D01*
X380956Y417283D01*
X380965Y417379D01*
X380971Y417476D01*
X380973Y417573D01*
X380974Y417573D02*
X380974Y420042D01*
X380974Y408652D02*
X380974Y406677D01*
X380974Y408652D02*
X380972Y408738D01*
X380966Y408824D01*
X380957Y408910D01*
X380944Y408995D01*
X380927Y409080D01*
X380907Y409163D01*
X380883Y409246D01*
X380855Y409328D01*
X380824Y409408D01*
X380789Y409487D01*
X380751Y409564D01*
X380709Y409640D01*
X380665Y409714D01*
X380617Y409785D01*
X380566Y409855D01*
X380512Y409922D01*
X380455Y409987D01*
X380395Y410049D01*
X380333Y410109D01*
X380268Y410166D01*
X380201Y410220D01*
X380131Y410271D01*
X380060Y410319D01*
X379986Y410363D01*
X379910Y410405D01*
X379833Y410443D01*
X379754Y410478D01*
X379674Y410509D01*
X379592Y410537D01*
X379509Y410561D01*
X379426Y410581D01*
X379341Y410598D01*
X379256Y410611D01*
X379170Y410620D01*
X379084Y410626D01*
X378998Y410628D01*
X374059Y410628D01*
X373970Y410626D01*
X373882Y410620D01*
X373794Y410610D01*
X373706Y410596D01*
X373619Y410578D01*
X373533Y410557D01*
X373448Y410531D01*
X373365Y410502D01*
X373282Y410469D01*
X373202Y410432D01*
X373123Y410392D01*
X373046Y410348D01*
X372970Y410301D01*
X372898Y410251D01*
X372827Y410197D01*
X372759Y410140D01*
X372693Y410080D01*
X372631Y410018D01*
X372571Y409952D01*
X372514Y409884D01*
X372460Y409813D01*
X372410Y409741D01*
X372363Y409666D01*
X372319Y409588D01*
X372279Y409509D01*
X372242Y409429D01*
X372209Y409346D01*
X372180Y409263D01*
X372154Y409178D01*
X372133Y409092D01*
X372115Y409005D01*
X372101Y408917D01*
X372091Y408829D01*
X372085Y408741D01*
X372083Y408652D01*
X372084Y408652D02*
X372084Y406677D01*
X396728Y429985D02*
X405618Y429985D01*
X396728Y429985D02*
X396728Y427516D01*
X396729Y427516D02*
X396731Y427418D01*
X396737Y427320D01*
X396747Y427222D01*
X396760Y427125D01*
X396778Y427028D01*
X396799Y426932D01*
X396824Y426838D01*
X396853Y426744D01*
X396885Y426651D01*
X396922Y426560D01*
X396961Y426470D01*
X397005Y426382D01*
X397052Y426296D01*
X397102Y426211D01*
X397155Y426129D01*
X397212Y426049D01*
X397272Y425971D01*
X397335Y425896D01*
X397401Y425823D01*
X397470Y425753D01*
X397541Y425686D01*
X397615Y425621D01*
X397692Y425560D01*
X397771Y425501D01*
X397852Y425446D01*
X397935Y425394D01*
X398021Y425346D01*
X398108Y425301D01*
X398197Y425259D01*
X398287Y425221D01*
X398379Y425187D01*
X398472Y425156D01*
X398567Y425129D01*
X398662Y425106D01*
X398759Y425086D01*
X398855Y425071D01*
X398953Y425059D01*
X399051Y425051D01*
X399149Y425047D01*
X399247Y425047D01*
X399345Y425051D01*
X399443Y425059D01*
X399541Y425071D01*
X399637Y425086D01*
X399734Y425106D01*
X399829Y425129D01*
X399924Y425156D01*
X400017Y425187D01*
X400109Y425221D01*
X400199Y425259D01*
X400288Y425301D01*
X400375Y425346D01*
X400461Y425394D01*
X400544Y425446D01*
X400625Y425501D01*
X400704Y425560D01*
X400781Y425621D01*
X400855Y425686D01*
X400926Y425753D01*
X400995Y425823D01*
X401061Y425896D01*
X401124Y425971D01*
X401184Y426049D01*
X401241Y426129D01*
X401294Y426211D01*
X401344Y426296D01*
X401391Y426382D01*
X401435Y426470D01*
X401474Y426560D01*
X401511Y426651D01*
X401543Y426744D01*
X401572Y426838D01*
X401597Y426932D01*
X401618Y427028D01*
X401636Y427125D01*
X401649Y427222D01*
X401659Y427320D01*
X401665Y427418D01*
X401667Y427516D01*
X401667Y429985D01*
X401667Y427022D02*
X405618Y425046D01*
X405619Y418258D02*
X405617Y418172D01*
X405611Y418086D01*
X405602Y418000D01*
X405589Y417915D01*
X405572Y417830D01*
X405552Y417747D01*
X405528Y417664D01*
X405500Y417582D01*
X405469Y417502D01*
X405434Y417423D01*
X405396Y417346D01*
X405354Y417270D01*
X405310Y417196D01*
X405262Y417125D01*
X405211Y417055D01*
X405157Y416988D01*
X405100Y416923D01*
X405040Y416861D01*
X404978Y416801D01*
X404913Y416744D01*
X404846Y416690D01*
X404776Y416639D01*
X404705Y416591D01*
X404631Y416547D01*
X404555Y416505D01*
X404478Y416467D01*
X404399Y416432D01*
X404319Y416401D01*
X404237Y416373D01*
X404154Y416349D01*
X404071Y416329D01*
X403986Y416312D01*
X403901Y416299D01*
X403815Y416290D01*
X403729Y416284D01*
X403643Y416282D01*
X405619Y418258D02*
X405617Y418385D01*
X405611Y418511D01*
X405602Y418638D01*
X405588Y418764D01*
X405571Y418889D01*
X405550Y419014D01*
X405525Y419139D01*
X405496Y419262D01*
X405464Y419385D01*
X405428Y419506D01*
X405388Y419627D01*
X405345Y419746D01*
X405298Y419863D01*
X405247Y419980D01*
X405193Y420094D01*
X405136Y420207D01*
X405075Y420318D01*
X405011Y420428D01*
X404943Y420535D01*
X404873Y420640D01*
X404799Y420743D01*
X404722Y420844D01*
X404642Y420942D01*
X404559Y421038D01*
X404473Y421131D01*
X404384Y421222D01*
X398704Y420975D02*
X398618Y420973D01*
X398532Y420967D01*
X398446Y420958D01*
X398361Y420945D01*
X398276Y420928D01*
X398193Y420908D01*
X398110Y420884D01*
X398028Y420856D01*
X397948Y420825D01*
X397869Y420790D01*
X397792Y420752D01*
X397716Y420710D01*
X397642Y420666D01*
X397571Y420618D01*
X397501Y420567D01*
X397434Y420513D01*
X397369Y420456D01*
X397307Y420396D01*
X397247Y420334D01*
X397190Y420269D01*
X397136Y420202D01*
X397085Y420132D01*
X397037Y420061D01*
X396993Y419987D01*
X396951Y419911D01*
X396913Y419834D01*
X396878Y419755D01*
X396847Y419675D01*
X396819Y419593D01*
X396795Y419510D01*
X396775Y419427D01*
X396758Y419342D01*
X396745Y419257D01*
X396736Y419171D01*
X396730Y419085D01*
X396728Y418999D01*
X396730Y418880D01*
X396736Y418761D01*
X396745Y418642D01*
X396759Y418524D01*
X396776Y418406D01*
X396797Y418288D01*
X396822Y418172D01*
X396850Y418056D01*
X396882Y417941D01*
X396918Y417828D01*
X396958Y417715D01*
X397001Y417604D01*
X397047Y417494D01*
X397097Y417386D01*
X397151Y417280D01*
X397208Y417175D01*
X397268Y417073D01*
X397332Y416972D01*
X397399Y416873D01*
X397469Y416777D01*
X400432Y419986D02*
X400387Y420060D01*
X400338Y420132D01*
X400286Y420202D01*
X400231Y420269D01*
X400173Y420334D01*
X400113Y420396D01*
X400050Y420456D01*
X399984Y420512D01*
X399916Y420566D01*
X399846Y420617D01*
X399774Y420665D01*
X399699Y420710D01*
X399623Y420751D01*
X399545Y420789D01*
X399465Y420824D01*
X399384Y420855D01*
X399302Y420883D01*
X399219Y420907D01*
X399135Y420927D01*
X399049Y420944D01*
X398964Y420957D01*
X398877Y420966D01*
X398791Y420972D01*
X398704Y420974D01*
X401915Y417271D02*
X401960Y417197D01*
X402009Y417125D01*
X402061Y417055D01*
X402116Y416988D01*
X402174Y416923D01*
X402234Y416861D01*
X402297Y416802D01*
X402363Y416745D01*
X402431Y416691D01*
X402501Y416640D01*
X402573Y416592D01*
X402648Y416547D01*
X402724Y416506D01*
X402802Y416468D01*
X402882Y416433D01*
X402963Y416402D01*
X403045Y416374D01*
X403128Y416350D01*
X403212Y416330D01*
X403298Y416313D01*
X403383Y416300D01*
X403470Y416291D01*
X403556Y416285D01*
X403643Y416283D01*
X401914Y417270D02*
X400432Y419987D01*
X396728Y410522D02*
X405618Y410522D01*
X396728Y412992D02*
X396728Y408053D01*
X222189Y280943D02*
X222189Y279461D01*
X227128Y279461D01*
X227128Y282425D01*
X227129Y282425D02*
X227127Y282511D01*
X227121Y282597D01*
X227112Y282683D01*
X227099Y282768D01*
X227082Y282853D01*
X227062Y282936D01*
X227038Y283019D01*
X227010Y283101D01*
X226979Y283181D01*
X226944Y283260D01*
X226906Y283337D01*
X226864Y283413D01*
X226820Y283487D01*
X226772Y283558D01*
X226721Y283628D01*
X226667Y283695D01*
X226610Y283760D01*
X226550Y283822D01*
X226488Y283882D01*
X226423Y283939D01*
X226356Y283993D01*
X226286Y284044D01*
X226215Y284092D01*
X226141Y284136D01*
X226065Y284178D01*
X225988Y284216D01*
X225909Y284251D01*
X225829Y284282D01*
X225747Y284310D01*
X225664Y284334D01*
X225581Y284354D01*
X225496Y284371D01*
X225411Y284384D01*
X225325Y284393D01*
X225239Y284399D01*
X225153Y284401D01*
X225153Y284400D02*
X220214Y284400D01*
X220125Y284398D01*
X220037Y284392D01*
X219949Y284382D01*
X219861Y284368D01*
X219774Y284350D01*
X219688Y284329D01*
X219603Y284303D01*
X219520Y284274D01*
X219437Y284241D01*
X219357Y284204D01*
X219278Y284164D01*
X219201Y284120D01*
X219125Y284073D01*
X219053Y284023D01*
X218982Y283969D01*
X218914Y283912D01*
X218848Y283852D01*
X218786Y283790D01*
X218726Y283724D01*
X218669Y283656D01*
X218615Y283585D01*
X218565Y283513D01*
X218518Y283438D01*
X218474Y283360D01*
X218434Y283281D01*
X218397Y283201D01*
X218364Y283118D01*
X218335Y283035D01*
X218309Y282950D01*
X218288Y282864D01*
X218270Y282777D01*
X218256Y282689D01*
X218246Y282601D01*
X218240Y282513D01*
X218238Y282424D01*
X218238Y282425D02*
X218238Y279461D01*
X218238Y274647D02*
X227128Y274647D01*
X227128Y269708D02*
X218238Y274647D01*
X218238Y269708D02*
X227128Y269708D01*
X227128Y264893D02*
X218238Y264893D01*
X218238Y262424D01*
X218239Y262424D02*
X218241Y262327D01*
X218247Y262230D01*
X218256Y262134D01*
X218269Y262038D01*
X218286Y261942D01*
X218307Y261848D01*
X218332Y261754D01*
X218360Y261661D01*
X218392Y261569D01*
X218427Y261479D01*
X218466Y261390D01*
X218508Y261303D01*
X218554Y261218D01*
X218603Y261134D01*
X218655Y261052D01*
X218711Y260973D01*
X218769Y260895D01*
X218831Y260821D01*
X218895Y260748D01*
X218962Y260678D01*
X219032Y260611D01*
X219105Y260547D01*
X219179Y260485D01*
X219257Y260427D01*
X219336Y260371D01*
X219418Y260319D01*
X219502Y260270D01*
X219587Y260224D01*
X219674Y260182D01*
X219763Y260143D01*
X219853Y260108D01*
X219945Y260076D01*
X220038Y260048D01*
X220132Y260023D01*
X220226Y260002D01*
X220322Y259985D01*
X220418Y259972D01*
X220514Y259963D01*
X220611Y259957D01*
X220708Y259955D01*
X220708Y259954D02*
X224659Y259954D01*
X224659Y259955D02*
X224756Y259957D01*
X224853Y259963D01*
X224949Y259972D01*
X225045Y259985D01*
X225141Y260002D01*
X225235Y260023D01*
X225329Y260048D01*
X225422Y260076D01*
X225514Y260108D01*
X225604Y260143D01*
X225693Y260182D01*
X225780Y260224D01*
X225865Y260270D01*
X225949Y260319D01*
X226031Y260371D01*
X226110Y260427D01*
X226188Y260485D01*
X226262Y260547D01*
X226335Y260611D01*
X226405Y260678D01*
X226472Y260748D01*
X226536Y260821D01*
X226598Y260895D01*
X226656Y260973D01*
X226712Y261052D01*
X226764Y261134D01*
X226813Y261218D01*
X226859Y261303D01*
X226901Y261390D01*
X226940Y261479D01*
X226975Y261569D01*
X227007Y261661D01*
X227035Y261754D01*
X227060Y261848D01*
X227081Y261942D01*
X227098Y262038D01*
X227111Y262134D01*
X227120Y262230D01*
X227126Y262327D01*
X227128Y262424D01*
X227128Y264893D01*
X243493Y276516D02*
X245469Y278985D01*
X243493Y276516D02*
X252383Y276516D01*
X252383Y278985D02*
X252383Y274046D01*
X252383Y269841D02*
X252383Y266878D01*
X252384Y266878D02*
X252382Y266789D01*
X252376Y266701D01*
X252366Y266613D01*
X252352Y266525D01*
X252334Y266438D01*
X252313Y266352D01*
X252287Y266267D01*
X252258Y266184D01*
X252225Y266101D01*
X252188Y266021D01*
X252148Y265942D01*
X252104Y265865D01*
X252057Y265789D01*
X252007Y265717D01*
X251953Y265646D01*
X251896Y265578D01*
X251836Y265512D01*
X251774Y265450D01*
X251708Y265390D01*
X251640Y265333D01*
X251569Y265279D01*
X251497Y265229D01*
X251422Y265182D01*
X251344Y265138D01*
X251265Y265098D01*
X251185Y265061D01*
X251102Y265028D01*
X251019Y264999D01*
X250934Y264973D01*
X250848Y264952D01*
X250761Y264934D01*
X250673Y264920D01*
X250585Y264910D01*
X250497Y264904D01*
X250408Y264902D01*
X249420Y264902D01*
X249334Y264904D01*
X249248Y264910D01*
X249162Y264919D01*
X249077Y264932D01*
X248992Y264949D01*
X248909Y264969D01*
X248826Y264993D01*
X248744Y265021D01*
X248664Y265052D01*
X248585Y265087D01*
X248508Y265125D01*
X248432Y265167D01*
X248358Y265211D01*
X248287Y265259D01*
X248217Y265310D01*
X248150Y265364D01*
X248085Y265421D01*
X248023Y265481D01*
X247963Y265543D01*
X247906Y265608D01*
X247852Y265675D01*
X247801Y265745D01*
X247753Y265816D01*
X247709Y265890D01*
X247667Y265966D01*
X247629Y266043D01*
X247594Y266122D01*
X247563Y266202D01*
X247535Y266284D01*
X247511Y266367D01*
X247491Y266450D01*
X247474Y266535D01*
X247461Y266620D01*
X247452Y266706D01*
X247446Y266792D01*
X247444Y266878D01*
X247444Y269841D01*
X243493Y269841D01*
X243493Y264902D01*
X270141Y278244D02*
X270299Y278319D01*
X270459Y278390D01*
X270620Y278457D01*
X270783Y278520D01*
X270948Y278580D01*
X271114Y278635D01*
X271281Y278686D01*
X271449Y278734D01*
X271619Y278777D01*
X271789Y278817D01*
X271960Y278852D01*
X272132Y278883D01*
X272305Y278910D01*
X272479Y278933D01*
X272652Y278952D01*
X272827Y278966D01*
X273001Y278977D01*
X273176Y278983D01*
X273351Y278985D01*
X270140Y278244D02*
X270062Y278215D01*
X269984Y278183D01*
X269909Y278146D01*
X269835Y278107D01*
X269763Y278064D01*
X269692Y278018D01*
X269625Y277968D01*
X269559Y277916D01*
X269496Y277861D01*
X269436Y277802D01*
X269378Y277741D01*
X269323Y277678D01*
X269271Y277612D01*
X269222Y277543D01*
X269177Y277473D01*
X269134Y277401D01*
X269095Y277326D01*
X269060Y277250D01*
X269028Y277173D01*
X269000Y277094D01*
X268975Y277013D01*
X268954Y276932D01*
X268937Y276850D01*
X268923Y276767D01*
X268914Y276684D01*
X268908Y276600D01*
X268906Y276516D01*
X268908Y276432D01*
X268914Y276348D01*
X268923Y276265D01*
X268937Y276182D01*
X268954Y276100D01*
X268975Y276019D01*
X269000Y275938D01*
X269028Y275859D01*
X269060Y275782D01*
X269095Y275706D01*
X269134Y275631D01*
X269177Y275559D01*
X269222Y275488D01*
X269271Y275420D01*
X269323Y275354D01*
X269378Y275291D01*
X269436Y275230D01*
X269496Y275171D01*
X269559Y275116D01*
X269625Y275064D01*
X269692Y275014D01*
X269763Y274968D01*
X269835Y274925D01*
X269909Y274886D01*
X269984Y274849D01*
X270062Y274817D01*
X270140Y274788D01*
X270141Y274787D02*
X270299Y274712D01*
X270459Y274641D01*
X270620Y274574D01*
X270783Y274511D01*
X270948Y274451D01*
X271114Y274396D01*
X271281Y274345D01*
X271449Y274297D01*
X271619Y274254D01*
X271789Y274214D01*
X271960Y274179D01*
X272132Y274148D01*
X272305Y274121D01*
X272479Y274098D01*
X272652Y274079D01*
X272827Y274065D01*
X273001Y274054D01*
X273176Y274048D01*
X273351Y274046D01*
X273351Y278985D02*
X273526Y278983D01*
X273701Y278977D01*
X273875Y278966D01*
X274050Y278952D01*
X274223Y278933D01*
X274397Y278910D01*
X274570Y278883D01*
X274742Y278852D01*
X274913Y278817D01*
X275083Y278777D01*
X275253Y278734D01*
X275421Y278686D01*
X275588Y278635D01*
X275754Y278580D01*
X275919Y278520D01*
X276082Y278457D01*
X276243Y278390D01*
X276403Y278319D01*
X276561Y278244D01*
X276639Y278215D01*
X276717Y278183D01*
X276792Y278146D01*
X276866Y278107D01*
X276939Y278064D01*
X277009Y278018D01*
X277076Y277968D01*
X277142Y277916D01*
X277205Y277860D01*
X277266Y277802D01*
X277323Y277741D01*
X277378Y277678D01*
X277430Y277612D01*
X277479Y277543D01*
X277524Y277473D01*
X277567Y277401D01*
X277606Y277326D01*
X277641Y277250D01*
X277673Y277172D01*
X277701Y277093D01*
X277726Y277013D01*
X277747Y276932D01*
X277764Y276850D01*
X277778Y276767D01*
X277787Y276684D01*
X277793Y276600D01*
X277795Y276516D01*
X276561Y274787D02*
X276403Y274712D01*
X276243Y274641D01*
X276082Y274574D01*
X275919Y274511D01*
X275754Y274451D01*
X275588Y274396D01*
X275421Y274345D01*
X275253Y274297D01*
X275083Y274254D01*
X274913Y274214D01*
X274742Y274179D01*
X274570Y274148D01*
X274397Y274121D01*
X274223Y274098D01*
X274050Y274079D01*
X273875Y274065D01*
X273701Y274054D01*
X273526Y274048D01*
X273351Y274046D01*
X276561Y274788D02*
X276639Y274817D01*
X276717Y274849D01*
X276792Y274886D01*
X276866Y274925D01*
X276939Y274968D01*
X277009Y275014D01*
X277076Y275064D01*
X277142Y275116D01*
X277205Y275172D01*
X277265Y275230D01*
X277323Y275291D01*
X277378Y275354D01*
X277430Y275420D01*
X277479Y275489D01*
X277524Y275559D01*
X277567Y275631D01*
X277606Y275706D01*
X277641Y275782D01*
X277673Y275860D01*
X277701Y275939D01*
X277726Y276019D01*
X277747Y276100D01*
X277764Y276182D01*
X277778Y276265D01*
X277787Y276348D01*
X277793Y276432D01*
X277795Y276516D01*
X275820Y278491D02*
X270881Y274540D01*
X268905Y267125D02*
X268907Y267033D01*
X268913Y266941D01*
X268922Y266850D01*
X268935Y266759D01*
X268952Y266669D01*
X268973Y266579D01*
X268997Y266491D01*
X269025Y266403D01*
X269057Y266317D01*
X269092Y266232D01*
X269131Y266149D01*
X269173Y266067D01*
X269218Y265987D01*
X269267Y265909D01*
X269319Y265833D01*
X269374Y265760D01*
X269432Y265688D01*
X269492Y265619D01*
X269556Y265553D01*
X269622Y265489D01*
X269691Y265429D01*
X269763Y265371D01*
X269836Y265316D01*
X269912Y265264D01*
X269990Y265215D01*
X270070Y265170D01*
X270152Y265128D01*
X270235Y265089D01*
X270320Y265054D01*
X270406Y265022D01*
X270494Y264994D01*
X270582Y264970D01*
X270672Y264949D01*
X270762Y264932D01*
X270853Y264919D01*
X270944Y264910D01*
X271036Y264904D01*
X271128Y264902D01*
X268906Y267125D02*
X268908Y267231D01*
X268914Y267336D01*
X268924Y267441D01*
X268937Y267546D01*
X268955Y267650D01*
X268976Y267753D01*
X269001Y267856D01*
X269030Y267958D01*
X269063Y268058D01*
X269099Y268157D01*
X269139Y268255D01*
X269183Y268351D01*
X269230Y268446D01*
X269280Y268538D01*
X269334Y268629D01*
X269392Y268718D01*
X269452Y268804D01*
X269516Y268888D01*
X269582Y268970D01*
X269652Y269050D01*
X269725Y269126D01*
X269800Y269200D01*
X269878Y269271D01*
X269959Y269339D01*
X270042Y269405D01*
X270128Y269467D01*
X270215Y269525D01*
X270305Y269581D01*
X270397Y269633D01*
X270491Y269682D01*
X270586Y269727D01*
X270683Y269769D01*
X270782Y269807D01*
X270881Y269841D01*
X272857Y265643D02*
X272788Y265574D01*
X272718Y265508D01*
X272644Y265445D01*
X272568Y265386D01*
X272490Y265329D01*
X272410Y265275D01*
X272327Y265225D01*
X272243Y265178D01*
X272156Y265135D01*
X272068Y265095D01*
X271979Y265059D01*
X271888Y265026D01*
X271796Y264997D01*
X271702Y264972D01*
X271608Y264951D01*
X271513Y264933D01*
X271417Y264920D01*
X271321Y264910D01*
X271225Y264904D01*
X271128Y264902D01*
X272857Y265643D02*
X277796Y269841D01*
X277796Y264902D01*
X295679Y278244D02*
X295837Y278319D01*
X295997Y278390D01*
X296158Y278457D01*
X296321Y278520D01*
X296486Y278580D01*
X296652Y278635D01*
X296819Y278686D01*
X296987Y278734D01*
X297157Y278777D01*
X297327Y278817D01*
X297498Y278852D01*
X297670Y278883D01*
X297843Y278910D01*
X298017Y278933D01*
X298190Y278952D01*
X298365Y278966D01*
X298539Y278977D01*
X298714Y278983D01*
X298889Y278985D01*
X295679Y278244D02*
X295601Y278215D01*
X295523Y278183D01*
X295448Y278146D01*
X295374Y278107D01*
X295302Y278064D01*
X295231Y278018D01*
X295164Y277968D01*
X295098Y277916D01*
X295035Y277861D01*
X294975Y277802D01*
X294917Y277741D01*
X294862Y277678D01*
X294810Y277612D01*
X294761Y277543D01*
X294716Y277473D01*
X294673Y277401D01*
X294634Y277326D01*
X294599Y277250D01*
X294567Y277173D01*
X294539Y277094D01*
X294514Y277013D01*
X294493Y276932D01*
X294476Y276850D01*
X294462Y276767D01*
X294453Y276684D01*
X294447Y276600D01*
X294445Y276516D01*
X294447Y276432D01*
X294453Y276348D01*
X294462Y276265D01*
X294476Y276182D01*
X294493Y276100D01*
X294514Y276019D01*
X294539Y275938D01*
X294567Y275859D01*
X294599Y275782D01*
X294634Y275706D01*
X294673Y275631D01*
X294716Y275559D01*
X294761Y275488D01*
X294810Y275420D01*
X294862Y275354D01*
X294917Y275291D01*
X294975Y275230D01*
X295035Y275171D01*
X295098Y275116D01*
X295164Y275064D01*
X295231Y275014D01*
X295302Y274968D01*
X295374Y274925D01*
X295448Y274886D01*
X295523Y274849D01*
X295601Y274817D01*
X295679Y274788D01*
X295679Y274787D02*
X295837Y274712D01*
X295997Y274641D01*
X296158Y274574D01*
X296321Y274511D01*
X296486Y274451D01*
X296652Y274396D01*
X296819Y274345D01*
X296987Y274297D01*
X297157Y274254D01*
X297327Y274214D01*
X297498Y274179D01*
X297670Y274148D01*
X297843Y274121D01*
X298017Y274098D01*
X298190Y274079D01*
X298365Y274065D01*
X298539Y274054D01*
X298714Y274048D01*
X298889Y274046D01*
X298889Y278985D02*
X299064Y278983D01*
X299239Y278977D01*
X299413Y278966D01*
X299588Y278952D01*
X299761Y278933D01*
X299935Y278910D01*
X300108Y278883D01*
X300280Y278852D01*
X300451Y278817D01*
X300621Y278777D01*
X300791Y278734D01*
X300959Y278686D01*
X301126Y278635D01*
X301292Y278580D01*
X301457Y278520D01*
X301620Y278457D01*
X301781Y278390D01*
X301941Y278319D01*
X302099Y278244D01*
X302100Y278244D02*
X302178Y278215D01*
X302256Y278183D01*
X302331Y278146D01*
X302405Y278107D01*
X302478Y278064D01*
X302548Y278018D01*
X302615Y277968D01*
X302681Y277916D01*
X302744Y277860D01*
X302805Y277802D01*
X302862Y277741D01*
X302917Y277678D01*
X302969Y277612D01*
X303018Y277543D01*
X303063Y277473D01*
X303106Y277401D01*
X303145Y277326D01*
X303180Y277250D01*
X303212Y277172D01*
X303240Y277093D01*
X303265Y277013D01*
X303286Y276932D01*
X303303Y276850D01*
X303317Y276767D01*
X303326Y276684D01*
X303332Y276600D01*
X303334Y276516D01*
X302099Y274787D02*
X301941Y274712D01*
X301781Y274641D01*
X301620Y274574D01*
X301457Y274511D01*
X301292Y274451D01*
X301126Y274396D01*
X300959Y274345D01*
X300791Y274297D01*
X300621Y274254D01*
X300451Y274214D01*
X300280Y274179D01*
X300108Y274148D01*
X299935Y274121D01*
X299761Y274098D01*
X299588Y274079D01*
X299413Y274065D01*
X299239Y274054D01*
X299064Y274048D01*
X298889Y274046D01*
X302100Y274788D02*
X302178Y274817D01*
X302256Y274849D01*
X302331Y274886D01*
X302405Y274925D01*
X302478Y274968D01*
X302548Y275014D01*
X302615Y275064D01*
X302681Y275116D01*
X302744Y275172D01*
X302804Y275230D01*
X302862Y275291D01*
X302917Y275354D01*
X302969Y275420D01*
X303018Y275489D01*
X303063Y275559D01*
X303106Y275631D01*
X303145Y275706D01*
X303180Y275782D01*
X303212Y275860D01*
X303240Y275939D01*
X303265Y276019D01*
X303286Y276100D01*
X303303Y276182D01*
X303317Y276265D01*
X303326Y276348D01*
X303332Y276432D01*
X303334Y276516D01*
X301359Y278491D02*
X296420Y274540D01*
X298889Y269841D02*
X298714Y269839D01*
X298539Y269833D01*
X298365Y269822D01*
X298190Y269808D01*
X298017Y269789D01*
X297843Y269766D01*
X297670Y269739D01*
X297498Y269708D01*
X297327Y269673D01*
X297157Y269633D01*
X296987Y269590D01*
X296819Y269542D01*
X296652Y269491D01*
X296486Y269436D01*
X296321Y269376D01*
X296158Y269313D01*
X295997Y269246D01*
X295837Y269175D01*
X295679Y269100D01*
X295601Y269071D01*
X295523Y269039D01*
X295448Y269002D01*
X295374Y268963D01*
X295302Y268920D01*
X295231Y268874D01*
X295164Y268824D01*
X295098Y268772D01*
X295035Y268717D01*
X294975Y268658D01*
X294917Y268597D01*
X294862Y268534D01*
X294810Y268468D01*
X294761Y268399D01*
X294716Y268329D01*
X294673Y268257D01*
X294634Y268182D01*
X294599Y268106D01*
X294567Y268029D01*
X294539Y267950D01*
X294514Y267869D01*
X294493Y267788D01*
X294476Y267706D01*
X294462Y267623D01*
X294453Y267540D01*
X294447Y267456D01*
X294445Y267372D01*
X294447Y267288D01*
X294453Y267204D01*
X294462Y267121D01*
X294476Y267038D01*
X294493Y266956D01*
X294514Y266875D01*
X294539Y266794D01*
X294567Y266715D01*
X294599Y266638D01*
X294634Y266562D01*
X294673Y266487D01*
X294716Y266415D01*
X294761Y266344D01*
X294810Y266276D01*
X294862Y266210D01*
X294917Y266147D01*
X294975Y266086D01*
X295035Y266027D01*
X295098Y265972D01*
X295164Y265920D01*
X295231Y265870D01*
X295302Y265824D01*
X295374Y265781D01*
X295448Y265742D01*
X295523Y265705D01*
X295601Y265673D01*
X295679Y265644D01*
X295679Y265643D02*
X295837Y265568D01*
X295997Y265497D01*
X296158Y265430D01*
X296321Y265367D01*
X296486Y265307D01*
X296652Y265252D01*
X296819Y265201D01*
X296987Y265153D01*
X297157Y265110D01*
X297327Y265070D01*
X297498Y265035D01*
X297670Y265004D01*
X297843Y264977D01*
X298017Y264954D01*
X298190Y264935D01*
X298365Y264921D01*
X298539Y264910D01*
X298714Y264904D01*
X298889Y264902D01*
X298889Y269841D02*
X299064Y269839D01*
X299239Y269833D01*
X299413Y269822D01*
X299588Y269808D01*
X299761Y269789D01*
X299935Y269766D01*
X300108Y269739D01*
X300280Y269708D01*
X300451Y269673D01*
X300621Y269633D01*
X300791Y269590D01*
X300959Y269542D01*
X301126Y269491D01*
X301292Y269436D01*
X301457Y269376D01*
X301620Y269313D01*
X301781Y269246D01*
X301941Y269175D01*
X302099Y269100D01*
X302100Y269100D02*
X302178Y269071D01*
X302256Y269039D01*
X302331Y269002D01*
X302405Y268963D01*
X302478Y268920D01*
X302548Y268874D01*
X302615Y268824D01*
X302681Y268772D01*
X302744Y268716D01*
X302805Y268658D01*
X302862Y268597D01*
X302917Y268534D01*
X302969Y268468D01*
X303018Y268399D01*
X303063Y268329D01*
X303106Y268257D01*
X303145Y268182D01*
X303180Y268106D01*
X303212Y268028D01*
X303240Y267949D01*
X303265Y267869D01*
X303286Y267788D01*
X303303Y267706D01*
X303317Y267623D01*
X303326Y267540D01*
X303332Y267456D01*
X303334Y267372D01*
X302099Y265643D02*
X301941Y265568D01*
X301781Y265497D01*
X301620Y265430D01*
X301457Y265367D01*
X301292Y265307D01*
X301126Y265252D01*
X300959Y265201D01*
X300791Y265153D01*
X300621Y265110D01*
X300451Y265070D01*
X300280Y265035D01*
X300108Y265004D01*
X299935Y264977D01*
X299761Y264954D01*
X299588Y264935D01*
X299413Y264921D01*
X299239Y264910D01*
X299064Y264904D01*
X298889Y264902D01*
X302100Y265644D02*
X302178Y265673D01*
X302256Y265705D01*
X302331Y265742D01*
X302405Y265781D01*
X302478Y265824D01*
X302548Y265870D01*
X302615Y265920D01*
X302681Y265972D01*
X302744Y266028D01*
X302804Y266086D01*
X302862Y266147D01*
X302917Y266210D01*
X302969Y266276D01*
X303018Y266345D01*
X303063Y266415D01*
X303106Y266487D01*
X303145Y266562D01*
X303180Y266638D01*
X303212Y266716D01*
X303240Y266795D01*
X303265Y266875D01*
X303286Y266956D01*
X303303Y267038D01*
X303317Y267121D01*
X303326Y267204D01*
X303332Y267288D01*
X303334Y267372D01*
X301359Y269347D02*
X296420Y265396D01*
X346875Y278244D02*
X347033Y278319D01*
X347193Y278390D01*
X347354Y278457D01*
X347517Y278520D01*
X347682Y278580D01*
X347848Y278635D01*
X348015Y278686D01*
X348183Y278734D01*
X348353Y278777D01*
X348523Y278817D01*
X348694Y278852D01*
X348866Y278883D01*
X349039Y278910D01*
X349213Y278933D01*
X349386Y278952D01*
X349561Y278966D01*
X349735Y278977D01*
X349910Y278983D01*
X350085Y278985D01*
X346875Y278244D02*
X346797Y278215D01*
X346719Y278183D01*
X346644Y278146D01*
X346570Y278107D01*
X346498Y278064D01*
X346427Y278018D01*
X346360Y277968D01*
X346294Y277916D01*
X346231Y277861D01*
X346171Y277802D01*
X346113Y277741D01*
X346058Y277678D01*
X346006Y277612D01*
X345957Y277543D01*
X345912Y277473D01*
X345869Y277401D01*
X345830Y277326D01*
X345795Y277250D01*
X345763Y277173D01*
X345735Y277094D01*
X345710Y277013D01*
X345689Y276932D01*
X345672Y276850D01*
X345658Y276767D01*
X345649Y276684D01*
X345643Y276600D01*
X345641Y276516D01*
X345643Y276432D01*
X345649Y276348D01*
X345658Y276265D01*
X345672Y276182D01*
X345689Y276100D01*
X345710Y276019D01*
X345735Y275938D01*
X345763Y275859D01*
X345795Y275782D01*
X345830Y275706D01*
X345869Y275631D01*
X345912Y275559D01*
X345957Y275488D01*
X346006Y275420D01*
X346058Y275354D01*
X346113Y275291D01*
X346171Y275230D01*
X346231Y275171D01*
X346294Y275116D01*
X346360Y275064D01*
X346427Y275014D01*
X346498Y274968D01*
X346570Y274925D01*
X346644Y274886D01*
X346719Y274849D01*
X346797Y274817D01*
X346875Y274788D01*
X346875Y274787D02*
X347033Y274712D01*
X347193Y274641D01*
X347354Y274574D01*
X347517Y274511D01*
X347682Y274451D01*
X347848Y274396D01*
X348015Y274345D01*
X348183Y274297D01*
X348353Y274254D01*
X348523Y274214D01*
X348694Y274179D01*
X348866Y274148D01*
X349039Y274121D01*
X349213Y274098D01*
X349386Y274079D01*
X349561Y274065D01*
X349735Y274054D01*
X349910Y274048D01*
X350085Y274046D01*
X350085Y278985D02*
X350260Y278983D01*
X350435Y278977D01*
X350609Y278966D01*
X350784Y278952D01*
X350957Y278933D01*
X351131Y278910D01*
X351304Y278883D01*
X351476Y278852D01*
X351647Y278817D01*
X351817Y278777D01*
X351987Y278734D01*
X352155Y278686D01*
X352322Y278635D01*
X352488Y278580D01*
X352653Y278520D01*
X352816Y278457D01*
X352977Y278390D01*
X353137Y278319D01*
X353295Y278244D01*
X353296Y278244D02*
X353374Y278215D01*
X353452Y278183D01*
X353527Y278146D01*
X353601Y278107D01*
X353674Y278064D01*
X353744Y278018D01*
X353811Y277968D01*
X353877Y277916D01*
X353940Y277860D01*
X354001Y277802D01*
X354058Y277741D01*
X354113Y277678D01*
X354165Y277612D01*
X354214Y277543D01*
X354259Y277473D01*
X354302Y277401D01*
X354341Y277326D01*
X354376Y277250D01*
X354408Y277172D01*
X354436Y277093D01*
X354461Y277013D01*
X354482Y276932D01*
X354499Y276850D01*
X354513Y276767D01*
X354522Y276684D01*
X354528Y276600D01*
X354530Y276516D01*
X353295Y274787D02*
X353137Y274712D01*
X352977Y274641D01*
X352816Y274574D01*
X352653Y274511D01*
X352488Y274451D01*
X352322Y274396D01*
X352155Y274345D01*
X351987Y274297D01*
X351817Y274254D01*
X351647Y274214D01*
X351476Y274179D01*
X351304Y274148D01*
X351131Y274121D01*
X350957Y274098D01*
X350784Y274079D01*
X350609Y274065D01*
X350435Y274054D01*
X350260Y274048D01*
X350085Y274046D01*
X353296Y274788D02*
X353374Y274817D01*
X353452Y274849D01*
X353527Y274886D01*
X353601Y274925D01*
X353674Y274968D01*
X353744Y275014D01*
X353811Y275064D01*
X353877Y275116D01*
X353940Y275172D01*
X354000Y275230D01*
X354058Y275291D01*
X354113Y275354D01*
X354165Y275420D01*
X354214Y275489D01*
X354259Y275559D01*
X354302Y275631D01*
X354341Y275706D01*
X354376Y275782D01*
X354408Y275860D01*
X354436Y275939D01*
X354461Y276019D01*
X354482Y276100D01*
X354499Y276182D01*
X354513Y276265D01*
X354522Y276348D01*
X354528Y276432D01*
X354530Y276516D01*
X352555Y278491D02*
X347616Y274540D01*
X354530Y269841D02*
X354530Y266878D01*
X354531Y266878D02*
X354529Y266789D01*
X354523Y266701D01*
X354513Y266613D01*
X354499Y266525D01*
X354481Y266438D01*
X354460Y266352D01*
X354434Y266267D01*
X354405Y266184D01*
X354372Y266101D01*
X354335Y266021D01*
X354295Y265942D01*
X354251Y265865D01*
X354204Y265789D01*
X354154Y265717D01*
X354100Y265646D01*
X354043Y265578D01*
X353983Y265512D01*
X353921Y265450D01*
X353855Y265390D01*
X353787Y265333D01*
X353716Y265279D01*
X353644Y265229D01*
X353569Y265182D01*
X353491Y265138D01*
X353412Y265098D01*
X353332Y265061D01*
X353249Y265028D01*
X353166Y264999D01*
X353081Y264973D01*
X352995Y264952D01*
X352908Y264934D01*
X352820Y264920D01*
X352732Y264910D01*
X352644Y264904D01*
X352555Y264902D01*
X351567Y264902D01*
X351481Y264904D01*
X351395Y264910D01*
X351309Y264919D01*
X351224Y264932D01*
X351139Y264949D01*
X351056Y264969D01*
X350973Y264993D01*
X350891Y265021D01*
X350811Y265052D01*
X350732Y265087D01*
X350655Y265125D01*
X350579Y265167D01*
X350505Y265211D01*
X350434Y265259D01*
X350364Y265310D01*
X350297Y265364D01*
X350232Y265421D01*
X350170Y265481D01*
X350110Y265543D01*
X350053Y265608D01*
X349999Y265675D01*
X349948Y265745D01*
X349900Y265816D01*
X349856Y265890D01*
X349814Y265966D01*
X349776Y266043D01*
X349741Y266122D01*
X349710Y266202D01*
X349682Y266284D01*
X349658Y266367D01*
X349638Y266450D01*
X349621Y266535D01*
X349608Y266620D01*
X349599Y266706D01*
X349593Y266792D01*
X349591Y266878D01*
X349591Y269841D01*
X345640Y269841D01*
X345640Y264902D01*
X323483Y278666D02*
X323308Y278664D01*
X323133Y278658D01*
X322959Y278647D01*
X322784Y278633D01*
X322611Y278614D01*
X322437Y278591D01*
X322264Y278564D01*
X322092Y278533D01*
X321921Y278498D01*
X321751Y278458D01*
X321581Y278415D01*
X321413Y278367D01*
X321246Y278316D01*
X321080Y278261D01*
X320915Y278201D01*
X320752Y278138D01*
X320591Y278071D01*
X320431Y278000D01*
X320273Y277925D01*
X320195Y277896D01*
X320117Y277864D01*
X320042Y277827D01*
X319968Y277788D01*
X319896Y277745D01*
X319825Y277699D01*
X319758Y277649D01*
X319692Y277597D01*
X319629Y277542D01*
X319569Y277483D01*
X319511Y277422D01*
X319456Y277359D01*
X319404Y277293D01*
X319355Y277224D01*
X319310Y277154D01*
X319267Y277082D01*
X319228Y277007D01*
X319193Y276931D01*
X319161Y276854D01*
X319133Y276775D01*
X319108Y276694D01*
X319087Y276613D01*
X319070Y276531D01*
X319056Y276448D01*
X319047Y276365D01*
X319041Y276281D01*
X319039Y276197D01*
X319041Y276113D01*
X319047Y276029D01*
X319056Y275946D01*
X319070Y275863D01*
X319087Y275781D01*
X319108Y275700D01*
X319133Y275619D01*
X319161Y275540D01*
X319193Y275463D01*
X319228Y275387D01*
X319267Y275312D01*
X319310Y275240D01*
X319355Y275169D01*
X319404Y275101D01*
X319456Y275035D01*
X319511Y274972D01*
X319569Y274911D01*
X319629Y274852D01*
X319692Y274797D01*
X319758Y274745D01*
X319825Y274695D01*
X319896Y274649D01*
X319968Y274606D01*
X320042Y274567D01*
X320117Y274530D01*
X320195Y274498D01*
X320273Y274469D01*
X320273Y274468D02*
X320431Y274393D01*
X320591Y274322D01*
X320752Y274255D01*
X320915Y274192D01*
X321080Y274132D01*
X321246Y274077D01*
X321413Y274026D01*
X321581Y273978D01*
X321751Y273935D01*
X321921Y273895D01*
X322092Y273860D01*
X322264Y273829D01*
X322437Y273802D01*
X322611Y273779D01*
X322784Y273760D01*
X322959Y273746D01*
X323133Y273735D01*
X323308Y273729D01*
X323483Y273727D01*
X323483Y278666D02*
X323658Y278664D01*
X323833Y278658D01*
X324007Y278647D01*
X324182Y278633D01*
X324355Y278614D01*
X324529Y278591D01*
X324702Y278564D01*
X324874Y278533D01*
X325045Y278498D01*
X325215Y278458D01*
X325385Y278415D01*
X325553Y278367D01*
X325720Y278316D01*
X325886Y278261D01*
X326051Y278201D01*
X326214Y278138D01*
X326375Y278071D01*
X326535Y278000D01*
X326693Y277925D01*
X326694Y277925D02*
X326772Y277896D01*
X326850Y277864D01*
X326925Y277827D01*
X326999Y277788D01*
X327072Y277745D01*
X327142Y277699D01*
X327209Y277649D01*
X327275Y277597D01*
X327338Y277541D01*
X327399Y277483D01*
X327456Y277422D01*
X327511Y277359D01*
X327563Y277293D01*
X327612Y277224D01*
X327657Y277154D01*
X327700Y277082D01*
X327739Y277007D01*
X327774Y276931D01*
X327806Y276853D01*
X327834Y276774D01*
X327859Y276694D01*
X327880Y276613D01*
X327897Y276531D01*
X327911Y276448D01*
X327920Y276365D01*
X327926Y276281D01*
X327928Y276197D01*
X326693Y274468D02*
X326535Y274393D01*
X326375Y274322D01*
X326214Y274255D01*
X326051Y274192D01*
X325886Y274132D01*
X325720Y274077D01*
X325553Y274026D01*
X325385Y273978D01*
X325215Y273935D01*
X325045Y273895D01*
X324874Y273860D01*
X324702Y273829D01*
X324529Y273802D01*
X324355Y273779D01*
X324182Y273760D01*
X324007Y273746D01*
X323833Y273735D01*
X323658Y273729D01*
X323483Y273727D01*
X326694Y274469D02*
X326772Y274498D01*
X326850Y274530D01*
X326925Y274567D01*
X326999Y274606D01*
X327072Y274649D01*
X327142Y274695D01*
X327209Y274745D01*
X327275Y274797D01*
X327338Y274853D01*
X327398Y274911D01*
X327456Y274972D01*
X327511Y275035D01*
X327563Y275101D01*
X327612Y275170D01*
X327657Y275240D01*
X327700Y275312D01*
X327739Y275387D01*
X327774Y275463D01*
X327806Y275541D01*
X327834Y275620D01*
X327859Y275700D01*
X327880Y275781D01*
X327897Y275863D01*
X327911Y275946D01*
X327920Y276029D01*
X327926Y276113D01*
X327928Y276197D01*
X325953Y278172D02*
X321014Y274221D01*
X325953Y269522D02*
X319038Y267547D01*
X325953Y269522D02*
X325953Y264583D01*
X327928Y266065D02*
X323977Y266065D01*
X370242Y278985D02*
X379132Y278985D01*
X370242Y278985D02*
X370242Y276516D01*
X370244Y276418D01*
X370250Y276320D01*
X370260Y276222D01*
X370273Y276125D01*
X370291Y276028D01*
X370312Y275932D01*
X370337Y275838D01*
X370366Y275744D01*
X370398Y275651D01*
X370435Y275560D01*
X370474Y275470D01*
X370518Y275382D01*
X370565Y275296D01*
X370615Y275211D01*
X370668Y275129D01*
X370725Y275049D01*
X370785Y274971D01*
X370848Y274896D01*
X370914Y274823D01*
X370983Y274753D01*
X371054Y274686D01*
X371128Y274621D01*
X371205Y274560D01*
X371284Y274501D01*
X371365Y274446D01*
X371448Y274394D01*
X371534Y274346D01*
X371621Y274301D01*
X371710Y274259D01*
X371800Y274221D01*
X371892Y274187D01*
X371985Y274156D01*
X372080Y274129D01*
X372175Y274106D01*
X372272Y274086D01*
X372368Y274071D01*
X372466Y274059D01*
X372564Y274051D01*
X372662Y274047D01*
X372760Y274047D01*
X372858Y274051D01*
X372956Y274059D01*
X373054Y274071D01*
X373150Y274086D01*
X373247Y274106D01*
X373342Y274129D01*
X373437Y274156D01*
X373530Y274187D01*
X373622Y274221D01*
X373712Y274259D01*
X373801Y274301D01*
X373888Y274346D01*
X373974Y274394D01*
X374057Y274446D01*
X374138Y274501D01*
X374217Y274560D01*
X374294Y274621D01*
X374368Y274686D01*
X374439Y274753D01*
X374508Y274823D01*
X374574Y274896D01*
X374637Y274971D01*
X374697Y275049D01*
X374754Y275129D01*
X374807Y275211D01*
X374857Y275296D01*
X374904Y275382D01*
X374948Y275470D01*
X374987Y275560D01*
X375024Y275651D01*
X375056Y275744D01*
X375085Y275838D01*
X375110Y275932D01*
X375131Y276028D01*
X375149Y276125D01*
X375162Y276222D01*
X375172Y276320D01*
X375178Y276418D01*
X375180Y276516D01*
X375181Y276516D02*
X375181Y278985D01*
X375181Y276022D02*
X379132Y274046D01*
X379132Y270410D02*
X370242Y264484D01*
X370242Y270410D02*
X379132Y264484D01*
X396244Y276516D02*
X405134Y276516D01*
X396244Y278985D02*
X396244Y274046D01*
X396244Y265018D02*
X405134Y270945D01*
X405134Y265018D02*
X396244Y270945D01*
D11*
X339860Y264112D02*
X336089Y260340D01*
X334412Y262016D01*
X335799Y266496D02*
X335590Y268382D01*
X331818Y264611D01*
X330770Y265658D02*
X332866Y263563D01*
X361006Y260758D02*
X364778Y264530D01*
X361006Y260758D02*
X359330Y262435D01*
X358517Y268906D02*
X358569Y268956D01*
X358624Y269003D01*
X358682Y269046D01*
X358742Y269087D01*
X358803Y269124D01*
X358867Y269158D01*
X358933Y269188D01*
X359000Y269215D01*
X359068Y269238D01*
X359138Y269258D01*
X359209Y269273D01*
X359280Y269285D01*
X359352Y269293D01*
X359424Y269297D01*
X359496Y269297D01*
X359568Y269293D01*
X359640Y269285D01*
X359711Y269273D01*
X359782Y269258D01*
X359851Y269238D01*
X359920Y269215D01*
X359987Y269188D01*
X360053Y269158D01*
X360116Y269124D01*
X360178Y269087D01*
X360238Y269047D01*
X360296Y269003D01*
X360351Y268956D01*
X360403Y268906D01*
X360402Y268905D02*
X360457Y268848D01*
X360510Y268787D01*
X360559Y268725D01*
X360606Y268660D01*
X360649Y268593D01*
X360689Y268524D01*
X360726Y268454D01*
X360760Y268381D01*
X360790Y268307D01*
X360817Y268232D01*
X360841Y268156D01*
X360860Y268079D01*
X360876Y268000D01*
X360889Y267922D01*
X360898Y267842D01*
X360903Y267763D01*
X360904Y267683D01*
X360902Y267603D01*
X360896Y267524D01*
X360886Y267444D01*
X360872Y267366D01*
X360855Y267288D01*
X360834Y267211D01*
X360810Y267135D01*
X360782Y267060D01*
X360751Y266987D01*
X360716Y266915D01*
X358097Y267858D02*
X358097Y267931D01*
X358101Y268003D01*
X358109Y268075D01*
X358120Y268147D01*
X358134Y268218D01*
X358152Y268288D01*
X358174Y268357D01*
X358199Y268425D01*
X358228Y268491D01*
X358260Y268556D01*
X358295Y268620D01*
X358334Y268681D01*
X358375Y268741D01*
X358419Y268798D01*
X358466Y268853D01*
X358516Y268906D01*
X358097Y267858D02*
X357783Y263982D01*
X355688Y266077D01*
D12*
X121793Y128397D02*
X121793Y124587D01*
X121793Y126704D02*
X119676Y126704D01*
X119676Y128397D02*
X119676Y124587D01*
X117885Y124587D02*
X117885Y128397D01*
X117885Y124587D02*
X116192Y124587D01*
X114673Y124587D02*
X114673Y128397D01*
X112557Y128397D02*
X114673Y126069D01*
X113827Y126915D02*
X112557Y124587D01*
X111154Y126069D02*
X108614Y126069D01*
X106871Y124587D02*
X106871Y128397D01*
X105812Y128397D01*
X105748Y128395D01*
X105684Y128389D01*
X105621Y128380D01*
X105559Y128366D01*
X105497Y128349D01*
X105437Y128328D01*
X105378Y128304D01*
X105320Y128276D01*
X105265Y128244D01*
X105211Y128210D01*
X105160Y128172D01*
X105110Y128131D01*
X105064Y128087D01*
X105020Y128041D01*
X104979Y127991D01*
X104941Y127940D01*
X104907Y127886D01*
X104875Y127831D01*
X104847Y127773D01*
X104823Y127714D01*
X104802Y127654D01*
X104785Y127592D01*
X104771Y127530D01*
X104762Y127467D01*
X104756Y127403D01*
X104754Y127339D01*
X104756Y127275D01*
X104762Y127211D01*
X104771Y127148D01*
X104785Y127086D01*
X104802Y127024D01*
X104823Y126964D01*
X104847Y126905D01*
X104875Y126847D01*
X104907Y126792D01*
X104941Y126738D01*
X104979Y126687D01*
X105020Y126637D01*
X105064Y126591D01*
X105110Y126547D01*
X105160Y126506D01*
X105211Y126468D01*
X105265Y126434D01*
X105320Y126402D01*
X105378Y126374D01*
X105437Y126350D01*
X105497Y126329D01*
X105559Y126312D01*
X105621Y126298D01*
X105684Y126289D01*
X105748Y126283D01*
X105812Y126281D01*
X105812Y126280D02*
X106871Y126280D01*
X103229Y124587D02*
X103229Y128397D01*
X101959Y126280D01*
X100689Y128397D01*
X100689Y124587D01*
X98994Y126492D02*
X98992Y126602D01*
X98986Y126711D01*
X98977Y126820D01*
X98963Y126929D01*
X98946Y127037D01*
X98925Y127145D01*
X98901Y127251D01*
X98872Y127357D01*
X98840Y127462D01*
X98805Y127566D01*
X98766Y127668D01*
X98723Y127769D01*
X98676Y127868D01*
X98677Y127868D02*
X98657Y127918D01*
X98635Y127967D01*
X98609Y128015D01*
X98580Y128060D01*
X98547Y128103D01*
X98512Y128144D01*
X98474Y128183D01*
X98434Y128218D01*
X98391Y128251D01*
X98346Y128281D01*
X98299Y128308D01*
X98251Y128331D01*
X98201Y128351D01*
X98149Y128367D01*
X98097Y128380D01*
X98044Y128390D01*
X97990Y128395D01*
X97936Y128397D01*
X97882Y128395D01*
X97828Y128390D01*
X97775Y128380D01*
X97723Y128367D01*
X97671Y128351D01*
X97621Y128331D01*
X97573Y128308D01*
X97526Y128281D01*
X97481Y128251D01*
X97438Y128218D01*
X97398Y128183D01*
X97360Y128144D01*
X97325Y128103D01*
X97292Y128060D01*
X97263Y128015D01*
X97237Y127967D01*
X97215Y127918D01*
X97195Y127868D01*
X97148Y127769D01*
X97105Y127668D01*
X97066Y127566D01*
X97031Y127462D01*
X96999Y127357D01*
X96970Y127251D01*
X96946Y127145D01*
X96925Y127037D01*
X96908Y126929D01*
X96894Y126820D01*
X96885Y126711D01*
X96879Y126602D01*
X96877Y126492D01*
X98994Y126492D02*
X98992Y126382D01*
X98986Y126273D01*
X98977Y126164D01*
X98963Y126055D01*
X98946Y125947D01*
X98925Y125839D01*
X98901Y125733D01*
X98872Y125627D01*
X98840Y125522D01*
X98805Y125419D01*
X98766Y125316D01*
X98723Y125215D01*
X98676Y125116D01*
X98677Y125116D02*
X98657Y125066D01*
X98635Y125017D01*
X98609Y124969D01*
X98580Y124924D01*
X98547Y124881D01*
X98512Y124840D01*
X98474Y124801D01*
X98434Y124766D01*
X98391Y124733D01*
X98346Y124703D01*
X98299Y124676D01*
X98251Y124653D01*
X98201Y124633D01*
X98149Y124617D01*
X98097Y124604D01*
X98044Y124594D01*
X97990Y124589D01*
X97936Y124587D01*
X97195Y125116D02*
X97148Y125215D01*
X97105Y125316D01*
X97066Y125419D01*
X97031Y125522D01*
X96999Y125627D01*
X96970Y125733D01*
X96946Y125839D01*
X96925Y125947D01*
X96908Y126055D01*
X96894Y126164D01*
X96885Y126273D01*
X96879Y126382D01*
X96877Y126492D01*
X97195Y125116D02*
X97215Y125066D01*
X97237Y125017D01*
X97263Y124969D01*
X97292Y124924D01*
X97325Y124881D01*
X97360Y124840D01*
X97398Y124801D01*
X97438Y124766D01*
X97481Y124733D01*
X97526Y124703D01*
X97573Y124676D01*
X97621Y124653D01*
X97672Y124633D01*
X97723Y124617D01*
X97775Y124604D01*
X97828Y124594D01*
X97882Y124589D01*
X97936Y124587D01*
X98782Y125434D02*
X97089Y127550D01*
X95336Y127550D02*
X94278Y128397D01*
X94278Y124587D01*
X95336Y124587D02*
X93220Y124587D01*
D10*
X428286Y274078D02*
X428286Y277041D01*
X428287Y274078D02*
X428285Y273989D01*
X428279Y273901D01*
X428269Y273813D01*
X428255Y273725D01*
X428237Y273638D01*
X428216Y273552D01*
X428190Y273467D01*
X428161Y273384D01*
X428128Y273301D01*
X428091Y273221D01*
X428051Y273142D01*
X428007Y273065D01*
X427960Y272989D01*
X427910Y272917D01*
X427856Y272846D01*
X427799Y272778D01*
X427739Y272712D01*
X427677Y272650D01*
X427611Y272590D01*
X427543Y272533D01*
X427472Y272479D01*
X427400Y272429D01*
X427325Y272382D01*
X427247Y272338D01*
X427168Y272298D01*
X427088Y272261D01*
X427005Y272228D01*
X426922Y272199D01*
X426837Y272173D01*
X426751Y272152D01*
X426664Y272134D01*
X426576Y272120D01*
X426488Y272110D01*
X426400Y272104D01*
X426311Y272102D01*
X425323Y272102D01*
X425237Y272104D01*
X425151Y272110D01*
X425065Y272119D01*
X424980Y272132D01*
X424895Y272149D01*
X424812Y272169D01*
X424729Y272193D01*
X424647Y272221D01*
X424567Y272252D01*
X424488Y272287D01*
X424411Y272325D01*
X424335Y272367D01*
X424261Y272411D01*
X424190Y272459D01*
X424120Y272510D01*
X424053Y272564D01*
X423988Y272621D01*
X423926Y272681D01*
X423866Y272743D01*
X423809Y272808D01*
X423755Y272875D01*
X423704Y272945D01*
X423656Y273016D01*
X423612Y273090D01*
X423570Y273166D01*
X423532Y273243D01*
X423497Y273322D01*
X423466Y273402D01*
X423438Y273484D01*
X423414Y273567D01*
X423394Y273650D01*
X423377Y273735D01*
X423364Y273820D01*
X423355Y273906D01*
X423349Y273992D01*
X423347Y274078D01*
X423347Y277041D01*
X419396Y277041D01*
X419396Y272102D01*
X419396Y268391D02*
X428286Y265428D01*
X419396Y262464D01*
D13*
X334560Y173654D02*
X334560Y121654D01*
X371560Y121854D02*
X371560Y173654D01*
D14*
X444560Y121154D02*
X210760Y121154D01*
X444560Y121154D02*
X444560Y174154D01*
X210760Y174154D01*
X210760Y121154D01*
X237410Y133154D02*
X443810Y133154D01*
D12*
X302116Y153444D02*
X302116Y155137D01*
X302115Y155137D02*
X302113Y155201D01*
X302107Y155265D01*
X302098Y155328D01*
X302084Y155390D01*
X302067Y155452D01*
X302046Y155512D01*
X302022Y155571D01*
X301994Y155629D01*
X301962Y155684D01*
X301928Y155738D01*
X301890Y155789D01*
X301849Y155839D01*
X301805Y155885D01*
X301759Y155929D01*
X301709Y155970D01*
X301658Y156008D01*
X301604Y156042D01*
X301549Y156074D01*
X301491Y156102D01*
X301432Y156126D01*
X301372Y156147D01*
X301310Y156164D01*
X301248Y156178D01*
X301185Y156187D01*
X301121Y156193D01*
X301057Y156195D01*
X300993Y156193D01*
X300929Y156187D01*
X300866Y156178D01*
X300804Y156164D01*
X300742Y156147D01*
X300682Y156126D01*
X300623Y156102D01*
X300565Y156074D01*
X300510Y156042D01*
X300456Y156008D01*
X300405Y155970D01*
X300355Y155929D01*
X300309Y155885D01*
X300265Y155839D01*
X300224Y155789D01*
X300186Y155738D01*
X300152Y155684D01*
X300120Y155629D01*
X300092Y155571D01*
X300068Y155512D01*
X300047Y155452D01*
X300030Y155390D01*
X300016Y155328D01*
X300007Y155265D01*
X300001Y155201D01*
X299999Y155137D01*
X299999Y153444D01*
X300001Y153380D01*
X300007Y153316D01*
X300016Y153253D01*
X300030Y153191D01*
X300047Y153129D01*
X300068Y153069D01*
X300092Y153010D01*
X300120Y152952D01*
X300152Y152897D01*
X300186Y152843D01*
X300224Y152792D01*
X300265Y152742D01*
X300309Y152696D01*
X300355Y152652D01*
X300405Y152611D01*
X300456Y152573D01*
X300510Y152539D01*
X300565Y152507D01*
X300623Y152479D01*
X300682Y152455D01*
X300742Y152434D01*
X300804Y152417D01*
X300866Y152403D01*
X300929Y152394D01*
X300993Y152388D01*
X301057Y152386D01*
X301121Y152388D01*
X301185Y152394D01*
X301248Y152403D01*
X301310Y152417D01*
X301372Y152434D01*
X301432Y152455D01*
X301491Y152479D01*
X301549Y152507D01*
X301604Y152539D01*
X301658Y152573D01*
X301709Y152611D01*
X301759Y152652D01*
X301805Y152696D01*
X301849Y152742D01*
X301890Y152792D01*
X301928Y152843D01*
X301962Y152897D01*
X301994Y152952D01*
X302022Y153010D01*
X302046Y153069D01*
X302067Y153129D01*
X302084Y153191D01*
X302098Y153253D01*
X302107Y153316D01*
X302113Y153380D01*
X302115Y153444D01*
X298304Y152386D02*
X298304Y156196D01*
X297034Y154079D01*
X295764Y156196D01*
X295764Y152386D01*
X293926Y152386D02*
X293926Y156196D01*
X292868Y156196D01*
X292868Y156195D02*
X292804Y156193D01*
X292740Y156187D01*
X292677Y156178D01*
X292615Y156164D01*
X292553Y156147D01*
X292493Y156126D01*
X292434Y156102D01*
X292376Y156074D01*
X292321Y156042D01*
X292267Y156008D01*
X292216Y155970D01*
X292166Y155929D01*
X292120Y155885D01*
X292076Y155839D01*
X292035Y155789D01*
X291997Y155738D01*
X291963Y155684D01*
X291931Y155629D01*
X291903Y155571D01*
X291879Y155512D01*
X291858Y155452D01*
X291841Y155390D01*
X291827Y155328D01*
X291818Y155265D01*
X291812Y155201D01*
X291810Y155137D01*
X291812Y155073D01*
X291818Y155009D01*
X291827Y154946D01*
X291841Y154884D01*
X291858Y154822D01*
X291879Y154762D01*
X291903Y154703D01*
X291931Y154645D01*
X291963Y154590D01*
X291997Y154536D01*
X292035Y154485D01*
X292076Y154435D01*
X292120Y154389D01*
X292166Y154345D01*
X292216Y154304D01*
X292267Y154266D01*
X292321Y154232D01*
X292376Y154200D01*
X292434Y154172D01*
X292493Y154148D01*
X292553Y154127D01*
X292615Y154110D01*
X292677Y154096D01*
X292740Y154087D01*
X292804Y154081D01*
X292868Y154079D01*
X293926Y154079D01*
X292656Y154079D02*
X291809Y152386D01*
X290290Y153444D02*
X290290Y155137D01*
X290289Y155137D02*
X290287Y155201D01*
X290281Y155265D01*
X290272Y155328D01*
X290258Y155390D01*
X290241Y155452D01*
X290220Y155512D01*
X290196Y155571D01*
X290168Y155629D01*
X290136Y155684D01*
X290102Y155738D01*
X290064Y155789D01*
X290023Y155839D01*
X289979Y155885D01*
X289933Y155929D01*
X289883Y155970D01*
X289832Y156008D01*
X289778Y156042D01*
X289723Y156074D01*
X289665Y156102D01*
X289606Y156126D01*
X289546Y156147D01*
X289484Y156164D01*
X289422Y156178D01*
X289359Y156187D01*
X289295Y156193D01*
X289231Y156195D01*
X289167Y156193D01*
X289103Y156187D01*
X289040Y156178D01*
X288978Y156164D01*
X288916Y156147D01*
X288856Y156126D01*
X288797Y156102D01*
X288739Y156074D01*
X288684Y156042D01*
X288630Y156008D01*
X288579Y155970D01*
X288529Y155929D01*
X288483Y155885D01*
X288439Y155839D01*
X288398Y155789D01*
X288360Y155738D01*
X288326Y155684D01*
X288294Y155629D01*
X288266Y155571D01*
X288242Y155512D01*
X288221Y155452D01*
X288204Y155390D01*
X288190Y155328D01*
X288181Y155265D01*
X288175Y155201D01*
X288173Y155137D01*
X288173Y153444D01*
X288175Y153380D01*
X288181Y153316D01*
X288190Y153253D01*
X288204Y153191D01*
X288221Y153129D01*
X288242Y153069D01*
X288266Y153010D01*
X288294Y152952D01*
X288326Y152897D01*
X288360Y152843D01*
X288398Y152792D01*
X288439Y152742D01*
X288483Y152696D01*
X288529Y152652D01*
X288579Y152611D01*
X288630Y152573D01*
X288684Y152539D01*
X288739Y152507D01*
X288797Y152479D01*
X288856Y152455D01*
X288916Y152434D01*
X288978Y152417D01*
X289040Y152403D01*
X289103Y152394D01*
X289167Y152388D01*
X289231Y152386D01*
X289295Y152388D01*
X289359Y152394D01*
X289422Y152403D01*
X289484Y152417D01*
X289546Y152434D01*
X289606Y152455D01*
X289665Y152479D01*
X289723Y152507D01*
X289778Y152539D01*
X289832Y152573D01*
X289883Y152611D01*
X289933Y152652D01*
X289979Y152696D01*
X290023Y152742D01*
X290064Y152792D01*
X290102Y152843D01*
X290136Y152897D01*
X290168Y152952D01*
X290196Y153010D01*
X290220Y153069D01*
X290241Y153129D01*
X290258Y153191D01*
X290272Y153253D01*
X290281Y153316D01*
X290287Y153380D01*
X290289Y153444D01*
X286510Y152386D02*
X286510Y156196D01*
X284393Y152386D01*
X284393Y156196D01*
X282698Y153867D02*
X280158Y153867D01*
X276982Y154502D02*
X276347Y154502D01*
X276347Y152386D01*
X277617Y152386D01*
X277617Y152385D02*
X277672Y152387D01*
X277728Y152392D01*
X277782Y152401D01*
X277836Y152414D01*
X277889Y152430D01*
X277941Y152449D01*
X277992Y152472D01*
X278041Y152498D01*
X278088Y152528D01*
X278133Y152560D01*
X278175Y152595D01*
X278216Y152633D01*
X278254Y152674D01*
X278289Y152716D01*
X278321Y152761D01*
X278351Y152809D01*
X278377Y152857D01*
X278400Y152908D01*
X278419Y152960D01*
X278435Y153013D01*
X278448Y153067D01*
X278457Y153121D01*
X278462Y153177D01*
X278464Y153232D01*
X278463Y153232D02*
X278463Y155349D01*
X278464Y155349D02*
X278462Y155407D01*
X278456Y155464D01*
X278446Y155521D01*
X278433Y155578D01*
X278415Y155633D01*
X278394Y155686D01*
X278369Y155739D01*
X278341Y155789D01*
X278309Y155837D01*
X278274Y155884D01*
X278236Y155927D01*
X278195Y155968D01*
X278152Y156006D01*
X278105Y156041D01*
X278057Y156073D01*
X278007Y156101D01*
X277954Y156126D01*
X277901Y156147D01*
X277846Y156165D01*
X277789Y156178D01*
X277732Y156188D01*
X277675Y156194D01*
X277617Y156196D01*
X276347Y156196D01*
X274684Y152386D02*
X273626Y152386D01*
X273562Y152388D01*
X273498Y152394D01*
X273435Y152403D01*
X273373Y152417D01*
X273311Y152434D01*
X273251Y152455D01*
X273192Y152479D01*
X273134Y152507D01*
X273079Y152539D01*
X273025Y152573D01*
X272974Y152611D01*
X272924Y152652D01*
X272878Y152696D01*
X272834Y152742D01*
X272793Y152792D01*
X272755Y152843D01*
X272721Y152897D01*
X272689Y152952D01*
X272661Y153010D01*
X272637Y153069D01*
X272616Y153129D01*
X272599Y153191D01*
X272585Y153253D01*
X272576Y153316D01*
X272570Y153380D01*
X272568Y153444D01*
X272570Y153508D01*
X272576Y153572D01*
X272585Y153635D01*
X272599Y153697D01*
X272616Y153759D01*
X272637Y153819D01*
X272661Y153878D01*
X272689Y153936D01*
X272721Y153991D01*
X272755Y154045D01*
X272793Y154096D01*
X272834Y154146D01*
X272878Y154192D01*
X272924Y154236D01*
X272974Y154277D01*
X273025Y154315D01*
X273079Y154349D01*
X273134Y154381D01*
X273192Y154409D01*
X273251Y154433D01*
X273311Y154454D01*
X273373Y154471D01*
X273435Y154485D01*
X273498Y154494D01*
X273562Y154500D01*
X273626Y154502D01*
X273414Y156196D02*
X274684Y156196D01*
X273414Y156196D02*
X273357Y156194D01*
X273301Y156188D01*
X273245Y156179D01*
X273190Y156166D01*
X273136Y156149D01*
X273083Y156129D01*
X273032Y156105D01*
X272982Y156078D01*
X272935Y156047D01*
X272889Y156014D01*
X272846Y155977D01*
X272805Y155938D01*
X272767Y155896D01*
X272732Y155851D01*
X272700Y155805D01*
X272671Y155756D01*
X272646Y155706D01*
X272624Y155653D01*
X272605Y155600D01*
X272590Y155545D01*
X272579Y155490D01*
X272571Y155434D01*
X272567Y155377D01*
X272567Y155321D01*
X272571Y155264D01*
X272579Y155208D01*
X272590Y155153D01*
X272605Y155098D01*
X272624Y155045D01*
X272646Y154992D01*
X272671Y154942D01*
X272700Y154893D01*
X272732Y154847D01*
X272767Y154802D01*
X272805Y154760D01*
X272846Y154721D01*
X272889Y154684D01*
X272935Y154651D01*
X272982Y154620D01*
X273032Y154593D01*
X273083Y154569D01*
X273136Y154549D01*
X273190Y154532D01*
X273245Y154519D01*
X273301Y154510D01*
X273357Y154504D01*
X273414Y154502D01*
X274261Y154502D01*
X270872Y156196D02*
X270872Y152386D01*
X269602Y154079D02*
X270872Y156196D01*
X269602Y154079D02*
X268332Y156196D01*
X268332Y152386D01*
X266467Y154502D02*
X265409Y154502D01*
X265345Y154500D01*
X265281Y154494D01*
X265218Y154485D01*
X265156Y154471D01*
X265094Y154454D01*
X265034Y154433D01*
X264975Y154409D01*
X264917Y154381D01*
X264862Y154349D01*
X264808Y154315D01*
X264757Y154277D01*
X264707Y154236D01*
X264661Y154192D01*
X264617Y154146D01*
X264576Y154096D01*
X264538Y154045D01*
X264504Y153991D01*
X264472Y153936D01*
X264444Y153878D01*
X264420Y153819D01*
X264399Y153759D01*
X264382Y153697D01*
X264368Y153635D01*
X264359Y153572D01*
X264353Y153508D01*
X264351Y153444D01*
X264353Y153380D01*
X264359Y153316D01*
X264368Y153253D01*
X264382Y153191D01*
X264399Y153129D01*
X264420Y153069D01*
X264444Y153010D01*
X264472Y152952D01*
X264504Y152897D01*
X264538Y152843D01*
X264576Y152792D01*
X264617Y152742D01*
X264661Y152696D01*
X264707Y152652D01*
X264757Y152611D01*
X264808Y152573D01*
X264862Y152539D01*
X264917Y152507D01*
X264975Y152479D01*
X265034Y152455D01*
X265094Y152434D01*
X265156Y152417D01*
X265218Y152403D01*
X265281Y152394D01*
X265345Y152388D01*
X265409Y152386D01*
X266467Y152386D01*
X266467Y156196D01*
X265409Y156196D01*
X265352Y156194D01*
X265296Y156188D01*
X265240Y156179D01*
X265185Y156166D01*
X265131Y156149D01*
X265078Y156129D01*
X265027Y156105D01*
X264977Y156078D01*
X264930Y156047D01*
X264884Y156014D01*
X264841Y155977D01*
X264800Y155938D01*
X264762Y155896D01*
X264727Y155851D01*
X264695Y155805D01*
X264666Y155756D01*
X264641Y155706D01*
X264619Y155653D01*
X264600Y155600D01*
X264585Y155545D01*
X264574Y155490D01*
X264566Y155434D01*
X264562Y155377D01*
X264562Y155321D01*
X264566Y155264D01*
X264574Y155208D01*
X264585Y155153D01*
X264600Y155098D01*
X264619Y155045D01*
X264641Y154992D01*
X264666Y154942D01*
X264695Y154893D01*
X264727Y154847D01*
X264762Y154802D01*
X264800Y154760D01*
X264841Y154721D01*
X264884Y154684D01*
X264930Y154651D01*
X264977Y154620D01*
X265027Y154593D01*
X265078Y154569D01*
X265131Y154549D01*
X265185Y154532D01*
X265240Y154519D01*
X265296Y154510D01*
X265352Y154504D01*
X265409Y154502D01*
X262947Y153867D02*
X260407Y153867D01*
X257670Y156196D02*
X257610Y156194D01*
X257551Y156188D01*
X257491Y156179D01*
X257433Y156166D01*
X257376Y156149D01*
X257319Y156129D01*
X257264Y156105D01*
X257211Y156078D01*
X257159Y156048D01*
X257110Y156014D01*
X257063Y155977D01*
X257018Y155938D01*
X256975Y155895D01*
X256936Y155850D01*
X256899Y155803D01*
X256865Y155754D01*
X256835Y155702D01*
X256808Y155649D01*
X256784Y155594D01*
X256764Y155537D01*
X256747Y155480D01*
X256734Y155422D01*
X256725Y155362D01*
X256719Y155303D01*
X256717Y155243D01*
X257670Y156196D02*
X257737Y156194D01*
X257804Y156189D01*
X257870Y156180D01*
X257936Y156167D01*
X258000Y156151D01*
X258064Y156131D01*
X258127Y156107D01*
X258189Y156081D01*
X258248Y156051D01*
X258306Y156018D01*
X258363Y155981D01*
X258417Y155942D01*
X258469Y155900D01*
X258518Y155855D01*
X258565Y155807D01*
X258609Y155757D01*
X258651Y155704D01*
X258689Y155649D01*
X258725Y155593D01*
X258757Y155534D01*
X258786Y155474D01*
X258812Y155412D01*
X258834Y155349D01*
X257035Y154502D02*
X256994Y154544D01*
X256955Y154589D01*
X256918Y154635D01*
X256884Y154684D01*
X256853Y154734D01*
X256826Y154786D01*
X256801Y154840D01*
X256779Y154895D01*
X256760Y154951D01*
X256745Y155008D01*
X256733Y155066D01*
X256725Y155125D01*
X256720Y155184D01*
X256718Y155243D01*
X257035Y154502D02*
X258834Y152386D01*
X256718Y152386D01*
X255177Y154291D02*
X255175Y154401D01*
X255169Y154510D01*
X255160Y154619D01*
X255146Y154728D01*
X255129Y154836D01*
X255108Y154944D01*
X255084Y155050D01*
X255055Y155156D01*
X255023Y155261D01*
X254988Y155365D01*
X254949Y155467D01*
X254906Y155568D01*
X254859Y155667D01*
X254859Y155666D02*
X254839Y155716D01*
X254817Y155765D01*
X254791Y155813D01*
X254762Y155858D01*
X254729Y155901D01*
X254694Y155942D01*
X254656Y155981D01*
X254616Y156016D01*
X254573Y156049D01*
X254528Y156079D01*
X254481Y156106D01*
X254433Y156129D01*
X254383Y156149D01*
X254331Y156165D01*
X254279Y156178D01*
X254226Y156188D01*
X254172Y156193D01*
X254118Y156195D01*
X254064Y156193D01*
X254010Y156188D01*
X253957Y156178D01*
X253905Y156165D01*
X253853Y156149D01*
X253803Y156129D01*
X253755Y156106D01*
X253708Y156079D01*
X253663Y156049D01*
X253620Y156016D01*
X253580Y155981D01*
X253542Y155942D01*
X253507Y155901D01*
X253474Y155858D01*
X253445Y155813D01*
X253419Y155765D01*
X253397Y155716D01*
X253377Y155666D01*
X253378Y155667D02*
X253331Y155568D01*
X253288Y155467D01*
X253249Y155365D01*
X253214Y155261D01*
X253182Y155156D01*
X253153Y155050D01*
X253129Y154944D01*
X253108Y154836D01*
X253091Y154728D01*
X253077Y154619D01*
X253068Y154510D01*
X253062Y154401D01*
X253060Y154291D01*
X255177Y154291D02*
X255175Y154181D01*
X255169Y154072D01*
X255160Y153963D01*
X255146Y153854D01*
X255129Y153746D01*
X255108Y153638D01*
X255084Y153532D01*
X255055Y153426D01*
X255023Y153321D01*
X254988Y153218D01*
X254949Y153115D01*
X254906Y153014D01*
X254859Y152915D01*
X254839Y152865D01*
X254817Y152816D01*
X254791Y152768D01*
X254762Y152723D01*
X254729Y152680D01*
X254694Y152639D01*
X254656Y152600D01*
X254616Y152565D01*
X254573Y152532D01*
X254528Y152502D01*
X254481Y152475D01*
X254433Y152452D01*
X254383Y152432D01*
X254331Y152416D01*
X254279Y152403D01*
X254226Y152393D01*
X254172Y152388D01*
X254118Y152386D01*
X253378Y152915D02*
X253331Y153014D01*
X253288Y153115D01*
X253249Y153218D01*
X253214Y153321D01*
X253182Y153426D01*
X253153Y153532D01*
X253129Y153638D01*
X253108Y153746D01*
X253091Y153854D01*
X253077Y153963D01*
X253068Y154072D01*
X253062Y154181D01*
X253060Y154291D01*
X253377Y152915D02*
X253397Y152865D01*
X253419Y152816D01*
X253445Y152768D01*
X253474Y152723D01*
X253507Y152680D01*
X253542Y152639D01*
X253580Y152600D01*
X253620Y152565D01*
X253663Y152532D01*
X253708Y152502D01*
X253755Y152475D01*
X253803Y152452D01*
X253854Y152432D01*
X253905Y152416D01*
X253957Y152403D01*
X254010Y152393D01*
X254064Y152388D01*
X254118Y152386D01*
X254965Y153232D02*
X253272Y155349D01*
X250355Y156196D02*
X250295Y156194D01*
X250236Y156188D01*
X250176Y156179D01*
X250118Y156166D01*
X250061Y156149D01*
X250004Y156129D01*
X249949Y156105D01*
X249896Y156078D01*
X249844Y156048D01*
X249795Y156014D01*
X249748Y155977D01*
X249703Y155938D01*
X249660Y155895D01*
X249621Y155850D01*
X249584Y155803D01*
X249550Y155754D01*
X249520Y155702D01*
X249493Y155649D01*
X249469Y155594D01*
X249449Y155537D01*
X249432Y155480D01*
X249419Y155422D01*
X249410Y155362D01*
X249404Y155303D01*
X249402Y155243D01*
X250355Y156196D02*
X250422Y156194D01*
X250489Y156189D01*
X250555Y156180D01*
X250621Y156167D01*
X250685Y156151D01*
X250749Y156131D01*
X250812Y156107D01*
X250874Y156081D01*
X250933Y156051D01*
X250991Y156018D01*
X251048Y155981D01*
X251102Y155942D01*
X251154Y155900D01*
X251203Y155855D01*
X251250Y155807D01*
X251294Y155757D01*
X251336Y155704D01*
X251374Y155649D01*
X251410Y155593D01*
X251442Y155534D01*
X251471Y155474D01*
X251497Y155412D01*
X251519Y155349D01*
X249720Y154502D02*
X249679Y154544D01*
X249640Y154589D01*
X249603Y154635D01*
X249569Y154684D01*
X249538Y154734D01*
X249511Y154786D01*
X249486Y154840D01*
X249464Y154895D01*
X249445Y154951D01*
X249430Y155008D01*
X249418Y155066D01*
X249410Y155125D01*
X249405Y155184D01*
X249403Y155243D01*
X249720Y154502D02*
X251519Y152386D01*
X249402Y152386D01*
X247691Y152386D02*
X247691Y156196D01*
X246633Y156196D01*
X246633Y156195D02*
X246569Y156193D01*
X246505Y156187D01*
X246442Y156178D01*
X246380Y156164D01*
X246318Y156147D01*
X246258Y156126D01*
X246199Y156102D01*
X246141Y156074D01*
X246086Y156042D01*
X246032Y156008D01*
X245981Y155970D01*
X245931Y155929D01*
X245885Y155885D01*
X245841Y155839D01*
X245800Y155789D01*
X245762Y155738D01*
X245728Y155684D01*
X245696Y155629D01*
X245668Y155571D01*
X245644Y155512D01*
X245623Y155452D01*
X245606Y155390D01*
X245592Y155328D01*
X245583Y155265D01*
X245577Y155201D01*
X245575Y155137D01*
X245577Y155073D01*
X245583Y155009D01*
X245592Y154946D01*
X245606Y154884D01*
X245623Y154822D01*
X245644Y154762D01*
X245668Y154703D01*
X245696Y154645D01*
X245728Y154590D01*
X245762Y154536D01*
X245800Y154485D01*
X245841Y154435D01*
X245885Y154389D01*
X245931Y154345D01*
X245981Y154304D01*
X246032Y154266D01*
X246086Y154232D01*
X246141Y154200D01*
X246199Y154172D01*
X246258Y154148D01*
X246318Y154127D01*
X246380Y154110D01*
X246442Y154096D01*
X246505Y154087D01*
X246569Y154081D01*
X246633Y154079D01*
X247691Y154079D01*
X244172Y153867D02*
X241632Y153867D01*
X238911Y152385D02*
X238856Y152387D01*
X238800Y152392D01*
X238746Y152401D01*
X238692Y152414D01*
X238639Y152430D01*
X238587Y152449D01*
X238536Y152472D01*
X238488Y152498D01*
X238440Y152528D01*
X238395Y152560D01*
X238353Y152595D01*
X238312Y152633D01*
X238274Y152674D01*
X238239Y152716D01*
X238207Y152761D01*
X238177Y152809D01*
X238151Y152857D01*
X238128Y152908D01*
X238109Y152960D01*
X238093Y153013D01*
X238080Y153067D01*
X238071Y153121D01*
X238066Y153177D01*
X238064Y153232D01*
X238911Y152385D02*
X238994Y152387D01*
X239077Y152393D01*
X239159Y152402D01*
X239241Y152416D01*
X239323Y152433D01*
X239403Y152454D01*
X239482Y152479D01*
X239561Y152507D01*
X239637Y152539D01*
X239712Y152575D01*
X239786Y152613D01*
X239857Y152656D01*
X239927Y152701D01*
X239994Y152750D01*
X240059Y152802D01*
X240121Y152857D01*
X240181Y152914D01*
X240075Y155349D02*
X240073Y155404D01*
X240068Y155460D01*
X240059Y155514D01*
X240046Y155568D01*
X240030Y155621D01*
X240011Y155673D01*
X239988Y155724D01*
X239962Y155773D01*
X239932Y155820D01*
X239900Y155865D01*
X239865Y155907D01*
X239827Y155948D01*
X239786Y155986D01*
X239744Y156021D01*
X239699Y156053D01*
X239652Y156083D01*
X239603Y156109D01*
X239552Y156132D01*
X239500Y156151D01*
X239447Y156167D01*
X239393Y156180D01*
X239339Y156189D01*
X239283Y156194D01*
X239228Y156196D01*
X239149Y156194D01*
X239071Y156188D01*
X238993Y156179D01*
X238916Y156165D01*
X238839Y156148D01*
X238763Y156126D01*
X238689Y156102D01*
X238615Y156073D01*
X238544Y156041D01*
X238474Y156005D01*
X238405Y155966D01*
X238339Y155924D01*
X238275Y155878D01*
X239652Y154608D02*
X239699Y154638D01*
X239744Y154671D01*
X239787Y154707D01*
X239827Y154745D01*
X239865Y154786D01*
X239900Y154829D01*
X239932Y154875D01*
X239962Y154922D01*
X239988Y154972D01*
X240011Y155023D01*
X240030Y155075D01*
X240046Y155128D01*
X240059Y155183D01*
X240068Y155238D01*
X240073Y155293D01*
X240075Y155349D01*
X238487Y153973D02*
X238440Y153943D01*
X238395Y153910D01*
X238352Y153874D01*
X238312Y153836D01*
X238274Y153795D01*
X238239Y153752D01*
X238207Y153706D01*
X238177Y153659D01*
X238151Y153609D01*
X238128Y153558D01*
X238109Y153506D01*
X238093Y153453D01*
X238080Y153398D01*
X238071Y153343D01*
X238066Y153288D01*
X238064Y153232D01*
X238487Y153973D02*
X239651Y154608D01*
X235497Y152385D02*
X235442Y152387D01*
X235386Y152392D01*
X235332Y152401D01*
X235278Y152414D01*
X235225Y152430D01*
X235173Y152449D01*
X235122Y152472D01*
X235074Y152498D01*
X235026Y152528D01*
X234981Y152560D01*
X234939Y152595D01*
X234898Y152633D01*
X234860Y152674D01*
X234825Y152716D01*
X234793Y152761D01*
X234763Y152809D01*
X234737Y152857D01*
X234714Y152908D01*
X234695Y152960D01*
X234679Y153013D01*
X234666Y153067D01*
X234657Y153121D01*
X234652Y153177D01*
X234650Y153232D01*
X235497Y152385D02*
X235580Y152387D01*
X235663Y152393D01*
X235745Y152402D01*
X235827Y152416D01*
X235909Y152433D01*
X235989Y152454D01*
X236068Y152479D01*
X236147Y152507D01*
X236223Y152539D01*
X236298Y152575D01*
X236372Y152613D01*
X236443Y152656D01*
X236513Y152701D01*
X236580Y152750D01*
X236645Y152802D01*
X236707Y152857D01*
X236767Y152914D01*
X236661Y155349D02*
X236659Y155404D01*
X236654Y155460D01*
X236645Y155514D01*
X236632Y155568D01*
X236616Y155621D01*
X236597Y155673D01*
X236574Y155724D01*
X236548Y155773D01*
X236518Y155820D01*
X236486Y155865D01*
X236451Y155907D01*
X236413Y155948D01*
X236372Y155986D01*
X236330Y156021D01*
X236285Y156053D01*
X236238Y156083D01*
X236189Y156109D01*
X236138Y156132D01*
X236086Y156151D01*
X236033Y156167D01*
X235979Y156180D01*
X235925Y156189D01*
X235869Y156194D01*
X235814Y156196D01*
X235735Y156194D01*
X235657Y156188D01*
X235579Y156179D01*
X235502Y156165D01*
X235425Y156148D01*
X235349Y156126D01*
X235275Y156102D01*
X235201Y156073D01*
X235130Y156041D01*
X235060Y156005D01*
X234991Y155966D01*
X234925Y155924D01*
X234861Y155878D01*
X236238Y154608D02*
X236285Y154638D01*
X236330Y154671D01*
X236373Y154707D01*
X236413Y154745D01*
X236451Y154786D01*
X236486Y154829D01*
X236518Y154875D01*
X236548Y154922D01*
X236574Y154972D01*
X236597Y155023D01*
X236616Y155075D01*
X236632Y155128D01*
X236645Y155183D01*
X236654Y155238D01*
X236659Y155293D01*
X236661Y155349D01*
X235073Y153973D02*
X235026Y153943D01*
X234981Y153910D01*
X234938Y153874D01*
X234898Y153836D01*
X234860Y153795D01*
X234825Y153752D01*
X234793Y153706D01*
X234763Y153659D01*
X234737Y153609D01*
X234714Y153558D01*
X234695Y153506D01*
X234679Y153453D01*
X234666Y153398D01*
X234657Y153343D01*
X234652Y153288D01*
X234650Y153232D01*
X235074Y153973D02*
X236238Y154608D01*
X233088Y156196D02*
X233088Y152386D01*
X233088Y156196D02*
X232030Y156196D01*
X232030Y156195D02*
X231966Y156193D01*
X231902Y156187D01*
X231839Y156178D01*
X231777Y156164D01*
X231715Y156147D01*
X231655Y156126D01*
X231596Y156102D01*
X231538Y156074D01*
X231483Y156042D01*
X231429Y156008D01*
X231378Y155970D01*
X231328Y155929D01*
X231282Y155885D01*
X231238Y155839D01*
X231197Y155789D01*
X231159Y155738D01*
X231125Y155684D01*
X231093Y155629D01*
X231065Y155571D01*
X231041Y155512D01*
X231020Y155452D01*
X231003Y155390D01*
X230989Y155328D01*
X230980Y155265D01*
X230974Y155201D01*
X230972Y155137D01*
X230974Y155073D01*
X230980Y155009D01*
X230989Y154946D01*
X231003Y154884D01*
X231020Y154822D01*
X231041Y154762D01*
X231065Y154703D01*
X231093Y154645D01*
X231125Y154590D01*
X231159Y154536D01*
X231197Y154485D01*
X231238Y154435D01*
X231282Y154389D01*
X231328Y154345D01*
X231378Y154304D01*
X231429Y154266D01*
X231483Y154232D01*
X231538Y154200D01*
X231596Y154172D01*
X231655Y154148D01*
X231715Y154127D01*
X231777Y154110D01*
X231839Y154096D01*
X231902Y154087D01*
X231966Y154081D01*
X232030Y154079D01*
X233088Y154079D01*
X231818Y154079D02*
X230972Y152386D01*
X227335Y155243D02*
X227337Y155303D01*
X227343Y155362D01*
X227352Y155422D01*
X227365Y155480D01*
X227382Y155537D01*
X227402Y155594D01*
X227426Y155649D01*
X227453Y155702D01*
X227483Y155754D01*
X227517Y155803D01*
X227554Y155850D01*
X227593Y155895D01*
X227636Y155938D01*
X227681Y155977D01*
X227728Y156014D01*
X227777Y156048D01*
X227829Y156078D01*
X227882Y156105D01*
X227937Y156129D01*
X227994Y156149D01*
X228051Y156166D01*
X228109Y156179D01*
X228169Y156188D01*
X228228Y156194D01*
X228288Y156196D01*
X228355Y156194D01*
X228422Y156189D01*
X228488Y156180D01*
X228554Y156167D01*
X228618Y156151D01*
X228682Y156131D01*
X228745Y156107D01*
X228807Y156081D01*
X228866Y156051D01*
X228924Y156018D01*
X228981Y155981D01*
X229035Y155942D01*
X229087Y155900D01*
X229136Y155855D01*
X229183Y155807D01*
X229227Y155757D01*
X229269Y155704D01*
X229307Y155649D01*
X229343Y155593D01*
X229375Y155534D01*
X229404Y155474D01*
X229430Y155412D01*
X229452Y155349D01*
X227652Y154502D02*
X227611Y154544D01*
X227572Y154589D01*
X227535Y154635D01*
X227501Y154684D01*
X227470Y154734D01*
X227443Y154786D01*
X227418Y154840D01*
X227396Y154895D01*
X227377Y154951D01*
X227362Y155008D01*
X227350Y155066D01*
X227342Y155125D01*
X227337Y155184D01*
X227335Y155243D01*
X227653Y154502D02*
X229452Y152386D01*
X227335Y152386D01*
D15*
X272448Y324056D02*
X272448Y328403D01*
X272448Y324056D02*
X272450Y323986D01*
X272456Y323917D01*
X272466Y323848D01*
X272479Y323780D01*
X272497Y323712D01*
X272518Y323646D01*
X272543Y323581D01*
X272571Y323517D01*
X272603Y323455D01*
X272638Y323395D01*
X272677Y323337D01*
X272719Y323282D01*
X272764Y323228D01*
X272812Y323178D01*
X272862Y323130D01*
X272916Y323085D01*
X272971Y323043D01*
X273029Y323004D01*
X273089Y322969D01*
X273151Y322937D01*
X273215Y322909D01*
X273280Y322884D01*
X273346Y322863D01*
X273414Y322845D01*
X273482Y322832D01*
X273551Y322822D01*
X273620Y322816D01*
X273690Y322814D01*
X273690Y322815D02*
X274310Y322815D01*
X269906Y322815D02*
X268354Y322815D01*
X268277Y322817D01*
X268199Y322823D01*
X268123Y322832D01*
X268046Y322846D01*
X267971Y322863D01*
X267897Y322884D01*
X267823Y322909D01*
X267751Y322937D01*
X267681Y322969D01*
X267612Y323004D01*
X267545Y323043D01*
X267480Y323085D01*
X267417Y323130D01*
X267356Y323178D01*
X267298Y323229D01*
X267243Y323283D01*
X267190Y323340D01*
X267141Y323399D01*
X267094Y323461D01*
X267050Y323525D01*
X267010Y323591D01*
X266973Y323659D01*
X266939Y323729D01*
X266909Y323800D01*
X266883Y323873D01*
X266860Y323947D01*
X266841Y324022D01*
X266826Y324097D01*
X266814Y324174D01*
X266806Y324251D01*
X266802Y324328D01*
X266802Y324406D01*
X266806Y324483D01*
X266814Y324560D01*
X266826Y324637D01*
X266841Y324712D01*
X266860Y324787D01*
X266883Y324861D01*
X266909Y324934D01*
X266939Y325005D01*
X266973Y325075D01*
X267010Y325143D01*
X267050Y325209D01*
X267094Y325273D01*
X267141Y325335D01*
X267190Y325394D01*
X267243Y325451D01*
X267298Y325505D01*
X267356Y325556D01*
X267417Y325604D01*
X267480Y325649D01*
X267545Y325691D01*
X267612Y325730D01*
X267681Y325765D01*
X267751Y325797D01*
X267823Y325825D01*
X267897Y325850D01*
X267971Y325871D01*
X268046Y325888D01*
X268123Y325902D01*
X268199Y325911D01*
X268277Y325917D01*
X268354Y325919D01*
X268043Y328403D02*
X269906Y328403D01*
X268043Y328403D02*
X267973Y328401D01*
X267904Y328395D01*
X267835Y328385D01*
X267767Y328372D01*
X267699Y328354D01*
X267633Y328333D01*
X267568Y328308D01*
X267504Y328280D01*
X267442Y328248D01*
X267382Y328213D01*
X267324Y328174D01*
X267269Y328132D01*
X267215Y328087D01*
X267165Y328039D01*
X267117Y327989D01*
X267072Y327935D01*
X267030Y327880D01*
X266991Y327822D01*
X266956Y327762D01*
X266924Y327700D01*
X266896Y327636D01*
X266871Y327571D01*
X266850Y327505D01*
X266832Y327437D01*
X266819Y327369D01*
X266809Y327300D01*
X266803Y327231D01*
X266801Y327161D01*
X266803Y327091D01*
X266809Y327022D01*
X266819Y326953D01*
X266832Y326885D01*
X266850Y326817D01*
X266871Y326751D01*
X266896Y326686D01*
X266924Y326622D01*
X266956Y326560D01*
X266991Y326500D01*
X267030Y326442D01*
X267072Y326387D01*
X267117Y326333D01*
X267165Y326283D01*
X267215Y326235D01*
X267269Y326190D01*
X267324Y326148D01*
X267382Y326109D01*
X267442Y326074D01*
X267504Y326042D01*
X267568Y326014D01*
X267633Y325989D01*
X267699Y325968D01*
X267767Y325950D01*
X267835Y325937D01*
X267904Y325927D01*
X267973Y325921D01*
X268043Y325919D01*
X269285Y325919D01*
X264730Y328403D02*
X262867Y325764D01*
X261005Y328403D01*
X262867Y325764D02*
X262867Y322815D01*
X250143Y333013D02*
X248901Y331461D01*
X250143Y333013D02*
X244555Y333013D01*
X244555Y331461D02*
X244555Y334566D01*
X247349Y336947D02*
X247480Y336949D01*
X247610Y336954D01*
X247740Y336964D01*
X247870Y336977D01*
X248000Y336993D01*
X248129Y337013D01*
X248257Y337037D01*
X248384Y337065D01*
X248511Y337096D01*
X248637Y337131D01*
X248762Y337169D01*
X248886Y337211D01*
X249008Y337256D01*
X249129Y337305D01*
X249249Y337357D01*
X249367Y337413D01*
X249427Y337436D01*
X249487Y337462D01*
X249544Y337491D01*
X249600Y337524D01*
X249654Y337560D01*
X249706Y337598D01*
X249756Y337640D01*
X249803Y337684D01*
X249848Y337731D01*
X249890Y337781D01*
X249929Y337832D01*
X249965Y337886D01*
X249998Y337942D01*
X250028Y337999D01*
X250055Y338058D01*
X250078Y338119D01*
X250098Y338180D01*
X250114Y338243D01*
X250127Y338307D01*
X250136Y338371D01*
X250141Y338435D01*
X250143Y338500D01*
X250141Y338565D01*
X250136Y338629D01*
X250127Y338693D01*
X250114Y338757D01*
X250098Y338820D01*
X250078Y338881D01*
X250055Y338942D01*
X250028Y339001D01*
X249998Y339058D01*
X249965Y339114D01*
X249929Y339168D01*
X249890Y339219D01*
X249848Y339269D01*
X249803Y339316D01*
X249756Y339360D01*
X249706Y339402D01*
X249654Y339440D01*
X249600Y339476D01*
X249544Y339509D01*
X249487Y339538D01*
X249427Y339564D01*
X249367Y339587D01*
X249367Y339586D02*
X249249Y339642D01*
X249129Y339694D01*
X249008Y339743D01*
X248886Y339788D01*
X248762Y339830D01*
X248637Y339868D01*
X248511Y339903D01*
X248385Y339934D01*
X248257Y339962D01*
X248129Y339986D01*
X248000Y340006D01*
X247870Y340022D01*
X247740Y340035D01*
X247610Y340045D01*
X247480Y340050D01*
X247349Y340052D01*
X247349Y336948D02*
X247218Y336950D01*
X247088Y336955D01*
X246958Y336965D01*
X246828Y336978D01*
X246698Y336994D01*
X246569Y337014D01*
X246441Y337038D01*
X246314Y337066D01*
X246187Y337097D01*
X246061Y337132D01*
X245936Y337170D01*
X245812Y337212D01*
X245690Y337257D01*
X245569Y337306D01*
X245449Y337358D01*
X245331Y337414D01*
X245331Y337413D02*
X245271Y337436D01*
X245211Y337462D01*
X245154Y337491D01*
X245098Y337524D01*
X245044Y337560D01*
X244992Y337598D01*
X244942Y337640D01*
X244895Y337684D01*
X244850Y337731D01*
X244808Y337781D01*
X244769Y337832D01*
X244733Y337886D01*
X244700Y337942D01*
X244670Y337999D01*
X244643Y338058D01*
X244620Y338119D01*
X244600Y338180D01*
X244584Y338243D01*
X244571Y338307D01*
X244562Y338371D01*
X244557Y338435D01*
X244555Y338500D01*
X245331Y339586D02*
X245449Y339642D01*
X245569Y339694D01*
X245690Y339743D01*
X245812Y339788D01*
X245936Y339830D01*
X246061Y339868D01*
X246187Y339903D01*
X246313Y339934D01*
X246441Y339962D01*
X246569Y339986D01*
X246698Y340006D01*
X246828Y340022D01*
X246958Y340035D01*
X247088Y340045D01*
X247218Y340050D01*
X247349Y340052D01*
X245331Y339587D02*
X245271Y339564D01*
X245211Y339538D01*
X245154Y339509D01*
X245098Y339476D01*
X245044Y339440D01*
X244992Y339402D01*
X244942Y339360D01*
X244895Y339316D01*
X244850Y339269D01*
X244808Y339219D01*
X244769Y339168D01*
X244733Y339114D01*
X244700Y339058D01*
X244670Y339001D01*
X244643Y338942D01*
X244620Y338881D01*
X244600Y338820D01*
X244584Y338757D01*
X244571Y338693D01*
X244562Y338629D01*
X244557Y338565D01*
X244555Y338500D01*
X245797Y337258D02*
X248901Y339741D01*
X250143Y342628D02*
X244555Y342628D01*
X246418Y342628D02*
X248280Y345111D01*
X247194Y343714D02*
X244555Y345111D01*
X230032Y344241D02*
X228480Y345483D01*
X228480Y339895D01*
X230032Y339895D02*
X226928Y339895D01*
X224546Y342689D02*
X224544Y342820D01*
X224539Y342950D01*
X224529Y343080D01*
X224516Y343210D01*
X224500Y343340D01*
X224480Y343469D01*
X224456Y343597D01*
X224428Y343724D01*
X224397Y343851D01*
X224362Y343977D01*
X224324Y344102D01*
X224282Y344226D01*
X224237Y344348D01*
X224188Y344469D01*
X224136Y344589D01*
X224080Y344707D01*
X224081Y344707D02*
X224058Y344767D01*
X224032Y344827D01*
X224003Y344884D01*
X223970Y344940D01*
X223934Y344994D01*
X223896Y345046D01*
X223854Y345096D01*
X223810Y345143D01*
X223763Y345188D01*
X223713Y345230D01*
X223662Y345269D01*
X223608Y345305D01*
X223552Y345338D01*
X223495Y345368D01*
X223436Y345395D01*
X223375Y345418D01*
X223314Y345438D01*
X223251Y345454D01*
X223187Y345467D01*
X223123Y345476D01*
X223059Y345481D01*
X222994Y345483D01*
X222929Y345481D01*
X222865Y345476D01*
X222801Y345467D01*
X222737Y345454D01*
X222674Y345438D01*
X222613Y345418D01*
X222552Y345395D01*
X222493Y345368D01*
X222436Y345338D01*
X222380Y345305D01*
X222326Y345269D01*
X222275Y345230D01*
X222225Y345188D01*
X222178Y345143D01*
X222134Y345096D01*
X222092Y345046D01*
X222054Y344994D01*
X222018Y344940D01*
X221985Y344884D01*
X221956Y344827D01*
X221930Y344767D01*
X221907Y344707D01*
X221851Y344589D01*
X221799Y344469D01*
X221750Y344348D01*
X221705Y344226D01*
X221663Y344102D01*
X221625Y343977D01*
X221590Y343851D01*
X221559Y343725D01*
X221531Y343597D01*
X221507Y343469D01*
X221487Y343340D01*
X221471Y343210D01*
X221458Y343080D01*
X221448Y342950D01*
X221443Y342820D01*
X221441Y342689D01*
X224546Y342689D02*
X224544Y342558D01*
X224539Y342428D01*
X224529Y342298D01*
X224516Y342168D01*
X224500Y342038D01*
X224480Y341910D01*
X224456Y341781D01*
X224428Y341654D01*
X224397Y341527D01*
X224362Y341401D01*
X224324Y341276D01*
X224282Y341153D01*
X224237Y341030D01*
X224188Y340909D01*
X224136Y340789D01*
X224080Y340671D01*
X224081Y340671D02*
X224058Y340611D01*
X224032Y340551D01*
X224003Y340494D01*
X223970Y340438D01*
X223934Y340384D01*
X223896Y340332D01*
X223854Y340282D01*
X223810Y340235D01*
X223763Y340190D01*
X223713Y340148D01*
X223662Y340109D01*
X223608Y340073D01*
X223552Y340040D01*
X223495Y340010D01*
X223436Y339983D01*
X223375Y339960D01*
X223314Y339940D01*
X223251Y339924D01*
X223187Y339911D01*
X223123Y339902D01*
X223059Y339897D01*
X222994Y339895D01*
X221908Y340671D02*
X221852Y340789D01*
X221800Y340909D01*
X221751Y341030D01*
X221706Y341152D01*
X221664Y341276D01*
X221626Y341401D01*
X221591Y341527D01*
X221560Y341653D01*
X221532Y341781D01*
X221508Y341909D01*
X221488Y342038D01*
X221472Y342168D01*
X221459Y342298D01*
X221449Y342428D01*
X221444Y342558D01*
X221442Y342689D01*
X221907Y340670D02*
X221930Y340610D01*
X221956Y340550D01*
X221985Y340493D01*
X222018Y340437D01*
X222054Y340383D01*
X222092Y340331D01*
X222134Y340281D01*
X222178Y340234D01*
X222225Y340189D01*
X222275Y340147D01*
X222326Y340108D01*
X222380Y340072D01*
X222436Y340039D01*
X222493Y340009D01*
X222552Y339982D01*
X222613Y339959D01*
X222674Y339939D01*
X222737Y339923D01*
X222801Y339910D01*
X222865Y339901D01*
X222929Y339896D01*
X222994Y339894D01*
X224236Y341137D02*
X221752Y344241D01*
X218866Y345483D02*
X218866Y339895D01*
X218866Y341758D02*
X216382Y343620D01*
X217779Y342534D02*
X216382Y339895D01*
X255171Y404931D02*
X253619Y406173D01*
X253619Y400585D01*
X255171Y400585D02*
X252067Y400585D01*
X249685Y403379D02*
X249683Y403510D01*
X249678Y403640D01*
X249668Y403770D01*
X249655Y403900D01*
X249639Y404030D01*
X249619Y404159D01*
X249595Y404287D01*
X249567Y404414D01*
X249536Y404541D01*
X249501Y404667D01*
X249463Y404792D01*
X249421Y404916D01*
X249376Y405038D01*
X249327Y405159D01*
X249275Y405279D01*
X249219Y405397D01*
X249196Y405457D01*
X249170Y405517D01*
X249141Y405574D01*
X249108Y405630D01*
X249072Y405684D01*
X249034Y405736D01*
X248992Y405786D01*
X248948Y405833D01*
X248901Y405878D01*
X248851Y405920D01*
X248800Y405959D01*
X248746Y405995D01*
X248690Y406028D01*
X248633Y406058D01*
X248574Y406085D01*
X248513Y406108D01*
X248452Y406128D01*
X248389Y406144D01*
X248325Y406157D01*
X248261Y406166D01*
X248197Y406171D01*
X248132Y406173D01*
X248067Y406171D01*
X248003Y406166D01*
X247939Y406157D01*
X247875Y406144D01*
X247812Y406128D01*
X247751Y406108D01*
X247690Y406085D01*
X247631Y406058D01*
X247574Y406028D01*
X247518Y405995D01*
X247464Y405959D01*
X247413Y405920D01*
X247363Y405878D01*
X247316Y405833D01*
X247272Y405786D01*
X247230Y405736D01*
X247192Y405684D01*
X247156Y405630D01*
X247123Y405574D01*
X247094Y405517D01*
X247068Y405457D01*
X247045Y405397D01*
X247046Y405397D02*
X246990Y405279D01*
X246938Y405159D01*
X246889Y405038D01*
X246844Y404916D01*
X246802Y404792D01*
X246764Y404667D01*
X246729Y404541D01*
X246698Y404415D01*
X246670Y404287D01*
X246646Y404159D01*
X246626Y404030D01*
X246610Y403900D01*
X246597Y403770D01*
X246587Y403640D01*
X246582Y403510D01*
X246580Y403379D01*
X249684Y403379D02*
X249682Y403248D01*
X249677Y403118D01*
X249667Y402988D01*
X249654Y402858D01*
X249638Y402728D01*
X249618Y402600D01*
X249594Y402471D01*
X249566Y402344D01*
X249535Y402217D01*
X249500Y402091D01*
X249462Y401966D01*
X249420Y401843D01*
X249375Y401720D01*
X249326Y401599D01*
X249274Y401479D01*
X249218Y401361D01*
X249219Y401361D02*
X249196Y401301D01*
X249170Y401241D01*
X249141Y401184D01*
X249108Y401128D01*
X249072Y401074D01*
X249034Y401022D01*
X248992Y400972D01*
X248948Y400925D01*
X248901Y400880D01*
X248851Y400838D01*
X248800Y400799D01*
X248746Y400763D01*
X248690Y400730D01*
X248633Y400700D01*
X248574Y400673D01*
X248513Y400650D01*
X248452Y400630D01*
X248389Y400614D01*
X248325Y400601D01*
X248261Y400592D01*
X248197Y400587D01*
X248132Y400585D01*
X247046Y401361D02*
X246990Y401479D01*
X246938Y401599D01*
X246889Y401720D01*
X246844Y401842D01*
X246802Y401966D01*
X246764Y402091D01*
X246729Y402217D01*
X246698Y402343D01*
X246670Y402471D01*
X246646Y402599D01*
X246626Y402728D01*
X246610Y402858D01*
X246597Y402988D01*
X246587Y403118D01*
X246582Y403248D01*
X246580Y403379D01*
X247045Y401361D02*
X247068Y401301D01*
X247094Y401241D01*
X247123Y401184D01*
X247156Y401128D01*
X247192Y401074D01*
X247230Y401022D01*
X247272Y400972D01*
X247316Y400925D01*
X247363Y400880D01*
X247413Y400838D01*
X247464Y400799D01*
X247518Y400763D01*
X247574Y400730D01*
X247631Y400700D01*
X247690Y400673D01*
X247751Y400650D01*
X247812Y400630D01*
X247875Y400614D01*
X247939Y400601D01*
X248003Y400592D01*
X248067Y400587D01*
X248132Y400585D01*
X249374Y401827D02*
X246891Y404931D01*
X244004Y406173D02*
X244004Y400585D01*
X244004Y402448D02*
X241521Y404310D01*
X242918Y403224D02*
X241521Y400585D01*
X253593Y387354D02*
X255145Y386112D01*
X253593Y387354D02*
X253593Y381766D01*
X255145Y381766D02*
X252041Y381766D01*
X249659Y384560D02*
X249657Y384691D01*
X249652Y384821D01*
X249642Y384951D01*
X249629Y385081D01*
X249613Y385211D01*
X249593Y385340D01*
X249569Y385468D01*
X249541Y385595D01*
X249510Y385722D01*
X249475Y385848D01*
X249437Y385973D01*
X249395Y386097D01*
X249350Y386219D01*
X249301Y386340D01*
X249249Y386460D01*
X249193Y386578D01*
X249170Y386638D01*
X249144Y386698D01*
X249115Y386755D01*
X249082Y386811D01*
X249046Y386865D01*
X249008Y386917D01*
X248966Y386967D01*
X248922Y387014D01*
X248875Y387059D01*
X248825Y387101D01*
X248774Y387140D01*
X248720Y387176D01*
X248664Y387209D01*
X248607Y387239D01*
X248548Y387266D01*
X248487Y387289D01*
X248426Y387309D01*
X248363Y387325D01*
X248299Y387338D01*
X248235Y387347D01*
X248171Y387352D01*
X248106Y387354D01*
X248041Y387352D01*
X247977Y387347D01*
X247913Y387338D01*
X247849Y387325D01*
X247786Y387309D01*
X247725Y387289D01*
X247664Y387266D01*
X247605Y387239D01*
X247548Y387209D01*
X247492Y387176D01*
X247438Y387140D01*
X247387Y387101D01*
X247337Y387059D01*
X247290Y387014D01*
X247246Y386967D01*
X247204Y386917D01*
X247166Y386865D01*
X247130Y386811D01*
X247097Y386755D01*
X247068Y386698D01*
X247042Y386638D01*
X247019Y386578D01*
X247020Y386578D02*
X246964Y386460D01*
X246912Y386340D01*
X246863Y386219D01*
X246818Y386097D01*
X246776Y385973D01*
X246738Y385848D01*
X246703Y385722D01*
X246672Y385596D01*
X246644Y385468D01*
X246620Y385340D01*
X246600Y385211D01*
X246584Y385081D01*
X246571Y384951D01*
X246561Y384821D01*
X246556Y384691D01*
X246554Y384560D01*
X249658Y384560D02*
X249656Y384429D01*
X249651Y384299D01*
X249641Y384169D01*
X249628Y384039D01*
X249612Y383909D01*
X249592Y383781D01*
X249568Y383652D01*
X249540Y383525D01*
X249509Y383398D01*
X249474Y383272D01*
X249436Y383147D01*
X249394Y383024D01*
X249349Y382901D01*
X249300Y382780D01*
X249248Y382660D01*
X249192Y382542D01*
X249193Y382542D02*
X249170Y382482D01*
X249144Y382422D01*
X249115Y382365D01*
X249082Y382309D01*
X249046Y382255D01*
X249008Y382203D01*
X248966Y382153D01*
X248922Y382106D01*
X248875Y382061D01*
X248825Y382019D01*
X248774Y381980D01*
X248720Y381944D01*
X248664Y381911D01*
X248607Y381881D01*
X248548Y381854D01*
X248487Y381831D01*
X248426Y381811D01*
X248363Y381795D01*
X248299Y381782D01*
X248235Y381773D01*
X248171Y381768D01*
X248106Y381766D01*
X247020Y382542D02*
X246964Y382660D01*
X246912Y382780D01*
X246863Y382901D01*
X246818Y383023D01*
X246776Y383147D01*
X246738Y383272D01*
X246703Y383398D01*
X246672Y383524D01*
X246644Y383652D01*
X246620Y383780D01*
X246600Y383909D01*
X246584Y384039D01*
X246571Y384169D01*
X246561Y384299D01*
X246556Y384429D01*
X246554Y384560D01*
X247019Y382541D02*
X247042Y382481D01*
X247068Y382421D01*
X247097Y382364D01*
X247130Y382308D01*
X247166Y382254D01*
X247204Y382202D01*
X247246Y382152D01*
X247290Y382105D01*
X247337Y382060D01*
X247387Y382018D01*
X247438Y381979D01*
X247492Y381943D01*
X247548Y381910D01*
X247605Y381880D01*
X247664Y381853D01*
X247725Y381830D01*
X247786Y381810D01*
X247849Y381794D01*
X247913Y381781D01*
X247977Y381772D01*
X248041Y381767D01*
X248106Y381765D01*
X249348Y383008D02*
X246865Y386112D01*
X243978Y387354D02*
X243978Y381766D01*
X243978Y383629D02*
X241495Y385491D01*
X242892Y384405D02*
X241495Y381766D01*
X253267Y306312D02*
X254819Y305071D01*
X253267Y306312D02*
X253267Y300724D01*
X254819Y300724D02*
X251714Y300724D01*
X249333Y303518D02*
X249331Y303649D01*
X249326Y303779D01*
X249316Y303909D01*
X249303Y304039D01*
X249287Y304169D01*
X249267Y304298D01*
X249243Y304426D01*
X249215Y304553D01*
X249184Y304680D01*
X249149Y304806D01*
X249111Y304931D01*
X249069Y305055D01*
X249024Y305177D01*
X248975Y305298D01*
X248923Y305418D01*
X248867Y305536D01*
X248867Y305537D02*
X248844Y305597D01*
X248818Y305657D01*
X248789Y305714D01*
X248756Y305770D01*
X248720Y305824D01*
X248682Y305876D01*
X248640Y305926D01*
X248596Y305973D01*
X248549Y306018D01*
X248499Y306060D01*
X248448Y306099D01*
X248394Y306135D01*
X248338Y306168D01*
X248281Y306198D01*
X248222Y306225D01*
X248161Y306248D01*
X248100Y306268D01*
X248037Y306284D01*
X247973Y306297D01*
X247909Y306306D01*
X247845Y306311D01*
X247780Y306313D01*
X247715Y306311D01*
X247651Y306306D01*
X247587Y306297D01*
X247523Y306284D01*
X247460Y306268D01*
X247399Y306248D01*
X247338Y306225D01*
X247279Y306198D01*
X247222Y306168D01*
X247166Y306135D01*
X247112Y306099D01*
X247061Y306060D01*
X247011Y306018D01*
X246964Y305973D01*
X246920Y305926D01*
X246878Y305876D01*
X246840Y305824D01*
X246804Y305770D01*
X246771Y305714D01*
X246742Y305657D01*
X246716Y305597D01*
X246693Y305537D01*
X246694Y305536D02*
X246638Y305418D01*
X246586Y305298D01*
X246537Y305177D01*
X246492Y305055D01*
X246450Y304931D01*
X246412Y304806D01*
X246377Y304680D01*
X246346Y304554D01*
X246318Y304426D01*
X246294Y304298D01*
X246274Y304169D01*
X246258Y304039D01*
X246245Y303909D01*
X246235Y303779D01*
X246230Y303649D01*
X246228Y303518D01*
X249332Y303518D02*
X249330Y303387D01*
X249325Y303257D01*
X249315Y303127D01*
X249302Y302997D01*
X249286Y302867D01*
X249266Y302739D01*
X249242Y302610D01*
X249214Y302483D01*
X249183Y302356D01*
X249148Y302230D01*
X249110Y302105D01*
X249068Y301982D01*
X249023Y301859D01*
X248974Y301738D01*
X248922Y301618D01*
X248866Y301500D01*
X248867Y301500D02*
X248844Y301440D01*
X248818Y301380D01*
X248789Y301323D01*
X248756Y301267D01*
X248720Y301213D01*
X248682Y301161D01*
X248640Y301111D01*
X248596Y301064D01*
X248549Y301019D01*
X248499Y300977D01*
X248448Y300938D01*
X248394Y300902D01*
X248338Y300869D01*
X248281Y300839D01*
X248222Y300812D01*
X248161Y300789D01*
X248100Y300769D01*
X248037Y300753D01*
X247973Y300740D01*
X247909Y300731D01*
X247845Y300726D01*
X247780Y300724D01*
X246694Y301500D02*
X246638Y301618D01*
X246586Y301738D01*
X246537Y301859D01*
X246492Y301981D01*
X246450Y302105D01*
X246412Y302230D01*
X246377Y302356D01*
X246346Y302482D01*
X246318Y302610D01*
X246294Y302738D01*
X246274Y302867D01*
X246258Y302997D01*
X246245Y303127D01*
X246235Y303257D01*
X246230Y303387D01*
X246228Y303518D01*
X246693Y301500D02*
X246716Y301440D01*
X246742Y301380D01*
X246771Y301323D01*
X246804Y301267D01*
X246840Y301213D01*
X246878Y301161D01*
X246920Y301111D01*
X246964Y301064D01*
X247011Y301019D01*
X247061Y300977D01*
X247112Y300938D01*
X247166Y300902D01*
X247222Y300869D01*
X247279Y300839D01*
X247338Y300812D01*
X247399Y300789D01*
X247460Y300769D01*
X247523Y300753D01*
X247587Y300740D01*
X247651Y300731D01*
X247715Y300726D01*
X247780Y300724D01*
X249022Y301966D02*
X246538Y305071D01*
X243652Y306312D02*
X243652Y300724D01*
X243652Y302587D02*
X241169Y304450D01*
X242566Y303363D02*
X241169Y300724D01*
D13*
X334560Y229191D02*
X334560Y177191D01*
X371560Y177391D02*
X371560Y229191D01*
D14*
X444560Y176691D02*
X210760Y176691D01*
X444560Y176691D02*
X444560Y229691D01*
X210760Y229691D01*
X210760Y176691D01*
X237410Y188691D02*
X443810Y188691D01*
D12*
X305201Y203967D02*
X305201Y205661D01*
X305199Y205725D01*
X305193Y205789D01*
X305184Y205852D01*
X305170Y205914D01*
X305153Y205976D01*
X305132Y206036D01*
X305108Y206095D01*
X305080Y206153D01*
X305048Y206208D01*
X305014Y206262D01*
X304976Y206313D01*
X304935Y206363D01*
X304891Y206409D01*
X304845Y206453D01*
X304795Y206494D01*
X304744Y206532D01*
X304690Y206566D01*
X304635Y206598D01*
X304577Y206626D01*
X304518Y206650D01*
X304458Y206671D01*
X304396Y206688D01*
X304334Y206702D01*
X304271Y206711D01*
X304207Y206717D01*
X304143Y206719D01*
X304079Y206717D01*
X304015Y206711D01*
X303952Y206702D01*
X303890Y206688D01*
X303828Y206671D01*
X303768Y206650D01*
X303709Y206626D01*
X303651Y206598D01*
X303596Y206566D01*
X303542Y206532D01*
X303491Y206494D01*
X303441Y206453D01*
X303395Y206409D01*
X303351Y206363D01*
X303310Y206313D01*
X303272Y206262D01*
X303238Y206208D01*
X303206Y206153D01*
X303178Y206095D01*
X303154Y206036D01*
X303133Y205976D01*
X303116Y205914D01*
X303102Y205852D01*
X303093Y205789D01*
X303087Y205725D01*
X303085Y205661D01*
X303084Y205661D02*
X303084Y203967D01*
X303085Y203967D02*
X303087Y203903D01*
X303093Y203839D01*
X303102Y203776D01*
X303116Y203714D01*
X303133Y203652D01*
X303154Y203592D01*
X303178Y203533D01*
X303206Y203475D01*
X303238Y203420D01*
X303272Y203366D01*
X303310Y203315D01*
X303351Y203265D01*
X303395Y203219D01*
X303441Y203175D01*
X303491Y203134D01*
X303542Y203096D01*
X303596Y203062D01*
X303651Y203030D01*
X303709Y203002D01*
X303768Y202978D01*
X303828Y202957D01*
X303890Y202940D01*
X303952Y202926D01*
X304015Y202917D01*
X304079Y202911D01*
X304143Y202909D01*
X304207Y202911D01*
X304271Y202917D01*
X304334Y202926D01*
X304396Y202940D01*
X304458Y202957D01*
X304518Y202978D01*
X304577Y203002D01*
X304635Y203030D01*
X304690Y203062D01*
X304744Y203096D01*
X304795Y203134D01*
X304845Y203175D01*
X304891Y203219D01*
X304935Y203265D01*
X304976Y203315D01*
X305014Y203366D01*
X305048Y203420D01*
X305080Y203475D01*
X305108Y203533D01*
X305132Y203592D01*
X305153Y203652D01*
X305170Y203714D01*
X305184Y203776D01*
X305193Y203839D01*
X305199Y203903D01*
X305201Y203967D01*
X301389Y202909D02*
X301389Y206719D01*
X300119Y204602D01*
X298849Y206719D01*
X298849Y202909D01*
X297011Y202909D02*
X297011Y206719D01*
X295953Y206719D01*
X295889Y206717D01*
X295825Y206711D01*
X295762Y206702D01*
X295700Y206688D01*
X295638Y206671D01*
X295578Y206650D01*
X295519Y206626D01*
X295461Y206598D01*
X295406Y206566D01*
X295352Y206532D01*
X295301Y206494D01*
X295251Y206453D01*
X295205Y206409D01*
X295161Y206363D01*
X295120Y206313D01*
X295082Y206262D01*
X295048Y206208D01*
X295016Y206153D01*
X294988Y206095D01*
X294964Y206036D01*
X294943Y205976D01*
X294926Y205914D01*
X294912Y205852D01*
X294903Y205789D01*
X294897Y205725D01*
X294895Y205661D01*
X294897Y205597D01*
X294903Y205533D01*
X294912Y205470D01*
X294926Y205408D01*
X294943Y205346D01*
X294964Y205286D01*
X294988Y205227D01*
X295016Y205169D01*
X295048Y205114D01*
X295082Y205060D01*
X295120Y205009D01*
X295161Y204959D01*
X295205Y204913D01*
X295251Y204869D01*
X295301Y204828D01*
X295352Y204790D01*
X295406Y204756D01*
X295461Y204724D01*
X295519Y204696D01*
X295578Y204672D01*
X295638Y204651D01*
X295700Y204634D01*
X295762Y204620D01*
X295825Y204611D01*
X295889Y204605D01*
X295953Y204603D01*
X295953Y204602D02*
X297011Y204602D01*
X295741Y204602D02*
X294895Y202909D01*
X293375Y203967D02*
X293375Y205661D01*
X293374Y205661D02*
X293372Y205725D01*
X293366Y205789D01*
X293357Y205852D01*
X293343Y205914D01*
X293326Y205976D01*
X293305Y206036D01*
X293281Y206095D01*
X293253Y206153D01*
X293221Y206208D01*
X293187Y206262D01*
X293149Y206313D01*
X293108Y206363D01*
X293064Y206409D01*
X293018Y206453D01*
X292968Y206494D01*
X292917Y206532D01*
X292863Y206566D01*
X292808Y206598D01*
X292750Y206626D01*
X292691Y206650D01*
X292631Y206671D01*
X292569Y206688D01*
X292507Y206702D01*
X292444Y206711D01*
X292380Y206717D01*
X292316Y206719D01*
X292252Y206717D01*
X292188Y206711D01*
X292125Y206702D01*
X292063Y206688D01*
X292001Y206671D01*
X291941Y206650D01*
X291882Y206626D01*
X291824Y206598D01*
X291769Y206566D01*
X291715Y206532D01*
X291664Y206494D01*
X291614Y206453D01*
X291568Y206409D01*
X291524Y206363D01*
X291483Y206313D01*
X291445Y206262D01*
X291411Y206208D01*
X291379Y206153D01*
X291351Y206095D01*
X291327Y206036D01*
X291306Y205976D01*
X291289Y205914D01*
X291275Y205852D01*
X291266Y205789D01*
X291260Y205725D01*
X291258Y205661D01*
X291258Y203967D01*
X291260Y203903D01*
X291266Y203839D01*
X291275Y203776D01*
X291289Y203714D01*
X291306Y203652D01*
X291327Y203592D01*
X291351Y203533D01*
X291379Y203475D01*
X291411Y203420D01*
X291445Y203366D01*
X291483Y203315D01*
X291524Y203265D01*
X291568Y203219D01*
X291614Y203175D01*
X291664Y203134D01*
X291715Y203096D01*
X291769Y203062D01*
X291824Y203030D01*
X291882Y203002D01*
X291941Y202978D01*
X292001Y202957D01*
X292063Y202940D01*
X292125Y202926D01*
X292188Y202917D01*
X292252Y202911D01*
X292316Y202909D01*
X292380Y202911D01*
X292444Y202917D01*
X292507Y202926D01*
X292569Y202940D01*
X292631Y202957D01*
X292691Y202978D01*
X292750Y203002D01*
X292808Y203030D01*
X292863Y203062D01*
X292917Y203096D01*
X292968Y203134D01*
X293018Y203175D01*
X293064Y203219D01*
X293108Y203265D01*
X293149Y203315D01*
X293187Y203366D01*
X293221Y203420D01*
X293253Y203475D01*
X293281Y203533D01*
X293305Y203592D01*
X293326Y203652D01*
X293343Y203714D01*
X293357Y203776D01*
X293366Y203839D01*
X293372Y203903D01*
X293374Y203967D01*
X289595Y202909D02*
X289595Y206719D01*
X287479Y202909D01*
X287479Y206719D01*
X285784Y204391D02*
X283244Y204391D01*
X280067Y205026D02*
X279432Y205026D01*
X279432Y202909D01*
X280702Y202909D01*
X280757Y202911D01*
X280813Y202916D01*
X280867Y202925D01*
X280921Y202938D01*
X280974Y202954D01*
X281026Y202973D01*
X281077Y202996D01*
X281126Y203022D01*
X281173Y203052D01*
X281218Y203084D01*
X281260Y203119D01*
X281301Y203157D01*
X281339Y203198D01*
X281374Y203240D01*
X281406Y203285D01*
X281436Y203333D01*
X281462Y203381D01*
X281485Y203432D01*
X281504Y203484D01*
X281520Y203537D01*
X281533Y203591D01*
X281542Y203645D01*
X281547Y203701D01*
X281549Y203756D01*
X281549Y205872D01*
X281547Y205930D01*
X281541Y205987D01*
X281531Y206044D01*
X281518Y206101D01*
X281500Y206156D01*
X281479Y206209D01*
X281454Y206262D01*
X281426Y206312D01*
X281394Y206360D01*
X281359Y206407D01*
X281321Y206450D01*
X281280Y206491D01*
X281237Y206529D01*
X281190Y206564D01*
X281142Y206596D01*
X281092Y206624D01*
X281039Y206649D01*
X280986Y206670D01*
X280931Y206688D01*
X280874Y206701D01*
X280817Y206711D01*
X280760Y206717D01*
X280702Y206719D01*
X279432Y206719D01*
X277769Y202909D02*
X276711Y202909D01*
X276647Y202911D01*
X276583Y202917D01*
X276520Y202926D01*
X276458Y202940D01*
X276396Y202957D01*
X276336Y202978D01*
X276277Y203002D01*
X276219Y203030D01*
X276164Y203062D01*
X276110Y203096D01*
X276059Y203134D01*
X276009Y203175D01*
X275963Y203219D01*
X275919Y203265D01*
X275878Y203315D01*
X275840Y203366D01*
X275806Y203420D01*
X275774Y203475D01*
X275746Y203533D01*
X275722Y203592D01*
X275701Y203652D01*
X275684Y203714D01*
X275670Y203776D01*
X275661Y203839D01*
X275655Y203903D01*
X275653Y203967D01*
X275655Y204031D01*
X275661Y204095D01*
X275670Y204158D01*
X275684Y204220D01*
X275701Y204282D01*
X275722Y204342D01*
X275746Y204401D01*
X275774Y204459D01*
X275806Y204514D01*
X275840Y204568D01*
X275878Y204619D01*
X275919Y204669D01*
X275963Y204715D01*
X276009Y204759D01*
X276059Y204800D01*
X276110Y204838D01*
X276164Y204872D01*
X276219Y204904D01*
X276277Y204932D01*
X276336Y204956D01*
X276396Y204977D01*
X276458Y204994D01*
X276520Y205008D01*
X276583Y205017D01*
X276647Y205023D01*
X276711Y205025D01*
X276499Y206719D02*
X277769Y206719D01*
X276499Y206719D02*
X276442Y206717D01*
X276386Y206711D01*
X276330Y206702D01*
X276275Y206689D01*
X276221Y206672D01*
X276168Y206652D01*
X276117Y206628D01*
X276067Y206601D01*
X276020Y206570D01*
X275974Y206537D01*
X275931Y206500D01*
X275890Y206461D01*
X275852Y206419D01*
X275817Y206374D01*
X275785Y206328D01*
X275756Y206279D01*
X275731Y206229D01*
X275709Y206176D01*
X275690Y206123D01*
X275675Y206068D01*
X275664Y206013D01*
X275656Y205957D01*
X275652Y205900D01*
X275652Y205844D01*
X275656Y205787D01*
X275664Y205731D01*
X275675Y205676D01*
X275690Y205621D01*
X275709Y205568D01*
X275731Y205515D01*
X275756Y205465D01*
X275785Y205416D01*
X275817Y205370D01*
X275852Y205325D01*
X275890Y205283D01*
X275931Y205244D01*
X275974Y205207D01*
X276020Y205174D01*
X276067Y205143D01*
X276117Y205116D01*
X276168Y205092D01*
X276221Y205072D01*
X276275Y205055D01*
X276330Y205042D01*
X276386Y205033D01*
X276442Y205027D01*
X276499Y205025D01*
X276499Y205026D02*
X277346Y205026D01*
X273957Y206719D02*
X273957Y202909D01*
X272687Y204602D02*
X273957Y206719D01*
X272687Y204602D02*
X271417Y206719D01*
X271417Y202909D01*
X269552Y205026D02*
X268494Y205026D01*
X268494Y205025D02*
X268430Y205023D01*
X268366Y205017D01*
X268303Y205008D01*
X268241Y204994D01*
X268179Y204977D01*
X268119Y204956D01*
X268060Y204932D01*
X268002Y204904D01*
X267947Y204872D01*
X267893Y204838D01*
X267842Y204800D01*
X267792Y204759D01*
X267746Y204715D01*
X267702Y204669D01*
X267661Y204619D01*
X267623Y204568D01*
X267589Y204514D01*
X267557Y204459D01*
X267529Y204401D01*
X267505Y204342D01*
X267484Y204282D01*
X267467Y204220D01*
X267453Y204158D01*
X267444Y204095D01*
X267438Y204031D01*
X267436Y203967D01*
X267438Y203903D01*
X267444Y203839D01*
X267453Y203776D01*
X267467Y203714D01*
X267484Y203652D01*
X267505Y203592D01*
X267529Y203533D01*
X267557Y203475D01*
X267589Y203420D01*
X267623Y203366D01*
X267661Y203315D01*
X267702Y203265D01*
X267746Y203219D01*
X267792Y203175D01*
X267842Y203134D01*
X267893Y203096D01*
X267947Y203062D01*
X268002Y203030D01*
X268060Y203002D01*
X268119Y202978D01*
X268179Y202957D01*
X268241Y202940D01*
X268303Y202926D01*
X268366Y202917D01*
X268430Y202911D01*
X268494Y202909D01*
X269552Y202909D01*
X269552Y206719D01*
X268494Y206719D01*
X268437Y206717D01*
X268381Y206711D01*
X268325Y206702D01*
X268270Y206689D01*
X268216Y206672D01*
X268163Y206652D01*
X268112Y206628D01*
X268062Y206601D01*
X268015Y206570D01*
X267969Y206537D01*
X267926Y206500D01*
X267885Y206461D01*
X267847Y206419D01*
X267812Y206374D01*
X267780Y206328D01*
X267751Y206279D01*
X267726Y206229D01*
X267704Y206176D01*
X267685Y206123D01*
X267670Y206068D01*
X267659Y206013D01*
X267651Y205957D01*
X267647Y205900D01*
X267647Y205844D01*
X267651Y205787D01*
X267659Y205731D01*
X267670Y205676D01*
X267685Y205621D01*
X267704Y205568D01*
X267726Y205515D01*
X267751Y205465D01*
X267780Y205416D01*
X267812Y205370D01*
X267847Y205325D01*
X267885Y205283D01*
X267926Y205244D01*
X267969Y205207D01*
X268015Y205174D01*
X268062Y205143D01*
X268112Y205116D01*
X268163Y205092D01*
X268216Y205072D01*
X268270Y205055D01*
X268325Y205042D01*
X268381Y205033D01*
X268437Y205027D01*
X268494Y205025D01*
X266033Y204391D02*
X263493Y204391D01*
X260755Y206720D02*
X260695Y206718D01*
X260636Y206712D01*
X260576Y206703D01*
X260518Y206690D01*
X260461Y206673D01*
X260404Y206653D01*
X260349Y206629D01*
X260296Y206602D01*
X260244Y206572D01*
X260195Y206538D01*
X260148Y206501D01*
X260103Y206462D01*
X260060Y206419D01*
X260021Y206374D01*
X259984Y206327D01*
X259950Y206278D01*
X259920Y206226D01*
X259893Y206173D01*
X259869Y206118D01*
X259849Y206061D01*
X259832Y206004D01*
X259819Y205946D01*
X259810Y205886D01*
X259804Y205827D01*
X259802Y205767D01*
X260755Y206719D02*
X260822Y206717D01*
X260889Y206712D01*
X260955Y206703D01*
X261021Y206690D01*
X261085Y206674D01*
X261149Y206654D01*
X261212Y206630D01*
X261274Y206604D01*
X261333Y206574D01*
X261391Y206541D01*
X261448Y206504D01*
X261502Y206465D01*
X261554Y206423D01*
X261603Y206378D01*
X261650Y206330D01*
X261694Y206280D01*
X261736Y206227D01*
X261774Y206172D01*
X261810Y206116D01*
X261842Y206057D01*
X261871Y205997D01*
X261897Y205935D01*
X261919Y205872D01*
X260120Y205026D02*
X260079Y205068D01*
X260040Y205113D01*
X260003Y205159D01*
X259969Y205208D01*
X259938Y205258D01*
X259911Y205310D01*
X259886Y205364D01*
X259864Y205419D01*
X259845Y205475D01*
X259830Y205532D01*
X259818Y205590D01*
X259810Y205649D01*
X259805Y205708D01*
X259803Y205767D01*
X260120Y205026D02*
X261920Y202909D01*
X259803Y202909D01*
X258262Y204814D02*
X258260Y204924D01*
X258254Y205033D01*
X258245Y205142D01*
X258231Y205251D01*
X258214Y205359D01*
X258193Y205467D01*
X258169Y205573D01*
X258140Y205679D01*
X258108Y205784D01*
X258073Y205888D01*
X258034Y205990D01*
X257991Y206091D01*
X257944Y206190D01*
X257945Y206190D02*
X257925Y206240D01*
X257903Y206289D01*
X257877Y206337D01*
X257848Y206382D01*
X257815Y206425D01*
X257780Y206466D01*
X257742Y206505D01*
X257702Y206540D01*
X257659Y206573D01*
X257614Y206603D01*
X257567Y206630D01*
X257519Y206653D01*
X257469Y206673D01*
X257417Y206689D01*
X257365Y206702D01*
X257312Y206712D01*
X257258Y206717D01*
X257204Y206719D01*
X257150Y206717D01*
X257096Y206712D01*
X257043Y206702D01*
X256991Y206689D01*
X256939Y206673D01*
X256889Y206653D01*
X256841Y206630D01*
X256794Y206603D01*
X256749Y206573D01*
X256706Y206540D01*
X256666Y206505D01*
X256628Y206466D01*
X256593Y206425D01*
X256560Y206382D01*
X256531Y206337D01*
X256505Y206289D01*
X256483Y206240D01*
X256463Y206190D01*
X256416Y206091D01*
X256373Y205990D01*
X256334Y205888D01*
X256299Y205784D01*
X256267Y205679D01*
X256238Y205573D01*
X256214Y205467D01*
X256193Y205359D01*
X256176Y205251D01*
X256162Y205142D01*
X256153Y205033D01*
X256147Y204924D01*
X256145Y204814D01*
X258262Y204814D02*
X258260Y204704D01*
X258254Y204595D01*
X258245Y204486D01*
X258231Y204377D01*
X258214Y204269D01*
X258193Y204161D01*
X258169Y204055D01*
X258140Y203949D01*
X258108Y203844D01*
X258073Y203741D01*
X258034Y203638D01*
X257991Y203537D01*
X257944Y203438D01*
X257945Y203438D02*
X257925Y203388D01*
X257903Y203339D01*
X257877Y203291D01*
X257848Y203246D01*
X257815Y203203D01*
X257780Y203162D01*
X257742Y203123D01*
X257702Y203088D01*
X257659Y203055D01*
X257614Y203025D01*
X257567Y202998D01*
X257519Y202975D01*
X257469Y202955D01*
X257417Y202939D01*
X257365Y202926D01*
X257312Y202916D01*
X257258Y202911D01*
X257204Y202909D01*
X256463Y203438D02*
X256416Y203537D01*
X256373Y203638D01*
X256334Y203741D01*
X256299Y203844D01*
X256267Y203949D01*
X256238Y204055D01*
X256214Y204161D01*
X256193Y204269D01*
X256176Y204377D01*
X256162Y204486D01*
X256153Y204595D01*
X256147Y204704D01*
X256145Y204814D01*
X256463Y203438D02*
X256483Y203388D01*
X256505Y203339D01*
X256531Y203291D01*
X256560Y203246D01*
X256593Y203203D01*
X256628Y203162D01*
X256666Y203123D01*
X256706Y203088D01*
X256749Y203055D01*
X256794Y203025D01*
X256841Y202998D01*
X256889Y202975D01*
X256940Y202955D01*
X256991Y202939D01*
X257043Y202926D01*
X257096Y202916D01*
X257150Y202911D01*
X257204Y202909D01*
X258050Y203756D02*
X256357Y205872D01*
X253440Y206720D02*
X253380Y206718D01*
X253321Y206712D01*
X253261Y206703D01*
X253203Y206690D01*
X253146Y206673D01*
X253089Y206653D01*
X253034Y206629D01*
X252981Y206602D01*
X252929Y206572D01*
X252880Y206538D01*
X252833Y206501D01*
X252788Y206462D01*
X252745Y206419D01*
X252706Y206374D01*
X252669Y206327D01*
X252635Y206278D01*
X252605Y206226D01*
X252578Y206173D01*
X252554Y206118D01*
X252534Y206061D01*
X252517Y206004D01*
X252504Y205946D01*
X252495Y205886D01*
X252489Y205827D01*
X252487Y205767D01*
X253440Y206719D02*
X253507Y206717D01*
X253574Y206712D01*
X253640Y206703D01*
X253706Y206690D01*
X253770Y206674D01*
X253834Y206654D01*
X253897Y206630D01*
X253959Y206604D01*
X254018Y206574D01*
X254076Y206541D01*
X254133Y206504D01*
X254187Y206465D01*
X254239Y206423D01*
X254288Y206378D01*
X254335Y206330D01*
X254379Y206280D01*
X254421Y206227D01*
X254459Y206172D01*
X254495Y206116D01*
X254527Y206057D01*
X254556Y205997D01*
X254582Y205935D01*
X254604Y205872D01*
X252805Y205026D02*
X252764Y205068D01*
X252725Y205113D01*
X252688Y205159D01*
X252654Y205208D01*
X252623Y205258D01*
X252596Y205310D01*
X252571Y205364D01*
X252549Y205419D01*
X252530Y205475D01*
X252515Y205532D01*
X252503Y205590D01*
X252495Y205649D01*
X252490Y205708D01*
X252488Y205767D01*
X252805Y205026D02*
X254604Y202909D01*
X252488Y202909D01*
X250777Y202909D02*
X250777Y206719D01*
X249718Y206719D01*
X249654Y206717D01*
X249590Y206711D01*
X249527Y206702D01*
X249465Y206688D01*
X249403Y206671D01*
X249343Y206650D01*
X249284Y206626D01*
X249226Y206598D01*
X249171Y206566D01*
X249117Y206532D01*
X249066Y206494D01*
X249016Y206453D01*
X248970Y206409D01*
X248926Y206363D01*
X248885Y206313D01*
X248847Y206262D01*
X248813Y206208D01*
X248781Y206153D01*
X248753Y206095D01*
X248729Y206036D01*
X248708Y205976D01*
X248691Y205914D01*
X248677Y205852D01*
X248668Y205789D01*
X248662Y205725D01*
X248660Y205661D01*
X248662Y205597D01*
X248668Y205533D01*
X248677Y205470D01*
X248691Y205408D01*
X248708Y205346D01*
X248729Y205286D01*
X248753Y205227D01*
X248781Y205169D01*
X248813Y205114D01*
X248847Y205060D01*
X248885Y205009D01*
X248926Y204959D01*
X248970Y204913D01*
X249016Y204869D01*
X249066Y204828D01*
X249117Y204790D01*
X249171Y204756D01*
X249226Y204724D01*
X249284Y204696D01*
X249343Y204672D01*
X249403Y204651D01*
X249465Y204634D01*
X249527Y204620D01*
X249590Y204611D01*
X249654Y204605D01*
X249718Y204603D01*
X249718Y204602D02*
X250777Y204602D01*
X247257Y204391D02*
X244717Y204391D01*
X241996Y202909D02*
X241941Y202911D01*
X241885Y202916D01*
X241831Y202925D01*
X241777Y202938D01*
X241724Y202954D01*
X241672Y202973D01*
X241621Y202996D01*
X241573Y203022D01*
X241525Y203052D01*
X241480Y203084D01*
X241438Y203119D01*
X241397Y203157D01*
X241359Y203198D01*
X241324Y203240D01*
X241292Y203285D01*
X241262Y203333D01*
X241236Y203381D01*
X241213Y203432D01*
X241194Y203484D01*
X241178Y203537D01*
X241165Y203591D01*
X241156Y203645D01*
X241151Y203701D01*
X241149Y203756D01*
X241996Y202909D02*
X242079Y202911D01*
X242162Y202917D01*
X242244Y202926D01*
X242326Y202940D01*
X242408Y202957D01*
X242488Y202978D01*
X242567Y203003D01*
X242646Y203031D01*
X242722Y203063D01*
X242797Y203099D01*
X242871Y203137D01*
X242942Y203180D01*
X243012Y203225D01*
X243079Y203274D01*
X243144Y203326D01*
X243206Y203381D01*
X243266Y203438D01*
X243160Y205872D02*
X243158Y205927D01*
X243153Y205983D01*
X243144Y206037D01*
X243131Y206091D01*
X243115Y206144D01*
X243096Y206196D01*
X243073Y206247D01*
X243047Y206296D01*
X243017Y206343D01*
X242985Y206388D01*
X242950Y206430D01*
X242912Y206471D01*
X242871Y206509D01*
X242829Y206544D01*
X242784Y206576D01*
X242737Y206606D01*
X242688Y206632D01*
X242637Y206655D01*
X242585Y206674D01*
X242532Y206690D01*
X242478Y206703D01*
X242424Y206712D01*
X242368Y206717D01*
X242313Y206719D01*
X242313Y206720D02*
X242234Y206718D01*
X242156Y206712D01*
X242078Y206703D01*
X242001Y206689D01*
X241924Y206672D01*
X241848Y206650D01*
X241774Y206626D01*
X241700Y206597D01*
X241629Y206565D01*
X241559Y206529D01*
X241490Y206490D01*
X241424Y206448D01*
X241360Y206402D01*
X242737Y205131D02*
X242784Y205161D01*
X242829Y205194D01*
X242872Y205230D01*
X242912Y205268D01*
X242950Y205309D01*
X242985Y205352D01*
X243017Y205398D01*
X243047Y205445D01*
X243073Y205495D01*
X243096Y205546D01*
X243115Y205598D01*
X243131Y205651D01*
X243144Y205706D01*
X243153Y205761D01*
X243158Y205816D01*
X243160Y205872D01*
X241572Y204497D02*
X241525Y204467D01*
X241480Y204434D01*
X241437Y204398D01*
X241397Y204360D01*
X241359Y204319D01*
X241324Y204276D01*
X241292Y204230D01*
X241262Y204183D01*
X241236Y204133D01*
X241213Y204082D01*
X241194Y204030D01*
X241178Y203977D01*
X241165Y203922D01*
X241156Y203867D01*
X241151Y203812D01*
X241149Y203756D01*
X241573Y204497D02*
X242737Y205132D01*
X238582Y202909D02*
X238527Y202911D01*
X238471Y202916D01*
X238417Y202925D01*
X238363Y202938D01*
X238310Y202954D01*
X238258Y202973D01*
X238207Y202996D01*
X238159Y203022D01*
X238111Y203052D01*
X238066Y203084D01*
X238024Y203119D01*
X237983Y203157D01*
X237945Y203198D01*
X237910Y203240D01*
X237878Y203285D01*
X237848Y203333D01*
X237822Y203381D01*
X237799Y203432D01*
X237780Y203484D01*
X237764Y203537D01*
X237751Y203591D01*
X237742Y203645D01*
X237737Y203701D01*
X237735Y203756D01*
X238582Y202909D02*
X238665Y202911D01*
X238748Y202917D01*
X238830Y202926D01*
X238912Y202940D01*
X238994Y202957D01*
X239074Y202978D01*
X239153Y203003D01*
X239232Y203031D01*
X239308Y203063D01*
X239383Y203099D01*
X239457Y203137D01*
X239528Y203180D01*
X239598Y203225D01*
X239665Y203274D01*
X239730Y203326D01*
X239792Y203381D01*
X239852Y203438D01*
X239747Y205872D02*
X239745Y205927D01*
X239740Y205983D01*
X239731Y206037D01*
X239718Y206091D01*
X239702Y206144D01*
X239683Y206196D01*
X239660Y206247D01*
X239634Y206296D01*
X239604Y206343D01*
X239572Y206388D01*
X239537Y206430D01*
X239499Y206471D01*
X239458Y206509D01*
X239416Y206544D01*
X239371Y206576D01*
X239324Y206606D01*
X239275Y206632D01*
X239224Y206655D01*
X239172Y206674D01*
X239119Y206690D01*
X239065Y206703D01*
X239011Y206712D01*
X238955Y206717D01*
X238900Y206719D01*
X238900Y206720D02*
X238821Y206718D01*
X238743Y206712D01*
X238665Y206703D01*
X238588Y206689D01*
X238511Y206672D01*
X238435Y206650D01*
X238361Y206626D01*
X238287Y206597D01*
X238216Y206565D01*
X238146Y206529D01*
X238077Y206490D01*
X238011Y206448D01*
X237947Y206402D01*
X239324Y205131D02*
X239371Y205161D01*
X239416Y205194D01*
X239459Y205230D01*
X239499Y205268D01*
X239537Y205309D01*
X239572Y205352D01*
X239604Y205398D01*
X239634Y205445D01*
X239660Y205495D01*
X239683Y205546D01*
X239702Y205598D01*
X239718Y205651D01*
X239731Y205706D01*
X239740Y205761D01*
X239745Y205816D01*
X239747Y205872D01*
X238158Y204497D02*
X238111Y204467D01*
X238066Y204434D01*
X238023Y204398D01*
X237983Y204360D01*
X237945Y204319D01*
X237910Y204276D01*
X237878Y204230D01*
X237848Y204183D01*
X237822Y204133D01*
X237799Y204082D01*
X237780Y204030D01*
X237764Y203977D01*
X237751Y203922D01*
X237742Y203867D01*
X237737Y203812D01*
X237735Y203756D01*
X238159Y204497D02*
X239323Y205132D01*
X236174Y206719D02*
X236174Y202909D01*
X236174Y206719D02*
X235115Y206719D01*
X235051Y206717D01*
X234987Y206711D01*
X234924Y206702D01*
X234862Y206688D01*
X234800Y206671D01*
X234740Y206650D01*
X234681Y206626D01*
X234623Y206598D01*
X234568Y206566D01*
X234514Y206532D01*
X234463Y206494D01*
X234413Y206453D01*
X234367Y206409D01*
X234323Y206363D01*
X234282Y206313D01*
X234244Y206262D01*
X234210Y206208D01*
X234178Y206153D01*
X234150Y206095D01*
X234126Y206036D01*
X234105Y205976D01*
X234088Y205914D01*
X234074Y205852D01*
X234065Y205789D01*
X234059Y205725D01*
X234057Y205661D01*
X234059Y205597D01*
X234065Y205533D01*
X234074Y205470D01*
X234088Y205408D01*
X234105Y205346D01*
X234126Y205286D01*
X234150Y205227D01*
X234178Y205169D01*
X234210Y205114D01*
X234244Y205060D01*
X234282Y205009D01*
X234323Y204959D01*
X234367Y204913D01*
X234413Y204869D01*
X234463Y204828D01*
X234514Y204790D01*
X234568Y204756D01*
X234623Y204724D01*
X234681Y204696D01*
X234740Y204672D01*
X234800Y204651D01*
X234862Y204634D01*
X234924Y204620D01*
X234987Y204611D01*
X235051Y204605D01*
X235115Y204603D01*
X235115Y204602D02*
X236174Y204602D01*
X234904Y204602D02*
X234057Y202909D01*
X230420Y205767D02*
X230422Y205827D01*
X230428Y205886D01*
X230437Y205946D01*
X230450Y206004D01*
X230467Y206061D01*
X230487Y206118D01*
X230511Y206173D01*
X230538Y206226D01*
X230568Y206278D01*
X230602Y206327D01*
X230639Y206374D01*
X230678Y206419D01*
X230721Y206462D01*
X230766Y206501D01*
X230813Y206538D01*
X230862Y206572D01*
X230914Y206602D01*
X230967Y206629D01*
X231022Y206653D01*
X231079Y206673D01*
X231136Y206690D01*
X231194Y206703D01*
X231254Y206712D01*
X231313Y206718D01*
X231373Y206720D01*
X231373Y206719D02*
X231440Y206717D01*
X231507Y206712D01*
X231573Y206703D01*
X231639Y206690D01*
X231703Y206674D01*
X231767Y206654D01*
X231830Y206630D01*
X231892Y206604D01*
X231951Y206574D01*
X232009Y206541D01*
X232066Y206504D01*
X232120Y206465D01*
X232172Y206423D01*
X232221Y206378D01*
X232268Y206330D01*
X232312Y206280D01*
X232354Y206227D01*
X232392Y206172D01*
X232428Y206116D01*
X232460Y206057D01*
X232489Y205997D01*
X232515Y205935D01*
X232537Y205872D01*
X230738Y205026D02*
X230697Y205068D01*
X230658Y205113D01*
X230621Y205159D01*
X230587Y205208D01*
X230556Y205258D01*
X230529Y205310D01*
X230504Y205364D01*
X230482Y205419D01*
X230463Y205475D01*
X230448Y205532D01*
X230436Y205590D01*
X230428Y205649D01*
X230423Y205708D01*
X230421Y205767D01*
X230738Y205026D02*
X232537Y202909D01*
X230420Y202909D01*
D15*
X325048Y323944D02*
X325048Y328290D01*
X325048Y323944D02*
X325050Y323874D01*
X325056Y323805D01*
X325066Y323736D01*
X325079Y323668D01*
X325097Y323600D01*
X325118Y323534D01*
X325143Y323469D01*
X325171Y323405D01*
X325203Y323343D01*
X325238Y323283D01*
X325277Y323225D01*
X325319Y323170D01*
X325364Y323116D01*
X325412Y323066D01*
X325462Y323018D01*
X325516Y322973D01*
X325571Y322931D01*
X325629Y322892D01*
X325689Y322857D01*
X325751Y322825D01*
X325815Y322797D01*
X325880Y322772D01*
X325946Y322751D01*
X326014Y322733D01*
X326082Y322720D01*
X326151Y322710D01*
X326220Y322704D01*
X326290Y322702D01*
X326911Y322702D01*
X320954Y325651D02*
X322817Y328290D01*
X320954Y325651D02*
X319092Y328290D01*
X320954Y325651D02*
X320954Y322702D01*
X317020Y322702D02*
X315468Y322702D01*
X315391Y322704D01*
X315313Y322710D01*
X315237Y322719D01*
X315160Y322733D01*
X315085Y322750D01*
X315011Y322771D01*
X314937Y322796D01*
X314865Y322824D01*
X314795Y322856D01*
X314726Y322891D01*
X314659Y322930D01*
X314594Y322972D01*
X314531Y323017D01*
X314470Y323065D01*
X314412Y323116D01*
X314357Y323170D01*
X314304Y323227D01*
X314255Y323286D01*
X314208Y323348D01*
X314164Y323412D01*
X314124Y323478D01*
X314087Y323546D01*
X314053Y323616D01*
X314023Y323687D01*
X313997Y323760D01*
X313974Y323834D01*
X313955Y323909D01*
X313940Y323984D01*
X313928Y324061D01*
X313920Y324138D01*
X313916Y324215D01*
X313916Y324293D01*
X313920Y324370D01*
X313928Y324447D01*
X313940Y324524D01*
X313955Y324599D01*
X313974Y324674D01*
X313997Y324748D01*
X314023Y324821D01*
X314053Y324892D01*
X314087Y324962D01*
X314124Y325030D01*
X314164Y325096D01*
X314208Y325160D01*
X314255Y325222D01*
X314304Y325281D01*
X314357Y325338D01*
X314412Y325392D01*
X314470Y325443D01*
X314531Y325491D01*
X314594Y325536D01*
X314659Y325578D01*
X314726Y325617D01*
X314795Y325652D01*
X314865Y325684D01*
X314937Y325712D01*
X315011Y325737D01*
X315085Y325758D01*
X315160Y325775D01*
X315237Y325789D01*
X315313Y325798D01*
X315391Y325804D01*
X315468Y325806D01*
X315157Y328290D02*
X317020Y328290D01*
X315157Y328290D02*
X315087Y328288D01*
X315018Y328282D01*
X314949Y328272D01*
X314881Y328259D01*
X314813Y328241D01*
X314747Y328220D01*
X314682Y328195D01*
X314618Y328167D01*
X314556Y328135D01*
X314496Y328100D01*
X314438Y328061D01*
X314383Y328019D01*
X314329Y327974D01*
X314279Y327926D01*
X314231Y327876D01*
X314186Y327822D01*
X314144Y327767D01*
X314105Y327709D01*
X314070Y327649D01*
X314038Y327587D01*
X314010Y327523D01*
X313985Y327458D01*
X313964Y327392D01*
X313946Y327324D01*
X313933Y327256D01*
X313923Y327187D01*
X313917Y327118D01*
X313915Y327048D01*
X313917Y326978D01*
X313923Y326909D01*
X313933Y326840D01*
X313946Y326772D01*
X313964Y326704D01*
X313985Y326638D01*
X314010Y326573D01*
X314038Y326509D01*
X314070Y326447D01*
X314105Y326387D01*
X314144Y326329D01*
X314186Y326274D01*
X314231Y326220D01*
X314279Y326170D01*
X314329Y326122D01*
X314383Y326077D01*
X314438Y326035D01*
X314496Y325996D01*
X314556Y325961D01*
X314618Y325929D01*
X314682Y325901D01*
X314747Y325876D01*
X314813Y325855D01*
X314881Y325837D01*
X314949Y325824D01*
X315018Y325814D01*
X315087Y325808D01*
X315157Y325806D01*
X315157Y325807D02*
X316399Y325807D01*
X316661Y344309D02*
X315109Y345551D01*
X315109Y339963D01*
X316661Y339963D02*
X313557Y339963D01*
X311175Y342757D02*
X311173Y342888D01*
X311168Y343018D01*
X311158Y343148D01*
X311145Y343278D01*
X311129Y343408D01*
X311109Y343537D01*
X311085Y343665D01*
X311057Y343792D01*
X311026Y343919D01*
X310991Y344045D01*
X310953Y344170D01*
X310911Y344294D01*
X310866Y344416D01*
X310817Y344537D01*
X310765Y344657D01*
X310709Y344775D01*
X310686Y344835D01*
X310660Y344895D01*
X310631Y344952D01*
X310598Y345008D01*
X310562Y345062D01*
X310524Y345114D01*
X310482Y345164D01*
X310438Y345211D01*
X310391Y345256D01*
X310341Y345298D01*
X310290Y345337D01*
X310236Y345373D01*
X310180Y345406D01*
X310123Y345436D01*
X310064Y345463D01*
X310003Y345486D01*
X309942Y345506D01*
X309879Y345522D01*
X309815Y345535D01*
X309751Y345544D01*
X309687Y345549D01*
X309622Y345551D01*
X309557Y345549D01*
X309493Y345544D01*
X309429Y345535D01*
X309365Y345522D01*
X309302Y345506D01*
X309241Y345486D01*
X309180Y345463D01*
X309121Y345436D01*
X309064Y345406D01*
X309008Y345373D01*
X308954Y345337D01*
X308903Y345298D01*
X308853Y345256D01*
X308806Y345211D01*
X308762Y345164D01*
X308720Y345114D01*
X308682Y345062D01*
X308646Y345008D01*
X308613Y344952D01*
X308584Y344895D01*
X308558Y344835D01*
X308535Y344775D01*
X308536Y344775D02*
X308480Y344657D01*
X308428Y344537D01*
X308379Y344416D01*
X308334Y344294D01*
X308292Y344170D01*
X308254Y344045D01*
X308219Y343919D01*
X308188Y343793D01*
X308160Y343665D01*
X308136Y343537D01*
X308116Y343408D01*
X308100Y343278D01*
X308087Y343148D01*
X308077Y343018D01*
X308072Y342888D01*
X308070Y342757D01*
X311174Y342757D02*
X311172Y342626D01*
X311167Y342496D01*
X311157Y342366D01*
X311144Y342236D01*
X311128Y342106D01*
X311108Y341978D01*
X311084Y341849D01*
X311056Y341722D01*
X311025Y341595D01*
X310990Y341469D01*
X310952Y341344D01*
X310910Y341221D01*
X310865Y341098D01*
X310816Y340977D01*
X310764Y340857D01*
X310708Y340739D01*
X310709Y340738D02*
X310686Y340678D01*
X310660Y340618D01*
X310631Y340561D01*
X310598Y340505D01*
X310562Y340451D01*
X310524Y340399D01*
X310482Y340349D01*
X310438Y340302D01*
X310391Y340257D01*
X310341Y340215D01*
X310290Y340176D01*
X310236Y340140D01*
X310180Y340107D01*
X310123Y340077D01*
X310064Y340050D01*
X310003Y340027D01*
X309942Y340007D01*
X309879Y339991D01*
X309815Y339978D01*
X309751Y339969D01*
X309687Y339964D01*
X309622Y339962D01*
X308536Y340739D02*
X308480Y340857D01*
X308428Y340977D01*
X308379Y341098D01*
X308334Y341220D01*
X308292Y341344D01*
X308254Y341469D01*
X308219Y341595D01*
X308188Y341721D01*
X308160Y341849D01*
X308136Y341977D01*
X308116Y342106D01*
X308100Y342236D01*
X308087Y342366D01*
X308077Y342496D01*
X308072Y342626D01*
X308070Y342757D01*
X308535Y340738D02*
X308558Y340678D01*
X308584Y340618D01*
X308613Y340561D01*
X308646Y340505D01*
X308682Y340451D01*
X308720Y340399D01*
X308762Y340349D01*
X308806Y340302D01*
X308853Y340257D01*
X308903Y340215D01*
X308954Y340176D01*
X309008Y340140D01*
X309064Y340107D01*
X309121Y340077D01*
X309180Y340050D01*
X309241Y340027D01*
X309302Y340007D01*
X309365Y339991D01*
X309429Y339978D01*
X309493Y339969D01*
X309557Y339964D01*
X309622Y339962D01*
X310864Y341204D02*
X308381Y344309D01*
X305494Y345551D02*
X305494Y339963D01*
X305494Y341825D02*
X303011Y343688D01*
X304408Y342601D02*
X303011Y339963D01*
D10*
X352968Y400640D02*
X377968Y400640D01*
X377968Y370640D01*
X352968Y370640D01*
X352968Y400640D01*
D16*
X380116Y373384D02*
X387990Y373384D01*
X387990Y375571D01*
X387988Y375664D01*
X387982Y375756D01*
X387972Y375849D01*
X387959Y375941D01*
X387941Y376032D01*
X387919Y376122D01*
X387894Y376211D01*
X387865Y376300D01*
X387832Y376386D01*
X387796Y376472D01*
X387756Y376556D01*
X387712Y376638D01*
X387665Y376718D01*
X387615Y376796D01*
X387561Y376871D01*
X387505Y376945D01*
X387445Y377016D01*
X387382Y377084D01*
X387316Y377150D01*
X387248Y377213D01*
X387177Y377273D01*
X387103Y377329D01*
X387028Y377383D01*
X386950Y377433D01*
X386870Y377480D01*
X386788Y377524D01*
X386704Y377564D01*
X386618Y377600D01*
X386532Y377633D01*
X386443Y377662D01*
X386354Y377687D01*
X386264Y377709D01*
X386173Y377727D01*
X386081Y377740D01*
X385988Y377750D01*
X385896Y377756D01*
X385803Y377758D01*
X385710Y377756D01*
X385618Y377750D01*
X385525Y377740D01*
X385433Y377727D01*
X385342Y377709D01*
X385252Y377687D01*
X385163Y377662D01*
X385074Y377633D01*
X384988Y377600D01*
X384902Y377564D01*
X384818Y377524D01*
X384736Y377480D01*
X384656Y377433D01*
X384578Y377383D01*
X384503Y377329D01*
X384429Y377273D01*
X384358Y377213D01*
X384290Y377150D01*
X384224Y377084D01*
X384161Y377016D01*
X384101Y376945D01*
X384045Y376871D01*
X383991Y376796D01*
X383941Y376718D01*
X383894Y376638D01*
X383850Y376556D01*
X383810Y376472D01*
X383774Y376386D01*
X383741Y376300D01*
X383712Y376211D01*
X383687Y376122D01*
X383665Y376032D01*
X383647Y375941D01*
X383634Y375849D01*
X383624Y375756D01*
X383618Y375664D01*
X383616Y375571D01*
X383616Y373384D01*
X383616Y376009D02*
X380116Y377758D01*
X380116Y381608D02*
X380116Y385108D01*
X380116Y381608D02*
X387990Y381608D01*
X387990Y385108D01*
X384491Y384233D02*
X384491Y381608D01*
X380116Y390614D02*
X380118Y390695D01*
X380123Y390775D01*
X380133Y390856D01*
X380146Y390936D01*
X380162Y391015D01*
X380183Y391093D01*
X380207Y391170D01*
X380234Y391246D01*
X380265Y391321D01*
X380299Y391394D01*
X380337Y391466D01*
X380378Y391535D01*
X380422Y391603D01*
X380469Y391669D01*
X380520Y391732D01*
X380573Y391793D01*
X380629Y391851D01*
X380687Y391907D01*
X380748Y391960D01*
X380811Y392011D01*
X380877Y392058D01*
X380945Y392102D01*
X381014Y392143D01*
X381086Y392181D01*
X381159Y392215D01*
X381234Y392246D01*
X381310Y392273D01*
X381387Y392297D01*
X381465Y392318D01*
X381544Y392334D01*
X381624Y392347D01*
X381705Y392357D01*
X381785Y392362D01*
X381866Y392364D01*
X380117Y390614D02*
X380119Y390497D01*
X380124Y390381D01*
X380134Y390264D01*
X380146Y390148D01*
X380163Y390033D01*
X380183Y389918D01*
X380207Y389804D01*
X380234Y389690D01*
X380265Y389578D01*
X380300Y389466D01*
X380338Y389356D01*
X380379Y389247D01*
X380424Y389139D01*
X380472Y389033D01*
X380524Y388928D01*
X380579Y388825D01*
X380637Y388724D01*
X380698Y388624D01*
X380763Y388527D01*
X380830Y388432D01*
X380901Y388338D01*
X380974Y388248D01*
X381050Y388159D01*
X381129Y388073D01*
X381210Y387990D01*
X386241Y388208D02*
X386322Y388210D01*
X386402Y388215D01*
X386483Y388225D01*
X386563Y388238D01*
X386642Y388254D01*
X386720Y388275D01*
X386797Y388299D01*
X386873Y388326D01*
X386948Y388357D01*
X387021Y388391D01*
X387093Y388429D01*
X387162Y388470D01*
X387230Y388514D01*
X387296Y388561D01*
X387359Y388612D01*
X387420Y388665D01*
X387478Y388721D01*
X387534Y388779D01*
X387587Y388840D01*
X387638Y388903D01*
X387685Y388969D01*
X387729Y389037D01*
X387770Y389106D01*
X387808Y389178D01*
X387842Y389251D01*
X387873Y389326D01*
X387900Y389402D01*
X387924Y389479D01*
X387945Y389557D01*
X387961Y389636D01*
X387974Y389716D01*
X387984Y389797D01*
X387989Y389877D01*
X387991Y389958D01*
X387989Y390069D01*
X387983Y390180D01*
X387974Y390291D01*
X387961Y390401D01*
X387944Y390511D01*
X387923Y390620D01*
X387899Y390729D01*
X387871Y390836D01*
X387840Y390943D01*
X387805Y391048D01*
X387766Y391152D01*
X387724Y391255D01*
X387678Y391356D01*
X387629Y391456D01*
X387577Y391554D01*
X387521Y391650D01*
X387462Y391744D01*
X387400Y391837D01*
X387335Y391927D01*
X384710Y389084D02*
X384754Y389013D01*
X384802Y388944D01*
X384853Y388877D01*
X384907Y388813D01*
X384963Y388751D01*
X385023Y388692D01*
X385086Y388636D01*
X385150Y388583D01*
X385218Y388533D01*
X385288Y388486D01*
X385359Y388443D01*
X385433Y388403D01*
X385509Y388367D01*
X385586Y388334D01*
X385665Y388305D01*
X385745Y388280D01*
X385826Y388258D01*
X385908Y388241D01*
X385990Y388227D01*
X386074Y388217D01*
X386157Y388211D01*
X386241Y388209D01*
X383397Y391489D02*
X383353Y391560D01*
X383305Y391629D01*
X383254Y391696D01*
X383200Y391760D01*
X383144Y391822D01*
X383084Y391881D01*
X383022Y391937D01*
X382957Y391990D01*
X382889Y392040D01*
X382819Y392087D01*
X382748Y392130D01*
X382674Y392170D01*
X382598Y392206D01*
X382521Y392239D01*
X382442Y392268D01*
X382362Y392293D01*
X382281Y392315D01*
X382199Y392332D01*
X382117Y392346D01*
X382033Y392356D01*
X381950Y392362D01*
X381866Y392364D01*
X383397Y391489D02*
X384710Y389083D01*
X380116Y396010D02*
X380116Y399509D01*
X380116Y396010D02*
X387990Y396010D01*
X387990Y399509D01*
X384491Y398635D02*
X384491Y396010D01*
X387990Y404312D02*
X380116Y404312D01*
X387990Y402125D02*
X387990Y406499D01*
D15*
X335477Y384760D02*
X333925Y386002D01*
X333925Y380414D01*
X335477Y380414D02*
X332373Y380414D01*
X329991Y383208D02*
X329989Y383339D01*
X329984Y383469D01*
X329974Y383599D01*
X329961Y383729D01*
X329945Y383859D01*
X329925Y383988D01*
X329901Y384116D01*
X329873Y384243D01*
X329842Y384370D01*
X329807Y384496D01*
X329769Y384621D01*
X329727Y384745D01*
X329682Y384867D01*
X329633Y384988D01*
X329581Y385108D01*
X329525Y385226D01*
X329502Y385286D01*
X329476Y385346D01*
X329447Y385403D01*
X329414Y385459D01*
X329378Y385513D01*
X329340Y385565D01*
X329298Y385615D01*
X329254Y385662D01*
X329207Y385707D01*
X329157Y385749D01*
X329106Y385788D01*
X329052Y385824D01*
X328996Y385857D01*
X328939Y385887D01*
X328880Y385914D01*
X328819Y385937D01*
X328758Y385957D01*
X328695Y385973D01*
X328631Y385986D01*
X328567Y385995D01*
X328503Y386000D01*
X328438Y386002D01*
X328373Y386000D01*
X328309Y385995D01*
X328245Y385986D01*
X328181Y385973D01*
X328118Y385957D01*
X328057Y385937D01*
X327996Y385914D01*
X327937Y385887D01*
X327880Y385857D01*
X327824Y385824D01*
X327770Y385788D01*
X327719Y385749D01*
X327669Y385707D01*
X327622Y385662D01*
X327578Y385615D01*
X327536Y385565D01*
X327498Y385513D01*
X327462Y385459D01*
X327429Y385403D01*
X327400Y385346D01*
X327374Y385286D01*
X327351Y385226D01*
X327352Y385226D02*
X327296Y385108D01*
X327244Y384988D01*
X327195Y384867D01*
X327150Y384745D01*
X327108Y384621D01*
X327070Y384496D01*
X327035Y384370D01*
X327004Y384244D01*
X326976Y384116D01*
X326952Y383988D01*
X326932Y383859D01*
X326916Y383729D01*
X326903Y383599D01*
X326893Y383469D01*
X326888Y383339D01*
X326886Y383208D01*
X329991Y383208D02*
X329989Y383077D01*
X329984Y382947D01*
X329974Y382817D01*
X329961Y382687D01*
X329945Y382557D01*
X329925Y382429D01*
X329901Y382300D01*
X329873Y382173D01*
X329842Y382046D01*
X329807Y381920D01*
X329769Y381795D01*
X329727Y381672D01*
X329682Y381549D01*
X329633Y381428D01*
X329581Y381308D01*
X329525Y381190D01*
X329525Y381189D02*
X329502Y381129D01*
X329476Y381069D01*
X329447Y381012D01*
X329414Y380956D01*
X329378Y380902D01*
X329340Y380850D01*
X329298Y380800D01*
X329254Y380753D01*
X329207Y380708D01*
X329157Y380666D01*
X329106Y380627D01*
X329052Y380591D01*
X328996Y380558D01*
X328939Y380528D01*
X328880Y380501D01*
X328819Y380478D01*
X328758Y380458D01*
X328695Y380442D01*
X328631Y380429D01*
X328567Y380420D01*
X328503Y380415D01*
X328438Y380413D01*
X327352Y381190D02*
X327296Y381308D01*
X327244Y381428D01*
X327195Y381549D01*
X327150Y381671D01*
X327108Y381795D01*
X327070Y381920D01*
X327035Y382046D01*
X327004Y382172D01*
X326976Y382300D01*
X326952Y382428D01*
X326932Y382557D01*
X326916Y382687D01*
X326903Y382817D01*
X326893Y382947D01*
X326888Y383077D01*
X326886Y383208D01*
X327351Y381189D02*
X327374Y381129D01*
X327400Y381069D01*
X327429Y381012D01*
X327462Y380956D01*
X327498Y380902D01*
X327536Y380850D01*
X327578Y380800D01*
X327622Y380753D01*
X327669Y380708D01*
X327719Y380666D01*
X327770Y380627D01*
X327824Y380591D01*
X327880Y380558D01*
X327937Y380528D01*
X327996Y380501D01*
X328057Y380478D01*
X328118Y380458D01*
X328181Y380442D01*
X328245Y380429D01*
X328309Y380420D01*
X328373Y380415D01*
X328438Y380413D01*
X329680Y381656D02*
X327197Y384760D01*
X324310Y386002D02*
X324310Y380414D01*
X324310Y382276D02*
X321827Y384139D01*
X323224Y383053D02*
X321827Y380414D01*
X293567Y386516D02*
X292015Y387757D01*
X292015Y382169D01*
X293567Y382169D02*
X290462Y382169D01*
X288080Y384963D02*
X288078Y385094D01*
X288073Y385224D01*
X288063Y385354D01*
X288050Y385484D01*
X288034Y385614D01*
X288014Y385743D01*
X287990Y385871D01*
X287962Y385998D01*
X287931Y386125D01*
X287896Y386251D01*
X287858Y386376D01*
X287816Y386500D01*
X287771Y386622D01*
X287722Y386743D01*
X287670Y386863D01*
X287614Y386981D01*
X287615Y386982D02*
X287592Y387042D01*
X287566Y387102D01*
X287537Y387159D01*
X287504Y387215D01*
X287468Y387269D01*
X287430Y387321D01*
X287388Y387371D01*
X287344Y387418D01*
X287297Y387463D01*
X287247Y387505D01*
X287196Y387544D01*
X287142Y387580D01*
X287086Y387613D01*
X287029Y387643D01*
X286970Y387670D01*
X286909Y387693D01*
X286848Y387713D01*
X286785Y387729D01*
X286721Y387742D01*
X286657Y387751D01*
X286593Y387756D01*
X286528Y387758D01*
X286463Y387756D01*
X286399Y387751D01*
X286335Y387742D01*
X286271Y387729D01*
X286208Y387713D01*
X286147Y387693D01*
X286086Y387670D01*
X286027Y387643D01*
X285970Y387613D01*
X285914Y387580D01*
X285860Y387544D01*
X285809Y387505D01*
X285759Y387463D01*
X285712Y387418D01*
X285668Y387371D01*
X285626Y387321D01*
X285588Y387269D01*
X285552Y387215D01*
X285519Y387159D01*
X285490Y387102D01*
X285464Y387042D01*
X285441Y386982D01*
X285442Y386981D02*
X285386Y386863D01*
X285334Y386743D01*
X285285Y386622D01*
X285240Y386500D01*
X285198Y386376D01*
X285160Y386251D01*
X285125Y386125D01*
X285094Y385999D01*
X285066Y385871D01*
X285042Y385743D01*
X285022Y385614D01*
X285006Y385484D01*
X284993Y385354D01*
X284983Y385224D01*
X284978Y385094D01*
X284976Y384963D01*
X288080Y384963D02*
X288078Y384832D01*
X288073Y384702D01*
X288063Y384572D01*
X288050Y384442D01*
X288034Y384312D01*
X288014Y384184D01*
X287990Y384055D01*
X287962Y383928D01*
X287931Y383801D01*
X287896Y383675D01*
X287858Y383550D01*
X287816Y383427D01*
X287771Y383304D01*
X287722Y383183D01*
X287670Y383063D01*
X287614Y382945D01*
X287615Y382945D02*
X287592Y382885D01*
X287566Y382825D01*
X287537Y382768D01*
X287504Y382712D01*
X287468Y382658D01*
X287430Y382606D01*
X287388Y382556D01*
X287344Y382509D01*
X287297Y382464D01*
X287247Y382422D01*
X287196Y382383D01*
X287142Y382347D01*
X287086Y382314D01*
X287029Y382284D01*
X286970Y382257D01*
X286909Y382234D01*
X286848Y382214D01*
X286785Y382198D01*
X286721Y382185D01*
X286657Y382176D01*
X286593Y382171D01*
X286528Y382169D01*
X285442Y382945D02*
X285386Y383063D01*
X285334Y383183D01*
X285285Y383304D01*
X285240Y383426D01*
X285198Y383550D01*
X285160Y383675D01*
X285125Y383801D01*
X285094Y383927D01*
X285066Y384055D01*
X285042Y384183D01*
X285022Y384312D01*
X285006Y384442D01*
X284993Y384572D01*
X284983Y384702D01*
X284978Y384832D01*
X284976Y384963D01*
X285441Y382945D02*
X285464Y382885D01*
X285490Y382825D01*
X285519Y382768D01*
X285552Y382712D01*
X285588Y382658D01*
X285626Y382606D01*
X285668Y382556D01*
X285712Y382509D01*
X285759Y382464D01*
X285809Y382422D01*
X285860Y382383D01*
X285914Y382347D01*
X285970Y382314D01*
X286027Y382284D01*
X286086Y382257D01*
X286147Y382234D01*
X286208Y382214D01*
X286271Y382198D01*
X286335Y382185D01*
X286399Y382176D01*
X286463Y382171D01*
X286528Y382169D01*
X287770Y383411D02*
X285286Y386516D01*
X282400Y387757D02*
X282400Y382169D01*
X282400Y384032D02*
X279917Y385895D01*
X281314Y384808D02*
X279917Y382169D01*
D10*
X352968Y295210D02*
X377968Y295210D01*
X352968Y295210D02*
X352968Y325210D01*
X377968Y325210D01*
X377968Y295210D01*
D16*
X380259Y292234D02*
X388133Y292234D01*
X388133Y295733D01*
X384633Y295733D02*
X384633Y292234D01*
X388133Y299168D02*
X380259Y299168D01*
X380259Y302667D01*
X380259Y305379D02*
X388133Y308003D01*
X380259Y310628D01*
X382227Y309972D02*
X382227Y306035D01*
X380259Y316175D02*
X380261Y316256D01*
X380266Y316336D01*
X380276Y316417D01*
X380289Y316497D01*
X380305Y316576D01*
X380326Y316654D01*
X380350Y316731D01*
X380377Y316807D01*
X380408Y316882D01*
X380442Y316955D01*
X380480Y317027D01*
X380521Y317096D01*
X380565Y317164D01*
X380612Y317230D01*
X380663Y317293D01*
X380716Y317354D01*
X380772Y317412D01*
X380830Y317468D01*
X380891Y317521D01*
X380954Y317572D01*
X381020Y317619D01*
X381088Y317663D01*
X381157Y317704D01*
X381229Y317742D01*
X381302Y317776D01*
X381377Y317807D01*
X381453Y317834D01*
X381530Y317858D01*
X381608Y317879D01*
X381687Y317895D01*
X381767Y317908D01*
X381848Y317918D01*
X381928Y317923D01*
X382009Y317925D01*
X380259Y316175D02*
X380261Y316058D01*
X380266Y315942D01*
X380276Y315825D01*
X380288Y315709D01*
X380305Y315594D01*
X380325Y315479D01*
X380349Y315365D01*
X380376Y315251D01*
X380407Y315139D01*
X380442Y315027D01*
X380480Y314917D01*
X380521Y314808D01*
X380566Y314700D01*
X380614Y314594D01*
X380666Y314489D01*
X380721Y314386D01*
X380779Y314285D01*
X380840Y314185D01*
X380905Y314088D01*
X380972Y313993D01*
X381043Y313899D01*
X381116Y313809D01*
X381192Y313720D01*
X381271Y313634D01*
X381352Y313551D01*
X386383Y313769D02*
X386464Y313771D01*
X386544Y313776D01*
X386625Y313786D01*
X386705Y313799D01*
X386784Y313815D01*
X386862Y313836D01*
X386939Y313860D01*
X387015Y313887D01*
X387090Y313918D01*
X387163Y313952D01*
X387235Y313990D01*
X387304Y314031D01*
X387372Y314075D01*
X387438Y314122D01*
X387501Y314173D01*
X387562Y314226D01*
X387620Y314282D01*
X387676Y314340D01*
X387729Y314401D01*
X387780Y314464D01*
X387827Y314530D01*
X387871Y314598D01*
X387912Y314667D01*
X387950Y314739D01*
X387984Y314812D01*
X388015Y314887D01*
X388042Y314963D01*
X388066Y315040D01*
X388087Y315118D01*
X388103Y315197D01*
X388116Y315277D01*
X388126Y315358D01*
X388131Y315438D01*
X388133Y315519D01*
X388131Y315630D01*
X388125Y315741D01*
X388116Y315852D01*
X388103Y315962D01*
X388086Y316072D01*
X388065Y316181D01*
X388041Y316290D01*
X388013Y316397D01*
X387982Y316504D01*
X387947Y316609D01*
X387908Y316713D01*
X387866Y316816D01*
X387820Y316917D01*
X387771Y317017D01*
X387719Y317115D01*
X387663Y317211D01*
X387604Y317305D01*
X387542Y317398D01*
X387477Y317488D01*
X384852Y314644D02*
X384896Y314573D01*
X384944Y314504D01*
X384995Y314437D01*
X385049Y314373D01*
X385105Y314311D01*
X385165Y314252D01*
X385228Y314196D01*
X385292Y314143D01*
X385360Y314093D01*
X385430Y314046D01*
X385501Y314003D01*
X385575Y313963D01*
X385651Y313927D01*
X385728Y313894D01*
X385807Y313865D01*
X385887Y313840D01*
X385968Y313818D01*
X386050Y313801D01*
X386132Y313787D01*
X386216Y313777D01*
X386299Y313771D01*
X386383Y313769D01*
X383540Y317050D02*
X383496Y317121D01*
X383448Y317190D01*
X383397Y317257D01*
X383343Y317321D01*
X383287Y317383D01*
X383227Y317442D01*
X383165Y317498D01*
X383100Y317551D01*
X383032Y317601D01*
X382962Y317648D01*
X382891Y317691D01*
X382817Y317731D01*
X382741Y317767D01*
X382664Y317800D01*
X382585Y317829D01*
X382505Y317854D01*
X382424Y317876D01*
X382342Y317893D01*
X382260Y317907D01*
X382176Y317917D01*
X382093Y317923D01*
X382009Y317925D01*
X383540Y317050D02*
X384852Y314644D01*
X388133Y321551D02*
X380259Y321551D01*
X384633Y321551D02*
X384633Y325926D01*
X388133Y325926D02*
X380259Y325926D01*
D17*
X345043Y120769D02*
X145143Y120769D01*
X345043Y30849D02*
X345043Y28819D01*
X145143Y28819D01*
X145143Y96889D02*
X145143Y120769D01*
X145143Y96889D02*
X161143Y96889D01*
X178923Y96889D02*
X211183Y96889D01*
X228963Y96889D02*
X261223Y96889D01*
X279003Y96889D02*
X311253Y96889D01*
X329033Y96889D02*
X345043Y96889D01*
X145143Y96889D02*
X145143Y30849D01*
X345043Y96889D02*
X345043Y120769D01*
X345043Y30849D02*
X145143Y30849D01*
X145143Y28819D01*
X345043Y30849D02*
X345043Y96889D01*
X164953Y44061D02*
X164955Y44203D01*
X164961Y44346D01*
X164971Y44488D01*
X164985Y44630D01*
X165003Y44771D01*
X165025Y44912D01*
X165051Y45052D01*
X165080Y45191D01*
X165114Y45330D01*
X165152Y45467D01*
X165193Y45604D01*
X165238Y45739D01*
X165287Y45873D01*
X165340Y46005D01*
X165396Y46136D01*
X165456Y46265D01*
X165520Y46393D01*
X165587Y46518D01*
X165658Y46642D01*
X165732Y46764D01*
X165809Y46883D01*
X165890Y47001D01*
X165974Y47116D01*
X166061Y47228D01*
X166152Y47338D01*
X166245Y47446D01*
X166342Y47551D01*
X166441Y47653D01*
X166543Y47752D01*
X166648Y47849D01*
X166756Y47942D01*
X166866Y48033D01*
X166978Y48120D01*
X167093Y48204D01*
X167211Y48285D01*
X167330Y48362D01*
X167452Y48436D01*
X167576Y48507D01*
X167701Y48574D01*
X167829Y48638D01*
X167958Y48698D01*
X168089Y48754D01*
X168221Y48807D01*
X168355Y48856D01*
X168490Y48901D01*
X168627Y48942D01*
X168764Y48980D01*
X168903Y49014D01*
X169042Y49043D01*
X169182Y49069D01*
X169323Y49091D01*
X169464Y49109D01*
X169606Y49123D01*
X169748Y49133D01*
X169891Y49139D01*
X170033Y49141D01*
X170175Y49139D01*
X170318Y49133D01*
X170460Y49123D01*
X170602Y49109D01*
X170743Y49091D01*
X170884Y49069D01*
X171024Y49043D01*
X171163Y49014D01*
X171302Y48980D01*
X171439Y48942D01*
X171576Y48901D01*
X171711Y48856D01*
X171845Y48807D01*
X171977Y48754D01*
X172108Y48698D01*
X172237Y48638D01*
X172365Y48574D01*
X172490Y48507D01*
X172614Y48436D01*
X172736Y48362D01*
X172855Y48285D01*
X172973Y48204D01*
X173088Y48120D01*
X173200Y48033D01*
X173310Y47942D01*
X173418Y47849D01*
X173523Y47752D01*
X173625Y47653D01*
X173724Y47551D01*
X173821Y47446D01*
X173914Y47338D01*
X174005Y47228D01*
X174092Y47116D01*
X174176Y47001D01*
X174257Y46883D01*
X174334Y46764D01*
X174408Y46642D01*
X174479Y46518D01*
X174546Y46393D01*
X174610Y46265D01*
X174670Y46136D01*
X174726Y46005D01*
X174779Y45873D01*
X174828Y45739D01*
X174873Y45604D01*
X174914Y45467D01*
X174952Y45330D01*
X174986Y45191D01*
X175015Y45052D01*
X175041Y44912D01*
X175063Y44771D01*
X175081Y44630D01*
X175095Y44488D01*
X175105Y44346D01*
X175111Y44203D01*
X175113Y44061D01*
X175111Y43919D01*
X175105Y43776D01*
X175095Y43634D01*
X175081Y43492D01*
X175063Y43351D01*
X175041Y43210D01*
X175015Y43070D01*
X174986Y42931D01*
X174952Y42792D01*
X174914Y42655D01*
X174873Y42518D01*
X174828Y42383D01*
X174779Y42249D01*
X174726Y42117D01*
X174670Y41986D01*
X174610Y41857D01*
X174546Y41729D01*
X174479Y41604D01*
X174408Y41480D01*
X174334Y41358D01*
X174257Y41239D01*
X174176Y41121D01*
X174092Y41006D01*
X174005Y40894D01*
X173914Y40784D01*
X173821Y40676D01*
X173724Y40571D01*
X173625Y40469D01*
X173523Y40370D01*
X173418Y40273D01*
X173310Y40180D01*
X173200Y40089D01*
X173088Y40002D01*
X172973Y39918D01*
X172855Y39837D01*
X172736Y39760D01*
X172614Y39686D01*
X172490Y39615D01*
X172365Y39548D01*
X172237Y39484D01*
X172108Y39424D01*
X171977Y39368D01*
X171845Y39315D01*
X171711Y39266D01*
X171576Y39221D01*
X171439Y39180D01*
X171302Y39142D01*
X171163Y39108D01*
X171024Y39079D01*
X170884Y39053D01*
X170743Y39031D01*
X170602Y39013D01*
X170460Y38999D01*
X170318Y38989D01*
X170175Y38983D01*
X170033Y38981D01*
X169891Y38983D01*
X169748Y38989D01*
X169606Y38999D01*
X169464Y39013D01*
X169323Y39031D01*
X169182Y39053D01*
X169042Y39079D01*
X168903Y39108D01*
X168764Y39142D01*
X168627Y39180D01*
X168490Y39221D01*
X168355Y39266D01*
X168221Y39315D01*
X168089Y39368D01*
X167958Y39424D01*
X167829Y39484D01*
X167701Y39548D01*
X167576Y39615D01*
X167452Y39686D01*
X167330Y39760D01*
X167211Y39837D01*
X167093Y39918D01*
X166978Y40002D01*
X166866Y40089D01*
X166756Y40180D01*
X166648Y40273D01*
X166543Y40370D01*
X166441Y40469D01*
X166342Y40571D01*
X166245Y40676D01*
X166152Y40784D01*
X166061Y40894D01*
X165974Y41006D01*
X165890Y41121D01*
X165809Y41239D01*
X165732Y41358D01*
X165658Y41480D01*
X165587Y41604D01*
X165520Y41729D01*
X165456Y41857D01*
X165396Y41986D01*
X165340Y42117D01*
X165287Y42249D01*
X165238Y42383D01*
X165193Y42518D01*
X165152Y42655D01*
X165114Y42792D01*
X165080Y42931D01*
X165051Y43070D01*
X165025Y43210D01*
X165003Y43351D01*
X164985Y43492D01*
X164971Y43634D01*
X164961Y43776D01*
X164955Y43919D01*
X164953Y44061D01*
X214991Y44061D02*
X214993Y44203D01*
X214999Y44346D01*
X215009Y44488D01*
X215023Y44630D01*
X215041Y44771D01*
X215063Y44912D01*
X215089Y45052D01*
X215118Y45191D01*
X215152Y45330D01*
X215190Y45467D01*
X215231Y45604D01*
X215276Y45739D01*
X215325Y45873D01*
X215378Y46005D01*
X215434Y46136D01*
X215494Y46265D01*
X215558Y46393D01*
X215625Y46518D01*
X215696Y46642D01*
X215770Y46764D01*
X215847Y46883D01*
X215928Y47001D01*
X216012Y47116D01*
X216099Y47228D01*
X216190Y47338D01*
X216283Y47446D01*
X216380Y47551D01*
X216479Y47653D01*
X216581Y47752D01*
X216686Y47849D01*
X216794Y47942D01*
X216904Y48033D01*
X217016Y48120D01*
X217131Y48204D01*
X217249Y48285D01*
X217368Y48362D01*
X217490Y48436D01*
X217614Y48507D01*
X217739Y48574D01*
X217867Y48638D01*
X217996Y48698D01*
X218127Y48754D01*
X218259Y48807D01*
X218393Y48856D01*
X218528Y48901D01*
X218665Y48942D01*
X218802Y48980D01*
X218941Y49014D01*
X219080Y49043D01*
X219220Y49069D01*
X219361Y49091D01*
X219502Y49109D01*
X219644Y49123D01*
X219786Y49133D01*
X219929Y49139D01*
X220071Y49141D01*
X220213Y49139D01*
X220356Y49133D01*
X220498Y49123D01*
X220640Y49109D01*
X220781Y49091D01*
X220922Y49069D01*
X221062Y49043D01*
X221201Y49014D01*
X221340Y48980D01*
X221477Y48942D01*
X221614Y48901D01*
X221749Y48856D01*
X221883Y48807D01*
X222015Y48754D01*
X222146Y48698D01*
X222275Y48638D01*
X222403Y48574D01*
X222528Y48507D01*
X222652Y48436D01*
X222774Y48362D01*
X222893Y48285D01*
X223011Y48204D01*
X223126Y48120D01*
X223238Y48033D01*
X223348Y47942D01*
X223456Y47849D01*
X223561Y47752D01*
X223663Y47653D01*
X223762Y47551D01*
X223859Y47446D01*
X223952Y47338D01*
X224043Y47228D01*
X224130Y47116D01*
X224214Y47001D01*
X224295Y46883D01*
X224372Y46764D01*
X224446Y46642D01*
X224517Y46518D01*
X224584Y46393D01*
X224648Y46265D01*
X224708Y46136D01*
X224764Y46005D01*
X224817Y45873D01*
X224866Y45739D01*
X224911Y45604D01*
X224952Y45467D01*
X224990Y45330D01*
X225024Y45191D01*
X225053Y45052D01*
X225079Y44912D01*
X225101Y44771D01*
X225119Y44630D01*
X225133Y44488D01*
X225143Y44346D01*
X225149Y44203D01*
X225151Y44061D01*
X225149Y43919D01*
X225143Y43776D01*
X225133Y43634D01*
X225119Y43492D01*
X225101Y43351D01*
X225079Y43210D01*
X225053Y43070D01*
X225024Y42931D01*
X224990Y42792D01*
X224952Y42655D01*
X224911Y42518D01*
X224866Y42383D01*
X224817Y42249D01*
X224764Y42117D01*
X224708Y41986D01*
X224648Y41857D01*
X224584Y41729D01*
X224517Y41604D01*
X224446Y41480D01*
X224372Y41358D01*
X224295Y41239D01*
X224214Y41121D01*
X224130Y41006D01*
X224043Y40894D01*
X223952Y40784D01*
X223859Y40676D01*
X223762Y40571D01*
X223663Y40469D01*
X223561Y40370D01*
X223456Y40273D01*
X223348Y40180D01*
X223238Y40089D01*
X223126Y40002D01*
X223011Y39918D01*
X222893Y39837D01*
X222774Y39760D01*
X222652Y39686D01*
X222528Y39615D01*
X222403Y39548D01*
X222275Y39484D01*
X222146Y39424D01*
X222015Y39368D01*
X221883Y39315D01*
X221749Y39266D01*
X221614Y39221D01*
X221477Y39180D01*
X221340Y39142D01*
X221201Y39108D01*
X221062Y39079D01*
X220922Y39053D01*
X220781Y39031D01*
X220640Y39013D01*
X220498Y38999D01*
X220356Y38989D01*
X220213Y38983D01*
X220071Y38981D01*
X219929Y38983D01*
X219786Y38989D01*
X219644Y38999D01*
X219502Y39013D01*
X219361Y39031D01*
X219220Y39053D01*
X219080Y39079D01*
X218941Y39108D01*
X218802Y39142D01*
X218665Y39180D01*
X218528Y39221D01*
X218393Y39266D01*
X218259Y39315D01*
X218127Y39368D01*
X217996Y39424D01*
X217867Y39484D01*
X217739Y39548D01*
X217614Y39615D01*
X217490Y39686D01*
X217368Y39760D01*
X217249Y39837D01*
X217131Y39918D01*
X217016Y40002D01*
X216904Y40089D01*
X216794Y40180D01*
X216686Y40273D01*
X216581Y40370D01*
X216479Y40469D01*
X216380Y40571D01*
X216283Y40676D01*
X216190Y40784D01*
X216099Y40894D01*
X216012Y41006D01*
X215928Y41121D01*
X215847Y41239D01*
X215770Y41358D01*
X215696Y41480D01*
X215625Y41604D01*
X215558Y41729D01*
X215494Y41857D01*
X215434Y41986D01*
X215378Y42117D01*
X215325Y42249D01*
X215276Y42383D01*
X215231Y42518D01*
X215190Y42655D01*
X215152Y42792D01*
X215118Y42931D01*
X215089Y43070D01*
X215063Y43210D01*
X215041Y43351D01*
X215023Y43492D01*
X215009Y43634D01*
X214999Y43776D01*
X214993Y43919D01*
X214991Y44061D01*
X265029Y44061D02*
X265031Y44203D01*
X265037Y44346D01*
X265047Y44488D01*
X265061Y44630D01*
X265079Y44771D01*
X265101Y44912D01*
X265127Y45052D01*
X265156Y45191D01*
X265190Y45330D01*
X265228Y45467D01*
X265269Y45604D01*
X265314Y45739D01*
X265363Y45873D01*
X265416Y46005D01*
X265472Y46136D01*
X265532Y46265D01*
X265596Y46393D01*
X265663Y46518D01*
X265734Y46642D01*
X265808Y46764D01*
X265885Y46883D01*
X265966Y47001D01*
X266050Y47116D01*
X266137Y47228D01*
X266228Y47338D01*
X266321Y47446D01*
X266418Y47551D01*
X266517Y47653D01*
X266619Y47752D01*
X266724Y47849D01*
X266832Y47942D01*
X266942Y48033D01*
X267054Y48120D01*
X267169Y48204D01*
X267287Y48285D01*
X267406Y48362D01*
X267528Y48436D01*
X267652Y48507D01*
X267777Y48574D01*
X267905Y48638D01*
X268034Y48698D01*
X268165Y48754D01*
X268297Y48807D01*
X268431Y48856D01*
X268566Y48901D01*
X268703Y48942D01*
X268840Y48980D01*
X268979Y49014D01*
X269118Y49043D01*
X269258Y49069D01*
X269399Y49091D01*
X269540Y49109D01*
X269682Y49123D01*
X269824Y49133D01*
X269967Y49139D01*
X270109Y49141D01*
X270251Y49139D01*
X270394Y49133D01*
X270536Y49123D01*
X270678Y49109D01*
X270819Y49091D01*
X270960Y49069D01*
X271100Y49043D01*
X271239Y49014D01*
X271378Y48980D01*
X271515Y48942D01*
X271652Y48901D01*
X271787Y48856D01*
X271921Y48807D01*
X272053Y48754D01*
X272184Y48698D01*
X272313Y48638D01*
X272441Y48574D01*
X272566Y48507D01*
X272690Y48436D01*
X272812Y48362D01*
X272931Y48285D01*
X273049Y48204D01*
X273164Y48120D01*
X273276Y48033D01*
X273386Y47942D01*
X273494Y47849D01*
X273599Y47752D01*
X273701Y47653D01*
X273800Y47551D01*
X273897Y47446D01*
X273990Y47338D01*
X274081Y47228D01*
X274168Y47116D01*
X274252Y47001D01*
X274333Y46883D01*
X274410Y46764D01*
X274484Y46642D01*
X274555Y46518D01*
X274622Y46393D01*
X274686Y46265D01*
X274746Y46136D01*
X274802Y46005D01*
X274855Y45873D01*
X274904Y45739D01*
X274949Y45604D01*
X274990Y45467D01*
X275028Y45330D01*
X275062Y45191D01*
X275091Y45052D01*
X275117Y44912D01*
X275139Y44771D01*
X275157Y44630D01*
X275171Y44488D01*
X275181Y44346D01*
X275187Y44203D01*
X275189Y44061D01*
X275187Y43919D01*
X275181Y43776D01*
X275171Y43634D01*
X275157Y43492D01*
X275139Y43351D01*
X275117Y43210D01*
X275091Y43070D01*
X275062Y42931D01*
X275028Y42792D01*
X274990Y42655D01*
X274949Y42518D01*
X274904Y42383D01*
X274855Y42249D01*
X274802Y42117D01*
X274746Y41986D01*
X274686Y41857D01*
X274622Y41729D01*
X274555Y41604D01*
X274484Y41480D01*
X274410Y41358D01*
X274333Y41239D01*
X274252Y41121D01*
X274168Y41006D01*
X274081Y40894D01*
X273990Y40784D01*
X273897Y40676D01*
X273800Y40571D01*
X273701Y40469D01*
X273599Y40370D01*
X273494Y40273D01*
X273386Y40180D01*
X273276Y40089D01*
X273164Y40002D01*
X273049Y39918D01*
X272931Y39837D01*
X272812Y39760D01*
X272690Y39686D01*
X272566Y39615D01*
X272441Y39548D01*
X272313Y39484D01*
X272184Y39424D01*
X272053Y39368D01*
X271921Y39315D01*
X271787Y39266D01*
X271652Y39221D01*
X271515Y39180D01*
X271378Y39142D01*
X271239Y39108D01*
X271100Y39079D01*
X270960Y39053D01*
X270819Y39031D01*
X270678Y39013D01*
X270536Y38999D01*
X270394Y38989D01*
X270251Y38983D01*
X270109Y38981D01*
X269967Y38983D01*
X269824Y38989D01*
X269682Y38999D01*
X269540Y39013D01*
X269399Y39031D01*
X269258Y39053D01*
X269118Y39079D01*
X268979Y39108D01*
X268840Y39142D01*
X268703Y39180D01*
X268566Y39221D01*
X268431Y39266D01*
X268297Y39315D01*
X268165Y39368D01*
X268034Y39424D01*
X267905Y39484D01*
X267777Y39548D01*
X267652Y39615D01*
X267528Y39686D01*
X267406Y39760D01*
X267287Y39837D01*
X267169Y39918D01*
X267054Y40002D01*
X266942Y40089D01*
X266832Y40180D01*
X266724Y40273D01*
X266619Y40370D01*
X266517Y40469D01*
X266418Y40571D01*
X266321Y40676D01*
X266228Y40784D01*
X266137Y40894D01*
X266050Y41006D01*
X265966Y41121D01*
X265885Y41239D01*
X265808Y41358D01*
X265734Y41480D01*
X265663Y41604D01*
X265596Y41729D01*
X265532Y41857D01*
X265472Y41986D01*
X265416Y42117D01*
X265363Y42249D01*
X265314Y42383D01*
X265269Y42518D01*
X265228Y42655D01*
X265190Y42792D01*
X265156Y42931D01*
X265127Y43070D01*
X265101Y43210D01*
X265079Y43351D01*
X265061Y43492D01*
X265047Y43634D01*
X265037Y43776D01*
X265031Y43919D01*
X265029Y44061D01*
X315067Y44061D02*
X315069Y44203D01*
X315075Y44346D01*
X315085Y44488D01*
X315099Y44630D01*
X315117Y44771D01*
X315139Y44912D01*
X315165Y45052D01*
X315194Y45191D01*
X315228Y45330D01*
X315266Y45467D01*
X315307Y45604D01*
X315352Y45739D01*
X315401Y45873D01*
X315454Y46005D01*
X315510Y46136D01*
X315570Y46265D01*
X315634Y46393D01*
X315701Y46518D01*
X315772Y46642D01*
X315846Y46764D01*
X315923Y46883D01*
X316004Y47001D01*
X316088Y47116D01*
X316175Y47228D01*
X316266Y47338D01*
X316359Y47446D01*
X316456Y47551D01*
X316555Y47653D01*
X316657Y47752D01*
X316762Y47849D01*
X316870Y47942D01*
X316980Y48033D01*
X317092Y48120D01*
X317207Y48204D01*
X317325Y48285D01*
X317444Y48362D01*
X317566Y48436D01*
X317690Y48507D01*
X317815Y48574D01*
X317943Y48638D01*
X318072Y48698D01*
X318203Y48754D01*
X318335Y48807D01*
X318469Y48856D01*
X318604Y48901D01*
X318741Y48942D01*
X318878Y48980D01*
X319017Y49014D01*
X319156Y49043D01*
X319296Y49069D01*
X319437Y49091D01*
X319578Y49109D01*
X319720Y49123D01*
X319862Y49133D01*
X320005Y49139D01*
X320147Y49141D01*
X320289Y49139D01*
X320432Y49133D01*
X320574Y49123D01*
X320716Y49109D01*
X320857Y49091D01*
X320998Y49069D01*
X321138Y49043D01*
X321277Y49014D01*
X321416Y48980D01*
X321553Y48942D01*
X321690Y48901D01*
X321825Y48856D01*
X321959Y48807D01*
X322091Y48754D01*
X322222Y48698D01*
X322351Y48638D01*
X322479Y48574D01*
X322604Y48507D01*
X322728Y48436D01*
X322850Y48362D01*
X322969Y48285D01*
X323087Y48204D01*
X323202Y48120D01*
X323314Y48033D01*
X323424Y47942D01*
X323532Y47849D01*
X323637Y47752D01*
X323739Y47653D01*
X323838Y47551D01*
X323935Y47446D01*
X324028Y47338D01*
X324119Y47228D01*
X324206Y47116D01*
X324290Y47001D01*
X324371Y46883D01*
X324448Y46764D01*
X324522Y46642D01*
X324593Y46518D01*
X324660Y46393D01*
X324724Y46265D01*
X324784Y46136D01*
X324840Y46005D01*
X324893Y45873D01*
X324942Y45739D01*
X324987Y45604D01*
X325028Y45467D01*
X325066Y45330D01*
X325100Y45191D01*
X325129Y45052D01*
X325155Y44912D01*
X325177Y44771D01*
X325195Y44630D01*
X325209Y44488D01*
X325219Y44346D01*
X325225Y44203D01*
X325227Y44061D01*
X325225Y43919D01*
X325219Y43776D01*
X325209Y43634D01*
X325195Y43492D01*
X325177Y43351D01*
X325155Y43210D01*
X325129Y43070D01*
X325100Y42931D01*
X325066Y42792D01*
X325028Y42655D01*
X324987Y42518D01*
X324942Y42383D01*
X324893Y42249D01*
X324840Y42117D01*
X324784Y41986D01*
X324724Y41857D01*
X324660Y41729D01*
X324593Y41604D01*
X324522Y41480D01*
X324448Y41358D01*
X324371Y41239D01*
X324290Y41121D01*
X324206Y41006D01*
X324119Y40894D01*
X324028Y40784D01*
X323935Y40676D01*
X323838Y40571D01*
X323739Y40469D01*
X323637Y40370D01*
X323532Y40273D01*
X323424Y40180D01*
X323314Y40089D01*
X323202Y40002D01*
X323087Y39918D01*
X322969Y39837D01*
X322850Y39760D01*
X322728Y39686D01*
X322604Y39615D01*
X322479Y39548D01*
X322351Y39484D01*
X322222Y39424D01*
X322091Y39368D01*
X321959Y39315D01*
X321825Y39266D01*
X321690Y39221D01*
X321553Y39180D01*
X321416Y39142D01*
X321277Y39108D01*
X321138Y39079D01*
X320998Y39053D01*
X320857Y39031D01*
X320716Y39013D01*
X320574Y38999D01*
X320432Y38989D01*
X320289Y38983D01*
X320147Y38981D01*
X320005Y38983D01*
X319862Y38989D01*
X319720Y38999D01*
X319578Y39013D01*
X319437Y39031D01*
X319296Y39053D01*
X319156Y39079D01*
X319017Y39108D01*
X318878Y39142D01*
X318741Y39180D01*
X318604Y39221D01*
X318469Y39266D01*
X318335Y39315D01*
X318203Y39368D01*
X318072Y39424D01*
X317943Y39484D01*
X317815Y39548D01*
X317690Y39615D01*
X317566Y39686D01*
X317444Y39760D01*
X317325Y39837D01*
X317207Y39918D01*
X317092Y40002D01*
X316980Y40089D01*
X316870Y40180D01*
X316762Y40273D01*
X316657Y40370D01*
X316555Y40469D01*
X316456Y40571D01*
X316359Y40676D01*
X316266Y40784D01*
X316175Y40894D01*
X316088Y41006D01*
X316004Y41121D01*
X315923Y41239D01*
X315846Y41358D01*
X315772Y41480D01*
X315701Y41604D01*
X315634Y41729D01*
X315570Y41857D01*
X315510Y41986D01*
X315454Y42117D01*
X315401Y42249D01*
X315352Y42383D01*
X315307Y42518D01*
X315266Y42655D01*
X315228Y42792D01*
X315194Y42931D01*
X315165Y43070D01*
X315139Y43210D01*
X315117Y43351D01*
X315099Y43492D01*
X315085Y43634D01*
X315075Y43776D01*
X315069Y43919D01*
X315067Y44061D01*
D10*
X207284Y121980D02*
X107284Y121980D01*
X207284Y121980D02*
X207284Y461980D01*
X7284Y461980D01*
X7284Y121980D01*
X107284Y121980D01*
D16*
X25126Y131396D02*
X13442Y131396D01*
X19933Y131396D02*
X19933Y137887D01*
X25126Y137887D02*
X13442Y137887D01*
X13442Y143610D02*
X25126Y143610D01*
X13442Y143610D02*
X13442Y148803D01*
X13442Y153663D02*
X25126Y153663D01*
X25126Y160154D02*
X17986Y153663D01*
X20583Y156259D02*
X13442Y160154D01*
X17986Y164655D02*
X17986Y172445D01*
X13442Y178047D02*
X25126Y178047D01*
X25126Y181292D01*
X25127Y181292D02*
X25125Y181405D01*
X25119Y181518D01*
X25109Y181631D01*
X25095Y181744D01*
X25078Y181856D01*
X25056Y181967D01*
X25031Y182077D01*
X25001Y182187D01*
X24968Y182295D01*
X24931Y182402D01*
X24891Y182508D01*
X24846Y182612D01*
X24798Y182715D01*
X24747Y182816D01*
X24692Y182915D01*
X24634Y183012D01*
X24572Y183107D01*
X24507Y183200D01*
X24439Y183290D01*
X24368Y183378D01*
X24293Y183464D01*
X24216Y183547D01*
X24136Y183627D01*
X24053Y183704D01*
X23967Y183779D01*
X23879Y183850D01*
X23789Y183918D01*
X23696Y183983D01*
X23601Y184045D01*
X23504Y184103D01*
X23405Y184158D01*
X23304Y184209D01*
X23201Y184257D01*
X23097Y184302D01*
X22991Y184342D01*
X22884Y184379D01*
X22776Y184412D01*
X22666Y184442D01*
X22556Y184467D01*
X22445Y184489D01*
X22333Y184506D01*
X22220Y184520D01*
X22107Y184530D01*
X21994Y184536D01*
X21881Y184538D01*
X21768Y184536D01*
X21655Y184530D01*
X21542Y184520D01*
X21429Y184506D01*
X21317Y184489D01*
X21206Y184467D01*
X21096Y184442D01*
X20986Y184412D01*
X20878Y184379D01*
X20771Y184342D01*
X20665Y184302D01*
X20561Y184257D01*
X20458Y184209D01*
X20357Y184158D01*
X20258Y184103D01*
X20161Y184045D01*
X20066Y183983D01*
X19973Y183918D01*
X19883Y183850D01*
X19795Y183779D01*
X19709Y183704D01*
X19626Y183627D01*
X19546Y183547D01*
X19469Y183464D01*
X19394Y183378D01*
X19323Y183290D01*
X19255Y183200D01*
X19190Y183107D01*
X19128Y183012D01*
X19070Y182915D01*
X19015Y182816D01*
X18964Y182715D01*
X18916Y182612D01*
X18871Y182508D01*
X18831Y182402D01*
X18794Y182295D01*
X18761Y182187D01*
X18731Y182077D01*
X18706Y181967D01*
X18684Y181856D01*
X18667Y181744D01*
X18653Y181631D01*
X18643Y181518D01*
X18637Y181405D01*
X18635Y181292D01*
X18635Y178047D01*
X13442Y189420D02*
X25126Y189420D01*
X18635Y193315D01*
X25126Y197210D01*
X13442Y197210D01*
X19284Y202643D02*
X19514Y202646D01*
X19744Y202654D01*
X19973Y202668D01*
X20202Y202687D01*
X20431Y202712D01*
X20658Y202742D01*
X20886Y202777D01*
X21112Y202818D01*
X21337Y202864D01*
X21561Y202916D01*
X21783Y202973D01*
X22005Y203035D01*
X22224Y203103D01*
X22442Y203176D01*
X22659Y203254D01*
X22873Y203337D01*
X23085Y203425D01*
X23295Y203518D01*
X23503Y203617D01*
X23504Y203616D02*
X23594Y203649D01*
X23683Y203685D01*
X23771Y203725D01*
X23856Y203769D01*
X23940Y203816D01*
X24022Y203866D01*
X24102Y203920D01*
X24179Y203976D01*
X24255Y204036D01*
X24328Y204099D01*
X24398Y204164D01*
X24466Y204233D01*
X24530Y204304D01*
X24592Y204377D01*
X24651Y204453D01*
X24707Y204531D01*
X24760Y204612D01*
X24809Y204694D01*
X24855Y204778D01*
X24898Y204865D01*
X24937Y204952D01*
X24973Y205042D01*
X25005Y205132D01*
X25033Y205224D01*
X25058Y205317D01*
X25079Y205411D01*
X25096Y205505D01*
X25110Y205600D01*
X25119Y205696D01*
X25125Y205792D01*
X25127Y205888D01*
X25125Y205984D01*
X25119Y206080D01*
X25110Y206176D01*
X25096Y206271D01*
X25079Y206365D01*
X25058Y206459D01*
X25033Y206552D01*
X25005Y206644D01*
X24973Y206734D01*
X24937Y206824D01*
X24898Y206911D01*
X24855Y206998D01*
X24809Y207082D01*
X24760Y207164D01*
X24707Y207245D01*
X24651Y207323D01*
X24592Y207399D01*
X24530Y207472D01*
X24466Y207543D01*
X24398Y207612D01*
X24328Y207677D01*
X24255Y207740D01*
X24179Y207800D01*
X24102Y207856D01*
X24022Y207910D01*
X23940Y207960D01*
X23856Y208007D01*
X23771Y208051D01*
X23683Y208091D01*
X23594Y208127D01*
X23504Y208160D01*
X23503Y208160D02*
X23296Y208259D01*
X23086Y208352D01*
X22873Y208440D01*
X22659Y208523D01*
X22443Y208601D01*
X22225Y208674D01*
X22005Y208742D01*
X21784Y208804D01*
X21561Y208861D01*
X21337Y208913D01*
X21112Y208959D01*
X20886Y209000D01*
X20659Y209035D01*
X20431Y209065D01*
X20202Y209090D01*
X19973Y209109D01*
X19744Y209123D01*
X19514Y209131D01*
X19284Y209134D01*
X19284Y202642D02*
X19054Y202645D01*
X18824Y202653D01*
X18595Y202667D01*
X18366Y202686D01*
X18137Y202711D01*
X17909Y202741D01*
X17682Y202776D01*
X17456Y202817D01*
X17231Y202863D01*
X17007Y202915D01*
X16784Y202972D01*
X16563Y203034D01*
X16343Y203102D01*
X16125Y203175D01*
X15909Y203253D01*
X15695Y203336D01*
X15483Y203424D01*
X15272Y203517D01*
X15065Y203616D01*
X14975Y203649D01*
X14886Y203685D01*
X14798Y203726D01*
X14713Y203769D01*
X14629Y203816D01*
X14547Y203866D01*
X14467Y203920D01*
X14390Y203976D01*
X14314Y204036D01*
X14241Y204099D01*
X14171Y204164D01*
X14103Y204233D01*
X14039Y204304D01*
X13977Y204377D01*
X13918Y204453D01*
X13862Y204531D01*
X13809Y204612D01*
X13760Y204694D01*
X13714Y204778D01*
X13671Y204865D01*
X13632Y204952D01*
X13596Y205042D01*
X13564Y205132D01*
X13536Y205224D01*
X13511Y205317D01*
X13490Y205411D01*
X13473Y205505D01*
X13459Y205600D01*
X13450Y205696D01*
X13444Y205792D01*
X13442Y205888D01*
X15065Y208160D02*
X15272Y208259D01*
X15483Y208352D01*
X15695Y208440D01*
X15909Y208523D01*
X16125Y208601D01*
X16343Y208674D01*
X16563Y208742D01*
X16784Y208804D01*
X17007Y208861D01*
X17231Y208913D01*
X17456Y208959D01*
X17682Y209000D01*
X17909Y209035D01*
X18137Y209065D01*
X18366Y209090D01*
X18595Y209109D01*
X18824Y209123D01*
X19054Y209131D01*
X19284Y209134D01*
X15065Y208160D02*
X14975Y208127D01*
X14886Y208091D01*
X14798Y208051D01*
X14713Y208007D01*
X14629Y207960D01*
X14547Y207910D01*
X14467Y207856D01*
X14390Y207800D01*
X14314Y207740D01*
X14241Y207677D01*
X14171Y207612D01*
X14103Y207543D01*
X14039Y207472D01*
X13977Y207399D01*
X13918Y207323D01*
X13862Y207245D01*
X13809Y207164D01*
X13760Y207082D01*
X13714Y206998D01*
X13671Y206911D01*
X13632Y206824D01*
X13596Y206734D01*
X13564Y206644D01*
X13536Y206552D01*
X13511Y206459D01*
X13490Y206365D01*
X13473Y206271D01*
X13459Y206176D01*
X13450Y206080D01*
X13444Y205984D01*
X13442Y205888D01*
X16039Y203292D02*
X22530Y208484D01*
X22530Y214072D02*
X25126Y217318D01*
X13442Y217318D01*
X13442Y214072D02*
X13442Y220564D01*
D17*
X49911Y104880D02*
X49911Y82020D01*
D15*
X70231Y106150D02*
X109601Y106150D01*
X121031Y80750D02*
X81661Y80750D01*
X95631Y83290D02*
X121031Y83290D01*
X95631Y103610D02*
X70231Y103610D01*
D17*
X71501Y69320D02*
X101981Y69320D01*
X89281Y117580D02*
X119761Y117580D01*
X89281Y117580D02*
X89123Y117578D01*
X88964Y117572D01*
X88806Y117562D01*
X88649Y117548D01*
X88491Y117531D01*
X88335Y117509D01*
X88178Y117484D01*
X88023Y117454D01*
X87868Y117421D01*
X87714Y117384D01*
X87561Y117343D01*
X87409Y117298D01*
X87259Y117249D01*
X87109Y117197D01*
X86961Y117141D01*
X86814Y117081D01*
X86669Y117018D01*
X86526Y116951D01*
X86384Y116881D01*
X86244Y116807D01*
X86106Y116729D01*
X85970Y116648D01*
X85836Y116564D01*
X85704Y116477D01*
X85574Y116386D01*
X85447Y116292D01*
X85322Y116195D01*
X85199Y116094D01*
X85079Y115991D01*
X84962Y115885D01*
X84847Y115776D01*
X84735Y115664D01*
X84626Y115549D01*
X84520Y115432D01*
X84417Y115312D01*
X84316Y115189D01*
X84219Y115064D01*
X84125Y114937D01*
X84034Y114807D01*
X83947Y114675D01*
X83863Y114541D01*
X83782Y114405D01*
X83704Y114267D01*
X83630Y114127D01*
X83560Y113985D01*
X83493Y113842D01*
X83430Y113697D01*
X83370Y113550D01*
X83314Y113402D01*
X83262Y113252D01*
X83213Y113102D01*
X83168Y112950D01*
X83127Y112797D01*
X83090Y112643D01*
X83057Y112488D01*
X83027Y112333D01*
X83002Y112176D01*
X82980Y112020D01*
X82963Y111862D01*
X82949Y111705D01*
X82939Y111547D01*
X82933Y111388D01*
X82931Y111230D01*
X108331Y75670D02*
X108329Y75512D01*
X108323Y75353D01*
X108313Y75195D01*
X108299Y75038D01*
X108282Y74880D01*
X108260Y74724D01*
X108235Y74567D01*
X108205Y74412D01*
X108172Y74257D01*
X108135Y74103D01*
X108094Y73950D01*
X108049Y73798D01*
X108000Y73648D01*
X107948Y73498D01*
X107892Y73350D01*
X107832Y73203D01*
X107769Y73058D01*
X107702Y72915D01*
X107632Y72773D01*
X107558Y72633D01*
X107480Y72495D01*
X107399Y72359D01*
X107315Y72225D01*
X107228Y72093D01*
X107137Y71963D01*
X107043Y71836D01*
X106946Y71711D01*
X106845Y71588D01*
X106742Y71468D01*
X106636Y71351D01*
X106527Y71236D01*
X106415Y71124D01*
X106300Y71015D01*
X106183Y70909D01*
X106063Y70806D01*
X105940Y70705D01*
X105815Y70608D01*
X105688Y70514D01*
X105558Y70423D01*
X105426Y70336D01*
X105292Y70252D01*
X105156Y70171D01*
X105018Y70093D01*
X104878Y70019D01*
X104736Y69949D01*
X104593Y69882D01*
X104448Y69819D01*
X104301Y69759D01*
X104153Y69703D01*
X104003Y69651D01*
X103853Y69602D01*
X103701Y69557D01*
X103548Y69516D01*
X103394Y69479D01*
X103239Y69446D01*
X103084Y69416D01*
X102927Y69391D01*
X102771Y69369D01*
X102613Y69352D01*
X102456Y69338D01*
X102298Y69328D01*
X102139Y69322D01*
X101981Y69320D01*
X80391Y75670D02*
X135001Y75670D01*
X110871Y111230D02*
X56261Y111230D01*
X135001Y75670D02*
X135159Y75672D01*
X135318Y75678D01*
X135476Y75688D01*
X135633Y75702D01*
X135791Y75719D01*
X135947Y75741D01*
X136104Y75766D01*
X136259Y75796D01*
X136414Y75829D01*
X136568Y75866D01*
X136721Y75907D01*
X136873Y75952D01*
X137023Y76001D01*
X137173Y76053D01*
X137321Y76109D01*
X137468Y76169D01*
X137613Y76232D01*
X137756Y76299D01*
X137898Y76369D01*
X138038Y76443D01*
X138176Y76521D01*
X138312Y76602D01*
X138446Y76686D01*
X138578Y76773D01*
X138708Y76864D01*
X138835Y76958D01*
X138960Y77055D01*
X139083Y77156D01*
X139203Y77259D01*
X139320Y77365D01*
X139435Y77474D01*
X139547Y77586D01*
X139656Y77701D01*
X139762Y77818D01*
X139865Y77938D01*
X139966Y78061D01*
X140063Y78186D01*
X140157Y78313D01*
X140248Y78443D01*
X140335Y78575D01*
X140419Y78709D01*
X140500Y78845D01*
X140578Y78983D01*
X140652Y79123D01*
X140722Y79265D01*
X140789Y79408D01*
X140852Y79553D01*
X140912Y79700D01*
X140968Y79848D01*
X141020Y79998D01*
X141069Y80148D01*
X141114Y80300D01*
X141155Y80453D01*
X141192Y80607D01*
X141225Y80762D01*
X141255Y80917D01*
X141280Y81074D01*
X141302Y81230D01*
X141319Y81388D01*
X141333Y81545D01*
X141343Y81703D01*
X141349Y81862D01*
X141351Y82020D01*
X141351Y104880D02*
X141349Y105038D01*
X141343Y105197D01*
X141333Y105355D01*
X141319Y105512D01*
X141302Y105670D01*
X141280Y105826D01*
X141255Y105983D01*
X141225Y106138D01*
X141192Y106293D01*
X141155Y106447D01*
X141114Y106600D01*
X141069Y106752D01*
X141020Y106902D01*
X140968Y107052D01*
X140912Y107200D01*
X140852Y107347D01*
X140789Y107492D01*
X140722Y107635D01*
X140652Y107777D01*
X140578Y107917D01*
X140500Y108055D01*
X140419Y108191D01*
X140335Y108325D01*
X140248Y108457D01*
X140157Y108587D01*
X140063Y108714D01*
X139966Y108839D01*
X139865Y108962D01*
X139762Y109082D01*
X139656Y109199D01*
X139547Y109314D01*
X139435Y109426D01*
X139320Y109535D01*
X139203Y109641D01*
X139083Y109744D01*
X138960Y109845D01*
X138835Y109942D01*
X138708Y110036D01*
X138578Y110127D01*
X138446Y110214D01*
X138312Y110298D01*
X138176Y110379D01*
X138038Y110457D01*
X137898Y110531D01*
X137756Y110601D01*
X137613Y110668D01*
X137468Y110731D01*
X137321Y110791D01*
X137173Y110847D01*
X137023Y110899D01*
X136873Y110948D01*
X136721Y110993D01*
X136568Y111034D01*
X136414Y111071D01*
X136259Y111104D01*
X136104Y111134D01*
X135947Y111159D01*
X135791Y111181D01*
X135633Y111198D01*
X135476Y111212D01*
X135318Y111222D01*
X135159Y111228D01*
X135001Y111230D01*
X56261Y111230D02*
X56103Y111228D01*
X55944Y111222D01*
X55786Y111212D01*
X55629Y111198D01*
X55471Y111181D01*
X55315Y111159D01*
X55158Y111134D01*
X55003Y111104D01*
X54848Y111071D01*
X54694Y111034D01*
X54541Y110993D01*
X54389Y110948D01*
X54239Y110899D01*
X54089Y110847D01*
X53941Y110791D01*
X53794Y110731D01*
X53649Y110668D01*
X53506Y110601D01*
X53364Y110531D01*
X53224Y110457D01*
X53086Y110379D01*
X52950Y110298D01*
X52816Y110214D01*
X52684Y110127D01*
X52554Y110036D01*
X52427Y109942D01*
X52302Y109845D01*
X52179Y109744D01*
X52059Y109641D01*
X51942Y109535D01*
X51827Y109426D01*
X51715Y109314D01*
X51606Y109199D01*
X51500Y109082D01*
X51397Y108962D01*
X51296Y108839D01*
X51199Y108714D01*
X51105Y108587D01*
X51014Y108457D01*
X50927Y108325D01*
X50843Y108191D01*
X50762Y108055D01*
X50684Y107917D01*
X50610Y107777D01*
X50540Y107635D01*
X50473Y107492D01*
X50410Y107347D01*
X50350Y107200D01*
X50294Y107052D01*
X50242Y106902D01*
X50193Y106752D01*
X50148Y106600D01*
X50107Y106447D01*
X50070Y106293D01*
X50037Y106138D01*
X50007Y105983D01*
X49982Y105826D01*
X49960Y105670D01*
X49943Y105512D01*
X49929Y105355D01*
X49919Y105197D01*
X49913Y105038D01*
X49911Y104880D01*
X49911Y82020D02*
X49913Y81862D01*
X49919Y81703D01*
X49929Y81545D01*
X49943Y81388D01*
X49960Y81230D01*
X49982Y81074D01*
X50007Y80917D01*
X50037Y80762D01*
X50070Y80607D01*
X50107Y80453D01*
X50148Y80300D01*
X50193Y80148D01*
X50242Y79998D01*
X50294Y79848D01*
X50350Y79700D01*
X50410Y79553D01*
X50473Y79408D01*
X50540Y79265D01*
X50610Y79123D01*
X50684Y78983D01*
X50762Y78845D01*
X50843Y78709D01*
X50927Y78575D01*
X51014Y78443D01*
X51105Y78313D01*
X51199Y78186D01*
X51296Y78061D01*
X51397Y77938D01*
X51500Y77818D01*
X51606Y77701D01*
X51715Y77586D01*
X51827Y77474D01*
X51942Y77365D01*
X52059Y77259D01*
X52179Y77156D01*
X52302Y77055D01*
X52427Y76958D01*
X52554Y76864D01*
X52684Y76773D01*
X52816Y76686D01*
X52950Y76602D01*
X53086Y76521D01*
X53224Y76443D01*
X53364Y76369D01*
X53506Y76299D01*
X53649Y76232D01*
X53794Y76169D01*
X53941Y76109D01*
X54089Y76053D01*
X54239Y76001D01*
X54389Y75952D01*
X54541Y75907D01*
X54694Y75866D01*
X54848Y75829D01*
X55003Y75796D01*
X55158Y75766D01*
X55315Y75741D01*
X55471Y75719D01*
X55629Y75702D01*
X55786Y75688D01*
X55944Y75678D01*
X56103Y75672D01*
X56261Y75670D01*
X141351Y82020D02*
X141351Y104880D01*
X60071Y75670D02*
X56261Y75670D01*
X131191Y111230D02*
X135001Y111230D01*
M02*
