G04 EAGLE Gerber RS-274X export*
G75*
%MOMM*%
%FSLAX34Y34*%
%LPD*%
%INSoldermask Bottom*%
%IPPOS*%
%AMOC8*
5,1,8,0,0,1.08239X$1,22.5*%
G01*
%ADD10C,1.711200*%
%ADD11R,1.203200X1.603200*%
%ADD12R,1.303200X1.203200*%
%ADD13R,1.203200X1.303200*%
%ADD14C,2.082800*%
%ADD15R,1.903200X1.485800*%
%ADD16C,1.993900*%
%ADD17C,2.003200*%
%ADD18C,1.625600*%
%ADD19C,0.959600*%


D10*
X226060Y137154D03*
X302260Y137154D03*
X403860Y137154D03*
X429260Y137154D03*
D11*
X280138Y328816D03*
X289638Y350816D03*
X270638Y350816D03*
D12*
X252855Y354379D03*
X252855Y371379D03*
D13*
X233187Y356531D03*
X216187Y356531D03*
X233294Y398756D03*
X216294Y398756D03*
X233291Y377616D03*
X216291Y377616D03*
X233187Y296976D03*
X216187Y296976D03*
D10*
X226060Y192691D03*
X302260Y192691D03*
X403860Y192691D03*
X429260Y192691D03*
D11*
X333419Y328816D03*
X342919Y350816D03*
X323919Y350816D03*
D12*
X307380Y354251D03*
X307380Y371251D03*
D14*
X221457Y449711D03*
X246857Y449711D03*
X272257Y449711D03*
X297657Y449711D03*
X323057Y449711D03*
X348457Y449711D03*
X373857Y449711D03*
X399257Y449711D03*
D15*
X365468Y406196D03*
X365468Y365084D03*
D13*
X342603Y370738D03*
X325603Y370738D03*
X288609Y370738D03*
X271609Y370738D03*
D15*
X365468Y289654D03*
X365468Y330766D03*
D14*
X221457Y246350D03*
X246857Y246350D03*
X272257Y246350D03*
X297657Y246350D03*
X323057Y246350D03*
X348457Y246350D03*
X373857Y246350D03*
X399257Y246350D03*
X424657Y246350D03*
D16*
X170033Y87813D02*
X170033Y69906D01*
X220033Y69906D02*
X220033Y87813D01*
X270033Y87813D02*
X270033Y69906D01*
X320033Y69906D02*
X320033Y87813D01*
D17*
X132284Y135980D02*
X132284Y153980D01*
X82284Y153980D02*
X82284Y135980D01*
X184284Y429980D02*
X184284Y447980D01*
X30284Y447980D02*
X30284Y429980D01*
D18*
X126844Y113674D02*
X126844Y99450D01*
X64003Y87450D02*
X64003Y73226D01*
D19*
X182151Y387949D03*
X355588Y228421D03*
M02*
