G04 EAGLE Gerber RS-274X export*
G75*
%MOMM*%
%FSLAX34Y34*%
%LPD*%
%INSoldermask Top*%
%IPPOS*%
%AMOC8*
5,1,8,0,0,1.08239X$1,22.5*%
G01*
%ADD10C,1.711200*%
%ADD11R,1.473200X2.235200*%
%ADD12R,1.403200X2.489200*%
%ADD13C,2.082800*%
%ADD14R,1.422400X2.438400*%
%ADD15R,3.803200X2.403200*%
%ADD16C,1.993900*%
%ADD17C,2.003200*%
%ADD18R,3.353200X1.983200*%
%ADD19C,1.625600*%
%ADD20R,1.303200X1.203200*%
%ADD21C,0.959600*%


D10*
X226060Y137154D03*
X302260Y137154D03*
X403860Y137154D03*
X429260Y137154D03*
D11*
X144138Y437161D03*
X111118Y437161D03*
D12*
X361080Y424585D03*
X341080Y424585D03*
X321080Y424585D03*
X301080Y424585D03*
X281080Y424585D03*
X261080Y424585D03*
X241080Y424585D03*
X221080Y424585D03*
X361080Y270745D03*
X341080Y270745D03*
X321080Y270745D03*
X301080Y270745D03*
X281080Y270745D03*
X261080Y270745D03*
X241080Y270745D03*
X221080Y270745D03*
D10*
X226060Y192691D03*
X302260Y192691D03*
X403860Y192691D03*
X429260Y192691D03*
D13*
X221457Y449711D03*
X246857Y449711D03*
X272257Y449711D03*
X297657Y449711D03*
X323057Y449711D03*
X348457Y449711D03*
X373857Y449711D03*
X399257Y449711D03*
D14*
X110791Y376489D03*
X87677Y376489D03*
X64563Y376489D03*
D15*
X87677Y314511D03*
D13*
X221457Y246350D03*
X246857Y246350D03*
X272257Y246350D03*
X297657Y246350D03*
X323057Y246350D03*
X348457Y246350D03*
X373857Y246350D03*
X399257Y246350D03*
X424657Y246350D03*
D16*
X170033Y87813D02*
X170033Y69906D01*
X220033Y69906D02*
X220033Y87813D01*
X270033Y87813D02*
X270033Y69906D01*
X320033Y69906D02*
X320033Y87813D01*
D11*
X144138Y410742D03*
X111118Y410742D03*
X56132Y410742D03*
X89152Y410742D03*
X55702Y437161D03*
X88722Y437161D03*
D17*
X132284Y153980D02*
X132284Y135980D01*
X82284Y135980D02*
X82284Y153980D01*
X184284Y429980D02*
X184284Y447980D01*
X30284Y447980D02*
X30284Y429980D01*
D18*
X177570Y183701D03*
X177570Y131301D03*
D19*
X126844Y113674D02*
X126844Y99450D01*
X64003Y87450D02*
X64003Y73226D01*
D20*
X194131Y345090D03*
X194131Y328090D03*
X194212Y376992D03*
X194212Y359992D03*
D21*
X182151Y387949D03*
X355588Y228421D03*
M02*
