  0
SECTION
  2
HEADER
  9
$ACADVER
  1
AC1009
  9
$FILLMODE
 70
1
  9
$EXTMIN
 10
20.5872
 20
23.0645
 30
0.0000
  9
$EXTMAX
 10
44.7510
 20
46.4197
 30
0.0000
  0
ENDSEC
  0
SECTION
  2
TABLES
  0
TABLE
  2
LTYPE
 70
1
  0
LTYPE
  2
CONTINUOUS
 70
64
  3
Solid line
 72
65
 73
0
 40
0
  0
ENDTAB
  0
TABLE
  2
LAYER
 70
255
  0
LAYER
  2
16
 70
64
 62
132
  6
CONTINUOUS
  0
LAYER
  2
20
 70
64
 62
31
  6
CONTINUOUS
  0
LAYER
  2
39
 70
64
 62
12
  6
CONTINUOUS
  0
LAYER
  2
40
 70
64
 62
132
  6
CONTINUOUS
  0
LAYER
  2
41
 70
64
 62
12
  6
CONTINUOUS
  0
LAYER
  2
42
 70
64
 62
132
  6
CONTINUOUS
  0
LAYER
  2
46
 70
64
 62
140
  6
CONTINUOUS
  0
LAYER
  2
48
 70
64
 62
253
  6
CONTINUOUS
  0
LAYER
  2
51
 70
64
 62
253
  6
CONTINUOUS
  0
LAYER
  2
52
 70
64
 62
253
  6
CONTINUOUS
  0
ENDTAB
  0
ENDSEC
  0
SECTION
  2
BLOCKS
  0
BLOCK
  8
0
  2
RECT
 70
64
 10
0.0000
 20
0.0000
 30
0.0000
  3
RECT
  0
SOLID
  8
0
 10
-0.5000
 20
-0.5000
 30
0.0000
 11
0.5000
 21
-0.5000
 31
0.0000
 12
-0.5000
 22
0.5000
 32
0.0000
 13
0.5000
 23
0.5000
 33
0.0000
  0
ENDBLK
  8
0
  0
BLOCK
  8
0
  2
PIE
 70
64
 10
0.0000
 20
0.0000
 30
0.0000
  3
PIE
  0
POLYLINE
  8
0
 66
1
 10
0.0000
 20
0.0000
 30
0.0000
 40
0.5000
 41
0.5000
 70
0
  0
VERTEX
  8
0
 10
0.0000
 20
-0.2500
 30
0.0000
 42
1.0000
  0
VERTEX
  8
0
 10
0.0000
 20
0.2500
 30
0.0000
 42
1.0000
  0
VERTEX
  8
0
 10
0.0000
 20
-0.2500
 30
0.0000
  0
SEQEND
  8
0
  0
ENDBLK
  8
0
  0
BLOCK
  8
0
  2
OCTAGONP
 70
64
 10
0.0000
 20
0.0000
 30
0.0000
  3
OCTAGONP
  0
POLYLINE
  8
0
 66
1
 10
0.0000
 20
0.0000
 30
0.0000
 40
0.5000
 41
0.5000
 70
0
  0
VERTEX
  8
0
 10
-0.2500
 20
-0.1036
 30
0.0000
  0
VERTEX
  8
0
 10
-0.2500
 20
0.1036
 30
0.0000
  0
VERTEX
  8
0
 10
-0.1036
 20
0.2500
 30
0.0000
  0
VERTEX
  8
0
 10
0.1036
 20
0.2500
 30
0.0000
  0
VERTEX
  8
0
 10
0.2500
 20
0.1036
 30
0.0000
  0
VERTEX
  8
0
 10
0.2500
 20
-0.1036
 30
0.0000
  0
VERTEX
  8
0
 10
0.1036
 20
-0.2500
 30
0.0000
  0
VERTEX
  8
0
 10
-0.1036
 20
-0.2500
 30
0.0000
  0
VERTEX
  8
0
 10
-0.2500
 20
-0.1036
 30
0.0000
  0
VERTEX
  8
0
 10
-0.2500
 20
0.1036
 30
0.0000
  0
SEQEND
  8
0
  0
ENDBLK
  8
0
  0
BLOCK
  8
0
  2
SQUAREP
 70
64
 10
0.0000
 20
0.0000
 30
0.0000
  3
SQUAREP
  0
SOLID
  8
0
 10
-0.5000
 20
-0.5000
 30
0.0000
 11
0.5000
 21
-0.5000
 31
0.0000
 12
-0.5000
 22
0.5000
 32
0.0000
 13
0.5000
 23
0.5000
 33
0.0000
  0
ENDBLK
  8
0
  0
BLOCK
  8
0
  2
ROUNDP
 70
64
 10
0.0000
 20
0.0000
 30
0.0000
  3
ROUNDP
  0
POLYLINE
  8
0
 66
1
 10
0.0000
 20
0.0000
 30
0.0000
 40
0.5000
 41
0.5000
 70
0
  0
VERTEX
  8
0
 10
0.0000
 20
-0.2500
 30
0.0000
 42
1.0000
  0
VERTEX
  8
0
 10
0.0000
 20
0.2500
 30
0.0000
 42
1.0000
  0
VERTEX
  8
0
 10
0.0000
 20
-0.2500
 30
0.0000
  0
SEQEND
  8
0
  0
ENDBLK
  8
0
  0
BLOCK
  8
0
  2
ANNULUSP
 70
64
 10
0.0000
 20
0.0000
 30
0.0000
  3
ANNULUSP
  0
POLYLINE
  8
0
 66
1
 10
0.0000
 20
0.0000
 30
0.0000
 40
0.5000
 41
0.5000
 70
0
  0
VERTEX
  8
0
 10
0.0000
 20
-0.2500
 30
0.0000
 42
1.0000
  0
VERTEX
  8
0
 10
0.0000
 20
0.2500
 30
0.0000
 42
1.0000
  0
VERTEX
  8
0
 10
0.0000
 20
-0.2500
 30
0.0000
  0
SEQEND
  8
0
  0
ENDBLK
  8
0
  0
BLOCK
  8
0
  2
THERMALP
 70
64
 10
0.0000
 20
0.0000
 30
0.0000
  3
THERMALP
  0
POLYLINE
  8
0
 66
1
 10
0.0000
 20
0.0000
 30
0.0000
 40
0.1000
 41
0.1000
 70
0
  0
VERTEX
  8
0
 10
-0.2379
 20
0.4500
 30
0.0000
  0
VERTEX
  8
0
 10
0.2379
 20
0.4500
 30
0.0000
  0
SEQEND
  8
0
  0
POLYLINE
  8
0
 66
1
 10
0.0000
 20
0.0000
 30
0.0000
 40
0.0500
 41
0.0500
 70
0
  0
VERTEX
  8
0
 10
0.2379
 20
0.4250
 30
0.0000
 42
1.0000
  0
VERTEX
  8
0
 10
0.2379
 20
0.4750
 30
0.0000
  0
SEQEND
  8
0
  0
POLYLINE
  8
0
 66
1
 10
0.0000
 20
0.0000
 30
0.0000
 40
0.0500
 41
0.0500
 70
0
  0
VERTEX
  8
0
 10
-0.2379
 20
0.4750
 30
0.0000
 42
1.0000
  0
VERTEX
  8
0
 10
-0.2379
 20
0.4250
 30
0.0000
  0
SEQEND
  8
0
  0
POLYLINE
  8
0
 66
1
 10
0.0000
 20
0.0000
 30
0.0000
 40
0.1000
 41
0.1000
 70
0
  0
VERTEX
  8
0
 10
0.4500
 20
0.2379
 30
0.0000
  0
VERTEX
  8
0
 10
0.4500
 20
-0.2379
 30
0.0000
  0
SEQEND
  8
0
  0
POLYLINE
  8
0
 66
1
 10
0.0000
 20
0.0000
 30
0.0000
 40
0.0500
 41
0.0500
 70
0
  0
VERTEX
  8
0
 10
0.4250
 20
-0.2379
 30
0.0000
 42
1.0000
  0
VERTEX
  8
0
 10
0.4750
 20
-0.2379
 30
0.0000
  0
SEQEND
  8
0
  0
POLYLINE
  8
0
 66
1
 10
0.0000
 20
0.0000
 30
0.0000
 40
0.0500
 41
0.0500
 70
0
  0
VERTEX
  8
0
 10
0.4750
 20
0.2379
 30
0.0000
 42
1.0000
  0
VERTEX
  8
0
 10
0.4250
 20
0.2379
 30
0.0000
  0
SEQEND
  8
0
  0
POLYLINE
  8
0
 66
1
 10
0.0000
 20
0.0000
 30
0.0000
 40
0.1000
 41
0.1000
 70
0
  0
VERTEX
  8
0
 10
0.2379
 20
-0.4500
 30
0.0000
  0
VERTEX
  8
0
 10
-0.2379
 20
-0.4500
 30
0.0000
  0
SEQEND
  8
0
  0
POLYLINE
  8
0
 66
1
 10
0.0000
 20
0.0000
 30
0.0000
 40
0.0500
 41
0.0500
 70
0
  0
VERTEX
  8
0
 10
-0.2379
 20
-0.4250
 30
0.0000
 42
1.0000
  0
VERTEX
  8
0
 10
-0.2379
 20
-0.4750
 30
0.0000
  0
SEQEND
  8
0
  0
POLYLINE
  8
0
 66
1
 10
0.0000
 20
0.0000
 30
0.0000
 40
0.0500
 41
0.0500
 70
0
  0
VERTEX
  8
0
 10
0.2379
 20
-0.4750
 30
0.0000
 42
1.0000
  0
VERTEX
  8
0
 10
0.2379
 20
-0.4250
 30
0.0000
  0
SEQEND
  8
0
  0
POLYLINE
  8
0
 66
1
 10
0.0000
 20
0.0000
 30
0.0000
 40
0.1000
 41
0.1000
 70
0
  0
VERTEX
  8
0
 10
-0.4500
 20
-0.2379
 30
0.0000
  0
VERTEX
  8
0
 10
-0.4500
 20
0.2379
 30
0.0000
  0
SEQEND
  8
0
  0
POLYLINE
  8
0
 66
1
 10
0.0000
 20
0.0000
 30
0.0000
 40
0.0500
 41
0.0500
 70
0
  0
VERTEX
  8
0
 10
-0.4250
 20
0.2379
 30
0.0000
 42
1.0000
  0
VERTEX
  8
0
 10
-0.4750
 20
0.2379
 30
0.0000
  0
SEQEND
  8
0
  0
POLYLINE
  8
0
 66
1
 10
0.0000
 20
0.0000
 30
0.0000
 40
0.0500
 41
0.0500
 70
0
  0
VERTEX
  8
0
 10
-0.4750
 20
-0.2379
 30
0.0000
 42
1.0000
  0
VERTEX
  8
0
 10
-0.4250
 20
-0.2379
 30
0.0000
  0
SEQEND
  8
0
  0
ENDBLK
  8
0
  0
BLOCK
  8
0
  2
OCTAGONV
 70
64
 10
0.0000
 20
0.0000
 30
0.0000
  3
OCTAGONV
  0
POLYLINE
  8
0
 66
1
 10
0.0000
 20
0.0000
 30
0.0000
 40
0.5000
 41
0.5000
 70
0
  0
VERTEX
  8
0
 10
-0.2500
 20
-0.1036
 30
0.0000
  0
VERTEX
  8
0
 10
-0.2500
 20
0.1036
 30
0.0000
  0
VERTEX
  8
0
 10
-0.1036
 20
0.2500
 30
0.0000
  0
VERTEX
  8
0
 10
0.1036
 20
0.2500
 30
0.0000
  0
VERTEX
  8
0
 10
0.2500
 20
0.1036
 30
0.0000
  0
VERTEX
  8
0
 10
0.2500
 20
-0.1036
 30
0.0000
  0
VERTEX
  8
0
 10
0.1036
 20
-0.2500
 30
0.0000
  0
VERTEX
  8
0
 10
-0.1036
 20
-0.2500
 30
0.0000
  0
VERTEX
  8
0
 10
-0.2500
 20
-0.1036
 30
0.0000
  0
VERTEX
  8
0
 10
-0.2500
 20
0.1036
 30
0.0000
  0
SEQEND
  8
0
  0
ENDBLK
  8
0
  0
BLOCK
  8
0
  2
SQUAREV
 70
64
 10
0.0000
 20
0.0000
 30
0.0000
  3
SQUAREV
  0
SOLID
  8
0
 10
-0.5000
 20
-0.5000
 30
0.0000
 11
0.5000
 21
-0.5000
 31
0.0000
 12
-0.5000
 22
0.5000
 32
0.0000
 13
0.5000
 23
0.5000
 33
0.0000
  0
ENDBLK
  8
0
  0
BLOCK
  8
0
  2
ROUNDV
 70
64
 10
0.0000
 20
0.0000
 30
0.0000
  3
ROUNDV
  0
POLYLINE
  8
0
 66
1
 10
0.0000
 20
0.0000
 30
0.0000
 40
0.5000
 41
0.5000
 70
0
  0
VERTEX
  8
0
 10
0.0000
 20
-0.2500
 30
0.0000
 42
1.0000
  0
VERTEX
  8
0
 10
0.0000
 20
0.2500
 30
0.0000
 42
1.0000
  0
VERTEX
  8
0
 10
0.0000
 20
-0.2500
 30
0.0000
  0
SEQEND
  8
0
  0
ENDBLK
  8
0
  0
BLOCK
  8
0
  2
ANNULUSV
 70
64
 10
0.0000
 20
0.0000
 30
0.0000
  3
ANNULUSV
  0
POLYLINE
  8
0
 66
1
 10
0.0000
 20
0.0000
 30
0.0000
 40
0.5000
 41
0.5000
 70
0
  0
VERTEX
  8
0
 10
0.0000
 20
-0.2500
 30
0.0000
 42
1.0000
  0
VERTEX
  8
0
 10
0.0000
 20
0.2500
 30
0.0000
 42
1.0000
  0
VERTEX
  8
0
 10
0.0000
 20
-0.2500
 30
0.0000
  0
SEQEND
  8
0
  0
ENDBLK
  8
0
  0
BLOCK
  8
0
  2
THERMALV
 70
64
 10
0.0000
 20
0.0000
 30
0.0000
  3
THERMALV
  0
POLYLINE
  8
0
 66
1
 10
0.0000
 20
0.0000
 30
0.0000
 40
0.1000
 41
0.1000
 70
0
  0
VERTEX
  8
0
 10
-0.2379
 20
0.4500
 30
0.0000
  0
VERTEX
  8
0
 10
0.2379
 20
0.4500
 30
0.0000
  0
SEQEND
  8
0
  0
POLYLINE
  8
0
 66
1
 10
0.0000
 20
0.0000
 30
0.0000
 40
0.0500
 41
0.0500
 70
0
  0
VERTEX
  8
0
 10
0.2379
 20
0.4250
 30
0.0000
 42
1.0000
  0
VERTEX
  8
0
 10
0.2379
 20
0.4750
 30
0.0000
  0
SEQEND
  8
0
  0
POLYLINE
  8
0
 66
1
 10
0.0000
 20
0.0000
 30
0.0000
 40
0.0500
 41
0.0500
 70
0
  0
VERTEX
  8
0
 10
-0.2379
 20
0.4750
 30
0.0000
 42
1.0000
  0
VERTEX
  8
0
 10
-0.2379
 20
0.4250
 30
0.0000
  0
SEQEND
  8
0
  0
POLYLINE
  8
0
 66
1
 10
0.0000
 20
0.0000
 30
0.0000
 40
0.1000
 41
0.1000
 70
0
  0
VERTEX
  8
0
 10
0.4500
 20
0.2379
 30
0.0000
  0
VERTEX
  8
0
 10
0.4500
 20
-0.2379
 30
0.0000
  0
SEQEND
  8
0
  0
POLYLINE
  8
0
 66
1
 10
0.0000
 20
0.0000
 30
0.0000
 40
0.0500
 41
0.0500
 70
0
  0
VERTEX
  8
0
 10
0.4250
 20
-0.2379
 30
0.0000
 42
1.0000
  0
VERTEX
  8
0
 10
0.4750
 20
-0.2379
 30
0.0000
  0
SEQEND
  8
0
  0
POLYLINE
  8
0
 66
1
 10
0.0000
 20
0.0000
 30
0.0000
 40
0.0500
 41
0.0500
 70
0
  0
VERTEX
  8
0
 10
0.4750
 20
0.2379
 30
0.0000
 42
1.0000
  0
VERTEX
  8
0
 10
0.4250
 20
0.2379
 30
0.0000
  0
SEQEND
  8
0
  0
POLYLINE
  8
0
 66
1
 10
0.0000
 20
0.0000
 30
0.0000
 40
0.1000
 41
0.1000
 70
0
  0
VERTEX
  8
0
 10
0.2379
 20
-0.4500
 30
0.0000
  0
VERTEX
  8
0
 10
-0.2379
 20
-0.4500
 30
0.0000
  0
SEQEND
  8
0
  0
POLYLINE
  8
0
 66
1
 10
0.0000
 20
0.0000
 30
0.0000
 40
0.0500
 41
0.0500
 70
0
  0
VERTEX
  8
0
 10
-0.2379
 20
-0.4250
 30
0.0000
 42
1.0000
  0
VERTEX
  8
0
 10
-0.2379
 20
-0.4750
 30
0.0000
  0
SEQEND
  8
0
  0
POLYLINE
  8
0
 66
1
 10
0.0000
 20
0.0000
 30
0.0000
 40
0.0500
 41
0.0500
 70
0
  0
VERTEX
  8
0
 10
0.2379
 20
-0.4750
 30
0.0000
 42
1.0000
  0
VERTEX
  8
0
 10
0.2379
 20
-0.4250
 30
0.0000
  0
SEQEND
  8
0
  0
POLYLINE
  8
0
 66
1
 10
0.0000
 20
0.0000
 30
0.0000
 40
0.1000
 41
0.1000
 70
0
  0
VERTEX
  8
0
 10
-0.4500
 20
-0.2379
 30
0.0000
  0
VERTEX
  8
0
 10
-0.4500
 20
0.2379
 30
0.0000
  0
SEQEND
  8
0
  0
POLYLINE
  8
0
 66
1
 10
0.0000
 20
0.0000
 30
0.0000
 40
0.0500
 41
0.0500
 70
0
  0
VERTEX
  8
0
 10
-0.4250
 20
0.2379
 30
0.0000
 42
1.0000
  0
VERTEX
  8
0
 10
-0.4750
 20
0.2379
 30
0.0000
  0
SEQEND
  8
0
  0
POLYLINE
  8
0
 66
1
 10
0.0000
 20
0.0000
 30
0.0000
 40
0.0500
 41
0.0500
 70
0
  0
VERTEX
  8
0
 10
-0.4750
 20
-0.2379
 30
0.0000
 42
1.0000
  0
VERTEX
  8
0
 10
-0.4250
 20
-0.2379
 30
0.0000
  0
SEQEND
  8
0
  0
ENDBLK
  8
0
  0
BLOCK
  8
0
  2
RECT203200X203200R100
 70
64
 10
0.0000
 20
0.0000
 30
0.0000
  3
RECT203200X203200R100
  0
POLYLINE
  8
0
 66
1
 10
0.0000
 20
0.0000
 30
0.0000
 40
0.6350
 41
0.6350
 70
1
  0
VERTEX
  8
0
 10
0.3175
 20
0.0000
 30
0.0000
  0
VERTEX
  8
0
 10
0.3175
 20
0.0000
 30
0.0000
 42
0.4142
  0
VERTEX
  8
0
 10
0.0000
 20
0.3175
 30
0.0000
  0
VERTEX
  8
0
 10
0.0000
 20
0.3175
 30
0.0000
 42
0.4142
  0
VERTEX
  8
0
 10
-0.3175
 20
0.0000
 30
0.0000
  0
VERTEX
  8
0
 10
-0.3175
 20
0.0000
 30
0.0000
 42
0.4142
  0
VERTEX
  8
0
 10
0.0000
 20
-0.3175
 30
0.0000
  0
VERTEX
  8
0
 10
0.0000
 20
-0.3175
 30
0.0000
 42
0.4142
  0
SEQEND
  8
0
  0
SOLID
  8
0
 10
-0.0254
 20
-0.0254
 30
0.0000
 11
0.0254
 21
-0.0254
 31
0.0000
 12
-0.0254
 22
0.0254
 32
0.0000
 13
0.0254
 23
0.0254
 33
0.0000
  0
ENDBLK
  8
0
  0
ENDSEC
  0
SECTION
  2
ENTITIES
  0
POLYLINE
  8
20
 66
1
 10
0.0000
 20
0.0000
 30
0.0000
 40
0.0762
 41
0.0762
 70
0
  0
VERTEX
  8
20
 10
20.6367
 20
46.2293
 30
0.0000
  0
VERTEX
  8
20
 10
20.6467
 20
23.4599
 30
0.0000
  0
SEQEND
  8
0
  0
POLYLINE
  8
20
 66
1
 10
0.0000
 20
0.0000
 30
0.0000
 40
0.0381
 41
0.0381
 70
0
  0
VERTEX
  8
20
 10
20.6277
 20
23.4599
 30
0.0000
 42
1.0000
  0
VERTEX
  8
20
 10
20.6658
 20
23.4599
 30
0.0000
  0
SEQEND
  8
0
  0
POLYLINE
  8
20
 66
1
 10
0.0000
 20
0.0000
 30
0.0000
 40
0.0381
 41
0.0381
 70
0
  0
VERTEX
  8
20
 10
20.6557
 20
46.2293
 30
0.0000
 42
1.0000
  0
VERTEX
  8
20
 10
20.6176
 20
46.2293
 30
0.0000
  0
SEQEND
  8
0
  0
POLYLINE
  8
20
 66
1
 10
0.0000
 20
0.0000
 30
0.0000
 40
0.0762
 41
0.0762
 70
0
  0
VERTEX
  8
20
 10
20.6467
 20
23.4599
 30
0.0000
 42
0.4142
  0
VERTEX
  8
20
 10
20.8881
 20
23.1140
 30
0.0000
  0
SEQEND
  8
0
  0
POLYLINE
  8
20
 66
1
 10
0.0000
 20
0.0000
 30
0.0000
 40
0.0381
 41
0.0381
 70
0
  0
VERTEX
  8
20
 10
20.6655
 20
23.4566
 30
0.0000
 42
1.0000
  0
VERTEX
  8
20
 10
20.6280
 20
23.4633
 30
0.0000
  0
SEQEND
  8
0
  0
POLYLINE
  8
20
 66
1
 10
0.0000
 20
0.0000
 30
0.0000
 40
0.0381
 41
0.0381
 70
0
  0
VERTEX
  8
20
 10
20.8848
 20
23.0952
 30
0.0000
 42
1.0000
  0
VERTEX
  8
20
 10
20.8915
 20
23.1328
 30
0.0000
  0
SEQEND
  8
0
  0
POLYLINE
  8
20
 66
1
 10
0.0000
 20
0.0000
 30
0.0000
 40
0.0762
 41
0.0762
 70
0
  0
VERTEX
  8
20
 10
20.8881
 20
23.1140
 30
0.0000
  0
VERTEX
  8
20
 10
44.2966
 20
23.1140
 30
0.0000
  0
SEQEND
  8
0
  0
POLYLINE
  8
20
 66
1
 10
0.0000
 20
0.0000
 30
0.0000
 40
0.0381
 41
0.0381
 70
0
  0
VERTEX
  8
20
 10
44.2966
 20
23.0950
 30
0.0000
 42
1.0000
  0
VERTEX
  8
20
 10
44.2966
 20
23.1331
 30
0.0000
  0
SEQEND
  8
0
  0
POLYLINE
  8
20
 66
1
 10
0.0000
 20
0.0000
 30
0.0000
 40
0.0381
 41
0.0381
 70
0
  0
VERTEX
  8
20
 10
20.8881
 20
23.1331
 30
0.0000
 42
1.0000
  0
VERTEX
  8
20
 10
20.8881
 20
23.0950
 30
0.0000
  0
SEQEND
  8
0
  0
POLYLINE
  8
20
 66
1
 10
0.0000
 20
0.0000
 30
0.0000
 40
0.0762
 41
0.0762
 70
0
  0
VERTEX
  8
20
 10
44.2966
 20
23.1140
 30
0.0000
 42
0.4142
  0
VERTEX
  8
20
 10
44.6714
 20
23.6292
 30
0.0000
  0
SEQEND
  8
0
  0
POLYLINE
  8
20
 66
1
 10
0.0000
 20
0.0000
 30
0.0000
 40
0.0381
 41
0.0381
 70
0
  0
VERTEX
  8
20
 10
44.2936
 20
23.1328
 30
0.0000
 42
1.0000
  0
VERTEX
  8
20
 10
44.2995
 20
23.0952
 30
0.0000
  0
SEQEND
  8
0
  0
POLYLINE
  8
20
 66
1
 10
0.0000
 20
0.0000
 30
0.0000
 40
0.0381
 41
0.0381
 70
0
  0
VERTEX
  8
20
 10
44.6902
 20
23.6322
 30
0.0000
 42
1.0000
  0
VERTEX
  8
20
 10
44.6526
 20
23.6263
 30
0.0000
  0
SEQEND
  8
0
  0
POLYLINE
  8
20
 66
1
 10
0.0000
 20
0.0000
 30
0.0000
 40
0.0762
 41
0.0762
 70
0
  0
VERTEX
  8
20
 10
44.6714
 20
23.6292
 30
0.0000
  0
VERTEX
  8
20
 10
44.7012
 20
27.8147
 30
0.0000
  0
SEQEND
  8
0
  0
POLYLINE
  8
20
 66
1
 10
0.0000
 20
0.0000
 30
0.0000
 40
0.0381
 41
0.0381
 70
0
  0
VERTEX
  8
20
 10
44.7203
 20
27.8146
 30
0.0000
 42
1.0000
  0
VERTEX
  8
20
 10
44.6822
 20
27.8149
 30
0.0000
  0
SEQEND
  8
0
  0
POLYLINE
  8
20
 66
1
 10
0.0000
 20
0.0000
 30
0.0000
 40
0.0381
 41
0.0381
 70
0
  0
VERTEX
  8
20
 10
44.6524
 20
23.6294
 30
0.0000
 42
1.0000
  0
VERTEX
  8
20
 10
44.6905
 20
23.6291
 30
0.0000
  0
SEQEND
  8
0
  0
POLYLINE
  8
20
 66
1
 10
0.0000
 20
0.0000
 30
0.0000
 40
0.0762
 41
0.0762
 70
0
  0
VERTEX
  8
20
 10
44.7012
 20
27.8147
 30
0.0000
 42
0.4142
  0
VERTEX
  8
20
 10
44.2190
 20
28.2269
 30
0.0000
  0
SEQEND
  8
0
  0
POLYLINE
  8
20
 66
1
 10
0.0000
 20
0.0000
 30
0.0000
 40
0.0381
 41
0.0381
 70
0
  0
VERTEX
  8
20
 10
44.6822
 20
27.8133
 30
0.0000
 42
1.0000
  0
VERTEX
  8
20
 10
44.7202
 20
27.8162
 30
0.0000
  0
SEQEND
  8
0
  0
POLYLINE
  8
20
 66
1
 10
0.0000
 20
0.0000
 30
0.0000
 40
0.0381
 41
0.0381
 70
0
  0
VERTEX
  8
20
 10
44.2175
 20
28.2459
 30
0.0000
 42
1.0000
  0
VERTEX
  8
20
 10
44.2205
 20
28.2079
 30
0.0000
  0
SEQEND
  8
0
  0
POLYLINE
  8
20
 66
1
 10
0.0000
 20
0.0000
 30
0.0000
 40
0.0762
 41
0.0762
 70
0
  0
VERTEX
  8
20
 10
44.2190
 20
28.2269
 30
0.0000
  0
VERTEX
  8
20
 10
41.2926
 20
28.2269
 30
0.0000
  0
SEQEND
  8
0
  0
POLYLINE
  8
20
 66
1
 10
0.0000
 20
0.0000
 30
0.0000
 40
0.0381
 41
0.0381
 70
0
  0
VERTEX
  8
20
 10
41.2926
 20
28.2460
 30
0.0000
 42
1.0000
  0
VERTEX
  8
20
 10
41.2926
 20
28.2079
 30
0.0000
  0
SEQEND
  8
0
  0
POLYLINE
  8
20
 66
1
 10
0.0000
 20
0.0000
 30
0.0000
 40
0.0381
 41
0.0381
 70
0
  0
VERTEX
  8
20
 10
44.2190
 20
28.2079
 30
0.0000
 42
1.0000
  0
VERTEX
  8
20
 10
44.2190
 20
28.2460
 30
0.0000
  0
SEQEND
  8
0
  0
POLYLINE
  8
20
 66
1
 10
0.0000
 20
0.0000
 30
0.0000
 40
0.0762
 41
0.0762
 70
0
  0
VERTEX
  8
20
 10
38.7034
 20
30.8161
 30
0.0000
 42
0.4142
  0
VERTEX
  8
20
 10
41.2926
 20
28.2269
 30
0.0000
  0
SEQEND
  8
0
  0
POLYLINE
  8
20
 66
1
 10
0.0000
 20
0.0000
 30
0.0000
 40
0.0381
 41
0.0381
 70
0
  0
VERTEX
  8
20
 10
38.7225
 20
30.8161
 30
0.0000
 42
1.0000
  0
VERTEX
  8
20
 10
38.6844
 20
30.8161
 30
0.0000
  0
SEQEND
  8
0
  0
POLYLINE
  8
20
 66
1
 10
0.0000
 20
0.0000
 30
0.0000
 40
0.0381
 41
0.0381
 70
0
  0
VERTEX
  8
20
 10
41.2926
 20
28.2079
 30
0.0000
 42
1.0000
  0
VERTEX
  8
20
 10
41.2926
 20
28.2460
 30
0.0000
  0
SEQEND
  8
0
  0
POLYLINE
  8
20
 66
1
 10
0.0000
 20
0.0000
 30
0.0000
 40
0.0762
 41
0.0762
 70
0
  0
VERTEX
  8
20
 10
38.7034
 20
30.8161
 30
0.0000
  0
VERTEX
  8
20
 10
38.6778
 20
40.0758
 30
0.0000
  0
SEQEND
  8
0
  0
POLYLINE
  8
20
 66
1
 10
0.0000
 20
0.0000
 30
0.0000
 40
0.0381
 41
0.0381
 70
0
  0
VERTEX
  8
20
 10
38.6968
 20
40.0759
 30
0.0000
 42
1.0000
  0
VERTEX
  8
20
 10
38.6587
 20
40.0758
 30
0.0000
  0
SEQEND
  8
0
  0
POLYLINE
  8
20
 66
1
 10
0.0000
 20
0.0000
 30
0.0000
 40
0.0381
 41
0.0381
 70
0
  0
VERTEX
  8
20
 10
38.6844
 20
30.8160
 30
0.0000
 42
1.0000
  0
VERTEX
  8
20
 10
38.7225
 20
30.8161
 30
0.0000
  0
SEQEND
  8
0
  0
POLYLINE
  8
20
 66
1
 10
0.0000
 20
0.0000
 30
0.0000
 40
0.0762
 41
0.0762
 70
0
  0
VERTEX
  8
20
 10
39.4373
 20
40.6954
 30
0.0000
 42
0.4142
  0
VERTEX
  8
20
 10
38.6778
 20
40.0758
 30
0.0000
  0
SEQEND
  8
0
  0
POLYLINE
  8
20
 66
1
 10
0.0000
 20
0.0000
 30
0.0000
 40
0.0381
 41
0.0381
 70
0
  0
VERTEX
  8
20
 10
39.4353
 20
40.6764
 30
0.0000
 42
1.0000
  0
VERTEX
  8
20
 10
39.4392
 20
40.7143
 30
0.0000
  0
SEQEND
  8
0
  0
POLYLINE
  8
20
 66
1
 10
0.0000
 20
0.0000
 30
0.0000
 40
0.0381
 41
0.0381
 70
0
  0
VERTEX
  8
20
 10
38.6588
 20
40.0778
 30
0.0000
 42
1.0000
  0
VERTEX
  8
20
 10
38.6967
 20
40.0739
 30
0.0000
  0
SEQEND
  8
0
  0
POLYLINE
  8
20
 66
1
 10
0.0000
 20
0.0000
 30
0.0000
 40
0.0762
 41
0.0762
 70
0
  0
VERTEX
  8
20
 10
39.4373
 20
40.6954
 30
0.0000
  0
VERTEX
  8
20
 10
43.7541
 20
40.6890
 30
0.0000
  0
SEQEND
  8
0
  0
POLYLINE
  8
20
 66
1
 10
0.0000
 20
0.0000
 30
0.0000
 40
0.0381
 41
0.0381
 70
0
  0
VERTEX
  8
20
 10
43.7541
 20
40.6700
 30
0.0000
 42
1.0000
  0
VERTEX
  8
20
 10
43.7541
 20
40.7081
 30
0.0000
  0
SEQEND
  8
0
  0
POLYLINE
  8
20
 66
1
 10
0.0000
 20
0.0000
 30
0.0000
 40
0.0381
 41
0.0381
 70
0
  0
VERTEX
  8
20
 10
39.4373
 20
40.7144
 30
0.0000
 42
1.0000
  0
VERTEX
  8
20
 10
39.4372
 20
40.6763
 30
0.0000
  0
SEQEND
  8
0
  0
POLYLINE
  8
20
 66
1
 10
0.0000
 20
0.0000
 30
0.0000
 40
0.0762
 41
0.0762
 70
0
  0
VERTEX
  8
20
 10
43.7541
 20
40.6890
 30
0.0000
 42
0.4142
  0
VERTEX
  8
20
 10
44.7015
 20
41.5217
 30
0.0000
  0
SEQEND
  8
0
  0
POLYLINE
  8
20
 66
1
 10
0.0000
 20
0.0000
 30
0.0000
 40
0.0381
 41
0.0381
 70
0
  0
VERTEX
  8
20
 10
43.7553
 20
40.7080
 30
0.0000
 42
1.0000
  0
VERTEX
  8
20
 10
43.7529
 20
40.6700
 30
0.0000
  0
SEQEND
  8
0
  0
POLYLINE
  8
20
 66
1
 10
0.0000
 20
0.0000
 30
0.0000
 40
0.0381
 41
0.0381
 70
0
  0
VERTEX
  8
20
 10
44.7205
 20
41.5205
 30
0.0000
 42
1.0000
  0
VERTEX
  8
20
 10
44.6825
 20
41.5230
 30
0.0000
  0
SEQEND
  8
0
  0
POLYLINE
  8
20
 66
1
 10
0.0000
 20
0.0000
 30
0.0000
 40
0.0762
 41
0.0762
 70
0
  0
VERTEX
  8
20
 10
44.7015
 20
41.5217
 30
0.0000
  0
VERTEX
  8
20
 10
44.7015
 20
45.6157
 30
0.0000
  0
SEQEND
  8
0
  0
POLYLINE
  8
20
 66
1
 10
0.0000
 20
0.0000
 30
0.0000
 40
0.0381
 41
0.0381
 70
0
  0
VERTEX
  8
20
 10
44.7205
 20
45.6157
 30
0.0000
 42
1.0000
  0
VERTEX
  8
20
 10
44.6824
 20
45.6157
 30
0.0000
  0
SEQEND
  8
0
  0
POLYLINE
  8
20
 66
1
 10
0.0000
 20
0.0000
 30
0.0000
 40
0.0381
 41
0.0381
 70
0
  0
VERTEX
  8
20
 10
44.6824
 20
41.5217
 30
0.0000
 42
1.0000
  0
VERTEX
  8
20
 10
44.7205
 20
41.5217
 30
0.0000
  0
SEQEND
  8
0
  0
POLYLINE
  8
20
 66
1
 10
0.0000
 20
0.0000
 30
0.0000
 40
0.0762
 41
0.0762
 70
0
  0
VERTEX
  8
20
 10
44.7015
 20
45.6157
 30
0.0000
 42
0.4142
  0
VERTEX
  8
20
 10
43.8487
 20
46.3644
 30
0.0000
  0
SEQEND
  8
0
  0
POLYLINE
  8
20
 66
1
 10
0.0000
 20
0.0000
 30
0.0000
 40
0.0381
 41
0.0381
 70
0
  0
VERTEX
  8
20
 10
44.6825
 20
45.6145
 30
0.0000
 42
1.0000
  0
VERTEX
  8
20
 10
44.7205
 20
45.6169
 30
0.0000
  0
SEQEND
  8
0
  0
POLYLINE
  8
20
 66
1
 10
0.0000
 20
0.0000
 30
0.0000
 40
0.0381
 41
0.0381
 70
0
  0
VERTEX
  8
20
 10
43.8475
 20
46.3834
 30
0.0000
 42
1.0000
  0
VERTEX
  8
20
 10
43.8499
 20
46.3454
 30
0.0000
  0
SEQEND
  8
0
  0
POLYLINE
  8
20
 66
1
 10
0.0000
 20
0.0000
 30
0.0000
 40
0.0762
 41
0.0762
 70
0
  0
VERTEX
  8
20
 10
43.8487
 20
46.3644
 30
0.0000
  0
VERTEX
  8
20
 10
20.8550
 20
46.3784
 30
0.0000
  0
SEQEND
  8
0
  0
POLYLINE
  8
20
 66
1
 10
0.0000
 20
0.0000
 30
0.0000
 40
0.0381
 41
0.0381
 70
0
  0
VERTEX
  8
20
 10
20.8550
 20
46.3975
 30
0.0000
 42
1.0000
  0
VERTEX
  8
20
 10
20.8550
 20
46.3594
 30
0.0000
  0
SEQEND
  8
0
  0
POLYLINE
  8
20
 66
1
 10
0.0000
 20
0.0000
 30
0.0000
 40
0.0381
 41
0.0381
 70
0
  0
VERTEX
  8
20
 10
43.8487
 20
46.3453
 30
0.0000
 42
1.0000
  0
VERTEX
  8
20
 10
43.8487
 20
46.3834
 30
0.0000
  0
SEQEND
  8
0
  0
POLYLINE
  8
20
 66
1
 10
0.0000
 20
0.0000
 30
0.0000
 40
0.0762
 41
0.0762
 70
0
  0
VERTEX
  8
20
 10
20.8550
 20
46.3784
 30
0.0000
 42
0.4142
  0
VERTEX
  8
20
 10
20.6367
 20
46.2293
 30
0.0000
  0
SEQEND
  8
0
  0
POLYLINE
  8
20
 66
1
 10
0.0000
 20
0.0000
 30
0.0000
 40
0.0381
 41
0.0381
 70
0
  0
VERTEX
  8
20
 10
20.8514
 20
46.3597
 30
0.0000
 42
1.0000
  0
VERTEX
  8
20
 10
20.8585
 20
46.3971
 30
0.0000
  0
SEQEND
  8
0
  0
POLYLINE
  8
20
 66
1
 10
0.0000
 20
0.0000
 30
0.0000
 40
0.0381
 41
0.0381
 70
0
  0
VERTEX
  8
20
 10
20.6180
 20
46.2328
 30
0.0000
 42
1.0000
  0
VERTEX
  8
20
 10
20.6554
 20
46.2258
 30
0.0000
  0
SEQEND
  8
0
  0
INSERT
  8
16
  2
PIE
 10
32.9242
 20
38.3495
 30
0.0000
 41
1.2700
 42
1.2700
 43
1.0000
 50
0.0000
  0
INSERT
  8
16
  2
PIE
 10
32.9242
 20
36.0321
 30
0.0000
 41
1.2700
 42
1.2700
 43
1.0000
 50
0.0000
  0
INSERT
  8
16
  2
PIE
 10
32.9242
 20
29.0799
 30
0.0000
 41
1.2700
 42
1.2700
 43
1.0000
 50
0.0000
  0
INSERT
  8
51
  2
RECT
 10
37.3857
 20
24.6350
 30
0.0000
 41
0.5080
 42
0.5080
 43
1.0000
 50
0.0000
  0
INSERT
  8
51
  2
RECT
 10
34.8457
 20
24.6350
 30
0.0000
 41
0.5080
 42
0.5080
 43
1.0000
 50
0.0000
  0
INSERT
  8
51
  2
RECT
 10
32.3057
 20
24.6350
 30
0.0000
 41
0.5080
 42
0.5080
 43
1.0000
 50
0.0000
  0
INSERT
  8
51
  2
RECT
 10
29.7657
 20
24.6350
 30
0.0000
 41
0.5080
 42
0.5080
 43
1.0000
 50
0.0000
  0
INSERT
  8
51
  2
RECT
 10
27.2257
 20
24.6350
 30
0.0000
 41
0.5080
 42
0.5080
 43
1.0000
 50
0.0000
  0
INSERT
  8
51
  2
RECT
 10
24.6857
 20
24.6350
 30
0.0000
 41
0.5080
 42
0.5080
 43
1.0000
 50
0.0000
  0
INSERT
  8
51
  2
RECT
 10
22.1457
 20
24.6350
 30
0.0000
 41
0.5080
 42
0.5080
 43
1.0000
 50
0.0000
  0
INSERT
  8
51
  2
RECT
 10
39.9257
 20
24.6350
 30
0.0000
 41
0.5080
 42
0.5080
 43
1.0000
 50
0.0000
  0
INSERT
  8
51
  2
RECT
 10
42.4657
 20
24.6350
 30
0.0000
 41
0.5080
 42
0.5080
 43
1.0000
 50
0.0000
  0
INSERT
  8
51
  2
RECT
 10
25.2721
 20
36.8426
 30
0.0000
 41
0.5080
 42
0.5080
 43
1.0000
 50
90.0000
  0
INSERT
  8
51
  2
RECT
 10
25.2721
 20
34.3026
 30
0.0000
 41
0.5080
 42
0.5080
 43
1.0000
 50
90.0000
  0
INSERT
  8
51
  2
RECT
 10
25.2721
 20
31.7626
 30
0.0000
 41
0.5080
 42
0.5080
 43
1.0000
 50
90.0000
  0
INSERT
  8
51
  2
RECT
 10
37.3857
 20
44.9711
 30
0.0000
 41
0.5080
 42
0.5080
 43
1.0000
 50
0.0000
  0
INSERT
  8
51
  2
RECT
 10
34.8457
 20
44.9711
 30
0.0000
 41
0.5080
 42
0.5080
 43
1.0000
 50
0.0000
  0
INSERT
  8
51
  2
RECT
 10
32.3057
 20
44.9711
 30
0.0000
 41
0.5080
 42
0.5080
 43
1.0000
 50
0.0000
  0
INSERT
  8
51
  2
RECT
 10
29.7657
 20
44.9711
 30
0.0000
 41
0.5080
 42
0.5080
 43
1.0000
 50
0.0000
  0
INSERT
  8
51
  2
RECT
 10
27.2257
 20
44.9711
 30
0.0000
 41
0.5080
 42
0.5080
 43
1.0000
 50
0.0000
  0
INSERT
  8
51
  2
RECT
 10
24.6857
 20
44.9711
 30
0.0000
 41
0.5080
 42
0.5080
 43
1.0000
 50
0.0000
  0
INSERT
  8
51
  2
RECT
 10
22.1457
 20
44.9711
 30
0.0000
 41
0.5080
 42
0.5080
 43
1.0000
 50
0.0000
  0
INSERT
  8
51
  2
RECT
 10
39.9257
 20
44.9711
 30
0.0000
 41
0.5080
 42
0.5080
 43
1.0000
 50
0.0000
  0
INSERT
  8
16
  2
PIE
 10
32.9242
 20
40.6668
 30
0.0000
 41
1.2700
 42
1.2700
 43
1.0000
 50
0.0000
  0
INSERT
  8
16
  2
PIE
 10
32.9242
 20
31.3973
 30
0.0000
 41
1.2700
 42
1.2700
 43
1.0000
 50
0.0000
  0
INSERT
  8
16
  2
PIE
 10
32.9242
 20
33.7147
 30
0.0000
 41
1.2700
 42
1.2700
 43
1.0000
 50
0.0000
  0
POLYLINE
  8
16
 66
1
 10
0.0000
 20
0.0000
 30
0.0000
 40
0.2540
 41
0.2540
 70
0
  0
VERTEX
  8
16
 10
22.1457
 20
44.9711
 30
0.0000
  0
VERTEX
  8
16
 10
28.7674
 20
38.3495
 30
0.0000
  0
SEQEND
  8
0
  0
POLYLINE
  8
16
 66
1
 10
0.0000
 20
0.0000
 30
0.0000
 40
0.1270
 41
0.1270
 70
0
  0
VERTEX
  8
16
 10
28.7225
 20
38.3046
 30
0.0000
 42
1.0000
  0
VERTEX
  8
16
 10
28.8123
 20
38.3944
 30
0.0000
  0
SEQEND
  8
0
  0
POLYLINE
  8
16
 66
1
 10
0.0000
 20
0.0000
 30
0.0000
 40
0.1270
 41
0.1270
 70
0
  0
VERTEX
  8
16
 10
22.1906
 20
45.0160
 30
0.0000
 42
1.0000
  0
VERTEX
  8
16
 10
22.1008
 20
44.9262
 30
0.0000
  0
SEQEND
  8
0
  0
POLYLINE
  8
16
 66
1
 10
0.0000
 20
0.0000
 30
0.0000
 40
0.2540
 41
0.2540
 70
0
  0
VERTEX
  8
16
 10
28.7674
 20
38.3495
 30
0.0000
  0
VERTEX
  8
16
 10
32.9242
 20
38.3495
 30
0.0000
  0
SEQEND
  8
0
  0
POLYLINE
  8
16
 66
1
 10
0.0000
 20
0.0000
 30
0.0000
 40
0.1270
 41
0.1270
 70
0
  0
VERTEX
  8
16
 10
32.9242
 20
38.2860
 30
0.0000
 42
1.0000
  0
VERTEX
  8
16
 10
32.9242
 20
38.4130
 30
0.0000
  0
SEQEND
  8
0
  0
POLYLINE
  8
16
 66
1
 10
0.0000
 20
0.0000
 30
0.0000
 40
0.1270
 41
0.1270
 70
0
  0
VERTEX
  8
16
 10
28.7674
 20
38.4130
 30
0.0000
 42
1.0000
  0
VERTEX
  8
16
 10
28.7674
 20
38.2860
 30
0.0000
  0
SEQEND
  8
0
  0
POLYLINE
  8
16
 66
1
 10
0.0000
 20
0.0000
 30
0.0000
 40
0.0762
 41
0.0762
 70
0
  0
VERTEX
  8
16
 10
20.7108
 20
46.1924
 30
0.0000
  0
VERTEX
  8
16
 10
20.7108
 20
23.6569
 30
0.0000
  0
SEQEND
  8
0
  0
POLYLINE
  8
16
 66
1
 10
0.0000
 20
0.0000
 30
0.0000
 40
0.0381
 41
0.0381
 70
0
  0
VERTEX
  8
16
 10
20.6918
 20
23.6569
 30
0.0000
 42
1.0000
  0
VERTEX
  8
16
 10
20.7299
 20
23.6569
 30
0.0000
  0
SEQEND
  8
0
  0
POLYLINE
  8
16
 66
1
 10
0.0000
 20
0.0000
 30
0.0000
 40
0.0381
 41
0.0381
 70
0
  0
VERTEX
  8
16
 10
20.7299
 20
46.1924
 30
0.0000
 42
1.0000
  0
VERTEX
  8
16
 10
20.6918
 20
46.1924
 30
0.0000
  0
SEQEND
  8
0
  0
POLYLINE
  8
16
 66
1
 10
0.0000
 20
0.0000
 30
0.0000
 40
0.0762
 41
0.0762
 70
0
  0
VERTEX
  8
16
 10
20.7108
 20
23.6569
 30
0.0000
  0
VERTEX
  8
16
 10
21.0944
 20
23.2734
 30
0.0000
  0
SEQEND
  8
0
  0
POLYLINE
  8
16
 66
1
 10
0.0000
 20
0.0000
 30
0.0000
 40
0.0381
 41
0.0381
 70
0
  0
VERTEX
  8
16
 10
21.0809
 20
23.2599
 30
0.0000
 42
1.0000
  0
VERTEX
  8
16
 10
21.1078
 20
23.2869
 30
0.0000
  0
SEQEND
  8
0
  0
POLYLINE
  8
16
 66
1
 10
0.0000
 20
0.0000
 30
0.0000
 40
0.0381
 41
0.0381
 70
0
  0
VERTEX
  8
16
 10
20.7243
 20
23.6704
 30
0.0000
 42
1.0000
  0
VERTEX
  8
16
 10
20.6973
 20
23.6435
 30
0.0000
  0
SEQEND
  8
0
  0
POLYLINE
  8
16
 66
1
 10
0.0000
 20
0.0000
 30
0.0000
 40
0.0762
 41
0.0762
 70
0
  0
VERTEX
  8
16
 10
21.0944
 20
23.2734
 30
0.0000
  0
VERTEX
  8
16
 10
43.9586
 20
23.2734
 30
0.0000
  0
SEQEND
  8
0
  0
POLYLINE
  8
16
 66
1
 10
0.0000
 20
0.0000
 30
0.0000
 40
0.0381
 41
0.0381
 70
0
  0
VERTEX
  8
16
 10
43.9586
 20
23.2544
 30
0.0000
 42
1.0000
  0
VERTEX
  8
16
 10
43.9586
 20
23.2925
 30
0.0000
  0
SEQEND
  8
0
  0
POLYLINE
  8
16
 66
1
 10
0.0000
 20
0.0000
 30
0.0000
 40
0.0381
 41
0.0381
 70
0
  0
VERTEX
  8
16
 10
21.0944
 20
23.2925
 30
0.0000
 42
1.0000
  0
VERTEX
  8
16
 10
21.0944
 20
23.2544
 30
0.0000
  0
SEQEND
  8
0
  0
POLYLINE
  8
16
 66
1
 10
0.0000
 20
0.0000
 30
0.0000
 40
0.0762
 41
0.0762
 70
0
  0
VERTEX
  8
16
 10
43.9586
 20
23.2734
 30
0.0000
  0
VERTEX
  8
16
 10
44.2244
 20
23.5392
 30
0.0000
  0
SEQEND
  8
0
  0
POLYLINE
  8
16
 66
1
 10
0.0000
 20
0.0000
 30
0.0000
 40
0.0381
 41
0.0381
 70
0
  0
VERTEX
  8
16
 10
44.2379
 20
23.5258
 30
0.0000
 42
1.0000
  0
VERTEX
  8
16
 10
44.2109
 20
23.5527
 30
0.0000
  0
SEQEND
  8
0
  0
POLYLINE
  8
16
 66
1
 10
0.0000
 20
0.0000
 30
0.0000
 40
0.0381
 41
0.0381
 70
0
  0
VERTEX
  8
16
 10
43.9451
 20
23.2869
 30
0.0000
 42
1.0000
  0
VERTEX
  8
16
 10
43.9720
 20
23.2599
 30
0.0000
  0
SEQEND
  8
0
  0
POLYLINE
  8
16
 66
1
 10
0.0000
 20
0.0000
 30
0.0000
 40
0.0762
 41
0.0762
 70
0
  0
VERTEX
  8
16
 10
44.2244
 20
23.5392
 30
0.0000
  0
VERTEX
  8
16
 10
44.2244
 20
27.3492
 30
0.0000
  0
SEQEND
  8
0
  0
POLYLINE
  8
16
 66
1
 10
0.0000
 20
0.0000
 30
0.0000
 40
0.0381
 41
0.0381
 70
0
  0
VERTEX
  8
16
 10
44.2434
 20
27.3492
 30
0.0000
 42
1.0000
  0
VERTEX
  8
16
 10
44.2053
 20
27.3492
 30
0.0000
  0
SEQEND
  8
0
  0
POLYLINE
  8
16
 66
1
 10
0.0000
 20
0.0000
 30
0.0000
 40
0.0381
 41
0.0381
 70
0
  0
VERTEX
  8
16
 10
44.2053
 20
23.5392
 30
0.0000
 42
1.0000
  0
VERTEX
  8
16
 10
44.2434
 20
23.5392
 30
0.0000
  0
SEQEND
  8
0
  0
POLYLINE
  8
16
 66
1
 10
0.0000
 20
0.0000
 30
0.0000
 40
0.0762
 41
0.0762
 70
0
  0
VERTEX
  8
16
 10
44.2244
 20
27.3492
 30
0.0000
  0
VERTEX
  8
16
 10
44.2539
 20
27.3787
 30
0.0000
  0
SEQEND
  8
0
  0
POLYLINE
  8
16
 66
1
 10
0.0000
 20
0.0000
 30
0.0000
 40
0.0381
 41
0.0381
 70
0
  0
VERTEX
  8
16
 10
44.2674
 20
27.3653
 30
0.0000
 42
1.0000
  0
VERTEX
  8
16
 10
44.2404
 20
27.3922
 30
0.0000
  0
SEQEND
  8
0
  0
POLYLINE
  8
16
 66
1
 10
0.0000
 20
0.0000
 30
0.0000
 40
0.0381
 41
0.0381
 70
0
  0
VERTEX
  8
16
 10
44.2109
 20
27.3627
 30
0.0000
 42
1.0000
  0
VERTEX
  8
16
 10
44.2379
 20
27.3358
 30
0.0000
  0
SEQEND
  8
0
  0
POLYLINE
  8
16
 66
1
 10
0.0000
 20
0.0000
 30
0.0000
 40
0.0762
 41
0.0762
 70
0
  0
VERTEX
  8
16
 10
44.2539
 20
27.3787
 30
0.0000
  0
VERTEX
  8
16
 10
43.6343
 20
27.9983
 30
0.0000
  0
SEQEND
  8
0
  0
POLYLINE
  8
16
 66
1
 10
0.0000
 20
0.0000
 30
0.0000
 40
0.0381
 41
0.0381
 70
0
  0
VERTEX
  8
16
 10
43.6478
 20
28.0118
 30
0.0000
 42
1.0000
  0
VERTEX
  8
16
 10
43.6209
 20
27.9848
 30
0.0000
  0
SEQEND
  8
0
  0
POLYLINE
  8
16
 66
1
 10
0.0000
 20
0.0000
 30
0.0000
 40
0.0381
 41
0.0381
 70
0
  0
VERTEX
  8
16
 10
44.2404
 20
27.3653
 30
0.0000
 42
1.0000
  0
VERTEX
  8
16
 10
44.2674
 20
27.3922
 30
0.0000
  0
SEQEND
  8
0
  0
POLYLINE
  8
16
 66
1
 10
0.0000
 20
0.0000
 30
0.0000
 40
0.0762
 41
0.0762
 70
0
  0
VERTEX
  8
16
 10
43.6343
 20
27.9983
 30
0.0000
  0
VERTEX
  8
16
 10
43.6343
 20
27.9990
 30
0.0000
  0
SEQEND
  8
0
  0
POLYLINE
  8
16
 66
1
 10
0.0000
 20
0.0000
 30
0.0000
 40
0.0381
 41
0.0381
 70
0
  0
VERTEX
  8
16
 10
43.6534
 20
27.9990
 30
0.0000
 42
1.0000
  0
VERTEX
  8
16
 10
43.6153
 20
27.9990
 30
0.0000
  0
SEQEND
  8
0
  0
POLYLINE
  8
16
 66
1
 10
0.0000
 20
0.0000
 30
0.0000
 40
0.0381
 41
0.0381
 70
0
  0
VERTEX
  8
16
 10
43.6153
 20
27.9983
 30
0.0000
 42
1.0000
  0
VERTEX
  8
16
 10
43.6534
 20
27.9983
 30
0.0000
  0
SEQEND
  8
0
  0
POLYLINE
  8
16
 66
1
 10
0.0000
 20
0.0000
 30
0.0000
 40
0.0762
 41
0.0762
 70
0
  0
VERTEX
  8
16
 10
43.6343
 20
27.9990
 30
0.0000
  0
VERTEX
  8
16
 10
38.8853
 20
27.9990
 30
0.0000
  0
SEQEND
  8
0
  0
POLYLINE
  8
16
 66
1
 10
0.0000
 20
0.0000
 30
0.0000
 40
0.0381
 41
0.0381
 70
0
  0
VERTEX
  8
16
 10
38.8853
 20
28.0180
 30
0.0000
 42
1.0000
  0
VERTEX
  8
16
 10
38.8853
 20
27.9799
 30
0.0000
  0
SEQEND
  8
0
  0
POLYLINE
  8
16
 66
1
 10
0.0000
 20
0.0000
 30
0.0000
 40
0.0381
 41
0.0381
 70
0
  0
VERTEX
  8
16
 10
43.6343
 20
27.9799
 30
0.0000
 42
1.0000
  0
VERTEX
  8
16
 10
43.6343
 20
28.0180
 30
0.0000
  0
SEQEND
  8
0
  0
POLYLINE
  8
16
 66
1
 10
0.0000
 20
0.0000
 30
0.0000
 40
0.0762
 41
0.0762
 70
0
  0
VERTEX
  8
16
 10
38.8853
 20
27.9990
 30
0.0000
  0
VERTEX
  8
16
 10
38.0878
 20
28.7964
 30
0.0000
  0
SEQEND
  8
0
  0
POLYLINE
  8
16
 66
1
 10
0.0000
 20
0.0000
 30
0.0000
 40
0.0381
 41
0.0381
 70
0
  0
VERTEX
  8
16
 10
38.1013
 20
28.8099
 30
0.0000
 42
1.0000
  0
VERTEX
  8
16
 10
38.0744
 20
28.7829
 30
0.0000
  0
SEQEND
  8
0
  0
POLYLINE
  8
16
 66
1
 10
0.0000
 20
0.0000
 30
0.0000
 40
0.0381
 41
0.0381
 70
0
  0
VERTEX
  8
16
 10
38.8718
 20
27.9855
 30
0.0000
 42
1.0000
  0
VERTEX
  8
16
 10
38.8988
 20
28.0124
 30
0.0000
  0
SEQEND
  8
0
  0
POLYLINE
  8
16
 66
1
 10
0.0000
 20
0.0000
 30
0.0000
 40
0.0762
 41
0.0762
 70
0
  0
VERTEX
  8
16
 10
38.0878
 20
28.7964
 30
0.0000
  0
VERTEX
  8
16
 10
38.0878
 20
40.1380
 30
0.0000
  0
SEQEND
  8
0
  0
POLYLINE
  8
16
 66
1
 10
0.0000
 20
0.0000
 30
0.0000
 40
0.0381
 41
0.0381
 70
0
  0
VERTEX
  8
16
 10
38.1069
 20
40.1380
 30
0.0000
 42
1.0000
  0
VERTEX
  8
16
 10
38.0688
 20
40.1380
 30
0.0000
  0
SEQEND
  8
0
  0
POLYLINE
  8
16
 66
1
 10
0.0000
 20
0.0000
 30
0.0000
 40
0.0381
 41
0.0381
 70
0
  0
VERTEX
  8
16
 10
38.0688
 20
28.7964
 30
0.0000
 42
1.0000
  0
VERTEX
  8
16
 10
38.1069
 20
28.7964
 30
0.0000
  0
SEQEND
  8
0
  0
POLYLINE
  8
16
 66
1
 10
0.0000
 20
0.0000
 30
0.0000
 40
0.0762
 41
0.0762
 70
0
  0
VERTEX
  8
16
 10
38.0878
 20
40.1380
 30
0.0000
  0
VERTEX
  8
16
 10
38.2649
 20
40.3150
 30
0.0000
  0
SEQEND
  8
0
  0
POLYLINE
  8
16
 66
1
 10
0.0000
 20
0.0000
 30
0.0000
 40
0.0381
 41
0.0381
 70
0
  0
VERTEX
  8
16
 10
38.2783
 20
40.3015
 30
0.0000
 42
1.0000
  0
VERTEX
  8
16
 10
38.2514
 20
40.3284
 30
0.0000
  0
SEQEND
  8
0
  0
POLYLINE
  8
16
 66
1
 10
0.0000
 20
0.0000
 30
0.0000
 40
0.0381
 41
0.0381
 70
0
  0
VERTEX
  8
16
 10
38.0744
 20
40.1514
 30
0.0000
 42
1.0000
  0
VERTEX
  8
16
 10
38.1013
 20
40.1245
 30
0.0000
  0
SEQEND
  8
0
  0
POLYLINE
  8
16
 66
1
 10
0.0000
 20
0.0000
 30
0.0000
 40
0.0762
 41
0.0762
 70
0
  0
VERTEX
  8
16
 10
38.2649
 20
40.3150
 30
0.0000
  0
VERTEX
  8
16
 10
39.1509
 20
41.2010
 30
0.0000
  0
SEQEND
  8
0
  0
POLYLINE
  8
16
 66
1
 10
0.0000
 20
0.0000
 30
0.0000
 40
0.0381
 41
0.0381
 70
0
  0
VERTEX
  8
16
 10
39.1644
 20
41.1876
 30
0.0000
 42
1.0000
  0
VERTEX
  8
16
 10
39.1374
 20
41.2145
 30
0.0000
  0
SEQEND
  8
0
  0
POLYLINE
  8
16
 66
1
 10
0.0000
 20
0.0000
 30
0.0000
 40
0.0381
 41
0.0381
 70
0
  0
VERTEX
  8
16
 10
38.2514
 20
40.3284
 30
0.0000
 42
1.0000
  0
VERTEX
  8
16
 10
38.2783
 20
40.3015
 30
0.0000
  0
SEQEND
  8
0
  0
POLYLINE
  8
16
 66
1
 10
0.0000
 20
0.0000
 30
0.0000
 40
0.0762
 41
0.0762
 70
0
  0
VERTEX
  8
16
 10
39.1509
 20
41.2010
 30
0.0000
  0
VERTEX
  8
16
 10
39.3270
 20
41.2010
 30
0.0000
  0
SEQEND
  8
0
  0
POLYLINE
  8
16
 66
1
 10
0.0000
 20
0.0000
 30
0.0000
 40
0.0381
 41
0.0381
 70
0
  0
VERTEX
  8
16
 10
39.3270
 20
41.1820
 30
0.0000
 42
1.0000
  0
VERTEX
  8
16
 10
39.3270
 20
41.2201
 30
0.0000
  0
SEQEND
  8
0
  0
POLYLINE
  8
16
 66
1
 10
0.0000
 20
0.0000
 30
0.0000
 40
0.0381
 41
0.0381
 70
0
  0
VERTEX
  8
16
 10
39.1509
 20
41.2201
 30
0.0000
 42
1.0000
  0
VERTEX
  8
16
 10
39.1509
 20
41.1820
 30
0.0000
  0
SEQEND
  8
0
  0
POLYLINE
  8
16
 66
1
 10
0.0000
 20
0.0000
 30
0.0000
 40
0.0762
 41
0.0762
 70
0
  0
VERTEX
  8
16
 10
39.3270
 20
41.2010
 30
0.0000
  0
VERTEX
  8
16
 10
43.6342
 20
41.2010
 30
0.0000
  0
SEQEND
  8
0
  0
POLYLINE
  8
16
 66
1
 10
0.0000
 20
0.0000
 30
0.0000
 40
0.0381
 41
0.0381
 70
0
  0
VERTEX
  8
16
 10
43.6342
 20
41.1820
 30
0.0000
 42
1.0000
  0
VERTEX
  8
16
 10
43.6342
 20
41.2201
 30
0.0000
  0
SEQEND
  8
0
  0
POLYLINE
  8
16
 66
1
 10
0.0000
 20
0.0000
 30
0.0000
 40
0.0381
 41
0.0381
 70
0
  0
VERTEX
  8
16
 10
39.3270
 20
41.2201
 30
0.0000
 42
1.0000
  0
VERTEX
  8
16
 10
39.3270
 20
41.1820
 30
0.0000
  0
SEQEND
  8
0
  0
POLYLINE
  8
16
 66
1
 10
0.0000
 20
0.0000
 30
0.0000
 40
0.0762
 41
0.0762
 70
0
  0
VERTEX
  8
16
 10
43.6342
 20
41.2010
 30
0.0000
  0
VERTEX
  8
16
 10
43.7228
 20
41.2896
 30
0.0000
  0
SEQEND
  8
0
  0
POLYLINE
  8
16
 66
1
 10
0.0000
 20
0.0000
 30
0.0000
 40
0.0381
 41
0.0381
 70
0
  0
VERTEX
  8
16
 10
43.7363
 20
41.2762
 30
0.0000
 42
1.0000
  0
VERTEX
  8
16
 10
43.7094
 20
41.3031
 30
0.0000
  0
SEQEND
  8
0
  0
POLYLINE
  8
16
 66
1
 10
0.0000
 20
0.0000
 30
0.0000
 40
0.0381
 41
0.0381
 70
0
  0
VERTEX
  8
16
 10
43.6208
 20
41.2145
 30
0.0000
 42
1.0000
  0
VERTEX
  8
16
 10
43.6477
 20
41.1876
 30
0.0000
  0
SEQEND
  8
0
  0
POLYLINE
  8
16
 66
1
 10
0.0000
 20
0.0000
 30
0.0000
 40
0.0762
 41
0.0762
 70
0
  0
VERTEX
  8
16
 10
43.7228
 20
41.2896
 30
0.0000
  0
VERTEX
  8
16
 10
43.7228
 20
45.9562
 30
0.0000
  0
SEQEND
  8
0
  0
POLYLINE
  8
16
 66
1
 10
0.0000
 20
0.0000
 30
0.0000
 40
0.0381
 41
0.0381
 70
0
  0
VERTEX
  8
16
 10
43.7419
 20
45.9562
 30
0.0000
 42
1.0000
  0
VERTEX
  8
16
 10
43.7038
 20
45.9562
 30
0.0000
  0
SEQEND
  8
0
  0
POLYLINE
  8
16
 66
1
 10
0.0000
 20
0.0000
 30
0.0000
 40
0.0381
 41
0.0381
 70
0
  0
VERTEX
  8
16
 10
43.7038
 20
41.2896
 30
0.0000
 42
1.0000
  0
VERTEX
  8
16
 10
43.7419
 20
41.2896
 30
0.0000
  0
SEQEND
  8
0
  0
POLYLINE
  8
16
 66
1
 10
0.0000
 20
0.0000
 30
0.0000
 40
0.0762
 41
0.0762
 70
0
  0
VERTEX
  8
16
 10
43.7228
 20
45.9562
 30
0.0000
  0
VERTEX
  8
16
 10
43.7523
 20
45.9857
 30
0.0000
  0
SEQEND
  8
0
  0
POLYLINE
  8
16
 66
1
 10
0.0000
 20
0.0000
 30
0.0000
 40
0.0381
 41
0.0381
 70
0
  0
VERTEX
  8
16
 10
43.7658
 20
45.9722
 30
0.0000
 42
1.0000
  0
VERTEX
  8
16
 10
43.7389
 20
45.9991
 30
0.0000
  0
SEQEND
  8
0
  0
POLYLINE
  8
16
 66
1
 10
0.0000
 20
0.0000
 30
0.0000
 40
0.0381
 41
0.0381
 70
0
  0
VERTEX
  8
16
 10
43.7094
 20
45.9696
 30
0.0000
 42
1.0000
  0
VERTEX
  8
16
 10
43.7363
 20
45.9427
 30
0.0000
  0
SEQEND
  8
0
  0
POLYLINE
  8
16
 66
1
 10
0.0000
 20
0.0000
 30
0.0000
 40
0.0762
 41
0.0762
 70
0
  0
VERTEX
  8
16
 10
43.7523
 20
45.9857
 30
0.0000
  0
VERTEX
  8
16
 10
43.5161
 20
46.2219
 30
0.0000
  0
SEQEND
  8
0
  0
POLYLINE
  8
16
 66
1
 10
0.0000
 20
0.0000
 30
0.0000
 40
0.0381
 41
0.0381
 70
0
  0
VERTEX
  8
16
 10
43.5295
 20
46.2354
 30
0.0000
 42
1.0000
  0
VERTEX
  8
16
 10
43.5026
 20
46.2085
 30
0.0000
  0
SEQEND
  8
0
  0
POLYLINE
  8
16
 66
1
 10
0.0000
 20
0.0000
 30
0.0000
 40
0.0381
 41
0.0381
 70
0
  0
VERTEX
  8
16
 10
43.7389
 20
45.9722
 30
0.0000
 42
1.0000
  0
VERTEX
  8
16
 10
43.7658
 20
45.9991
 30
0.0000
  0
SEQEND
  8
0
  0
POLYLINE
  8
16
 66
1
 10
0.0000
 20
0.0000
 30
0.0000
 40
0.0762
 41
0.0762
 70
0
  0
VERTEX
  8
16
 10
43.5161
 20
46.2219
 30
0.0000
  0
VERTEX
  8
16
 10
43.4868
 20
46.2219
 30
0.0000
  0
SEQEND
  8
0
  0
POLYLINE
  8
16
 66
1
 10
0.0000
 20
0.0000
 30
0.0000
 40
0.0381
 41
0.0381
 70
0
  0
VERTEX
  8
16
 10
43.4868
 20
46.2410
 30
0.0000
 42
1.0000
  0
VERTEX
  8
16
 10
43.4868
 20
46.2029
 30
0.0000
  0
SEQEND
  8
0
  0
POLYLINE
  8
16
 66
1
 10
0.0000
 20
0.0000
 30
0.0000
 40
0.0381
 41
0.0381
 70
0
  0
VERTEX
  8
16
 10
43.5161
 20
46.2029
 30
0.0000
 42
1.0000
  0
VERTEX
  8
16
 10
43.5161
 20
46.2410
 30
0.0000
  0
SEQEND
  8
0
  0
POLYLINE
  8
16
 66
1
 10
0.0000
 20
0.0000
 30
0.0000
 40
0.0762
 41
0.0762
 70
0
  0
VERTEX
  8
16
 10
43.4868
 20
46.2219
 30
0.0000
  0
VERTEX
  8
16
 10
20.8289
 20
46.2219
 30
0.0000
  0
SEQEND
  8
0
  0
POLYLINE
  8
16
 66
1
 10
0.0000
 20
0.0000
 30
0.0000
 40
0.0381
 41
0.0381
 70
0
  0
VERTEX
  8
16
 10
20.8289
 20
46.2410
 30
0.0000
 42
1.0000
  0
VERTEX
  8
16
 10
20.8289
 20
46.2029
 30
0.0000
  0
SEQEND
  8
0
  0
POLYLINE
  8
16
 66
1
 10
0.0000
 20
0.0000
 30
0.0000
 40
0.0381
 41
0.0381
 70
0
  0
VERTEX
  8
16
 10
43.4868
 20
46.2029
 30
0.0000
 42
1.0000
  0
VERTEX
  8
16
 10
43.4868
 20
46.2410
 30
0.0000
  0
SEQEND
  8
0
  0
POLYLINE
  8
16
 66
1
 10
0.0000
 20
0.0000
 30
0.0000
 40
0.0762
 41
0.0762
 70
0
  0
VERTEX
  8
16
 10
20.8289
 20
46.2219
 30
0.0000
  0
VERTEX
  8
16
 10
20.7403
 20
46.1333
 30
0.0000
  0
SEQEND
  8
0
  0
POLYLINE
  8
16
 66
1
 10
0.0000
 20
0.0000
 30
0.0000
 40
0.0381
 41
0.0381
 70
0
  0
VERTEX
  8
16
 10
20.7269
 20
46.1468
 30
0.0000
 42
1.0000
  0
VERTEX
  8
16
 10
20.7538
 20
46.1199
 30
0.0000
  0
SEQEND
  8
0
  0
POLYLINE
  8
16
 66
1
 10
0.0000
 20
0.0000
 30
0.0000
 40
0.0381
 41
0.0381
 70
0
  0
VERTEX
  8
16
 10
20.8424
 20
46.2085
 30
0.0000
 42
1.0000
  0
VERTEX
  8
16
 10
20.8155
 20
46.2354
 30
0.0000
  0
SEQEND
  8
0
  0
POLYLINE
  8
16
 66
1
 10
0.0000
 20
0.0000
 30
0.0000
 40
0.0762
 41
0.0762
 70
0
  0
VERTEX
  8
16
 10
20.7403
 20
46.1333
 30
0.0000
  0
VERTEX
  8
16
 10
20.7108
 20
46.1924
 30
0.0000
  0
SEQEND
  8
0
  0
POLYLINE
  8
16
 66
1
 10
0.0000
 20
0.0000
 30
0.0000
 40
0.0381
 41
0.0381
 70
0
  0
VERTEX
  8
16
 10
20.7279
 20
46.2009
 30
0.0000
 42
1.0000
  0
VERTEX
  8
16
 10
20.6938
 20
46.1839
 30
0.0000
  0
SEQEND
  8
0
  0
POLYLINE
  8
16
 66
1
 10
0.0000
 20
0.0000
 30
0.0000
 40
0.0381
 41
0.0381
 70
0
  0
VERTEX
  8
16
 10
20.7233
 20
46.1248
 30
0.0000
 42
1.0000
  0
VERTEX
  8
16
 10
20.7574
 20
46.1418
 30
0.0000
  0
SEQEND
  8
0
  0
POLYLINE
  8
16
 66
1
 10
0.0000
 20
0.0000
 30
0.0000
 40
0.2540
 41
0.2540
 70
0
  0
VERTEX
  8
16
 10
25.2721
 20
34.3026
 30
0.0000
  0
VERTEX
  8
16
 10
31.1947
 20
34.3026
 30
0.0000
  0
SEQEND
  8
0
  0
POLYLINE
  8
16
 66
1
 10
0.0000
 20
0.0000
 30
0.0000
 40
0.1270
 41
0.1270
 70
0
  0
VERTEX
  8
16
 10
31.1947
 20
34.2391
 30
0.0000
 42
1.0000
  0
VERTEX
  8
16
 10
31.1947
 20
34.3661
 30
0.0000
  0
SEQEND
  8
0
  0
POLYLINE
  8
16
 66
1
 10
0.0000
 20
0.0000
 30
0.0000
 40
0.1270
 41
0.1270
 70
0
  0
VERTEX
  8
16
 10
25.2721
 20
34.3661
 30
0.0000
 42
1.0000
  0
VERTEX
  8
16
 10
25.2721
 20
34.2391
 30
0.0000
  0
SEQEND
  8
0
  0
POLYLINE
  8
16
 66
1
 10
0.0000
 20
0.0000
 30
0.0000
 40
0.2540
 41
0.2540
 70
0
  0
VERTEX
  8
16
 10
31.1947
 20
34.3026
 30
0.0000
  0
VERTEX
  8
16
 10
32.9242
 20
36.0321
 30
0.0000
  0
SEQEND
  8
0
  0
POLYLINE
  8
16
 66
1
 10
0.0000
 20
0.0000
 30
0.0000
 40
0.1270
 41
0.1270
 70
0
  0
VERTEX
  8
16
 10
32.9691
 20
35.9872
 30
0.0000
 42
1.0000
  0
VERTEX
  8
16
 10
32.8793
 20
36.0770
 30
0.0000
  0
SEQEND
  8
0
  0
POLYLINE
  8
16
 66
1
 10
0.0000
 20
0.0000
 30
0.0000
 40
0.1270
 41
0.1270
 70
0
  0
VERTEX
  8
16
 10
31.1498
 20
34.3475
 30
0.0000
 42
1.0000
  0
VERTEX
  8
16
 10
31.2396
 20
34.2577
 30
0.0000
  0
SEQEND
  8
0
  0
POLYLINE
  8
16
 66
1
 10
0.0000
 20
0.0000
 30
0.0000
 40
0.2540
 41
0.2540
 70
0
  0
VERTEX
  8
16
 10
22.1457
 20
24.6350
 30
0.0000
  0
VERTEX
  8
16
 10
22.1457
 20
31.1762
 30
0.0000
  0
SEQEND
  8
0
  0
POLYLINE
  8
16
 66
1
 10
0.0000
 20
0.0000
 30
0.0000
 40
0.1270
 41
0.1270
 70
0
  0
VERTEX
  8
16
 10
22.2092
 20
31.1762
 30
0.0000
 42
1.0000
  0
VERTEX
  8
16
 10
22.0822
 20
31.1762
 30
0.0000
  0
SEQEND
  8
0
  0
POLYLINE
  8
16
 66
1
 10
0.0000
 20
0.0000
 30
0.0000
 40
0.1270
 41
0.1270
 70
0
  0
VERTEX
  8
16
 10
22.0822
 20
24.6350
 30
0.0000
 42
1.0000
  0
VERTEX
  8
16
 10
22.2092
 20
24.6350
 30
0.0000
  0
SEQEND
  8
0
  0
POLYLINE
  8
16
 66
1
 10
0.0000
 20
0.0000
 30
0.0000
 40
0.2540
 41
0.2540
 70
0
  0
VERTEX
  8
16
 10
22.1457
 20
31.1762
 30
0.0000
  0
VERTEX
  8
16
 10
25.2721
 20
34.3026
 30
0.0000
  0
SEQEND
  8
0
  0
POLYLINE
  8
16
 66
1
 10
0.0000
 20
0.0000
 30
0.0000
 40
0.1270
 41
0.1270
 70
0
  0
VERTEX
  8
16
 10
25.3170
 20
34.2577
 30
0.0000
 42
1.0000
  0
VERTEX
  8
16
 10
25.2272
 20
34.3475
 30
0.0000
  0
SEQEND
  8
0
  0
POLYLINE
  8
16
 66
1
 10
0.0000
 20
0.0000
 30
0.0000
 40
0.1270
 41
0.1270
 70
0
  0
VERTEX
  8
16
 10
22.1008
 20
31.2211
 30
0.0000
 42
1.0000
  0
VERTEX
  8
16
 10
22.1906
 20
31.1313
 30
0.0000
  0
SEQEND
  8
0
  0
POLYLINE
  8
16
 66
1
 10
0.0000
 20
0.0000
 30
0.0000
 40
0.2540
 41
0.2540
 70
0
  0
VERTEX
  8
16
 10
32.9242
 20
29.0799
 30
0.0000
  0
VERTEX
  8
16
 10
29.7657
 20
25.9215
 30
0.0000
  0
SEQEND
  8
0
  0
POLYLINE
  8
16
 66
1
 10
0.0000
 20
0.0000
 30
0.0000
 40
0.1270
 41
0.1270
 70
0
  0
VERTEX
  8
16
 10
29.7208
 20
25.9664
 30
0.0000
 42
1.0000
  0
VERTEX
  8
16
 10
29.8106
 20
25.8766
 30
0.0000
  0
SEQEND
  8
0
  0
POLYLINE
  8
16
 66
1
 10
0.0000
 20
0.0000
 30
0.0000
 40
0.1270
 41
0.1270
 70
0
  0
VERTEX
  8
16
 10
32.9691
 20
29.0350
 30
0.0000
 42
1.0000
  0
VERTEX
  8
16
 10
32.8793
 20
29.1248
 30
0.0000
  0
SEQEND
  8
0
  0
POLYLINE
  8
16
 66
1
 10
0.0000
 20
0.0000
 30
0.0000
 40
0.2540
 41
0.2540
 70
0
  0
VERTEX
  8
16
 10
29.7657
 20
25.9215
 30
0.0000
  0
VERTEX
  8
16
 10
29.7657
 20
24.6350
 30
0.0000
  0
SEQEND
  8
0
  0
POLYLINE
  8
16
 66
1
 10
0.0000
 20
0.0000
 30
0.0000
 40
0.1270
 41
0.1270
 70
0
  0
VERTEX
  8
16
 10
29.7022
 20
24.6350
 30
0.0000
 42
1.0000
  0
VERTEX
  8
16
 10
29.8292
 20
24.6350
 30
0.0000
  0
SEQEND
  8
0
  0
POLYLINE
  8
16
 66
1
 10
0.0000
 20
0.0000
 30
0.0000
 40
0.1270
 41
0.1270
 70
0
  0
VERTEX
  8
16
 10
29.8292
 20
25.9215
 30
0.0000
 42
1.0000
  0
VERTEX
  8
16
 10
29.7022
 20
25.9215
 30
0.0000
  0
SEQEND
  8
0
  0
POLYLINE
  8
16
 66
1
 10
0.0000
 20
0.0000
 30
0.0000
 40
0.2540
 41
0.2540
 70
0
  0
VERTEX
  8
16
 10
27.2257
 20
44.9711
 30
0.0000
  0
VERTEX
  8
16
 10
32.4719
 20
39.7249
 30
0.0000
  0
SEQEND
  8
0
  0
POLYLINE
  8
16
 66
1
 10
0.0000
 20
0.0000
 30
0.0000
 40
0.1270
 41
0.1270
 70
0
  0
VERTEX
  8
16
 10
32.4270
 20
39.6800
 30
0.0000
 42
1.0000
  0
VERTEX
  8
16
 10
32.5168
 20
39.7699
 30
0.0000
  0
SEQEND
  8
0
  0
POLYLINE
  8
16
 66
1
 10
0.0000
 20
0.0000
 30
0.0000
 40
0.1270
 41
0.1270
 70
0
  0
VERTEX
  8
16
 10
27.2706
 20
45.0160
 30
0.0000
 42
1.0000
  0
VERTEX
  8
16
 10
27.1808
 20
44.9262
 30
0.0000
  0
SEQEND
  8
0
  0
POLYLINE
  8
16
 66
1
 10
0.0000
 20
0.0000
 30
0.0000
 40
0.2540
 41
0.2540
 70
0
  0
VERTEX
  8
16
 10
32.4719
 20
39.7249
 30
0.0000
  0
VERTEX
  8
16
 10
34.4046
 20
39.7249
 30
0.0000
  0
SEQEND
  8
0
  0
POLYLINE
  8
16
 66
1
 10
0.0000
 20
0.0000
 30
0.0000
 40
0.1270
 41
0.1270
 70
0
  0
VERTEX
  8
16
 10
34.4046
 20
39.6615
 30
0.0000
 42
1.0000
  0
VERTEX
  8
16
 10
34.4046
 20
39.7884
 30
0.0000
  0
SEQEND
  8
0
  0
POLYLINE
  8
16
 66
1
 10
0.0000
 20
0.0000
 30
0.0000
 40
0.1270
 41
0.1270
 70
0
  0
VERTEX
  8
16
 10
32.4719
 20
39.7884
 30
0.0000
 42
1.0000
  0
VERTEX
  8
16
 10
32.4719
 20
39.6615
 30
0.0000
  0
SEQEND
  8
0
  0
POLYLINE
  8
16
 66
1
 10
0.0000
 20
0.0000
 30
0.0000
 40
0.2540
 41
0.2540
 70
0
  0
VERTEX
  8
16
 10
34.6024
 20
39.6591
 30
0.0000
  0
VERTEX
  8
16
 10
35.3712
 20
38.8904
 30
0.0000
  0
SEQEND
  8
0
  0
POLYLINE
  8
16
 66
1
 10
0.0000
 20
0.0000
 30
0.0000
 40
0.1270
 41
0.1270
 70
0
  0
VERTEX
  8
16
 10
35.3263
 20
38.8455
 30
0.0000
 42
1.0000
  0
VERTEX
  8
16
 10
35.4161
 20
38.9353
 30
0.0000
  0
SEQEND
  8
0
  0
POLYLINE
  8
16
 66
1
 10
0.0000
 20
0.0000
 30
0.0000
 40
0.1270
 41
0.1270
 70
0
  0
VERTEX
  8
16
 10
34.6473
 20
39.7040
 30
0.0000
 42
1.0000
  0
VERTEX
  8
16
 10
34.5575
 20
39.6142
 30
0.0000
  0
SEQEND
  8
0
  0
POLYLINE
  8
16
 66
1
 10
0.0000
 20
0.0000
 30
0.0000
 40
0.2540
 41
0.2540
 70
0
  0
VERTEX
  8
16
 10
34.4046
 20
39.7249
 30
0.0000
  0
VERTEX
  8
16
 10
34.4704
 20
39.6591
 30
0.0000
  0
SEQEND
  8
0
  0
POLYLINE
  8
16
 66
1
 10
0.0000
 20
0.0000
 30
0.0000
 40
0.1270
 41
0.1270
 70
0
  0
VERTEX
  8
16
 10
34.4255
 20
39.6142
 30
0.0000
 42
1.0000
  0
VERTEX
  8
16
 10
34.5153
 20
39.7040
 30
0.0000
  0
SEQEND
  8
0
  0
POLYLINE
  8
16
 66
1
 10
0.0000
 20
0.0000
 30
0.0000
 40
0.1270
 41
0.1270
 70
0
  0
VERTEX
  8
16
 10
34.4495
 20
39.7699
 30
0.0000
 42
1.0000
  0
VERTEX
  8
16
 10
34.3597
 20
39.6800
 30
0.0000
  0
SEQEND
  8
0
  0
POLYLINE
  8
16
 66
1
 10
0.0000
 20
0.0000
 30
0.0000
 40
0.2540
 41
0.2540
 70
0
  0
VERTEX
  8
16
 10
34.4704
 20
39.6591
 30
0.0000
  0
VERTEX
  8
16
 10
34.6024
 20
39.6591
 30
0.0000
  0
SEQEND
  8
0
  0
POLYLINE
  8
16
 66
1
 10
0.0000
 20
0.0000
 30
0.0000
 40
0.1270
 41
0.1270
 70
0
  0
VERTEX
  8
16
 10
34.6024
 20
39.5956
 30
0.0000
 42
1.0000
  0
VERTEX
  8
16
 10
34.6024
 20
39.7226
 30
0.0000
  0
SEQEND
  8
0
  0
POLYLINE
  8
16
 66
1
 10
0.0000
 20
0.0000
 30
0.0000
 40
0.1270
 41
0.1270
 70
0
  0
VERTEX
  8
16
 10
34.4704
 20
39.7226
 30
0.0000
 42
1.0000
  0
VERTEX
  8
16
 10
34.4704
 20
39.5956
 30
0.0000
  0
SEQEND
  8
0
  0
POLYLINE
  8
16
 66
1
 10
0.0000
 20
0.0000
 30
0.0000
 40
0.2540
 41
0.2540
 70
0
  0
VERTEX
  8
16
 10
35.3712
 20
38.8904
 30
0.0000
  0
VERTEX
  8
16
 10
35.3712
 20
36.4116
 30
0.0000
  0
SEQEND
  8
0
  0
POLYLINE
  8
16
 66
1
 10
0.0000
 20
0.0000
 30
0.0000
 40
0.1270
 41
0.1270
 70
0
  0
VERTEX
  8
16
 10
35.3077
 20
36.4116
 30
0.0000
 42
1.0000
  0
VERTEX
  8
16
 10
35.4347
 20
36.4116
 30
0.0000
  0
SEQEND
  8
0
  0
POLYLINE
  8
16
 66
1
 10
0.0000
 20
0.0000
 30
0.0000
 40
0.1270
 41
0.1270
 70
0
  0
VERTEX
  8
16
 10
35.4347
 20
38.8904
 30
0.0000
 42
1.0000
  0
VERTEX
  8
16
 10
35.3077
 20
38.8904
 30
0.0000
  0
SEQEND
  8
0
  0
POLYLINE
  8
16
 66
1
 10
0.0000
 20
0.0000
 30
0.0000
 40
0.2540
 41
0.2540
 70
0
  0
VERTEX
  8
16
 10
33.8443
 20
34.8848
 30
0.0000
  0
VERTEX
  8
16
 10
32.6063
 20
34.8848
 30
0.0000
  0
SEQEND
  8
0
  0
POLYLINE
  8
16
 66
1
 10
0.0000
 20
0.0000
 30
0.0000
 40
0.1270
 41
0.1270
 70
0
  0
VERTEX
  8
16
 10
32.6063
 20
34.9483
 30
0.0000
 42
1.0000
  0
VERTEX
  8
16
 10
32.6063
 20
34.8213
 30
0.0000
  0
SEQEND
  8
0
  0
POLYLINE
  8
16
 66
1
 10
0.0000
 20
0.0000
 30
0.0000
 40
0.1270
 41
0.1270
 70
0
  0
VERTEX
  8
16
 10
33.8443
 20
34.8213
 30
0.0000
 42
1.0000
  0
VERTEX
  8
16
 10
33.8443
 20
34.9483
 30
0.0000
  0
SEQEND
  8
0
  0
POLYLINE
  8
16
 66
1
 10
0.0000
 20
0.0000
 30
0.0000
 40
0.2540
 41
0.2540
 70
0
  0
VERTEX
  8
16
 10
32.6063
 20
34.8848
 30
0.0000
  0
VERTEX
  8
16
 10
29.4841
 20
31.7626
 30
0.0000
  0
SEQEND
  8
0
  0
POLYLINE
  8
16
 66
1
 10
0.0000
 20
0.0000
 30
0.0000
 40
0.1270
 41
0.1270
 70
0
  0
VERTEX
  8
16
 10
29.4392
 20
31.8075
 30
0.0000
 42
1.0000
  0
VERTEX
  8
16
 10
29.5290
 20
31.7177
 30
0.0000
  0
SEQEND
  8
0
  0
POLYLINE
  8
16
 66
1
 10
0.0000
 20
0.0000
 30
0.0000
 40
0.1270
 41
0.1270
 70
0
  0
VERTEX
  8
16
 10
32.6512
 20
34.8399
 30
0.0000
 42
1.0000
  0
VERTEX
  8
16
 10
32.5614
 20
34.9297
 30
0.0000
  0
SEQEND
  8
0
  0
POLYLINE
  8
16
 66
1
 10
0.0000
 20
0.0000
 30
0.0000
 40
0.2540
 41
0.2540
 70
0
  0
VERTEX
  8
16
 10
29.4841
 20
31.7626
 30
0.0000
  0
VERTEX
  8
16
 10
25.2721
 20
31.7626
 30
0.0000
  0
SEQEND
  8
0
  0
POLYLINE
  8
16
 66
1
 10
0.0000
 20
0.0000
 30
0.0000
 40
0.1270
 41
0.1270
 70
0
  0
VERTEX
  8
16
 10
25.2721
 20
31.8261
 30
0.0000
 42
1.0000
  0
VERTEX
  8
16
 10
25.2721
 20
31.6991
 30
0.0000
  0
SEQEND
  8
0
  0
POLYLINE
  8
16
 66
1
 10
0.0000
 20
0.0000
 30
0.0000
 40
0.1270
 41
0.1270
 70
0
  0
VERTEX
  8
16
 10
29.4841
 20
31.6991
 30
0.0000
 42
1.0000
  0
VERTEX
  8
16
 10
29.4841
 20
31.8261
 30
0.0000
  0
SEQEND
  8
0
  0
POLYLINE
  8
16
 66
1
 10
0.0000
 20
0.0000
 30
0.0000
 40
0.2540
 41
0.2540
 70
0
  0
VERTEX
  8
16
 10
35.3712
 20
36.4116
 30
0.0000
  0
VERTEX
  8
16
 10
33.8443
 20
34.8848
 30
0.0000
  0
SEQEND
  8
0
  0
POLYLINE
  8
16
 66
1
 10
0.0000
 20
0.0000
 30
0.0000
 40
0.1270
 41
0.1270
 70
0
  0
VERTEX
  8
16
 10
33.7994
 20
34.9297
 30
0.0000
 42
1.0000
  0
VERTEX
  8
16
 10
33.8892
 20
34.8399
 30
0.0000
  0
SEQEND
  8
0
  0
POLYLINE
  8
16
 66
1
 10
0.0000
 20
0.0000
 30
0.0000
 40
0.1270
 41
0.1270
 70
0
  0
VERTEX
  8
16
 10
35.4161
 20
36.3667
 30
0.0000
 42
1.0000
  0
VERTEX
  8
16
 10
35.3263
 20
36.4565
 30
0.0000
  0
SEQEND
  8
0
  0
POLYLINE
  8
16
 66
1
 10
0.0000
 20
0.0000
 30
0.0000
 40
0.2540
 41
0.2540
 70
0
  0
VERTEX
  8
16
 10
24.6857
 20
44.9711
 30
0.0000
  0
VERTEX
  8
16
 10
30.4041
 20
39.2527
 30
0.0000
  0
SEQEND
  8
0
  0
POLYLINE
  8
16
 66
1
 10
0.0000
 20
0.0000
 30
0.0000
 40
0.1270
 41
0.1270
 70
0
  0
VERTEX
  8
16
 10
30.3592
 20
39.2078
 30
0.0000
 42
1.0000
  0
VERTEX
  8
16
 10
30.4490
 20
39.2976
 30
0.0000
  0
SEQEND
  8
0
  0
POLYLINE
  8
16
 66
1
 10
0.0000
 20
0.0000
 30
0.0000
 40
0.1270
 41
0.1270
 70
0
  0
VERTEX
  8
16
 10
24.7306
 20
45.0160
 30
0.0000
 42
1.0000
  0
VERTEX
  8
16
 10
24.6408
 20
44.9262
 30
0.0000
  0
SEQEND
  8
0
  0
POLYLINE
  8
16
 66
1
 10
0.0000
 20
0.0000
 30
0.0000
 40
0.2540
 41
0.2540
 70
0
  0
VERTEX
  8
16
 10
30.4041
 20
39.2527
 30
0.0000
  0
VERTEX
  8
16
 10
32.5343
 20
39.2527
 30
0.0000
  0
SEQEND
  8
0
  0
POLYLINE
  8
16
 66
1
 10
0.0000
 20
0.0000
 30
0.0000
 40
0.1270
 41
0.1270
 70
0
  0
VERTEX
  8
16
 10
32.5343
 20
39.1892
 30
0.0000
 42
1.0000
  0
VERTEX
  8
16
 10
32.5343
 20
39.3162
 30
0.0000
  0
SEQEND
  8
0
  0
POLYLINE
  8
16
 66
1
 10
0.0000
 20
0.0000
 30
0.0000
 40
0.1270
 41
0.1270
 70
0
  0
VERTEX
  8
16
 10
30.4041
 20
39.3162
 30
0.0000
 42
1.0000
  0
VERTEX
  8
16
 10
30.4041
 20
39.1892
 30
0.0000
  0
SEQEND
  8
0
  0
POLYLINE
  8
16
 66
1
 10
0.0000
 20
0.0000
 30
0.0000
 40
0.2540
 41
0.2540
 70
0
  0
VERTEX
  8
16
 10
32.5343
 20
39.2527
 30
0.0000
  0
VERTEX
  8
16
 10
32.5454
 20
39.2639
 30
0.0000
  0
SEQEND
  8
0
  0
POLYLINE
  8
16
 66
1
 10
0.0000
 20
0.0000
 30
0.0000
 40
0.1270
 41
0.1270
 70
0
  0
VERTEX
  8
16
 10
32.5903
 20
39.2190
 30
0.0000
 42
1.0000
  0
VERTEX
  8
16
 10
32.5005
 20
39.3088
 30
0.0000
  0
SEQEND
  8
0
  0
POLYLINE
  8
16
 66
1
 10
0.0000
 20
0.0000
 30
0.0000
 40
0.1270
 41
0.1270
 70
0
  0
VERTEX
  8
16
 10
32.4894
 20
39.2976
 30
0.0000
 42
1.0000
  0
VERTEX
  8
16
 10
32.5792
 20
39.2078
 30
0.0000
  0
SEQEND
  8
0
  0
POLYLINE
  8
16
 66
1
 10
0.0000
 20
0.0000
 30
0.0000
 40
0.2540
 41
0.2540
 70
0
  0
VERTEX
  8
16
 10
32.5454
 20
39.2639
 30
0.0000
  0
VERTEX
  8
16
 10
33.3029
 20
39.2639
 30
0.0000
  0
SEQEND
  8
0
  0
POLYLINE
  8
16
 66
1
 10
0.0000
 20
0.0000
 30
0.0000
 40
0.1270
 41
0.1270
 70
0
  0
VERTEX
  8
16
 10
33.3029
 20
39.2004
 30
0.0000
 42
1.0000
  0
VERTEX
  8
16
 10
33.3029
 20
39.3274
 30
0.0000
  0
SEQEND
  8
0
  0
POLYLINE
  8
16
 66
1
 10
0.0000
 20
0.0000
 30
0.0000
 40
0.1270
 41
0.1270
 70
0
  0
VERTEX
  8
16
 10
32.5454
 20
39.3274
 30
0.0000
 42
1.0000
  0
VERTEX
  8
16
 10
32.5454
 20
39.2004
 30
0.0000
  0
SEQEND
  8
0
  0
POLYLINE
  8
16
 66
1
 10
0.0000
 20
0.0000
 30
0.0000
 40
0.2540
 41
0.2540
 70
0
  0
VERTEX
  8
16
 10
33.3029
 20
39.2639
 30
0.0000
  0
VERTEX
  8
16
 10
33.3140
 20
39.2527
 30
0.0000
  0
SEQEND
  8
0
  0
POLYLINE
  8
16
 66
1
 10
0.0000
 20
0.0000
 30
0.0000
 40
0.1270
 41
0.1270
 70
0
  0
VERTEX
  8
16
 10
33.2691
 20
39.2078
 30
0.0000
 42
1.0000
  0
VERTEX
  8
16
 10
33.3589
 20
39.2976
 30
0.0000
  0
SEQEND
  8
0
  0
POLYLINE
  8
16
 66
1
 10
0.0000
 20
0.0000
 30
0.0000
 40
0.1270
 41
0.1270
 70
0
  0
VERTEX
  8
16
 10
33.3478
 20
39.3088
 30
0.0000
 42
1.0000
  0
VERTEX
  8
16
 10
33.2580
 20
39.2190
 30
0.0000
  0
SEQEND
  8
0
  0
POLYLINE
  8
16
 66
1
 10
0.0000
 20
0.0000
 30
0.0000
 40
0.2540
 41
0.2540
 70
0
  0
VERTEX
  8
16
 10
33.3140
 20
39.2527
 30
0.0000
  0
VERTEX
  8
16
 10
34.4341
 20
39.2527
 30
0.0000
  0
SEQEND
  8
0
  0
POLYLINE
  8
16
 66
1
 10
0.0000
 20
0.0000
 30
0.0000
 40
0.1270
 41
0.1270
 70
0
  0
VERTEX
  8
16
 10
34.4341
 20
39.1892
 30
0.0000
 42
1.0000
  0
VERTEX
  8
16
 10
34.4341
 20
39.3162
 30
0.0000
  0
SEQEND
  8
0
  0
POLYLINE
  8
16
 66
1
 10
0.0000
 20
0.0000
 30
0.0000
 40
0.1270
 41
0.1270
 70
0
  0
VERTEX
  8
16
 10
33.3140
 20
39.3162
 30
0.0000
 42
1.0000
  0
VERTEX
  8
16
 10
33.3140
 20
39.1892
 30
0.0000
  0
SEQEND
  8
0
  0
POLYLINE
  8
16
 66
1
 10
0.0000
 20
0.0000
 30
0.0000
 40
0.2540
 41
0.2540
 70
0
  0
VERTEX
  8
16
 10
34.4341
 20
39.2527
 30
0.0000
  0
VERTEX
  8
16
 10
34.9648
 20
38.7221
 30
0.0000
  0
SEQEND
  8
0
  0
POLYLINE
  8
16
 66
1
 10
0.0000
 20
0.0000
 30
0.0000
 40
0.1270
 41
0.1270
 70
0
  0
VERTEX
  8
16
 10
34.9199
 20
38.6772
 30
0.0000
 42
1.0000
  0
VERTEX
  8
16
 10
35.0097
 20
38.7670
 30
0.0000
  0
SEQEND
  8
0
  0
POLYLINE
  8
16
 66
1
 10
0.0000
 20
0.0000
 30
0.0000
 40
0.1270
 41
0.1270
 70
0
  0
VERTEX
  8
16
 10
34.4790
 20
39.2976
 30
0.0000
 42
1.0000
  0
VERTEX
  8
16
 10
34.3892
 20
39.2078
 30
0.0000
  0
SEQEND
  8
0
  0
POLYLINE
  8
16
 66
1
 10
0.0000
 20
0.0000
 30
0.0000
 40
0.2540
 41
0.2540
 70
0
  0
VERTEX
  8
16
 10
34.9648
 20
37.8649
 30
0.0000
  0
VERTEX
  8
16
 10
34.2867
 20
37.1868
 30
0.0000
  0
SEQEND
  8
0
  0
POLYLINE
  8
16
 66
1
 10
0.0000
 20
0.0000
 30
0.0000
 40
0.1270
 41
0.1270
 70
0
  0
VERTEX
  8
16
 10
34.2418
 20
37.2317
 30
0.0000
 42
1.0000
  0
VERTEX
  8
16
 10
34.3316
 20
37.1419
 30
0.0000
  0
SEQEND
  8
0
  0
POLYLINE
  8
16
 66
1
 10
0.0000
 20
0.0000
 30
0.0000
 40
0.1270
 41
0.1270
 70
0
  0
VERTEX
  8
16
 10
35.0097
 20
37.8200
 30
0.0000
 42
1.0000
  0
VERTEX
  8
16
 10
34.9199
 20
37.9098
 30
0.0000
  0
SEQEND
  8
0
  0
POLYLINE
  8
16
 66
1
 10
0.0000
 20
0.0000
 30
0.0000
 40
0.2540
 41
0.2540
 70
0
  0
VERTEX
  8
16
 10
34.2867
 20
37.1868
 30
0.0000
  0
VERTEX
  8
16
 10
25.6163
 20
37.1868
 30
0.0000
  0
SEQEND
  8
0
  0
POLYLINE
  8
16
 66
1
 10
0.0000
 20
0.0000
 30
0.0000
 40
0.1270
 41
0.1270
 70
0
  0
VERTEX
  8
16
 10
25.6163
 20
37.2503
 30
0.0000
 42
1.0000
  0
VERTEX
  8
16
 10
25.6163
 20
37.1233
 30
0.0000
  0
SEQEND
  8
0
  0
POLYLINE
  8
16
 66
1
 10
0.0000
 20
0.0000
 30
0.0000
 40
0.1270
 41
0.1270
 70
0
  0
VERTEX
  8
16
 10
34.2867
 20
37.1233
 30
0.0000
 42
1.0000
  0
VERTEX
  8
16
 10
34.2867
 20
37.2503
 30
0.0000
  0
SEQEND
  8
0
  0
POLYLINE
  8
16
 66
1
 10
0.0000
 20
0.0000
 30
0.0000
 40
0.2540
 41
0.2540
 70
0
  0
VERTEX
  8
16
 10
25.6163
 20
37.1868
 30
0.0000
  0
VERTEX
  8
16
 10
25.2721
 20
36.8426
 30
0.0000
  0
SEQEND
  8
0
  0
POLYLINE
  8
16
 66
1
 10
0.0000
 20
0.0000
 30
0.0000
 40
0.1270
 41
0.1270
 70
0
  0
VERTEX
  8
16
 10
25.2272
 20
36.8875
 30
0.0000
 42
1.0000
  0
VERTEX
  8
16
 10
25.3170
 20
36.7977
 30
0.0000
  0
SEQEND
  8
0
  0
POLYLINE
  8
16
 66
1
 10
0.0000
 20
0.0000
 30
0.0000
 40
0.1270
 41
0.1270
 70
0
  0
VERTEX
  8
16
 10
25.6612
 20
37.1419
 30
0.0000
 42
1.0000
  0
VERTEX
  8
16
 10
25.5714
 20
37.2317
 30
0.0000
  0
SEQEND
  8
0
  0
POLYLINE
  8
16
 66
1
 10
0.0000
 20
0.0000
 30
0.0000
 40
0.2540
 41
0.2540
 70
0
  0
VERTEX
  8
16
 10
34.9648
 20
38.7221
 30
0.0000
  0
VERTEX
  8
16
 10
34.9648
 20
37.8649
 30
0.0000
  0
SEQEND
  8
0
  0
POLYLINE
  8
16
 66
1
 10
0.0000
 20
0.0000
 30
0.0000
 40
0.1270
 41
0.1270
 70
0
  0
VERTEX
  8
16
 10
34.9013
 20
37.8649
 30
0.0000
 42
1.0000
  0
VERTEX
  8
16
 10
35.0283
 20
37.8649
 30
0.0000
  0
SEQEND
  8
0
  0
POLYLINE
  8
16
 66
1
 10
0.0000
 20
0.0000
 30
0.0000
 40
0.1270
 41
0.1270
 70
0
  0
VERTEX
  8
16
 10
35.0283
 20
38.7221
 30
0.0000
 42
1.0000
  0
VERTEX
  8
16
 10
34.9013
 20
38.7221
 30
0.0000
  0
SEQEND
  8
0
  0
POLYLINE
  8
16
 66
1
 10
0.0000
 20
0.0000
 30
0.0000
 40
0.2540
 41
0.2540
 70
0
  0
VERTEX
  8
16
 10
32.9242
 20
40.6668
 30
0.0000
  0
VERTEX
  8
16
 10
34.2253
 20
41.9680
 30
0.0000
  0
SEQEND
  8
0
  0
POLYLINE
  8
16
 66
1
 10
0.0000
 20
0.0000
 30
0.0000
 40
0.1270
 41
0.1270
 70
0
  0
VERTEX
  8
16
 10
34.2702
 20
41.9231
 30
0.0000
 42
1.0000
  0
VERTEX
  8
16
 10
34.1804
 20
42.0129
 30
0.0000
  0
SEQEND
  8
0
  0
POLYLINE
  8
16
 66
1
 10
0.0000
 20
0.0000
 30
0.0000
 40
0.1270
 41
0.1270
 70
0
  0
VERTEX
  8
16
 10
32.8793
 20
40.7117
 30
0.0000
 42
1.0000
  0
VERTEX
  8
16
 10
32.9691
 20
40.6219
 30
0.0000
  0
SEQEND
  8
0
  0
POLYLINE
  8
16
 66
1
 10
0.0000
 20
0.0000
 30
0.0000
 40
0.2540
 41
0.2540
 70
0
  0
VERTEX
  8
16
 10
34.2253
 20
41.9680
 30
0.0000
  0
VERTEX
  8
16
 10
39.1216
 20
41.9680
 30
0.0000
  0
SEQEND
  8
0
  0
POLYLINE
  8
16
 66
1
 10
0.0000
 20
0.0000
 30
0.0000
 40
0.1270
 41
0.1270
 70
0
  0
VERTEX
  8
16
 10
39.1216
 20
41.9045
 30
0.0000
 42
1.0000
  0
VERTEX
  8
16
 10
39.1216
 20
42.0315
 30
0.0000
  0
SEQEND
  8
0
  0
POLYLINE
  8
16
 66
1
 10
0.0000
 20
0.0000
 30
0.0000
 40
0.1270
 41
0.1270
 70
0
  0
VERTEX
  8
16
 10
34.2253
 20
42.0315
 30
0.0000
 42
1.0000
  0
VERTEX
  8
16
 10
34.2253
 20
41.9045
 30
0.0000
  0
SEQEND
  8
0
  0
POLYLINE
  8
16
 66
1
 10
0.0000
 20
0.0000
 30
0.0000
 40
0.2540
 41
0.2540
 70
0
  0
VERTEX
  8
16
 10
39.1216
 20
41.9680
 30
0.0000
  0
VERTEX
  8
16
 10
39.9257
 20
42.7721
 30
0.0000
  0
SEQEND
  8
0
  0
POLYLINE
  8
16
 66
1
 10
0.0000
 20
0.0000
 30
0.0000
 40
0.1270
 41
0.1270
 70
0
  0
VERTEX
  8
16
 10
39.9706
 20
42.7271
 30
0.0000
 42
1.0000
  0
VERTEX
  8
16
 10
39.8808
 20
42.8170
 30
0.0000
  0
SEQEND
  8
0
  0
POLYLINE
  8
16
 66
1
 10
0.0000
 20
0.0000
 30
0.0000
 40
0.1270
 41
0.1270
 70
0
  0
VERTEX
  8
16
 10
39.0767
 20
42.0129
 30
0.0000
 42
1.0000
  0
VERTEX
  8
16
 10
39.1665
 20
41.9231
 30
0.0000
  0
SEQEND
  8
0
  0
POLYLINE
  8
16
 66
1
 10
0.0000
 20
0.0000
 30
0.0000
 40
0.2540
 41
0.2540
 70
0
  0
VERTEX
  8
16
 10
39.9257
 20
42.7721
 30
0.0000
  0
VERTEX
  8
16
 10
39.9257
 20
44.9711
 30
0.0000
  0
SEQEND
  8
0
  0
POLYLINE
  8
16
 66
1
 10
0.0000
 20
0.0000
 30
0.0000
 40
0.1270
 41
0.1270
 70
0
  0
VERTEX
  8
16
 10
39.9892
 20
44.9711
 30
0.0000
 42
1.0000
  0
VERTEX
  8
16
 10
39.8622
 20
44.9711
 30
0.0000
  0
SEQEND
  8
0
  0
POLYLINE
  8
16
 66
1
 10
0.0000
 20
0.0000
 30
0.0000
 40
0.1270
 41
0.1270
 70
0
  0
VERTEX
  8
16
 10
39.8622
 20
42.7721
 30
0.0000
 42
1.0000
  0
VERTEX
  8
16
 10
39.9892
 20
42.7721
 30
0.0000
  0
SEQEND
  8
0
  0
POLYLINE
  8
16
 66
1
 10
0.0000
 20
0.0000
 30
0.0000
 40
0.2540
 41
0.2540
 70
0
  0
VERTEX
  8
16
 10
32.9242
 20
31.3973
 30
0.0000
  0
VERTEX
  8
16
 10
37.3857
 20
26.9358
 30
0.0000
  0
SEQEND
  8
0
  0
POLYLINE
  8
16
 66
1
 10
0.0000
 20
0.0000
 30
0.0000
 40
0.1270
 41
0.1270
 70
0
  0
VERTEX
  8
16
 10
37.3408
 20
26.8909
 30
0.0000
 42
1.0000
  0
VERTEX
  8
16
 10
37.4306
 20
26.9807
 30
0.0000
  0
SEQEND
  8
0
  0
POLYLINE
  8
16
 66
1
 10
0.0000
 20
0.0000
 30
0.0000
 40
0.1270
 41
0.1270
 70
0
  0
VERTEX
  8
16
 10
32.9691
 20
31.4422
 30
0.0000
 42
1.0000
  0
VERTEX
  8
16
 10
32.8793
 20
31.3524
 30
0.0000
  0
SEQEND
  8
0
  0
POLYLINE
  8
16
 66
1
 10
0.0000
 20
0.0000
 30
0.0000
 40
0.2540
 41
0.2540
 70
0
  0
VERTEX
  8
16
 10
37.3857
 20
26.9358
 30
0.0000
  0
VERTEX
  8
16
 10
37.3857
 20
24.6350
 30
0.0000
  0
SEQEND
  8
0
  0
POLYLINE
  8
16
 66
1
 10
0.0000
 20
0.0000
 30
0.0000
 40
0.1270
 41
0.1270
 70
0
  0
VERTEX
  8
16
 10
37.3222
 20
24.6350
 30
0.0000
 42
1.0000
  0
VERTEX
  8
16
 10
37.4492
 20
24.6350
 30
0.0000
  0
SEQEND
  8
0
  0
POLYLINE
  8
16
 66
1
 10
0.0000
 20
0.0000
 30
0.0000
 40
0.1270
 41
0.1270
 70
0
  0
VERTEX
  8
16
 10
37.4492
 20
26.9358
 30
0.0000
 42
1.0000
  0
VERTEX
  8
16
 10
37.3222
 20
26.9358
 30
0.0000
  0
SEQEND
  8
0
  0
POLYLINE
  8
16
 66
1
 10
0.0000
 20
0.0000
 30
0.0000
 40
0.2540
 41
0.2540
 70
0
  0
VERTEX
  8
16
 10
32.9242
 20
33.7147
 30
0.0000
  0
VERTEX
  8
16
 10
39.9257
 20
26.7131
 30
0.0000
  0
SEQEND
  8
0
  0
POLYLINE
  8
16
 66
1
 10
0.0000
 20
0.0000
 30
0.0000
 40
0.1270
 41
0.1270
 70
0
  0
VERTEX
  8
16
 10
39.8808
 20
26.6682
 30
0.0000
 42
1.0000
  0
VERTEX
  8
16
 10
39.9706
 20
26.7580
 30
0.0000
  0
SEQEND
  8
0
  0
POLYLINE
  8
16
 66
1
 10
0.0000
 20
0.0000
 30
0.0000
 40
0.1270
 41
0.1270
 70
0
  0
VERTEX
  8
16
 10
32.9691
 20
33.7596
 30
0.0000
 42
1.0000
  0
VERTEX
  8
16
 10
32.8793
 20
33.6698
 30
0.0000
  0
SEQEND
  8
0
  0
POLYLINE
  8
16
 66
1
 10
0.0000
 20
0.0000
 30
0.0000
 40
0.2540
 41
0.2540
 70
0
  0
VERTEX
  8
16
 10
39.9257
 20
26.7131
 30
0.0000
  0
VERTEX
  8
16
 10
39.9257
 20
24.6350
 30
0.0000
  0
SEQEND
  8
0
  0
POLYLINE
  8
16
 66
1
 10
0.0000
 20
0.0000
 30
0.0000
 40
0.1270
 41
0.1270
 70
0
  0
VERTEX
  8
16
 10
39.8622
 20
24.6350
 30
0.0000
 42
1.0000
  0
VERTEX
  8
16
 10
39.9892
 20
24.6350
 30
0.0000
  0
SEQEND
  8
0
  0
POLYLINE
  8
16
 66
1
 10
0.0000
 20
0.0000
 30
0.0000
 40
0.1270
 41
0.1270
 70
0
  0
VERTEX
  8
16
 10
39.9892
 20
26.7131
 30
0.0000
 42
1.0000
  0
VERTEX
  8
16
 10
39.8622
 20
26.7131
 30
0.0000
  0
SEQEND
  8
0
  0
ENDSEC
  0
EOF
